<?xml version="1.0" encoding="utf-8"?>
<!-- Generator: Adobe Illustrator 22.0.1, SVG Export Plug-In . SVG Version: 6.00 Build 0)  -->
<svg version="1.1" xmlns="http://www.w3.org/2000/svg" xmlns:xlink="http://www.w3.org/1999/xlink" x="0px" y="0px"
	 viewBox="0 0 512 512" style="enable-background:new 0 0 512 512;" xml:space="preserve">
<style type="text/css">
	.st0{fill:#E9B12D;}
	.st1{fill:#A9E7D8;}
	.st2{fill:#76CFB1;}
	.st3{fill:#AE6B5D;}
	.st4{fill:#7770D3;}
	.st5{fill:#5BA0F5;}
	.st6{fill:#DA4545;}
	.st7{fill:#89CCFC;}
	.st8{fill:#CD462A;}
	.st9{fill:#514896;}
	.st10{fill:#5493A0;}
	.st11{fill:#CC6B5C;}
	.st12{fill:#62AA8D;}
	.st13{fill:#8ABAAB;}
	.st14{fill:#C3791F;}
	.st15{fill:#E39123;}
	.st16{fill:#FFFFFF;}
	.st17{fill:none;stroke:#FFFFFF;stroke-width:10;stroke-linecap:round;stroke-miterlimit:10;}
	.st18{fill:none;stroke:#5F55AB;stroke-width:10;stroke-linecap:round;stroke-miterlimit:10;}
	.st19{fill:#A9671C;}
	.st20{fill:#D5B3A7;}
	.st21{fill:#C09A8F;}
	.st22{fill:#487F87;}
	.st23{fill:#1B305C;}
	.st24{fill:#172945;}
	.st25{fill:none;}
	.st26{fill:#B62A2A;}
	.st27{fill:#325859;}
	.st28{fill:#3F6E71;}
	.st29{fill:#284646;}
	.st30{fill:#8F2727;}
	.st31{fill:#29477C;}
	.st32{fill:#5B9BEE;}
	.st33{fill:#487FDE;}
	.st34{fill:#CD9829;}
	.st35{fill:#9F2A2A;}
	.st36{fill:#4C3328;}
	.st37{fill:#E8B94A;}
	.st38{fill:#DDF8F1;}
	.st39{fill:#3E2A22;}
	.st40{fill:#D3A971;}
	.st41{fill:#C79A5B;}
	.st42{fill:#233E76;}
	.st43{fill:#21395F;}
	.st44{fill:#487D82;}
	.st45{fill:none;stroke:#C79A5B;stroke-width:10;stroke-linecap:round;stroke-miterlimit:10;}
	.st46{fill:#5E3E31;}
	.st47{fill:#AC3939;}
	.st48{fill:#CA9628;}
	.st49{fill:#AF8F88;}
	.st50{fill:#815048;}
	.st51{fill:#6F4232;}
	.st52{fill:#5F55AB;}
	.st53{fill:#192A48;}
	.st54{fill:#152336;}
	.st55{fill:#192B49;}
	.st56{fill:#264173;}
	.st57{fill:#B06F1E;}
	.st58{fill:#4E88C0;}
	.st59{fill:#83C3F1;}
	.st60{fill:#CF9929;}
	.st61{fill:none;stroke:#FFFFFF;stroke-width:10;stroke-linecap:round;stroke-linejoin:round;stroke-miterlimit:10;}
	.st62{fill:#EAC262;}
	.st63{fill:#D6D5D4;}
	.st64{fill:#6BBA9B;}
	.st65{fill:#63AA8F;}
	.st66{fill:none;stroke:#3E2A22;stroke-width:10;stroke-linecap:round;stroke-miterlimit:10;}
	.st67{fill:#CA7D1F;}
	.st68{fill:#213B64;}
	.st69{fill:#CDF8EC;}
	.st70{fill:#C59125;}
	.st71{fill:none;stroke:#C09A8F;stroke-width:10;stroke-linecap:round;stroke-miterlimit:10;}
	.st72{fill:#32579B;}
	.st73{fill:#172843;}
	.st74{fill:#D66767;}
	.st75{fill:#A74949;}
	.st76{fill:#EBC76F;}
	.st77{fill:#7A4940;}
	.st78{fill:#182A48;}
	.st79{fill:none;stroke:#A0794A;stroke-width:10;stroke-linecap:round;stroke-miterlimit:10;}
	.st80{fill:#C37A20;}
	.st81{fill:#D26D5C;}
	.st82{fill:#A45752;}
	.st83{fill:#284579;}
	.st84{fill:#88C7F4;}
	.st85{fill:#6EB6F0;}
	.st86{fill:#32221E;}
	.st87{fill:#E7A6A6;}
	.st88{fill:#C59191;}
	.st89{fill:#AA3B3B;}
	.st90{fill:#B83E3E;}
	.st91{fill:none;stroke:#5F55A9;stroke-width:10;stroke-linecap:round;stroke-miterlimit:10;}
	.st92{fill:#963838;}
	.st93{fill:#402B25;}
	.st94{fill:#6B6ABA;}
	.st95{fill:#BABABA;}
	.st96{fill:#D1D1D1;}
	.st97{fill:#264377;}
	.st98{fill:#A19BF5;}
	.st99{fill:#3C2A21;}
	.st100{fill:none;stroke:#4C3328;stroke-width:10;stroke-linecap:round;stroke-miterlimit:10;}
	.st101{fill:#C1781F;}
	.st102{fill:#E3A147;}
	.st103{fill:#F2D2A1;}
	.st104{fill:#4F372D;}
	.st105{fill:none;stroke:#DA4545;stroke-width:10;stroke-linecap:round;stroke-miterlimit:10;}
	.st106{fill:#AA3928;}
	.st107{fill:#8C2C22;}
	.st108{fill:#BF4336;}
	.st109{fill:#5797D4;}
	.st110{fill:#CFCFCF;}
	.st111{fill:#613A2E;}
	.st112{fill:none;stroke:#B18653;stroke-width:10;stroke-linecap:round;stroke-miterlimit:10;}
	.st113{fill:#B13B3B;}
	.st114{fill:#16263A;}
	.st115{fill:none;stroke:#16263A;stroke-width:10;stroke-miterlimit:10;}
	.st116{fill:#C87D20;}
	.st117{fill:#E4F0FD;}
	.st118{fill:#AA3737;}
	.st119{fill:#BF771F;}
	.st120{fill:none;stroke:#CD462A;stroke-width:10;stroke-linejoin:round;stroke-miterlimit:10;}
	.st121{fill:#5696D2;}
	.st122{fill:#C0771E;}
	.st123{fill:#9B5F1B;}
	.st124{fill:#A83A29;}
	.st125{fill:#E7A74F;}
	.st126{fill:#C9924C;}
	.st127{fill:#C58E48;}
	.st128{fill:#BE8844;}
	.st129{fill:#916939;}
	.st130{fill:#264275;}
	.st131{fill:#253F65;}
	.st132{fill:#182A45;}
	.st133{fill:#162336;}
	.st134{fill:#93C7B7;}
	.st135{fill:#E6A4A4;}
	.st136{fill:#B06B1D;}
	.st137{fill:#484185;}
	.st138{fill:#DB6E6E;}
	.st139{fill:#6BBA9A;}
	.st140{fill:#CACCCC;}
	.st141{fill:#D4D4D4;}
	.st142{fill:#A98881;}
	.st143{fill:#213A62;}
	.st144{fill:#A2837D;}
	.st145{fill:#6FB8F4;}
	.st146{fill:#9B9E9E;}
	.st147{fill:#B2B3B3;}
	.st148{fill:#20385D;}
	.st149{fill:#335AA8;}
	.st150{fill:#BCE7FD;}
	.st151{fill:#3B2921;}
	.st152{fill:#AD3C3C;}
	.st153{fill:#9D3838;}
	.st154{fill:#603F33;}
	.st155{fill:#4D868B;}
	.st156{fill:#A2DDFD;}
	.st157{fill:#ECB6B6;}
	.st158{fill:#E8A346;}
	.st159{fill:#514C94;}
	.st160{fill:#D2F1E8;}
	.st161{fill:#BDD6CE;}
	.st162{fill:#B93B29;}
	.st163{fill:#E0AD70;}
	.st164{fill:#C57C21;}
	.st165{fill:#EDA34A;}
	.st166{fill:#2F538F;}
	.st167{fill:#2B4B78;}
	.st168{fill:#65AF91;}
	.st169{fill:#A7CEFC;}
	.st170{fill:#98BDE2;}
	.st171{fill:#CFE5F7;}
	.st172{fill:#5492CD;}
	.st173{fill:#97CCBC;}
	.st174{fill:#5491CA;}
	.st175{fill:#EDC563;}
	.st176{fill:#423C79;}
	.st177{fill:#D3B1A5;}
	.st178{fill:#BE988D;}
	.st179{fill:#A7E5D6;}
	.st180{fill:#F2FFF9;}
	.st181{fill:#D64545;}
	.st182{fill:#A73B3B;}
	.st183{fill:#15233A;}
	.st184{fill:none;stroke:#BE988D;stroke-width:10;stroke-linecap:round;stroke-miterlimit:10;}
	.st185{fill:#AF3A29;}
	.st186{fill:#FAF9FF;}
	.st187{fill:#CACACC;}
	.st188{fill:#372720;}
	.st189{fill:#3F2C26;}
	.st190{fill:#2D201C;}
	.st191{fill:#3D6D6F;}
	.st192{fill:#5B54A8;}
	.st193{fill:#325799;}
	.st194{fill:#E8C26E;}
	.st195{fill:#254784;}
	.st196{fill:#5696D4;}
	.st197{fill:#4F8AB6;}
	.st198{fill:#5FA4AC;}
	.st199{fill:#AA3524;}
	.st200{fill:#D15F4D;}
	.st201{fill:#2B294C;}
	.st202{fill:#A43A2A;}
	.st203{fill:#E7AE2D;}
	.st204{fill:#CD9729;}
	.st205{fill:none;stroke:#AA8253;stroke-width:10;stroke-linecap:round;stroke-miterlimit:10;}
	.st206{fill:none;stroke:#E18F23;stroke-width:10;stroke-linecap:round;stroke-linejoin:round;stroke-miterlimit:10;}
	.st207{fill:#CF9828;}
	.st208{fill:#B88926;}
	.st209{fill:#A17623;}
	.st210{fill:#96CCBC;}
	.st211{fill:#CF9A2A;}
	.st212{fill:#C57B20;}
	.st213{fill:#C7F1E6;}
	.st214{fill:#DC6363;}
	.st215{fill:#E89F9F;}
	.st216{fill:#C88C8C;}
	.st217{fill:#C16E6E;}
	.st218{fill:#A46060;}
	.st219{fill:#AA3626;}
	.st220{fill:#87EDC4;}
	.st221{fill:#D86552;}
	.st222{fill:#BC7620;}
	.st223{fill:#BA741E;}
	.st224{fill:#8F8CE3;}
	.st225{fill:#3A2820;}
	.st226{fill:#AC7060;}
	.st227{fill:#915F55;}
	.st228{fill:#49332A;}
	.st229{fill:#2D1F1B;}
	.st230{fill:#69B7BE;}
	.st231{fill:#D6D6D6;}
	.st232{fill:#B8B8B8;}
	.st233{fill:#CACACA;}
	.st234{fill:#467B80;}
	.st235{fill:#C2EDE2;}
	.st236{fill:#A9574F;}
	.st237{fill:#5595D2;}
	.st238{fill:#955949;}
	.st239{fill:#7E4B42;}
	.st240{fill:#89CCF1;}
	.st241{fill:#DD584A;}
	.st242{fill:#C18F26;}
	.st243{fill:#B33C2A;}
	.st244{fill:#D1A771;}
	.st245{fill:#B42A2A;}
	.st246{fill:#325797;}
	.st247{fill:#9F3529;}
	.st248{fill:#EDCE80;}
	.st249{fill:#F0DBAC;}
	.st250{fill:#CFB478;}
	.st251{fill:#D4C29B;}
	.st252{fill:#993939;}
	.st253{fill:#D1AFA3;}
	.st254{fill:#BC968B;}
	.st255{fill:none;stroke:#BC968B;stroke-width:10;stroke-linecap:round;stroke-miterlimit:10;}
	.st256{fill:#814C3C;}
	.st257{fill:#C0EBE0;}
	.st258{fill:#A5E3D4;}
	.st259{fill:#15243C;}
	.st260{fill:#443E79;}
	.st261{fill:#F0FFF7;}
	.st262{fill:#9A764B;}
	.st263{fill:#826443;}
	.st264{fill:#D9AA74;}
	.st265{fill:#5DA186;}
	.st266{fill:#68B596;}
	.st267{fill:#E5C6BE;}
	.st268{fill:#D3B6B1;}
	.st269{fill:none;stroke:#BAA09C;stroke-width:10;stroke-linecap:round;stroke-miterlimit:10;}
	.st270{fill:#F4D78F;}
	.st271{fill:#20385F;}
	.st272{fill:#BA8727;}
	.st273{fill:#5A9C82;}
	.st274{fill:none;stroke:#E39123;stroke-width:10;stroke-linecap:round;stroke-linejoin:round;stroke-miterlimit:10;}
	.st275{fill:#60392D;}
	.st276{fill:#CCCCCC;}
	.st277{fill:#844F3E;}
	.st278{fill:#F3FFFB;}
	.st279{fill:#365E60;}
	.st280{fill:#D84545;}
	.st281{fill:#A83B3B;}
	.st282{fill:#253F70;}
	.st283{fill:#EAADAD;}
	.st284{fill:#443E7C;}
	.st285{fill:#3D6B9F;}
	.st286{fill:#4274BC;}
	.st287{fill:#AF3827;}
	.st288{fill:#E59D9D;}
	.st289{fill:#C48989;}
	.st290{fill:none;stroke:#9B621A;stroke-width:10;stroke-linecap:round;stroke-linejoin:round;stroke-miterlimit:10;}
	.st291{fill:#213A5E;}
	.st292{fill:#2D507A;}
	.st293{fill:#528EC8;}
	.st294{fill:#EFD696;}
	.st295{fill:#D1BA87;}
	.st296{fill:#FDFCFC;}
	.st297{fill:#86CBFC;}
	.st298{fill:#7AB7DA;}
	.st299{fill:#192C4C;}
	.st300{fill:#BCBCBC;}
	.st301{fill:#A13838;}
	.st302{fill:#75BDF6;}
	.st303{fill:#D0B1AA;}
	.st304{fill:#142233;}
	.st305{fill:#E6C4BB;}
	.st306{fill:#BDBDBD;}
	.st307{fill:#E8A192;}
	.st308{fill:#A43939;}
	.st309{fill:#162640;}
	.st310{fill:#27457C;}
	.st311{fill:#EFBE5E;}
	.st312{fill:#87EDC5;}
	.st313{fill:#A03838;}
	.st314{fill:#833232;}
	.st315{fill:#47417F;}
	.st316{fill:none;stroke:#915F55;stroke-width:10;stroke-linecap:round;stroke-miterlimit:10;}
	.st317{fill:#BC8B25;}
	.st318{fill:#473129;}
	.st319{fill:#67B394;}
	.st320{fill:#599A80;}
	.st321{fill:#B13D3D;}
</style>
<g id="BULINE">
	<circle id="XMLID_1827_" class="st1" cx="256" cy="256" r="256"/>
	<g>
	</g>
</g>
<g id="Icons">
	<g id="XMLID_1832_">
		<path id="XMLID_2237_" class="st50" d="M264.9,304.9h-14.7c-11.8,0-21.4-9.6-21.4-21.4v-35.2c0-11.8,9.6-21.4,21.4-21.4h14.7
			c11.8,0,21.4,9.6,21.4,21.4v35.2C286.3,295.4,276.7,304.9,264.9,304.9z"/>
		<path id="XMLID_2235_" class="st51" d="M267.6,304.7c-1,0.1-2,0.2-3.1,0.2h-14.7c-11.8,0-21.4-9.6-21.4-21.4v-35.2
			c0-11.8,9.6-21.4,21.4-21.4h14.7c1,0,2.1,0.1,3.1,0.2c-10.3,1.5-18.3,10.4-18.3,21.2v35.2C249.3,294.3,257.2,303.2,267.6,304.7z"
			/>
		<path id="XMLID_1912_" class="st172" d="M499.1,336.6c-1.2,3.6-2.5,7.2-3.9,10.8c-7,18.3-16,35.5-26.8,51.5
			c-15.6,23.1-34.8,43.5-56.8,60.4H100.4c-21.5-16.5-40.4-36.4-55.7-58.8c-13.7-20-24.6-42.1-32.3-65.6c24.5-3.6,68.4-8.7,114.6-7.1
			c0.2,0,0.4,0,0.6,0c9.8,0.3,19.7,1,29.6,2c25.1,2.6,49.8,7.7,71.5,16.5c0,0,76.6,23,136.5-8c0,0,8.3-4.4,22.5-8.3
			C410,324,455.9,320.1,499.1,336.6z"/>
		<path id="XMLID_2243_" class="st38" d="M463.9,146.8c0-10.5-8.5-19-19-19c-1.8,0-3.5,0.3-5.1,0.7c-3.2-10.7-13.1-18.5-24.9-18.5
			c-11.8,0-21.7,7.9-24.9,18.6c-1.8-0.6-3.7-0.9-5.7-0.9c-10.5,0-19,8.5-19,19c0,10.5,8.5,19,19,19h65.2v-0.6
			C457.8,163.2,463.9,155.7,463.9,146.8z"/>
		<path id="XMLID_2241_" class="st38" d="M106.9,211.4c0-10.5-8.5-19-19-19c-1.8,0-3.5,0.3-5.1,0.7c-3.2-10.7-13.1-18.5-24.9-18.5
			c-11.8,0-21.7,7.9-24.9,18.6c-1.8-0.6-3.7-0.9-5.7-0.9c-10.5,0-19,8.5-19,19c0,10.5,8.5,19,19,19h65.2v-0.6
			C100.8,227.8,106.9,220.3,106.9,211.4z"/>
		<path id="XMLID_2298_" class="st50" d="M387.8,331.6v143.9c-1.4,0.9-2.9,1.7-4.4,2.6H128.6c-0.4-0.2-0.7-0.4-1.1-0.6
			c-0.2-0.1-0.4-0.2-0.6-0.4V331.6c0-1.3,0-2.6,0.2-3.8c1.9-23.5,21.6-41.9,45.6-41.9H342c24.7,0,44.9,19.6,45.7,44.2
			C387.8,330.5,387.8,331.1,387.8,331.6z"/>
		<path id="XMLID_2263_" class="st51" d="M203,285.8c-24.7,0-44.8,19.5-45.7,44c0,0.6,0,1.2,0,1.8v146.5h-28.6
			c-0.4-0.2-0.7-0.4-1.1-0.6V331.6c0-1.3,0-2.6,0.2-3.8c1.9-23.5,21.6-42,45.6-42H203z"/>
		<path id="XMLID_2233_" class="st50" d="M364.1,131.6h-2.4v-16.3C361.7,57.7,315,11,257.4,11h0c-57.6,0-104.3,46.7-104.3,104.3
			v47.1c0,57.6,46.7,104.3,104.3,104.3h0c53.6,0,97.8-40.5,103.6-92.6h3.1c8,0,14.4-6.5,14.4-14.4V146
			C378.5,138,372.1,131.6,364.1,131.6z"/>
		<path id="XMLID_2232_" class="st51" d="M190.3,162.5v-47.1c0-51.2,37-93.9,85.7-102.7c-6-1.1-12.3-1.7-18.6-1.7
			c-57.6,0-104.3,46.7-104.3,104.3v16.3h-2c-8,0-14.4,6.5-14.4,14.4v13.8c0,8,6.5,14.4,14.4,14.4h2.6c5.8,52.1,50,92.6,103.6,92.6
			c6.4,0,12.6-0.6,18.6-1.7C227.3,256.3,190.3,213.7,190.3,162.5z"/>
		<path id="XMLID_2231_" class="st51" d="M263.8,185.2h-12.9c-4.3,0-7.7-3.4-7.7-7.7v0c0-4.3,3.4-7.7,7.7-7.7h12.9
			c4.3,0,7.7,3.4,7.7,7.7v0C271.5,181.7,268,185.2,263.8,185.2z"/>
		<g id="XMLID_2223_">
			<path id="XMLID_2229_" class="st36" d="M285.8,200.2c1.5,0,2.7,1.2,2.7,2.7v0c0,2.8-0.4,5.5-1.1,8.1c-1.6,6-5,11.3-9.6,15.3
				c-5.4,4.7-12.6,7.6-20.3,7.6c-7.8,0-14.9-2.9-20.3-7.6c-4.6-4-8-9.2-9.6-15.3c-0.7-2.6-1.1-5.3-1.1-8.1v0c0-1.5,1.2-2.7,2.7-2.7
				H285.8z"/>
			<path id="XMLID_2228_" class="st26" d="M277.9,226.3c-5.4,4.7-12.6,7.6-20.3,7.6c-7.8,0-14.9-2.9-20.3-7.6
				c5.4-4.8,12.6-7.6,20.3-7.6C265.3,218.7,272.4,221.6,277.9,226.3z"/>
			<path id="XMLID_2226_" class="st16" d="M285.8,200.2c1.5,0,2.7,1.2,2.7,2.7v0c0,2.8-0.4,5.5-1.1,8.1h-59.8
				c-0.7-2.6-1.1-5.3-1.1-8.1v0c0-1.5,1.2-2.7,2.7-2.7H285.8z"/>
		</g>
		<path id="XMLID_2221_" class="st6" d="M166.5,143.8v26h-36.1c-13,0-23.5-10.5-23.5-23.5V50.3c0-3.2,2.6-5.8,5.8-5.8h14.5
			c3.2,0,5.8,2.6,5.8,5.8v93.5H166.5z"/>
		<path id="XMLID_2219_" class="st89" d="M142.5,169.8h-12c-13,0-23.5-10.5-23.5-23.5V50.3c0-3.2,2.6-5.8,5.8-5.8h12
			c-3.2,0-5.8,2.6-5.8,5.8v95.9C118.9,159.2,129.5,169.8,142.5,169.8z"/>
		<g id="XMLID_2196_">
			<path id="XMLID_2202_" class="st16" d="M313.3,110.9c-0.4-0.1-0.7-0.1-1.1-0.1H203.9c-4.7,0-9.3,0.7-13.5,2.1
				c-11.9,3.8-21.6,12.4-26.9,23.6c-1.1,2.3-2,4.8-2.7,7.3c-1,3.7-1.6,7.7-1.6,11.7c0,5,0.8,9.8,2.3,14.3
				c5.3,15.6,19,27.4,35.6,29.9c2.2,0.3,4.4,0.5,6.7,0.5c16.8,0,31.7-9.4,39.3-23.4c0,0,0,0,0,0v0c0.8-1.5,1.5-3.1,2.2-4.7l0,0
				c0,0,0,0,0,0c0.5-1.4,1-2.8,1.5-4.3h20.9c0.4,1.5,0.9,2.9,1.5,4.4c0.6,1.6,1.4,3.2,2.2,4.7v0c0,0,0,0,0,0
				c7.6,14,22.5,23.4,39.3,23.4c24.6,0,44.7-20,44.7-44.7C355.4,131.7,337,112.2,313.3,110.9z M273.9,152.7h-33.1
				c-3.8,0-7,2.8-7.4,6.6c-1,8-5.2,14.9-11.2,19.6c-5.1,4-11.4,6.3-18.2,6.3c-4.1,0-8-0.8-11.6-2.4c-10.6-4.5-18.1-15.1-18.1-27.3
				c0-2.2,0.2-4.3,0.7-6.3c1.9-8.8,7.7-16.1,15.4-20.1c4.1-2.1,8.7-3.3,13.6-3.3h107.5c0.2,0,0.3,0,0.5,0
				c16,0.6,28.5,13.6,28.5,29.7c0,16.4-13.3,29.7-29.7,29.7c-14.9,0-27.6-11.1-29.4-25.9C280.8,155.5,277.7,152.7,273.9,152.7z"/>
		</g>
		<path id="XMLID_2195_" class="st1" d="M310.6,119.6L310.6,119.6l-104.1,0c-20.2,0-37.1,16.5-36.7,36.7c0.4,19.5,16.3,35.3,36,35.3
			c16.4,0,30.2-10.9,34.5-25.9c0.9-3.2,3.9-5.5,7.2-5.5h19.8c3.3,0,6.3,2.2,7.2,5.4c4.5,15.7,19.5,27,36.9,25.9
			c17.7-1.1,32.1-15.3,33.5-33C346.7,137.7,330.8,120.3,310.6,119.6z"/>
		<path id="XMLID_2193_" class="st173" d="M227.7,184.1c-6.1,4.6-13.6,7.4-21.8,7.4c-19.6,0-35.6-15.7-36-35.3
			c-0.4-20.2,16.5-36.7,36.7-36.7h43.7c-20.2,0-37.1,16.5-36.7,36.7C213.8,167.6,219.3,177.7,227.7,184.1z"/>
		<circle id="XMLID_2190_" class="st23" cx="206.4" cy="145.9" r="14.3"/>
		<circle id="XMLID_2184_" class="st16" cx="210" cy="141.2" r="6.3"/>
		<circle id="XMLID_2183_" class="st23" cx="306.7" cy="145.9" r="14.3"/>
		<circle id="XMLID_2182_" class="st16" cx="310.4" cy="141.2" r="6.3"/>
		<path id="XMLID_2181_" class="st89" d="M131.2,82.7h-22.9c-3,0-5.5-2.5-5.5-5.5v0c0-3,2.5-5.5,5.5-5.5h22.9c3,0,5.5,2.5,5.5,5.5v0
			C136.7,80.2,134.3,82.7,131.2,82.7z"/>
		<path id="XMLID_2141_" class="st89" d="M131.2,106.8h-22.9c-3,0-5.5-2.5-5.5-5.5v0c0-3,2.5-5.5,5.5-5.5h22.9c3,0,5.5,2.5,5.5,5.5
			v0C136.7,104.4,134.3,106.8,131.2,106.8z"/>
		<path id="XMLID_2138_" class="st89" d="M131.2,130.5h-22.9c-3,0-5.5-2.5-5.5-5.5v0c0-3,2.5-5.5,5.5-5.5h22.9c3,0,5.5,2.5,5.5,5.5
			v0C136.7,128.1,134.3,130.5,131.2,130.5z"/>
		<path id="XMLID_1841_" class="st89" d="M153.1,146.7v22.9c0,3-2.5,5.5-5.5,5.5h0c-3,0-5.5-2.5-5.5-5.5v-22.9c0-3,2.5-5.5,5.5-5.5
			h0C150.6,141.2,153.1,143.7,153.1,146.7z"/>
		<path id="XMLID_1840_" class="st89" d="M136.7,148.3l-16.2,16.2c-2.1,2.1-5.6,2.1-7.8,0l0,0c-2.1-2.1-2.1-5.6,0-7.8l16.2-16.2
			c2.1-2.1,5.6-2.1,7.8,0l0,0C138.8,142.6,138.8,146.1,136.7,148.3z"/>
		<path id="XMLID_1836_" class="st5" d="M132.9,50.3v12.5h-26V50.3c0-3.2,2.6-5.8,5.8-5.8h14.5C130.3,44.6,132.9,47.1,132.9,50.3z"
			/>
		<path id="XMLID_1835_" class="st174" d="M124.3,44.6c-3.2,0-5.8,2.6-5.8,5.8v12.5h-11.6V50.3c0-3.2,2.6-5.8,5.8-5.8H124.3z"/>
		<path id="XMLID_1834_" class="st51" d="M181.9,478.1h-15.3v-89.4c0-4.2,3.4-7.7,7.7-7.7h0c4.2,0,7.7,3.4,7.7,7.7V478.1z"/>
		<path id="XMLID_1907_" class="st51" d="M341.4,478.1h-15.3v-89.4c0-4.2,3.4-7.7,7.7-7.7l0,0c4.2,0,7.7,3.4,7.7,7.7V478.1z"/>
		<circle id="XMLID_1908_" class="st51" cx="206.4" cy="382" r="11.2"/>
		<circle id="XMLID_1909_" class="st51" cx="306.7" cy="382" r="11.2"/>
		<path id="XMLID_2266_" class="st5" d="M468.4,398.9c-15.6,23.1-34.8,43.5-56.8,60.4c-7.6,5.8-15.6,11.3-23.8,16.2
			c-1.4,0.9-2.9,1.7-4.4,2.6c-37.5,21.6-81,33.9-127.4,33.9s-89.9-12.3-127.4-33.9c-0.4-0.2-0.7-0.4-1.1-0.6
			c-0.2-0.1-0.4-0.2-0.6-0.4c-9.2-5.4-18.1-11.3-26.5-17.8c-21.5-16.5-40.4-36.4-55.7-58.8c23.3-2.4,52.3-4.1,82.2-3.1
			c0.2,0,0.4,0,0.6,0c9.8,0.3,19.8,1,29.7,2c3.1,0.3,6.2,0.7,9.3,1.1c5.1,0.7,10.3,1.4,15.3,2.4c16.5,2.9,32.4,7.1,46.9,13
			c0,0,47.7,14.3,97.3,5.1c5.1-0.9,10.2-2.1,15.3-3.6c8.1-2.4,16.1-5.5,23.9-9.5c0,0,8.3-4.4,22.5-8.3
			C406.3,394.6,435,390.6,468.4,398.9z"/>
	</g>
</g>
</svg>
