<?xml version="1.0" encoding="utf-8"?>
<!-- Generator: Adobe Illustrator 22.0.1, SVG Export Plug-In . SVG Version: 6.00 Build 0)  -->
<svg version="1.1" xmlns="http://www.w3.org/2000/svg" xmlns:xlink="http://www.w3.org/1999/xlink" x="0px" y="0px"
	 viewBox="0 0 512 512" style="enable-background:new 0 0 512 512;" xml:space="preserve">
<style type="text/css">
	.st0{fill:#E9B12D;}
	.st1{fill:#A9E7D8;}
	.st2{fill:#76CFB1;}
	.st3{fill:#AE6B5D;}
	.st4{fill:#7770D3;}
	.st5{fill:#5BA0F5;}
	.st6{fill:#DA4545;}
	.st7{fill:#89CCFC;}
	.st8{fill:#CD462A;}
	.st9{fill:#514896;}
	.st10{fill:#5493A0;}
	.st11{fill:#CC6B5C;}
	.st12{fill:#62AA8D;}
	.st13{fill:#8ABAAB;}
	.st14{fill:#C3791F;}
	.st15{fill:#E39123;}
	.st16{fill:#FFFFFF;}
	.st17{fill:none;stroke:#FFFFFF;stroke-width:10;stroke-linecap:round;stroke-miterlimit:10;}
	.st18{fill:none;stroke:#5F55AB;stroke-width:10;stroke-linecap:round;stroke-miterlimit:10;}
	.st19{fill:#A9671C;}
	.st20{fill:#D5B3A7;}
	.st21{fill:#C09A8F;}
	.st22{fill:#487F87;}
	.st23{fill:#1B305C;}
	.st24{fill:#172945;}
	.st25{fill:none;}
	.st26{fill:#B62A2A;}
	.st27{fill:#325859;}
	.st28{fill:#3F6E71;}
	.st29{fill:#284646;}
	.st30{fill:#8F2727;}
	.st31{fill:#29477C;}
	.st32{fill:#5B9BEE;}
	.st33{fill:#487FDE;}
	.st34{fill:#CD9829;}
	.st35{fill:#9F2A2A;}
	.st36{fill:#4C3328;}
	.st37{fill:#E8B94A;}
	.st38{fill:#DDF8F1;}
	.st39{fill:#3E2A22;}
	.st40{fill:#D3A971;}
	.st41{fill:#C79A5B;}
	.st42{fill:#233E76;}
	.st43{fill:#21395F;}
	.st44{fill:#487D82;}
	.st45{fill:none;stroke:#C79A5B;stroke-width:10;stroke-linecap:round;stroke-miterlimit:10;}
	.st46{fill:#5E3E31;}
	.st47{fill:#AC3939;}
	.st48{fill:#CA9628;}
	.st49{fill:#AF8F88;}
	.st50{fill:#815048;}
	.st51{fill:#6F4232;}
	.st52{fill:#5F55AB;}
	.st53{fill:#192A48;}
	.st54{fill:#152336;}
	.st55{fill:#192B49;}
	.st56{fill:#264173;}
	.st57{fill:#B06F1E;}
	.st58{fill:#4E88C0;}
	.st59{fill:#83C3F1;}
	.st60{fill:#CF9929;}
	.st61{fill:none;stroke:#FFFFFF;stroke-width:10;stroke-linecap:round;stroke-linejoin:round;stroke-miterlimit:10;}
	.st62{fill:#EAC262;}
	.st63{fill:#D6D5D4;}
	.st64{fill:#6BBA9B;}
	.st65{fill:#63AA8F;}
	.st66{fill:none;stroke:#3E2A22;stroke-width:10;stroke-linecap:round;stroke-miterlimit:10;}
	.st67{fill:#CA7D1F;}
	.st68{fill:#213B64;}
	.st69{fill:#CDF8EC;}
	.st70{fill:#C59125;}
	.st71{fill:none;stroke:#C09A8F;stroke-width:10;stroke-linecap:round;stroke-miterlimit:10;}
	.st72{fill:#32579B;}
	.st73{fill:#172843;}
	.st74{fill:#D66767;}
	.st75{fill:#A74949;}
	.st76{fill:#EBC76F;}
	.st77{fill:#7A4940;}
	.st78{fill:#182A48;}
	.st79{fill:none;stroke:#A0794A;stroke-width:10;stroke-linecap:round;stroke-miterlimit:10;}
	.st80{fill:#C37A20;}
	.st81{fill:#D26D5C;}
	.st82{fill:#A45752;}
	.st83{fill:#284579;}
	.st84{fill:#88C7F4;}
	.st85{fill:#6EB6F0;}
	.st86{fill:#32221E;}
	.st87{fill:#E7A6A6;}
	.st88{fill:#C59191;}
	.st89{fill:#AA3B3B;}
	.st90{fill:#B83E3E;}
	.st91{fill:none;stroke:#5F55A9;stroke-width:10;stroke-linecap:round;stroke-miterlimit:10;}
	.st92{fill:#963838;}
	.st93{fill:#402B25;}
	.st94{fill:#6B6ABA;}
	.st95{fill:#BABABA;}
	.st96{fill:#D1D1D1;}
	.st97{fill:#264377;}
	.st98{fill:#A19BF5;}
	.st99{fill:#3C2A21;}
	.st100{fill:none;stroke:#4C3328;stroke-width:10;stroke-linecap:round;stroke-miterlimit:10;}
	.st101{fill:#C1781F;}
	.st102{fill:#E3A147;}
	.st103{fill:#F2D2A1;}
	.st104{fill:#4F372D;}
	.st105{fill:none;stroke:#DA4545;stroke-width:10;stroke-linecap:round;stroke-miterlimit:10;}
	.st106{fill:#AA3928;}
	.st107{fill:#8C2C22;}
	.st108{fill:#BF4336;}
	.st109{fill:#5797D4;}
	.st110{fill:#CFCFCF;}
	.st111{fill:#613A2E;}
	.st112{fill:none;stroke:#B18653;stroke-width:10;stroke-linecap:round;stroke-miterlimit:10;}
	.st113{fill:#B13B3B;}
	.st114{fill:#16263A;}
	.st115{fill:none;stroke:#16263A;stroke-width:10;stroke-miterlimit:10;}
	.st116{fill:#C87D20;}
	.st117{fill:#E4F0FD;}
	.st118{fill:#AA3737;}
	.st119{fill:#BF771F;}
	.st120{fill:none;stroke:#CD462A;stroke-width:10;stroke-linejoin:round;stroke-miterlimit:10;}
	.st121{fill:#5696D2;}
	.st122{fill:#C0771E;}
	.st123{fill:#9B5F1B;}
	.st124{fill:#A83A29;}
	.st125{fill:#E7A74F;}
	.st126{fill:#C9924C;}
	.st127{fill:#C58E48;}
	.st128{fill:#BE8844;}
	.st129{fill:#916939;}
	.st130{fill:#264275;}
	.st131{fill:#253F65;}
	.st132{fill:#182A45;}
	.st133{fill:#162336;}
	.st134{fill:#93C7B7;}
	.st135{fill:#E6A4A4;}
	.st136{fill:#B06B1D;}
	.st137{fill:#484185;}
	.st138{fill:#DB6E6E;}
	.st139{fill:#6BBA9A;}
	.st140{fill:#CACCCC;}
	.st141{fill:#D4D4D4;}
	.st142{fill:#A98881;}
	.st143{fill:#213A62;}
	.st144{fill:#A2837D;}
	.st145{fill:#6FB8F4;}
	.st146{fill:#9B9E9E;}
	.st147{fill:#B2B3B3;}
	.st148{fill:#20385D;}
	.st149{fill:#335AA8;}
	.st150{fill:#BCE7FD;}
	.st151{fill:#3B2921;}
	.st152{fill:#AD3C3C;}
	.st153{fill:#9D3838;}
	.st154{fill:#603F33;}
	.st155{fill:#4D868B;}
	.st156{fill:#A2DDFD;}
	.st157{fill:#ECB6B6;}
	.st158{fill:#E8A346;}
	.st159{fill:#514C94;}
	.st160{fill:#D2F1E8;}
	.st161{fill:#BDD6CE;}
	.st162{fill:#B93B29;}
	.st163{fill:#E0AD70;}
	.st164{fill:#C57C21;}
	.st165{fill:#EDA34A;}
	.st166{fill:#2F538F;}
	.st167{fill:#2B4B78;}
	.st168{fill:#65AF91;}
	.st169{fill:#A7CEFC;}
	.st170{fill:#98BDE2;}
	.st171{fill:#CFE5F7;}
	.st172{fill:#5492CD;}
	.st173{fill:#97CCBC;}
	.st174{fill:#5491CA;}
	.st175{fill:#EDC563;}
	.st176{fill:#423C79;}
	.st177{fill:#D3B1A5;}
	.st178{fill:#BE988D;}
	.st179{fill:#A7E5D6;}
	.st180{fill:#F2FFF9;}
	.st181{fill:#D64545;}
	.st182{fill:#A73B3B;}
	.st183{fill:#15233A;}
	.st184{fill:none;stroke:#BE988D;stroke-width:10;stroke-linecap:round;stroke-miterlimit:10;}
	.st185{fill:#AF3A29;}
	.st186{fill:#FAF9FF;}
	.st187{fill:#CACACC;}
	.st188{fill:#372720;}
	.st189{fill:#3F2C26;}
	.st190{fill:#2D201C;}
	.st191{fill:#3D6D6F;}
	.st192{fill:#5B54A8;}
	.st193{fill:#325799;}
	.st194{fill:#E8C26E;}
	.st195{fill:#254784;}
	.st196{fill:#5696D4;}
	.st197{fill:#4F8AB6;}
	.st198{fill:#5FA4AC;}
	.st199{fill:#AA3524;}
	.st200{fill:#D15F4D;}
	.st201{fill:#2B294C;}
	.st202{fill:#A43A2A;}
	.st203{fill:#E7AE2D;}
	.st204{fill:#CD9729;}
	.st205{fill:none;stroke:#AA8253;stroke-width:10;stroke-linecap:round;stroke-miterlimit:10;}
	.st206{fill:none;stroke:#E18F23;stroke-width:10;stroke-linecap:round;stroke-linejoin:round;stroke-miterlimit:10;}
	.st207{fill:#CF9828;}
	.st208{fill:#B88926;}
	.st209{fill:#A17623;}
	.st210{fill:#96CCBC;}
	.st211{fill:#CF9A2A;}
	.st212{fill:#C57B20;}
	.st213{fill:#C7F1E6;}
	.st214{fill:#DC6363;}
	.st215{fill:#E89F9F;}
	.st216{fill:#C88C8C;}
	.st217{fill:#C16E6E;}
	.st218{fill:#A46060;}
	.st219{fill:#AA3626;}
	.st220{fill:#87EDC4;}
	.st221{fill:#D86552;}
	.st222{fill:#BC7620;}
	.st223{fill:#BA741E;}
	.st224{fill:#8F8CE3;}
	.st225{fill:#3A2820;}
	.st226{fill:#AC7060;}
	.st227{fill:#915F55;}
	.st228{fill:#49332A;}
	.st229{fill:#2D1F1B;}
	.st230{fill:#69B7BE;}
	.st231{fill:#D6D6D6;}
	.st232{fill:#B8B8B8;}
	.st233{fill:#CACACA;}
	.st234{fill:#467B80;}
	.st235{fill:#C2EDE2;}
	.st236{fill:#A9574F;}
	.st237{fill:#5595D2;}
	.st238{fill:#955949;}
	.st239{fill:#7E4B42;}
	.st240{fill:#89CCF1;}
	.st241{fill:#DD584A;}
	.st242{fill:#C18F26;}
	.st243{fill:#B33C2A;}
	.st244{fill:#D1A771;}
	.st245{fill:#B42A2A;}
	.st246{fill:#325797;}
	.st247{fill:#9F3529;}
	.st248{fill:#EDCE80;}
	.st249{fill:#F0DBAC;}
	.st250{fill:#CFB478;}
	.st251{fill:#D4C29B;}
	.st252{fill:#993939;}
	.st253{fill:#D1AFA3;}
	.st254{fill:#BC968B;}
	.st255{fill:none;stroke:#BC968B;stroke-width:10;stroke-linecap:round;stroke-miterlimit:10;}
	.st256{fill:#814C3C;}
	.st257{fill:#C0EBE0;}
	.st258{fill:#A5E3D4;}
	.st259{fill:#15243C;}
	.st260{fill:#443E79;}
	.st261{fill:#F0FFF7;}
	.st262{fill:#9A764B;}
	.st263{fill:#826443;}
	.st264{fill:#D9AA74;}
	.st265{fill:#5DA186;}
	.st266{fill:#68B596;}
	.st267{fill:#E5C6BE;}
	.st268{fill:#D3B6B1;}
	.st269{fill:none;stroke:#BAA09C;stroke-width:10;stroke-linecap:round;stroke-miterlimit:10;}
	.st270{fill:#F4D78F;}
	.st271{fill:#20385F;}
	.st272{fill:#BA8727;}
	.st273{fill:#5A9C82;}
	.st274{fill:none;stroke:#E39123;stroke-width:10;stroke-linecap:round;stroke-linejoin:round;stroke-miterlimit:10;}
	.st275{fill:#60392D;}
	.st276{fill:#CCCCCC;}
	.st277{fill:#844F3E;}
	.st278{fill:#F3FFFB;}
	.st279{fill:#365E60;}
	.st280{fill:#D84545;}
	.st281{fill:#A83B3B;}
	.st282{fill:#253F70;}
	.st283{fill:#EAADAD;}
	.st284{fill:#443E7C;}
	.st285{fill:#3D6B9F;}
	.st286{fill:#4274BC;}
	.st287{fill:#AF3827;}
	.st288{fill:#E59D9D;}
	.st289{fill:#C48989;}
	.st290{fill:none;stroke:#9B621A;stroke-width:10;stroke-linecap:round;stroke-linejoin:round;stroke-miterlimit:10;}
	.st291{fill:#213A5E;}
	.st292{fill:#2D507A;}
	.st293{fill:#528EC8;}
	.st294{fill:#EFD696;}
	.st295{fill:#D1BA87;}
	.st296{fill:#FDFCFC;}
	.st297{fill:#86CBFC;}
	.st298{fill:#7AB7DA;}
	.st299{fill:#192C4C;}
	.st300{fill:#BCBCBC;}
	.st301{fill:#A13838;}
	.st302{fill:#75BDF6;}
	.st303{fill:#D0B1AA;}
	.st304{fill:#142233;}
	.st305{fill:#E6C4BB;}
	.st306{fill:#BDBDBD;}
	.st307{fill:#E8A192;}
	.st308{fill:#A43939;}
	.st309{fill:#162640;}
	.st310{fill:#27457C;}
	.st311{fill:#EFBE5E;}
	.st312{fill:#87EDC5;}
	.st313{fill:#A03838;}
	.st314{fill:#833232;}
	.st315{fill:#47417F;}
	.st316{fill:none;stroke:#915F55;stroke-width:10;stroke-linecap:round;stroke-miterlimit:10;}
	.st317{fill:#BC8B25;}
	.st318{fill:#473129;}
	.st319{fill:#67B394;}
	.st320{fill:#599A80;}
	.st321{fill:#B13D3D;}
</style>
<g id="BULINE">
	<g>
		<circle id="XMLID_1728_" class="st5" cx="256" cy="255.8" r="256"/>
	</g>
</g>
<g id="Icons">
	<g id="XMLID_3810_">
		<g id="XMLID_1864_">
			<path id="XMLID_2155_" class="st302" d="M495.5,165.1c-3.7,63.1-33.3,119.3-78.3,158c-1.5,1.3-3,2.6-4.6,3.8
				c-12.4,10.1-25.9,18.9-40.3,26.2c-8.2,4.2-16.7,7.8-25.4,11c-5.3,1.9-10.6,3.6-16.1,5.1c-19.3,5.4-39.6,8.2-60.6,8.2
				c-0.9,0-1.8,0-2.8,0c-9.7-0.1-19.3-0.8-28.6-2.1c0,0,0,0,0,0c-22.6-3.2-44.2-9.7-64.2-19c-6.3-3-12.5-6.2-18.5-9.7
				c-4-2.4-7.9-4.8-11.8-7.4c-6.9-4.6-13.5-9.6-19.8-15c-0.1-0.1-0.2-0.1-0.2-0.2c-21.8-18.4-39.9-40.9-53.4-66.3
				c-6.4-12-11.7-24.5-15.8-37.7c-6.8-21.5-10.5-44.4-10.5-68.2c0-16.2,1.7-32,5-47.3c13.2-18.1,28.8-34.3,46.2-48.3
				c3.1-2.4,6.2-4.8,9.3-7.1c5-3.6,10.1-7.1,15.3-10.4C159.6,14,206.2-0.2,256-0.2c30.4,0,59.5,5.3,86.5,15c0.6-0.3,1.2-0.5,1.8-0.7
				c0.4-0.2,0.7-0.3,1.1-0.4c5.9-2.2,12.3-3.4,19.1-3.4c0.3,0,0.7,0,1,0c0.1,0,0.2,0,0.4,0c1.2,0,2.4,0.1,3.6,0.2
				c0.4,0,0.8,0.1,1.2,0.1c0.4,0,0.8,0.1,1.2,0.1c0.9,0.1,1.8,0.3,2.7,0.4c0.4,0.1,0.8,0.2,1.2,0.2c0.3,0.1,0.6,0.1,0.9,0.2
				c0.3,0.1,0.6,0.1,0.9,0.2c0,0,0,0,0,0c10.8,2.6,20.1,8.4,26.5,16.1l34.6-16.8c0.4-1.9,1.7-3.6,3.6-4.5c0.1-0.1,0.3-0.1,0.4-0.2
				c2.7,3.2,5.3,6.4,7.8,9.7c-0.6,0.9-1.5,1.7-2.6,2.2c-1.9,0.9-4,0.8-5.8-0.1l-34,15.2c3.5,5.9,5.5,12.6,5.5,19.8
				c0,0.2,0,0.5,0,0.7c2.1,1.6,4.1,3.3,6.1,4.9c26.3,10.1,46.4,32.7,53,60.6C481.8,133.8,489.4,149.1,495.5,165.1z"/>
			<g id="XMLID_1865_">
				<rect id="XMLID_1967_" x="102.3" y="348.8" class="st303" width="53.2" height="36.3"/>
				<path id="XMLID_2006_" class="st26" d="M265.6,470.5l-26.8,40.4l0,0l-0.2,0.3c-7.6-0.5-15.1-1.3-22.4-2.5v0.5l-1-0.7L189,491.2
					l-19.5-13l-32.1-21.3l-19.5-13l2.1-3.1h-17.6v-61.8h61.6v24l1.8,1.2l50.5,33.5l22.6,15l0,0L265.6,470.5z"/>
				<g id="XMLID_1963_">
					<path id="XMLID_1965_" class="st6" d="M379.3,61.8L379.3,61.8c-0.4,1.1-1.7,1.6-2.8,1.2L266.3,21.1l3-7.6L378.1,59
						C379.2,59.5,379.7,60.7,379.3,61.8z"/>
					<circle id="XMLID_1964_" class="st296" cx="267.8" cy="17.3" r="6.5"/>
				</g>
				<path id="XMLID_2028_" class="st24" d="M413.6,53.3c0,0.2,0,0.5,0,0.7c0,0.9-0.1,1.9-0.2,2.8C411.8,75,397.2,90,377.7,94.8
					c0,0,0,0,0,0c-0.3,0.1-0.6,0.1-0.9,0.2c-1.3,0.3-2.6,0.5-3.9,0.7c-1.1,0.2-2.2,0.3-3.3,0.4h0c-1.2,0.1-2.4,0.2-3.6,0.2
					c-0.1,0-0.2,0-0.4,0c-0.3,0-0.7,0-1,0c-3.4,0-6.7-0.3-9.9-0.9c0,0,0,0,0,0c-3.6-0.6-7-1.6-10.3-2.9c0,0,0,0,0,0
					c-1.5-0.6-2.9-1.2-4.2-1.9c-2.9-1.5-5.7-3.2-8.2-5.2h0c-1.6-1.2-3.1-2.6-4.5-4c-2.6-2.6-4.8-5.5-6.6-8.6
					c-0.2-0.3-0.4-0.6-0.5-0.9c-0.3-0.6-0.7-1.3-1-1.9c-0.3-0.6-0.6-1.3-0.9-2c-0.4-1-0.8-2-1.1-3c-0.2-0.7-0.4-1.4-0.6-2.1
					c-0.5-1.8-0.8-3.5-1-5.4c-0.2-1.4-0.2-2.9-0.2-4.4c0-3.3,0.4-6.6,1.3-9.7c0.2-0.7,0.4-1.4,0.6-2.1c0.1-0.3,0.2-0.6,0.3-0.9
					c0.2-0.7,0.5-1.5,0.8-2.2c0.3-0.7,0.6-1.3,0.9-1.9c0.3-0.6,0.6-1.2,0.9-1.7c0,0,0,0,0,0c0.2-0.4,0.4-0.8,0.6-1.1
					c1.8-3.1,4-6,6.6-8.6c3.6-3.7,7.9-6.8,12.7-9.2c0.8-0.4,1.6-0.8,2.5-1.1c0.6-0.3,1.2-0.5,1.8-0.8c0.4-0.2,0.7-0.3,1.1-0.4
					c5.9-2.2,12.3-3.4,19.1-3.4c0.3,0,0.7,0,1,0c0.1,0,0.2,0,0.4,0c1.2,0,2.4,0.1,3.6,0.2c0.4,0,0.8,0.1,1.2,0.1
					c0.4,0,0.8,0.1,1.2,0.1c0.9,0.1,1.8,0.3,2.7,0.4c0.4,0.1,0.8,0.2,1.2,0.2c0.3,0.1,0.6,0.1,0.9,0.2c0.3,0.1,0.6,0.1,0.9,0.2
					c0,0,0,0,0,0c10.8,2.6,20.1,8.4,26.5,16.1c1.5,1.8,2.8,3.6,4,5.6C411.6,39.4,413.6,46.2,413.6,53.3z"/>
				<path id="XMLID_2020_" class="st304" d="M377.7,94.8c-0.3,0.1-0.6,0.1-0.9,0.2c-1.3,0.3-2.6,0.5-3.9,0.7
					c-1.1,0.2-2.2,0.3-3.3,0.4h0c-1.2,0.1-2.4,0.2-3.6,0.2c-0.1,0-0.2,0-0.4,0c-0.3,0-0.7,0-1,0c-3.4,0-6.7-0.3-9.9-0.9c0,0,0,0,0,0
					c-3.6-0.6-7-1.6-10.3-2.9c0,0,0,0,0,0c-1.5-0.6-2.9-1.2-4.2-1.9c-2.9-1.5-5.7-3.2-8.2-5.2h0c-1.6-1.2-3.1-2.6-4.5-4
					c-2.6-2.6-4.8-5.5-6.6-8.6c-0.2-0.3-0.4-0.6-0.5-0.9c-0.3-0.6-0.7-1.3-1-1.9c-0.3-0.6-0.6-1.3-0.9-2c-0.4-1-0.8-2-1.1-3
					c-0.2-0.7-0.4-1.4-0.6-2.1c-0.5-1.8-0.8-3.5-1-5.4c-0.2-1.4-0.2-2.9-0.2-4.4c0-3.3,0.4-6.6,1.3-9.7c0.2-0.7,0.4-1.4,0.6-2.1
					c0.1-0.3,0.2-0.6,0.3-0.9c0.2-0.7,0.5-1.5,0.8-2.2c0.3-0.7,0.6-1.3,0.9-1.9c0.3-0.6,0.6-1.2,0.9-1.7c0,0,0,0,0,0
					c0.2-0.4,0.4-0.8,0.6-1.1c1.8-3.1,4-6,6.6-8.6c3.6-3.7,7.9-6.8,12.7-9.2c0.8-0.4,1.6-0.8,2.4-1.2c0.6-0.3,1.2-0.5,1.8-0.7
					c0.4-0.2,0.7-0.3,1.1-0.4c5.9-2.2,12.3-3.4,19.1-3.4c0.3,0,0.7,0,1,0c0.1,0,0.2,0,0.4,0c1.2,0,2.4,0.1,3.6,0.2
					c0.4,0,0.8,0.1,1.2,0.1c0.4,0,0.8,0.1,1.2,0.1c0.9,0.1,1.8,0.3,2.7,0.4c0.4,0.1,0.8,0.2,1.2,0.2c0.3,0.1,0.6,0.1,0.9,0.2
					c0.3,0.1,0.6,0.1,0.9,0.2c-7.3,1.8-13.8,5-19.3,9.3c-7.7,6-13.2,14.1-15.5,23.2c-0.4,1.8-0.8,3.7-0.9,5.6
					c-0.1,1.1-0.2,2.2-0.2,3.4v0c0,1.6,0.1,3.2,0.3,4.8c0.2,1.6,0.5,3.1,0.9,4.6c0.8,3,1.9,5.9,3.3,8.7
					C352.3,82.6,363.8,91.3,377.7,94.8z"/>
				<g id="XMLID_1957_">
					<path id="XMLID_1999_" class="st6" d="M446.9,16.2l-4.7,2.1l-34,15.2l-14.4,6.4l-29.6,13.2l-0.2,0.1l-6,2.7L343,62.6l-3.8,1.7
						c-1.1,0.5-2.4,0-2.9-1.1c-0.5-1.1,0-2.4,1-2.9l4.7-2.3l9.3-4.5l0.5-0.2l5.8-2.8L387.4,36l16.8-8.1l34.6-16.8l4.6-2.3
						L446.9,16.2z"/>
					<path id="XMLID_1993_" class="st296" d="M450.6,16.2c-0.6,0.9-1.5,1.7-2.6,2.2c-1.9,0.9-4,0.8-5.8-0.1c-1.2-0.6-2.3-1.7-2.9-3
						c-0.6-1.4-0.8-2.8-0.4-4.2c0.4-1.9,1.7-3.6,3.6-4.5c0.1-0.1,0.3-0.1,0.4-0.2c3.2-1.2,6.8,0.2,8.3,3.3
						C452.1,11.9,451.9,14.3,450.6,16.2z"/>
				</g>
				<path id="XMLID_1956_" class="st38" d="M254.7,86.6c0-10.5-8.5-19-19-19c-1.8,0-3.5,0.3-5.1,0.7c-3.2-10.7-13.1-18.5-24.9-18.5
					c-11.8,0-21.7,7.9-24.9,18.6c-1.8-0.6-3.7-0.9-5.7-0.9c-10.5,0-19,8.5-19,19c0,10.5,8.5,19,19,19h65.2V105
					C248.6,103,254.7,95.5,254.7,86.6z"/>
				<path id="XMLID_1955_" class="st38" d="M128.7,238.7c0-10.5-8.5-19-19-19c-1.8,0-3.5,0.3-5.1,0.7c-3.2-10.7-13.1-18.5-24.9-18.5
					c-11.8,0-21.7,7.9-24.9,18.6c-1.8-0.6-3.7-0.9-5.7-0.9c-10.5,0-19,8.5-19,19c0,10.5,8.5,19,19,19h65.2v-0.6
					C122.6,255,128.7,247.6,128.7,238.7z"/>
				<path id="XMLID_2025_" class="st6" d="M489.2,361.4c-9.6,21.2-22,40.8-36.7,58.4c-3.2,3.9-6.6,7.6-10,11.3
					c-0.6,0.7-1.2,1.3-1.9,2c0,0,0,0,0,0c-12,12.5-25.3,23.8-39.7,33.7c-36.3,25-79.3,40.8-125.8,44.2v1.2h-36.3V371
					c0-19.4,12.6-35.9,30-41.8c4.4-1.5,9.2-2.3,14.2-2.3h163.3C467.2,326.9,484.9,341.6,489.2,361.4z"/>
				<path id="XMLID_1953_" class="st26" d="M311.5,326.9c-24.4,0-44.1,19.8-44.1,44.1v141.2h-28.6V371c0-24.4,19.8-44.1,44.1-44.1
					H311.5z"/>
				<path id="XMLID_1952_" class="st305" d="M371.8,345.3h-14.2c-11.4,0-20.6-9.2-20.6-20.6v-33.9c0-11.4,9.2-20.6,20.6-20.6h14.2
					c11.4,0,20.6,9.2,20.6,20.6v33.9C392.4,336.1,383.2,345.3,371.8,345.3z"/>
				<path id="XMLID_1951_" class="st303" d="M374.4,345.1c-1,0.1-2,0.2-3,0.2h-14.2c-11.4,0-20.6-9.2-20.6-20.6v-33.9
					c0-11.4,9.2-20.6,20.6-20.6h14.2c1,0,2,0.1,3,0.2c-10,1.4-17.6,10-17.6,20.4v33.9C356.8,335.1,364.5,343.7,374.4,345.1z"/>
				<g id="XMLID_1933_">
					<g id="XMLID_1944_">
						<path id="XMLID_2001_" class="st15" d="M216.1,421.1v88.1l-1-0.7c-8.8-1.4-17.6-3.3-26.1-5.6c-6.6-1.8-13.1-3.8-19.5-6.1
							c-11.1-4-21.8-8.7-32.1-14.1c-6.7-3.5-13.2-7.3-19.5-11.3c-10.1-6.5-19.6-13.6-28.7-21.4c-5.9-5.1-11.6-10.4-17-16
							c-0.8-0.9-1.7-1.8-2.5-2.6c-6.9-7.3-13.3-15-19.3-23.1c3-2.6,6.9-4.2,11.1-4.2h137.6C208.5,404.1,216.1,411.7,216.1,421.1z"/>
						<path id="XMLID_1984_" class="st14" d="M89.2,404.1c-9.4,0-17,7.6-17,17v12.9c-0.8-0.9-1.7-1.8-2.5-2.6
							c-6.9-7.3-13.3-15-19.3-23.1c3-2.6,6.9-4.2,11.1-4.2H89.2z"/>
						<path id="XMLID_1968_" class="st14" d="M189,429.8v73.1c-6.6-1.8-13.1-3.8-19.5-6.1v-67c0-5.4,4.4-9.8,9.8-9.8
							c2.7,0,5.1,1.1,6.9,2.9C187.9,424.7,189,427.1,189,429.8z"/>
						<path id="XMLID_1983_" class="st14" d="M137.4,429.8v52.8c-6.7-3.5-13.2-7.3-19.5-11.3v-41.5c0-5.4,4.4-9.8,9.8-9.8
							c2.7,0,5.1,1.1,6.9,2.9C136.3,424.7,137.4,427.1,137.4,429.8z"/>
						<path id="XMLID_1962_" class="st14" d="M89.2,429.8v20.1c-5.9-5.1-11.6-10.4-17-16c-0.8-0.9-1.7-1.8-2.5-2.6v-1.5
							c0-2.5,1-4.8,2.5-6.5c1.8-2,4.4-3.2,7.2-3.2c2.7,0,5.1,1.1,6.9,2.9C88.1,424.7,89.2,427.1,89.2,429.8z"/>
					</g>
					<path id="XMLID_1942_" class="st51" d="M111.8,391.5h-19c-2.8,0-5.1,2.3-5.1,5.1v7.5H117v-7.5
						C117,393.7,114.7,391.5,111.8,391.5z"/>
					<path id="XMLID_1941_" class="st36" d="M101.7,391.5c-2.8,0-5.1,2.3-5.1,5.1v7.5h-8.9v-7.5c0-2.8,2.3-5.1,5.1-5.1H101.7z"/>
					<path id="XMLID_1940_" class="st51" d="M165.7,391.5h-19c-2.8,0-5.1,2.3-5.1,5.1v7.5h29.3v-7.5
						C170.8,393.7,168.5,391.5,165.7,391.5z"/>
					<path id="XMLID_1939_" class="st36" d="M155.5,391.5c-2.8,0-5.1,2.3-5.1,5.1v7.5h-8.9v-7.5c0-2.8,2.3-5.1,5.1-5.1H155.5z"/>
					<rect id="XMLID_1938_" x="148.4" y="358.4" class="st16" width="15.5" height="33.1"/>
					<rect id="XMLID_1937_" x="94.6" y="358.4" class="st16" width="15.5" height="33.1"/>
					<path id="XMLID_1936_" class="st51" d="M170.6,339.2H88c-2.7,0-4.9,2.2-4.9,4.9v9.3c0,2.7,2.2,4.9,4.9,4.9h82.5
						c2.7,0,4.9-2.2,4.9-4.9v-9.3C175.5,341.4,173.3,339.2,170.6,339.2z"/>
					<path id="XMLID_1935_" class="st36" d="M109,358.4H88c-2.7,0-4.9-2.2-4.9-4.9v-9.3c0-2.7,2.2-4.9,4.9-4.9h21
						c-2.7,0-4.9,2.2-4.9,4.9v9.3C104.1,356.2,106.3,358.4,109,358.4z"/>
				</g>
				<path id="XMLID_1932_" class="st306" d="M381.4,361.5l-1.4,1.1l-18.6,14.8l-17.6-16.1l-1.2-1.1l-26.6-24.3
					c-5.1-4.7-5.5-12.7-0.8-17.9c2.5-2.7,5.9-4.1,9.3-4.1c3,0,6.1,1.1,8.5,3.3l29.6,27l1.2,1.1L381.4,361.5z"/>
				<path id="XMLID_1931_" class="st305" d="M475.1,187.4c-2.5-2.8-6.1-4.6-10.1-4.6h-2.2l-90.4-55c-4-2.5-9.1-2.5-13.1,0l-90.8,55
					h-1.8c-4,0-7.5,1.7-10,4.5c-2.1,2.4-3.4,5.5-3.4,8.9v12.8c0,7.4,6,13.4,13.4,13.4h2.4c0.1,0.5,0.1,1,0.2,1.5
					c0.1,1,0.2,1.9,0.4,2.8c0.1,0.5,0.2,1.1,0.3,1.6c0.2,1,0.3,2,0.6,3c0,0.2,0.1,0.3,0.1,0.5c0.5,2.5,1.2,5,1.9,7.5
					c0.1,0.2,0.1,0.5,0.2,0.7c0.3,0.9,0.6,1.8,0.9,2.7c0.2,0.5,0.4,1.1,0.6,1.6c0.3,0.8,0.6,1.7,1,2.5c0.2,0.6,0.5,1.2,0.7,1.8
					c0.3,0.8,0.7,1.6,1,2.3c0.3,0.6,0.5,1.2,0.8,1.8c0.4,0.7,0.7,1.5,1.1,2.2c0.3,0.6,0.6,1.2,0.9,1.9c0.4,0.7,0.8,1.4,1.2,2.1
					c0.3,0.6,0.7,1.2,1.1,1.8c0.4,0.7,0.8,1.4,1.2,2c0.4,0.6,0.8,1.2,1.2,1.8c0.4,0.6,0.9,1.3,1.3,1.9c0.4,0.6,0.8,1.2,1.3,1.8
					c0.4,0.6,0.9,1.2,1.4,1.8c0.5,0.6,0.9,1.2,1.4,1.8c0.5,0.6,0.9,1.2,1.4,1.7c0.5,0.6,1,1.2,1.5,1.8c0.5,0.5,1,1.1,1.4,1.6
					c0.5,0.6,1.1,1.2,1.7,1.8c0.5,0.5,0.9,1,1.4,1.5c0.6,0.6,1.3,1.2,1.9,1.8c0.5,0.4,0.9,0.9,1.4,1.3c0.8,0.7,1.6,1.4,2.4,2.1
					c0.3,0.3,0.7,0.6,1,0.9c1.2,1,2.3,1.9,3.5,2.8c0.3,0.2,0.6,0.4,0.9,0.7c0.9,0.7,1.8,1.3,2.8,2c0.4,0.3,0.9,0.6,1.3,0.9
					c0.8,0.5,1.6,1.1,2.5,1.6c0.5,0.3,1,0.6,1.5,0.9c0.8,0.5,1.6,0.9,2.4,1.4c0.5,0.3,1.1,0.6,1.6,0.9c0.8,0.4,1.6,0.8,2.4,1.2
					c0.6,0.3,1.1,0.5,1.7,0.8c0.8,0.4,1.6,0.8,2.5,1.1c0.6,0.3,1.2,0.5,1.8,0.7c0.8,0.3,1.7,0.7,2.5,1c0.6,0.2,1.2,0.4,1.8,0.7
					c0.9,0.3,1.7,0.6,2.6,0.9c0.6,0.2,1.2,0.4,1.8,0.6c0.9,0.3,1.8,0.5,2.7,0.8c0.6,0.2,1.2,0.3,1.8,0.5c0.9,0.2,1.8,0.4,2.8,0.6
					c0.6,0.1,1.2,0.3,1.8,0.4c1,0.2,1.9,0.4,2.9,0.5c0.6,0.1,1.2,0.2,1.7,0.3c1,0.2,2.1,0.3,3.1,0.4c0.5,0.1,1,0.1,1.6,0.2
					c1.2,0.1,2.4,0.2,3.7,0.3c0.4,0,0.7,0.1,1.1,0.1c1.6,0.1,3.2,0.1,4.9,0.1c1.5,0,3.1,0,4.6-0.1c0.3,0,0.6,0,0.9-0.1
					c1.2-0.1,2.4-0.1,3.6-0.3c0.5,0,1-0.1,1.5-0.2c1-0.1,1.9-0.2,2.9-0.3c0.6-0.1,1.2-0.2,1.8-0.3c0.7-0.1,1.4-0.2,2-0.3
					c0,0,0,0,0,0c41.9-7.5,74.4-41.9,79.2-84.6h2.8c7.4,0,13.4-6,13.4-13.4v-12.8C478.4,192.9,477.2,189.8,475.1,187.4z"/>
				<path id="XMLID_1930_" class="st303" d="M382.9,307.2C383,307.2,383,307.2,382.9,307.2c-0.6,0.1-1.3,0.2-2,0.3
					c-0.6,0.1-1.2,0.2-1.8,0.3c-1,0.1-1.9,0.2-2.9,0.3c-0.5,0.1-1,0.1-1.5,0.2c-1.2,0.1-2.4,0.2-3.6,0.3c-0.3,0-0.6,0-0.9,0.1
					c-1.5,0.1-3,0.1-4.6,0.1c-1.6,0-3.3,0-4.9-0.1c-0.4,0-0.7-0.1-1.1-0.1c-1.2-0.1-2.4-0.2-3.7-0.3c-0.5-0.1-1-0.1-1.6-0.2
					c-1.1-0.1-2.1-0.2-3.1-0.4c-0.6-0.1-1.2-0.2-1.7-0.3c-1-0.2-2-0.3-2.9-0.5c-0.6-0.1-1.2-0.3-1.8-0.4c-0.9-0.2-1.8-0.4-2.8-0.6
					c-0.6-0.2-1.2-0.3-1.8-0.5c-0.9-0.2-1.8-0.5-2.7-0.8c-0.6-0.2-1.2-0.4-1.8-0.6c-0.9-0.3-1.7-0.6-2.6-0.9
					c-0.6-0.2-1.2-0.4-1.8-0.7c-0.8-0.3-1.7-0.6-2.5-1c-0.6-0.2-1.2-0.5-1.8-0.7c-0.8-0.4-1.7-0.7-2.5-1.1c-0.6-0.3-1.1-0.5-1.7-0.8
					c-0.8-0.4-1.6-0.8-2.4-1.2c-0.5-0.3-1.1-0.6-1.6-0.9c-0.8-0.4-1.6-0.9-2.4-1.4c-0.5-0.3-1-0.6-1.5-0.9c-0.8-0.5-1.7-1.1-2.5-1.6
					c-0.4-0.3-0.9-0.6-1.3-0.9c-0.9-0.6-1.8-1.3-2.8-2c-0.3-0.2-0.6-0.4-0.9-0.7c-1.2-0.9-2.4-1.8-3.5-2.8c-0.3-0.3-0.7-0.6-1-0.9
					c-0.8-0.7-1.6-1.4-2.4-2.1c-0.5-0.4-0.9-0.9-1.4-1.3c-0.6-0.6-1.3-1.2-1.9-1.8c-0.5-0.5-1-1-1.4-1.5c-0.6-0.6-1.1-1.2-1.7-1.8
					c-0.5-0.5-1-1.1-1.4-1.6c-0.5-0.6-1-1.2-1.5-1.8c-0.5-0.6-0.9-1.2-1.4-1.7c-0.5-0.6-0.9-1.2-1.4-1.8c-0.5-0.6-0.9-1.2-1.4-1.8
					c-0.4-0.6-0.9-1.2-1.3-1.8c-0.4-0.6-0.9-1.3-1.3-1.9c-0.4-0.6-0.8-1.2-1.2-1.8c-0.4-0.7-0.8-1.3-1.2-2c-0.4-0.6-0.7-1.2-1.1-1.9
					c-0.4-0.7-0.8-1.4-1.2-2.1c-0.3-0.6-0.6-1.2-1-1.9c-0.4-0.7-0.7-1.5-1.1-2.2c-0.3-0.6-0.6-1.2-0.8-1.8c-0.3-0.8-0.7-1.5-1-2.3
					c-0.2-0.6-0.5-1.2-0.7-1.8c-0.3-0.8-0.7-1.7-1-2.5c-0.2-0.5-0.4-1.1-0.6-1.6c-0.3-0.9-0.6-1.8-0.9-2.7c-0.1-0.2-0.1-0.5-0.2-0.7
					c-0.7-2.5-1.4-5-1.9-7.5c0-0.2-0.1-0.3-0.1-0.5c-0.2-1-0.4-2-0.6-3c-0.1-0.5-0.2-1.1-0.3-1.6c-0.2-0.9-0.3-1.9-0.4-2.8
					c-0.1-0.5-0.1-1-0.2-1.5h-2.4c-7.4,0-13.4-6-13.4-13.4v-12.8c0-3.4,1.3-6.6,3.4-8.9c2.5-2.8,6-4.5,10-4.5h1.8l34.1-20.7
					c-2.8,10.3-4.2,21.2-4.2,32.5c0,59.2,40.6,107.7,91.8,110.9C387.8,306.2,385.4,306.7,382.9,307.2z"/>
				<path id="XMLID_2022_" class="st23" d="M475.1,139.5v48c-2.5-2.8-6.1-4.6-10.1-4.6h-2.2l-90.4-55c-4-2.4-9.1-2.4-13.1,0
					L312.8,156l-10.2,6.2l-34.1,20.7h-1.8c-0.6,0-1.1,0-1.7,0.1c-1.6,0.2-3.2,0.7-4.5,1.4c-0.2,0.1-0.4,0.2-0.6,0.3
					c-0.2,0.1-0.4,0.2-0.6,0.4c-0.2,0.1-0.4,0.3-0.6,0.4c-0.2,0.1-0.4,0.3-0.5,0.4c-0.2,0.1-0.3,0.3-0.5,0.4
					c-0.2,0.1-0.3,0.3-0.5,0.5c-0.2,0.2-0.3,0.3-0.5,0.5v-47.9c0-38.1,24.7-70.4,59-81.8c8.2-2.7,17-4.3,26.2-4.4c0.3,0,0.7,0,1,0
					h46c0.8,0,1.7,0,2.5,0c0.1,0,0.2,0,0.2,0c0.8,0,1.6,0.1,2.4,0.1c6.7,0.4,13.3,1.6,19.5,3.4c2.1,0.6,4.2,1.3,6.3,2.1
					c26.3,10.1,46.4,32.7,53,60.6C474.3,125.9,475.1,132.6,475.1,139.5z"/>
				<path id="XMLID_1927_" class="st24" d="M394,53.4c-45.3,2.6-81.1,40.1-81.1,86V156l-44.3,26.9h-1.8c-4,0-7.5,1.7-10,4.5v-47.9
					c0-47.6,38.6-86.2,86.2-86.2h46C390.6,53.3,392.3,53.3,394,53.4z"/>
				<path id="XMLID_1926_" class="st303" d="M371.7,222.3h-12.4c-4.1,0-7.4-3.3-7.4-7.4v0c0-4.1,3.3-7.4,7.4-7.4h12.4
					c4.1,0,7.4,3.3,7.4,7.4v0C379.1,219,375.8,222.3,371.7,222.3z"/>
				<path id="XMLID_1925_" class="st269" d="M421.5,200.8c0-6.2-5-11.2-11.2-11.2s-11.2,5-11.2,11.2"/>
				<path id="XMLID_1924_" class="st269" d="M354.2,242.2c6.4,6.4,16.8,6.4,23.2,0"/>
				<path id="XMLID_1923_" class="st269" d="M337.8,200.8c0-6.2-5-11.2-11.2-11.2s-11.2,5-11.2,11.2"/>
				<line id="XMLID_1922_" class="st269" x1="354.2" y1="262.1" x2="377.5" y2="262.1"/>
				<ellipse id="XMLID_1921_" class="st307" cx="326.6" cy="230.8" rx="14.8" ry="8.5"/>
				<ellipse id="XMLID_1920_" class="st307" cx="410.3" cy="230.8" rx="14.8" ry="8.5"/>
				<path id="XMLID_2005_" class="st16" d="M452.5,419.2v0.7c-3.2,3.9-6.6,7.6-10,11.3c-0.6,0.7-1.2,1.3-1.9,2c0,0,0,0,0,0
					c-12,12.5-25.3,23.8-39.7,33.7c-36.3,25-79.3,40.8-125.8,44.2v-95.4c0-2.2,1-4.2,2.7-5.5l53-40.9l10.3-8l1.4-1.1l18.6-14.8l0,0
					l1.4-1.1l3.2-2.5l18.5-14.8l8.2-6.5l4.7-3.8c2.3-1.8,5.1-2.8,7.9-2.8c3.7,0,7.4,1.6,9.9,4.8c1.1,1.4,1.8,2.9,2.3,4.5
					c0.4,1.2,0.5,2.6,0.5,3.8c-0.1,3.6-1.7,7.1-4.8,9.5l-31.5,25.1l-1.4,1.2l-18.6,14.8l-1.4,1.1L324,407.2
					c-2.1,1.7-0.9,5.1,1.8,5.1h119.8C449.4,412.2,452.5,415.3,452.5,419.2z"/>
				<path id="XMLID_1990_" class="st306" d="M300.7,466.8h100.2c-36.3,25-79.3,40.8-125.8,44.2v-74.6c0-3.6,3-6.6,6.7-6.5
					c3.5,0.1,6.3,3.2,6.3,6.7v17.3C288,461.1,293.7,466.8,300.7,466.8z"/>
				<path id="XMLID_1991_" class="st306" d="M442.5,431.1c-0.6,0.7-1.2,1.3-1.9,2C441.1,432.3,441.8,431.6,442.5,431.1z"/>
				<path id="XMLID_1867_" class="st305" d="M133.6,373.7h-8.7c-12.5,0-22.6-10.1-22.6-22.6v-16.6c0-5.8,4.7-10.6,10.6-10.6h32.7
					c5.8,0,10.6,4.7,10.6,10.6v16.6C156.1,363.6,146,373.7,133.6,373.7z"/>
				<path id="XMLID_1866_" class="st303" d="M136.1,373.5c-0.8,0.1-1.6,0.1-2.5,0.1h-8.7c-12.5,0-22.6-10.1-22.6-22.6v-16.6
					c0-5.8,4.7-10.6,10.6-10.6h13.7c-5.8,0-10.6,4.7-10.6,10.6v16.6C116,362.8,124.8,372.3,136.1,373.5z"/>
			</g>
		</g>
		<path id="XMLID_3797_" class="st97" d="M416.3,76.5c8.8,4.4,21.2,13.1,28.3,29.5c1.6,3.6-2.2,7.3-5.7,5.6v0
			c-2.3-1.1-4.7,1.3-3.7,3.6c1.5,3.4,3.3,7.7,4.9,12.1c1.6,4.5-4.2,7.8-7.3,4.2c-8.2-9.6-20.4-20.8-33.1-22.4
			c-1.4-0.2-2.2-1.8-1.4-3c1.8-2.9,5.4-7.3,11.1-8.9c5.1-1.4,8.4-6.5,7.3-11.6c-0.4-2-1.3-4.1-2.8-6.3
			C412.7,77.7,414.4,75.5,416.3,76.5z"/>
	</g>
</g>
</svg>
