<?xml version="1.0" encoding="utf-8"?>
<!-- Generator: Adobe Illustrator 22.0.1, SVG Export Plug-In . SVG Version: 6.00 Build 0)  -->
<svg version="1.1" xmlns="http://www.w3.org/2000/svg" xmlns:xlink="http://www.w3.org/1999/xlink" x="0px" y="0px"
	 viewBox="0 0 512 512" style="enable-background:new 0 0 512 512;" xml:space="preserve">
<style type="text/css">
	.st0{fill:#E9B12D;}
	.st1{fill:#A9E7D8;}
	.st2{fill:#76CFB1;}
	.st3{fill:#AE6B5D;}
	.st4{fill:#7770D3;}
	.st5{fill:#5BA0F5;}
	.st6{fill:#DA4545;}
	.st7{fill:#89CCFC;}
	.st8{fill:#CD462A;}
	.st9{fill:#514896;}
	.st10{fill:#5493A0;}
	.st11{fill:#CC6B5C;}
	.st12{fill:#62AA8D;}
	.st13{fill:#8ABAAB;}
	.st14{fill:#C3791F;}
	.st15{fill:#E39123;}
	.st16{fill:#FFFFFF;}
	.st17{fill:none;stroke:#FFFFFF;stroke-width:10;stroke-linecap:round;stroke-miterlimit:10;}
	.st18{fill:none;stroke:#5F55AB;stroke-width:10;stroke-linecap:round;stroke-miterlimit:10;}
	.st19{fill:#A9671C;}
	.st20{fill:#D5B3A7;}
	.st21{fill:#C09A8F;}
	.st22{fill:#487F87;}
	.st23{fill:#1B305C;}
	.st24{fill:#172945;}
	.st25{fill:none;}
	.st26{fill:#B62A2A;}
	.st27{fill:#325859;}
	.st28{fill:#3F6E71;}
	.st29{fill:#284646;}
	.st30{fill:#8F2727;}
	.st31{fill:#29477C;}
	.st32{fill:#5B9BEE;}
	.st33{fill:#487FDE;}
	.st34{fill:#CD9829;}
	.st35{fill:#9F2A2A;}
	.st36{fill:#4C3328;}
	.st37{fill:#E8B94A;}
	.st38{fill:#DDF8F1;}
	.st39{fill:#3E2A22;}
	.st40{fill:#D3A971;}
	.st41{fill:#C79A5B;}
	.st42{fill:#233E76;}
	.st43{fill:#21395F;}
	.st44{fill:#487D82;}
	.st45{fill:none;stroke:#C79A5B;stroke-width:10;stroke-linecap:round;stroke-miterlimit:10;}
	.st46{fill:#5E3E31;}
	.st47{fill:#AC3939;}
	.st48{fill:#CA9628;}
	.st49{fill:#AF8F88;}
	.st50{fill:#815048;}
	.st51{fill:#6F4232;}
	.st52{fill:#5F55AB;}
	.st53{fill:#192A48;}
	.st54{fill:#152336;}
	.st55{fill:#192B49;}
	.st56{fill:#264173;}
	.st57{fill:#B06F1E;}
	.st58{fill:#4E88C0;}
	.st59{fill:#83C3F1;}
	.st60{fill:#CF9929;}
	.st61{fill:none;stroke:#FFFFFF;stroke-width:10;stroke-linecap:round;stroke-linejoin:round;stroke-miterlimit:10;}
	.st62{fill:#EAC262;}
	.st63{fill:#D6D5D4;}
	.st64{fill:#6BBA9B;}
	.st65{fill:#63AA8F;}
	.st66{fill:none;stroke:#3E2A22;stroke-width:10;stroke-linecap:round;stroke-miterlimit:10;}
	.st67{fill:#CA7D1F;}
	.st68{fill:#213B64;}
	.st69{fill:#CDF8EC;}
	.st70{fill:#C59125;}
	.st71{fill:none;stroke:#C09A8F;stroke-width:10;stroke-linecap:round;stroke-miterlimit:10;}
	.st72{fill:#32579B;}
	.st73{fill:#172843;}
	.st74{fill:#D66767;}
	.st75{fill:#A74949;}
	.st76{fill:#EBC76F;}
	.st77{fill:#7A4940;}
	.st78{fill:#182A48;}
	.st79{fill:none;stroke:#A0794A;stroke-width:10;stroke-linecap:round;stroke-miterlimit:10;}
	.st80{fill:#C37A20;}
	.st81{fill:#D26D5C;}
	.st82{fill:#A45752;}
	.st83{fill:#284579;}
	.st84{fill:#88C7F4;}
	.st85{fill:#6EB6F0;}
	.st86{fill:#32221E;}
	.st87{fill:#E7A6A6;}
	.st88{fill:#C59191;}
	.st89{fill:#AA3B3B;}
	.st90{fill:#B83E3E;}
	.st91{fill:none;stroke:#5F55A9;stroke-width:10;stroke-linecap:round;stroke-miterlimit:10;}
	.st92{fill:#963838;}
	.st93{fill:#402B25;}
	.st94{fill:#6B6ABA;}
	.st95{fill:#BABABA;}
	.st96{fill:#D1D1D1;}
	.st97{fill:#264377;}
	.st98{fill:#A19BF5;}
	.st99{fill:#3C2A21;}
	.st100{fill:none;stroke:#4C3328;stroke-width:10;stroke-linecap:round;stroke-miterlimit:10;}
	.st101{fill:#C1781F;}
	.st102{fill:#E3A147;}
	.st103{fill:#F2D2A1;}
	.st104{fill:#4F372D;}
	.st105{fill:none;stroke:#DA4545;stroke-width:10;stroke-linecap:round;stroke-miterlimit:10;}
	.st106{fill:#AA3928;}
	.st107{fill:#8C2C22;}
	.st108{fill:#BF4336;}
	.st109{fill:#5797D4;}
	.st110{fill:#CFCFCF;}
	.st111{fill:#613A2E;}
	.st112{fill:none;stroke:#B18653;stroke-width:10;stroke-linecap:round;stroke-miterlimit:10;}
	.st113{fill:#B13B3B;}
	.st114{fill:#16263A;}
	.st115{fill:none;stroke:#16263A;stroke-width:10;stroke-miterlimit:10;}
	.st116{fill:#C87D20;}
	.st117{fill:#E4F0FD;}
	.st118{fill:#AA3737;}
	.st119{fill:#BF771F;}
	.st120{fill:none;stroke:#CD462A;stroke-width:10;stroke-linejoin:round;stroke-miterlimit:10;}
	.st121{fill:#5696D2;}
	.st122{fill:#C0771E;}
	.st123{fill:#9B5F1B;}
	.st124{fill:#A83A29;}
	.st125{fill:#E7A74F;}
	.st126{fill:#C9924C;}
	.st127{fill:#C58E48;}
	.st128{fill:#BE8844;}
	.st129{fill:#916939;}
	.st130{fill:#264275;}
	.st131{fill:#253F65;}
	.st132{fill:#182A45;}
	.st133{fill:#162336;}
	.st134{fill:#93C7B7;}
	.st135{fill:#E6A4A4;}
	.st136{fill:#B06B1D;}
	.st137{fill:#484185;}
	.st138{fill:#DB6E6E;}
	.st139{fill:#6BBA9A;}
	.st140{fill:#CACCCC;}
	.st141{fill:#D4D4D4;}
	.st142{fill:#A98881;}
	.st143{fill:#213A62;}
	.st144{fill:#A2837D;}
	.st145{fill:#6FB8F4;}
	.st146{fill:#9B9E9E;}
	.st147{fill:#B2B3B3;}
	.st148{fill:#20385D;}
	.st149{fill:#335AA8;}
	.st150{fill:#BCE7FD;}
	.st151{fill:#3B2921;}
	.st152{fill:#AD3C3C;}
	.st153{fill:#9D3838;}
	.st154{fill:#603F33;}
	.st155{fill:#4D868B;}
	.st156{fill:#A2DDFD;}
	.st157{fill:#ECB6B6;}
	.st158{fill:#E8A346;}
	.st159{fill:#514C94;}
	.st160{fill:#D2F1E8;}
	.st161{fill:#BDD6CE;}
	.st162{fill:#B93B29;}
	.st163{fill:#E0AD70;}
	.st164{fill:#C57C21;}
	.st165{fill:#EDA34A;}
	.st166{fill:#2F538F;}
	.st167{fill:#2B4B78;}
	.st168{fill:#65AF91;}
	.st169{fill:#A7CEFC;}
	.st170{fill:#98BDE2;}
	.st171{fill:#CFE5F7;}
	.st172{fill:#5492CD;}
	.st173{fill:#97CCBC;}
	.st174{fill:#5491CA;}
	.st175{fill:#EDC563;}
	.st176{fill:#423C79;}
	.st177{fill:#D3B1A5;}
	.st178{fill:#BE988D;}
	.st179{fill:#A7E5D6;}
	.st180{fill:#F2FFF9;}
	.st181{fill:#D64545;}
	.st182{fill:#A73B3B;}
	.st183{fill:#15233A;}
	.st184{fill:none;stroke:#BE988D;stroke-width:10;stroke-linecap:round;stroke-miterlimit:10;}
	.st185{fill:#AF3A29;}
	.st186{fill:#FAF9FF;}
	.st187{fill:#CACACC;}
	.st188{fill:#372720;}
	.st189{fill:#3F2C26;}
	.st190{fill:#2D201C;}
	.st191{fill:#3D6D6F;}
	.st192{fill:#5B54A8;}
	.st193{fill:#325799;}
	.st194{fill:#E8C26E;}
	.st195{fill:#254784;}
	.st196{fill:#5696D4;}
	.st197{fill:#4F8AB6;}
	.st198{fill:#5FA4AC;}
	.st199{fill:#AA3524;}
	.st200{fill:#D15F4D;}
	.st201{fill:#2B294C;}
	.st202{fill:#A43A2A;}
	.st203{fill:#E7AE2D;}
	.st204{fill:#CD9729;}
	.st205{fill:none;stroke:#AA8253;stroke-width:10;stroke-linecap:round;stroke-miterlimit:10;}
	.st206{fill:none;stroke:#E18F23;stroke-width:10;stroke-linecap:round;stroke-linejoin:round;stroke-miterlimit:10;}
	.st207{fill:#CF9828;}
	.st208{fill:#B88926;}
	.st209{fill:#A17623;}
	.st210{fill:#96CCBC;}
	.st211{fill:#CF9A2A;}
	.st212{fill:#C57B20;}
	.st213{fill:#C7F1E6;}
	.st214{fill:#DC6363;}
	.st215{fill:#E89F9F;}
	.st216{fill:#C88C8C;}
	.st217{fill:#C16E6E;}
	.st218{fill:#A46060;}
	.st219{fill:#AA3626;}
	.st220{fill:#87EDC4;}
	.st221{fill:#D86552;}
	.st222{fill:#BC7620;}
	.st223{fill:#BA741E;}
	.st224{fill:#8F8CE3;}
	.st225{fill:#3A2820;}
	.st226{fill:#AC7060;}
	.st227{fill:#915F55;}
	.st228{fill:#49332A;}
	.st229{fill:#2D1F1B;}
	.st230{fill:#69B7BE;}
	.st231{fill:#D6D6D6;}
	.st232{fill:#B8B8B8;}
	.st233{fill:#CACACA;}
	.st234{fill:#467B80;}
	.st235{fill:#C2EDE2;}
	.st236{fill:#A9574F;}
	.st237{fill:#5595D2;}
	.st238{fill:#955949;}
	.st239{fill:#7E4B42;}
	.st240{fill:#89CCF1;}
	.st241{fill:#DD584A;}
	.st242{fill:#C18F26;}
	.st243{fill:#B33C2A;}
	.st244{fill:#D1A771;}
	.st245{fill:#B42A2A;}
	.st246{fill:#325797;}
	.st247{fill:#9F3529;}
	.st248{fill:#EDCE80;}
	.st249{fill:#F0DBAC;}
	.st250{fill:#CFB478;}
	.st251{fill:#D4C29B;}
	.st252{fill:#993939;}
	.st253{fill:#D1AFA3;}
	.st254{fill:#BC968B;}
	.st255{fill:none;stroke:#BC968B;stroke-width:10;stroke-linecap:round;stroke-miterlimit:10;}
	.st256{fill:#814C3C;}
	.st257{fill:#C0EBE0;}
	.st258{fill:#A5E3D4;}
	.st259{fill:#15243C;}
	.st260{fill:#443E79;}
	.st261{fill:#F0FFF7;}
	.st262{fill:#9A764B;}
	.st263{fill:#826443;}
	.st264{fill:#D9AA74;}
	.st265{fill:#5DA186;}
	.st266{fill:#68B596;}
	.st267{fill:#E5C6BE;}
	.st268{fill:#D3B6B1;}
	.st269{fill:none;stroke:#BAA09C;stroke-width:10;stroke-linecap:round;stroke-miterlimit:10;}
	.st270{fill:#F4D78F;}
	.st271{fill:#20385F;}
	.st272{fill:#BA8727;}
	.st273{fill:#5A9C82;}
	.st274{fill:none;stroke:#E39123;stroke-width:10;stroke-linecap:round;stroke-linejoin:round;stroke-miterlimit:10;}
	.st275{fill:#60392D;}
	.st276{fill:#CCCCCC;}
	.st277{fill:#844F3E;}
	.st278{fill:#F3FFFB;}
	.st279{fill:#365E60;}
	.st280{fill:#D84545;}
	.st281{fill:#A83B3B;}
	.st282{fill:#253F70;}
	.st283{fill:#EAADAD;}
	.st284{fill:#443E7C;}
	.st285{fill:#3D6B9F;}
	.st286{fill:#4274BC;}
	.st287{fill:#AF3827;}
	.st288{fill:#E59D9D;}
	.st289{fill:#C48989;}
	.st290{fill:none;stroke:#9B621A;stroke-width:10;stroke-linecap:round;stroke-linejoin:round;stroke-miterlimit:10;}
	.st291{fill:#213A5E;}
	.st292{fill:#2D507A;}
	.st293{fill:#528EC8;}
	.st294{fill:#EFD696;}
	.st295{fill:#D1BA87;}
	.st296{fill:#FDFCFC;}
	.st297{fill:#86CBFC;}
	.st298{fill:#7AB7DA;}
	.st299{fill:#192C4C;}
	.st300{fill:#BCBCBC;}
	.st301{fill:#A13838;}
	.st302{fill:#75BDF6;}
	.st303{fill:#D0B1AA;}
	.st304{fill:#142233;}
	.st305{fill:#E6C4BB;}
	.st306{fill:#BDBDBD;}
	.st307{fill:#E8A192;}
	.st308{fill:#A43939;}
	.st309{fill:#162640;}
	.st310{fill:#27457C;}
	.st311{fill:#EFBE5E;}
	.st312{fill:#87EDC5;}
	.st313{fill:#A03838;}
	.st314{fill:#833232;}
	.st315{fill:#47417F;}
	.st316{fill:none;stroke:#915F55;stroke-width:10;stroke-linecap:round;stroke-miterlimit:10;}
	.st317{fill:#BC8B25;}
	.st318{fill:#473129;}
	.st319{fill:#67B394;}
	.st320{fill:#599A80;}
	.st321{fill:#B13D3D;}
</style>
<g id="BULINE">
	<circle id="XMLID_1070_" class="st0" cx="256" cy="256" r="256"/>
	<g>
	</g>
</g>
<g id="Icons">
	<g id="XMLID_4368_">
		<path id="XMLID_2467_" class="st175" d="M512,256c0,17.1-1.7,33.8-4.9,49.9c-20.7,27-47.5,49.1-78.3,64.2c-4.2,2.1-8.6,4-13,5.8
			c-9.5,3.9-19.4,7.2-29.5,9.8c-6.5,1.6-13,3-19.7,4c-6.5,1-13.1,1.8-19.7,2.2c-4.9,0.3-9.9,0.5-14.8,0.5c-2.6,0-5.2,0-7.9-0.1
			c-25.5-0.9-50-6.1-72.6-15c-6.8-2.6-13.3-5.6-19.8-8.9c-1.2-0.6-2.3-1.2-3.4-1.8c-5.6-3-11-6.2-16.3-9.6c-0.2-0.2-0.5-0.3-0.7-0.5
			c-0.6-0.4-1.3-0.8-1.9-1.2c-4.1-2.7-8-5.6-11.9-8.6c-11.6-8.9-22.3-19-31.9-30c0,0,0,0,0,0c-15.5-17.8-28.2-38.2-37.4-60.4
			c-2.6-6.2-4.9-12.6-6.9-19c-2.3-7.5-4.2-15.2-5.8-23c-0.3-1.7-0.6-3.4-0.9-5.1c-2.1-12.1-3.1-24.6-3.1-37.3
			c0-63.5,26.9-120.7,69.8-160.9C205,3.9,230.1,0,256,0C397.4,0,512,114.6,512,256z"/>
		<path id="XMLID_2323_" class="st9" d="M415.9,410H157.5v-69.4c0-21.2,17.2-38.4,38.4-38.4h181.5c21.2,0,38.4,17.2,38.4,38.4V410z"
			/>
		<path id="XMLID_2322_" class="st176" d="M266.9,302.2c-21.2,0-38.4,17.2-38.4,38.4V410h-71v-69.4c0-21.2,17.2-38.4,38.4-38.4
			H266.9z"/>
		<path id="XMLID_2284_" class="st177" d="M298,378.4h-17.8c-14.3,0-25.8-11.6-25.8-25.8V310c0-14.3,11.6-25.8,25.8-25.8H298
			c14.3,0,25.8,11.6,25.8,25.8v42.5C323.8,366.8,312.3,378.4,298,378.4z"/>
		<path id="XMLID_2282_" class="st178" d="M301.2,378.1c-1.2,0.2-2.5,0.3-3.7,0.3h-17.8c-14.3,0-25.8-11.6-25.8-25.8V310
			c0-14.3,11.6-25.8,25.8-25.8h17.8c1.3,0,2.5,0.1,3.7,0.3c-12.5,1.8-22.1,12.6-22.1,25.6v42.5C279.1,365.6,288.7,376.3,301.2,378.1
			z"/>
		<path id="XMLID_2027_" class="st23" d="M300.9,11.9h-21c-72.8,0-131.7,59-131.7,131.7v24.8c0,1.9,0,3.7,0.1,5.6
			c-0.3,2.3-0.2,4.9,0.6,7.9l9.2,36.6l0.3,0c-0.1,0-0.2,0-0.3,0c4.3,10.6,10,20.4,16.8,29.4c-0.2-0.5-0.3-1-0.4-1.6l0.4,1.6
			l235.7-6.4c4.6-6.8,8.5-14.1,11.8-21.8l10.1-43.1l-2.5-2.8c0.9,0.8,1.8,1.8,2.5,2.8c0.2-2.7,0.3-5.4,0.3-8.2v-24.8
			C432.6,70.9,373.6,11.9,300.9,11.9z"/>
		<path id="XMLID_1707_" class="st31" d="M355.6,39.4c8.8,4.4,21.2,13.1,28.3,29.5c1.6,3.6-2.2,7.3-5.7,5.6v0
			c-2.3-1.1-4.7,1.3-3.7,3.6c1.5,3.4,3.3,7.7,4.9,12.1c1.6,4.5-4.2,7.8-7.3,4.2c-8.2-9.6-20.4-20.8-33.1-22.4
			c-1.4-0.2-2.2-1.8-1.4-3c1.8-2.9,5.4-7.3,11.1-8.9c5.1-1.4,8.4-6.5,7.3-11.6c-0.4-2-1.3-4.1-2.8-6.3
			C351.9,40.7,353.7,38.5,355.6,39.4z"/>
		<g id="XMLID_2315_">
			<path id="XMLID_2321_" class="st42" d="M112.6,390.3H51.8c-8.7,0-15.8-7.1-15.8-15.8V229.8c0-8.7,7.1-15.8,15.8-15.8h60.7
				c8.7,0,15.8,7.1,15.8,15.8v144.8C128.3,383.2,121.3,390.3,112.6,390.3z"/>
			<path id="XMLID_2320_" class="st23" d="M81.6,390.3H51.8c-8.7,0-15.8-7.1-15.8-15.8V229.8c0-8.7,7.1-15.8,15.8-15.8h29.8
				c-8.7,0-15.8,7.1-15.8,15.8v144.8C65.9,383.3,72.9,390.3,81.6,390.3z"/>
			<path id="XMLID_2318_" class="st23" d="M98.2,247.9h14.4c2.7,0,4.9-2.2,4.9-4.9v-14.4c0-2.7-2.2-4.9-4.9-4.9H98.2
				c-2.7,0-4.9,2.2-4.9,4.9V243C93.3,245.7,95.5,247.9,98.2,247.9z"/>
			<path id="XMLID_2317_" class="st179" d="M100.9,243.2h8.8c1.6,0,3-1.3,3-3v-8.8c0-1.6-1.3-3-3-3h-8.8c-1.6,0-3,1.3-3,3v8.8
				C98,241.9,99.3,243.2,100.9,243.2z"/>
			<path id="XMLID_2316_" class="st180" d="M133.7,223.7c0-2.9-3.9-5.4-9.5-6.5c-1.1-5.6-3.6-9.5-6.5-9.5c-2.9,0-5.4,3.9-6.5,9.5
				c-5.6,1.1-9.5,3.6-9.5,6.5s3.9,5.4,9.5,6.5c1.1,5.6,3.6,9.5,6.5,9.5c2.9,0,5.4-3.9,6.5-9.5C129.8,229.1,133.7,226.6,133.7,223.7z
				"/>
		</g>
		<path id="XMLID_2426_" class="st5" d="M446.5,410.6V427c-15.3,17.1-32.9,32.1-52.3,44.5c-2.6,1.7-5.2,3.3-7.9,4.9
			c-3.7,2.2-7.5,4.3-11.3,6.3c-2.8,1.5-5.6,2.9-8.4,4.2c-6.4,3.1-13,5.9-19.7,8.5C318.6,506.1,288,512,256,512
			c-8.1,0-16.2-0.4-24.1-1.1c-6.7-0.6-13.2-1.5-19.7-2.6c-6.7-1.1-13.2-2.6-19.7-4.2c-8.4-2.1-16.5-4.7-24.6-7.6
			c-6.3-2.3-12.4-4.8-18.5-7.6c-5.9-2.7-11.8-5.7-17.4-8.8c-0.3-0.1-0.5-0.3-0.8-0.4v-69c0-6.4,1.1-12.6,3.1-18.3
			c1.2-3.4,2.7-6.6,4.5-9.6c1.4-2.4,3-4.7,4.8-6.9c2.6-3.2,5.6-6.2,8.9-8.7c1.6-1.3,3.3-2.4,5.1-3.5c0,0,0,0,0.1,0
			c8.4-5.2,18.4-8.2,29-8.2h204.7c3.1,0,6.2,0.3,9.2,0.8c5.5,0.9,10.7,2.6,15.5,5c4.8,2.4,9.1,5.4,13,9
			C439.7,380.2,446.5,394.6,446.5,410.6z"/>
		<path id="XMLID_2369_" class="st33" d="M223.2,355.3c-3.4,0-6.7,0.3-9.9,0.9c-0.4,0.1-0.7,0.1-1.1,0.2c-0.2,0-0.5,0.1-0.7,0.2
			c-6.9,1.5-13.4,4.3-19,8.1c-14.6,9.8-24.3,26.4-24.5,45.3c0,0.2,0,0.4,0,0.6v85.8c-6.3-2.3-12.4-4.8-18.5-7.6
			c-5.9-2.7-11.8-5.7-17.4-8.8v-69.4c0-6.4,1.1-12.6,3.1-18.3c1.2-3.5,2.8-6.8,4.6-9.9c1.1-1.9,2.4-3.8,3.8-5.6
			c2.6-3.4,5.6-6.4,8.9-9.1c1.6-1.3,3.3-2.6,5.1-3.7c0,0,0,0,0.1,0c8.6-5.5,18.8-8.7,29.8-8.7H223.2z"/>
		<path id="XMLID_2390_" class="st42" d="M231.9,357.3v153.5c-6.7-0.6-13.2-1.5-19.7-2.6c-6.7-1.1-13.2-2.6-19.7-4.2V357.4
			c0-0.7,0.1-1.4,0.2-2.1c0.5-3.5,2.4-6.5,5.1-8.6c2.2-1.7,5.1-2.8,8.1-2.8h12.7c0.3,0,0.5,0,0.8,0c0.2,0,0.4,0,0.6,0
			c0.7,0.1,1.4,0.2,2,0.4c0,0,0.1,0,0.1,0s0,0,0.1,0c2.5,0.7,4.8,2.1,6.4,3.9c1.7,1.9,2.9,4.3,3.3,6.9
			C231.8,356,231.9,356.6,231.9,357.3z"/>
		<path id="XMLID_2377_" class="st23" d="M222,344.4C222,344.4,222,344.4,222,344.4c-5.1,1.4-8.9,5.6-9.7,10.9
			c-0.1,0.4-0.1,0.7-0.1,1.1c0,0.2,0,0.4,0,0.6c0,0.1,0,0.2,0,0.3v150.9c-6.7-1.1-13.2-2.6-19.7-4.2V357.4c0-0.7,0.1-1.4,0.2-2.1
			c0.5-3.5,2.4-6.5,5.1-8.6c2.2-1.7,5.1-2.8,8.1-2.8h12.7c0.3,0,0.5,0,0.8,0c0.2,0,0.4,0,0.6,0c0.7,0.1,1.4,0.2,2,0.4
			C221.9,344.4,221.9,344.4,222,344.4C221.9,344.4,222,344.4,222,344.4z"/>
		<path id="XMLID_2309_" class="st181" d="M227.2,482.7h-30.7c-7,0-12.6-5.7-12.6-12.6v-48.6c0-7,5.7-12.6,12.6-12.6h30.7
			c7,0,12.6,5.7,12.6,12.6V470C239.8,477,234.2,482.7,227.2,482.7z"/>
		<path id="XMLID_2308_" class="st182" d="M222.3,470H202c-4.6,0-8.3-3.7-8.3-8.3v-32c0-4.6,3.7-8.3,8.3-8.3h20.2
			c4.6,0,8.3,3.7,8.3,8.3v32C230.6,466.3,226.9,470,222.3,470z"/>
		<path id="XMLID_2363_" class="st42" d="M386.3,357.3v119c-3.7,2.2-7.5,4.3-11.3,6.3c-2.8,1.5-5.6,2.9-8.4,4.2
			c-6.4,3.1-13,5.9-19.7,8.5v-138c0-0.7,0.1-1.4,0.2-2.1c1-6.4,6.5-11.3,13.2-11.3H373c0.3,0,0.5,0,0.8,0c0.2,0,0.4,0,0.5,0
			c0.7,0.1,1.4,0.2,2,0.4c0,0,0.1,0,0.1,0.1c5.1,1.4,8.9,5.6,9.7,10.9C386.3,356,386.3,356.6,386.3,357.3z"/>
		<path id="XMLID_2371_" class="st23" d="M376.5,344.4C376.5,344.4,376.5,344.4,376.5,344.4c-5,1.4-8.9,5.6-9.7,10.9
			c-0.1,0.7-0.2,1.3-0.2,2.1v129.6c-6.4,3.1-13,5.9-19.7,8.5v-138c0-0.7,0.1-1.4,0.2-2.1c1-6.4,6.5-11.3,13.2-11.3H373
			c0.3,0,0.5,0,0.8,0c0.2,0,0.4,0,0.5,0c0.7,0.1,1.4,0.2,2,0.4C376.4,344.4,376.4,344.4,376.5,344.4z"/>
		<path id="XMLID_2357_" class="st181" d="M394.3,421.4V470c0,0.5,0,1-0.1,1.5c-2.6,1.7-5.2,3.3-7.9,4.9c-3.7,2.2-7.5,4.3-11.3,6.3
			h-24.1c-1.4,0-2.8-0.2-4-0.6c-5-1.7-8.6-6.4-8.6-12v-48.6c0-5.1,3-9.4,7.2-11.4c0.4-0.2,0.9-0.4,1.4-0.6c1.3-0.4,2.6-0.6,4-0.6
			h30.7c1.7,0,3.2,0.3,4.7,0.9c0.2,0.1,0.5,0.2,0.7,0.3C391.3,412,394.3,416.4,394.3,421.4z"/>
		<path id="XMLID_2286_" class="st182" d="M376.7,470h-20.2c-4.6,0-8.3-3.7-8.3-8.3v-32c0-4.6,3.7-8.3,8.3-8.3h20.2
			c4.6,0,8.3,3.7,8.3,8.3v32C385,466.3,381.3,470,376.7,470z"/>
		<path id="XMLID_2285_" class="st177" d="M299.5,407.5h-20.3c-15.2,0-27.6-12.4-27.6-27.6v-24.6h75.5v24.6
			C327.1,395.2,314.7,407.5,299.5,407.5z"/>
		<path id="XMLID_2359_" class="st177" d="M116.5,435l-33.9,6.2l-2.9,0.5c-1.1-1.1-2.2-2.1-3.3-3.2c-4-4-7.9-8.1-11.7-12.3
			c-3.8-4.3-7.5-8.8-11.1-13.3c0-0.1-0.1-0.1-0.1-0.2l-4.1-22.5v0l-0.2-0.9c-2.4-13.4,4.7-26.3,16.6-31.6h0c2.1-0.9,4.3-1.7,6.7-2.1
			c1.8-0.3,3.5-0.5,5.2-0.5c0.1,0,0.2,0,0.3,0c0.1,0,0.2,0,0.4,0c0.2,0,0.4,0,0.6,0c1,0,1.9,0.1,2.9,0.3c0.3,0,0.6,0.1,0.9,0.1
			c0.3,0.1,0.7,0.1,1,0.2c1,0.2,2,0.5,3,0.8c9.7,3.2,17.5,11.5,19.4,22.3l2.1,11.5v0l3.2,17.4l1.9,10.6L116.5,435z"/>
		<path id="XMLID_2364_" class="st178" d="M67.1,380.8c-0.3,2.7-0.2,5.5,0.3,8.4l0.2,1.1v0l5.9,32.1v0l2.9,16
			c-4-4-7.9-8.1-11.7-12.3c-3.8-4.3-7.5-8.8-11.1-13.3l-4.1-22.7v0l-0.2-0.9c-2.4-13.3,4.7-26.2,16.5-31.6h0c2.1-1,4.4-1.7,6.8-2.1
			c1.8-0.3,3.5-0.5,5.2-0.5c0.2,0,0.4,0,0.6,0c0.2,0,0.4,0,0.6,0c1,0,1.9,0.1,2.9,0.3c0.3,0,0.6,0.1,0.9,0.1c0.3,0.1,0.7,0.1,1,0.2
			c1,0.2,2,0.5,3,0.8c0,0,0,0,0,0C76,360,68.4,369.7,67.1,380.8z"/>
		<path id="XMLID_2354_" class="st5" d="M149.4,488.8c-5.9-2.7-11.8-5.7-17.4-8.8c-0.3-0.1-0.5-0.3-0.8-0.4
			c-16.7-9.3-32.2-20.5-46.3-33.1c-1.8-1.6-3.5-3.2-5.2-4.8c-1.1-1.1-2.2-2.1-3.3-3.2c-4-4-7.9-8.1-11.7-12.3l8.8-3.7v0h0l33.8-14.3
			c1.4-0.6,2.9-0.7,4.3-0.4c2.3,0.5,4.3,2,5.3,4.3l1.7,4.1l12.6,29.7l0.8,1.8l0.6,1.4l0.8,1.8L149.4,488.8z"/>
		<path id="XMLID_2311_" class="st33" d="M118.6,416.1l-5.1,2.2L85.9,430c-3.7,1.6-5.4,5.8-3.9,9.6l0.7,1.5v0l2.2,5.3
			c-1.8-1.6-3.5-3.2-5.2-4.8c-1.1-1.1-2.2-2.1-3.3-3.2c-4-4-7.9-8.1-11.7-12.3l8.8-3.7v0h0l33.8-14.3c1.4-0.6,2.9-0.7,4.3-0.4
			c2.3,0.5,4.3,2,5.3,4.3L118.6,416.1z"/>
		<path id="XMLID_2267_" class="st20" d="M431.8,176.5c-3.1-4.3-8.2-7.1-13.9-7.1h-2.8c-26.1-13.7-44.5-44.9-54.6-65.8
			c-4.9-10.2-17.8-13.5-27-7c-33.4,23.7-106.2,70.2-166.4,72.8h-2.3c-7.8,0-14.4,5.2-16.5,12.4c-0.4,1.5-0.7,3.1-0.7,4.7V203
			c0,6.9,4,12.8,9.9,15.5c2.2,1,4.7,1.6,7.3,1.6h3.1c0,0,0,0,0,0c1.1,9.6,3.3,18.9,6.4,27.7c0.3,0.9,0.6,1.8,1,2.6
			c0,0.1,0,0.1,0.1,0.2c0.3,0.8,0.6,1.6,0.9,2.4c0,0.1,0.1,0.2,0.1,0.3c0.3,0.8,0.6,1.5,1,2.3c0.1,0.1,0.1,0.2,0.2,0.4
			c0.3,0.7,0.7,1.5,1,2.2c0.1,0.1,0.1,0.3,0.2,0.4c0.3,0.7,0.7,1.5,1,2.2c0.1,0.1,0.1,0.2,0.2,0.4c0.4,0.7,0.7,1.4,1.1,2.2
			c0.1,0.1,0.1,0.2,0.2,0.3c0.4,0.7,0.8,1.5,1.2,2.2c0,0.1,0.1,0.1,0.1,0.2c2.6,4.7,5.5,9.3,8.7,13.6c0.1,0.1,0.2,0.2,0.2,0.3
			c0.4,0.6,0.9,1.1,1.3,1.7c0.2,0.2,0.3,0.4,0.5,0.6c0.4,0.5,0.8,1,1.2,1.5c0.2,0.2,0.4,0.5,0.6,0.7c0.4,0.5,0.8,0.9,1.2,1.4
			c0.2,0.3,0.4,0.5,0.7,0.8c0.4,0.4,0.8,0.9,1.2,1.3c0.2,0.3,0.5,0.6,0.7,0.8c0.4,0.4,0.8,0.8,1.2,1.3c0.3,0.3,0.5,0.6,0.8,0.9
			c0.4,0.4,0.8,0.8,1.1,1.2c0.3,0.3,0.6,0.6,0.9,0.9c0.4,0.4,0.8,0.8,1.1,1.1c0.3,0.3,0.6,0.6,0.9,0.9c0.4,0.4,0.8,0.7,1.1,1.1
			c0.3,0.3,0.7,0.6,1,0.9c0.4,0.3,0.7,0.7,1.1,1c0.4,0.3,0.7,0.6,1.1,0.9c0.4,0.3,0.7,0.6,1.1,1c0.4,0.3,0.8,0.7,1.2,1
			c0.3,0.3,0.6,0.6,1,0.8c0.6,0.5,1.2,1,1.9,1.5c0.2,0.2,0.5,0.4,0.7,0.5c0.7,0.5,1.3,1,2,1.5c0.3,0.2,0.5,0.4,0.8,0.6
			c0.5,0.4,1.1,0.8,1.6,1.2c0.3,0.2,0.6,0.4,0.9,0.6c0.5,0.4,1,0.7,1.5,1c0.3,0.2,0.6,0.4,0.9,0.6c0.5,0.3,1,0.7,1.5,1
			c0.3,0.2,0.6,0.4,0.9,0.6c0.5,0.3,1,0.6,1.5,1c0.3,0.2,0.6,0.4,1,0.6c0.5,0.3,1,0.6,1.6,0.9c0.3,0.2,0.6,0.4,1,0.5
			c0.5,0.3,1.1,0.6,1.6,0.9c0.3,0.2,0.6,0.3,0.9,0.5c0.6,0.3,1.1,0.6,1.7,0.9c0.3,0.2,0.6,0.3,0.9,0.5c0.6,0.3,1.2,0.6,1.7,0.9
			c0.3,0.1,0.6,0.3,0.9,0.4c0.6,0.3,1.2,0.6,1.9,0.9c0.3,0.1,0.5,0.2,0.8,0.4c0.7,0.3,1.4,0.6,2,0.9c0.2,0.1,0.4,0.2,0.6,0.3
			c0.8,0.3,1.6,0.7,2.4,1c0.1,0,0.2,0.1,0.3,0.1c2.8,1.1,5.6,2.1,8.5,3c0.1,0,0.1,0,0.2,0.1c0.9,0.3,1.7,0.5,2.6,0.8
			c0.2,0.1,0.4,0.1,0.5,0.2c0.8,0.2,1.5,0.4,2.3,0.6c0.2,0.1,0.5,0.1,0.7,0.2c0.7,0.2,1.5,0.4,2.2,0.5c0.3,0.1,0.5,0.1,0.8,0.2
			c0.7,0.2,1.4,0.3,2.1,0.5c0.3,0.1,0.6,0.1,0.9,0.2c0.7,0.1,1.4,0.3,2.1,0.4c0.3,0.1,0.6,0.1,0.9,0.2c0.7,0.1,1.4,0.2,2.1,0.4
			c0.3,0,0.6,0.1,0.9,0.1c0.7,0.1,1.4,0.2,2.2,0.3c0.3,0,0.6,0.1,0.8,0.1c0.7,0.1,1.5,0.2,2.3,0.3c0.3,0,0.5,0.1,0.8,0.1
			c0.8,0.1,1.6,0.1,2.4,0.2c0.2,0,0.4,0,0.7,0.1c0.9,0.1,1.8,0.1,2.7,0.2c0.1,0,0.3,0,0.4,0c2.1,0.1,4.2,0.2,6.3,0.2
			c2,0,4,0,5.9-0.1c0.1,0,0.1,0,0.2,0c0.9,0,1.8-0.1,2.7-0.2c0.2,0,0.4,0,0.6,0c0.8-0.1,1.5-0.1,2.3-0.2c0.3,0,0.5-0.1,0.8-0.1
			c0.7-0.1,1.3-0.1,2-0.2c0.3,0,0.7-0.1,1-0.1c0.6-0.1,1.2-0.1,1.8-0.2c0.4-0.1,0.8-0.1,1.2-0.2c0.5-0.1,1.1-0.2,1.6-0.2
			c0.4-0.1,0.9-0.1,1.3-0.2c0.3,0,0.6-0.1,0.9-0.1c0,0,0,0,0,0c46.3-8.3,83.6-42.3,96.8-86.7c2-6.9,3.5-14,4.3-21.4h3.6
			c1.3,0,2.6-0.2,3.8-0.4c7.6-1.7,13.4-8.5,13.4-16.7v-16.4C435.1,182.8,433.9,179.4,431.8,176.5z"/>
		<path id="XMLID_2265_" class="st178" d="M287.2,330c-0.6,0-1.1,0-1.7-0.1c-0.1,0-0.3,0-0.4,0c-0.9,0-1.8-0.1-2.7-0.2
			c-0.2,0-0.4,0-0.7,0c-0.8-0.1-1.6-0.1-2.4-0.2c-0.3,0-0.5,0-0.8-0.1c-0.8-0.1-1.5-0.2-2.2-0.3c-0.3,0-0.6-0.1-0.9-0.1
			c-0.7-0.1-1.4-0.2-2.2-0.3c-0.3,0-0.6-0.1-0.9-0.1c-0.7-0.1-1.4-0.2-2.1-0.4c-0.3,0-0.6-0.1-0.9-0.2c-0.7-0.1-1.4-0.3-2.1-0.4
			c-0.3-0.1-0.6-0.1-0.9-0.2c-0.7-0.2-1.4-0.3-2.1-0.5c-0.3-0.1-0.5-0.1-0.8-0.2c-0.7-0.2-1.5-0.3-2.2-0.5c-0.2-0.1-0.5-0.1-0.7-0.2
			c-0.8-0.2-1.6-0.4-2.3-0.6c-0.2,0-0.4-0.1-0.5-0.2c-0.9-0.2-1.8-0.5-2.6-0.8c-0.1,0-0.2,0-0.2-0.1c-2.9-0.9-5.7-1.9-8.5-3
			c-0.1,0-0.2-0.1-0.3-0.1c-0.8-0.3-1.6-0.6-2.4-1c-0.2-0.1-0.4-0.2-0.6-0.3c-0.7-0.3-1.4-0.6-2.1-0.9l-0.8-0.4
			c-0.6-0.3-1.2-0.6-1.9-0.9c-0.3-0.1-0.6-0.3-0.9-0.4c-0.6-0.3-1.2-0.6-1.7-0.9c-0.3-0.2-0.6-0.3-0.9-0.5c-0.6-0.3-1.1-0.6-1.7-0.9
			c-0.3-0.2-0.6-0.3-1-0.5c-0.5-0.3-1.1-0.6-1.6-0.9c-0.3-0.2-0.6-0.4-1-0.6c-0.5-0.3-1-0.6-1.6-0.9c-0.3-0.2-0.6-0.4-1-0.6
			c-0.5-0.3-1-0.6-1.5-0.9c-0.3-0.2-0.6-0.4-0.9-0.6c-0.5-0.3-1-0.6-1.5-1c-0.3-0.2-0.6-0.4-0.9-0.6c-0.5-0.4-1-0.7-1.5-1
			c-0.3-0.2-0.6-0.4-0.9-0.6c-0.5-0.4-1-0.8-1.6-1.1c-0.2-0.2-0.5-0.4-0.8-0.6c-0.7-0.5-1.3-1-2-1.5c-0.2-0.2-0.5-0.4-0.7-0.5
			c-0.6-0.5-1.2-1-1.9-1.5c-0.3-0.3-0.6-0.5-1-0.8c-0.4-0.3-0.8-0.7-1.2-1c-0.4-0.3-0.7-0.6-1.1-1c-0.4-0.3-0.7-0.6-1.1-0.9
			c-0.4-0.3-0.8-0.7-1.1-1c-0.3-0.3-0.7-0.6-1-0.9c-0.4-0.4-0.8-0.7-1.1-1.1c-0.3-0.3-0.6-0.6-0.9-0.9c-0.4-0.4-0.8-0.8-1.1-1.1
			c-0.3-0.3-0.6-0.6-0.9-0.9c-0.4-0.4-0.8-0.8-1.1-1.2c-0.3-0.3-0.5-0.6-0.8-0.9c-0.4-0.4-0.8-0.8-1.2-1.3c-0.2-0.3-0.5-0.6-0.7-0.8
			c-0.4-0.4-0.8-0.9-1.2-1.3c-0.2-0.3-0.4-0.5-0.7-0.8c-0.4-0.5-0.8-0.9-1.2-1.4c-0.2-0.2-0.4-0.5-0.6-0.7c-0.4-0.5-0.8-1-1.2-1.5
			c-0.2-0.2-0.3-0.4-0.5-0.6c-0.4-0.6-0.9-1.1-1.3-1.7c-0.1-0.1-0.2-0.2-0.2-0.3c-3.2-4.3-6.1-8.9-8.7-13.6c0-0.1-0.1-0.1-0.1-0.2
			c-0.4-0.7-0.8-1.5-1.2-2.2c0-0.1-0.1-0.2-0.2-0.3c-0.4-0.7-0.7-1.4-1.1-2.2c-0.1-0.1-0.1-0.2-0.2-0.4c-0.3-0.7-0.7-1.4-1-2.2
			l-0.2-0.4c-0.3-0.7-0.7-1.5-1-2.2c0-0.1-0.1-0.2-0.2-0.4c-0.3-0.8-0.6-1.5-1-2.3c0-0.1-0.1-0.2-0.1-0.3c-0.3-0.8-0.6-1.6-0.9-2.4
			c0-0.1,0-0.1-0.1-0.2c-0.3-0.9-0.7-1.7-1-2.6c-3.2-8.8-5.3-18.1-6.4-27.7c0,0,0,0,0,0h-3.1c-2.6,0-5.1-0.6-7.3-1.6
			c-5.8-2.7-9.9-8.6-9.9-15.5v-16.4c0-1.6,0.2-3.2,0.7-4.7c2.1-7.2,8.6-12.4,16.5-12.4h2.3c12.8-0.6,26.1-3.1,39.5-7
			c-1,7.8-1.5,15.9-1.5,24C205.8,252.6,239.7,308.9,287.2,330z"/>
		<path id="XMLID_2035_" class="st183" d="M332,15.6c-57.8,13.9-100.7,66-100.7,128.1v10.6c-21.3,8.4-43.1,14.3-63.5,15.2h-2.3
			c-7.8,0-14.4,5.2-16.5,12.4c-0.5-4.4-0.7-8.9-0.7-13.4v-24.8c0-72.8,59-131.7,131.7-131.7h21C311.7,11.9,322.1,13.2,332,15.6z"/>
		<path id="XMLID_2034_" class="st178" d="M298.2,224.9h-15.6c-5.1,0-9.3-4.2-9.3-9.3v0c0-5.1,4.2-9.3,9.3-9.3h15.6
			c5.1,0,9.3,4.2,9.3,9.3v0C307.5,220.8,303.3,224.9,298.2,224.9z"/>
		<path id="XMLID_2033_" class="st184" d="M244.6,192.6c0-8-6.5-14.5-14.5-14.5c-8,0-14.5,6.5-14.5,14.5"/>
		<path id="XMLID_2032_" class="st184" d="M365,192.6c0-8-6.5-14.5-14.5-14.5c-8,0-14.5,6.5-14.5,14.5"/>
		<path id="XMLID_2031_" class="st36" d="M325,241c1.8,0,3.3,1.5,3.3,3.3l0,0c0,3.4-0.5,6.8-1.3,10c-2,7.4-6.1,13.8-11.7,18.7
			c-6.7,5.8-15.4,9.3-24.9,9.3s-18.3-3.5-24.9-9.3c-5.6-4.9-9.7-11.3-11.7-18.7c-0.9-3.2-1.3-6.5-1.3-10l0,0c0-1.8,1.5-3.3,3.3-3.3
			H325z"/>
		<path id="XMLID_2030_" class="st26" d="M315.3,273c-6.7,5.8-15.4,9.3-24.9,9.3s-18.3-3.5-24.9-9.3c6.7-5.8,15.4-9.3,24.9-9.3
			S308.6,267.2,315.3,273z"/>
		<path id="XMLID_2029_" class="st16" d="M325,241c1.8,0,3.3,1.5,3.3,3.3l0,0c0,3.4-0.5,6.8-1.3,10h-73.4c-0.9-3.2-1.3-6.5-1.3-10
			l0,0c0-1.8,1.5-3.3,3.3-3.3H325z"/>
	</g>
</g>
</svg>
