<?xml version="1.0" encoding="utf-8"?>
<!-- Generator: Adobe Illustrator 22.0.1, SVG Export Plug-In . SVG Version: 6.00 Build 0)  -->
<svg version="1.1" xmlns="http://www.w3.org/2000/svg" xmlns:xlink="http://www.w3.org/1999/xlink" x="0px" y="0px"
	 viewBox="0 0 512 512" style="enable-background:new 0 0 512 512;" xml:space="preserve">
<style type="text/css">
	.st0{fill:#E9B12D;}
	.st1{fill:#A9E7D8;}
	.st2{fill:#76CFB1;}
	.st3{fill:#AE6B5D;}
	.st4{fill:#7770D3;}
	.st5{fill:#5BA0F5;}
	.st6{fill:#DA4545;}
	.st7{fill:#89CCFC;}
	.st8{fill:#CD462A;}
	.st9{fill:#514896;}
	.st10{fill:#5493A0;}
	.st11{fill:#CC6B5C;}
	.st12{fill:#62AA8D;}
	.st13{fill:#8ABAAB;}
	.st14{fill:#C3791F;}
	.st15{fill:#E39123;}
	.st16{fill:#FFFFFF;}
	.st17{fill:none;stroke:#FFFFFF;stroke-width:10;stroke-linecap:round;stroke-miterlimit:10;}
	.st18{fill:none;stroke:#5F55AB;stroke-width:10;stroke-linecap:round;stroke-miterlimit:10;}
	.st19{fill:#A9671C;}
	.st20{fill:#D5B3A7;}
	.st21{fill:#C09A8F;}
	.st22{fill:#487F87;}
	.st23{fill:#1B305C;}
	.st24{fill:#172945;}
	.st25{fill:none;}
	.st26{fill:#B62A2A;}
	.st27{fill:#325859;}
	.st28{fill:#3F6E71;}
	.st29{fill:#284646;}
	.st30{fill:#8F2727;}
	.st31{fill:#29477C;}
	.st32{fill:#5B9BEE;}
	.st33{fill:#487FDE;}
	.st34{fill:#CD9829;}
	.st35{fill:#9F2A2A;}
	.st36{fill:#4C3328;}
	.st37{fill:#E8B94A;}
	.st38{fill:#DDF8F1;}
	.st39{fill:#3E2A22;}
	.st40{fill:#D3A971;}
	.st41{fill:#C79A5B;}
	.st42{fill:#233E76;}
	.st43{fill:#21395F;}
	.st44{fill:#487D82;}
	.st45{fill:none;stroke:#C79A5B;stroke-width:10;stroke-linecap:round;stroke-miterlimit:10;}
	.st46{fill:#5E3E31;}
	.st47{fill:#AC3939;}
	.st48{fill:#CA9628;}
	.st49{fill:#AF8F88;}
	.st50{fill:#815048;}
	.st51{fill:#6F4232;}
	.st52{fill:#5F55AB;}
	.st53{fill:#192A48;}
	.st54{fill:#152336;}
	.st55{fill:#192B49;}
	.st56{fill:#264173;}
	.st57{fill:#B06F1E;}
	.st58{fill:#4E88C0;}
	.st59{fill:#83C3F1;}
	.st60{fill:#CF9929;}
	.st61{fill:none;stroke:#FFFFFF;stroke-width:10;stroke-linecap:round;stroke-linejoin:round;stroke-miterlimit:10;}
	.st62{fill:#EAC262;}
	.st63{fill:#D6D5D4;}
	.st64{fill:#6BBA9B;}
	.st65{fill:#63AA8F;}
	.st66{fill:none;stroke:#3E2A22;stroke-width:10;stroke-linecap:round;stroke-miterlimit:10;}
	.st67{fill:#CA7D1F;}
	.st68{fill:#213B64;}
	.st69{fill:#CDF8EC;}
	.st70{fill:#C59125;}
	.st71{fill:none;stroke:#C09A8F;stroke-width:10;stroke-linecap:round;stroke-miterlimit:10;}
	.st72{fill:#32579B;}
	.st73{fill:#172843;}
	.st74{fill:#D66767;}
	.st75{fill:#A74949;}
	.st76{fill:#EBC76F;}
	.st77{fill:#7A4940;}
	.st78{fill:#182A48;}
	.st79{fill:none;stroke:#A0794A;stroke-width:10;stroke-linecap:round;stroke-miterlimit:10;}
	.st80{fill:#C37A20;}
	.st81{fill:#D26D5C;}
	.st82{fill:#A45752;}
	.st83{fill:#284579;}
	.st84{fill:#88C7F4;}
	.st85{fill:#6EB6F0;}
	.st86{fill:#32221E;}
	.st87{fill:#E7A6A6;}
	.st88{fill:#C59191;}
	.st89{fill:#AA3B3B;}
	.st90{fill:#B83E3E;}
	.st91{fill:none;stroke:#5F55A9;stroke-width:10;stroke-linecap:round;stroke-miterlimit:10;}
	.st92{fill:#963838;}
	.st93{fill:#402B25;}
	.st94{fill:#6B6ABA;}
	.st95{fill:#BABABA;}
	.st96{fill:#D1D1D1;}
	.st97{fill:#264377;}
	.st98{fill:#A19BF5;}
	.st99{fill:#3C2A21;}
	.st100{fill:none;stroke:#4C3328;stroke-width:10;stroke-linecap:round;stroke-miterlimit:10;}
	.st101{fill:#C1781F;}
	.st102{fill:#E3A147;}
	.st103{fill:#F2D2A1;}
	.st104{fill:#4F372D;}
	.st105{fill:none;stroke:#DA4545;stroke-width:10;stroke-linecap:round;stroke-miterlimit:10;}
	.st106{fill:#AA3928;}
	.st107{fill:#8C2C22;}
	.st108{fill:#BF4336;}
	.st109{fill:#5797D4;}
	.st110{fill:#CFCFCF;}
	.st111{fill:#613A2E;}
	.st112{fill:none;stroke:#B18653;stroke-width:10;stroke-linecap:round;stroke-miterlimit:10;}
	.st113{fill:#B13B3B;}
	.st114{fill:#16263A;}
	.st115{fill:none;stroke:#16263A;stroke-width:10;stroke-miterlimit:10;}
	.st116{fill:#C87D20;}
	.st117{fill:#E4F0FD;}
	.st118{fill:#AA3737;}
	.st119{fill:#BF771F;}
	.st120{fill:none;stroke:#CD462A;stroke-width:10;stroke-linejoin:round;stroke-miterlimit:10;}
	.st121{fill:#5696D2;}
	.st122{fill:#C0771E;}
	.st123{fill:#9B5F1B;}
	.st124{fill:#A83A29;}
	.st125{fill:#E7A74F;}
	.st126{fill:#C9924C;}
	.st127{fill:#C58E48;}
	.st128{fill:#BE8844;}
	.st129{fill:#916939;}
	.st130{fill:#264275;}
	.st131{fill:#253F65;}
	.st132{fill:#182A45;}
	.st133{fill:#162336;}
	.st134{fill:#93C7B7;}
	.st135{fill:#E6A4A4;}
	.st136{fill:#B06B1D;}
	.st137{fill:#484185;}
	.st138{fill:#DB6E6E;}
	.st139{fill:#6BBA9A;}
	.st140{fill:#CACCCC;}
	.st141{fill:#D4D4D4;}
	.st142{fill:#A98881;}
	.st143{fill:#213A62;}
	.st144{fill:#A2837D;}
	.st145{fill:#6FB8F4;}
	.st146{fill:#9B9E9E;}
	.st147{fill:#B2B3B3;}
	.st148{fill:#20385D;}
	.st149{fill:#335AA8;}
	.st150{fill:#BCE7FD;}
	.st151{fill:#3B2921;}
	.st152{fill:#AD3C3C;}
	.st153{fill:#9D3838;}
	.st154{fill:#603F33;}
	.st155{fill:#4D868B;}
	.st156{fill:#A2DDFD;}
	.st157{fill:#ECB6B6;}
	.st158{fill:#E8A346;}
	.st159{fill:#514C94;}
	.st160{fill:#D2F1E8;}
	.st161{fill:#BDD6CE;}
	.st162{fill:#B93B29;}
	.st163{fill:#E0AD70;}
	.st164{fill:#C57C21;}
	.st165{fill:#EDA34A;}
	.st166{fill:#2F538F;}
	.st167{fill:#2B4B78;}
	.st168{fill:#65AF91;}
	.st169{fill:#A7CEFC;}
	.st170{fill:#98BDE2;}
	.st171{fill:#CFE5F7;}
	.st172{fill:#5492CD;}
	.st173{fill:#97CCBC;}
	.st174{fill:#5491CA;}
	.st175{fill:#EDC563;}
	.st176{fill:#423C79;}
	.st177{fill:#D3B1A5;}
	.st178{fill:#BE988D;}
	.st179{fill:#A7E5D6;}
	.st180{fill:#F2FFF9;}
	.st181{fill:#D64545;}
	.st182{fill:#A73B3B;}
	.st183{fill:#15233A;}
	.st184{fill:none;stroke:#BE988D;stroke-width:10;stroke-linecap:round;stroke-miterlimit:10;}
	.st185{fill:#AF3A29;}
	.st186{fill:#FAF9FF;}
	.st187{fill:#CACACC;}
	.st188{fill:#372720;}
	.st189{fill:#3F2C26;}
	.st190{fill:#2D201C;}
	.st191{fill:#3D6D6F;}
	.st192{fill:#5B54A8;}
	.st193{fill:#325799;}
	.st194{fill:#E8C26E;}
	.st195{fill:#254784;}
	.st196{fill:#5696D4;}
	.st197{fill:#4F8AB6;}
	.st198{fill:#5FA4AC;}
	.st199{fill:#AA3524;}
	.st200{fill:#D15F4D;}
	.st201{fill:#2B294C;}
	.st202{fill:#A43A2A;}
	.st203{fill:#E7AE2D;}
	.st204{fill:#CD9729;}
	.st205{fill:none;stroke:#AA8253;stroke-width:10;stroke-linecap:round;stroke-miterlimit:10;}
	.st206{fill:none;stroke:#E18F23;stroke-width:10;stroke-linecap:round;stroke-linejoin:round;stroke-miterlimit:10;}
	.st207{fill:#CF9828;}
	.st208{fill:#B88926;}
	.st209{fill:#A17623;}
	.st210{fill:#96CCBC;}
	.st211{fill:#CF9A2A;}
	.st212{fill:#C57B20;}
	.st213{fill:#C7F1E6;}
	.st214{fill:#DC6363;}
	.st215{fill:#E89F9F;}
	.st216{fill:#C88C8C;}
	.st217{fill:#C16E6E;}
	.st218{fill:#A46060;}
	.st219{fill:#AA3626;}
	.st220{fill:#87EDC4;}
	.st221{fill:#D86552;}
	.st222{fill:#BC7620;}
	.st223{fill:#BA741E;}
	.st224{fill:#8F8CE3;}
	.st225{fill:#3A2820;}
	.st226{fill:#AC7060;}
	.st227{fill:#915F55;}
	.st228{fill:#49332A;}
	.st229{fill:#2D1F1B;}
	.st230{fill:#69B7BE;}
	.st231{fill:#D6D6D6;}
	.st232{fill:#B8B8B8;}
	.st233{fill:#CACACA;}
	.st234{fill:#467B80;}
	.st235{fill:#C2EDE2;}
	.st236{fill:#A9574F;}
	.st237{fill:#5595D2;}
	.st238{fill:#955949;}
	.st239{fill:#7E4B42;}
	.st240{fill:#89CCF1;}
	.st241{fill:#DD584A;}
	.st242{fill:#C18F26;}
	.st243{fill:#B33C2A;}
	.st244{fill:#D1A771;}
	.st245{fill:#B42A2A;}
	.st246{fill:#325797;}
	.st247{fill:#9F3529;}
	.st248{fill:#EDCE80;}
	.st249{fill:#F0DBAC;}
	.st250{fill:#CFB478;}
	.st251{fill:#D4C29B;}
	.st252{fill:#993939;}
	.st253{fill:#D1AFA3;}
	.st254{fill:#BC968B;}
	.st255{fill:none;stroke:#BC968B;stroke-width:10;stroke-linecap:round;stroke-miterlimit:10;}
	.st256{fill:#814C3C;}
	.st257{fill:#C0EBE0;}
	.st258{fill:#A5E3D4;}
	.st259{fill:#15243C;}
	.st260{fill:#443E79;}
	.st261{fill:#F0FFF7;}
	.st262{fill:#9A764B;}
	.st263{fill:#826443;}
	.st264{fill:#D9AA74;}
	.st265{fill:#5DA186;}
	.st266{fill:#68B596;}
	.st267{fill:#E5C6BE;}
	.st268{fill:#D3B6B1;}
	.st269{fill:none;stroke:#BAA09C;stroke-width:10;stroke-linecap:round;stroke-miterlimit:10;}
	.st270{fill:#F4D78F;}
	.st271{fill:#20385F;}
	.st272{fill:#BA8727;}
	.st273{fill:#5A9C82;}
	.st274{fill:none;stroke:#E39123;stroke-width:10;stroke-linecap:round;stroke-linejoin:round;stroke-miterlimit:10;}
	.st275{fill:#60392D;}
	.st276{fill:#CCCCCC;}
	.st277{fill:#844F3E;}
	.st278{fill:#F3FFFB;}
	.st279{fill:#365E60;}
	.st280{fill:#D84545;}
	.st281{fill:#A83B3B;}
	.st282{fill:#253F70;}
	.st283{fill:#EAADAD;}
	.st284{fill:#443E7C;}
	.st285{fill:#3D6B9F;}
	.st286{fill:#4274BC;}
	.st287{fill:#AF3827;}
	.st288{fill:#E59D9D;}
	.st289{fill:#C48989;}
	.st290{fill:none;stroke:#9B621A;stroke-width:10;stroke-linecap:round;stroke-linejoin:round;stroke-miterlimit:10;}
	.st291{fill:#213A5E;}
	.st292{fill:#2D507A;}
	.st293{fill:#528EC8;}
	.st294{fill:#EFD696;}
	.st295{fill:#D1BA87;}
	.st296{fill:#FDFCFC;}
	.st297{fill:#86CBFC;}
	.st298{fill:#7AB7DA;}
	.st299{fill:#192C4C;}
	.st300{fill:#BCBCBC;}
	.st301{fill:#A13838;}
	.st302{fill:#75BDF6;}
	.st303{fill:#D0B1AA;}
	.st304{fill:#142233;}
	.st305{fill:#E6C4BB;}
	.st306{fill:#BDBDBD;}
	.st307{fill:#E8A192;}
	.st308{fill:#A43939;}
	.st309{fill:#162640;}
	.st310{fill:#27457C;}
	.st311{fill:#EFBE5E;}
	.st312{fill:#87EDC5;}
	.st313{fill:#A03838;}
	.st314{fill:#833232;}
	.st315{fill:#47417F;}
	.st316{fill:none;stroke:#915F55;stroke-width:10;stroke-linecap:round;stroke-miterlimit:10;}
	.st317{fill:#BC8B25;}
	.st318{fill:#473129;}
	.st319{fill:#67B394;}
	.st320{fill:#599A80;}
	.st321{fill:#B13D3D;}
</style>
<g id="BULINE">
	<circle id="XMLID_1274_" class="st3" cx="256" cy="256" r="256"/>
	<g>
	</g>
</g>
<g id="Icons">
	<g id="XMLID_3794_">
		<g id="XMLID_1729_">
			<path id="XMLID_2180_" class="st275" d="M501.6,328.6C481.1,398,432,455.1,367.9,486.3c-11.4,5.6-23.3,10.3-35.5,14.1
				c-8.4,2.6-16.9,4.8-25.6,6.6c-13.7,2.8-27.8,4.4-42.2,4.9c-2.8,0.1-5.7,0.1-8.6,0.1c-5.7,0-11.4-0.2-17.1-0.6
				c-12.8-0.8-25.4-2.6-37.6-5.3c-7.6-1.6-15-3.6-22.3-5.9c-1.1-0.3-2.2-0.7-3.3-1.1c-11.4-3.8-22.5-8.3-33.1-13.6
				C68.4,448.9,14.6,377.2,2.5,292.1c1.1-0.4,2.2-0.6,3.4-0.6h50v-36.3c0-8.6,7-15.7,15.7-15.7H77v-70.1c0-4.4,3.6-8,8-8h35.9
				c4.4,0,8,3.6,8,8v70.1h31.8c8.6,0,15.6,7,15.6,15.7v11.6c1.2-0.2,2.5-0.3,3.8-0.3h14.5v-21.8c0-0.8,0.1-1.5,0.3-2.2
				c1-3.3,4-5.8,7.7-5.8h35.9c0.4,0,0.7,0,1,0.1c1.5,0.2,3,0.8,4.1,1.8c0,0,0.1,0.1,0.1,0.1c0.5,0.4,0.9,0.8,1.2,1.3
				c1,1.3,1.6,3,1.6,4.7v21.8H334V132.9c0-9.6,7.8-17.5,17.5-17.5h69.1c9.6,0,17.5,7.8,17.5,17.5v82.1h43.6c4.7,0,8.4,3.8,8.4,8.4
				v105.2H501.6z"/>
			<path id="XMLID_1905_" class="st16" d="M367.9,453.2h-224V327.5c0-21.7,17.6-39.3,39.3-39.3h145.4c21.7,0,39.3,17.6,39.3,39.3
				V453.2z"/>
			<path id="XMLID_1904_" class="st141" d="M208.7,288.2c-21.7,0-39.3,17.6-39.3,39.3v125.8h-25.5V327.5c0-21.7,17.6-39.3,39.3-39.3
				H208.7z"/>
			<rect id="XMLID_1903_" x="143.9" y="332.1" class="st297" width="224" height="33.5"/>
			<rect id="XMLID_1902_" x="143.9" y="392.8" class="st297" width="224" height="33.5"/>
			<rect id="XMLID_1901_" x="143.9" y="332.1" class="st298" width="25.5" height="33.5"/>
			<rect id="XMLID_1900_" x="143.9" y="392.8" class="st298" width="25.5" height="33.5"/>
			<path id="XMLID_1899_" class="st20" d="M262.4,304.6h-12.7c-10.1,0-18.3-8.2-18.3-18.3V256c0-10.1,8.2-18.3,18.3-18.3h12.7
				c10.1,0,18.3,8.2,18.3,18.3v30.2C280.7,296.4,272.5,304.6,262.4,304.6z"/>
			<path id="XMLID_1898_" class="st21" d="M264.7,304.4c-0.9,0.1-1.7,0.2-2.6,0.2h-12.7c-10.1,0-18.4-8.2-18.4-18.4V256
				c0-10.1,8.2-18.4,18.4-18.4h12.7c0.9,0,1.8,0.1,2.6,0.2c-8.9,1.3-15.7,8.9-15.7,18.2v30.2C249,295.5,255.8,303.1,264.7,304.4z"/>
			<path id="XMLID_1897_" class="st20" d="M354.8,152.8c-2.1-1.5-4.6-2.4-7.3-2.4h-2.1v-0.6c-10.8-2.4-20.8-10.1-26.1-21.6
				c-3.4-7.3-4.4-15-3.3-22.2c-15.6,8.3-36.6,13.4-59.9,13.4c-20.3,0-38.9-3.9-53.7-10.4c-2.7-1.2-5.3-2.5-7.8-3.9
				c1.3,7.4,0.3,15.5-3.2,23c-5.2,11.2-14.8,18.8-25.3,21.4v0.8h-1.7c-2,0-3.9,0.5-5.6,1.3c-4,2-6.8,6.2-6.8,11v11.8
				c0,6.8,5.5,12.4,12.4,12.4h2.2c1,9.1,3.4,17.8,6.9,25.8c0.3,0.6,0.5,1.2,0.8,1.8c0.3,0.6,0.6,1.2,0.9,1.8
				c2.1,4.2,4.5,8.3,7.2,12.1c0.8,1.1,1.6,2.2,2.4,3.2c0.4,0.5,0.8,1.1,1.2,1.6c0.4,0.5,0.8,1,1.2,1.5c0,0,0,0.1,0.1,0.1
				c0.4,0.5,0.9,1,1.3,1.5c0.4,0.5,0.9,1,1.3,1.5c0.9,1,1.8,1.9,2.8,2.9c0.9,0.9,1.9,1.9,2.9,2.7c0.5,0.4,1,0.9,1.5,1.3
				c0.5,0.4,1,0.9,1.5,1.3c1.8,1.5,3.6,2.8,5.4,4.1c0.4,0.3,0.8,0.6,1.3,0.9c0.5,0.3,1,0.7,1.5,1c0.5,0.3,0.9,0.6,1.4,0.9
				c0.1,0.1,0.2,0.1,0.2,0.2c0.5,0.3,1.1,0.6,1.6,1c0,0,0.1,0,0.1,0.1c0.4,0.2,0.9,0.5,1.3,0.7c0.3,0.1,0.5,0.3,0.8,0.4
				c0.4,0.2,0.9,0.5,1.3,0.7c0,0,0.1,0,0.1,0.1c0.5,0.3,1,0.5,1.5,0.8c0.5,0.3,1.1,0.5,1.6,0.8c0.4,0.2,0.8,0.4,1.1,0.5
				c3.7,1.7,7.5,3.2,11.5,4.4c0.5,0.1,0.9,0.3,1.4,0.4c0.6,0.2,1.2,0.3,1.8,0.5c0.3,0.1,0.6,0.2,0.9,0.2c0.5,0.1,1,0.2,1.5,0.3
				c0.1,0,0.2,0.1,0.3,0.1c0.6,0.1,1.2,0.3,1.7,0.4c0.2,0,0.4,0.1,0.6,0.1c0.5,0.1,0.9,0.2,1.4,0.3c0.4,0.1,0.8,0.1,1.2,0.2
				c0.2,0,0.4,0.1,0.6,0.1c0.4,0.1,0.8,0.1,1.2,0.2c0.5,0.1,1,0.1,1.5,0.2c0.2,0,0.5,0.1,0.7,0.1c0.4,0.1,0.8,0.1,1.2,0.1
				c0.4,0.1,0.7,0.1,1.1,0.1c0.3,0,0.6,0.1,1,0.1c0.4,0,0.8,0.1,1.2,0.1c0.6,0.1,1.2,0.1,1.9,0.1c0.4,0,0.9,0,1.4,0.1
				c0.4,0,0.9,0,1.3,0c0.7,0,1.4,0,2.2,0c2,0,4.1-0.1,6.1-0.2c0.5,0,0.9-0.1,1.3-0.1c0.3,0,0.6-0.1,1-0.1c0.6-0.1,1.2-0.1,1.8-0.2
				c0.5,0,0.9-0.1,1.4-0.2c0.2,0,0.4-0.1,0.7-0.1c0.5-0.1,1-0.1,1.5-0.2c0.7-0.1,1.5-0.2,2.2-0.4h0c16.7-3,31.8-10.6,43.9-21.6
				c15.9-14.3,26.6-34.2,29.1-56.5h2.6c6.8,0,12.4-5.5,12.4-12.4v-11.8C359.9,158.7,357.9,155.1,354.8,152.8z"/>
			<path id="XMLID_1896_" class="st21" d="M253.3,266.5c-0.3,0-0.6,0-0.9,0c-0.5,0-0.9,0-1.4-0.1c-0.6,0-1.3-0.1-1.9-0.1
				c-0.4,0-0.8-0.1-1.2-0.1c-0.3,0-0.6-0.1-1-0.1c-0.4,0-0.7-0.1-1.1-0.1c-0.4,0-0.8-0.1-1.2-0.1c-0.2,0-0.5-0.1-0.7-0.1
				c-0.5-0.1-1-0.1-1.5-0.2c-0.4-0.1-0.8-0.1-1.2-0.2c-0.2,0-0.4-0.1-0.6-0.1c-0.4-0.1-0.8-0.1-1.2-0.2c-0.5-0.1-0.9-0.2-1.4-0.3
				c-0.2,0-0.4-0.1-0.6-0.1c-0.6-0.1-1.2-0.2-1.7-0.4c-0.1,0-0.2,0-0.3-0.1c-0.5-0.1-1-0.2-1.5-0.3c-0.3-0.1-0.6-0.2-0.9-0.2
				c-0.6-0.2-1.2-0.3-1.8-0.5c-0.5-0.1-0.9-0.3-1.4-0.4c-4-1.2-7.8-2.7-11.5-4.4c-0.4-0.2-0.8-0.4-1.1-0.5c-0.6-0.3-1.1-0.5-1.6-0.8
				c-0.5-0.2-1-0.5-1.5-0.8c0,0-0.1,0-0.1-0.1c-0.4-0.2-0.9-0.5-1.3-0.7c-0.3-0.1-0.5-0.3-0.8-0.4c-0.4-0.2-0.9-0.5-1.3-0.7
				c0,0-0.1,0-0.1-0.1c-0.5-0.3-1.1-0.6-1.6-1c-0.1-0.1-0.2-0.1-0.2-0.2c-0.5-0.3-0.9-0.6-1.4-0.9c-0.5-0.3-1-0.7-1.5-1
				c-0.4-0.3-0.8-0.6-1.3-0.9c-1.9-1.3-3.7-2.7-5.4-4.1c-0.5-0.4-1-0.9-1.5-1.3c-0.5-0.4-1-0.9-1.5-1.3c-1-0.9-2-1.8-2.9-2.7
				c-1-0.9-1.9-1.9-2.8-2.9c-0.5-0.5-0.9-1-1.3-1.5c-0.4-0.5-0.9-1-1.3-1.5c0,0,0,0-0.1-0.1c-0.4-0.5-0.8-1-1.2-1.5
				c-0.4-0.5-0.8-1-1.2-1.6c-0.8-1.1-1.6-2.1-2.4-3.2c-2.7-3.8-5.1-7.9-7.2-12.1c-0.3-0.6-0.6-1.2-0.9-1.8c-0.3-0.6-0.6-1.2-0.8-1.8
				c-3.5-8.1-5.9-16.7-6.9-25.8h-2.2c-6.8,0-12.4-5.5-12.4-12.4v-11.8c0-4.8,2.8-9,6.8-11c1.7-0.9,3.6-1.3,5.6-1.3h1.7v-0.8
				c10.6-2.6,20.2-10.2,25.3-21.4c3.5-7.6,4.4-15.6,3.2-23c2.5,1.4,5,2.7,7.8,3.9c1.3,0.6,2.6,1.1,3.9,1.6
				c-8.1,16-12.7,34.7-12.7,54.6C193.8,211.2,218.5,250.6,253.3,266.5z"/>
			<path id="XMLID_1895_" class="st23" d="M260.7,37.3h-7.6c-52,0-94.1,42.1-94.1,94.1v20.4c1.7-0.9,3.6-1.3,5.6-1.3h1.7v-0.8
				c10.6-2.6,20.2-10.2,25.3-21.4c3.5-7.6,4.4-15.6,3.2-23c2.5,1.4,5,2.7,7.8,3.9c14.8,6.5,33.4,10.4,53.7,10.4
				c23.2,0,44.3-5.1,59.9-13.4c-1.1,7.2-0.1,14.9,3.3,22.2c5.3,11.5,15.2,19.2,26.1,21.6v0.6h2.1c2.7,0,5.3,0.9,7.3,2.4v-21.5
				C354.8,79.4,312.7,37.3,260.7,37.3z"/>
			<path id="XMLID_1894_" class="st299" d="M287,41c-34.1,9.9-60.3,38.6-66.4,74.1c-6.4-1.6-12.5-3.7-18-6.1
				c-2.7-1.2-5.3-2.5-7.8-3.9c1.3,7.4,0.3,15.5-3.2,23c-5.2,11.2-14.8,18.8-25.3,21.4v0.8h-1.7c-2,0-3.9,0.5-5.6,1.3v-20.4
				c0-52,42.1-94.1,94.1-94.1h7.6C269.8,37.3,278.7,38.6,287,41z"/>
			<circle id="XMLID_1893_" class="st23" cx="211.9" cy="162.7" r="12.3"/>
			<circle id="XMLID_1892_" class="st16" cx="215" cy="158.7" r="5.4"/>
			<circle id="XMLID_1890_" class="st23" cx="298.1" cy="162.7" r="12.3"/>
			<circle id="XMLID_1889_" class="st16" cx="301.2" cy="158.7" r="5.4"/>
			<path id="XMLID_1888_" class="st21" d="M261.3,195h-11.1c-3.7,0-6.6-3-6.6-6.6v0c0-3.7,3-6.6,6.6-6.6h11.1c3.7,0,6.6,3,6.6,6.6v0
				C267.9,192,264.9,195,261.3,195z"/>
			
				<ellipse id="XMLID_1887_" transform="matrix(0.8899 -0.4562 0.4562 0.8899 -8.9828 105.9962)" class="st6" cx="215" cy="71.6" rx="104.3" ry="51.7"/>
			<path id="XMLID_1886_" class="st26" d="M287.3,8.7c-14.7,3.2-30.5,8.9-46.1,16.9c-51.3,26.3-82.3,68.2-69.2,93.6
				c3.7,7.2,10.6,12.3,19.7,15.3c-33.4,7.4-61.2,2.3-70.3-15.3c-13-25.4,18-67.3,69.2-93.6C227.2,6.8,264.3,1.1,287.3,8.7z"/>
			<circle id="XMLID_1883_" class="st16" cx="196.6" cy="42.8" r="30.5"/>
			<path id="XMLID_1882_" class="st300" d="M221.4,60.7c-5.5,7.7-14.6,12.7-24.7,12.7c-16.8,0-30.5-13.6-30.5-30.5
				c0-12.7,7.7-23.5,18.7-28.1c-3.6,5-5.8,11.2-5.8,17.8c0,16.8,13.7,30.5,30.5,30.5C213.8,63,217.8,62.2,221.4,60.7z"/>
			<path id="XMLID_1881_" class="st6" d="M252.3,331.8c-4.9,8.9-13.6,14.3-19.1,17c-2.7,1.3-5.5-0.2-5.8-3.2
				c-0.7-6.1-0.7-16.3,4.2-25.2c7.5-13.7,18.3-22.3,24-19.1C261.3,304.4,259.8,318.1,252.3,331.8z"/>
			<path id="XMLID_1880_" class="st301" d="M235.8,347.4c-0.9,0.5-1.8,1-2.6,1.3c-2.7,1.3-5.5-0.2-5.8-3.2
				c-0.7-6.1-0.7-16.3,4.2-25.2c7.5-13.7,18.3-22.3,24-19.1c1.5,0.8,2.6,2.5,3.1,4.6c-5.7,2-13,9.2-18.5,19.2
				C236,332.7,235.4,341.3,235.8,347.4z"/>
			<path id="XMLID_1879_" class="st6" d="M278.1,320c5.2,8.7,5.5,19,5.1,25c-0.2,3-2.9,4.7-5.7,3.4c-5.6-2.5-14.4-7.6-19.7-16.3
				c-8-13.4-10-27-4.4-30.4S270,306.5,278.1,320z"/>
			<path id="XMLID_1878_" class="st301" d="M283.3,342.1c0,1-0.1,2-0.1,2.9c-0.2,3-2.9,4.7-5.7,3.4c-5.6-2.5-14.5-7.6-19.7-16.3
				c-8-13.4-10-27-4.4-30.4c1.5-0.9,3.4-1,5.6-0.3c-1.2,5.9,1.4,15.8,7.3,25.7C270.7,334.5,277.8,339.3,283.3,342.1z"/>
			<path id="XMLID_1877_" class="st6" d="M295.2,280l-0.5-1c-2.6-5.3-9-7.4-14.3-4.8l-13.2,6.6c-5.2,2.6-9.1,6.7-11.4,11.6
				c-2.3-4.8-6.2-9-11.4-11.6l-13.2-6.6c-5.3-2.6-11.7-0.5-14.3,4.8l-0.5,1c-3.3,6.6-0.6,14.6,6,17.9l33.3,16.6
				c0-0.1,0.1-0.2,0.1-0.3c0,0.1,0.1,0.2,0.1,0.3l33.3-16.6C295.8,294.7,298.5,286.6,295.2,280z"/>
			<circle id="XMLID_1875_" class="st301" cx="255.9" cy="304.6" r="13"/>
			<g id="XMLID_1870_">
				<path id="XMLID_1874_" class="st36" d="M279.9,213.3c1.3,0,2.3,1,2.3,2.3l0,0c0,2.4-0.3,4.8-0.9,7c-1.4,5.2-4.3,9.7-8.2,13.1
					c-4.7,4.1-10.8,6.5-17.5,6.5c-6.7,0-12.8-2.5-17.5-6.5c-3.9-3.4-6.8-7.9-8.2-13.1c-0.6-2.2-0.9-4.6-0.9-7l0,0
					c0-1.3,1-2.3,2.3-2.3H279.9z"/>
				<path id="XMLID_1872_" class="st26" d="M273.1,235.7c-4.7,4.1-10.8,6.5-17.5,6.5c-6.7,0-12.8-2.5-17.5-6.5
					c4.7-4.1,10.8-6.5,17.5-6.5C262.3,229.2,268.4,231.7,273.1,235.7z"/>
				<path id="XMLID_1871_" class="st16" d="M279.9,213.3c1.3,0,2.3,1,2.3,2.3l0,0c0,2.4-0.3,4.8-0.9,7h-51.4c-0.6-2.2-0.9-4.6-0.9-7
					l0,0c0-1.3,1-2.3,2.3-2.3H279.9z"/>
			</g>
			<path id="XMLID_1869_" class="st23" d="M277.9,203l-22.3-8.1l0,0v0l0,0l0,0l0,0l-22.3,8.1c-11.7,4.2-17.7,17.1-13.5,28.8v0
				l22.3-8.1c6.5-2.4,11.3-7.4,13.5-13.5c2.2,6.1,7,11.1,13.5,13.5l22.3,8.1l0,0C295.7,220.1,289.6,207.2,277.9,203z"/>
			<g id="XMLID_1842_">
				<g id="XMLID_1863_">
					<path id="XMLID_2013_" class="st52" d="M367.9,415.3v71c-11.4,5.6-23.3,10.3-35.5,14.1c-8.4,2.6-16.9,4.8-25.6,6.6
						c-13.7,2.8-27.8,4.4-42.2,4.9c-2.8,0.1-5.7,0.1-8.6,0.1c-5.7,0-11.4-0.2-17.1-0.6c-12.8-0.8-25.4-2.6-37.6-5.3
						c-7.6-1.6-15-3.6-22.3-5.9c-1.1-0.3-2.2-0.7-3.3-1.1c-11.4-3.8-22.5-8.3-33.1-13.6v-70.3c0-2,0.3-3.9,0.8-5.8
						c0.2-0.6,0.3-1.1,0.5-1.6c0,0,0,0,0-0.1c3.1-8.7,11.3-14.9,21-14.9h180.7c10.3,0,19,7,21.6,16.6
						C367.7,411.4,367.9,413.3,367.9,415.3z"/>
					<path id="XMLID_1960_" class="st9" d="M201.3,393c-11.2,0-20.5,8.3-22.1,19.1c-0.2,1.1-0.2,2.1-0.2,3.2v84.9
						c-1.1-0.3-2.2-0.7-3.3-1.1c-11.4-3.8-22.5-8.3-33.1-13.6v-70.3c0-2,0.3-3.9,0.8-5.8c0.2-0.6,0.3-1.1,0.5-1.6c0,0,0,0,0-0.1
						c3.1-8.7,11.3-14.9,21-14.9H201.3z"/>
					<path id="XMLID_1943_" class="st9" d="M332.4,426.8v73.6c-8.4,2.6-16.9,4.8-25.6,6.6v-80.2c0-0.2,0-0.4,0-0.5
						c0.3-6.8,5.9-12.3,12.8-12.3c3,0,5.7,1,7.9,2.7c0.4,0.3,0.8,0.7,1.2,1.1c2.2,2.2,3.6,5.2,3.7,8.6
						C332.4,426.4,332.4,426.6,332.4,426.8z"/>
					<path id="XMLID_1929_" class="st9" d="M264.6,426.8v85.1c-2.8,0.1-5.7,0.1-8.6,0.1c-5.7,0-11.4-0.2-17.1-0.6v-84.7
						c0-0.2,0-0.4,0-0.5c0.3-6.8,5.9-12.3,12.8-12.3c3.5,0,6.7,1.4,9.1,3.8c2.2,2.2,3.6,5.2,3.7,8.6
						C264.6,426.4,264.6,426.6,264.6,426.8z"/>
					<path id="XMLID_1949_" class="st9" d="M201.3,426.8v79.4c-7.6-1.6-15-3.6-22.3-5.9c-1.1-0.3-2.2-0.7-3.3-1.1v-72.4
						c0-0.2,0-0.4,0-0.5c0.1-3.1,1.3-5.9,3.3-8.1c1.3-1.4,2.9-2.5,4.7-3.3c1.5-0.6,3.1-0.9,4.8-0.9c3.5,0,6.7,1.4,9.1,3.8
						c2.2,2.2,3.6,5.2,3.7,8.6C201.3,426.4,201.3,426.6,201.3,426.8z"/>
				</g>
				<path id="XMLID_1862_" class="st15" d="M231,376.4h-25c-3.7,0-6.7,3-6.7,6.7v9.8h38.4v-9.8C237.7,379.4,234.7,376.4,231,376.4z"
					/>
				<path id="XMLID_1861_" class="st122" d="M217.7,376.4c-3.7,0-6.7,3-6.7,6.7v9.8h-11.7v-9.8c0-3.7,3-6.7,6.7-6.7H217.7z"/>
				<path id="XMLID_1856_" class="st15" d="M301.7,376.4h-25c-3.7,0-6.7,3-6.7,6.7v9.8h38.4v-9.8
					C308.4,379.4,305.4,376.4,301.7,376.4z"/>
				<path id="XMLID_1855_" class="st122" d="M288.3,376.4c-3.7,0-6.7,3-6.7,6.7v9.8h-11.7v-9.8c0-3.7,3-6.7,6.7-6.7H288.3z"/>
				<rect id="XMLID_1852_" x="279" y="333" class="st42" width="20.4" height="43.4"/>
				<rect id="XMLID_1851_" x="208.3" y="333" class="st42" width="20.4" height="43.4"/>
				<path id="XMLID_1847_" class="st15" d="M308.1,307.8H199.7c-3.6,0-6.5,2.9-6.5,6.5v12.2c0,3.6,2.9,6.5,6.5,6.5h108.3
					c3.6,0,6.5-2.9,6.5-6.5v-12.2C314.6,310.7,311.7,307.8,308.1,307.8z"/>
				<path id="XMLID_1845_" class="st122" d="M227.3,333h-27.6c-3.6,0-6.5-2.9-6.5-6.5v-12.2c0-3.6,2.9-6.5,6.5-6.5h27.6
					c-3.6,0-6.5,2.9-6.5,6.5v12.2C220.8,330.1,223.7,333,227.3,333z"/>
			</g>
			<path id="XMLID_1813_" class="st20" d="M168.3,458.5h-29.8c-6.1,0-11-4.9-11-11v-27c0-6.1,4.9-11,11-11h29.8
				c13.5,0,24.5,11,24.5,24.5v0C192.8,447.5,181.9,458.5,168.3,458.5z"/>
			<path id="XMLID_1732_" class="st21" d="M192.8,434c0,6.8-2.7,12.9-7.2,17.3c-4.4,4.4-10.6,7.2-17.3,7.2h-29.8
				c-6.1,0-11-4.9-11-11v-13.6c0,6.1,4.9,11,11,11h29.8c6.8,0,12.9-2.7,17.3-7.2c2.9-2.9,5.1-6.5,6.2-10.5
				C192.5,429.4,192.8,431.7,192.8,434z"/>
			<path id="XMLID_1731_" class="st20" d="M344.7,458.5h29.8c6.1,0,11-4.9,11-11v-27c0-6.1-4.9-11-11-11h-29.8
				c-13.5,0-24.5,11-24.5,24.5v0C320.2,447.5,331.1,458.5,344.7,458.5z"/>
			<path id="XMLID_1730_" class="st21" d="M320.2,434c0,6.8,2.7,12.9,7.2,17.3c4.4,4.4,10.6,7.2,17.3,7.2h29.8c6.1,0,11-4.9,11-11
				v-13.6c0,6.1-4.9,11-11,11h-29.8c-6.8,0-12.9-2.7-17.3-7.2c-2.9-2.9-5.1-6.5-6.2-10.5C320.5,429.4,320.2,431.7,320.2,434z"/>
		</g>
		<path id="XMLID_1195_" class="st97" d="M306.8,60.1c7,3.5,16.8,10.4,22.4,23.4c1.2,2.9-1.7,5.7-4.5,4.4v0c-1.8-0.8-3.7,1-2.9,2.8
			c1.2,2.7,2.6,6.1,3.8,9.6c1.3,3.5-3.3,6.2-5.7,3.3c-6.5-7.6-16.1-16.5-26.2-17.7c-1.1-0.1-1.7-1.4-1.1-2.4c1.5-2.3,4.3-5.8,8.8-7
			c4-1.1,6.7-5.1,5.8-9.2c-0.3-1.6-1-3.3-2.3-5C303.9,61.1,305.3,59.4,306.8,60.1z"/>
	</g>
</g>
</svg>
