<?xml version="1.0" encoding="utf-8"?>
<!-- Generator: Adobe Illustrator 22.0.1, SVG Export Plug-In . SVG Version: 6.00 Build 0)  -->
<svg version="1.1" xmlns="http://www.w3.org/2000/svg" xmlns:xlink="http://www.w3.org/1999/xlink" x="0px" y="0px"
	 viewBox="0 0 512 512" style="enable-background:new 0 0 512 512;" xml:space="preserve">
<style type="text/css">
	.st0{fill:#E9B12D;}
	.st1{fill:#A9E7D8;}
	.st2{fill:#76CFB1;}
	.st3{fill:#AE6B5D;}
	.st4{fill:#7770D3;}
	.st5{fill:#5BA0F5;}
	.st6{fill:#DA4545;}
	.st7{fill:#89CCFC;}
	.st8{fill:#CD462A;}
	.st9{fill:#514896;}
	.st10{fill:#5493A0;}
	.st11{fill:#CC6B5C;}
	.st12{fill:#62AA8D;}
	.st13{fill:#8ABAAB;}
	.st14{fill:#C3791F;}
	.st15{fill:#E39123;}
	.st16{fill:#FFFFFF;}
	.st17{fill:none;stroke:#FFFFFF;stroke-width:10;stroke-linecap:round;stroke-miterlimit:10;}
	.st18{fill:none;stroke:#5F55AB;stroke-width:10;stroke-linecap:round;stroke-miterlimit:10;}
	.st19{fill:#A9671C;}
	.st20{fill:#D5B3A7;}
	.st21{fill:#C09A8F;}
	.st22{fill:#487F87;}
	.st23{fill:#1B305C;}
	.st24{fill:#172945;}
	.st25{fill:none;}
	.st26{fill:#B62A2A;}
	.st27{fill:#325859;}
	.st28{fill:#3F6E71;}
	.st29{fill:#284646;}
	.st30{fill:#8F2727;}
	.st31{fill:#29477C;}
	.st32{fill:#5B9BEE;}
	.st33{fill:#487FDE;}
	.st34{fill:#CD9829;}
	.st35{fill:#9F2A2A;}
	.st36{fill:#4C3328;}
	.st37{fill:#E8B94A;}
	.st38{fill:#DDF8F1;}
	.st39{fill:#3E2A22;}
	.st40{fill:#D3A971;}
	.st41{fill:#C79A5B;}
	.st42{fill:#233E76;}
	.st43{fill:#21395F;}
	.st44{fill:#487D82;}
	.st45{fill:none;stroke:#C79A5B;stroke-width:10;stroke-linecap:round;stroke-miterlimit:10;}
	.st46{fill:#5E3E31;}
	.st47{fill:#AC3939;}
	.st48{fill:#CA9628;}
	.st49{fill:#AF8F88;}
	.st50{fill:#815048;}
	.st51{fill:#6F4232;}
	.st52{fill:#5F55AB;}
	.st53{fill:#192A48;}
	.st54{fill:#152336;}
	.st55{fill:#192B49;}
	.st56{fill:#264173;}
	.st57{fill:#B06F1E;}
	.st58{fill:#4E88C0;}
	.st59{fill:#83C3F1;}
	.st60{fill:#CF9929;}
	.st61{fill:none;stroke:#FFFFFF;stroke-width:10;stroke-linecap:round;stroke-linejoin:round;stroke-miterlimit:10;}
	.st62{fill:#EAC262;}
	.st63{fill:#D6D5D4;}
	.st64{fill:#6BBA9B;}
	.st65{fill:#63AA8F;}
	.st66{fill:none;stroke:#3E2A22;stroke-width:10;stroke-linecap:round;stroke-miterlimit:10;}
	.st67{fill:#CA7D1F;}
	.st68{fill:#213B64;}
	.st69{fill:#CDF8EC;}
	.st70{fill:#C59125;}
	.st71{fill:none;stroke:#C09A8F;stroke-width:10;stroke-linecap:round;stroke-miterlimit:10;}
	.st72{fill:#32579B;}
	.st73{fill:#172843;}
	.st74{fill:#D66767;}
	.st75{fill:#A74949;}
	.st76{fill:#EBC76F;}
	.st77{fill:#7A4940;}
	.st78{fill:#182A48;}
	.st79{fill:none;stroke:#A0794A;stroke-width:10;stroke-linecap:round;stroke-miterlimit:10;}
	.st80{fill:#C37A20;}
	.st81{fill:#D26D5C;}
	.st82{fill:#A45752;}
	.st83{fill:#284579;}
	.st84{fill:#88C7F4;}
	.st85{fill:#6EB6F0;}
	.st86{fill:#32221E;}
	.st87{fill:#E7A6A6;}
	.st88{fill:#C59191;}
	.st89{fill:#AA3B3B;}
	.st90{fill:#B83E3E;}
	.st91{fill:none;stroke:#5F55A9;stroke-width:10;stroke-linecap:round;stroke-miterlimit:10;}
	.st92{fill:#963838;}
	.st93{fill:#402B25;}
	.st94{fill:#6B6ABA;}
	.st95{fill:#BABABA;}
	.st96{fill:#D1D1D1;}
	.st97{fill:#264377;}
	.st98{fill:#A19BF5;}
	.st99{fill:#3C2A21;}
	.st100{fill:none;stroke:#4C3328;stroke-width:10;stroke-linecap:round;stroke-miterlimit:10;}
	.st101{fill:#C1781F;}
	.st102{fill:#E3A147;}
	.st103{fill:#F2D2A1;}
	.st104{fill:#4F372D;}
	.st105{fill:none;stroke:#DA4545;stroke-width:10;stroke-linecap:round;stroke-miterlimit:10;}
	.st106{fill:#AA3928;}
	.st107{fill:#8C2C22;}
	.st108{fill:#BF4336;}
	.st109{fill:#5797D4;}
	.st110{fill:#CFCFCF;}
	.st111{fill:#613A2E;}
	.st112{fill:none;stroke:#B18653;stroke-width:10;stroke-linecap:round;stroke-miterlimit:10;}
	.st113{fill:#B13B3B;}
	.st114{fill:#16263A;}
	.st115{fill:none;stroke:#16263A;stroke-width:10;stroke-miterlimit:10;}
	.st116{fill:#C87D20;}
	.st117{fill:#E4F0FD;}
	.st118{fill:#AA3737;}
	.st119{fill:#BF771F;}
	.st120{fill:none;stroke:#CD462A;stroke-width:10;stroke-linejoin:round;stroke-miterlimit:10;}
	.st121{fill:#5696D2;}
	.st122{fill:#C0771E;}
	.st123{fill:#9B5F1B;}
	.st124{fill:#A83A29;}
	.st125{fill:#E7A74F;}
	.st126{fill:#C9924C;}
	.st127{fill:#C58E48;}
	.st128{fill:#BE8844;}
	.st129{fill:#916939;}
	.st130{fill:#264275;}
	.st131{fill:#253F65;}
	.st132{fill:#182A45;}
	.st133{fill:#162336;}
	.st134{fill:#93C7B7;}
	.st135{fill:#E6A4A4;}
	.st136{fill:#B06B1D;}
	.st137{fill:#484185;}
	.st138{fill:#DB6E6E;}
	.st139{fill:#6BBA9A;}
	.st140{fill:#CACCCC;}
	.st141{fill:#D4D4D4;}
	.st142{fill:#A98881;}
	.st143{fill:#213A62;}
	.st144{fill:#A2837D;}
	.st145{fill:#6FB8F4;}
	.st146{fill:#9B9E9E;}
	.st147{fill:#B2B3B3;}
	.st148{fill:#20385D;}
	.st149{fill:#335AA8;}
	.st150{fill:#BCE7FD;}
	.st151{fill:#3B2921;}
	.st152{fill:#AD3C3C;}
	.st153{fill:#9D3838;}
	.st154{fill:#603F33;}
	.st155{fill:#4D868B;}
	.st156{fill:#A2DDFD;}
	.st157{fill:#ECB6B6;}
	.st158{fill:#E8A346;}
	.st159{fill:#514C94;}
	.st160{fill:#D2F1E8;}
	.st161{fill:#BDD6CE;}
	.st162{fill:#B93B29;}
	.st163{fill:#E0AD70;}
	.st164{fill:#C57C21;}
	.st165{fill:#EDA34A;}
	.st166{fill:#2F538F;}
	.st167{fill:#2B4B78;}
	.st168{fill:#65AF91;}
	.st169{fill:#A7CEFC;}
	.st170{fill:#98BDE2;}
	.st171{fill:#CFE5F7;}
	.st172{fill:#5492CD;}
	.st173{fill:#97CCBC;}
	.st174{fill:#5491CA;}
	.st175{fill:#EDC563;}
	.st176{fill:#423C79;}
	.st177{fill:#D3B1A5;}
	.st178{fill:#BE988D;}
	.st179{fill:#A7E5D6;}
	.st180{fill:#F2FFF9;}
	.st181{fill:#D64545;}
	.st182{fill:#A73B3B;}
	.st183{fill:#15233A;}
	.st184{fill:none;stroke:#BE988D;stroke-width:10;stroke-linecap:round;stroke-miterlimit:10;}
	.st185{fill:#AF3A29;}
	.st186{fill:#FAF9FF;}
	.st187{fill:#CACACC;}
	.st188{fill:#372720;}
	.st189{fill:#3F2C26;}
	.st190{fill:#2D201C;}
	.st191{fill:#3D6D6F;}
	.st192{fill:#5B54A8;}
	.st193{fill:#325799;}
	.st194{fill:#E8C26E;}
	.st195{fill:#254784;}
	.st196{fill:#5696D4;}
	.st197{fill:#4F8AB6;}
	.st198{fill:#5FA4AC;}
	.st199{fill:#AA3524;}
	.st200{fill:#D15F4D;}
	.st201{fill:#2B294C;}
	.st202{fill:#A43A2A;}
	.st203{fill:#E7AE2D;}
	.st204{fill:#CD9729;}
	.st205{fill:none;stroke:#AA8253;stroke-width:10;stroke-linecap:round;stroke-miterlimit:10;}
	.st206{fill:none;stroke:#E18F23;stroke-width:10;stroke-linecap:round;stroke-linejoin:round;stroke-miterlimit:10;}
	.st207{fill:#CF9828;}
	.st208{fill:#B88926;}
	.st209{fill:#A17623;}
	.st210{fill:#96CCBC;}
	.st211{fill:#CF9A2A;}
	.st212{fill:#C57B20;}
	.st213{fill:#C7F1E6;}
	.st214{fill:#DC6363;}
	.st215{fill:#E89F9F;}
	.st216{fill:#C88C8C;}
	.st217{fill:#C16E6E;}
	.st218{fill:#A46060;}
	.st219{fill:#AA3626;}
	.st220{fill:#87EDC4;}
	.st221{fill:#D86552;}
	.st222{fill:#BC7620;}
	.st223{fill:#BA741E;}
	.st224{fill:#8F8CE3;}
	.st225{fill:#3A2820;}
	.st226{fill:#AC7060;}
	.st227{fill:#915F55;}
	.st228{fill:#49332A;}
	.st229{fill:#2D1F1B;}
	.st230{fill:#69B7BE;}
	.st231{fill:#D6D6D6;}
	.st232{fill:#B8B8B8;}
	.st233{fill:#CACACA;}
	.st234{fill:#467B80;}
	.st235{fill:#C2EDE2;}
	.st236{fill:#A9574F;}
	.st237{fill:#5595D2;}
	.st238{fill:#955949;}
	.st239{fill:#7E4B42;}
	.st240{fill:#89CCF1;}
	.st241{fill:#DD584A;}
	.st242{fill:#C18F26;}
	.st243{fill:#B33C2A;}
	.st244{fill:#D1A771;}
	.st245{fill:#B42A2A;}
	.st246{fill:#325797;}
	.st247{fill:#9F3529;}
	.st248{fill:#EDCE80;}
	.st249{fill:#F0DBAC;}
	.st250{fill:#CFB478;}
	.st251{fill:#D4C29B;}
	.st252{fill:#993939;}
	.st253{fill:#D1AFA3;}
	.st254{fill:#BC968B;}
	.st255{fill:none;stroke:#BC968B;stroke-width:10;stroke-linecap:round;stroke-miterlimit:10;}
	.st256{fill:#814C3C;}
	.st257{fill:#C0EBE0;}
	.st258{fill:#A5E3D4;}
	.st259{fill:#15243C;}
	.st260{fill:#443E79;}
	.st261{fill:#F0FFF7;}
	.st262{fill:#9A764B;}
	.st263{fill:#826443;}
	.st264{fill:#D9AA74;}
	.st265{fill:#5DA186;}
	.st266{fill:#68B596;}
	.st267{fill:#E5C6BE;}
	.st268{fill:#D3B6B1;}
	.st269{fill:none;stroke:#BAA09C;stroke-width:10;stroke-linecap:round;stroke-miterlimit:10;}
	.st270{fill:#F4D78F;}
	.st271{fill:#20385F;}
	.st272{fill:#BA8727;}
	.st273{fill:#5A9C82;}
	.st274{fill:none;stroke:#E39123;stroke-width:10;stroke-linecap:round;stroke-linejoin:round;stroke-miterlimit:10;}
	.st275{fill:#60392D;}
	.st276{fill:#CCCCCC;}
	.st277{fill:#844F3E;}
	.st278{fill:#F3FFFB;}
	.st279{fill:#365E60;}
	.st280{fill:#D84545;}
	.st281{fill:#A83B3B;}
	.st282{fill:#253F70;}
	.st283{fill:#EAADAD;}
	.st284{fill:#443E7C;}
	.st285{fill:#3D6B9F;}
	.st286{fill:#4274BC;}
	.st287{fill:#AF3827;}
	.st288{fill:#E59D9D;}
	.st289{fill:#C48989;}
	.st290{fill:none;stroke:#9B621A;stroke-width:10;stroke-linecap:round;stroke-linejoin:round;stroke-miterlimit:10;}
	.st291{fill:#213A5E;}
	.st292{fill:#2D507A;}
	.st293{fill:#528EC8;}
	.st294{fill:#EFD696;}
	.st295{fill:#D1BA87;}
	.st296{fill:#FDFCFC;}
	.st297{fill:#86CBFC;}
	.st298{fill:#7AB7DA;}
	.st299{fill:#192C4C;}
	.st300{fill:#BCBCBC;}
	.st301{fill:#A13838;}
	.st302{fill:#75BDF6;}
	.st303{fill:#D0B1AA;}
	.st304{fill:#142233;}
	.st305{fill:#E6C4BB;}
	.st306{fill:#BDBDBD;}
	.st307{fill:#E8A192;}
	.st308{fill:#A43939;}
	.st309{fill:#162640;}
	.st310{fill:#27457C;}
	.st311{fill:#EFBE5E;}
	.st312{fill:#87EDC5;}
	.st313{fill:#A03838;}
	.st314{fill:#833232;}
	.st315{fill:#47417F;}
	.st316{fill:none;stroke:#915F55;stroke-width:10;stroke-linecap:round;stroke-miterlimit:10;}
	.st317{fill:#BC8B25;}
	.st318{fill:#473129;}
	.st319{fill:#67B394;}
	.st320{fill:#599A80;}
	.st321{fill:#B13D3D;}
</style>
<g id="BULINE">
	<circle id="XMLID_1829_" class="st1" cx="256" cy="256" r="256"/>
	<g>
	</g>
</g>
<g id="Icons">
	<g id="XMLID_800_">
		<path id="XMLID_2464_" class="st5" d="M512,256c0,27.5-4.3,54-12.4,78.8c-5.7,17.8-13.4,34.7-22.7,50.5H35
			c-11.4-19.5-20.3-40.6-26.3-62.9C3,301.2,0,279,0,256c0-15.9,1.5-31.5,4.2-46.6h503.5C510.5,224.5,512,240.1,512,256z"/>
		<path id="XMLID_2392_" class="st40" d="M499.6,334.8c-5.7,17.8-13.4,34.7-22.7,50.5c-16,27.4-37,51.5-61.7,71.1
			c-14.1,11.2-29.4,21-45.7,29.1c-11.7,5.8-24,10.8-36.7,14.8c-2.1,0.7-4.2,1.3-6.4,1.9c-5.4,1.6-10.9,2.9-16.5,4.1
			c-0.7,0.1-1.3,0.3-2,0.4c-16.8,3.5-34.2,5.3-52.1,5.3h-0.3c-18.5,0-36.5-2-53.8-5.7c-18.5-4-36.3-10-53.1-17.7
			c-5.6-2.6-11.1-5.4-16.5-8.3c-3.4-1.9-6.7-3.8-10-5.8c-11.2-6.9-21.9-14.6-31.9-23.1c-0.2-0.2-0.5-0.4-0.7-0.6
			c-21.7-18.5-40.3-40.7-54.8-65.4c-11.4-19.5-20.3-40.6-26.3-62.9c25.2-4.1,55.8-6.9,87.3-5c5.5,0.3,11,0.8,16.5,1.5
			c0.2,0,0.4,0.1,0.6,0.1c8.7,1,17.4,2.5,26,4.4c0,0,0,0,0,0c7.1,1.6,14.2,3.5,21.1,5.8c0,0,0,0,0,0c4.6,1.5,9.2,3.2,13.7,5
			c3.5,1.4,6.9,2.9,10.3,4.6c8.1,3.9,15.9,8.4,23.5,13.6c0,0,29.4,15,67.1,15.5c8.4,0.1,17.1-0.5,26.1-2.2
			c19.3-3.6,39.4-12,58.1-28.4c0,0,1.1-1,3.3-2.7c1.2-0.9,2.8-2.1,4.6-3.3c4.8-3.2,11.6-7.3,20-10.9c2.6-1.1,5.3-2.2,8.1-3.1
			c3.5-1.2,7.2-2.3,11.1-3.2c2.7-0.6,5.4-1.1,8.2-1.6c3.1-0.5,6.3-0.8,9.6-1c5.3-0.3,10.8-0.2,16.5,0.3c2.7,0.3,5.4,0.6,8.2,1.1
			C464.5,315.6,481.6,322.3,499.6,334.8z"/>
		<path id="XMLID_3855_" class="st0" d="M396.5,209.4c-7.4-94.4-59-171.2-126.4-192.5c-0.8-0.2-1.5-0.5-2.3-0.7
			c-0.8-0.2-1.5-0.4-2.3-0.7c-3.2-0.9-6.5-1.7-9.8-2.3c-0.5-0.1-1-0.2-1.5-0.3c-0.2,0-0.4-0.1-0.7-0.1c-0.7-0.1-1.3-0.2-2-0.3
			c-2.2-0.4-4.5-0.6-6.8-0.9c-0.5-0.1-1-0.1-1.5-0.1c-1-0.1-2-0.2-3-0.2c-0.4,0-0.9-0.1-1.4-0.1c-0.6,0-1.3-0.1-2-0.1
			c-0.5,0-1.1,0-1.7,0c-0.4,0-0.7,0-1.1,0c-0.7,0-1.4,0-2.1,0C146.6,11,76.3,97.9,67.5,209.4c-0.6,7.8-0.9,15.6-0.9,23.6
			c0,25.8,3.3,50.6,9.3,73.7c0.6,2.2,3.2,2.6,4.5,1.3c0.3-0.3,0.5-0.6,0.7-1.1c0-0.2,0.1-0.3,0.1-0.5c1.1-8.6,2.5-17.1,4-25
			c0.6-3.2,3.6-4.2,6-3.4c0.4,0.1,0.8,0.3,1.1,0.6c1,0.7,1.7,1.9,1.8,3.5c0.3,10.9,0.8,23.2,1.9,35.5c0.5,5.4,1,10.9,1.7,16.2
			c0,0.3,0.1,0.6,0.1,0.9c2.6,20.3,7,39.1,14,50.7c0.3,0.6,0.7,1.1,1,1.6c3,4.3,6.2,8.4,9.5,12.3c4.5,5.4,9.3,10.4,14.2,15.1
			c4,3.8,8,7.3,12.2,10.6c13.3,10.4,27.8,18.4,43.1,23.5c0.1,0,0.2,0.1,0.4,0.1c3.1,1,6.2,1.9,9.3,2.7c0.1,0,0.2,0,0.2,0.1
			c9.8,2.4,19.8,3.7,30.1,3.7c0.8,0,1.5,0,2.2,0c0.4,0,0.8,0,1.2,0c0.5,0,1,0,1.5-0.1c0.6,0,1.3-0.1,1.9-0.1c0.6,0,1.2-0.1,1.8-0.1
			c0.2,0,0.3,0,0.5,0c0.7-0.1,1.4-0.1,2-0.2c0.6-0.1,1.2-0.1,1.7-0.2c0.4,0,0.7-0.1,1.1-0.1c0.4,0,0.8-0.1,1.2-0.1
			c0.6-0.1,1.2-0.1,1.8-0.2c0.8-0.1,1.6-0.2,2.4-0.4c0.7-0.1,1.4-0.2,2.1-0.3c0.3-0.1,0.6-0.1,0.9-0.2c0.7-0.1,1.4-0.3,2.1-0.4
			c2.2-0.4,4.5-1,6.7-1.5c0.8-0.2,1.5-0.4,2.3-0.6c0.8-0.2,1.5-0.4,2.3-0.7c0.8-0.2,1.5-0.5,2.3-0.7c14.1-4.5,27.6-11.4,40-20.3
			c5.1-3.7,10.1-7.7,14.9-12.1c10-9.1,19.2-19.6,27.4-31.4c0.3-0.4,0.6-0.9,1-1.4c5.8-10.4,9.8-25.9,12.3-43
			c0.5-3.2,0.9-6.4,1.3-9.7c2-16.7,2.9-34.2,3.3-49.2c0.1-5.4,7.9-6,8.9-0.7c1.5,7.7,2.8,15.9,3.9,24.3c0.2,1.9,2.1,2.7,3.6,2.2
			c0.8-0.3,1.4-0.9,1.7-1.9c2.9-11.1,5.1-22.6,6.7-34.4c1.6-12.5,2.5-25.4,2.5-38.5C397.4,225,397.1,217.2,396.5,209.4z"/>
		<path id="XMLID_2278_" class="st20" d="M237.8,331.7H222c-12.7,0-22.9-10.3-22.9-22.9v-37.7c0-12.7,10.3-22.9,22.9-22.9h15.8
			c12.7,0,22.9,10.3,22.9,22.9v37.7C260.7,321.5,250.5,331.7,237.8,331.7z"/>
		<path id="XMLID_2274_" class="st21" d="M240.7,331.5c-1.1,0.2-2.2,0.2-3.3,0.2h-15.8c-12.7,0-22.9-10.3-22.9-22.9v-37.7
			c0-12.7,10.3-22.9,22.9-22.9h15.8c1.1,0,2.2,0.1,3.3,0.2c-11.1,1.6-19.6,11.2-19.6,22.7v37.7C221.1,320.3,229.6,329.9,240.7,331.5
			z"/>
		<path id="XMLID_2281_" class="st48" d="M201.9,403.1c-0.1-0.1-0.2-0.2-0.2-0.3c-3.5-4-6.8-8.1-10.1-12.4l0,0
			c-0.3-0.3-0.5-0.7-0.8-1c-0.6-0.8-1.2-1.6-1.8-2.5c-0.3-0.5-0.7-1.1-1-1.6c-7.1-11.7-11.4-30.7-14-51.1c-1-7.6-1.7-15.3-2.3-23
			c-0.1-1.9-0.3-3.8-0.4-5.6c-0.5-8.2-0.8-16.2-1-23.6c-0.1-5.4-7.9-6-8.8-0.7c-1.5,7.9-2.9,16.4-4,25c-0.4,2.9-4.5,3.2-5.3,0.3
			c-5.1-19.6-8.3-40.4-9.1-62.1c0,0,0,0,0,0c-0.1-0.1-0.1-0.2-0.2-0.3c-0.2-0.2-0.3-0.5-0.5-0.7c-0.1-0.1-0.2-0.2-0.2-0.3
			c-0.3-0.4-0.6-0.9-0.9-1.3c-0.2-0.2-0.3-0.5-0.5-0.7c-0.2-0.3-0.4-0.5-0.5-0.8c-0.1-0.1-0.2-0.3-0.2-0.4h0c0,0,0,0,0,0
			c-0.1-0.2-0.2-0.3-0.3-0.5c-0.3-0.4-0.5-0.8-0.8-1.2c0,0,0-0.1-0.1-0.1h0c-0.1-0.1-0.2-0.3-0.3-0.4c-0.3-0.5-0.6-0.9-0.9-1.4h0
			c-0.3-0.5-0.6-1-0.9-1.5c-0.1-0.1-0.1-0.2-0.2-0.3h0c-0.7-1.3-1.4-2.5-2.1-3.8c0,0,0,0,0,0c0,0,0,0,0-0.1
			c-0.1-0.3-0.3-0.5-0.4-0.8c-0.1-0.1-0.1-0.2-0.1-0.3c-0.2-0.4-0.4-0.7-0.5-1.1c0,0,0-0.1-0.1-0.1c-0.4-0.7-0.7-1.4-1-2.2
			c0,0,0-0.1-0.1-0.1c-0.3-0.7-0.7-1.5-1-2.2c0,0,0-0.1,0-0.1c0,0,0,0,0,0c-0.2-0.4-0.3-0.8-0.5-1.1c-0.2-0.4-0.3-0.8-0.5-1.1
			c-0.6-1.6-1.3-3.2-1.8-4.8c-0.1-0.4-0.3-0.7-0.4-1.1c-0.4-1-0.7-2-1-3.1c-0.3-0.9-0.5-1.8-0.8-2.7c0-0.1-0.1-0.2-0.1-0.3
			c-0.1-0.2-0.1-0.5-0.2-0.7c-0.2-0.6-0.3-1.2-0.5-1.9c-0.2-0.6-0.3-1.2-0.5-1.9s-0.3-1.3-0.4-1.9c-0.3-1.4-0.6-2.8-0.9-4.2
			c-0.1-0.5-0.2-1-0.3-1.5h0c-0.3-1.9-0.6-3.9-0.8-5.8h-2.8c-0.2,0-0.5,0-0.7,0c0,0-0.1,0-0.1,0c-0.1,0-0.2,0-0.3,0
			c-0.1,0-0.2,0-0.3,0c0,0-0.1,0-0.1,0c-0.3,0-0.6-0.1-0.8-0.1l0,0c0,0-0.1,0-0.1,0c-0.1,0-0.2,0-0.2,0c0,0-0.1,0-0.1,0
			c0,0,0,0-0.1,0c-0.1,0-0.1,0-0.2,0c0,0,0,0,0,0c0,0-0.1,0-0.1,0c-0.2,0-0.3-0.1-0.5-0.1c0,0-0.1,0-0.1,0c0,0,0,0,0,0
			c0,0-0.1,0-0.1,0c0,0,0,0-0.1,0c-0.2-0.1-0.4-0.1-0.5-0.2c-0.2-0.1-0.5-0.2-0.7-0.2l0,0c-0.2-0.1-0.4-0.1-0.5-0.2
			c0,0-0.1,0-0.2-0.1c-0.1,0-0.2-0.1-0.3-0.1c-0.1-0.1-0.2-0.1-0.3-0.2c-0.1,0-0.1-0.1-0.2-0.1c-0.2-0.1-0.3-0.2-0.5-0.3
			c-0.1-0.1-0.2-0.1-0.3-0.2c-0.1-0.1-0.2-0.1-0.4-0.2h0c-0.2-0.1-0.4-0.3-0.6-0.4c-0.2-0.1-0.4-0.3-0.6-0.4v0h0
			c-0.2-0.1-0.4-0.3-0.6-0.4v0c0,0,0,0,0,0c-0.2-0.1-0.4-0.3-0.5-0.5v0c0,0,0,0,0,0c-0.2-0.2-0.4-0.3-0.5-0.5
			c-1.1-1.1-2-2.2-2.7-3.6c-0.2-0.4-0.5-0.9-0.6-1.3c-0.8-1.9-1.2-3.9-1.2-6v-14.8c0-0.3,0-0.6,0-0.9c0-0.4,0-0.8,0.1-1.1
			c0-0.2,0-0.4,0.1-0.6c0-0.3,0.1-0.6,0.2-0.8c0-0.2,0.1-0.3,0.1-0.5c0-0.2,0.1-0.4,0.2-0.6c0.1-0.2,0.1-0.5,0.2-0.7
			c0.3-0.9,0.8-1.9,1.3-2.7c0.1-0.2,0.2-0.3,0.3-0.5c0.1-0.2,0.2-0.3,0.3-0.4c0.1-0.2,0.3-0.4,0.5-0.6c0.1-0.1,0.2-0.3,0.3-0.4
			c0.1-0.2,0.3-0.3,0.4-0.5c0.5-0.5,1-1.1,1.6-1.5c0.4-0.3,0.8-0.6,1.2-0.9c0.2-0.1,0.4-0.3,0.6-0.4c0.2-0.1,0.4-0.2,0.7-0.4
			c0,0,0,0,0,0c0.4-0.2,0.9-0.4,1.3-0.6c0.1,0,0.2-0.1,0.3-0.1c0.2-0.1,0.3-0.1,0.5-0.2h0v0c0.2-0.1,0.5-0.2,0.7-0.2c0,0,0,0,0,0
			c0.2-0.1,0.4-0.1,0.5-0.2c0.1,0,0.1,0,0.2,0c0.1,0,0.2-0.1,0.4-0.1c0,0,0,0,0,0c0.1,0,0.2,0,0.3-0.1c0,0,0,0,0,0
			c0.1,0,0.1,0,0.2,0c0.2,0,0.4-0.1,0.6-0.1c0.2,0,0.4-0.1,0.6-0.1c0.1,0,0.1,0,0.2,0c0.1,0,0.3,0,0.4,0c0.1,0,0.2,0,0.4,0
			c0.3,0,0.5,0,0.8,0h2.1v-0.1h0c0.8,0,1.5-0.1,2.3-0.1c0.2,0,0.4,0,0.6,0c0.1,0,0.2,0,0.4,0c0.2,0,0.3,0,0.5,0c0.1,0,0.1,0,0.2,0
			c3.6-0.3,7.2-0.7,10.8-1.2c0.2,0,0.3,0,0.5-0.1c0,0,0,0,0.1,0c0.2,0,0.4-0.1,0.7-0.1c0,0,0.1,0,0.1,0c0.5-0.1,0.9-0.1,1.4-0.2
			c0.1,0,0.2,0,0.3-0.1c0.2,0,0.4-0.1,0.6-0.1c0,0,0.1,0,0.1,0h0c0.1,0,0.2,0,0.3,0c0.1,0,0.1,0,0.1,0c0.1,0,0.2,0,0.3,0
			c0.4-0.1,0.8-0.1,1.2-0.2c0.2,0,0.4-0.1,0.6-0.1c1.2-0.2,2.5-0.5,3.7-0.7c0.1,0,0.2-0.1,0.4-0.1c0.1,0,0.2,0,0.3-0.1
			c0,0,0.1,0,0.1,0c0.7-0.1,1.4-0.3,2.1-0.4c0.7-0.2,1.4-0.3,2.1-0.5c0.1,0,0.2-0.1,0.3-0.1h0v0h0c1.4-0.3,2.8-0.7,4.2-1
			c0.8-0.2,1.5-0.4,2.2-0.6c0.7-2,1.4-3.9,2.1-5.8c1.5-4.1,3.1-8.1,4.8-12c22.5-52.1,60.3-90.8,105.1-105c-0.8-0.2-1.5-0.5-2.3-0.7
			c-0.8-0.2-1.5-0.4-2.3-0.7c-3.2-0.9-6.5-1.7-9.8-2.3c-0.5-0.1-1-0.2-1.5-0.3c-0.2,0-0.4-0.1-0.7-0.1c-0.7-0.1-1.3-0.2-2-0.3
			c-2.2-0.4-4.5-0.6-6.8-0.9c-0.5-0.1-1-0.1-1.5-0.1c-1-0.1-2-0.2-3-0.2c-0.4,0-0.9-0.1-1.4-0.1c-0.6,0-1.3-0.1-2-0.1
			c-0.5,0-1.1,0-1.7,0c-0.4,0-0.7,0-1.1,0c-0.7,0-1.4,0-2.1,0C146.6,11,76.3,97.9,67.5,209.4c-0.6,7.8-0.9,15.6-0.9,23.6
			c0,25.8,3.3,50.6,9.3,73.7c0.6,2.2,3.2,2.6,4.5,1.3c0.3-0.3,0.5-0.6,0.7-1.1c0-0.2,0.1-0.3,0.1-0.5c1.1-8.6,2.5-17.1,4-25
			c0.6-3.2,3.6-4.2,6-3.4c0.4,0.1,0.8,0.3,1.1,0.6c1,0.7,1.7,1.9,1.8,3.5c0.3,10.9,0.8,23.2,1.9,35.5c0.5,5.4,1,10.9,1.7,16.2
			c0,0.3,0.1,0.6,0.1,0.9c2.6,20.3,7,39.1,14,50.7c0.3,0.6,0.7,1.1,1,1.6c3,4.3,6.2,8.4,9.5,12.3c4.5,5.4,9.3,10.4,14.2,15.1
			c4,3.8,8,7.3,12.2,10.6c13.3,10.4,27.8,18.4,43.1,23.5c0.1,0,0.2,0.1,0.4,0.1c3.1,1,6.2,1.9,9.3,2.7c0.1,0,0.2,0,0.2,0.1
			c9.8,2.4,19.8,3.7,30.1,3.7c0.8,0,1.5,0,2.2,0c0.4,0,0.8,0,1.2,0c0.5,0,1,0,1.5-0.1c0.6,0,1.3-0.1,1.9-0.1c0.6,0,1.2-0.1,1.8-0.1
			c0.2,0,0.3,0,0.5,0c0.7-0.1,1.4-0.1,2-0.2c0.6-0.1,1.2-0.1,1.7-0.2c0.4,0,0.7-0.1,1.1-0.1c0.4,0,0.8-0.1,1.2-0.1
			c0.6-0.1,1.2-0.1,1.8-0.2c0.8-0.1,1.6-0.2,2.4-0.4c0.7-0.1,1.4-0.2,2.1-0.3c0.3-0.1,0.6-0.1,0.9-0.2c0.7-0.1,1.4-0.3,2.1-0.4
			c2.2-0.4,4.5-1,6.7-1.5c0.8-0.2,1.5-0.4,2.3-0.6c0.8-0.2,1.5-0.4,2.3-0.7c0.8-0.2,1.5-0.5,2.3-0.7c-14-4.5-27.4-11.3-39.8-20.2
			C220.1,421.6,210.6,413,201.9,403.1z"/>
		<path id="XMLID_2350_" class="st20" d="M369.6,360.3v125.1c-11.7,5.8-24,10.8-36.7,14.8c-2.1,0.7-4.2,1.3-6.4,1.9
			c-5.4,1.6-10.9,2.9-16.5,4.1c-0.7,0.1-1.3,0.3-2,0.4c-16.8,3.5-34.2,5.3-52.1,5.3h-0.3c-18.5,0-36.5-2-53.8-5.7
			c-18.5-4-36.3-10-53.1-17.7c-5.6-2.6-11.1-5.4-16.5-8.3c-3.4-1.9-6.7-3.8-10-5.8c-11.2-6.9-21.9-14.6-31.9-23.1
			c-0.2-0.2-0.5-0.4-0.7-0.6v-90.4c0-9.8,2.9-19,7.8-26.6c3.8-5.9,8.9-10.9,14.8-14.7c7.6-4.9,16.7-7.7,26.4-7.7h181.6
			c17.7,0,33.2,9.3,41.8,23.3c1.2,2,2.4,4.2,3.3,6.4C368.2,346.9,369.6,353.4,369.6,360.3z"/>
		<path id="XMLID_2021_" class="st21" d="M171.5,311.2c-3.9,0-7.6,0.4-11.2,1.3c0,0,0,0,0,0c-8,1.9-15.2,5.7-21.1,10.9c0,0,0,0,0,0
			c-10.2,9-16.7,22.2-16.7,36.9v114.1c-11.2-6.9-21.9-14.6-31.9-23.1v-91c0-9.4,2.7-18.2,7.3-25.7c3.9-6.3,9.1-11.6,15.3-15.6
			c7.7-4.9,16.8-7.8,26.5-7.8H171.5z"/>
		<path id="XMLID_1978_" class="st21" d="M148.8,421.5v67c-5.6-2.6-11.1-5.4-16.5-8.3v-58.7c0-3.1,1.7-5.8,4.2-7.2
			c1.2-0.7,2.5-1,4-1c2.3,0,4.3,0.9,5.8,2.4S148.8,419.3,148.8,421.5z"/>
		<path id="XMLID_1977_" class="st21" d="M326.5,421.5v80.6c-5.4,1.6-10.9,2.9-16.5,4.1v-84.7c0-4.6,3.7-8.2,8.2-8.2
			c2.3,0,4.3,0.9,5.8,2.4c0.3,0.3,0.6,0.6,0.8,1C326,418,326.5,419.7,326.5,421.5z"/>
		<path id="XMLID_2270_" class="st20" d="M348,145.8h-2.6c-28.2-18.3-48.9-53.8-60-76.5c-37.6,31-99.5,72.7-163.7,76.4v0.1h-2.1
			c-8.5,0-15.5,6.9-15.5,15.5V176c0,8.5,6.9,15.5,15.5,15.5h2.8c1.2,10.5,3.8,20.5,7.7,29.9c0,0,0,0,0,0c0.3,0.8,0.6,1.5,1,2.3
			c0,0,0,0.1,0,0.1c0.3,0.7,0.7,1.5,1,2.2c0,0,0,0.1,0.1,0.1c0.3,0.7,0.7,1.4,1,2.2c0,0,0,0.1,0.1,0.1c0.4,0.7,0.7,1.4,1.1,2.1
			c0,0,0,0.1,0,0.1c2.7,5.2,5.8,10.1,9.2,14.7c0,0,0.1,0.1,0.1,0.1c0.4,0.6,0.8,1.1,1.3,1.7c0.1,0.1,0.2,0.3,0.3,0.4
			c0.4,0.5,0.8,1,1.2,1.5c0.1,0.2,0.3,0.4,0.4,0.5c0.4,0.5,0.8,0.9,1.1,1.4c0.2,0.2,0.3,0.4,0.5,0.6c0.4,0.4,0.7,0.9,1.1,1.3
			c0.2,0.2,0.4,0.4,0.6,0.7c0.4,0.4,0.7,0.8,1.1,1.2c0.2,0.2,0.4,0.5,0.6,0.7c0.4,0.4,0.7,0.8,1.1,1.2c0.2,0.2,0.4,0.5,0.7,0.7
			c0.4,0.4,0.7,0.8,1.1,1.1c0.2,0.2,0.5,0.5,0.7,0.7c0.4,0.4,0.8,0.7,1.1,1.1c0.2,0.2,0.5,0.4,0.7,0.7c0.4,0.4,0.8,0.7,1.2,1.1
			c0.2,0.2,0.5,0.4,0.7,0.6c0.4,0.4,0.8,0.7,1.2,1.1c0.2,0.2,0.4,0.4,0.6,0.5c0.4,0.4,0.9,0.7,1.3,1.1c0.1,0.1,0.1,0.1,0.2,0.2
			c1.1,0.9,2.2,1.8,3.4,2.6c0.1,0.1,0.3,0.2,0.4,0.3c0.4,0.3,0.9,0.6,1.3,0.9c0.3,0.2,0.5,0.4,0.8,0.6c0.4,0.3,0.8,0.6,1.2,0.8
			c0.3,0.2,0.6,0.4,0.9,0.6c0.4,0.3,0.8,0.5,1.2,0.8c0.3,0.2,0.6,0.4,1,0.6c0.4,0.3,0.8,0.5,1.2,0.8c0.3,0.2,0.7,0.4,1,0.6
			c0.4,0.2,0.8,0.5,1.2,0.7c0.3,0.2,0.7,0.4,1,0.6c0.4,0.2,0.8,0.5,1.2,0.7c0.3,0.2,0.7,0.4,1,0.6c0.4,0.2,0.8,0.5,1.2,0.7
			c0.3,0.2,0.7,0.4,1.1,0.6c0.4,0.2,0.8,0.4,1.3,0.7c0.4,0.2,0.7,0.4,1.1,0.5c0.4,0.2,0.9,0.4,1.3,0.6c0.4,0.2,0.7,0.3,1.1,0.5
			c0.4,0.2,0.9,0.4,1.3,0.6c0.3,0.2,0.7,0.3,1,0.5c0.5,0.2,0.9,0.4,1.4,0.6c0.3,0.1,0.7,0.3,1,0.4c0.5,0.2,1,0.4,1.5,0.6
			c0.3,0.1,0.5,0.2,0.8,0.3c1.9,0.7,3.9,1.4,5.9,2.1c0.2,0.1,0.4,0.1,0.7,0.2c0.5,0.2,1.1,0.3,1.6,0.5c0.3,0.1,0.6,0.2,0.9,0.3
			c0.5,0.2,1.1,0.3,1.6,0.4c0.3,0.1,0.7,0.2,1,0.3c0.5,0.1,1,0.3,1.6,0.4c0.3,0.1,0.7,0.2,1,0.2c0.5,0.1,1,0.2,1.6,0.4
			c0.3,0.1,0.7,0.2,1,0.2c0.5,0.1,1.1,0.2,1.6,0.3c0.3,0.1,0.7,0.1,1.1,0.2c0.5,0.1,1.1,0.2,1.6,0.3c0.4,0.1,0.7,0.1,1.1,0.2
			c0.5,0.1,1.1,0.2,1.6,0.2c0.3,0.1,0.7,0.1,1,0.1c0.5,0.1,1.1,0.1,1.6,0.2c0.3,0,0.7,0.1,1,0.1c0.6,0.1,1.1,0.1,1.7,0.2
			c0.3,0,0.7,0.1,1,0.1c0.6,0.1,1.2,0.1,1.7,0.1c0.3,0,0.6,0,0.9,0.1c0.6,0,1.2,0.1,1.8,0.1c0.2,0,0.5,0,0.7,0
			c1.6,0.1,3.1,0.1,4.7,0.1c1.7,0,3.4,0,5.1-0.1c0,0,0,0,0,0c1.6-0.1,3.3-0.2,4.9-0.3c0.1,0,0.1,0,0.2,0c1.6-0.1,3.2-0.3,4.7-0.5
			c0.1,0,0.2,0,0.3,0c1.6-0.2,3.1-0.5,4.7-0.7c0,0,0.1,0,0.1,0c0,0,0,0,0,0c20.9-3.8,39.7-13.3,54.8-26.9
			c19.8-17.8,33.2-42.7,36.4-70.6h3.3c8.5,0,15.5-6.9,15.5-15.5v-14.8C363.5,152.7,356.5,145.8,348,145.8z"/>
		<path id="XMLID_2269_" class="st21" d="M267.7,285.5c-4.6,1.5-9.3,2.7-14.2,3.5c0,0-0.1,0-0.1,0c-1.5,0.3-3.1,0.5-4.7,0.7
			c-0.1,0-0.2,0-0.2,0c-1.6,0.2-3.2,0.4-4.7,0.5c-0.1,0-0.1,0-0.2,0c-1.6,0.1-3.2,0.2-4.9,0.3h0c-1.7,0.1-3.4,0.1-5.1,0.1
			c-1.6,0-3.2,0-4.7-0.1c-0.2,0-0.5,0-0.7,0c-0.6,0-1.2-0.1-1.8-0.1c-0.3,0-0.6,0-0.9-0.1c-0.6,0-1.2-0.1-1.7-0.1
			c-0.3,0-0.7-0.1-1-0.1c-0.6-0.1-1.1-0.1-1.7-0.2c-0.3,0-0.7-0.1-1-0.1c-0.5-0.1-1.1-0.1-1.6-0.2c-0.4-0.1-0.7-0.1-1-0.2
			c-0.5-0.1-1.1-0.2-1.6-0.2c-0.4-0.1-0.7-0.1-1.1-0.2c-0.5-0.1-1.1-0.2-1.6-0.3c-0.4-0.1-0.7-0.1-1.1-0.2c-0.5-0.1-1.1-0.2-1.6-0.3
			l-1-0.2c-0.5-0.1-1.1-0.2-1.6-0.4c-0.3-0.1-0.7-0.2-1-0.3c-0.5-0.1-1-0.3-1.6-0.4c-0.3-0.1-0.6-0.2-1-0.3
			c-0.5-0.1-1.1-0.3-1.6-0.4c-0.3-0.1-0.6-0.2-0.9-0.3c-0.5-0.2-1.1-0.3-1.6-0.5c-0.2-0.1-0.5-0.1-0.7-0.2c-2-0.6-3.9-1.3-5.9-2.1
			c-0.2-0.1-0.5-0.2-0.8-0.3c-0.5-0.2-1-0.4-1.5-0.6c-0.3-0.1-0.7-0.3-1-0.4c-0.5-0.2-0.9-0.4-1.4-0.6c-0.3-0.2-0.7-0.3-1-0.5
			c-0.4-0.2-0.9-0.4-1.3-0.6c-0.4-0.2-0.7-0.3-1.1-0.5c-0.4-0.2-0.9-0.4-1.3-0.6c-0.3-0.2-0.7-0.3-1.1-0.5c-0.4-0.2-0.8-0.4-1.3-0.7
			c-0.4-0.2-0.7-0.4-1.1-0.5c-0.4-0.2-0.8-0.5-1.2-0.7c-0.4-0.2-0.7-0.4-1-0.6c-0.4-0.2-0.8-0.5-1.2-0.7c-0.3-0.2-0.7-0.4-1-0.6
			c-0.4-0.2-0.8-0.5-1.2-0.7c-0.3-0.2-0.7-0.4-1-0.6c-0.4-0.3-0.8-0.5-1.2-0.8c-0.3-0.2-0.7-0.4-1-0.6c-0.4-0.3-0.8-0.5-1.2-0.8
			c-0.3-0.2-0.6-0.4-0.9-0.6c-0.4-0.3-0.8-0.6-1.2-0.8c-0.3-0.2-0.5-0.4-0.8-0.6c-0.4-0.3-0.9-0.6-1.3-0.9c-0.1-0.1-0.3-0.2-0.4-0.3
			c-1.1-0.9-2.3-1.7-3.4-2.6c-0.1-0.1-0.1-0.1-0.2-0.2c-0.5-0.4-0.9-0.7-1.3-1.1c-0.2-0.2-0.4-0.4-0.6-0.5c-0.4-0.4-0.8-0.7-1.2-1.1
			c-0.2-0.2-0.5-0.4-0.7-0.6c-0.4-0.4-0.8-0.7-1.2-1.1c-0.2-0.2-0.5-0.4-0.7-0.7c-0.4-0.4-0.8-0.7-1.1-1.1c-0.2-0.2-0.5-0.5-0.7-0.7
			c-0.4-0.4-0.8-0.8-1.1-1.1c-0.2-0.2-0.5-0.5-0.7-0.7c-0.4-0.4-0.8-0.8-1.1-1.2c-0.2-0.2-0.4-0.5-0.6-0.7c-0.4-0.4-0.7-0.8-1.1-1.2
			c-0.2-0.2-0.4-0.4-0.6-0.7c-0.4-0.4-0.8-0.9-1.1-1.3c-0.2-0.2-0.4-0.4-0.5-0.6c-0.4-0.5-0.8-0.9-1.1-1.4c-0.2-0.2-0.3-0.4-0.4-0.5
			c-0.4-0.5-0.8-1-1.2-1.5c-0.1-0.1-0.2-0.3-0.3-0.4c-0.4-0.6-0.8-1.1-1.3-1.7c0,0-0.1-0.1-0.1-0.1c-3.4-4.6-6.5-9.6-9.2-14.7
			c0,0,0-0.1,0-0.1c-0.4-0.7-0.7-1.4-1.1-2.1c0,0,0-0.1-0.1-0.1c-0.4-0.7-0.7-1.4-1-2.2c0,0,0-0.1-0.1-0.1c-0.3-0.7-0.7-1.5-1-2.2
			c0,0,0-0.1,0-0.1c-0.3-0.8-0.7-1.5-1-2.3c-3.9-9.4-6.5-19.4-7.7-29.9h-2.8c-8.5,0-15.5-6.9-15.5-15.5v-14.8
			c0-8.5,6.9-15.5,15.5-15.5h2.1v-0.1c10.5-0.6,21-2.2,31.3-4.7C155.5,219.6,205.5,282.7,267.7,285.5z"/>
		<path id="XMLID_2314_" class="st6" d="M310.1,399.8v106.4c-0.7,0.1-1.3,0.3-2,0.4c-16.8,3.5-34.2,5.3-52.1,5.3h-0.3
			c-18.5,0-36.5-2-53.8-5.7c-18.5-4-36.3-10-53.1-17.7v-88.7c0-5.1,4.1-9.2,9.2-9.2h2.3v-78c0,0,0-0.1,0-0.1c0-0.2,0-0.4,0-0.7
			c0-0.2,0-0.4,0.1-0.6c0.2-1,0.6-1.9,1.2-2.7c0.1-0.1,0.2-0.2,0.3-0.3c1.3-1.6,3.3-2.6,5.5-2.6h9.8c3.4,0,6.3,2.4,6.9,5.6
			c0.1,0.5,0.1,0.9,0.1,1.4v43.2c0,0.5,0,1,0,1.5c0,0.1,0,0.2,0,0.3c0,0.5,0,0.9,0.1,1.4c0,0.5,0.1,1,0.2,1.6
			c0.1,0.5,0.1,0.9,0.2,1.4c0.1,0.6,0.2,1.1,0.3,1.7c0.1,0.4,0.2,0.8,0.3,1.3c0,0.1,0.1,0.3,0.1,0.5c0.1,0.4,0.2,0.8,0.4,1.2
			c0,0.1,0.1,0.2,0.1,0.3c0.1,0.4,0.3,0.8,0.4,1.1c0.2,0.5,0.4,1,0.6,1.4c0.2,0.5,0.4,0.9,0.6,1.4c0.4,0.9,0.9,1.8,1.4,2.7
			c0.2,0.3,0.4,0.7,0.6,1c0.3,0.5,0.7,1,1,1.5c0.6,0.8,1.2,1.6,1.8,2.3c0,0.1,0.1,0.1,0.1,0.1c0.2,0.3,0.5,0.6,0.8,0.9
			c0.1,0.1,0.2,0.3,0.3,0.4c0.3,0.3,0.5,0.6,0.8,0.8c0.4,0.4,0.7,0.7,1.1,1c0.4,0.3,0.8,0.7,1.1,1c0.8,0.6,1.6,1.2,2.4,1.8
			c0.4,0.3,0.8,0.5,1.2,0.8c0,0,0.1,0.1,0.2,0.1c0.4,0.2,0.8,0.5,1.2,0.7c0.4,0.2,0.9,0.5,1.3,0.7c0.4,0.2,0.9,0.4,1.4,0.7
			c0,0,0.1,0,0.2,0.1c0.4,0.2,0.8,0.4,1.2,0.5c0.5,0.2,1,0.4,1.4,0.5c0.5,0.2,1.1,0.4,1.7,0.6c0.9,0.3,1.8,0.5,2.8,0.7
			c0.5,0.1,1,0.2,1.5,0.3c1.8,0.3,3.7,0.5,5.6,0.5h23.2c6.8,0,13.2-2,18.6-5.4c6.4-4.1,11.4-10.2,14.1-17.4c1.4-3.7,2.1-7.8,2.1-12
			v-43.2c0-0.5,0-1,0.1-1.4c0.7-3.2,3.5-5.6,6.9-5.6h9.8c3.4,0,6.3,2.4,6.9,5.6c0.1,0.5,0.1,0.9,0.1,1.4v78
			C306,390.7,310.1,394.8,310.1,399.8z"/>
		<path id="XMLID_2331_" class="st308" d="M213.3,390.2v0.5H211c-5.1,0-9.2,4.1-9.2,9.2v106.4c-18.5-4-36.3-10-53.1-17.7v-88.7
			c0-5.1,4.1-9.2,9.2-9.2h2.3v-78c0,0,0-0.1,0-0.1c0-0.4,0-0.9,0.1-1.3c0.2-1.1,0.8-2.2,1.5-3.1c1.3-1.6,3.3-2.6,5.5-2.6h9.8
			c3.4,0,6.3,2.4,6.9,5.6c0.1,0.5,0.1,0.9,0.1,1.4v43.2c0,0.5,0,1,0,1.5c0,0.1,0,0.2,0,0.3c0,0.5,0,0.9,0.1,1.4c0,0.5,0.1,1,0.2,1.6
			c0.1,0.5,0.1,0.9,0.2,1.4c0.1,0.6,0.2,1.1,0.3,1.7c0.1,0.4,0.2,0.8,0.3,1.3c0,0.1,0.1,0.3,0.1,0.5c0.1,0.4,0.2,0.8,0.4,1.2
			c0,0.1,0.1,0.2,0.1,0.3c0.1,0.4,0.3,0.8,0.4,1.1c0.2,0.5,0.4,1,0.6,1.4c0.2,0.5,0.4,0.9,0.6,1.4c0.4,0.9,0.9,1.8,1.4,2.7
			c0.2,0.3,0.4,0.7,0.6,1c0.3,0.5,0.7,1,1,1.5c0.6,0.8,1.2,1.6,1.8,2.3c0,0.1,0.1,0.1,0.1,0.1c0.2,0.3,0.5,0.6,0.8,0.9
			c0.1,0.1,0.2,0.3,0.3,0.4c0.3,0.3,0.5,0.6,0.8,0.8c0.4,0.4,0.7,0.7,1.1,1c0.4,0.3,0.8,0.7,1.1,1c0.8,0.6,1.6,1.2,2.4,1.8
			c0.4,0.3,0.8,0.5,1.2,0.8c0,0,0.1,0.1,0.2,0.1c0.4,0.2,0.8,0.5,1.2,0.7c0.4,0.2,0.9,0.5,1.3,0.7c0.4,0.2,0.9,0.4,1.4,0.7
			c0,0,0.1,0,0.2,0.1c0.4,0.2,0.8,0.4,1.2,0.5c0.5,0.2,1,0.4,1.4,0.5c0.5,0.2,1.1,0.4,1.7,0.6c0.9,0.3,1.8,0.5,2.8,0.7
			C212.3,390,212.8,390.1,213.3,390.2z"/>
		<path id="XMLID_2305_" class="st16" d="M308.1,506.7c-16.8,3.5-34.2,5.3-52.1,5.3h-0.3l-53.8-53.9l-0.2-0.2l-9.3-9.3l-43.5-43.5
			v-5.2c0-5.1,4.1-9.2,9.2-9.2h2.3v-31.8l41.7,41.6l28.4,28.4l24.1,24.1L308.1,506.7z"/>
		<path id="XMLID_2264_" class="st276" d="M201.6,400.5v57.6l-53.1-53.1v-5.2c0-0.8,0.1-1.6,0.3-2.3c0.1-0.3,0.2-0.6,0.3-0.9
			c0-0.1,0.1-0.3,0.2-0.4c0.1-0.3,0.2-0.5,0.4-0.8c0.2-0.3,0.3-0.5,0.5-0.8c0.3-0.5,0.7-1,1.1-1.4c1.7-1.7,3.9-2.7,6.5-2.7h2.3
			v-31.8l0,0L201.6,400.5z"/>
		<path id="XMLID_2262_" class="st21" d="M236.8,203.3H223c-4.6,0-8.3-3.7-8.3-8.3v0c0-4.6,3.7-8.3,8.3-8.3h13.8
			c4.6,0,8.3,3.7,8.3,8.3v0C245.1,199.6,241.4,203.3,236.8,203.3z"/>
		<path id="XMLID_2261_" class="st71" d="M212.7,224.4c0,9.5,7.7,17.2,17.2,17.2s17.2-7.7,17.2-17.2"/>
		<line id="XMLID_2260_" class="st71" x1="219.4" y1="257" x2="240.4" y2="257"/>
		<path id="XMLID_2244_" class="st16" d="M288.9,120.6c-19.2,0-35.1,13.8-38.5,32h-36.9c-3.4-18.2-19.3-32-38.5-32
			c-21.6,0-39.2,17.5-39.2,39.2c0,21.6,17.5,39.2,39.2,39.2c18.7,0,34.3-13.1,38.2-30.6h37.5c3.9,17.5,19.5,30.6,38.2,30.6
			c21.6,0,39.2-17.5,39.2-39.2C328.1,138.1,310.6,120.6,288.9,120.6z"/>
		<path id="XMLID_2240_" class="st23" d="M204.9,159.7c0,4.5-1,8.7-2.7,12.5c-4.7,10.3-15.1,17.4-27.1,17.4
			c-16.5,0-29.8-13.4-29.8-29.8c0-16.5,13.4-29.8,29.8-29.8c4,0,7.8,0.8,11.2,2.2c3,1.2,5.7,2.9,8.1,5c5.1,4.4,8.8,10.5,10,17.5
			C204.8,156.2,204.9,157.9,204.9,159.7z"/>
		<path id="XMLID_2234_" class="st23" d="M318.8,159.7c0,4.5-1,8.7-2.7,12.5c-4.7,10.3-15.1,17.4-27.1,17.4
			c-16.5,0-29.8-13.4-29.8-29.8c0-16.5,13.4-29.8,29.8-29.8c4,0,7.8,0.8,11.2,2.2c3,1.2,5.7,2.9,8.1,5c5.1,4.4,8.8,10.5,10,17.5
			C318.6,156.2,318.8,157.9,318.8,159.7z"/>
		<path id="XMLID_2218_" class="st309" d="M184.2,188.1c-2.9,0.9-5.9,1.4-9.1,1.4c-16.5,0-29.8-13.4-29.8-29.8
			c0-16.5,13.4-29.8,29.8-29.8c3.2,0,6.3,0.5,9.1,1.4c-12,3.8-20.7,15.1-20.7,28.4C163.5,173,172.2,184.3,184.2,188.1z"/>
		<path id="XMLID_2217_" class="st310" d="M204.5,154.5c-4.5,0-9.1-1.7-12.7-5c-4.9-4.6-6.8-11.3-5.5-17.4c3,1.2,5.7,2.9,8.1,5
			C199.6,141.4,203.2,147.6,204.5,154.5z"/>
		<path id="XMLID_1919_" class="st309" d="M298.1,188.1c-2.9,0.9-5.9,1.4-9.1,1.4c-16.5,0-29.8-13.4-29.8-29.8
			c0-16.5,13.4-29.8,29.8-29.8c3.2,0,6.3,0.5,9.1,1.4c-12,3.8-20.7,15.1-20.7,28.4C277.3,173,286,184.3,298.1,188.1z"/>
		<path id="XMLID_1918_" class="st310" d="M318.3,154.5c-4.5,0-9.1-1.7-12.7-5c-4.9-4.6-6.8-11.3-5.5-17.4c3,1.2,5.7,2.9,8.1,5
			C313.5,141.4,317.1,147.6,318.3,154.5z"/>
		<path id="XMLID_2306_" class="st20" d="M446,382.3l-1.2,3l-0.2,0.4l-9.2,22.2l-20.1,48.5c-14.1,11.2-29.4,21-45.7,29.1
			c-11.7,5.8-24,10.8-36.7,14.8l36.7-88.7l10.9-26.3l7.8-18.9l2.8-6.8l5.3,2.2h0l1.3,0.5l0.1,0l9.9,4.1l30.8,12.7L446,382.3z"/>
		<g id="XMLID_1911_">
			<path id="XMLID_1916_" class="st160" d="M433.5,408H402c-7,0-12.7-5.5-12.9-12.5l-3.4-116.4c-0.1-4.1,3.2-7.6,7.4-7.6h49.2
				c4.2,0,7.5,3.4,7.4,7.6l-3.4,116.4C446.1,402.5,440.4,408,433.5,408z"/>
			<path id="XMLID_1915_" class="st161" d="M421.4,408H402c-7,0-12.7-5.5-12.9-12.5l-3.4-116.4c-0.1-4.1,3.2-7.6,7.4-7.6h19.4
				c-4.1,0-7.5,3.4-7.4,7.6l0.7,24.6l2.7,91.9c0,0.4,0,0.7,0.1,1.1C409.4,403.1,414.8,408,421.4,408z"/>
			<path id="XMLID_1914_" class="st9" d="M419.2,332.2L419.2,332.2c-2.7,0-4.8-2.2-4.8-4.8V219.2c0-2.7,2.2-4.8,4.8-4.8h0
				c2.7,0,4.8,2.2,4.8,4.8v108.1C424.1,330,421.9,332.2,419.2,332.2z"/>
			<path id="XMLID_1913_" class="st8" d="M429,396.6h-22.5c-5,0-9.1-3.8-9.2-8.5l-2.4-79.3c-0.1-2.8,2.3-5.2,5.3-5.2h35.2
				c3,0,5.4,2.3,5.3,5.2l-2.4,79.3C438.1,392.8,434,396.6,429,396.6z"/>
			<path id="XMLID_1969_" class="st162" d="M408.7,396.6h-2.2c-5,0-9.1-3.8-9.2-8.5l-2.4-79.3c-0.1-2.8,2.3-5.2,5.3-5.2h5.8
				l2.7,91.9C408.6,395.9,408.6,396.3,408.7,396.6z"/>
		</g>
		<path id="XMLID_1970_" class="st20" d="M460.3,385.3h-35c-15.4,0-27.9-12.5-27.9-27.9v0c0-15.4,12.5-27.9,27.9-27.9h35
			c7.3,0,13.1,5.9,13.1,13.1v29.5C473.4,379.4,467.6,385.3,460.3,385.3z"/>
		<path id="XMLID_1971_" class="st21" d="M473.4,357.2v15.4c0,7.3-5.9,13.1-13.1,13.1h-35c-15.4,0-27.9-12.5-27.9-27.9
			c0-2.7,0.4-5.2,1.1-7.7c3.3,11.7,14.1,20.2,26.8,20.2h35C467.6,370.4,473.4,364.5,473.4,357.2z"/>
		<path id="XMLID_3840_" class="st311" d="M313.6,49c8.8,4.4,21.2,13.1,28.3,29.5c1.6,3.6-2.2,7.3-5.7,5.6v0
			c-2.3-1.1-4.7,1.3-3.7,3.6c1.5,3.4,3.3,7.7,4.9,12.1c1.6,4.5-4.2,7.8-7.3,4.2c-8.2-9.6-20.4-20.8-33.1-22.4
			c-1.4-0.2-2.2-1.8-1.4-3c1.8-2.9,5.4-7.3,11.1-8.9c5.1-1.4,8.4-6.5,7.3-11.6c-0.4-2-1.3-4.1-2.8-6.3C310,50.3,311.8,48.1,313.6,49
			z"/>
	</g>
</g>
</svg>
