<?xml version="1.0" encoding="utf-8"?>
<!-- Generator: Adobe Illustrator 22.0.1, SVG Export Plug-In . SVG Version: 6.00 Build 0)  -->
<svg version="1.1" xmlns="http://www.w3.org/2000/svg" xmlns:xlink="http://www.w3.org/1999/xlink" x="0px" y="0px"
	 viewBox="0 0 512 512" style="enable-background:new 0 0 512 512;" xml:space="preserve">
<style type="text/css">
	.st0{fill:#E9B12D;}
	.st1{fill:#A9E7D8;}
	.st2{fill:#76CFB1;}
	.st3{fill:#AE6B5D;}
	.st4{fill:#7770D3;}
	.st5{fill:#5BA0F5;}
	.st6{fill:#DA4545;}
	.st7{fill:#89CCFC;}
	.st8{fill:#CD462A;}
	.st9{fill:#514896;}
	.st10{fill:#5493A0;}
	.st11{fill:#CC6B5C;}
	.st12{fill:#62AA8D;}
	.st13{fill:#8ABAAB;}
	.st14{fill:#C3791F;}
	.st15{fill:#E39123;}
	.st16{fill:#FFFFFF;}
	.st17{fill:none;stroke:#FFFFFF;stroke-width:10;stroke-linecap:round;stroke-miterlimit:10;}
	.st18{fill:none;stroke:#5F55AB;stroke-width:10;stroke-linecap:round;stroke-miterlimit:10;}
	.st19{fill:#A9671C;}
	.st20{fill:#D5B3A7;}
	.st21{fill:#C09A8F;}
	.st22{fill:#487F87;}
	.st23{fill:#1B305C;}
	.st24{fill:#172945;}
	.st25{fill:none;}
	.st26{fill:#B62A2A;}
	.st27{fill:#325859;}
	.st28{fill:#3F6E71;}
	.st29{fill:#284646;}
	.st30{fill:#8F2727;}
	.st31{fill:#29477C;}
	.st32{fill:#5B9BEE;}
	.st33{fill:#487FDE;}
	.st34{fill:#CD9829;}
	.st35{fill:#9F2A2A;}
	.st36{fill:#4C3328;}
	.st37{fill:#E8B94A;}
	.st38{fill:#DDF8F1;}
	.st39{fill:#3E2A22;}
	.st40{fill:#D3A971;}
	.st41{fill:#C79A5B;}
	.st42{fill:#233E76;}
	.st43{fill:#21395F;}
	.st44{fill:#487D82;}
	.st45{fill:none;stroke:#C79A5B;stroke-width:10;stroke-linecap:round;stroke-miterlimit:10;}
	.st46{fill:#5E3E31;}
	.st47{fill:#AC3939;}
	.st48{fill:#CA9628;}
	.st49{fill:#AF8F88;}
	.st50{fill:#815048;}
	.st51{fill:#6F4232;}
	.st52{fill:#5F55AB;}
	.st53{fill:#192A48;}
	.st54{fill:#152336;}
	.st55{fill:#192B49;}
	.st56{fill:#264173;}
	.st57{fill:#B06F1E;}
	.st58{fill:#4E88C0;}
	.st59{fill:#83C3F1;}
	.st60{fill:#CF9929;}
	.st61{fill:none;stroke:#FFFFFF;stroke-width:10;stroke-linecap:round;stroke-linejoin:round;stroke-miterlimit:10;}
	.st62{fill:#EAC262;}
	.st63{fill:#D6D5D4;}
	.st64{fill:#6BBA9B;}
	.st65{fill:#63AA8F;}
	.st66{fill:none;stroke:#3E2A22;stroke-width:10;stroke-linecap:round;stroke-miterlimit:10;}
	.st67{fill:#CA7D1F;}
	.st68{fill:#213B64;}
	.st69{fill:#CDF8EC;}
	.st70{fill:#C59125;}
	.st71{fill:none;stroke:#C09A8F;stroke-width:10;stroke-linecap:round;stroke-miterlimit:10;}
	.st72{fill:#32579B;}
	.st73{fill:#172843;}
	.st74{fill:#D66767;}
	.st75{fill:#A74949;}
	.st76{fill:#EBC76F;}
	.st77{fill:#7A4940;}
	.st78{fill:#182A48;}
	.st79{fill:none;stroke:#A0794A;stroke-width:10;stroke-linecap:round;stroke-miterlimit:10;}
	.st80{fill:#C37A20;}
	.st81{fill:#D26D5C;}
	.st82{fill:#A45752;}
	.st83{fill:#284579;}
	.st84{fill:#88C7F4;}
	.st85{fill:#6EB6F0;}
	.st86{fill:#32221E;}
	.st87{fill:#E7A6A6;}
	.st88{fill:#C59191;}
	.st89{fill:#AA3B3B;}
	.st90{fill:#B83E3E;}
	.st91{fill:none;stroke:#5F55A9;stroke-width:10;stroke-linecap:round;stroke-miterlimit:10;}
	.st92{fill:#963838;}
	.st93{fill:#402B25;}
	.st94{fill:#6B6ABA;}
	.st95{fill:#BABABA;}
	.st96{fill:#D1D1D1;}
	.st97{fill:#264377;}
	.st98{fill:#A19BF5;}
	.st99{fill:#3C2A21;}
	.st100{fill:none;stroke:#4C3328;stroke-width:10;stroke-linecap:round;stroke-miterlimit:10;}
	.st101{fill:#C1781F;}
	.st102{fill:#E3A147;}
	.st103{fill:#F2D2A1;}
	.st104{fill:#4F372D;}
	.st105{fill:none;stroke:#DA4545;stroke-width:10;stroke-linecap:round;stroke-miterlimit:10;}
	.st106{fill:#AA3928;}
	.st107{fill:#8C2C22;}
	.st108{fill:#BF4336;}
	.st109{fill:#5797D4;}
	.st110{fill:#CFCFCF;}
	.st111{fill:#613A2E;}
	.st112{fill:none;stroke:#B18653;stroke-width:10;stroke-linecap:round;stroke-miterlimit:10;}
	.st113{fill:#B13B3B;}
	.st114{fill:#16263A;}
	.st115{fill:none;stroke:#16263A;stroke-width:10;stroke-miterlimit:10;}
	.st116{fill:#C87D20;}
	.st117{fill:#E4F0FD;}
	.st118{fill:#AA3737;}
	.st119{fill:#BF771F;}
	.st120{fill:none;stroke:#CD462A;stroke-width:10;stroke-linejoin:round;stroke-miterlimit:10;}
	.st121{fill:#5696D2;}
	.st122{fill:#C0771E;}
	.st123{fill:#9B5F1B;}
	.st124{fill:#A83A29;}
	.st125{fill:#E7A74F;}
	.st126{fill:#C9924C;}
	.st127{fill:#C58E48;}
	.st128{fill:#BE8844;}
	.st129{fill:#916939;}
	.st130{fill:#264275;}
	.st131{fill:#253F65;}
	.st132{fill:#182A45;}
	.st133{fill:#162336;}
	.st134{fill:#93C7B7;}
	.st135{fill:#E6A4A4;}
	.st136{fill:#B06B1D;}
	.st137{fill:#484185;}
	.st138{fill:#DB6E6E;}
	.st139{fill:#6BBA9A;}
	.st140{fill:#CACCCC;}
	.st141{fill:#D4D4D4;}
	.st142{fill:#A98881;}
	.st143{fill:#213A62;}
	.st144{fill:#A2837D;}
	.st145{fill:#6FB8F4;}
	.st146{fill:#9B9E9E;}
	.st147{fill:#B2B3B3;}
	.st148{fill:#20385D;}
	.st149{fill:#335AA8;}
	.st150{fill:#BCE7FD;}
	.st151{fill:#3B2921;}
	.st152{fill:#AD3C3C;}
	.st153{fill:#9D3838;}
	.st154{fill:#603F33;}
	.st155{fill:#4D868B;}
	.st156{fill:#A2DDFD;}
	.st157{fill:#ECB6B6;}
	.st158{fill:#E8A346;}
	.st159{fill:#514C94;}
	.st160{fill:#D2F1E8;}
	.st161{fill:#BDD6CE;}
	.st162{fill:#B93B29;}
	.st163{fill:#E0AD70;}
	.st164{fill:#C57C21;}
	.st165{fill:#EDA34A;}
	.st166{fill:#2F538F;}
	.st167{fill:#2B4B78;}
	.st168{fill:#65AF91;}
	.st169{fill:#A7CEFC;}
	.st170{fill:#98BDE2;}
	.st171{fill:#CFE5F7;}
	.st172{fill:#5492CD;}
	.st173{fill:#97CCBC;}
	.st174{fill:#5491CA;}
	.st175{fill:#EDC563;}
	.st176{fill:#423C79;}
	.st177{fill:#D3B1A5;}
	.st178{fill:#BE988D;}
	.st179{fill:#A7E5D6;}
	.st180{fill:#F2FFF9;}
	.st181{fill:#D64545;}
	.st182{fill:#A73B3B;}
	.st183{fill:#15233A;}
	.st184{fill:none;stroke:#BE988D;stroke-width:10;stroke-linecap:round;stroke-miterlimit:10;}
	.st185{fill:#AF3A29;}
	.st186{fill:#FAF9FF;}
	.st187{fill:#CACACC;}
	.st188{fill:#372720;}
	.st189{fill:#3F2C26;}
	.st190{fill:#2D201C;}
	.st191{fill:#3D6D6F;}
	.st192{fill:#5B54A8;}
	.st193{fill:#325799;}
	.st194{fill:#E8C26E;}
	.st195{fill:#254784;}
	.st196{fill:#5696D4;}
	.st197{fill:#4F8AB6;}
	.st198{fill:#5FA4AC;}
	.st199{fill:#AA3524;}
	.st200{fill:#D15F4D;}
	.st201{fill:#2B294C;}
	.st202{fill:#A43A2A;}
	.st203{fill:#E7AE2D;}
	.st204{fill:#CD9729;}
	.st205{fill:none;stroke:#AA8253;stroke-width:10;stroke-linecap:round;stroke-miterlimit:10;}
	.st206{fill:none;stroke:#E18F23;stroke-width:10;stroke-linecap:round;stroke-linejoin:round;stroke-miterlimit:10;}
	.st207{fill:#CF9828;}
	.st208{fill:#B88926;}
	.st209{fill:#A17623;}
	.st210{fill:#96CCBC;}
	.st211{fill:#CF9A2A;}
	.st212{fill:#C57B20;}
	.st213{fill:#C7F1E6;}
	.st214{fill:#DC6363;}
	.st215{fill:#E89F9F;}
	.st216{fill:#C88C8C;}
	.st217{fill:#C16E6E;}
	.st218{fill:#A46060;}
	.st219{fill:#AA3626;}
	.st220{fill:#87EDC4;}
	.st221{fill:#D86552;}
	.st222{fill:#BC7620;}
	.st223{fill:#BA741E;}
	.st224{fill:#8F8CE3;}
	.st225{fill:#3A2820;}
	.st226{fill:#AC7060;}
	.st227{fill:#915F55;}
	.st228{fill:#49332A;}
	.st229{fill:#2D1F1B;}
	.st230{fill:#69B7BE;}
	.st231{fill:#D6D6D6;}
	.st232{fill:#B8B8B8;}
	.st233{fill:#CACACA;}
	.st234{fill:#467B80;}
	.st235{fill:#C2EDE2;}
	.st236{fill:#A9574F;}
	.st237{fill:#5595D2;}
	.st238{fill:#955949;}
	.st239{fill:#7E4B42;}
	.st240{fill:#89CCF1;}
	.st241{fill:#DD584A;}
	.st242{fill:#C18F26;}
	.st243{fill:#B33C2A;}
	.st244{fill:#D1A771;}
	.st245{fill:#B42A2A;}
	.st246{fill:#325797;}
	.st247{fill:#9F3529;}
	.st248{fill:#EDCE80;}
	.st249{fill:#F0DBAC;}
	.st250{fill:#CFB478;}
	.st251{fill:#D4C29B;}
	.st252{fill:#993939;}
	.st253{fill:#D1AFA3;}
	.st254{fill:#BC968B;}
	.st255{fill:none;stroke:#BC968B;stroke-width:10;stroke-linecap:round;stroke-miterlimit:10;}
	.st256{fill:#814C3C;}
	.st257{fill:#C0EBE0;}
	.st258{fill:#A5E3D4;}
	.st259{fill:#15243C;}
	.st260{fill:#443E79;}
	.st261{fill:#F0FFF7;}
	.st262{fill:#9A764B;}
	.st263{fill:#826443;}
	.st264{fill:#D9AA74;}
	.st265{fill:#5DA186;}
	.st266{fill:#68B596;}
	.st267{fill:#E5C6BE;}
	.st268{fill:#D3B6B1;}
	.st269{fill:none;stroke:#BAA09C;stroke-width:10;stroke-linecap:round;stroke-miterlimit:10;}
	.st270{fill:#F4D78F;}
	.st271{fill:#20385F;}
	.st272{fill:#BA8727;}
	.st273{fill:#5A9C82;}
	.st274{fill:none;stroke:#E39123;stroke-width:10;stroke-linecap:round;stroke-linejoin:round;stroke-miterlimit:10;}
	.st275{fill:#60392D;}
	.st276{fill:#CCCCCC;}
	.st277{fill:#844F3E;}
	.st278{fill:#F3FFFB;}
	.st279{fill:#365E60;}
	.st280{fill:#D84545;}
	.st281{fill:#A83B3B;}
	.st282{fill:#253F70;}
	.st283{fill:#EAADAD;}
	.st284{fill:#443E7C;}
	.st285{fill:#3D6B9F;}
	.st286{fill:#4274BC;}
	.st287{fill:#AF3827;}
	.st288{fill:#E59D9D;}
	.st289{fill:#C48989;}
	.st290{fill:none;stroke:#9B621A;stroke-width:10;stroke-linecap:round;stroke-linejoin:round;stroke-miterlimit:10;}
	.st291{fill:#213A5E;}
	.st292{fill:#2D507A;}
	.st293{fill:#528EC8;}
	.st294{fill:#EFD696;}
	.st295{fill:#D1BA87;}
	.st296{fill:#FDFCFC;}
	.st297{fill:#86CBFC;}
	.st298{fill:#7AB7DA;}
	.st299{fill:#192C4C;}
	.st300{fill:#BCBCBC;}
	.st301{fill:#A13838;}
	.st302{fill:#75BDF6;}
	.st303{fill:#D0B1AA;}
	.st304{fill:#142233;}
	.st305{fill:#E6C4BB;}
	.st306{fill:#BDBDBD;}
	.st307{fill:#E8A192;}
	.st308{fill:#A43939;}
	.st309{fill:#162640;}
	.st310{fill:#27457C;}
	.st311{fill:#EFBE5E;}
	.st312{fill:#87EDC5;}
	.st313{fill:#A03838;}
	.st314{fill:#833232;}
	.st315{fill:#47417F;}
	.st316{fill:none;stroke:#915F55;stroke-width:10;stroke-linecap:round;stroke-miterlimit:10;}
	.st317{fill:#BC8B25;}
	.st318{fill:#473129;}
	.st319{fill:#67B394;}
	.st320{fill:#599A80;}
	.st321{fill:#B13D3D;}
</style>
<g id="BULINE">
	<circle id="XMLID_2024_" class="st0" cx="256" cy="256" r="256"/>
	<g>
	</g>
</g>
<g id="Icons">
	<g id="XMLID_1626_">
		<path id="XMLID_2916_" class="st8" d="M361.4,102.2c-0.6-1-1.1-1.9-1.8-2.9c-16.1-26-41.4-45.5-71.3-54c-0.7-0.2-1.4-0.4-2.1-0.6
			c-0.5-0.1-0.9-0.2-1.4-0.4c-0.9-0.2-1.7-0.4-2.6-0.6c-0.2,0-0.5-0.1-0.7-0.1c-0.1,0-0.2-0.1-0.4-0.1c-0.1,0-0.2-0.1-0.3-0.1h0
			c-0.1,0-0.2,0-0.3-0.1c-0.1,0-0.2-0.1-0.3-0.1c-0.7-0.1-1.4-0.3-2.1-0.4c-1.4-0.3-2.8-0.5-4.1-0.7c-0.5-0.1-1-0.2-1.6-0.2
			c-5.7-0.8-11.6-1.3-17.6-1.3c-8.5,0-16.8,0.9-24.8,2.5C197,50,168.6,70.4,150.9,98.3c-0.7,1-1.3,2.1-1.9,3.1
			c-11,18.7-17.4,40.5-17.4,63.9c0,5.2,0.3,10.2,0.9,15.2c0,0.1,0,0.3,0.1,0.4c0.8,6.3,2,12.4,3.7,18.3c0.1-0.2,0.3-0.5,0.4-0.7
			c0,0,0.1-0.1,0.1-0.1c0-0.1,0.1-0.2,0.1-0.2c0.1-0.1,0.1-0.2,0.2-0.4c0-0.1,0.1-0.1,0.2-0.2c0,0,0,0,0,0c0,0,0,0,0,0
			c0,0,0,0,0-0.1c0.1-0.1,0.2-0.2,0.2-0.3c0,0,0.1-0.1,0.1-0.1c0-0.1,0.1-0.1,0.1-0.2v0c0.1-0.1,0.2-0.2,0.3-0.4
			c0.1-0.1,0.1-0.1,0.1-0.2c0,0,0,0,0,0s0,0,0,0c0.1-0.1,0.1-0.1,0.1-0.1l0,0c0.1-0.1,0.1-0.1,0.2-0.2c0,0,0,0,0.1-0.1
			c0.1-0.1,0.2-0.2,0.3-0.3c0,0,0,0,0,0c0,0,0,0,0,0c0,0,0.1-0.1,0.1-0.1c0,0,0,0,0,0h0c0.2-0.2,0.5-0.4,0.7-0.6c0,0,0,0,0,0
			c0,0,0.1-0.1,0.1-0.1c0.2-0.2,0.4-0.3,0.6-0.5c0,0,0,0,0,0c0.1-0.1,0.2-0.1,0.3-0.2c0.2-0.2,0.4-0.3,0.6-0.4
			c0.2-0.1,0.5-0.3,0.8-0.4c0.1,0,0.1-0.1,0.2-0.1c0.2-0.1,0.3-0.2,0.5-0.2c0,0,0.1,0,0.2-0.1c0.1,0,0.1,0,0.1-0.1
			c0,0,0.1,0,0.1-0.1c0,0,0.1,0,0.1,0c0,0,0,0,0,0c0,0,0,0,0.1,0c0,0,0,0,0.1,0c0,0,0,0,0,0c0,0,0,0,0,0c0,0,0.1,0,0.1,0h0
			c0,0,0,0,0,0l0,0c0,0,0,0,0,0h0c0,0,0,0,0,0c0,0,0.1,0,0.1,0h0c0,0,0,0,0,0c0.1,0,0.1,0,0.2-0.1c0,0,0,0,0,0c0,0,0,0,0,0
			c0,0,0,0,0,0c0,0,0.1,0,0.1,0c0.1,0,0.1,0,0.1,0c0,0,0,0,0.1,0c0.1,0,0.1,0,0.2-0.1c0,0,0,0,0,0c0.1,0,0.1,0,0.2-0.1c0,0,0,0,0,0
			l0,0c0.1,0,0.2,0,0.3-0.1c0.1,0,0.1,0,0.2-0.1c0.1,0,0.1,0,0.2,0c0,0,0,0,0,0c0,0,0,0,0.1,0c0.1,0,0.1,0,0.2-0.1c0,0,0,0,0.1,0
			c0,0,0,0,0,0c0,0,0,0,0,0c0,0,0,0,0,0c0.1,0,0.2,0,0.2,0c0,0,0.1,0,0.1,0c0.2,0,0.3-0.1,0.4-0.1c0,0,0.1,0,0.1,0c0,0,0,0,0,0
			s0,0,0,0c0,0,0.1,0,0.1,0c0.1,0,0.2,0,0.3,0c0,0,0.1,0,0.1,0c0,0,0,0,0,0c0,0,0.1,0,0.1,0h0c0.1,0,0.1,0,0.2,0h0.1c0,0,0,0,0,0h0
			c0,0,0,0,0,0s0,0,0,0c0,0,0,0,0.1,0c0.3,0,0.6,0,0.9,0h1.9h208.3h0.4h1.9c0.3,0,0.6,0,0.8,0c0.1,0,0.2,0,0.3,0
			c0.3,0,0.6,0.1,0.8,0.1c0.3,0,0.6,0.1,0.9,0.2c0.3,0.1,0.5,0.1,0.8,0.2c0.1,0,0.2,0,0.2,0.1c0.2,0.1,0.4,0.1,0.6,0.2
			c0.1,0,0.2,0.1,0.3,0.1c0.2,0.1,0.4,0.1,0.6,0.2c0.1,0,0.2,0.1,0.3,0.1c0.2,0.1,0.4,0.2,0.6,0.3c0.6,0.3,1.1,0.6,1.7,0.9
			c0.5,0.3,1,0.7,1.4,1.1c0.5,0.4,0.9,0.8,1.3,1.3c0.2,0.2,0.3,0.4,0.5,0.6c0.1,0.1,0.2,0.3,0.3,0.4c0.3,0.4,0.6,0.8,0.8,1.2
			c2.9-10.6,4.4-21.7,4.4-33.2C378.3,142.2,372.2,120.7,361.4,102.2z"/>
		<path id="XMLID_2909_" class="st241" d="M295.5,59.2c8.8,4.4,21.2,13.1,28.3,29.5c1.6,3.6-2.2,7.3-5.7,5.6l0,0
			c-2.3-1.1-4.7,1.3-3.7,3.6c1.5,3.4,3.3,7.7,4.9,12.1c1.6,4.5-4.2,7.8-7.3,4.2c-8.2-9.6-20.4-20.8-33.1-22.4
			c-1.4-0.2-2.2-1.8-1.4-3c1.8-2.9,5.4-7.3,11.1-8.9c5.1-1.4,8.4-6.5,7.3-11.6c-0.4-2-1.3-4.1-2.8-6.3
			C291.8,60.4,293.6,58.3,295.5,59.2z"/>
		<path id="XMLID_3419_" class="st242" d="M480.3,379.5c-23.6,42.8-59.1,78.1-102.1,101.5c-11.7,6.4-24.1,11.9-36.8,16.4
			c-4,1.4-8,2.7-12.1,3.9c-5.2,1.5-10.4,2.9-15.7,4.1c-18.5,4.3-37.8,6.5-57.6,6.5c-18.9,0-37.4-2.1-55.2-6
			c-6.6-1.4-13.1-3.1-19.4-5.1c-4.1-1.2-8.1-2.6-12.1-4c-4-1.4-8-3-11.9-4.6c-9.8-4.1-19.2-8.8-28.4-14v-92.3
			c0-4.2,0.6-8.3,1.7-12.1c-1.1,3.9-1.7,7.9-1.7,12.1v92.3C52,434.3,0,351.2,0,256c0-52.4,15.8-101.2,42.8-141.7l10.9-2
			c17.7-3.3,34.7,8.4,38,26.1l9.9,54.3c2.5,13.7,13.5,24.3,27.3,26.3l5,0.7l45.4,6.5c3.2,0.5,6.3,1.4,9.2,2.7
			c7.9,3.7,14.1,10.5,17,19c0.3,0.9,0.6,1.9,0.8,2.8l6.1,25.2c0,0,0,0,0,0l3.9,16.3l0.7,2.9l1.5,6.2c1.3,5.5,4,10.4,7.6,14.3
			c0.1,0.1,0.2,0.3,0.4,0.4c5.1,5.5,12.1,9,19.6,10c4.2,0.5,8.7,0.2,13-1l15.5-4.5l6.8-1.9l29.6-8.5l1.3-0.4l8.6-2.5
			c14.7-4.2,30.3,2.4,37.6,15.8l18.9,35c9.7,17.9,33.2,22.6,49,9.8c6-4.8,13.2-7.2,20.4-7.2c7.8,0,15.6,2.8,21.8,8.4L480.3,379.5z"
			/>
		<path id="XMLID_3322_" class="st5" d="M378.2,386.1V481c-11.7,6.4-24.1,11.9-36.8,16.4c-4,1.4-8,2.7-12.1,3.9
			c-5.2,1.5-10.4,2.9-15.7,4.1c-18.5,4.3-37.8,6.5-57.6,6.5c-18.9,0-37.4-2.1-55.2-6c-6.6-1.4-13.1-3.1-19.4-5.1
			c-4.1-1.2-8.1-2.6-12.1-4c-4-1.4-8-3-11.9-4.6c-9.8-4.1-19.2-8.8-28.4-14v-92.3c0-4.2,0.6-8.3,1.7-12.1c0.3-1.1,0.7-2.2,1.1-3.2
			c0.4-1.1,0.8-2.1,1.3-3.1c1.7-3.6,3.8-6.9,6.3-9.9c0.7-0.8,1.5-1.7,2.3-2.5c0.6-0.6,1.2-1.2,1.9-1.8c1.4-1.3,3-2.5,4.6-3.6
			c0.8-0.5,1.5-1,2.3-1.5c2.6-1.5,5.3-2.8,8.2-3.8c1.1-0.4,2.2-0.7,3.4-1c1.7-0.4,3.5-0.8,5.2-1c1.8-0.2,3.6-0.3,5.4-0.3h161.7
			C358.7,342.4,378.2,362,378.2,386.1z"/>
		<path id="XMLID_3332_" class="st20" d="M260.9,360.6h-14.1c-11.3,0-20.4-9.1-20.4-20.4v-33.6c0-11.3,9.1-20.4,20.4-20.4h14.1
			c11.3,0,20.4,9.1,20.4,20.4v33.6C281.3,351.5,272.1,360.6,260.9,360.6z"/>
		<path id="XMLID_3331_" class="st21" d="M263.4,360.4c-1,0.1-1.9,0.2-2.9,0.2h-14.1c-11.3,0-20.4-9.1-20.4-20.4v-33.6
			c0-11.3,9.1-20.4,20.4-20.4h14.1c1,0,2,0.1,2.9,0.2c-9.9,1.4-17.5,9.9-17.5,20.2v33.6C246,350.5,253.6,359,263.4,360.4z"/>
		<path id="XMLID_3330_" class="st243" d="M276.2,61h-42.5L226,27.8c-1-11.4,8-21.2,19.4-21.2h19.1c11.4,0,20.4,9.8,19.4,21.2
			L276.2,61z"/>
		<path id="XMLID_3329_" class="st244" d="M169.3,282.4c-3.1-4.4-5.9-9.1-8.4-14.1C163.4,273.3,166.2,278,169.3,282.4z"/>
		<path id="XMLID_3328_" class="st244" d="M172.1,286.2c-0.9-1.2-1.9-2.5-2.8-3.7C170.2,283.7,171.2,284.9,172.1,286.2z"/>
		<path id="XMLID_3327_" class="st244" d="M181.4,296.6c-1.1-1.1-2.2-2.2-3.2-3.3C179.2,294.4,180.3,295.5,181.4,296.6z"/>
		<path id="XMLID_3326_" class="st244" d="M150.9,234.1L150.9,234.1c0.3,2.6,0.7,5.2,1.1,7.7c1.5,7.8,3.8,15.3,6.9,22.3
			c-3.1-7.1-5.4-14.5-6.9-22.3C151.6,239.2,151.2,236.7,150.9,234.1z"/>
		<path id="XMLID_3325_" class="st244" d="M184.8,299.8c-1.1-1-2.3-2.1-3.4-3.2C182.5,297.7,183.6,298.7,184.8,299.8z"/>
		<path id="XMLID_3324_" class="st20" d="M373.3,198.5c-2.5-4.2-7.1-7-12.3-7h-2.4v-16.2c0-22.1-6.9-42.5-18.6-59.4
			c-21,9.8-51.3,15.9-85,15.9c-20,0-38.7-2.2-55.1-6c-11.6-2.7-22-6.2-30.8-10.4c-0.8,1.2-1.7,2.4-2.4,3.6c-1.8,2.8-3.5,5.7-5,8.7
			c-1.9,3.7-3.6,7.6-5.1,11.6c-4.1,11.2-6.3,23.2-6.3,35.8v16.2h-2c-5.5,0-10.3,3.1-12.7,7.7c-1.1,2-1.7,4.3-1.7,6.7v13.8
			c0,7.9,6.4,14.4,14.4,14.4h2.6h0c0.3,2.6,0.7,5.2,1.2,7.7c1.5,7.8,3.8,15.3,6.9,22.3c0.3,0.7,0.6,1.4,1,2.1c0.3,0.7,0.7,1.4,1,2.1
			c2.4,4.9,5.2,9.6,8.4,14.1c0.9,1.3,1.8,2.5,2.8,3.7c0.5,0.6,1,1.2,1.4,1.8c0.5,0.6,1,1.2,1.4,1.7c0,0,0,0.1,0.1,0.1
			c0.5,0.6,1,1.1,1.5,1.7c0.5,0.6,1,1.2,1.6,1.7c1.1,1.1,2.1,2.2,3.2,3.3c1.1,1.1,2.2,2.1,3.4,3.2c0.6,0.5,1.2,1,1.7,1.5
			c0.6,0.5,1.2,1,1.8,1.5c2,1.7,4.1,3.3,6.3,4.8c0.5,0.4,1,0.7,1.5,1c0.6,0.4,1.2,0.8,1.8,1.2c0.5,0.3,1.1,0.7,1.6,1
			c0.1,0.1,0.2,0.1,0.3,0.2c0.6,0.4,1.2,0.7,1.8,1.1c0,0,0.1,0,0.1,0.1c0.5,0.3,1,0.6,1.5,0.9c0.3,0.2,0.6,0.3,0.9,0.5
			c0.5,0.3,1,0.6,1.5,0.8c0,0,0.1,0,0.1,0.1c0.6,0.3,1.2,0.6,1.8,0.9c0.6,0.3,1.3,0.6,1.9,0.9c0.4,0.2,0.9,0.4,1.3,0.6
			c4.3,2,8.8,3.7,13.4,5.1c0.5,0.2,1.1,0.3,1.6,0.5c0.7,0.2,1.4,0.4,2.1,0.6c0.4,0.1,0.7,0.2,1.1,0.3c0.6,0.1,1.1,0.3,1.7,0.4
			c0.1,0,0.2,0.1,0.3,0.1c0.7,0.1,1.3,0.3,2,0.4c0.2,0,0.5,0.1,0.7,0.1c0.5,0.1,1.1,0.2,1.6,0.3c0.4,0.1,0.9,0.2,1.4,0.2
			c0.2,0,0.5,0.1,0.7,0.1c0.5,0.1,0.9,0.2,1.4,0.2c0.6,0.1,1.1,0.2,1.7,0.2c0.3,0,0.5,0.1,0.8,0.1c0.5,0.1,0.9,0.1,1.4,0.2
			c0.4,0.1,0.8,0.1,1.3,0.1c0.4,0,0.7,0.1,1.1,0.1c0.4,0,0.9,0.1,1.3,0.1c0.7,0.1,1.4,0.1,2.2,0.1c0.5,0,1,0,1.6,0.1
			c0.5,0,1,0,1.5,0c0.8,0,1.7,0,2.5,0c2.4,0,4.7-0.1,7.1-0.2c0.5,0,1-0.1,1.6-0.1c0.4,0,0.7-0.1,1.1-0.1c0.7-0.1,1.4-0.1,2.1-0.2
			c0.5,0,1.1-0.1,1.6-0.2c0.2,0,0.5-0.1,0.8-0.1c0.6-0.1,1.2-0.2,1.8-0.3c0.9-0.1,1.7-0.3,2.6-0.4h0c19.4-3.5,37-12.4,51-25.1
			c16.6-14.9,28.4-35.2,32.7-58c0.5-2.5,0.9-5.1,1.2-7.7h3.1c7.9,0,14.4-6.4,14.4-14.4v-13.8C375.4,203.2,374.6,200.6,373.3,198.5z"
			/>
		<path id="XMLID_3323_" class="st21" d="M282.5,322.7c-3.1,0.9-6.3,1.6-9.5,2.2h0c-0.8,0.2-1.7,0.3-2.6,0.4
			c-0.6,0.1-1.2,0.2-1.8,0.3c-0.2,0-0.5,0.1-0.8,0.1c-0.5,0.1-1.1,0.1-1.6,0.2c-0.7,0.1-1.4,0.2-2.1,0.2c-0.4,0-0.7,0.1-1.1,0.1
			c-0.5,0-1,0.1-1.6,0.1c-2.3,0.2-4.7,0.2-7.1,0.2c-0.8,0-1.7,0-2.5,0c-0.5,0-1,0-1.5-0.1c-0.5,0-1.1,0-1.6-0.1
			c-0.7,0-1.5-0.1-2.2-0.1c-0.4,0-0.9-0.1-1.3-0.1c-0.4,0-0.7-0.1-1.1-0.1c-0.4,0-0.9-0.1-1.3-0.1c-0.5,0-0.9-0.1-1.4-0.2
			c-0.3,0-0.5-0.1-0.8-0.1c-0.6-0.1-1.1-0.2-1.7-0.2c-0.5-0.1-0.9-0.1-1.4-0.2c-0.2,0-0.5-0.1-0.7-0.1c-0.5-0.1-0.9-0.2-1.4-0.2
			c-0.5-0.1-1.1-0.2-1.6-0.3c-0.2,0-0.5-0.1-0.7-0.1c-0.7-0.1-1.4-0.3-2-0.4c-0.1,0-0.2,0-0.3-0.1c-0.6-0.1-1.1-0.3-1.7-0.4
			c-0.4-0.1-0.7-0.2-1.1-0.3c-0.7-0.2-1.4-0.4-2.1-0.6c-0.5-0.2-1.1-0.3-1.6-0.5c-4.6-1.4-9.1-3.1-13.4-5.1
			c-0.4-0.2-0.9-0.4-1.3-0.6c-0.6-0.3-1.3-0.6-1.9-0.9c-0.6-0.3-1.2-0.6-1.8-0.9c0,0-0.1,0-0.1-0.1c-0.5-0.3-1-0.6-1.5-0.8
			c-0.3-0.2-0.6-0.4-0.9-0.5c-0.5-0.3-1-0.6-1.5-0.9c0,0-0.1-0.1-0.1-0.1c-0.6-0.4-1.2-0.7-1.9-1.1c-0.1-0.1-0.2-0.1-0.3-0.2
			c-0.6-0.3-1.1-0.7-1.6-1c-0.6-0.4-1.2-0.8-1.8-1.2c-0.5-0.3-1-0.7-1.5-1c-2.2-1.5-4.3-3.1-6.3-4.8c-0.6-0.5-1.2-1-1.8-1.5
			c-0.6-0.5-1.2-1-1.7-1.5c-1.2-1-2.3-2.1-3.4-3.2c-1.1-1.1-2.2-2.2-3.2-3.3c-0.5-0.6-1-1.1-1.6-1.7c-0.5-0.6-1-1.1-1.5-1.7
			c0,0,0,0-0.1-0.1c-0.5-0.6-1-1.1-1.5-1.7c-0.5-0.6-1-1.2-1.4-1.8c-0.9-1.2-1.9-2.5-2.8-3.7c-3.1-4.4-5.9-9.1-8.4-14.1
			c-0.4-0.7-0.7-1.4-1-2.1c-0.3-0.7-0.6-1.4-1-2.1c-3.1-7.1-5.4-14.6-6.9-22.3c-0.5-2.5-0.9-5.1-1.2-7.7h-2.6
			c-7.9,0-14.4-6.4-14.4-14.4v-13.8c0-2.4,0.6-4.7,1.7-6.7c2.4-4.6,7.2-7.7,12.7-7.7h2v-16.2c0-12.6,2.2-24.6,6.3-35.8
			c1.5-4,3.2-7.9,5.1-11.6c1.5-3,3.2-5.9,5-8.7c0.8-1.2,1.6-2.4,2.4-3.6c7.9,3.7,17.1,7,27.3,9.5c-8.8,18.7-13.8,39.9-13.8,62.3
			C182.6,253,225.2,308,282.5,322.7z"/>
		<path id="XMLID_3319_" class="st243" d="M285.6,44.7c-0.5-0.1-0.9-0.2-1.4-0.4c-0.9-0.2-1.7-0.4-2.6-0.6c-0.2,0-0.5-0.1-0.7-0.1
			c-0.1,0-0.2-0.1-0.4-0.1c-0.1,0-0.2,0-0.3-0.1c-0.1,0-0.2-0.1-0.3-0.1c-0.1,0-0.2-0.1-0.3-0.1c-0.7-0.1-1.4-0.3-2-0.4
			c-1.4-0.3-2.8-0.5-4.1-0.7c-0.5-0.1-1-0.2-1.6-0.2c-5.7-0.8-11.6-1.3-17.6-1.3c-8.5,0-16.8,0.9-24.8,2.5
			c-34.5,7.1-63.7,28.7-81.2,58.2c-11,18.7-17.4,40.5-17.4,63.9c0,5.2,0.3,10.2,0.9,15.2c0,0.1,0,0.3,0,0.4c0,0,0,0,0,0
			c0.8,6.3,2,12.4,3.7,18.3c0.1-0.2,0.3-0.5,0.4-0.7c0,0,0.1-0.1,0.1-0.1c0-0.1,0.1-0.2,0.1-0.2c0.1-0.1,0.2-0.2,0.2-0.4
			c0-0.1,0.1-0.1,0.2-0.2c0,0,0,0,0,0c0,0,0,0,0,0c0,0,0,0,0-0.1c0.1-0.1,0.2-0.2,0.2-0.3c0,0,0.1-0.1,0.1-0.1
			c0-0.1,0.1-0.1,0.1-0.2v0c0.1-0.1,0.2-0.2,0.3-0.4c0.1-0.1,0.1-0.1,0.1-0.2c0,0,0,0,0,0s0,0,0,0c0.1-0.1,0.1-0.1,0.1-0.1l0,0
			c0.1-0.1,0.1-0.1,0.2-0.2c0,0,0,0,0.1-0.1c0.1-0.1,0.2-0.2,0.3-0.3c0,0,0,0,0,0c0,0,0,0,0,0c0,0,0.1-0.1,0.1-0.1c0,0,0,0,0,0h0
			c0.2-0.2,0.5-0.4,0.7-0.6c0,0,0,0,0,0c0,0,0.1-0.1,0.1-0.1c0.2-0.2,0.4-0.3,0.6-0.5c0,0,0,0,0,0c0.1-0.1,0.2-0.1,0.3-0.2
			c0.2-0.2,0.4-0.3,0.6-0.4c0.2-0.1,0.5-0.3,0.8-0.4c0.1,0,0.1-0.1,0.2-0.1c0.2-0.1,0.3-0.2,0.5-0.2c0,0,0.1,0,0.2-0.1
			c0.1,0,0.1,0,0.1-0.1c0,0,0.1,0,0.1-0.1c0,0,0,0,0.1,0c0,0,0,0,0,0c0,0,0.1,0,0.1,0c0,0,0,0,0,0c0,0,0,0,0,0c0,0,0,0,0,0
			c0,0,0.1,0,0.1,0h0c0,0,0,0,0,0l0,0c0,0,0,0,0,0h0c0,0,0.1,0,0.1-0.1h0c0,0,0,0,0,0c0.1,0,0.1,0,0.2-0.1c0,0,0,0,0,0c0,0,0,0,0,0
			c0,0,0.1,0,0.1,0c0,0,0.1,0,0.1,0c0,0,0,0,0.1,0c0.1,0,0.1,0,0.2-0.1c0,0,0,0,0,0c0.1,0,0.1,0,0.2,0v0c0,0,0,0,0,0
			c0.1,0,0.1,0,0.2,0c0,0,0,0,0.1,0c0,0,0,0,0,0s0,0,0,0c0,0,0,0,0.1,0c0,0,0.1,0,0.1,0c0.1,0,0.1,0,0.2-0.1c0,0,0,0,0,0
			c0,0,0,0,0.1,0c0,0,0.1,0,0.2-0.1c0,0,0,0,0.1,0c0,0,0,0,0,0c0,0,0,0,0,0c0,0,0,0,0,0c0.1,0,0.2,0,0.2,0c0,0,0.1,0,0.1,0
			c0.2,0,0.3-0.1,0.5-0.1c0,0,0,0,0,0c0,0,0,0,0,0c0,0,0,0,0,0c0,0,0.1,0,0.1,0h0.1c0.1,0,0.2,0,0.3,0c0,0,0,0,0,0c0,0,0,0,0,0
			c0,0,0.1,0,0.1,0h0c0.1,0,0.1,0,0.2,0h0.1c0,0,0.1,0,0.1,0c0.3,0,0.6,0,0.9,0h1.9v-16.2c0-6.3,0.6-12.4,1.6-18.4
			c1.1-6,2.6-11.8,4.7-17.4c0.2-0.5,0.4-1,0.6-1.5c0.1-0.2,0.2-0.5,0.3-0.7c0.1-0.2,0.2-0.5,0.3-0.7c0.4-1,0.8-2,1.2-2.9
			c0.2-0.5,0.4-1,0.6-1.4v0h0c0.2-0.5,0.4-0.9,0.7-1.4h0c0-0.1,0.1-0.2,0.1-0.3c0-0.1,0.1-0.2,0.1-0.3c0.1-0.3,0.3-0.6,0.4-0.9h0
			c0-0.1,0.1-0.2,0.1-0.2c0-0.1,0-0.1,0.1-0.2c0.2-0.3,0.3-0.7,0.5-1c0.4-0.8,0.8-1.5,1.2-2.2c0.4-0.7,0.8-1.5,1.2-2.2
			c0.4-0.7,0.8-1.4,1.3-2.2c0.4-0.7,0.9-1.4,1.3-2.1c0.4-0.6,0.8-1.2,1.2-1.8v0c0.2-0.2,0.3-0.5,0.5-0.7c0-0.1,0.1-0.1,0.1-0.2
			c0.2-0.3,0.4-0.6,0.6-0.9h0c0.5,0.3,1.1,0.5,1.7,0.8c0,0,0.1,0,0.1,0c0,0,0.1,0,0.1,0c0.1,0,0.1,0,0.2,0.1
			c0.2,0.1,0.5,0.2,0.7,0.3c0.1,0,0.2,0.1,0.3,0.1c0.3,0.1,0.7,0.3,1,0.4c0,0,0,0,0.1,0c0,0,0.1,0,0.1,0c0.3,0.1,0.6,0.2,0.8,0.4
			c0,0,0.1,0,0.1,0c0.1,0,0.1,0.1,0.2,0.1c0.1,0,0.2,0.1,0.3,0.1c0.2,0.1,0.4,0.2,0.6,0.2c0.2,0.1,0.3,0.1,0.5,0.2
			c0.4,0.2,0.8,0.3,1.2,0.5c0,0,0.1,0,0.1,0c0.3,0.1,0.7,0.3,1.1,0.4c0.1,0,0.2,0.1,0.4,0.1c0.4,0.1,0.8,0.3,1.2,0.4
			c0.2,0.1,0.3,0.1,0.5,0.2c0.4,0.1,0.8,0.3,1.2,0.4c0.1,0,0.2,0.1,0.2,0.1c0.1,0.1,0.2,0.1,0.4,0.1c0.3,0.1,0.5,0.2,0.8,0.3
			c0.2,0.1,0.5,0.2,0.8,0.3c0.1,0,0.1,0,0.2,0.1l0,0c0.3,0.1,0.6,0.2,1,0.3c0,0,0,0,0,0c0.2,0.1,0.4,0.1,0.5,0.2
			c0.7,0.2,1.3,0.4,2,0.6c1.2,0.4,2.4,0.7,3.6,1.1c0.3,0.1,0.6,0.2,0.9,0.3c0.3,0.1,0.6,0.2,0.9,0.3c0.6,0.2,1.2,0.3,1.9,0.5
			c0.3,0.1,0.6,0.1,0.8,0.2c0.3,0.1,0.6,0.1,0.8,0.2c0,0,0.1,0,0.1,0c0,0,0.1,0,0.1,0c1.2,0.3,2.3,0.6,3.5,0.8
			c0.7,0.1,1.3,0.3,2,0.4c0.1,0,0.2,0,0.3,0.1c0.3,0,0.5,0.1,0.8,0.2c0.3,0.1,0.6,0.1,0.9,0.2v0c2.9-8.9,6.7-17.4,11.4-25.4
			c9.6-16.2,22.7-30,38.3-40.4c8-5.3,16.6-9.7,25.7-13c2.8-1,5.6-1.9,8.5-2.8C287,45.1,286.3,44.9,285.6,44.7z"/>
		<circle id="XMLID_3318_" class="st23" cx="203.5" cy="205.8" r="14.3"/>
		<circle id="XMLID_3317_" class="st16" cx="207.1" cy="201.1" r="6.3"/>
		<path id="XMLID_3316_" class="st21" d="M260.8,230.9h-12.9c-4.2,0-7.7-3.4-7.7-7.7v0c0-4.2,3.4-7.7,7.7-7.7h12.9
			c4.2,0,7.7,3.4,7.7,7.7v0C268.5,227.5,265,230.9,260.8,230.9z"/>
		<path id="XMLID_3315_" class="st36" d="M282.6,256.2c1.5,0,2.7,1.2,2.7,2.7l0,0c0,2.8-0.4,5.5-1.1,8.1c-1.6,6-5,11.3-9.6,15.2
			c-5.4,4.7-12.5,7.6-20.3,7.6c-7.8,0-14.9-2.9-20.3-7.6c-4.6-4-7.9-9.2-9.6-15.2c-0.7-2.6-1.1-5.3-1.1-8.1l0,0
			c0-1.5,1.2-2.7,2.7-2.7H282.6z"/>
		<path id="XMLID_3314_" class="st245" d="M274.6,282.3c-5.4,4.7-12.5,7.6-20.3,7.6c-7.8,0-14.9-2.9-20.3-7.6
			c5.4-4.7,12.5-7.6,20.3-7.6C262.1,274.7,269.2,277.5,274.6,282.3z"/>
		<path id="XMLID_3313_" class="st16" d="M282.6,256.2c1.5,0,2.7,1.2,2.7,2.7l0,0c0,2.8-0.4,5.5-1.1,8.1h-59.7
			c-0.7-2.6-1.1-5.3-1.1-8.1l0,0c0-1.5,1.2-2.7,2.7-2.7H282.6z"/>
		<path id="XMLID_3309_" class="st8" d="M217,295l1.5,6.2c1.3,5.5,4,10.4,7.6,14.3v-8.8c0-0.4,0-0.7,0-1c0-0.4,0-0.7,0.1-1
			c0-0.2,0-0.4,0.1-0.6c0-0.2,0.1-0.4,0.1-0.6c0,0,0-0.1,0-0.1c0-0.3,0.1-0.7,0.2-1c0.1-0.3,0.1-0.6,0.2-0.9
			c0.1-0.2,0.1-0.4,0.2-0.6c0-0.1,0.1-0.2,0.1-0.3c0.1-0.2,0.1-0.4,0.2-0.6c0.1-0.2,0.1-0.4,0.2-0.6c0-0.1,0.1-0.2,0.1-0.3
			c0.1-0.3,0.2-0.6,0.4-0.9c0,0,0,0,0,0C224.2,297.3,220.5,296.2,217,295z M357.1,239.8L357.1,239.8c-3.2,0-6.1,0.9-8.6,2.5
			c-1,0.7-2,1.5-2.8,2.3c-1.2,1.3-2.2,2.8-3,4.5c-6.9,16.4-20.4,30.3-37.9,39.5v-37.8c0-4-1.6-7.5-4.2-10.1s-6.2-4.2-10.2-4.2h-71
			c-6.8,0-12.6,4.8-14,11.2c-0.2,1-0.3,2.1-0.3,3.1v39.1c-12-5.9-22.2-13.9-30-23.4c-4.3-5.3-7.8-11-10.5-17.1
			c-0.6-1.5-1.5-2.9-2.5-4.1l0,0c-2.6-3.1-6.3-5.2-10.4-5.6h0c-0.5-0.1-1.1-0.1-1.6-0.1h-0.4c1.5,8,3.9,15.6,7.1,22.9
			c0.3,0.7,0.6,1.5,1,2.2c0.3,0.7,0.7,1.5,1,2.2c1.4,2.9,3,5.7,4.6,8.4c1.2,2,2.6,4,3.9,6c0.1,0.1,0.1,0.2,0.2,0.3
			c0.8,1.2,1.7,2.4,2.6,3.6c0.5,0.6,1,1.3,1.5,1.9c0.5,0.6,1,1.2,1.5,1.8c0,0,0.1,0.1,0.1,0.1c0.5,0.6,1,1.2,1.5,1.8
			c0.5,0.6,1.1,1.2,1.6,1.8c1.1,1.2,2.2,2.3,3.3,3.4c1.1,1.1,2.3,2.2,3.5,3.3c0.6,0.5,1.2,1.1,1.8,1.6c0.6,0.5,1.2,1,1.8,1.5
			c2.1,1.7,4.2,3.4,6.4,4.9c0.5,0.4,1,0.7,1.5,1.1c0.6,0.4,1.2,0.8,1.8,1.2c0.5,0.3,1.1,0.7,1.7,1c0.1,0.1,0.2,0.1,0.3,0.2
			c0.6,0.4,1.3,0.8,1.9,1.1c0,0,0.1,0,0.1,0.1c0.5,0.3,1,0.6,1.5,0.9c0.3,0.2,0.6,0.4,1,0.5c0.5,0.3,1,0.6,1.6,0.9
			c0,0,0.1,0,0.1,0.1c0.6,0.3,1.2,0.6,1.8,0.9c0.6,0.3,1.3,0.7,2,1c0.2,0.1,0.5,0.2,0.7,0.4c0.2,0.1,0.4,0.2,0.6,0.3
			c3.8,1.8,7.7,3.3,11.7,4.6c0.1,0,0.3,0.1,0.4,0.1c0.5,0.2,1.1,0.3,1.6,0.5c0.5,0.2,1.1,0.3,1.6,0.5c0.3,0.1,0.6,0.1,0.8,0.2
			c0.1,0,0.2,0.1,0.4,0.1c0.3,0.1,0.7,0.2,1,0.3c0.4,0.1,0.7,0.2,1.1,0.3c0.6,0.1,1.1,0.3,1.7,0.4c0.1,0,0.2,0.1,0.4,0.1
			c0.7,0.1,1.4,0.3,2.1,0.5c0.2,0,0.5,0.1,0.7,0.1c0.6,0.1,1.1,0.2,1.7,0.3c0.4,0.1,0.9,0.2,1.4,0.2c0.2,0.1,0.5,0.1,0.8,0.1
			c0.5,0.1,1,0.2,1.5,0.2c0.6,0.1,1.2,0.2,1.7,0.2c0.3,0,0.6,0.1,0.8,0.1c0.4,0.1,0.8,0.1,1.2,0.1c0.1,0,0.2,0,0.2,0
			c0.4,0.1,0.9,0.1,1.3,0.1c0.4,0.1,0.8,0.1,1.1,0.1c0.3,0,0.6,0.1,0.9,0.1c0.2,0,0.3,0,0.5,0c0.1,0,0.1,0,0.2,0h0.1
			c0.3,0,0.6,0,0.9,0.1c0.1,0,0.1,0,0.2,0c0.1,0,0.2,0,0.3,0c0.2,0,0.4,0,0.6,0h0.1c0.3,0,0.5,0,0.8,0c0.2,0,0.5,0,0.7,0
			c0.1,0,0.1,0,0.2,0h0.2c0.4,0,0.7,0,1,0c0.1,0,0.1,0,0.1,0c0.9,0,1.7,0,2.6,0h0.8c0.3,0,0.7,0,1,0h0.2c0.5,0,1.1,0,1.6,0
			c0.3,0,0.7,0,1-0.1c0.1,0,0.1,0,0.2,0c0.2,0,0.4,0,0.5,0v0h0.1c0.5,0,0.9-0.1,1.3-0.1c0.2,0,0.3,0,0.4,0c0.5,0,1.1-0.1,1.6-0.1
			c0.4,0,0.8-0.1,1.1-0.1c0.7-0.1,1.4-0.1,2.2-0.2c0.5,0,1.1-0.1,1.6-0.2c0.3,0,0.5-0.1,0.8-0.1c0.6-0.1,1.2-0.2,1.8-0.3
			c0.9-0.1,1.8-0.3,2.6-0.4h0c2-0.4,4-0.8,5.9-1.2c0.7-0.2,1.3-0.3,2-0.5c6.4-1.6,12.5-3.9,18.3-6.6c4.4-2,8.6-4.4,12.6-7
			c4.8-3.1,9.3-6.5,13.5-10.3c5.6-5.1,10.7-10.7,15.2-16.9c8.6-11.9,14.8-25.7,17.9-40.6C358.9,240.7,358.2,239.8,357.1,239.8z
			 M216.3,255.7c0-2.6,2.1-4.8,4.8-4.8h67.8c2.7,0,4.8,2.1,4.8,4.8v38.1c-4.6,1.8-9.3,3.2-14.2,4.4c-2.5,0.6-5.1,1.1-7.7,1.5h0
			c-5.8,0.9-11.9,1.4-18.1,1.4c-1.7,0-3.3,0-5-0.1c-0.6,0-1.2-0.1-1.8-0.1c-3.6-0.2-7.2-0.6-10.7-1.1h0c-1.8-0.3-3.6-0.6-5.4-1
			c-0.1,0-0.2,0-0.3-0.1c-0.7-0.1-1.5-0.3-2.2-0.5c-0.1,0-0.2,0-0.3-0.1c-3.7-0.9-7.4-1.9-10.9-3.1c-0.2-0.1-0.5-0.2-0.7-0.2
			c0,0,0,0,0,0V255.7z M217,295l1.5,6.2c1.3,5.5,4,10.4,7.6,14.3v-8.8c0-0.4,0-0.7,0-1c0-0.4,0-0.7,0.1-1c0-0.2,0-0.4,0.1-0.6
			c0-0.2,0.1-0.4,0.1-0.6c0,0,0-0.1,0-0.1c0-0.3,0.1-0.7,0.2-1c0.1-0.3,0.1-0.6,0.2-0.9c0.1-0.2,0.1-0.4,0.2-0.6
			c0-0.1,0.1-0.2,0.1-0.3c0.1-0.2,0.1-0.4,0.2-0.6c0.1-0.2,0.1-0.4,0.2-0.6c0-0.1,0.1-0.2,0.1-0.3c0.1-0.3,0.2-0.6,0.4-0.9
			c0,0,0,0,0,0C224.2,297.3,220.5,296.2,217,295z"/>
		<g id="XMLID_3294_">
			<g id="XMLID_3305_">
				<path id="XMLID_3308_" class="st23" d="M248.5,433.9h7.4c15.1,0,27.4,12.2,27.4,27.4v7.8c0,2.3-0.4,4.6-1.1,6.7
					c-0.8,2.4-2,4.7-3.5,6.6c-2.2,2.8-5,5-8.3,6.5c-2.6,1.2-5.6,1.8-8.7,1.8h-13.2c-5,0-9.1-4.1-9.1-9.1V443c0-2.7,1.2-5.2,3.1-6.9
					C244.1,434.7,246.2,433.9,248.5,433.9z"/>
				<path id="XMLID_3307_" class="st246" d="M239.4,443.1l39.2,39.2c-2.2,2.8-5,5-8.3,6.5l-30.9-30.9V443.1z"/>
				<path id="XMLID_3306_" class="st246" d="M248.5,433.9h6.6l28.2,28.1v7c0,2.3-0.4,4.6-1.1,6.7l-39.6-39.6
					C244.1,434.7,246.2,433.9,248.5,433.9z"/>
			</g>
			<g id="XMLID_3301_">
				<path id="XMLID_3304_" class="st23" d="M248.5,415.9h7.4c15.1,0,27.4-12.2,27.4-27.4v-7.8c0-2.3-0.4-4.6-1.1-6.7
					c-0.8-2.4-2-4.7-3.5-6.6c-2.2-2.8-5-5-8.3-6.5c-2.6-1.2-5.6-1.8-8.7-1.8h-13.2c-5,0-9.1,4.1-9.1,9.1v38.5c0,2.7,1.2,5.2,3.1,6.9
					C244.1,415,246.2,415.9,248.5,415.9z"/>
				<path id="XMLID_3303_" class="st246" d="M239.4,406.6l39.2-39.2c-2.2-2.8-5-5-8.3-6.5l-30.9,30.9V406.6z"/>
				<path id="XMLID_3302_" class="st246" d="M248.5,415.9h6.6l28.2-28.1v-7c0-2.3-0.4-4.6-1.1-6.7l-39.6,39.6
					C244.1,415,246.2,415.9,248.5,415.9z"/>
			</g>
			<path id="XMLID_3295_" class="st73" d="M255.8,418.8c1,0,2.1,0,3.1-0.2c2.3-0.2,4.6-0.8,6.7-1.5c4.8-1.7,9-4.6,12.3-8.4
				c3.9-4.5,6.5-10.2,7.1-16.5c0.1-0.9,0.1-1.8,0.1-2.7v-7.8c0-0.1,0-0.2,0-0.4c0-2.4-0.4-4.7-1.1-6.9c-0.9-2.6-2.2-5.1-3.9-7.2
				c-1.7-2.2-3.9-4.1-6.3-5.6c-0.9-0.5-1.8-1-2.8-1.4c-0.9-0.4-1.8-0.7-2.7-1c-2.2-0.7-4.4-1-6.8-1h-13.2c-0.5,0-1,0-1.6,0.1
				c-1.7,0.2-3.3,0.9-4.7,1.8c0,0-0.1,0-0.1,0.1c-2.1,1.4-3.6,3.6-4.3,6.1c-0.3,1-0.4,2-0.4,3v38.5c0,2.2,0.7,4.4,1.9,6.1
				c-3.5,7.5-3.7,14.9-0.4,22.5c-0.8,1.3-1.2,2.8-1.4,4.3c-0.1,0.4-0.1,0.8-0.1,1.2v38.5c0,1,0.1,2,0.4,2.9c0,0,0,0,0,0
				c0.2,0.9,0.6,1.7,1,2.5c1.7,2.9,4.6,5,8.1,5.5c0,0,0,0,0.1,0c0.5,0.1,1,0.1,1.5,0.1h13.2c2.5,0,4.9-0.4,7.2-1.1
				c0.8-0.2,1.5-0.5,2.2-0.8c1.2-0.5,2.4-1.2,3.5-1.9c0,0,0,0,0,0c2.1-1.4,4-3.1,5.6-5.1c1-1.2,1.8-2.6,2.5-4c0.5-1,1-2.1,1.3-3.2
				c0.8-2.3,1.1-4.8,1.1-7.3v-7.8c0-0.8,0-1.6-0.1-2.4c0-0.2,0-0.3-0.1-0.5c-0.6-5.8-2.8-11-6.2-15.3c-3.4-4.3-8-7.6-13.3-9.5
				c-1.6-0.6-3.2-1-4.9-1.2c-1.6-0.3-3.2-0.4-4.8-0.4h-5.5v-12.1H255.8z M256,434.9c2.2,0,4.3,0.3,6.3,0.8h0c1.6,0.4,3.1,1,4.6,1.7
				c7.1,3.4,12.3,10,13.8,17.9c0,0,0,0.1,0,0.1c0.3,1.5,0.4,3,0.5,4.6v8c0,2-0.3,4-0.9,5.9c0,0.1,0,0.1-0.1,0.2
				c-0.5,1.6-1.2,3.1-2.1,4.5c-0.3,0.5-0.7,1-1.1,1.5c-0.1,0.1-0.2,0.2-0.3,0.4c-1.6,1.9-3.5,3.6-5.8,4.8c0,0,0,0,0,0v0
				c-0.5,0.2-0.9,0.5-1.4,0.7c-0.5,0.2-1,0.4-1.5,0.6h0c-0.8,0.3-1.7,0.5-2.6,0.7c-1.2,0.2-2.5,0.4-3.8,0.4h-13.2
				c-3.9,0-7.1-3.2-7.1-7.1V442c0-1.4,0.4-2.8,1.2-3.9l1.2-0.6c0-0.1-0.1-0.1-0.1-0.2c-0.1-0.1-0.1-0.2-0.2-0.3
				c0.1-0.1,0.2-0.2,0.3-0.3c1.3-1.1,3-1.7,4.7-1.7H256z M241.3,369.3c0-3.9,3.2-7.1,7.1-7.1h13.2c2.2,0,4.4,0.4,6.4,1.1
				c0.5,0.2,1,0.3,1.5,0.6c0.2,0.1,0.5,0.2,0.7,0.3c2.5,1.2,4.7,3,6.5,5.2v0c0.1,0.1,0.2,0.2,0.3,0.4c1.4,1.8,2.5,3.8,3.2,6
				c0,0.1,0,0.1,0.1,0.2v0c0.6,1.9,0.9,3.9,0.9,5.9v8c0,1.8-0.2,3.5-0.6,5.1c-0.8,3.7-2.4,7.1-4.6,10.1c-2.4,3.1-5.4,5.7-9,7.4
				c-2.4,1.2-5.1,2-7.9,2.4c-1.1,0.1-2.1,0.2-3.2,0.2h-7.5c-1.7,0-3.4-0.6-4.7-1.7c-0.2-0.1-0.3-0.3-0.4-0.4v0c-1.3-1.3-2-3.1-2-5
				V369.3z M242.2,416.9c1.3,0.9,2.7,1.5,4.2,1.7v12.4c-1.7,0.3-3.3,1-4.6,2C239.9,427.7,240,422.4,242.2,416.9z"/>
		</g>
		<path id="XMLID_2628_" class="st16" d="M200.8,342.4V506c-6.6-1.4-13.1-3.1-19.4-5.1c-4.1-1.2-8.1-2.6-12.1-4c-4-1.4-8-3-11.9-4.6
			c-9.8-4.1-19.2-8.8-28.4-14v-92.3c0-4.2,0.6-8.3,1.7-12.1c0.3-1.1,0.7-2.2,1.1-3.2c0.4-1.1,0.8-2.1,1.3-3.1
			c1.7-3.6,3.8-6.9,6.3-9.9c0.7-0.8,1.5-1.7,2.3-2.5c0.6-0.6,1.2-1.2,1.9-1.8c1.4-1.3,3-2.5,4.6-3.6c0.8-0.5,1.5-1,2.3-1.5
			c2.6-1.5,5.3-2.8,8.2-3.8c1.1-0.4,2.2-0.7,3.4-1c1.7-0.4,3.5-0.8,5.2-1c1.8-0.2,3.6-0.3,5.4-0.3H200.8z"/>
		<path id="XMLID_2591_" class="st16" d="M378.2,386.1V481c-11.7,6.4-24.1,11.9-36.8,16.4c-4,1.4-8,2.7-12.1,3.9
			c-5.2,1.5-10.4,2.9-15.7,4.1V342.4h20.9C358.7,342.4,378.2,362,378.2,386.1z"/>
		<path id="XMLID_2633_" class="st110" d="M181.4,440.9V501c-4.1-1.2-8.1-2.6-12.1-4v-56.1c0-3.3,2.7-6,6-6c1.7,0,3.2,0.7,4.3,1.8
			C180.7,437.7,181.4,439.2,181.4,440.9z"/>
		<path id="XMLID_2634_" class="st110" d="M341.4,440.9v56.5c-4,1.4-8,2.7-12.1,3.9v-60.5c0-3.3,2.7-6,6-6c1.7,0,3.2,0.7,4.3,1.8
			C340.7,437.7,341.4,439.2,341.4,440.9z"/>
		<path id="XMLID_2635_" class="st110" d="M201.2,342.4c-0.4,0-0.8,0-1.1,0c-23.6,0.6-42.6,19.9-42.6,43.7v106.2
			c-9.8-4.1-19.2-8.8-28.4-14v-92.3c0-4.2,0.6-8.3,1.7-12.1c0.3-1.1,0.7-2.2,1.1-3.2c0.4-1.1,0.8-2.1,1.3-3.1
			c1.7-3.6,3.8-6.9,6.3-9.9c0.7-0.8,1.5-1.7,2.3-2.5c0.6-0.6,1.2-1.2,1.9-1.8c1.4-1.3,3-2.5,4.6-3.6c0.8-0.5,1.5-1,2.3-1.5
			c2.6-1.5,5.3-2.8,8.2-3.8c1.1-0.4,2.2-0.7,3.4-1c1.7-0.4,3.5-0.8,5.2-1c1.8-0.2,3.6-0.3,5.4-0.3H201.2z"/>
		<path id="XMLID_3288_" class="st71" d="M320.6,203.2c-5.5-5.5-14.5-5.5-20,0"/>
	</g>
</g>
</svg>
