<?xml version="1.0" encoding="utf-8"?>
<!-- Generator: Adobe Illustrator 22.0.1, SVG Export Plug-In . SVG Version: 6.00 Build 0)  -->
<svg version="1.1" xmlns="http://www.w3.org/2000/svg" xmlns:xlink="http://www.w3.org/1999/xlink" x="0px" y="0px"
	 viewBox="0 0 512 512" style="enable-background:new 0 0 512 512;" xml:space="preserve">
<style type="text/css">
	.st0{fill:#E9B12D;}
	.st1{fill:#A9E7D8;}
	.st2{fill:#76CFB1;}
	.st3{fill:#AE6B5D;}
	.st4{fill:#7770D3;}
	.st5{fill:#5BA0F5;}
	.st6{fill:#DA4545;}
	.st7{fill:#89CCFC;}
	.st8{fill:#CD462A;}
	.st9{fill:#514896;}
	.st10{fill:#5493A0;}
	.st11{fill:#CC6B5C;}
	.st12{fill:#62AA8D;}
	.st13{fill:#8ABAAB;}
	.st14{fill:#C3791F;}
	.st15{fill:#E39123;}
	.st16{fill:#FFFFFF;}
	.st17{fill:none;stroke:#FFFFFF;stroke-width:10;stroke-linecap:round;stroke-miterlimit:10;}
	.st18{fill:none;stroke:#5F55AB;stroke-width:10;stroke-linecap:round;stroke-miterlimit:10;}
	.st19{fill:#A9671C;}
	.st20{fill:#D5B3A7;}
	.st21{fill:#C09A8F;}
	.st22{fill:#487F87;}
	.st23{fill:#1B305C;}
	.st24{fill:#172945;}
	.st25{fill:none;}
	.st26{fill:#B62A2A;}
	.st27{fill:#325859;}
	.st28{fill:#3F6E71;}
	.st29{fill:#284646;}
	.st30{fill:#8F2727;}
	.st31{fill:#29477C;}
	.st32{fill:#5B9BEE;}
	.st33{fill:#487FDE;}
	.st34{fill:#CD9829;}
	.st35{fill:#9F2A2A;}
	.st36{fill:#4C3328;}
	.st37{fill:#E8B94A;}
	.st38{fill:#DDF8F1;}
	.st39{fill:#3E2A22;}
	.st40{fill:#D3A971;}
	.st41{fill:#C79A5B;}
	.st42{fill:#233E76;}
	.st43{fill:#21395F;}
	.st44{fill:#487D82;}
	.st45{fill:none;stroke:#C79A5B;stroke-width:10;stroke-linecap:round;stroke-miterlimit:10;}
	.st46{fill:#5E3E31;}
	.st47{fill:#AC3939;}
	.st48{fill:#CA9628;}
	.st49{fill:#AF8F88;}
	.st50{fill:#815048;}
	.st51{fill:#6F4232;}
	.st52{fill:#5F55AB;}
	.st53{fill:#192A48;}
	.st54{fill:#152336;}
	.st55{fill:#192B49;}
	.st56{fill:#264173;}
	.st57{fill:#B06F1E;}
	.st58{fill:#4E88C0;}
	.st59{fill:#83C3F1;}
	.st60{fill:#CF9929;}
	.st61{fill:none;stroke:#FFFFFF;stroke-width:10;stroke-linecap:round;stroke-linejoin:round;stroke-miterlimit:10;}
	.st62{fill:#EAC262;}
	.st63{fill:#D6D5D4;}
	.st64{fill:#6BBA9B;}
	.st65{fill:#63AA8F;}
	.st66{fill:none;stroke:#3E2A22;stroke-width:10;stroke-linecap:round;stroke-miterlimit:10;}
	.st67{fill:#CA7D1F;}
	.st68{fill:#213B64;}
	.st69{fill:#CDF8EC;}
	.st70{fill:#C59125;}
	.st71{fill:none;stroke:#C09A8F;stroke-width:10;stroke-linecap:round;stroke-miterlimit:10;}
	.st72{fill:#32579B;}
	.st73{fill:#172843;}
	.st74{fill:#D66767;}
	.st75{fill:#A74949;}
	.st76{fill:#EBC76F;}
	.st77{fill:#7A4940;}
	.st78{fill:#182A48;}
	.st79{fill:none;stroke:#A0794A;stroke-width:10;stroke-linecap:round;stroke-miterlimit:10;}
	.st80{fill:#C37A20;}
	.st81{fill:#D26D5C;}
	.st82{fill:#A45752;}
	.st83{fill:#284579;}
	.st84{fill:#88C7F4;}
	.st85{fill:#6EB6F0;}
	.st86{fill:#32221E;}
	.st87{fill:#E7A6A6;}
	.st88{fill:#C59191;}
	.st89{fill:#AA3B3B;}
	.st90{fill:#B83E3E;}
	.st91{fill:none;stroke:#5F55A9;stroke-width:10;stroke-linecap:round;stroke-miterlimit:10;}
	.st92{fill:#963838;}
	.st93{fill:#402B25;}
	.st94{fill:#6B6ABA;}
	.st95{fill:#BABABA;}
	.st96{fill:#D1D1D1;}
	.st97{fill:#264377;}
	.st98{fill:#A19BF5;}
	.st99{fill:#3C2A21;}
	.st100{fill:none;stroke:#4C3328;stroke-width:10;stroke-linecap:round;stroke-miterlimit:10;}
	.st101{fill:#C1781F;}
	.st102{fill:#E3A147;}
	.st103{fill:#F2D2A1;}
	.st104{fill:#4F372D;}
	.st105{fill:none;stroke:#DA4545;stroke-width:10;stroke-linecap:round;stroke-miterlimit:10;}
	.st106{fill:#AA3928;}
	.st107{fill:#8C2C22;}
	.st108{fill:#BF4336;}
	.st109{fill:#5797D4;}
	.st110{fill:#CFCFCF;}
	.st111{fill:#613A2E;}
	.st112{fill:none;stroke:#B18653;stroke-width:10;stroke-linecap:round;stroke-miterlimit:10;}
	.st113{fill:#B13B3B;}
	.st114{fill:#16263A;}
	.st115{fill:none;stroke:#16263A;stroke-width:10;stroke-miterlimit:10;}
	.st116{fill:#C87D20;}
	.st117{fill:#E4F0FD;}
	.st118{fill:#AA3737;}
	.st119{fill:#BF771F;}
	.st120{fill:none;stroke:#CD462A;stroke-width:10;stroke-linejoin:round;stroke-miterlimit:10;}
	.st121{fill:#5696D2;}
	.st122{fill:#C0771E;}
	.st123{fill:#9B5F1B;}
	.st124{fill:#A83A29;}
	.st125{fill:#E7A74F;}
	.st126{fill:#C9924C;}
	.st127{fill:#C58E48;}
	.st128{fill:#BE8844;}
	.st129{fill:#916939;}
	.st130{fill:#264275;}
	.st131{fill:#253F65;}
	.st132{fill:#182A45;}
	.st133{fill:#162336;}
	.st134{fill:#93C7B7;}
	.st135{fill:#E6A4A4;}
	.st136{fill:#B06B1D;}
	.st137{fill:#484185;}
	.st138{fill:#DB6E6E;}
	.st139{fill:#6BBA9A;}
	.st140{fill:#CACCCC;}
	.st141{fill:#D4D4D4;}
	.st142{fill:#A98881;}
	.st143{fill:#213A62;}
	.st144{fill:#A2837D;}
	.st145{fill:#6FB8F4;}
	.st146{fill:#9B9E9E;}
	.st147{fill:#B2B3B3;}
	.st148{fill:#20385D;}
	.st149{fill:#335AA8;}
	.st150{fill:#BCE7FD;}
	.st151{fill:#3B2921;}
	.st152{fill:#AD3C3C;}
	.st153{fill:#9D3838;}
	.st154{fill:#603F33;}
	.st155{fill:#4D868B;}
	.st156{fill:#A2DDFD;}
	.st157{fill:#ECB6B6;}
	.st158{fill:#E8A346;}
	.st159{fill:#514C94;}
	.st160{fill:#D2F1E8;}
	.st161{fill:#BDD6CE;}
	.st162{fill:#B93B29;}
	.st163{fill:#E0AD70;}
	.st164{fill:#C57C21;}
	.st165{fill:#EDA34A;}
	.st166{fill:#2F538F;}
	.st167{fill:#2B4B78;}
	.st168{fill:#65AF91;}
	.st169{fill:#A7CEFC;}
	.st170{fill:#98BDE2;}
	.st171{fill:#CFE5F7;}
	.st172{fill:#5492CD;}
	.st173{fill:#97CCBC;}
	.st174{fill:#5491CA;}
	.st175{fill:#EDC563;}
	.st176{fill:#423C79;}
	.st177{fill:#D3B1A5;}
	.st178{fill:#BE988D;}
	.st179{fill:#A7E5D6;}
	.st180{fill:#F2FFF9;}
	.st181{fill:#D64545;}
	.st182{fill:#A73B3B;}
	.st183{fill:#15233A;}
	.st184{fill:none;stroke:#BE988D;stroke-width:10;stroke-linecap:round;stroke-miterlimit:10;}
	.st185{fill:#AF3A29;}
	.st186{fill:#FAF9FF;}
	.st187{fill:#CACACC;}
	.st188{fill:#372720;}
	.st189{fill:#3F2C26;}
	.st190{fill:#2D201C;}
	.st191{fill:#3D6D6F;}
	.st192{fill:#5B54A8;}
	.st193{fill:#325799;}
	.st194{fill:#E8C26E;}
	.st195{fill:#254784;}
	.st196{fill:#5696D4;}
	.st197{fill:#4F8AB6;}
	.st198{fill:#5FA4AC;}
	.st199{fill:#AA3524;}
	.st200{fill:#D15F4D;}
	.st201{fill:#2B294C;}
	.st202{fill:#A43A2A;}
	.st203{fill:#E7AE2D;}
	.st204{fill:#CD9729;}
	.st205{fill:none;stroke:#AA8253;stroke-width:10;stroke-linecap:round;stroke-miterlimit:10;}
	.st206{fill:none;stroke:#E18F23;stroke-width:10;stroke-linecap:round;stroke-linejoin:round;stroke-miterlimit:10;}
	.st207{fill:#CF9828;}
	.st208{fill:#B88926;}
	.st209{fill:#A17623;}
	.st210{fill:#96CCBC;}
	.st211{fill:#CF9A2A;}
	.st212{fill:#C57B20;}
	.st213{fill:#C7F1E6;}
	.st214{fill:#DC6363;}
	.st215{fill:#E89F9F;}
	.st216{fill:#C88C8C;}
	.st217{fill:#C16E6E;}
	.st218{fill:#A46060;}
	.st219{fill:#AA3626;}
	.st220{fill:#87EDC4;}
	.st221{fill:#D86552;}
	.st222{fill:#BC7620;}
	.st223{fill:#BA741E;}
	.st224{fill:#8F8CE3;}
	.st225{fill:#3A2820;}
	.st226{fill:#AC7060;}
	.st227{fill:#915F55;}
	.st228{fill:#49332A;}
	.st229{fill:#2D1F1B;}
	.st230{fill:#69B7BE;}
	.st231{fill:#D6D6D6;}
	.st232{fill:#B8B8B8;}
	.st233{fill:#CACACA;}
	.st234{fill:#467B80;}
	.st235{fill:#C2EDE2;}
	.st236{fill:#A9574F;}
	.st237{fill:#5595D2;}
	.st238{fill:#955949;}
	.st239{fill:#7E4B42;}
	.st240{fill:#89CCF1;}
	.st241{fill:#DD584A;}
	.st242{fill:#C18F26;}
	.st243{fill:#B33C2A;}
	.st244{fill:#D1A771;}
	.st245{fill:#B42A2A;}
	.st246{fill:#325797;}
	.st247{fill:#9F3529;}
	.st248{fill:#EDCE80;}
	.st249{fill:#F0DBAC;}
	.st250{fill:#CFB478;}
	.st251{fill:#D4C29B;}
	.st252{fill:#993939;}
	.st253{fill:#D1AFA3;}
	.st254{fill:#BC968B;}
	.st255{fill:none;stroke:#BC968B;stroke-width:10;stroke-linecap:round;stroke-miterlimit:10;}
	.st256{fill:#814C3C;}
	.st257{fill:#C0EBE0;}
	.st258{fill:#A5E3D4;}
	.st259{fill:#15243C;}
	.st260{fill:#443E79;}
	.st261{fill:#F0FFF7;}
	.st262{fill:#9A764B;}
	.st263{fill:#826443;}
	.st264{fill:#D9AA74;}
	.st265{fill:#5DA186;}
	.st266{fill:#68B596;}
	.st267{fill:#E5C6BE;}
	.st268{fill:#D3B6B1;}
	.st269{fill:none;stroke:#BAA09C;stroke-width:10;stroke-linecap:round;stroke-miterlimit:10;}
	.st270{fill:#F4D78F;}
	.st271{fill:#20385F;}
	.st272{fill:#BA8727;}
	.st273{fill:#5A9C82;}
	.st274{fill:none;stroke:#E39123;stroke-width:10;stroke-linecap:round;stroke-linejoin:round;stroke-miterlimit:10;}
	.st275{fill:#60392D;}
	.st276{fill:#CCCCCC;}
	.st277{fill:#844F3E;}
	.st278{fill:#F3FFFB;}
	.st279{fill:#365E60;}
	.st280{fill:#D84545;}
	.st281{fill:#A83B3B;}
	.st282{fill:#253F70;}
	.st283{fill:#EAADAD;}
	.st284{fill:#443E7C;}
	.st285{fill:#3D6B9F;}
	.st286{fill:#4274BC;}
	.st287{fill:#AF3827;}
	.st288{fill:#E59D9D;}
	.st289{fill:#C48989;}
	.st290{fill:none;stroke:#9B621A;stroke-width:10;stroke-linecap:round;stroke-linejoin:round;stroke-miterlimit:10;}
	.st291{fill:#213A5E;}
	.st292{fill:#2D507A;}
	.st293{fill:#528EC8;}
	.st294{fill:#EFD696;}
	.st295{fill:#D1BA87;}
	.st296{fill:#FDFCFC;}
	.st297{fill:#86CBFC;}
	.st298{fill:#7AB7DA;}
	.st299{fill:#192C4C;}
	.st300{fill:#BCBCBC;}
	.st301{fill:#A13838;}
	.st302{fill:#75BDF6;}
	.st303{fill:#D0B1AA;}
	.st304{fill:#142233;}
	.st305{fill:#E6C4BB;}
	.st306{fill:#BDBDBD;}
	.st307{fill:#E8A192;}
	.st308{fill:#A43939;}
	.st309{fill:#162640;}
	.st310{fill:#27457C;}
	.st311{fill:#EFBE5E;}
	.st312{fill:#87EDC5;}
	.st313{fill:#A03838;}
	.st314{fill:#833232;}
	.st315{fill:#47417F;}
	.st316{fill:none;stroke:#915F55;stroke-width:10;stroke-linecap:round;stroke-miterlimit:10;}
	.st317{fill:#BC8B25;}
	.st318{fill:#473129;}
	.st319{fill:#67B394;}
	.st320{fill:#599A80;}
	.st321{fill:#B13D3D;}
</style>
<g id="BULINE">
	<circle id="XMLID_2532_" class="st2" cx="256" cy="256" r="256"/>
	<g>
	</g>
</g>
<g id="Icons">
	<g>
		<g id="XMLID_2921_">
			<path id="XMLID_3246_" class="st312" d="M469,166.8c0,61.6-26,117.1-67.6,156.1c-4.2,4-8.7,7.8-13.2,11.4
				c-1.7,1.4-3.5,2.7-5.2,4.1c-8.8,6.5-18,12.4-27.7,17.5c-7.7,4.1-15.6,7.7-23.8,10.8c-6.3,2.4-12.8,4.5-19.4,6.4
				c-15.6,4.3-32,6.9-48.9,7.5c-2.7,0.1-5.3,0.1-8,0.1c-2.2,0-4.3,0-6.4-0.1c-8.1-0.2-16.1-0.9-23.9-2c-10.6-1.5-21-3.8-31.1-6.8
				c-7-2.1-13.8-4.5-20.5-7.3c-14.8-6.1-28.7-13.9-41.6-23c-2.1-1.5-4.1-3-6.1-4.5c-11.5-8.8-22.2-18.7-31.7-29.7
				C60.9,269.8,41,220.6,41,166.8c0-22.1,3.4-43.5,9.6-63.6C97.3,40.5,171.9,0,256,0c82,0,155.1,38.6,201.9,98.6
				C465.1,120,469,142.9,469,166.8z"/>
			<g id="XMLID_2922_">
				<path id="XMLID_3025_" class="st313" d="M403.9,155.9v140.9c0,74.7-60.5,135.2-135.2,135.2H125.4V140.2
					c0-50.5,28.5-94.3,70.2-116.3c18.3-9.6,39.1-15.1,61.2-15.1c40.6,0,77.4,16.5,104,43.1C387.4,78.5,403.9,115.3,403.9,155.9z"/>
				<path id="XMLID_3023_" class="st314" d="M277.7,155.9v140.9c0,74.7-60.5,135.2-135.2,135.2h-17.2V140.2
					c0-50.5,28.5-94.3,70.2-116.3c14.5,7.2,27.7,16.7,39,28C261.3,78.5,277.7,115.3,277.7,155.9z"/>
				<path id="XMLID_3019_" class="st226" d="M265.9,337.5h-15c-12,0-21.8-9.7-21.8-21.8v-35.8c0-12,9.7-21.8,21.8-21.8h15
					c12,0,21.8,9.7,21.8,21.8v35.8C287.7,327.8,277.9,337.5,265.9,337.5z"/>
				<path id="XMLID_3017_" class="st227" d="M268.7,337.3c-1,0.2-2.1,0.2-3.1,0.2h-15c-12,0-21.8-9.7-21.8-21.8V280
					c0-12,9.7-21.8,21.8-21.8h15c1.1,0,2.1,0.1,3.1,0.2C258.1,259.9,250,269,250,280v35.8C250,326.7,258.1,335.8,268.7,337.3z"/>
				<path id="XMLID_3126_" class="st226" d="M391,364.7v108.8c-3.7,2.3-7.5,4.5-11.4,6.7c-7.9,4.4-16.1,8.3-24.5,11.9
					c-7.8,3.3-15.7,6.2-23.8,8.6c-6.4,2-12.8,3.7-19.4,5.1c-15.1,3.4-30.7,5.4-46.7,6c-0.7,0-1.5,0.1-2.2,0.1c-0.5,0-0.9,0-1.4,0
					c-1.9,0-3.7,0.1-5.6,0.1c-2.5,0-5,0-7.5-0.1c-44.9-1.3-86.9-14.1-123.1-35.7V364.7c0-8.4,2.2-16.3,6.1-23.1
					c4.7-8.1,11.7-14.7,20.2-18.9c4.5-2.2,9.4-3.6,14.6-4.3c1.9-0.2,3.8-0.4,5.7-0.4h172.5c3.7,0,7.3,0.4,10.7,1.2
					c11.5,2.7,21.3,9.6,27.7,19c3.6,5.2,6.1,11.2,7.3,17.7C390.8,358.9,391,361.7,391,364.7z"/>
				<path id="XMLID_3118_" class="st9" d="M391,349v124.5c-3.7,2.3-7.5,4.5-11.4,6.7c-7.9,4.4-16.1,8.3-24.5,11.9
					c-7.8,3.3-15.7,6.2-23.8,8.6c-6.4,2-12.8,3.7-19.4,5.1c-15.1,3.4-30.7,5.4-46.7,6c-0.7,0-1.5,0.1-2.2,0.1c-0.5,0-0.9,0-1.4,0
					c-1.9,0-3.7,0.1-5.6,0.1c-2.5,0-5,0-7.5-0.1c-44.9-1.3-86.9-14.1-123.1-35.7v-97.6h133.2c1.5,0,3-0.1,4.4-0.3
					c17.2-2.2,30.6-16.9,30.6-34.7v-24.5c0-0.4,0-0.7,0.1-1.1c0.5-4.3,4.2-7.7,8.7-7.7h50c0.9,0,1.9,0,2.8,0.1
					c14.9,1.1,27.5,10.6,33,23.8C390,338.9,391,343.8,391,349z"/>
				<path id="XMLID_3067_" class="st315" d="M263,378.4v133.6c-0.5,0-0.9,0-1.4,0c-1.9,0-3.7,0.1-5.6,0.1c-2.5,0-5,0-7.5-0.1
					c-44.9-1.3-86.9-14.1-123.1-35.7v-97.6h133.2C260.1,378.6,261.6,378.5,263,378.4z"/>
				<path id="XMLID_3016_" class="st226" d="M378.8,163.1c-2.7-3.7-7-6.2-12-6.2h-2.4l-90.8-49.2c-9.7-5.2-21.3-5.2-31,0L152,157v0
					h0h-2c-4.6,0-8.8,2.2-11.5,5.5c-2,2.5-3.2,5.7-3.2,9.1v14c0,8.1,6.6,14.7,14.7,14.7h2.7c0,0,0,0,0,0c1,9.1,3.2,17.8,6.3,26
					c0,0.1,0,0.1,0.1,0.2c0.3,0.7,0.5,1.4,0.8,2c0,0.1,0.1,0.2,0.1,0.3c0.3,0.7,0.5,1.3,0.8,1.9c0,0.1,0.1,0.2,0.1,0.3
					c0.3,0.6,0.6,1.3,0.9,1.9c0.1,0.1,0.1,0.2,0.2,0.3c0.3,0.6,0.6,1.2,0.9,1.9c0.1,0.1,0.1,0.2,0.2,0.3c0.3,0.6,0.6,1.2,0.9,1.9
					c0,0.1,0.1,0.2,0.1,0.3c0.3,0.6,0.7,1.3,1,1.9c0,0.1,0.1,0.1,0.1,0.2c2.2,4.1,4.7,8,7.5,11.7c0.1,0.1,0.1,0.2,0.2,0.3
					c0.4,0.5,0.7,1,1.1,1.5c0.1,0.2,0.3,0.3,0.4,0.5c0.3,0.4,0.7,0.9,1,1.3c0.2,0.2,0.3,0.4,0.5,0.6c0.3,0.4,0.7,0.8,1,1.2
					c0.2,0.2,0.4,0.5,0.6,0.7c0.3,0.4,0.7,0.8,1,1.1c0.2,0.2,0.4,0.5,0.6,0.7c0.3,0.4,0.7,0.7,1,1.1c0.2,0.2,0.5,0.5,0.7,0.7
					c0.3,0.3,0.7,0.7,1,1c0.2,0.3,0.5,0.5,0.7,0.8c0.3,0.3,0.6,0.7,1,1c0.3,0.3,0.5,0.5,0.8,0.8c0.3,0.3,0.6,0.6,1,0.9
					c0.3,0.3,0.6,0.5,0.8,0.8c0.3,0.3,0.6,0.6,1,0.9c0.3,0.3,0.6,0.5,0.9,0.8c0.3,0.3,0.6,0.6,0.9,0.8c0.3,0.3,0.7,0.6,1,0.9
					c0.3,0.2,0.6,0.5,0.8,0.7c0.5,0.4,1.1,0.9,1.6,1.3c0.2,0.2,0.4,0.3,0.6,0.5c0.6,0.4,1.1,0.9,1.7,1.3c0.2,0.2,0.4,0.3,0.7,0.5
					c0.4,0.3,0.9,0.7,1.3,1c0.2,0.2,0.5,0.3,0.7,0.5c0.4,0.3,0.9,0.6,1.3,0.9c0.3,0.2,0.5,0.4,0.8,0.5c0.4,0.3,0.9,0.6,1.3,0.8
					c0.3,0.2,0.5,0.3,0.8,0.5c0.4,0.3,0.9,0.5,1.3,0.8c0.3,0.2,0.5,0.3,0.8,0.5c0.4,0.3,0.9,0.5,1.3,0.8c0.3,0.2,0.5,0.3,0.8,0.5
					c0.5,0.3,0.9,0.5,1.4,0.8c0.3,0.1,0.5,0.3,0.8,0.4c0.5,0.3,0.9,0.5,1.4,0.8c0.3,0.1,0.5,0.3,0.8,0.4c0.5,0.3,1,0.5,1.5,0.7
					c0.2,0.1,0.5,0.2,0.7,0.4c0.5,0.3,1.1,0.5,1.6,0.7c0.2,0.1,0.4,0.2,0.7,0.3c0.6,0.3,1.2,0.5,1.7,0.8c0.2,0.1,0.4,0.2,0.6,0.2
					c0.7,0.3,1.4,0.6,2,0.8c0.1,0,0.2,0.1,0.3,0.1c2.4,0.9,4.8,1.8,7.3,2.6c0.1,0,0.1,0,0.2,0.1c0.7,0.2,1.5,0.5,2.2,0.7
					c0.2,0,0.3,0.1,0.5,0.1c0.7,0.2,1.3,0.4,2,0.5c0.2,0.1,0.4,0.1,0.6,0.2c0.6,0.2,1.2,0.3,1.9,0.5c0.2,0.1,0.5,0.1,0.7,0.2
					c0.6,0.1,1.2,0.3,1.8,0.4c0.2,0.1,0.5,0.1,0.7,0.1c0.6,0.1,1.2,0.2,1.8,0.3c0.2,0,0.5,0.1,0.7,0.1c0.6,0.1,1.2,0.2,1.8,0.3
					c0.2,0,0.5,0.1,0.7,0.1c0.6,0.1,1.2,0.2,1.9,0.3c0.2,0,0.5,0.1,0.7,0.1c0.6,0.1,1.3,0.2,1.9,0.2c0.2,0,0.5,0,0.7,0.1
					c0.7,0.1,1.4,0.1,2,0.2c0.2,0,0.4,0,0.6,0c0.8,0.1,1.5,0.1,2.3,0.1c0.1,0,0.2,0,0.3,0c1.8,0.1,3.6,0.1,5.4,0.1
					c0.1,0,0.2,0,0.2,0c1.4,0,2.8,0,4.2-0.1c0.2,0,0.4,0,0.6,0c1.4-0.1,2.8-0.2,4.2-0.3c0.2,0,0.4,0,0.6-0.1
					c1.4-0.1,2.7-0.3,4.1-0.5c0.2,0,0.4-0.1,0.6-0.1c1.4-0.2,2.7-0.4,4.1-0.6c0.1,0,0.2,0,0.3-0.1c0,0,0,0,0,0
					c45.8-8.2,81.4-45.8,86.6-92.6h3.1c8.1,0,14.7-6.6,14.7-14.7v-14C381.5,168.5,380.5,165.5,378.8,163.1z"/>
				<path id="XMLID_3015_" class="st225" d="M258.8,8.1h-0.2c-66.3,0-120.1,53.8-120.1,120.1v34.4c2.7-3.4,6.8-5.5,11.5-5.5h2l0,0
					l90.6-49.2c9.7-5.2,21.3-5.3,31,0l90.8,49.2h2.4c4.9,0,9.3,2.4,12,6.2v-35C378.8,61.8,325.1,8.1,258.8,8.1z"/>
				<path id="XMLID_3014_" class="st227" d="M270.7,293.9c-0.9,0.1-1.8,0.2-2.7,0.3c-0.2,0-0.4,0-0.6,0.1c-1.4,0.1-2.8,0.2-4.2,0.3
					c-0.2,0-0.4,0-0.5,0c-1.4,0.1-2.8,0.1-4.2,0.1c-0.1,0-0.2,0-0.2,0c-1.8,0-3.6-0.1-5.4-0.1c-0.1,0-0.2,0-0.4,0
					c-0.8,0-1.5-0.1-2.3-0.1c-0.2,0-0.4,0-0.6,0c-0.7-0.1-1.4-0.1-2-0.2c-0.2,0-0.5-0.1-0.7-0.1c-0.6-0.1-1.3-0.1-1.9-0.2
					c-0.2,0-0.5-0.1-0.7-0.1c-0.6-0.1-1.2-0.2-1.9-0.3c-0.3,0-0.5-0.1-0.7-0.1c-0.6-0.1-1.2-0.2-1.8-0.3c-0.2,0-0.5-0.1-0.7-0.1
					c-0.6-0.1-1.2-0.2-1.8-0.3c-0.3-0.1-0.5-0.1-0.7-0.2c-0.6-0.1-1.2-0.3-1.8-0.4c-0.2-0.1-0.5-0.1-0.7-0.2
					c-0.6-0.1-1.2-0.3-1.9-0.5c-0.2-0.1-0.4-0.1-0.6-0.2c-0.7-0.2-1.3-0.4-2-0.5c-0.2,0-0.3-0.1-0.5-0.1c-0.7-0.2-1.5-0.4-2.2-0.7
					c-0.1,0-0.1,0-0.2-0.1c-2.5-0.8-4.9-1.6-7.3-2.6c-0.1,0-0.2-0.1-0.3-0.1c-0.7-0.3-1.4-0.5-2-0.8c-0.2-0.1-0.4-0.2-0.5-0.2
					c-0.6-0.2-1.2-0.5-1.7-0.8c-0.2-0.1-0.4-0.2-0.7-0.3c-0.5-0.2-1.1-0.5-1.6-0.7c-0.2-0.1-0.5-0.2-0.7-0.4c-0.5-0.2-1-0.5-1.5-0.7
					c-0.3-0.1-0.5-0.3-0.8-0.4c-0.5-0.2-1-0.5-1.4-0.8c-0.3-0.1-0.5-0.3-0.8-0.4c-0.5-0.3-0.9-0.5-1.4-0.8c-0.3-0.2-0.5-0.3-0.8-0.5
					c-0.4-0.3-0.9-0.5-1.3-0.8c-0.3-0.2-0.5-0.3-0.8-0.5c-0.4-0.3-0.9-0.5-1.3-0.8c-0.3-0.2-0.5-0.3-0.8-0.5
					c-0.4-0.3-0.9-0.6-1.3-0.8c-0.3-0.2-0.5-0.3-0.8-0.5c-0.4-0.3-0.9-0.6-1.3-0.9c-0.3-0.2-0.5-0.3-0.8-0.5c-0.4-0.3-0.9-0.6-1.3-1
					c-0.2-0.2-0.4-0.3-0.7-0.5c-0.6-0.4-1.1-0.9-1.7-1.3c-0.2-0.2-0.4-0.3-0.6-0.5c-0.5-0.4-1.1-0.8-1.6-1.3
					c-0.3-0.2-0.6-0.5-0.8-0.7c-0.3-0.3-0.7-0.6-1-0.9c-0.3-0.3-0.6-0.5-0.9-0.8c-0.3-0.3-0.6-0.5-0.9-0.8c-0.3-0.3-0.6-0.6-1-0.9
					c-0.3-0.3-0.5-0.5-0.8-0.8c-0.3-0.3-0.6-0.6-1-0.9c-0.3-0.3-0.5-0.5-0.8-0.8c-0.3-0.3-0.7-0.7-1-1c-0.2-0.3-0.5-0.5-0.7-0.8
					c-0.3-0.3-0.7-0.7-1-1c-0.2-0.2-0.5-0.5-0.7-0.7c-0.3-0.4-0.7-0.7-1-1.1c-0.2-0.2-0.4-0.5-0.6-0.7c-0.3-0.4-0.7-0.8-1-1.2
					c-0.2-0.2-0.4-0.4-0.6-0.7c-0.3-0.4-0.7-0.8-1-1.2c-0.2-0.2-0.3-0.4-0.5-0.6c-0.4-0.4-0.7-0.9-1-1.3c-0.1-0.2-0.3-0.3-0.4-0.5
					c-0.4-0.5-0.7-1-1.1-1.5c-0.1-0.1-0.1-0.2-0.2-0.3c-2.7-3.7-5.2-7.6-7.5-11.7c0-0.1-0.1-0.1-0.1-0.2c-0.3-0.6-0.7-1.2-1-1.9
					c-0.1-0.1-0.1-0.2-0.1-0.3c-0.3-0.6-0.6-1.2-0.9-1.9c-0.1-0.1-0.1-0.2-0.2-0.3c-0.3-0.6-0.6-1.2-0.9-1.9
					c-0.1-0.1-0.1-0.2-0.2-0.3c-0.3-0.6-0.6-1.3-0.9-1.9c0-0.1-0.1-0.2-0.1-0.3c-0.3-0.7-0.6-1.3-0.8-1.9c0-0.1-0.1-0.2-0.1-0.3
					c-0.3-0.7-0.5-1.4-0.8-2c0-0.1,0-0.1-0.1-0.2c-3.2-8.2-5.3-16.9-6.3-26v0H150c-8.1,0-14.7-6.6-14.7-14.7v-14.1
					c0-3.5,1.2-6.6,3.2-9.1c2.7-3.4,6.8-5.5,11.5-5.5h2l35.5-19.3C194,205.4,226,263,270.7,293.9z"/>
				<path id="XMLID_3013_" class="st229" d="M186.3,112.3c0,8.6,0.4,17.1,1.2,25.4L152,157h-2c-4.7,0-8.8,2.2-11.5,5.5v-34.4
					c0-46,25.9-86,64-106.2C192.1,49.2,186.3,79.9,186.3,112.3z"/>
				<circle id="XMLID_3011_" class="st23" cx="206" cy="171.5" r="14.6"/>
				<circle id="XMLID_3009_" class="st16" cx="209.8" cy="166.8" r="6.4"/>
				<circle id="XMLID_3006_" class="st23" cx="308.2" cy="171.5" r="14.6"/>
				<circle id="XMLID_3002_" class="st16" cx="311.9" cy="166.8" r="6.4"/>
				<path id="XMLID_3001_" class="st227" d="M264.5,205h-13.1c-4.3,0-7.8-3.5-7.8-7.8v0c0-4.3,3.5-7.8,7.8-7.8h13.1
					c4.3,0,7.8,3.5,7.8,7.8v0C272.3,201.5,268.8,205,264.5,205z"/>
				<path id="XMLID_3134_" class="st6" d="M248.5,511.9c-44.9-1.3-86.9-14.1-123.1-35.7c-16.5-9.8-31.7-21.3-45.5-34.4l13.8-134.4
					L111.2,137c2.6-25,13.2-48.2,29.1-67.6c17.1-20.8,35.5-34.2,49.5-42.2c0.2-0.1,0.4-0.2,0.6-0.3c1.8-1,3.6-2,5.3-2.9
					c2.9-1.5,5.6-2.8,7.8-3.8c0.3-0.1,0.6-0.3,0.9-0.4c4.6-2,7.5-3,8.1-3.2c0.1,0,0.1,0,0.1,0l-0.7,1l-7.8,11l-7.3,10.2L145,111.9
					l0.2,45.8l0.2,41.8l0.5,111.5l5.9,11.6l21.4,41.8l7.2,14.1l20.5,40.1l6.8,13.2L248.5,511.9z"/>
				<g id="XMLID_2997_">
					<path id="XMLID_3085_" class="st0" d="M265.2,511.8c-0.7,0-1.5,0.1-2.2,0.1c-0.5,0-0.9,0-1.4,0c-1.9,0-3.7,0.1-5.6,0.1
						c-2.5,0-5,0-7.5-0.1L207.6,432l-6.8-13.2l-20.5-40.1l-7.2-14.1l-21.4-41.8l-5.9-11.6c-0.5-1-0.8-2.2-0.8-3.4V111.9
						c0-1.3,0.3-2.6,1-3.7l51.1-70.4l0,0l6.8-9.4l7.9-10.9v0h0l0.7-1l1.1,0.2c0,0,0,0,0,0c2.1,1.2,1.5,1.3,0.2,3.5l-6.1,10.5
						l-16.1,27.9l0,0l-31.9,55.3v192l6.4,12.5l27.3,53.4l3.5,6.8l16.9,33l10.4,20.4l38.6,75.5L265.2,511.8z"/>
				</g>
				<circle id="XMLID_2996_" class="st6" cx="257.9" cy="128.8" r="9.2"/>
				<path id="XMLID_2995_" class="st316" d="M243.5,225c0,8,6.5,14.4,14.4,14.4c8,0,14.4-6.5,14.4-14.4"/>
				<line id="XMLID_2964_" class="st316" x1="248.7" y1="255.1" x2="267.1" y2="255.1"/>
				<g id="XMLID_2950_">
					<path id="XMLID_2962_" class="st0" d="M349.2,234.6c0,11,8.9,19.9,19.9,19.9s19.9-8.9,19.9-19.9s-8.9-39.1-19.9-39.1
						S349.2,223.6,349.2,234.6z"/>
					<path id="XMLID_2956_" class="st317" d="M359.6,229.6c0,5.2,4.3,9.5,9.5,9.5s9.5-4.3,9.5-9.5s-4.3-18.7-9.5-18.7
						S359.6,224.4,359.6,229.6z"/>
				</g>
				<path id="XMLID_3095_" class="st51" d="M355.2,307.2v184.9c-7.8,3.3-15.7,6.2-23.8,8.6c-6.4,2-12.8,3.7-19.4,5.1V307.2
					c0-1.6,0.4-3.1,1.1-4.4c0.1-0.3,0.3-0.5,0.5-0.8c0.1-0.1,0.2-0.2,0.3-0.4c0.3-0.4,0.6-0.7,0.9-1c1.7-1.7,4-2.7,6.6-2.7h24.6
					C351,297.9,355.2,302,355.2,307.2z"/>
				<path id="XMLID_3080_" class="st36" d="M340.6,297.9c-5.1,0-9.3,4.2-9.3,9.3v193.6c-6.4,2-12.8,3.7-19.4,5.1V307.2
					c0-1.6,0.4-3.1,1.1-4.4c0.1-0.3,0.3-0.5,0.5-0.8c0.1-0.1,0.2-0.2,0.3-0.4c0.3-0.4,0.6-0.7,0.9-1c1.7-1.7,4-2.7,6.6-2.7H340.6z"
					/>
				<path id="XMLID_2943_" class="st226" d="M380.4,407.2l-34.8,35.3L319.7,417c-9.8-9.6-9.9-25.3-0.3-35.1l0,0
					c9.6-9.8,25.3-9.9,35.1-0.3L380.4,407.2z"/>
				<path id="XMLID_2924_" class="st227" d="M325,377.7c-5.1,9.5-3.6,21.5,4.5,29.4l25.9,25.5l-9.8,9.9L319.7,417
					c-9.8-9.6-9.9-25.3-0.3-35.1C321.1,380.2,323,378.8,325,377.7z"/>
				<path id="XMLID_3075_" class="st9" d="M427.2,446.3c-11.2,10.1-23.3,19.2-36.2,27.2c-3.7,2.3-7.5,4.5-11.4,6.7l-24.5-24.5
					l-14.6-14.6l1.8-1.8l9.8-9.8l2.9-2.9l22.3-22.3l3.9-3.9l9.7,9.7l36,36C427.1,446.1,427.2,446.2,427.2,446.3z"/>
			</g>
		</g>
		<path id="XMLID_3143_" class="st318" d="M317.6,36.2c8.8,4.4,21.2,13.1,28.3,29.5c1.6,3.6-2.2,7.3-5.7,5.6l0,0
			c-2.3-1.1-4.7,1.3-3.7,3.6c1.5,3.4,3.3,7.7,4.9,12.1c1.6,4.5-4.2,7.8-7.3,4.2c-8.2-9.6-20.4-20.8-33.1-22.4
			c-1.4-0.2-2.2-1.8-1.4-3c1.8-2.9,5.4-7.3,11.1-8.9c5.1-1.4,8.4-6.5,7.3-11.6c-0.4-2-1.3-4.1-2.8-6.3
			C314,37.5,315.8,35.3,317.6,36.2z"/>
	</g>
</g>
</svg>
