<?xml version="1.0" encoding="utf-8"?>
<!-- Generator: Adobe Illustrator 22.0.1, SVG Export Plug-In . SVG Version: 6.00 Build 0)  -->
<svg version="1.1" xmlns="http://www.w3.org/2000/svg" xmlns:xlink="http://www.w3.org/1999/xlink" x="0px" y="0px"
	 viewBox="0 0 512 512" style="enable-background:new 0 0 512 512;" xml:space="preserve">
<style type="text/css">
	.st0{fill:#E9B12D;}
	.st1{fill:#A9E7D8;}
	.st2{fill:#76CFB1;}
	.st3{fill:#AE6B5D;}
	.st4{fill:#7770D3;}
	.st5{fill:#5BA0F5;}
	.st6{fill:#DA4545;}
	.st7{fill:#89CCFC;}
	.st8{fill:#CD462A;}
	.st9{fill:#514896;}
	.st10{fill:#5493A0;}
	.st11{fill:#CC6B5C;}
	.st12{fill:#62AA8D;}
	.st13{fill:#8ABAAB;}
	.st14{fill:#C3791F;}
	.st15{fill:#E39123;}
	.st16{fill:#FFFFFF;}
	.st17{fill:none;stroke:#FFFFFF;stroke-width:10;stroke-linecap:round;stroke-miterlimit:10;}
	.st18{fill:none;stroke:#5F55AB;stroke-width:10;stroke-linecap:round;stroke-miterlimit:10;}
	.st19{fill:#A9671C;}
	.st20{fill:#D5B3A7;}
	.st21{fill:#C09A8F;}
	.st22{fill:#487F87;}
	.st23{fill:#1B305C;}
	.st24{fill:#172945;}
	.st25{fill:none;}
	.st26{fill:#B62A2A;}
	.st27{fill:#325859;}
	.st28{fill:#3F6E71;}
	.st29{fill:#284646;}
	.st30{fill:#8F2727;}
	.st31{fill:#29477C;}
	.st32{fill:#5B9BEE;}
	.st33{fill:#487FDE;}
	.st34{fill:#CD9829;}
	.st35{fill:#9F2A2A;}
	.st36{fill:#4C3328;}
	.st37{fill:#E8B94A;}
	.st38{fill:#DDF8F1;}
	.st39{fill:#3E2A22;}
	.st40{fill:#D3A971;}
	.st41{fill:#C79A5B;}
	.st42{fill:#233E76;}
	.st43{fill:#21395F;}
	.st44{fill:#487D82;}
	.st45{fill:none;stroke:#C79A5B;stroke-width:10;stroke-linecap:round;stroke-miterlimit:10;}
	.st46{fill:#5E3E31;}
	.st47{fill:#AC3939;}
	.st48{fill:#CA9628;}
	.st49{fill:#AF8F88;}
	.st50{fill:#815048;}
	.st51{fill:#6F4232;}
	.st52{fill:#5F55AB;}
	.st53{fill:#192A48;}
	.st54{fill:#152336;}
	.st55{fill:#192B49;}
	.st56{fill:#264173;}
	.st57{fill:#B06F1E;}
	.st58{fill:#4E88C0;}
	.st59{fill:#83C3F1;}
	.st60{fill:#CF9929;}
	.st61{fill:none;stroke:#FFFFFF;stroke-width:10;stroke-linecap:round;stroke-linejoin:round;stroke-miterlimit:10;}
	.st62{fill:#EAC262;}
	.st63{fill:#D6D5D4;}
	.st64{fill:#6BBA9B;}
	.st65{fill:#63AA8F;}
	.st66{fill:none;stroke:#3E2A22;stroke-width:10;stroke-linecap:round;stroke-miterlimit:10;}
	.st67{fill:#CA7D1F;}
	.st68{fill:#213B64;}
	.st69{fill:#CDF8EC;}
	.st70{fill:#C59125;}
	.st71{fill:none;stroke:#C09A8F;stroke-width:10;stroke-linecap:round;stroke-miterlimit:10;}
	.st72{fill:#32579B;}
	.st73{fill:#172843;}
	.st74{fill:#D66767;}
	.st75{fill:#A74949;}
	.st76{fill:#EBC76F;}
	.st77{fill:#7A4940;}
	.st78{fill:#182A48;}
	.st79{fill:none;stroke:#A0794A;stroke-width:10;stroke-linecap:round;stroke-miterlimit:10;}
	.st80{fill:#C37A20;}
	.st81{fill:#D26D5C;}
	.st82{fill:#A45752;}
	.st83{fill:#284579;}
	.st84{fill:#88C7F4;}
	.st85{fill:#6EB6F0;}
	.st86{fill:#32221E;}
	.st87{fill:#E7A6A6;}
	.st88{fill:#C59191;}
	.st89{fill:#AA3B3B;}
	.st90{fill:#B83E3E;}
	.st91{fill:none;stroke:#5F55A9;stroke-width:10;stroke-linecap:round;stroke-miterlimit:10;}
	.st92{fill:#963838;}
	.st93{fill:#402B25;}
	.st94{fill:#6B6ABA;}
	.st95{fill:#BABABA;}
	.st96{fill:#D1D1D1;}
	.st97{fill:#264377;}
	.st98{fill:#A19BF5;}
	.st99{fill:#3C2A21;}
	.st100{fill:none;stroke:#4C3328;stroke-width:10;stroke-linecap:round;stroke-miterlimit:10;}
	.st101{fill:#C1781F;}
	.st102{fill:#E3A147;}
	.st103{fill:#F2D2A1;}
	.st104{fill:#4F372D;}
	.st105{fill:none;stroke:#DA4545;stroke-width:10;stroke-linecap:round;stroke-miterlimit:10;}
	.st106{fill:#AA3928;}
	.st107{fill:#8C2C22;}
	.st108{fill:#BF4336;}
	.st109{fill:#5797D4;}
	.st110{fill:#CFCFCF;}
	.st111{fill:#613A2E;}
	.st112{fill:none;stroke:#B18653;stroke-width:10;stroke-linecap:round;stroke-miterlimit:10;}
	.st113{fill:#B13B3B;}
	.st114{fill:#16263A;}
	.st115{fill:none;stroke:#16263A;stroke-width:10;stroke-miterlimit:10;}
	.st116{fill:#C87D20;}
	.st117{fill:#E4F0FD;}
	.st118{fill:#AA3737;}
	.st119{fill:#BF771F;}
	.st120{fill:none;stroke:#CD462A;stroke-width:10;stroke-linejoin:round;stroke-miterlimit:10;}
	.st121{fill:#5696D2;}
	.st122{fill:#C0771E;}
	.st123{fill:#9B5F1B;}
	.st124{fill:#A83A29;}
	.st125{fill:#E7A74F;}
	.st126{fill:#C9924C;}
	.st127{fill:#C58E48;}
	.st128{fill:#BE8844;}
	.st129{fill:#916939;}
	.st130{fill:#264275;}
	.st131{fill:#253F65;}
	.st132{fill:#182A45;}
	.st133{fill:#162336;}
	.st134{fill:#93C7B7;}
	.st135{fill:#E6A4A4;}
	.st136{fill:#B06B1D;}
	.st137{fill:#484185;}
	.st138{fill:#DB6E6E;}
	.st139{fill:#6BBA9A;}
	.st140{fill:#CACCCC;}
	.st141{fill:#D4D4D4;}
	.st142{fill:#A98881;}
	.st143{fill:#213A62;}
	.st144{fill:#A2837D;}
	.st145{fill:#6FB8F4;}
	.st146{fill:#9B9E9E;}
	.st147{fill:#B2B3B3;}
	.st148{fill:#20385D;}
	.st149{fill:#335AA8;}
	.st150{fill:#BCE7FD;}
	.st151{fill:#3B2921;}
	.st152{fill:#AD3C3C;}
	.st153{fill:#9D3838;}
	.st154{fill:#603F33;}
	.st155{fill:#4D868B;}
	.st156{fill:#A2DDFD;}
	.st157{fill:#ECB6B6;}
	.st158{fill:#E8A346;}
	.st159{fill:#514C94;}
	.st160{fill:#D2F1E8;}
	.st161{fill:#BDD6CE;}
	.st162{fill:#B93B29;}
	.st163{fill:#E0AD70;}
	.st164{fill:#C57C21;}
	.st165{fill:#EDA34A;}
	.st166{fill:#2F538F;}
	.st167{fill:#2B4B78;}
	.st168{fill:#65AF91;}
	.st169{fill:#A7CEFC;}
	.st170{fill:#98BDE2;}
	.st171{fill:#CFE5F7;}
	.st172{fill:#5492CD;}
	.st173{fill:#97CCBC;}
	.st174{fill:#5491CA;}
	.st175{fill:#EDC563;}
	.st176{fill:#423C79;}
	.st177{fill:#D3B1A5;}
	.st178{fill:#BE988D;}
	.st179{fill:#A7E5D6;}
	.st180{fill:#F2FFF9;}
	.st181{fill:#D64545;}
	.st182{fill:#A73B3B;}
	.st183{fill:#15233A;}
	.st184{fill:none;stroke:#BE988D;stroke-width:10;stroke-linecap:round;stroke-miterlimit:10;}
	.st185{fill:#AF3A29;}
	.st186{fill:#FAF9FF;}
	.st187{fill:#CACACC;}
	.st188{fill:#372720;}
	.st189{fill:#3F2C26;}
	.st190{fill:#2D201C;}
	.st191{fill:#3D6D6F;}
	.st192{fill:#5B54A8;}
	.st193{fill:#325799;}
	.st194{fill:#E8C26E;}
	.st195{fill:#254784;}
	.st196{fill:#5696D4;}
	.st197{fill:#4F8AB6;}
	.st198{fill:#5FA4AC;}
	.st199{fill:#AA3524;}
	.st200{fill:#D15F4D;}
	.st201{fill:#2B294C;}
	.st202{fill:#A43A2A;}
	.st203{fill:#E7AE2D;}
	.st204{fill:#CD9729;}
	.st205{fill:none;stroke:#AA8253;stroke-width:10;stroke-linecap:round;stroke-miterlimit:10;}
	.st206{fill:none;stroke:#E18F23;stroke-width:10;stroke-linecap:round;stroke-linejoin:round;stroke-miterlimit:10;}
	.st207{fill:#CF9828;}
	.st208{fill:#B88926;}
	.st209{fill:#A17623;}
	.st210{fill:#96CCBC;}
	.st211{fill:#CF9A2A;}
	.st212{fill:#C57B20;}
	.st213{fill:#C7F1E6;}
	.st214{fill:#DC6363;}
	.st215{fill:#E89F9F;}
	.st216{fill:#C88C8C;}
	.st217{fill:#C16E6E;}
	.st218{fill:#A46060;}
	.st219{fill:#AA3626;}
	.st220{fill:#87EDC4;}
	.st221{fill:#D86552;}
	.st222{fill:#BC7620;}
	.st223{fill:#BA741E;}
	.st224{fill:#8F8CE3;}
	.st225{fill:#3A2820;}
	.st226{fill:#AC7060;}
	.st227{fill:#915F55;}
	.st228{fill:#49332A;}
	.st229{fill:#2D1F1B;}
	.st230{fill:#69B7BE;}
	.st231{fill:#D6D6D6;}
	.st232{fill:#B8B8B8;}
	.st233{fill:#CACACA;}
	.st234{fill:#467B80;}
	.st235{fill:#C2EDE2;}
	.st236{fill:#A9574F;}
	.st237{fill:#5595D2;}
	.st238{fill:#955949;}
	.st239{fill:#7E4B42;}
	.st240{fill:#89CCF1;}
	.st241{fill:#DD584A;}
	.st242{fill:#C18F26;}
	.st243{fill:#B33C2A;}
	.st244{fill:#D1A771;}
	.st245{fill:#B42A2A;}
	.st246{fill:#325797;}
	.st247{fill:#9F3529;}
	.st248{fill:#EDCE80;}
	.st249{fill:#F0DBAC;}
	.st250{fill:#CFB478;}
	.st251{fill:#D4C29B;}
	.st252{fill:#993939;}
	.st253{fill:#D1AFA3;}
	.st254{fill:#BC968B;}
	.st255{fill:none;stroke:#BC968B;stroke-width:10;stroke-linecap:round;stroke-miterlimit:10;}
	.st256{fill:#814C3C;}
	.st257{fill:#C0EBE0;}
	.st258{fill:#A5E3D4;}
	.st259{fill:#15243C;}
	.st260{fill:#443E79;}
	.st261{fill:#F0FFF7;}
	.st262{fill:#9A764B;}
	.st263{fill:#826443;}
	.st264{fill:#D9AA74;}
	.st265{fill:#5DA186;}
	.st266{fill:#68B596;}
	.st267{fill:#E5C6BE;}
	.st268{fill:#D3B6B1;}
	.st269{fill:none;stroke:#BAA09C;stroke-width:10;stroke-linecap:round;stroke-miterlimit:10;}
	.st270{fill:#F4D78F;}
	.st271{fill:#20385F;}
	.st272{fill:#BA8727;}
	.st273{fill:#5A9C82;}
	.st274{fill:none;stroke:#E39123;stroke-width:10;stroke-linecap:round;stroke-linejoin:round;stroke-miterlimit:10;}
	.st275{fill:#60392D;}
	.st276{fill:#CCCCCC;}
	.st277{fill:#844F3E;}
	.st278{fill:#F3FFFB;}
	.st279{fill:#365E60;}
	.st280{fill:#D84545;}
	.st281{fill:#A83B3B;}
	.st282{fill:#253F70;}
	.st283{fill:#EAADAD;}
	.st284{fill:#443E7C;}
	.st285{fill:#3D6B9F;}
	.st286{fill:#4274BC;}
	.st287{fill:#AF3827;}
	.st288{fill:#E59D9D;}
	.st289{fill:#C48989;}
	.st290{fill:none;stroke:#9B621A;stroke-width:10;stroke-linecap:round;stroke-linejoin:round;stroke-miterlimit:10;}
	.st291{fill:#213A5E;}
	.st292{fill:#2D507A;}
	.st293{fill:#528EC8;}
	.st294{fill:#EFD696;}
	.st295{fill:#D1BA87;}
	.st296{fill:#FDFCFC;}
	.st297{fill:#86CBFC;}
	.st298{fill:#7AB7DA;}
	.st299{fill:#192C4C;}
	.st300{fill:#BCBCBC;}
	.st301{fill:#A13838;}
	.st302{fill:#75BDF6;}
	.st303{fill:#D0B1AA;}
	.st304{fill:#142233;}
	.st305{fill:#E6C4BB;}
	.st306{fill:#BDBDBD;}
	.st307{fill:#E8A192;}
	.st308{fill:#A43939;}
	.st309{fill:#162640;}
	.st310{fill:#27457C;}
	.st311{fill:#EFBE5E;}
	.st312{fill:#87EDC5;}
	.st313{fill:#A03838;}
	.st314{fill:#833232;}
	.st315{fill:#47417F;}
	.st316{fill:none;stroke:#915F55;stroke-width:10;stroke-linecap:round;stroke-miterlimit:10;}
	.st317{fill:#BC8B25;}
	.st318{fill:#473129;}
	.st319{fill:#67B394;}
	.st320{fill:#599A80;}
	.st321{fill:#B13D3D;}
</style>
<g id="BULINE">
	<circle id="XMLID_1450_" class="st5" cx="256" cy="256" r="256"/>
	<g>
	</g>
</g>
<g id="Icons">
	<g id="XMLID_1451_">
		<path id="XMLID_1514_" class="st84" d="M220.6,92.8h-15.3l-58.2-42.7c-2.3-1.7-5.1-2.6-8-2.6h-8c-12.2,0-18.1,14.9-9.2,23.2
			l23.5,22.1h-34l-14.2-21c-1.5-2.2-4-3.5-6.6-3.5h0c-4.4,0-8,3.6-8,8v16.5v20.5c0,13.3,10.8,24,24,24h25.4L109,159.1
			c-8.9,8.3-3,23.2,9.2,23.2h8c2.9,0,5.7-0.9,8-2.6l57.8-42.4h59.2c3.9,0,7-3.1,7-7v0C258.2,109.6,241.4,92.8,220.6,92.8z"/>
		<path id="XMLID_1671_" class="st85" d="M460.1,410.6c-13.7,18.1-29.8,34.3-47.8,48.2c-15.3,11.8-32,22-49.9,30.1
			c-5.3,2.5-10.8,4.7-16.3,6.8c-0.7,0.3-1.4,0.5-2.2,0.8c-4.7,1.7-9.4,3.3-14.2,4.7c-22.9,6.9-47.2,10.7-72.4,10.8
			c-0.4,0-0.9,0-1.3,0c-7.3,0-14.5-0.3-21.6-0.9c-5.5-0.5-10.9-1.1-16.3-1.9c-5.5-0.8-11-1.8-16.3-3c-6.9-1.5-13.7-3.2-20.3-5.3
			c-1.8-0.5-3.7-1.1-5.5-1.7c-0.3-0.1-0.6-0.2-0.9-0.3c-8-2.7-15.8-5.7-23.4-9.1c-0.2-0.1-0.4-0.2-0.7-0.3
			c-8.1-3.7-16-7.7-23.6-12.2c-12.6-7.4-24.6-15.8-35.7-25.1c-7.7-6.4-15-13.3-21.9-20.6c2.3-10.3,5.4-20.2,9.2-29.8
			c0.7-1.7,1.3-3.3,2-5c0.6-1.4,1.2-2.8,1.8-4.1c0-0.1,0.1-0.1,0.1-0.2c0.6-1.4,1.2-2.7,1.9-4.1c0,0,0,0,0,0
			c2.2-4.6,4.6-9.2,7.2-13.6c0.9-1.6,1.9-3.2,2.8-4.7c0,0,0-0.1,0.1-0.1c3.1-5.1,6.5-10,10-14.8c8.4-11.3,18-21.8,28.6-31.1
			c1.7-1.5,3.4-2.9,5.1-4.4c6.9-5.7,14.1-10.9,21.7-15.7c2.7-1.7,5.4-3.3,8.2-4.9c6.2-3.5,12.7-6.7,19.3-9.5
			c10.4-4.5,21.3-8.1,32.6-10.8c10.2-2.4,20.6-4.1,31.3-4.9c0.4,0,0.7-0.1,1.1-0.1c5-0.4,10-0.6,15-0.6s10.1,0.2,15,0.6
			c10.8,0.8,21.4,2.4,31.6,4.8c19.4,4.5,37.6,11.9,54.4,21.5c10.8,6.2,20.9,13.3,30.3,21.3C426.8,344.9,448.1,375.6,460.1,410.6z"/>
		<path id="XMLID_4150_" class="st86" d="M299.2,78.9h-36.7c-56.9,0-103,46.1-103,103v44.4v13.8v63.8c0,23.8,19.3,43,43,43h70h0.5
			h15.1h0.4h70.5c23.8,0,43-19.3,43-43v-63.8v-13.8v-44.4C402.2,125,356.1,78.9,299.2,78.9z"/>
		<path id="XMLID_1493_" class="st50" d="M289.2,386.2h-14.8c-11.8,0-21.4-9.6-21.4-21.4v-35.2c0-11.8,9.6-21.4,21.4-21.4h14.8
			c11.8,0,21.4,9.6,21.4,21.4v35.2C310.6,376.7,301,386.2,289.2,386.2z"/>
		<path id="XMLID_1492_" class="st51" d="M291.9,386c-1,0.2-2,0.2-3.1,0.2H274c-11.8,0-21.4-9.6-21.4-21.4v-35.2
			c0-11.8,9.6-21.4,21.4-21.4h14.8c1.1,0,2.1,0.1,3.1,0.2c-10.3,1.5-18.3,10.4-18.3,21.2v35.2C273.6,375.6,281.5,384.5,291.9,386z"
			/>
		<path id="XMLID_1588_" class="st87" d="M412.2,412.9v45.9c-15.3,11.8-32,22-49.9,30.1c-5.3,2.5-10.8,4.7-16.3,6.8
			c-0.7,0.3-1.4,0.5-2.2,0.8c-4.7,1.7-9.4,3.3-14.2,4.7c-22.9,6.9-47.2,10.7-72.4,10.8c-0.4,0-0.9,0-1.3,0c-7.3,0-14.5-0.3-21.6-0.9
			c-5.5-0.5-10.9-1.1-16.3-1.9c-5.5-0.8-11-1.8-16.3-3c-6.9-1.5-13.7-3.2-20.3-5.3c-1.8-0.5-3.7-1.1-5.5-1.7
			c-0.3-0.1-0.6-0.2-0.9-0.3c-8-2.7-15.8-5.7-23.4-9.1c-0.2-0.1-0.4-0.2-0.7-0.3v-76.6c0-5.3,0.9-10.4,2.6-15.2c1-2.8,2.2-5.4,3.7-8
			c1.2-2,2.5-3.9,3.9-5.7c2.2-2.7,4.6-5.1,7.4-7.2c7.8-6.1,17.6-9.8,28.3-9.8h169.6c2.6,0,5.1,0.2,7.6,0.6
			C395.7,371.4,412.2,390.2,412.2,412.9z"/>
		<path id="XMLID_1541_" class="st88" d="M227.2,367.1c-2.8,0-5.5,0.2-8.2,0.7c-0.3,0.1-0.6,0.1-0.9,0.2c-6,1.2-11.5,3.6-16.4,6.8
			c-12.3,8.2-20.3,22.2-20.3,38.1v88c-1.8-0.5-3.7-1.1-5.5-1.7c-0.3-0.1-0.6-0.2-0.9-0.3c-8-2.7-15.8-5.7-23.4-9.1v-76.9
			c0-5.3,0.9-10.4,2.6-15.2c1-2.9,2.3-5.6,3.8-8.2c0.9-1.6,2-3.1,3.1-4.6c2.2-2.8,4.6-5.3,7.4-7.5c7.9-6.4,18-10.3,28.9-10.3H227.2z
			"/>
		<path id="XMLID_1554_" class="st42" d="M234.4,368.8v142.3c-5.5-0.5-10.9-1.1-16.3-1.9c-5.5-0.8-11-1.8-16.3-3V368.8
			c0-0.6,0-1.1,0.1-1.7c0.8-5.3,5.4-9.4,11-9.4h10.5c0.2,0,0.4,0,0.6,0c0.2,0,0.3,0,0.4,0c0.6,0,1.1,0.1,1.7,0.3c0,0,0.1,0,0.1,0
			c4.2,1.1,7.4,4.6,8.1,9C234.4,367.7,234.4,368.2,234.4,368.8z"/>
		<path id="XMLID_1548_" class="st68" d="M226.2,358.1c-4.2,1.1-7.4,4.7-8,9c0,0.3-0.1,0.6-0.1,0.9c0,0.3,0,0.5,0,0.8v140.4
			c-5.5-0.8-11-1.8-16.3-3V368.8c0-0.6,0-1.1,0.1-1.7c0.8-5.3,5.4-9.4,11-9.4h10.5c0.2,0,0.4,0,0.6,0c0.2,0,0.3,0,0.4,0
			c0.6,0,1.1,0.1,1.7,0.3C226.2,358.1,226.2,358.1,226.2,358.1C226.2,358.1,226.2,358.1,226.2,358.1z"/>
		<path id="XMLID_1504_" class="st6" d="M230.5,472.7h-25.5c-5.8,0-10.5-4.7-10.5-10.5v-40.3c0-5.8,4.7-10.5,10.5-10.5h25.5
			c5.8,0,10.5,4.7,10.5,10.5v40.3C241,468,236.3,472.7,230.5,472.7z"/>
		<path id="XMLID_1503_" class="st89" d="M226.4,462.2h-16.8c-3.8,0-6.9-3.1-6.9-6.9v-26.5c0-3.8,3.1-6.9,6.9-6.9h16.8
			c3.8,0,6.9,3.1,6.9,6.9v26.5C233.3,459.1,230.3,462.2,226.4,462.2z"/>
		<path id="XMLID_1549_" class="st42" d="M362.4,368.8v120.1c-5.3,2.5-10.8,4.7-16.3,6.8c-0.7,0.3-1.4,0.5-2.2,0.8
			c-4.7,1.7-9.4,3.3-14.2,4.7V368.8c0-0.6,0-1.1,0.1-1.7c0.8-5.3,5.4-9.4,10.9-9.4h10.5c0.2,0,0.4,0,0.6,0c0.2,0,0.3,0,0.4,0
			c0.6,0,1.1,0.1,1.7,0.3c0,0,0.1,0,0.1,0c4.2,1.1,7.4,4.6,8.1,9C362.4,367.7,362.4,368.2,362.4,368.8z"/>
		<path id="XMLID_1544_" class="st68" d="M354.2,358.1c-4.2,1.1-7.4,4.7-8,9c-0.1,0.5-0.1,1.1-0.1,1.7v126.9
			c-0.7,0.3-1.4,0.5-2.2,0.8c-4.7,1.7-9.4,3.3-14.2,4.7V368.8c0-0.6,0-1.1,0.1-1.7c0.8-5.3,5.4-9.4,10.9-9.4h10.5c0.2,0,0.4,0,0.6,0
			c0.2,0,0.3,0,0.4,0c0.6,0,1.1,0.1,1.7,0.3C354.1,358.1,354.2,358.1,354.2,358.1C354.2,358.1,354.2,358.1,354.2,358.1z"/>
		<path id="XMLID_1500_" class="st6" d="M358.5,472.7H333c-5.8,0-10.5-4.7-10.5-10.5v-40.3c0-5.8,4.7-10.5,10.5-10.5h25.5
			c5.8,0,10.5,4.7,10.5,10.5v40.3C369,468,364.3,472.7,358.5,472.7z"/>
		<path id="XMLID_1499_" class="st89" d="M354.4,462.2h-16.8c-3.8,0-6.9-3.1-6.9-6.9v-26.5c0-3.8,3.1-6.9,6.9-6.9h16.8
			c3.8,0,6.9,3.1,6.9,6.9v26.5C361.3,459.1,358.2,462.2,354.4,462.2z"/>
		<path id="XMLID_1498_" class="st50" d="M281.8,472.7L281.8,472.7c-22.5,0-40.8-18.3-40.8-40.8v-64.8h81.6v64.8
			C322.6,454.4,304.3,472.7,281.8,472.7z"/>
		<path id="XMLID_1497_" class="st84" d="M492,280.5c0-7.9-6.4-14.3-14.3-14.3c-1.3,0-2.6,0.2-3.9,0.5c-2.4-8.1-9.9-13.9-18.7-13.9
			c-8.9,0-16.4,5.9-18.8,14c-1.3-0.4-2.8-0.6-4.3-0.6c-7.9,0-14.3,6.4-14.3,14.3c0,7.9,6.4,14.3,14.3,14.3h49.1v-0.4
			C487.3,292.8,492,287.2,492,280.5z"/>
		<path id="XMLID_1495_" class="st84" d="M92,211c0-7.9-6.4-14.3-14.3-14.3c-1.3,0-2.6,0.2-3.9,0.5c-2.4-8.1-9.9-13.9-18.7-13.9
			c-8.9,0-16.4,5.9-18.8,14c-1.3-0.4-2.8-0.6-4.3-0.6c-7.9,0-14.3,6.4-14.3,14.3c0,7.9,6.4,14.3,14.3,14.3h49.1v-0.4
			C87.3,223.3,92,217.7,92,211z"/>
		<path id="XMLID_1494_" class="st84" d="M381.3,54.2c0-7.9-6.4-14.3-14.3-14.3c-1.3,0-2.6,0.2-3.9,0.5c-2.4-8.1-9.9-13.9-18.7-13.9
			c-8.9,0-16.4,5.9-18.8,14c-1.3-0.4-2.8-0.6-4.3-0.6c-7.9,0-14.3,6.4-14.3,14.3c0,7.9,6.4,14.3,14.3,14.3h49.1v-0.4
			C376.7,66.5,381.3,60.9,381.3,54.2z"/>
		<path id="XMLID_1491_" class="st50" d="M388.5,211.8h-2.4v-16.3c0-18.9-5-36.6-13.8-51.9c-0.6-1.1-1.3-2.2-2-3.3
			c-1.1,1.6-2.3,3.1-3.6,4.5c0.6,1.5,0.9,3.2,0.9,5c0,7.8-6.4,14.2-14.2,14.2c-3.4,0-6.4-1.2-8.9-3.1c-2.7,2.7-6.4,4.4-10.5,4.4
			c-5.7,0-10.6-3.2-13.1-7.8c-4,5.5-10.4,9.1-17.7,9.1c-9.5,0-17.6-6.1-20.6-14.6c-2.7,2.7-6.4,4.4-10.5,4.4
			c-4.7,0-8.9-2.2-11.6-5.6c-2.6,9.1-11,15.8-21,15.8c-5,0-9.7-1.7-13.4-4.6c-2.1,1.7-4.7,2.9-7.5,3.2c-2.9,9.6-4.5,19.9-4.5,30.4
			v47.2c0,51.3,37,94,85.8,102.8c0,0,0,0,0,0c-0.3,0.1-0.6,0.1-1,0.2c-0.3,0.1-0.6,0.1-0.9,0.1c-0.6,0.1-1.2,0.2-1.7,0.3
			c-0.1,0-0.2,0-0.3,0.1c-0.8,0.1-1.6,0.2-2.4,0.3c-1.5,0.2-3,0.3-4.6,0.4h0.4c1.6-0.1,3.1-0.3,4.6-0.4c0.8-0.1,1.6-0.2,2.4-0.3
			c0.1,0,0.2,0,0.3-0.1c0.6-0.1,1.2-0.2,1.7-0.3c0.3,0,0.6-0.1,0.9-0.1c0.3-0.1,0.6-0.1,0.9-0.2c19.5-3.5,37.1-12.4,51.2-25.1
			c18.5-16.7,31-39.8,33.9-65.9h3.1c8,0,14.4-6.5,14.4-14.4v-13.8c0-3.6-1.3-6.9-3.5-9.4C396.8,213.8,392.9,211.8,388.5,211.8z"/>
		<path id="XMLID_1490_" class="st51" d="M299.8,345.6C251,336.8,214,294.1,214,242.8v-47.2c0-10.6,1.6-20.8,4.5-30.4
			c-0.6,0.1-1.2,0.1-1.9,0.1c-6.6,0-12.3-4.9-14.2-10.9c-1.3,0.6-2.4,1.4-3.7,2.1c-1,0.5-2.2,1.2-3.2,1.3c-3.1-0.1-7.1-3.2-6.4-7.4
			c0.1-0.5,0.2-1.7,0.5-2.8c0.7-0.9,0.4-1.9,0.6-2.9c-3.4,5.2-5.9,12.1-8.2,18.8c-2.3,6.7-4.1,13.6-4.8,20.1c-0.5,4-0.7,8-0.7,12.1
			v16.3h-2c-8,0-14.4,6.5-14.4,14.4v13.8c0,8,6.5,14.4,14.4,14.4h2.6c0,0.1,0,0.3,0.1,0.4c0.1,0.6,0.1,1.2,0.2,1.8
			c0,0.2,0.1,0.4,0.1,0.5c0.1,0.7,0.2,1.4,0.3,2.1c0.1,0.8,0.3,1.6,0.4,2.4c0.2,0.8,0.3,1.6,0.5,2.4c0.5,2.3,1,4.6,1.7,6.8
			c0.2,0.8,0.5,1.7,0.7,2.5c0.2,0.8,0.5,1.5,0.7,2.3c0.2,0.6,0.4,1.3,0.7,1.9c0.1,0.2,0.1,0.4,0.2,0.5c0.2,0.5,0.3,0.9,0.5,1.4
			c0.1,0.3,0.3,0.7,0.4,1c0.2,0.5,0.4,0.9,0.6,1.4c0.1,0.2,0.2,0.5,0.3,0.7c0.2,0.4,0.4,0.9,0.5,1.3c0.2,0.5,0.4,0.9,0.6,1.3
			c0.1,0.3,0.2,0.5,0.3,0.7c0.3,0.6,0.5,1.1,0.8,1.7c0.1,0.2,0.2,0.4,0.3,0.5c0.2,0.4,0.4,0.8,0.6,1.2c0.3,0.5,0.5,1,0.8,1.5
			c0,0,0,0.1,0,0.1c0.3,0.6,0.7,1.3,1,1.9c0.5,0.9,1,1.8,1.5,2.7c0.3,0.5,0.6,1,0.9,1.4c0.8,1.4,1.7,2.7,2.6,4
			c0.5,0.7,0.9,1.4,1.4,2.1c1.5,2.2,3.2,4.3,4.9,6.3c0.4,0.5,0.9,1.1,1.3,1.6c0.5,0.6,0.9,1.1,1.4,1.6c0.5,0.5,0.9,1,1.4,1.5
			c0.3,0.3,0.6,0.6,0.8,0.9c0.3,0.4,0.7,0.7,1,1c0.4,0.5,0.9,0.9,1.4,1.3c0.4,0.4,0.8,0.8,1.2,1.2c0.5,0.5,1,0.9,1.5,1.4
			c2.4,2.2,5,4.3,7.6,6.3c0.1,0,0.1,0.1,0.1,0.1c0.7,0.5,1.3,1,2,1.5c0.7,0.5,1.4,1,2.1,1.4c0.7,0.5,1.4,0.9,2.1,1.4
			c0.7,0.5,1.4,0.9,2.1,1.3c0.7,0.4,1.4,0.9,2.2,1.3c0.7,0.4,1.5,0.8,2.2,1.2c0.7,0.4,1.5,0.8,2.2,1.2c0,0,0,0,0,0
			c0.7,0.4,1.5,0.8,2.3,1.1c3,1.5,6.2,2.8,9.4,4c0.8,0.3,1.6,0.6,2.4,0.9c0.8,0.3,1.6,0.5,2.4,0.8c0.8,0.3,1.6,0.5,2.5,0.7
			c0.8,0.2,1.7,0.5,2.5,0.7c0.8,0.2,1.7,0.4,2.5,0.6c0.8,0.2,1.7,0.4,2.5,0.6c0.8,0.2,1.7,0.3,2.6,0.5c0.9,0.2,1.7,0.3,2.6,0.4
			c0.9,0.1,1.7,0.3,2.6,0.4c0.9,0.1,1.8,0.2,2.6,0.3c0.9,0.1,1.8,0.2,2.6,0.2c0.1,0,0.1,0,0.2,0h0.5H289c1.5-0.1,3.1-0.3,4.6-0.4
			c0.8-0.1,1.6-0.2,2.4-0.3c0.1,0,0.2,0,0.3-0.1c0.6-0.1,1.2-0.2,1.7-0.3c0.3,0,0.6-0.1,0.9-0.1
			C299.2,345.7,299.5,345.6,299.8,345.6C299.8,345.6,299.8,345.6,299.8,345.6z"/>
		<path id="XMLID_1488_" class="st51" d="M288.5,259.1h-12.9c-4.3,0-7.7-3.5-7.7-7.7v0c0-4.3,3.5-7.7,7.7-7.7h12.9
			c4.3,0,7.7,3.5,7.7,7.7v0C296.2,255.6,292.8,259.1,288.5,259.1z"/>
		<g id="XMLID_1484_">
			<path id="XMLID_1487_" class="st36" d="M311.7,273.8c1.6,0,2.9,1.3,2.9,2.9l0,0c0,2.9-0.4,5.8-1.1,8.5c-1.7,6.3-5.3,11.8-10,16
				c-5.7,5-13.2,8-21.4,8s-15.6-3-21.4-8c-4.8-4.2-8.3-9.7-10-16c-0.7-2.7-1.1-5.6-1.1-8.5l0,0c0-1.6,1.3-2.9,2.9-2.9H311.7z"/>
			<path id="XMLID_1486_" class="st26" d="M303.4,301.2c-5.7,5-13.2,8-21.4,8s-15.6-3-21.4-8c5.7-5,13.2-8,21.4-8
				S297.7,296.2,303.4,301.2z"/>
			<path id="XMLID_1485_" class="st16" d="M311.7,273.8c1.6,0,2.9,1.3,2.9,2.9l0,0c0,2.9-0.4,5.8-1.1,8.5h-62.8
				c-0.7-2.7-1.1-5.6-1.1-8.5l0,0c0-1.6,1.3-2.9,2.9-2.9H311.7z"/>
		</g>
		<circle id="XMLID_1483_" class="st23" cx="230.3" cy="223" r="13.4"/>
		<circle id="XMLID_1482_" class="st16" cx="233.7" cy="218.6" r="5.9"/>
		<circle id="XMLID_1481_" class="st23" cx="330.8" cy="223" r="13.4"/>
		<circle id="XMLID_1480_" class="st16" cx="334.2" cy="218.6" r="5.9"/>
		<circle id="XMLID_1477_" class="st16" cx="170.5" cy="253.9" r="7.4"/>
		<circle id="XMLID_1476_" class="st16" cx="388.5" cy="253.9" r="7.4"/>
		<g id="XMLID_1458_">
			<path id="XMLID_1474_" class="st90" d="M151.2,382.3l-63.3,21.8c-4.4,1.5-9.2-0.8-10.7-5.2L29,258.9c-1.5-4.4,0.8-9.2,5.2-10.7
				l63.3-21.8c4.4-1.5,9.2,0.8,10.7,5.2l48.2,140.1C158,376,155.6,380.8,151.2,382.3z"/>
			<g id="XMLID_1460_">
				<path id="XMLID_1473_" class="st6" d="M160.1,397.7h-67c-4.6,0-8.4-3.8-8.4-8.4V241.2c0-4.6,3.8-8.4,8.4-8.4h67
					c4.6,0,8.4,3.8,8.4,8.4v148.1C168.5,394,164.8,397.7,160.1,397.7z"/>
				<path id="XMLID_1471_" class="st26" d="M161.2,324.1v60.7c0,2.8-2.3,5.1-5.1,5.1h-59c-2.8,0-5.1-2.3-5.1-5.1v-60.7H161.2z"/>
				<path id="XMLID_1468_" class="st16" d="M119.5,258.9v5.2l-14.6,19.9c-0.6,0.8-0.9,1.7-0.9,2.7v2.7c0,4.2,5.1,6.2,7.9,3.2l7.6-8
					v11.6l-7.9,5.3c-0.3,0.2-0.5,0.6-0.5,1v2.3c0,0.7,0.5,1.2,1.2,1.2h7.2h7c4.5,0,8.2-3.7,8.2-8.2v-8.7l7.5,7.9
					c2.9,3,7.9,1,7.9-3.2v-2.7c0-1-0.3-1.9-0.9-2.7l-14.5-19.8v-20.3c0-1.3-1.1-2.4-2.4-2.4h0C125.3,246.1,119.5,251.8,119.5,258.9z
					"/>
				<line id="XMLID_1467_" class="st17" x1="92.7" y1="324.1" x2="105.3" y2="324.1"/>
				<line id="XMLID_1466_" class="st17" x1="120.4" y1="324.1" x2="133" y2="324.1"/>
				<line id="XMLID_1465_" class="st17" x1="147.5" y1="324.1" x2="160.1" y2="324.1"/>
				<line id="XMLID_1463_" class="st91" x1="104.9" y1="376.2" x2="104.9" y2="341.2"/>
				<line id="XMLID_1462_" class="st91" x1="148.8" y1="376.2" x2="148.8" y2="341.2"/>
				<line id="XMLID_1461_" class="st91" x1="126" y1="369.7" x2="126" y2="347.7"/>
			</g>
			<path id="XMLID_1459_" class="st92" d="M84.8,241.2v148.1c0,4.6,3.8,8.4,8.4,8.4h-8.4c-4.7,0-8.4-3.8-8.4-8.4V241.2
				c0-4.7,3.8-8.4,8.4-8.4h8.4C88.5,232.8,84.8,236.6,84.8,241.2z"/>
		</g>
		<path id="XMLID_1457_" class="st50" d="M138.8,433.1l-47.3,8.6l-8.5-46.5c-2.4-13.1,6.3-25.6,19.3-27.9h0
			c13.1-2.4,25.6,6.3,27.9,19.3L138.8,433.1z"/>
		<path id="XMLID_1456_" class="st51" d="M98.2,395.2l8,43.9l-14.5,2.6l-8.5-46.5c-2.4-13.1,6.3-25.6,19.3-28
			c1.5-0.3,2.9-0.4,4.3-0.4c2.6,0,5.1,0.4,7.5,1.2C103.1,371.7,96,383.2,98.2,395.2z"/>
		<path id="XMLID_1545_" class="st87" d="M175,498.9c-8-2.7-15.8-5.7-23.4-9.1c-0.2-0.1-0.4-0.2-0.7-0.3c-8.1-3.7-16-7.7-23.6-12.2
			c-12.6-7.4-24.6-15.8-35.7-25.1l-6.5-15.3c-0.7-1.6-0.6-3.4,0.1-4.9c0.1-0.3,0.3-0.5,0.4-0.8s0.3-0.5,0.5-0.7
			c0.1-0.1,0.2-0.2,0.3-0.3c0.1-0.1,0.2-0.2,0.3-0.3c0.2-0.2,0.5-0.4,0.7-0.5c0.3-0.2,0.5-0.3,0.8-0.4l0.8-0.4l0.1,0h0l13.9-5.9v0h0
			l28-11.8c1.2-0.5,2.4-0.6,3.5-0.4c1.9,0.4,3.6,1.7,4.4,3.6l1.5,3.4l10.4,24.6l0.7,1.5l0.5,1.2l0.6,1.5L175,498.9z"/>
		<path id="XMLID_1540_" class="st88" d="M110.2,436.9l0.5,1.3v0l16.6,39.1c-12.6-7.4-24.6-15.8-35.7-25.1l-6.5-15.3
			c-0.7-1.6-0.6-3.4,0.1-4.9c0.1-0.3,0.3-0.5,0.4-0.8s0.3-0.5,0.5-0.7c0.1-0.1,0.2-0.2,0.3-0.3c0.1-0.1,0.2-0.2,0.3-0.3
			c0.2-0.2,0.5-0.4,0.7-0.5c0.3-0.2,0.5-0.3,0.8-0.4l0.8-0.4l0.1,0h0l13.9-5.9v0h0l28-11.8c1.2-0.5,2.4-0.6,3.5-0.4
			c1.9,0.4,3.6,1.7,4.4,3.6l1.5,3.4l-4.2,1.8l-22.9,9.7C110.4,430.3,108.9,433.9,110.2,436.9z"/>
		<path id="XMLID_1453_" class="st93" d="M322.9,85.5c9.2,4.6,22.2,13.7,29.6,30.9c1.6,3.8-2.3,7.6-6,5.8v0
			c-2.4-1.1-4.9,1.3-3.8,3.8c1.6,3.6,3.5,8.1,5.1,12.6c1.7,4.7-4.4,8.2-7.6,4.4c-8.6-10-21.3-21.8-34.6-23.4
			c-1.5-0.2-2.3-1.8-1.5-3.1c1.9-3.1,5.7-7.7,11.6-9.3c5.3-1.4,8.8-6.8,7.7-12.2c-0.4-2.1-1.3-4.3-3-6.6
			C319.1,86.8,321,84.5,322.9,85.5z"/>
	</g>
</g>
</svg>
