<?xml version="1.0" encoding="utf-8"?>
<!-- Generator: Adobe Illustrator 22.0.1, SVG Export Plug-In . SVG Version: 6.00 Build 0)  -->
<svg version="1.1" xmlns="http://www.w3.org/2000/svg" xmlns:xlink="http://www.w3.org/1999/xlink" x="0px" y="0px"
	 viewBox="0 0 512 512" style="enable-background:new 0 0 512 512;" xml:space="preserve">
<style type="text/css">
	.st0{fill:#E9B12D;}
	.st1{fill:#A9E7D8;}
	.st2{fill:#76CFB1;}
	.st3{fill:#AE6B5D;}
	.st4{fill:#7770D3;}
	.st5{fill:#5BA0F5;}
	.st6{fill:#DA4545;}
	.st7{fill:#89CCFC;}
	.st8{fill:#CD462A;}
	.st9{fill:#514896;}
	.st10{fill:#5493A0;}
	.st11{fill:#CC6B5C;}
	.st12{fill:#62AA8D;}
	.st13{fill:#8ABAAB;}
	.st14{fill:#C3791F;}
	.st15{fill:#E39123;}
	.st16{fill:#FFFFFF;}
	.st17{fill:none;stroke:#FFFFFF;stroke-width:10;stroke-linecap:round;stroke-miterlimit:10;}
	.st18{fill:none;stroke:#5F55AB;stroke-width:10;stroke-linecap:round;stroke-miterlimit:10;}
	.st19{fill:#A9671C;}
	.st20{fill:#D5B3A7;}
	.st21{fill:#C09A8F;}
	.st22{fill:#487F87;}
	.st23{fill:#1B305C;}
	.st24{fill:#172945;}
	.st25{fill:none;}
	.st26{fill:#B62A2A;}
	.st27{fill:#325859;}
	.st28{fill:#3F6E71;}
	.st29{fill:#284646;}
	.st30{fill:#8F2727;}
	.st31{fill:#29477C;}
	.st32{fill:#5B9BEE;}
	.st33{fill:#487FDE;}
	.st34{fill:#CD9829;}
	.st35{fill:#9F2A2A;}
	.st36{fill:#4C3328;}
	.st37{fill:#E8B94A;}
	.st38{fill:#DDF8F1;}
	.st39{fill:#3E2A22;}
	.st40{fill:#D3A971;}
	.st41{fill:#C79A5B;}
	.st42{fill:#233E76;}
	.st43{fill:#21395F;}
	.st44{fill:#487D82;}
	.st45{fill:none;stroke:#C79A5B;stroke-width:10;stroke-linecap:round;stroke-miterlimit:10;}
	.st46{fill:#5E3E31;}
	.st47{fill:#AC3939;}
	.st48{fill:#CA9628;}
	.st49{fill:#AF8F88;}
	.st50{fill:#815048;}
	.st51{fill:#6F4232;}
	.st52{fill:#5F55AB;}
	.st53{fill:#192A48;}
	.st54{fill:#152336;}
	.st55{fill:#192B49;}
	.st56{fill:#264173;}
	.st57{fill:#B06F1E;}
	.st58{fill:#4E88C0;}
	.st59{fill:#83C3F1;}
	.st60{fill:#CF9929;}
	.st61{fill:none;stroke:#FFFFFF;stroke-width:10;stroke-linecap:round;stroke-linejoin:round;stroke-miterlimit:10;}
	.st62{fill:#EAC262;}
	.st63{fill:#D6D5D4;}
	.st64{fill:#6BBA9B;}
	.st65{fill:#63AA8F;}
	.st66{fill:none;stroke:#3E2A22;stroke-width:10;stroke-linecap:round;stroke-miterlimit:10;}
	.st67{fill:#CA7D1F;}
	.st68{fill:#213B64;}
	.st69{fill:#CDF8EC;}
	.st70{fill:#C59125;}
	.st71{fill:none;stroke:#C09A8F;stroke-width:10;stroke-linecap:round;stroke-miterlimit:10;}
	.st72{fill:#32579B;}
	.st73{fill:#172843;}
	.st74{fill:#D66767;}
	.st75{fill:#A74949;}
	.st76{fill:#EBC76F;}
	.st77{fill:#7A4940;}
	.st78{fill:#182A48;}
	.st79{fill:none;stroke:#A0794A;stroke-width:10;stroke-linecap:round;stroke-miterlimit:10;}
	.st80{fill:#C37A20;}
	.st81{fill:#D26D5C;}
	.st82{fill:#A45752;}
	.st83{fill:#284579;}
	.st84{fill:#88C7F4;}
	.st85{fill:#6EB6F0;}
	.st86{fill:#32221E;}
	.st87{fill:#E7A6A6;}
	.st88{fill:#C59191;}
	.st89{fill:#AA3B3B;}
	.st90{fill:#B83E3E;}
	.st91{fill:none;stroke:#5F55A9;stroke-width:10;stroke-linecap:round;stroke-miterlimit:10;}
	.st92{fill:#963838;}
	.st93{fill:#402B25;}
	.st94{fill:#6B6ABA;}
	.st95{fill:#BABABA;}
	.st96{fill:#D1D1D1;}
	.st97{fill:#264377;}
	.st98{fill:#A19BF5;}
	.st99{fill:#3C2A21;}
	.st100{fill:none;stroke:#4C3328;stroke-width:10;stroke-linecap:round;stroke-miterlimit:10;}
	.st101{fill:#C1781F;}
	.st102{fill:#E3A147;}
	.st103{fill:#F2D2A1;}
	.st104{fill:#4F372D;}
	.st105{fill:none;stroke:#DA4545;stroke-width:10;stroke-linecap:round;stroke-miterlimit:10;}
	.st106{fill:#AA3928;}
	.st107{fill:#8C2C22;}
	.st108{fill:#BF4336;}
	.st109{fill:#5797D4;}
	.st110{fill:#CFCFCF;}
	.st111{fill:#613A2E;}
	.st112{fill:none;stroke:#B18653;stroke-width:10;stroke-linecap:round;stroke-miterlimit:10;}
	.st113{fill:#B13B3B;}
	.st114{fill:#16263A;}
	.st115{fill:none;stroke:#16263A;stroke-width:10;stroke-miterlimit:10;}
	.st116{fill:#C87D20;}
	.st117{fill:#E4F0FD;}
	.st118{fill:#AA3737;}
	.st119{fill:#BF771F;}
	.st120{fill:none;stroke:#CD462A;stroke-width:10;stroke-linejoin:round;stroke-miterlimit:10;}
	.st121{fill:#5696D2;}
	.st122{fill:#C0771E;}
	.st123{fill:#9B5F1B;}
	.st124{fill:#A83A29;}
	.st125{fill:#E7A74F;}
	.st126{fill:#C9924C;}
	.st127{fill:#C58E48;}
	.st128{fill:#BE8844;}
	.st129{fill:#916939;}
	.st130{fill:#264275;}
	.st131{fill:#253F65;}
	.st132{fill:#182A45;}
	.st133{fill:#162336;}
	.st134{fill:#93C7B7;}
	.st135{fill:#E6A4A4;}
	.st136{fill:#B06B1D;}
	.st137{fill:#484185;}
	.st138{fill:#DB6E6E;}
	.st139{fill:#6BBA9A;}
	.st140{fill:#CACCCC;}
	.st141{fill:#D4D4D4;}
	.st142{fill:#A98881;}
	.st143{fill:#213A62;}
	.st144{fill:#A2837D;}
	.st145{fill:#6FB8F4;}
	.st146{fill:#9B9E9E;}
	.st147{fill:#B2B3B3;}
	.st148{fill:#20385D;}
	.st149{fill:#335AA8;}
	.st150{fill:#BCE7FD;}
	.st151{fill:#3B2921;}
	.st152{fill:#AD3C3C;}
	.st153{fill:#9D3838;}
	.st154{fill:#603F33;}
	.st155{fill:#4D868B;}
	.st156{fill:#A2DDFD;}
	.st157{fill:#ECB6B6;}
	.st158{fill:#E8A346;}
	.st159{fill:#514C94;}
	.st160{fill:#D2F1E8;}
	.st161{fill:#BDD6CE;}
	.st162{fill:#B93B29;}
	.st163{fill:#E0AD70;}
	.st164{fill:#C57C21;}
	.st165{fill:#EDA34A;}
	.st166{fill:#2F538F;}
	.st167{fill:#2B4B78;}
	.st168{fill:#65AF91;}
	.st169{fill:#A7CEFC;}
	.st170{fill:#98BDE2;}
	.st171{fill:#CFE5F7;}
	.st172{fill:#5492CD;}
	.st173{fill:#97CCBC;}
	.st174{fill:#5491CA;}
	.st175{fill:#EDC563;}
	.st176{fill:#423C79;}
	.st177{fill:#D3B1A5;}
	.st178{fill:#BE988D;}
	.st179{fill:#A7E5D6;}
	.st180{fill:#F2FFF9;}
	.st181{fill:#D64545;}
	.st182{fill:#A73B3B;}
	.st183{fill:#15233A;}
	.st184{fill:none;stroke:#BE988D;stroke-width:10;stroke-linecap:round;stroke-miterlimit:10;}
	.st185{fill:#AF3A29;}
	.st186{fill:#FAF9FF;}
	.st187{fill:#CACACC;}
	.st188{fill:#372720;}
	.st189{fill:#3F2C26;}
	.st190{fill:#2D201C;}
	.st191{fill:#3D6D6F;}
	.st192{fill:#5B54A8;}
	.st193{fill:#325799;}
	.st194{fill:#E8C26E;}
	.st195{fill:#254784;}
	.st196{fill:#5696D4;}
	.st197{fill:#4F8AB6;}
	.st198{fill:#5FA4AC;}
	.st199{fill:#AA3524;}
	.st200{fill:#D15F4D;}
	.st201{fill:#2B294C;}
	.st202{fill:#A43A2A;}
	.st203{fill:#E7AE2D;}
	.st204{fill:#CD9729;}
	.st205{fill:none;stroke:#AA8253;stroke-width:10;stroke-linecap:round;stroke-miterlimit:10;}
	.st206{fill:none;stroke:#E18F23;stroke-width:10;stroke-linecap:round;stroke-linejoin:round;stroke-miterlimit:10;}
	.st207{fill:#CF9828;}
	.st208{fill:#B88926;}
	.st209{fill:#A17623;}
	.st210{fill:#96CCBC;}
	.st211{fill:#CF9A2A;}
	.st212{fill:#C57B20;}
	.st213{fill:#C7F1E6;}
	.st214{fill:#DC6363;}
	.st215{fill:#E89F9F;}
	.st216{fill:#C88C8C;}
	.st217{fill:#C16E6E;}
	.st218{fill:#A46060;}
	.st219{fill:#AA3626;}
	.st220{fill:#87EDC4;}
	.st221{fill:#D86552;}
	.st222{fill:#BC7620;}
	.st223{fill:#BA741E;}
	.st224{fill:#8F8CE3;}
	.st225{fill:#3A2820;}
	.st226{fill:#AC7060;}
	.st227{fill:#915F55;}
	.st228{fill:#49332A;}
	.st229{fill:#2D1F1B;}
	.st230{fill:#69B7BE;}
	.st231{fill:#D6D6D6;}
	.st232{fill:#B8B8B8;}
	.st233{fill:#CACACA;}
	.st234{fill:#467B80;}
	.st235{fill:#C2EDE2;}
	.st236{fill:#A9574F;}
	.st237{fill:#5595D2;}
	.st238{fill:#955949;}
	.st239{fill:#7E4B42;}
	.st240{fill:#89CCF1;}
	.st241{fill:#DD584A;}
	.st242{fill:#C18F26;}
	.st243{fill:#B33C2A;}
	.st244{fill:#D1A771;}
	.st245{fill:#B42A2A;}
	.st246{fill:#325797;}
	.st247{fill:#9F3529;}
	.st248{fill:#EDCE80;}
	.st249{fill:#F0DBAC;}
	.st250{fill:#CFB478;}
	.st251{fill:#D4C29B;}
	.st252{fill:#993939;}
	.st253{fill:#D1AFA3;}
	.st254{fill:#BC968B;}
	.st255{fill:none;stroke:#BC968B;stroke-width:10;stroke-linecap:round;stroke-miterlimit:10;}
	.st256{fill:#814C3C;}
	.st257{fill:#C0EBE0;}
	.st258{fill:#A5E3D4;}
	.st259{fill:#15243C;}
	.st260{fill:#443E79;}
	.st261{fill:#F0FFF7;}
	.st262{fill:#9A764B;}
	.st263{fill:#826443;}
	.st264{fill:#D9AA74;}
	.st265{fill:#5DA186;}
	.st266{fill:#68B596;}
	.st267{fill:#E5C6BE;}
	.st268{fill:#D3B6B1;}
	.st269{fill:none;stroke:#BAA09C;stroke-width:10;stroke-linecap:round;stroke-miterlimit:10;}
	.st270{fill:#F4D78F;}
	.st271{fill:#20385F;}
	.st272{fill:#BA8727;}
	.st273{fill:#5A9C82;}
	.st274{fill:none;stroke:#E39123;stroke-width:10;stroke-linecap:round;stroke-linejoin:round;stroke-miterlimit:10;}
	.st275{fill:#60392D;}
	.st276{fill:#CCCCCC;}
	.st277{fill:#844F3E;}
	.st278{fill:#F3FFFB;}
	.st279{fill:#365E60;}
	.st280{fill:#D84545;}
	.st281{fill:#A83B3B;}
	.st282{fill:#253F70;}
	.st283{fill:#EAADAD;}
	.st284{fill:#443E7C;}
	.st285{fill:#3D6B9F;}
	.st286{fill:#4274BC;}
	.st287{fill:#AF3827;}
	.st288{fill:#E59D9D;}
	.st289{fill:#C48989;}
	.st290{fill:none;stroke:#9B621A;stroke-width:10;stroke-linecap:round;stroke-linejoin:round;stroke-miterlimit:10;}
	.st291{fill:#213A5E;}
	.st292{fill:#2D507A;}
	.st293{fill:#528EC8;}
	.st294{fill:#EFD696;}
	.st295{fill:#D1BA87;}
	.st296{fill:#FDFCFC;}
	.st297{fill:#86CBFC;}
	.st298{fill:#7AB7DA;}
	.st299{fill:#192C4C;}
	.st300{fill:#BCBCBC;}
	.st301{fill:#A13838;}
	.st302{fill:#75BDF6;}
	.st303{fill:#D0B1AA;}
	.st304{fill:#142233;}
	.st305{fill:#E6C4BB;}
	.st306{fill:#BDBDBD;}
	.st307{fill:#E8A192;}
	.st308{fill:#A43939;}
	.st309{fill:#162640;}
	.st310{fill:#27457C;}
	.st311{fill:#EFBE5E;}
	.st312{fill:#87EDC5;}
	.st313{fill:#A03838;}
	.st314{fill:#833232;}
	.st315{fill:#47417F;}
	.st316{fill:none;stroke:#915F55;stroke-width:10;stroke-linecap:round;stroke-miterlimit:10;}
	.st317{fill:#BC8B25;}
	.st318{fill:#473129;}
	.st319{fill:#67B394;}
	.st320{fill:#599A80;}
	.st321{fill:#B13D3D;}
</style>
<g id="BULINE">
	<circle id="XMLID_1917_" class="st9" cx="256" cy="256" r="256"/>
	<g>
	</g>
</g>
<g id="Icons">
	<g id="XMLID_1972_">
		<path id="XMLID_2677_" class="st201" d="M512,256c0,86.7-43.1,163.3-109,209.6c-4.3,3-8.7,5.9-13.1,8.6
			c-16.8,10.3-34.9,18.8-54,25.1c-11,3.6-22.3,6.5-34,8.6c-13.1,2.4-26.5,3.8-40.2,4c-1.9,0-3.8,0.1-5.7,0.1c-3,0-5.9,0-8.8-0.1
			c-13-0.4-25.8-1.9-38.2-4.2c-11.6-2.2-22.9-5.1-33.9-8.8c-4.9-1.6-9.8-3.4-14.5-5.3c-2.8-1.1-5.5-2.3-8.2-3.5
			c-10.6-4.7-20.8-10.1-30.6-16.1c-0.2-0.1-0.5-0.3-0.7-0.4c-4.1-2.5-8.1-5.2-12.1-8c-0.6-0.4-1.1-0.8-1.7-1.2
			C42.3,417.9,0,341.9,0,256c0-63.5,23.1-121.5,61.3-166.2l8,8.7c3.8,4.1,5.9,9.5,5.9,15.1v32c0,7,5.3,12.8,12.2,13.5l51,5.1
			l0.8,0.1l0.3,0l7.9,6.8l0.8,0.7l20.5,17.6l17.1,14.6l13.8,11.8l43.5-26.5l8.6-5.3l19.9,5.3l18.8,5l28.3,7.5l48.6,12.9l4.2,1.1
			l0.3,0.1l8.1-16.2l5.1-10.3l1.4-2.8l8.1-16.3c1.9-3.8,4.8-6.9,8.3-9c5.4-3.4,12.2-4.3,18.7-2.2c1.4,0.5,2.9,0.7,4.3,0.7
			c7.2,0,13.5-5.8,13.5-13.6v-35.9c0-7.9,4.2-15.2,10.9-19.2l1-0.6C489.1,135,512,192.8,512,256z"/>
		<path id="XMLID_2599_" class="st8" d="M403,360.9v104.7c-4.3,3-8.7,5.9-13.1,8.6c-16.8,10.3-34.9,18.8-54,25.1
			c-11,3.6-22.3,6.5-34,8.6c-13.1,2.4-26.5,3.8-40.2,4c-1.9,0-3.8,0.1-5.7,0.1c-3,0-5.9,0-8.8-0.1c-13-0.4-25.8-1.9-38.2-4.2
			c-11.6-2.2-22.9-5.1-33.9-8.8c-4.9-1.6-9.8-3.4-14.5-5.3c-2.8-1.1-5.5-2.3-8.2-3.5c-10.6-4.7-20.8-10.1-30.6-16.1
			c-0.2-0.1-0.5-0.3-0.7-0.4c-4.1-2.5-8.1-5.2-12.1-8c-0.6-0.4-1.1-0.8-1.7-1.2V360.9c0-16,7.3-30.3,18.7-39.8
			c3.4-2.8,7.2-5.3,11.3-7.2c0.7-0.3,1.5-0.7,2.2-1c3-1.2,6.2-2.2,9.5-2.8c3.2-0.6,6.5-1,9.9-1h192.4c5.5,0,10.9,0.9,15.9,2.5
			c2,0.6,4,1.4,5.8,2.3c3.5,1.6,6.8,3.6,9.8,5.9C395.1,329.4,403,344.2,403,360.9z"/>
		<path id="XMLID_2344_" class="st202" d="M212.2,309.2c-1.6,0-3.1,0.1-4.7,0.2c0,0,0,0,0,0c-1,0.1-2.1,0.2-3.1,0.4
			c-0.2,0-0.5,0.1-0.7,0.1c-4.6,0.8-9.1,2.1-13.2,4.1c-12.2,5.7-21.9,16-26.7,28.7c0,0,0,0,0,0.1c-2.1,5.7-3.3,11.8-3.3,18.2v132.7
			c-2.8-1.1-5.5-2.3-8.2-3.5c-10.6-4.7-20.8-10.1-30.6-16.1c-0.2-0.1-0.5-0.3-0.7-0.4c-4.1-2.5-8.1-5.2-12.1-8V360.9
			c0-15.7,7-29.8,18.1-39.3c3.6-3,7.5-5.6,11.8-7.6c0.1-0.1,0.3-0.1,0.4-0.2c3.2-1.4,6.6-2.6,10.1-3.4h0c3.6-0.8,7.3-1.2,11.1-1.2
			H212.2z"/>
		<path id="XMLID_2254_" class="st40" d="M263.3,362.1h-15.2c-12.2,0-22-9.9-22-22v-36.3c0-12.2,9.9-22,22-22h15.2
			c12.2,0,22,9.9,22,22v36.3C285.3,352.3,275.4,362.1,263.3,362.1z"/>
		<path id="XMLID_2253_" class="st41" d="M266,361.9c-1,0.2-2.1,0.2-3.2,0.2h-15.2c-12.2,0-22-9.9-22-22v-36.3c0-12.2,9.9-22,22-22
			h15.2c1.1,0,2.1,0.1,3.2,0.2c-10.6,1.5-18.8,10.7-18.8,21.8v36.3C247.2,351.2,255.4,360.4,266,361.9z"/>
		<path id="XMLID_2381_" class="st52" d="M389.9,389.6v84.6c-16.8,10.3-34.9,18.8-54,25.1c-11,3.6-22.3,6.5-34,8.6
			c-13.1,2.4-26.5,3.8-40.2,4c-1.9,0-3.8,0.1-5.7,0.1c-3,0-5.9,0-8.8-0.1c-13-0.4-25.8-1.9-38.2-4.2c-11.6-2.2-22.9-5.1-33.9-8.8
			c-4.9-1.6-9.8-3.4-14.5-5.3c-2.8-1.1-5.5-2.3-8.2-3.5c-10.6-4.7-20.8-10.1-30.6-16.1c-0.2-0.1-0.5-0.3-0.7-0.4v-84
			c0-24.6,18.8-44.8,42.8-47c1.4-0.1,2.9-0.2,4.4-0.2H220c0.1-2.6,2.3-4.7,5-4.7h61c2.7,0,4.8,2.1,5,4.7h51.8
			C368.8,342.4,389.9,363.6,389.9,389.6z"/>
		<path id="XMLID_2251_" class="st203" d="M444.3,228.3V275c0,21.5-17.5,39-39,39H105c-21.5,0-39-17.5-39-39v-46.7
			c0-14.7,8.1-27.5,20.1-34.1c5.6-3.1,12.1-4.9,18.9-4.9h300.2c6.9,0,13.3,1.8,18.9,4.9C436.1,200.8,444.3,213.6,444.3,228.3z"/>
		<path id="XMLID_2249_" class="st204" d="M165.8,314H105c-21.5,0-39-17.5-39-39v-46.7c0-14.7,8.1-27.5,20.1-34.1
			c5.6-3.1,12.1-4.9,18.9-4.9h60.8c-6.9,0-13.3,1.8-18.9,4.9c-12,6.6-20.1,19.4-20.1,34.1V275C126.8,296.5,144.3,314,165.8,314z"/>
		<path id="XMLID_2248_" class="st36" d="M129.8,322L129.8,322c-5.3,0-9.7-4.3-9.7-9.7V188.7c0-5.3,4.3-9.7,9.7-9.7h0
			c5.3,0,9.7,4.3,9.7,9.7v123.6C139.5,317.6,135.2,322,129.8,322z"/>
		<path id="XMLID_2247_" class="st36" d="M376.9,322L376.9,322c-5.3,0-9.7-4.3-9.7-9.7V188.7c0-5.3,4.3-9.7,9.7-9.7h0
			c5.3,0,9.7,4.3,9.7,9.7v123.6C386.5,317.6,382.2,322,376.9,322z"/>
		<path id="XMLID_2333_" class="st9" d="M199.5,342.4c-3.5,0-6.9,0.4-10.2,1.1c-11.9,2.6-22.1,9.7-28.8,19.5
			c-5.2,7.6-8.2,16.7-8.2,26.6v100.5c-10.6-4.7-20.8-10.1-30.6-16.1v-84.4c0-24.3,18.4-44.4,42.1-46.9c1.7-0.2,3.4-0.3,5.1-0.3
			H199.5z"/>
		<path id="XMLID_2245_" class="st40" d="M370.4,182.2c-1.7-0.7-3.5-1.1-5.5-1.1h-2.5v-16.8c0-25.8-9.1-49.4-24.2-68
			c-4.3,27.4-40,48.7-83.4,48.7c-24.8,0-47-7-62.4-18c-4.3,11.6-6.6,24.2-6.6,37.3v48.6c0,14.3,2.8,28,7.9,40.5
			c13.7,33.6,43.8,58.7,80.4,65.3c9.7-1.7,18.9-4.8,27.4-8.9c9.2-4.4,17.7-10.2,25.3-17c16.2-14.6,28-34.1,33-56.2
			c0.8-3.5,1.4-7,1.8-10.6v0c0.1-0.4,0.1-0.7,0.1-1.1h3.2c0.6,0,1.1,0,1.7-0.1c7.4-0.8,13.2-7.1,13.2-14.7V196
			C379.7,189.7,375.9,184.4,370.4,182.2z"/>
		<path id="XMLID_2216_" class="st41" d="M193.7,253.5c-5.1-12.5-7.9-26.2-7.9-40.5v-48.6c0-13.1,2.3-25.7,6.6-37.3
			c-11.5-8.3-19.1-18.8-21-30.5c-15,18.5-24.1,42.1-24.1,67.8v16.8h0h-2c-2.3,0-4.5,0.6-6.5,1.5c-4.9,2.4-8.4,7.5-8.4,13.3v14.2
			c0,7.2,5.2,13.3,12.1,14.6c0.9,0.2,1.8,0.3,2.8,0.3h2.7c0.1,1.1,0.3,2.1,0.4,3.2c0,0.3,0.1,0.6,0.1,0.9c0.1,0.8,0.3,1.6,0.4,2.4
			c0,0.3,0.1,0.5,0.1,0.8c0.2,1,0.4,2,0.6,2.9c0.1,0.3,0.1,0.6,0.2,0.9c0.1,0.5,0.2,1.1,0.4,1.6c0,0.2,0.1,0.3,0.1,0.5
			c0.1,0.4,0.2,0.7,0.3,1.1c0.2,0.7,0.4,1.5,0.6,2.2c0.1,0.4,0.2,0.7,0.3,1.1c0.2,0.8,0.5,1.6,0.7,2.3c0.1,0.4,0.3,0.8,0.4,1.2
			c0.2,0.6,0.4,1.1,0.6,1.7c0.1,0.4,0.3,0.8,0.4,1.2c0.3,0.8,0.6,1.7,0.9,2.5c0.2,0.4,0.3,0.8,0.5,1.2c0.2,0.5,0.4,1.1,0.6,1.6
			c0.2,0.4,0.4,0.9,0.5,1.3c0.2,0.5,0.5,1.1,0.7,1.6c0.2,0.5,0.5,1.1,0.8,1.6c0.3,0.6,0.6,1.2,0.9,1.8c0.2,0.4,0.4,0.9,0.6,1.3
			c0.2,0.5,0.5,0.9,0.7,1.4c0.2,0.4,0.4,0.8,0.7,1.3c0.4,0.6,0.7,1.3,1.1,1.9c0.3,0.5,0.6,1,0.9,1.5c0.3,0.5,0.5,0.9,0.8,1.4
			c0.3,0.4,0.5,0.8,0.8,1.2c0.3,0.5,0.6,0.9,0.9,1.3c0.3,0.4,0.6,0.9,0.9,1.3c0.4,0.6,0.9,1.3,1.3,1.9c0.3,0.4,0.5,0.7,0.8,1.1
			c0.3,0.4,0.6,0.9,1,1.3c0.3,0.4,0.5,0.7,0.8,1.1c0.4,0.6,0.9,1.1,1.3,1.7c0.3,0.4,0.7,0.8,1,1.2c0.4,0.5,0.8,0.9,1.2,1.4
			c0.3,0.3,0.6,0.7,0.8,1c0.4,0.5,0.8,0.9,1.2,1.4c0.2,0.3,0.5,0.6,0.7,0.8c0.6,0.7,1.2,1.3,1.9,2c0.3,0.3,0.5,0.5,0.8,0.8
			c0.5,0.5,0.9,0.9,1.4,1.4c0.3,0.3,0.5,0.5,0.8,0.8c0.6,0.6,1.3,1.2,2,1.8c0.2,0.1,0.3,0.3,0.5,0.4c0.6,0.6,1.3,1.1,1.9,1.6
			c0.2,0.2,0.5,0.4,0.7,0.6c0.6,0.5,1.2,1,1.8,1.5c0.2,0.1,0.4,0.3,0.6,0.4c0.8,0.6,1.6,1.2,2.4,1.8c0.2,0.1,0.3,0.2,0.5,0.3
			c0.7,0.5,1.4,1,2.1,1.5c0.2,0.1,0.4,0.3,0.6,0.4c1.7,1.2,3.4,2.3,5.2,3.4c0.1,0.1,0.3,0.2,0.4,0.2c0.9,0.5,1.7,1,2.6,1.5
			c0,0,0.1,0,0.1,0.1c1.9,1.1,3.9,2.1,5.9,3.1c0,0,0.1,0,0.1,0.1c2.6,1.3,5.3,2.4,8,3.5c0,0,0.1,0,0.1,0.1c0.8,0.3,1.6,0.6,2.4,0.9
			c0.2,0.1,0.4,0.1,0.5,0.2c0.7,0.3,1.4,0.5,2.2,0.7c0.2,0.1,0.4,0.1,0.6,0.2c0.8,0.2,1.5,0.5,2.3,0.7c0.1,0,0.3,0.1,0.4,0.1
			c0.9,0.3,1.9,0.5,2.8,0.8c0,0,0.1,0,0.1,0c0.9,0.2,1.7,0.4,2.6,0.6c0.3,0.1,0.5,0.1,0.8,0.2c0.6,0.1,1.3,0.3,2,0.4
			c0.3,0.1,0.6,0.1,0.9,0.2c0.6,0.1,1.3,0.2,1.9,0.4c0.3,0.1,0.6,0.1,0.9,0.2c0.7,0.1,1.5,0.2,2.2,0.4c0.2,0,0.4,0.1,0.6,0.1
			c0.9,0.1,1.9,0.3,2.8,0.4c0.3,0,0.5,0.1,0.8,0.1c0.7,0.1,1.4,0.1,2,0.2c0.3,0,0.7,0.1,1,0.1c0.6,0,1.2,0.1,1.9,0.1
			c0.4,0,0.7,0,1.1,0.1c0.6,0,1.3,0.1,2,0.1c0.3,0,0.6,0,0.9,0c1,0,1.9,0,2.9,0c0,0,0,0,0,0c0,0,0,0,0,0c1.5,0,2.9,0,4.3-0.1
			c0.3,0,0.7,0,1,0c1.4-0.1,2.8-0.2,4.2-0.3c0.2,0,0.4,0,0.6-0.1c1.3-0.1,2.6-0.3,3.8-0.4c0.3,0,0.5-0.1,0.8-0.1
			c1.4-0.2,2.8-0.4,4.2-0.7c0.1,0,0.2,0,0.2,0C237.5,312.1,207.4,287,193.7,253.5z"/>
		<circle id="XMLID_2215_" class="st23" cx="201.6" cy="195.9" r="14.8"/>
		<circle id="XMLID_2212_" class="st16" cx="205.4" cy="191.1" r="6.5"/>
		<circle id="XMLID_2208_" class="st23" cx="305" cy="195.9" r="14.8"/>
		<circle id="XMLID_2207_" class="st16" cx="308.8" cy="191.1" r="6.5"/>
		<path id="XMLID_2206_" class="st41" d="M262.9,232.3h-17.6c-5.8,0-10.5-4.7-10.5-10.5v0c0-5.8,4.7-10.5,10.5-10.5h17.6
			c5.8,0,10.5,4.7,10.5,10.5v0C273.4,227.6,268.7,232.3,262.9,232.3z"/>
		<g id="XMLID_2203_">
			<path id="XMLID_2205_" class="st42" d="M364.9,225h-3.2c0,0.4-0.1,0.7-0.1,1.1v0c0,0,0,0.1,0,0.1c-4.4,4.9-22.7,23.8-46.3,24.4
				c-0.6-8.5-7.7-15.1-16.3-15.1h-88.6c-9,0-16.4,7.3-16.4,16.4c-28.2,0.7-45.8-26.8-45.8-26.8l-0.1,0.1c0,0,0,0,0-0.1h-2.7
				c-1,0-1.9-0.1-2.8-0.3c1.7,4.3,4,8.4,6.9,11.9c6.7,29.8,26.1,54.5,51.8,69.4c9.8,17.3,28.3,29,49.6,29h7.6
				c21.1,0,39.5-11.5,49.3-28.5c6.9-3.9,13.3-8.5,19.1-13.7c16.3-14.6,28-34.2,33-56.3c2.8-3.5,5.1-7.4,6.7-11.6
				C366,225,365.5,225,364.9,225z"/>
			<path id="XMLID_2204_" class="st42" d="M326.9,63.2c-14.6-15.9-41.4-26.6-72.1-26.6c-30.5,0-57.2,10.5-71.8,26.3
				c-27.3,11.7-46.2,39.2-45.4,70.8l1.3,48.9c2-1,4.2-1.5,6.5-1.5h2v-16.8c0-25.7,9-49.3,24.1-67.8c0.1-0.2,0.3-0.3,0.4-0.4
				c-0.1,0.2-0.3,0.3-0.4,0.5c1.9,11.7,9.5,22.2,21,30.5c15.3,11.1,37.6,18,62.4,18c43.4,0,79.1-21.4,83.4-48.7
				c15.1,18.5,24.2,42.2,24.2,68v16.8h2.5c1.9,0,3.8,0.4,5.5,1.1l1.3-48.4C372.5,102.3,353.9,75.1,326.9,63.2z"/>
		</g>
		<g id="XMLID_2161_">
			<path id="XMLID_2200_" class="st23" d="M285.4,328.8c-7.8,4.1-16.7,6.3-26.1,6.3h-7.6c-21.3,0-39.9-11.7-49.6-29
				c-25.7-14.9-45.1-39.6-51.8-69.4c-2.9-3.6-5.2-7.6-6.9-11.9c0.9,0.2,1.8,0.3,2.8,0.3h2.7c0,0,0,0,0,0.1l0.1-0.1
				c0,0,17.6,27.6,45.8,26.8c0-8.4,6.3-15.3,14.4-16.3c0.3,0.4,0.6,0.7,0.8,1.1c6.7,29.8,26.1,54.5,51.8,69.4
				C267.3,315.7,275.5,323.7,285.4,328.8z"/>
			<path id="XMLID_2162_" class="st23" d="M285.5,40.2c-17.6,4.3-32.3,12.4-41.9,22.7c-26.3,11.3-44.9,37.3-45.4,67.5
				c-1.7-1-3.4-2.1-4.9-3.3c-11.5-8.3-19.1-18.8-21-30.5c-15,18.5-24.1,42.1-24.1,67.8v16.8h-2c-2.3,0-4.5,0.6-6.5,1.5l-1.3-48.9
				c-0.8-31.6,18.1-59.1,45.4-70.8c14.7-15.8,41.3-26.3,71.8-26.3C266.1,36.6,276.2,37.9,285.5,40.2z"/>
		</g>
		<path id="XMLID_2154_" class="st40" d="M267.4,285.3h-22c-12.6,0-22.9-10.2-22.9-22.9v-3.8c0-4.4,3.6-8,8-8h51.8c4.4,0,8,3.6,8,8
			v3.8C290.2,275.1,280,285.3,267.4,285.3z"/>
		<path id="XMLID_2136_" class="st205" d="M241.4,263.7c7.8,7.8,20.4,7.8,28.1,0"/>
		<path id="XMLID_2339_" class="st9" d="M261.7,337.7v174.2c-1.9,0-3.8,0.1-5.7,0.1c-3,0-5.9,0-8.8-0.1V337.7H261.7z"/>
		<path id="XMLID_2338_" class="st36" d="M335.9,435.6v63.7c-11,3.6-22.3,6.5-34,8.6v-54.7c0-3.4-2.8-6.1-6.2-6.1h-80.5
			c-3.4,0-6.2,2.7-6.2,6.1v54.5c-11.6-2.2-22.9-5.1-33.9-8.8v-63.3c0-4.3,3.5-7.7,7.8-7.7h6.4v-83.4c0-0.3,0-0.6,0-0.9
			c0-0.4,0.1-0.8,0.2-1.1c0.9-4.2,4.7-7.3,9.2-7.3h0.5c4.5,0,8.2,3.1,9.2,7.3c0.2,0.7,0.2,1.4,0.2,2.1v83.4h93.8v-83.4
			c0-0.7,0.1-1.4,0.2-2.1c0.9-4.2,4.7-7.3,9.2-7.3h0.5c4.5,0,8.2,3.1,9.2,7.3c0.2,0.7,0.2,1.4,0.2,2.1v83.4h6.4
			C332.4,427.9,335.9,431.3,335.9,435.6z"/>
		<rect id="XMLID_2125_" x="234.3" y="420.4" class="st206" width="43.3" height="35"/>
		<path id="XMLID_2121_" class="st15" d="M376.5,129.4H132.7c-5.2,0-9.5-4.3-9.5-9.5v-18.5c0-5.2,4.3-9.5,9.5-9.5h243.8
			c5.2,0,9.5,4.3,9.5,9.5v18.5C386,125.1,381.8,129.4,376.5,129.4z"/>
		<path id="XMLID_2018_" class="st119" d="M186.8,129.4h-54.1c-5.2,0-9.5-4.3-9.5-9.5v-18.5c0-5.2,4.2-9.5,9.5-9.5h54.1
			c-5.2,0-9.5,4.3-9.5,9.5v18.5C177.3,125.1,181.5,129.4,186.8,129.4z"/>
		<path id="XMLID_1982_" class="st203" d="M292.1,14.9h-75c-42.5,0-77,34.5-77,77v0h229v0C369.1,49.3,334.6,14.9,292.1,14.9z"/>
		<path id="XMLID_1981_" class="st207" d="M259.9,14.9c-42.5,0-77,34.5-77,77h-43.5c0-42.5,34.5-77,77-77H259.9z"/>
		<path id="XMLID_1980_" class="st208" d="M290.1,91.9h-71.8l4.2-70.1c0.4-7.5,6.7-13.4,14.2-13.4h35c7.5,0,13.7,5.9,14.2,13.4
			L290.1,91.9z"/>
		<path id="XMLID_1979_" class="st209" d="M254.1,8.4c-7.5,0-13.7,5.9-14.2,13.4l-4.2,70.1h-17.4l4.2-70.1
			c0.5-7.5,6.7-13.4,14.2-13.4H254.1z"/>
		<g id="XMLID_1973_">
			<circle id="XMLID_1975_" class="st23" cx="254.1" cy="91.9" r="30"/>
			<circle id="XMLID_1974_" class="st1" cx="254.1" cy="91.9" r="22.7"/>
			<path id="XMLID_2134_" class="st210" d="M260,113.8c-1.9,0.5-3.8,0.8-5.9,0.8c-12.5,0-22.7-10.2-22.7-22.7
				c0-12.5,10.2-22.7,22.7-22.7c2,0,4,0.3,5.9,0.8c-9.7,2.6-16.8,11.4-16.8,21.9C243.2,102.4,250.3,111.2,260,113.8z"/>
			<circle id="XMLID_2246_" class="st16" cx="262.7" cy="86.9" r="7"/>
		</g>
		<path id="XMLID_2252_" class="st16" d="M305,69.2c0-3.4-8.3-6.2-19.6-7.1c-0.9-11.3-3.7-19.6-7.1-19.6c-3.4,0-6.2,8.3-7.1,19.6
			c-11.3,0.9-19.6,3.7-19.6,7.1c0,3.4,8.3,6.2,19.6,7.1c0.9,11.3,3.7,19.6,7.1,19.6c3.4,0,6.2-8.3,7.1-19.6
			C296.7,75.4,305,72.6,305,69.2z"/>
	</g>
</g>
</svg>
