<?xml version="1.0" encoding="utf-8"?>
<!-- Generator: Adobe Illustrator 22.0.1, SVG Export Plug-In . SVG Version: 6.00 Build 0)  -->
<svg version="1.1" xmlns="http://www.w3.org/2000/svg" xmlns:xlink="http://www.w3.org/1999/xlink" x="0px" y="0px"
	 viewBox="0 0 512 512" style="enable-background:new 0 0 512 512;" xml:space="preserve">
<style type="text/css">
	.st0{fill:#E9B12D;}
	.st1{fill:#A9E7D8;}
	.st2{fill:#76CFB1;}
	.st3{fill:#AE6B5D;}
	.st4{fill:#7770D3;}
	.st5{fill:#5BA0F5;}
	.st6{fill:#DA4545;}
	.st7{fill:#89CCFC;}
	.st8{fill:#CD462A;}
	.st9{fill:#514896;}
	.st10{fill:#5493A0;}
	.st11{fill:#CC6B5C;}
	.st12{fill:#62AA8D;}
	.st13{fill:#8ABAAB;}
	.st14{fill:#C3791F;}
	.st15{fill:#E39123;}
	.st16{fill:#FFFFFF;}
	.st17{fill:none;stroke:#FFFFFF;stroke-width:10;stroke-linecap:round;stroke-miterlimit:10;}
	.st18{fill:none;stroke:#5F55AB;stroke-width:10;stroke-linecap:round;stroke-miterlimit:10;}
	.st19{fill:#A9671C;}
	.st20{fill:#D5B3A7;}
	.st21{fill:#C09A8F;}
	.st22{fill:#487F87;}
	.st23{fill:#1B305C;}
	.st24{fill:#172945;}
	.st25{fill:none;}
	.st26{fill:#B62A2A;}
	.st27{fill:#325859;}
	.st28{fill:#3F6E71;}
	.st29{fill:#284646;}
	.st30{fill:#8F2727;}
	.st31{fill:#29477C;}
	.st32{fill:#5B9BEE;}
	.st33{fill:#487FDE;}
	.st34{fill:#CD9829;}
	.st35{fill:#9F2A2A;}
	.st36{fill:#4C3328;}
	.st37{fill:#E8B94A;}
	.st38{fill:#DDF8F1;}
	.st39{fill:#3E2A22;}
	.st40{fill:#D3A971;}
	.st41{fill:#C79A5B;}
	.st42{fill:#233E76;}
	.st43{fill:#21395F;}
	.st44{fill:#487D82;}
	.st45{fill:none;stroke:#C79A5B;stroke-width:10;stroke-linecap:round;stroke-miterlimit:10;}
	.st46{fill:#5E3E31;}
	.st47{fill:#AC3939;}
	.st48{fill:#CA9628;}
	.st49{fill:#AF8F88;}
	.st50{fill:#815048;}
	.st51{fill:#6F4232;}
	.st52{fill:#5F55AB;}
	.st53{fill:#192A48;}
	.st54{fill:#152336;}
	.st55{fill:#192B49;}
	.st56{fill:#264173;}
	.st57{fill:#B06F1E;}
	.st58{fill:#4E88C0;}
	.st59{fill:#83C3F1;}
	.st60{fill:#CF9929;}
	.st61{fill:none;stroke:#FFFFFF;stroke-width:10;stroke-linecap:round;stroke-linejoin:round;stroke-miterlimit:10;}
	.st62{fill:#EAC262;}
	.st63{fill:#D6D5D4;}
	.st64{fill:#6BBA9B;}
	.st65{fill:#63AA8F;}
	.st66{fill:none;stroke:#3E2A22;stroke-width:10;stroke-linecap:round;stroke-miterlimit:10;}
	.st67{fill:#CA7D1F;}
	.st68{fill:#213B64;}
	.st69{fill:#CDF8EC;}
	.st70{fill:#C59125;}
	.st71{fill:none;stroke:#C09A8F;stroke-width:10;stroke-linecap:round;stroke-miterlimit:10;}
	.st72{fill:#32579B;}
	.st73{fill:#172843;}
	.st74{fill:#D66767;}
	.st75{fill:#A74949;}
	.st76{fill:#EBC76F;}
	.st77{fill:#7A4940;}
	.st78{fill:#182A48;}
	.st79{fill:none;stroke:#A0794A;stroke-width:10;stroke-linecap:round;stroke-miterlimit:10;}
	.st80{fill:#C37A20;}
	.st81{fill:#D26D5C;}
	.st82{fill:#A45752;}
	.st83{fill:#284579;}
	.st84{fill:#88C7F4;}
	.st85{fill:#6EB6F0;}
	.st86{fill:#32221E;}
	.st87{fill:#E7A6A6;}
	.st88{fill:#C59191;}
	.st89{fill:#AA3B3B;}
	.st90{fill:#B83E3E;}
	.st91{fill:none;stroke:#5F55A9;stroke-width:10;stroke-linecap:round;stroke-miterlimit:10;}
	.st92{fill:#963838;}
	.st93{fill:#402B25;}
	.st94{fill:#6B6ABA;}
	.st95{fill:#BABABA;}
	.st96{fill:#D1D1D1;}
	.st97{fill:#264377;}
	.st98{fill:#A19BF5;}
	.st99{fill:#3C2A21;}
	.st100{fill:none;stroke:#4C3328;stroke-width:10;stroke-linecap:round;stroke-miterlimit:10;}
	.st101{fill:#C1781F;}
	.st102{fill:#E3A147;}
	.st103{fill:#F2D2A1;}
	.st104{fill:#4F372D;}
	.st105{fill:none;stroke:#DA4545;stroke-width:10;stroke-linecap:round;stroke-miterlimit:10;}
	.st106{fill:#AA3928;}
	.st107{fill:#8C2C22;}
	.st108{fill:#BF4336;}
	.st109{fill:#5797D4;}
	.st110{fill:#CFCFCF;}
	.st111{fill:#613A2E;}
	.st112{fill:none;stroke:#B18653;stroke-width:10;stroke-linecap:round;stroke-miterlimit:10;}
	.st113{fill:#B13B3B;}
	.st114{fill:#16263A;}
	.st115{fill:none;stroke:#16263A;stroke-width:10;stroke-miterlimit:10;}
	.st116{fill:#C87D20;}
	.st117{fill:#E4F0FD;}
	.st118{fill:#AA3737;}
	.st119{fill:#BF771F;}
	.st120{fill:none;stroke:#CD462A;stroke-width:10;stroke-linejoin:round;stroke-miterlimit:10;}
	.st121{fill:#5696D2;}
	.st122{fill:#C0771E;}
	.st123{fill:#9B5F1B;}
	.st124{fill:#A83A29;}
	.st125{fill:#E7A74F;}
	.st126{fill:#C9924C;}
	.st127{fill:#C58E48;}
	.st128{fill:#BE8844;}
	.st129{fill:#916939;}
	.st130{fill:#264275;}
	.st131{fill:#253F65;}
	.st132{fill:#182A45;}
	.st133{fill:#162336;}
	.st134{fill:#93C7B7;}
	.st135{fill:#E6A4A4;}
	.st136{fill:#B06B1D;}
	.st137{fill:#484185;}
	.st138{fill:#DB6E6E;}
	.st139{fill:#6BBA9A;}
	.st140{fill:#CACCCC;}
	.st141{fill:#D4D4D4;}
	.st142{fill:#A98881;}
	.st143{fill:#213A62;}
	.st144{fill:#A2837D;}
	.st145{fill:#6FB8F4;}
	.st146{fill:#9B9E9E;}
	.st147{fill:#B2B3B3;}
	.st148{fill:#20385D;}
	.st149{fill:#335AA8;}
	.st150{fill:#BCE7FD;}
	.st151{fill:#3B2921;}
	.st152{fill:#AD3C3C;}
	.st153{fill:#9D3838;}
	.st154{fill:#603F33;}
	.st155{fill:#4D868B;}
	.st156{fill:#A2DDFD;}
	.st157{fill:#ECB6B6;}
	.st158{fill:#E8A346;}
	.st159{fill:#514C94;}
	.st160{fill:#D2F1E8;}
	.st161{fill:#BDD6CE;}
	.st162{fill:#B93B29;}
	.st163{fill:#E0AD70;}
	.st164{fill:#C57C21;}
	.st165{fill:#EDA34A;}
	.st166{fill:#2F538F;}
	.st167{fill:#2B4B78;}
	.st168{fill:#65AF91;}
	.st169{fill:#A7CEFC;}
	.st170{fill:#98BDE2;}
	.st171{fill:#CFE5F7;}
	.st172{fill:#5492CD;}
	.st173{fill:#97CCBC;}
	.st174{fill:#5491CA;}
	.st175{fill:#EDC563;}
	.st176{fill:#423C79;}
	.st177{fill:#D3B1A5;}
	.st178{fill:#BE988D;}
	.st179{fill:#A7E5D6;}
	.st180{fill:#F2FFF9;}
	.st181{fill:#D64545;}
	.st182{fill:#A73B3B;}
	.st183{fill:#15233A;}
	.st184{fill:none;stroke:#BE988D;stroke-width:10;stroke-linecap:round;stroke-miterlimit:10;}
	.st185{fill:#AF3A29;}
	.st186{fill:#FAF9FF;}
	.st187{fill:#CACACC;}
	.st188{fill:#372720;}
	.st189{fill:#3F2C26;}
	.st190{fill:#2D201C;}
	.st191{fill:#3D6D6F;}
	.st192{fill:#5B54A8;}
	.st193{fill:#325799;}
	.st194{fill:#E8C26E;}
	.st195{fill:#254784;}
	.st196{fill:#5696D4;}
	.st197{fill:#4F8AB6;}
	.st198{fill:#5FA4AC;}
	.st199{fill:#AA3524;}
	.st200{fill:#D15F4D;}
	.st201{fill:#2B294C;}
	.st202{fill:#A43A2A;}
	.st203{fill:#E7AE2D;}
	.st204{fill:#CD9729;}
	.st205{fill:none;stroke:#AA8253;stroke-width:10;stroke-linecap:round;stroke-miterlimit:10;}
	.st206{fill:none;stroke:#E18F23;stroke-width:10;stroke-linecap:round;stroke-linejoin:round;stroke-miterlimit:10;}
	.st207{fill:#CF9828;}
	.st208{fill:#B88926;}
	.st209{fill:#A17623;}
	.st210{fill:#96CCBC;}
	.st211{fill:#CF9A2A;}
	.st212{fill:#C57B20;}
	.st213{fill:#C7F1E6;}
	.st214{fill:#DC6363;}
	.st215{fill:#E89F9F;}
	.st216{fill:#C88C8C;}
	.st217{fill:#C16E6E;}
	.st218{fill:#A46060;}
	.st219{fill:#AA3626;}
	.st220{fill:#87EDC4;}
	.st221{fill:#D86552;}
	.st222{fill:#BC7620;}
	.st223{fill:#BA741E;}
	.st224{fill:#8F8CE3;}
	.st225{fill:#3A2820;}
	.st226{fill:#AC7060;}
	.st227{fill:#915F55;}
	.st228{fill:#49332A;}
	.st229{fill:#2D1F1B;}
	.st230{fill:#69B7BE;}
	.st231{fill:#D6D6D6;}
	.st232{fill:#B8B8B8;}
	.st233{fill:#CACACA;}
	.st234{fill:#467B80;}
	.st235{fill:#C2EDE2;}
	.st236{fill:#A9574F;}
	.st237{fill:#5595D2;}
	.st238{fill:#955949;}
	.st239{fill:#7E4B42;}
	.st240{fill:#89CCF1;}
	.st241{fill:#DD584A;}
	.st242{fill:#C18F26;}
	.st243{fill:#B33C2A;}
	.st244{fill:#D1A771;}
	.st245{fill:#B42A2A;}
	.st246{fill:#325797;}
	.st247{fill:#9F3529;}
	.st248{fill:#EDCE80;}
	.st249{fill:#F0DBAC;}
	.st250{fill:#CFB478;}
	.st251{fill:#D4C29B;}
	.st252{fill:#993939;}
	.st253{fill:#D1AFA3;}
	.st254{fill:#BC968B;}
	.st255{fill:none;stroke:#BC968B;stroke-width:10;stroke-linecap:round;stroke-miterlimit:10;}
	.st256{fill:#814C3C;}
	.st257{fill:#C0EBE0;}
	.st258{fill:#A5E3D4;}
	.st259{fill:#15243C;}
	.st260{fill:#443E79;}
	.st261{fill:#F0FFF7;}
	.st262{fill:#9A764B;}
	.st263{fill:#826443;}
	.st264{fill:#D9AA74;}
	.st265{fill:#5DA186;}
	.st266{fill:#68B596;}
	.st267{fill:#E5C6BE;}
	.st268{fill:#D3B6B1;}
	.st269{fill:none;stroke:#BAA09C;stroke-width:10;stroke-linecap:round;stroke-miterlimit:10;}
	.st270{fill:#F4D78F;}
	.st271{fill:#20385F;}
	.st272{fill:#BA8727;}
	.st273{fill:#5A9C82;}
	.st274{fill:none;stroke:#E39123;stroke-width:10;stroke-linecap:round;stroke-linejoin:round;stroke-miterlimit:10;}
	.st275{fill:#60392D;}
	.st276{fill:#CCCCCC;}
	.st277{fill:#844F3E;}
	.st278{fill:#F3FFFB;}
	.st279{fill:#365E60;}
	.st280{fill:#D84545;}
	.st281{fill:#A83B3B;}
	.st282{fill:#253F70;}
	.st283{fill:#EAADAD;}
	.st284{fill:#443E7C;}
	.st285{fill:#3D6B9F;}
	.st286{fill:#4274BC;}
	.st287{fill:#AF3827;}
	.st288{fill:#E59D9D;}
	.st289{fill:#C48989;}
	.st290{fill:none;stroke:#9B621A;stroke-width:10;stroke-linecap:round;stroke-linejoin:round;stroke-miterlimit:10;}
	.st291{fill:#213A5E;}
	.st292{fill:#2D507A;}
	.st293{fill:#528EC8;}
	.st294{fill:#EFD696;}
	.st295{fill:#D1BA87;}
	.st296{fill:#FDFCFC;}
	.st297{fill:#86CBFC;}
	.st298{fill:#7AB7DA;}
	.st299{fill:#192C4C;}
	.st300{fill:#BCBCBC;}
	.st301{fill:#A13838;}
	.st302{fill:#75BDF6;}
	.st303{fill:#D0B1AA;}
	.st304{fill:#142233;}
	.st305{fill:#E6C4BB;}
	.st306{fill:#BDBDBD;}
	.st307{fill:#E8A192;}
	.st308{fill:#A43939;}
	.st309{fill:#162640;}
	.st310{fill:#27457C;}
	.st311{fill:#EFBE5E;}
	.st312{fill:#87EDC5;}
	.st313{fill:#A03838;}
	.st314{fill:#833232;}
	.st315{fill:#47417F;}
	.st316{fill:none;stroke:#915F55;stroke-width:10;stroke-linecap:round;stroke-miterlimit:10;}
	.st317{fill:#BC8B25;}
	.st318{fill:#473129;}
	.st319{fill:#67B394;}
	.st320{fill:#599A80;}
	.st321{fill:#B13D3D;}
</style>
<g id="BULINE">
	<circle id="XMLID_997_" class="st2" cx="256" cy="256" r="256"/>
	<g>
	</g>
</g>
<g id="Icons">
	<g id="XMLID_3796_">
		<g id="XMLID_877_">
			<path id="XMLID_1007_" class="st265" d="M439.1,92v343c-14.7,15.1-31.3,28.3-49.4,39.4h-30.4c-6.4,0-11.6-5.2-11.6-11.6V92
				c0-6.4,5.2-11.6,11.6-11.6h68.1C433.9,80.3,439.1,85.6,439.1,92z"/>
			<path id="XMLID_1020_" class="st265" d="M108,194v270.9c-15.2-10.8-29.2-23.2-41.7-37c-3.7-4-7.2-8.2-10.6-12.5
				c-2.3-2.9-4.5-5.8-6.6-8.7C18.2,364.4,0,312.3,0,256c0-25.6,3.8-50.3,10.8-73.7h85.6C102.8,182.3,108,187.6,108,194z"/>
			<path id="XMLID_1115_" class="st266" d="M512,256c0,69.6-27.8,132.8-72.9,179c-14.7,15.1-31.3,28.3-49.4,39.4
				c-1,0.6-2.1,1.3-3.1,1.9C348.3,499,303.7,512,256,512c-37.2,0-72.5-7.9-104.4-22.2c-10.5-4.7-20.6-10.1-30.3-16.1
				c-0.2-0.1-0.4-0.3-0.7-0.4c-4.3-2.7-8.5-5.5-12.6-8.4c-15.2-10.8-29.2-23.2-41.7-37c-3.7-4-7.2-8.2-10.6-12.5V143.1
				c0-6.4,5.2-11.6,11.6-11.6h68.1c6.4,0,11.6,5.2,11.6,11.6v105.2c1.7-2.4,4.4-3.9,7.5-3.9h222.6c5.1,0,9.2,4.1,9.2,9.2v-46.4
				c0-4.3,3.5-7.8,7.8-7.8h111.5C509.8,217.6,512,236.5,512,256z"/>
			<g id="XMLID_895_">
				<path id="XMLID_969_" class="st23" d="M379.5,87.6c-5.8-5.9-16.5-13.4-31.3-19c-3.9-22.9-23.1-40.2-46.5-42
					C241,22,206,37.7,185.8,57.5c-28.6,6.1-46.3,18.5-56.3,26.6c-7.7,6.2-10.2,24.1-7.9,32.6l16.7,61.2c2.9-0.8,6-2.6,9.2-5.2v-18.8
					c0-18.8,4.9-36.5,13.5-51.9c-0.5,2-0.9,4-1.2,5.8c-0.9,5.3,4.7,9.4,9.5,6.8c7-3.8,14.4-6.8,22.1-9c44.5-12.9,97.5-1.8,120.4,4.3
					c5.2,1.4,10.5,1.3,15.3,0c6.9-1.9,13-6.2,17-12.2c0.7,1.1,1.4,2.2,2,3.4c8.9,15.6,14,33.6,14,52.8v16.6h2.4
					c4.5,0,8.4,2,11.1,5.1l12-55.4C387.6,111.6,385.6,93.8,379.5,87.6z"/>
				<path id="XMLID_1060_" class="st6" d="M386.6,375.1v101.1C348.3,499,303.7,512,256,512c-37.2,0-72.5-7.9-104.4-22.2
					c-10.5-4.7-20.6-10.1-30.3-16.1c-0.2-0.1-0.4-0.3-0.7-0.4v-98.2c0-25.8,20.9-46.6,46.6-46.6h172.6c2.6,0,5.2,0.2,7.8,0.6
					C369.7,332.8,386.6,352,386.6,375.1z"/>
				<path id="XMLID_998_" class="st26" d="M198.2,328.5c-2.8,0-5.6,0.2-8.3,0.7c-21.8,3.9-38.3,23-38.3,45.9v114.7
					c-10.5-4.7-20.6-10.1-30.3-16.1v-98.6c0-25.8,20.9-46.6,46.7-46.6H198.2z"/>
				<path id="XMLID_965_" class="st267" d="M261.3,347.9h-15c-12,0-21.8-9.8-21.8-21.8v-35.9c0-12,9.8-21.8,21.8-21.8h15
					c12,0,21.8,9.8,21.8,21.8v35.9C283.1,338.2,273.3,347.9,261.3,347.9z"/>
				<path id="XMLID_964_" class="st268" d="M264,347.7c-1,0.2-2.1,0.2-3.1,0.2h-15c-12,0-21.8-9.8-21.8-21.8v-35.9
					c0-12,9.8-21.8,21.8-21.8h15c1.1,0,2.1,0.1,3.1,0.2c-10.5,1.5-18.6,10.6-18.6,21.6v35.9C245.4,337.1,253.5,346.2,264,347.7z"/>
				<path id="XMLID_963_" class="st267" d="M373.8,175.5c-2.7-3.1-6.7-5.1-11.1-5.1h-2.4v-16.6c0-19.2-5.1-37.2-14-52.8
					c-0.7-1.1-1.3-2.3-2-3.4c-3.9,6-10,10.4-17,12.2c-4.8,1.3-10.1,1.4-15.3,0c-22.9-6.1-75.9-17.2-120.4-4.3
					c-7.7,2.2-15.1,5.2-22.1,9c-4.8,2.6-10.5-1.4-9.5-6.8c0.3-1.8,0.7-3.7,1.2-5.8c-8.6,15.3-13.5,33-13.5,51.9v18.8v29.2
					c0,4,0.2,8,0.7,12c0,0.1,0,0.3,0.1,0.4c0.1,0.6,0.1,1.2,0.2,1.8c0,0.2,0.1,0.4,0.1,0.5c0.1,0.7,0.2,1.4,0.3,2.2
					c0.1,0.8,0.3,1.6,0.4,2.4c0.2,0.8,0.3,1.6,0.5,2.4c0.5,2.4,1,4.7,1.7,7c0.2,0.8,0.5,1.7,0.7,2.5c0.2,0.8,0.5,1.5,0.7,2.3
					c0.2,0.7,0.4,1.3,0.7,1.9c0.1,0.2,0.1,0.4,0.2,0.6c0.2,0.5,0.3,1,0.5,1.4c0.1,0.3,0.3,0.7,0.4,1c0.2,0.5,0.4,0.9,0.6,1.4
					c0.1,0.2,0.2,0.5,0.3,0.7c0.2,0.4,0.4,0.9,0.6,1.3c0.2,0.5,0.4,0.9,0.6,1.4c0.1,0.3,0.2,0.5,0.3,0.7c0.3,0.6,0.5,1.1,0.8,1.7
					c0.1,0.2,0.2,0.4,0.3,0.5c0.2,0.4,0.4,0.8,0.6,1.2c0.3,0.5,0.5,1,0.8,1.5c0,0,0,0.1,0,0.1c0.3,0.7,0.7,1.3,1.1,2
					c0.5,0.9,1,1.8,1.6,2.8c0.3,0.5,0.6,1,0.9,1.5c0.8,1.4,1.7,2.8,2.6,4.1c0.5,0.7,1,1.4,1.5,2.1c1.6,2.2,3.2,4.3,4.9,6.4
					c0.4,0.6,0.9,1.1,1.4,1.6c0.5,0.6,1,1.1,1.5,1.7c0.5,0.5,0.9,1,1.4,1.6c0.3,0.3,0.6,0.6,0.8,0.9c0.3,0.4,0.7,0.7,1,1
					c0.4,0.5,0.9,0.9,1.4,1.4c0.4,0.4,0.8,0.8,1.2,1.2c0.5,0.5,1,1,1.5,1.4c1.2,1.1,2.5,2.2,3.8,3.3c1.3,1.1,2.6,2.1,3.9,3.1
					c0.1,0,0.1,0.1,0.1,0.1c0.7,0.5,1.4,1,2.1,1.5c0.7,0.5,1.4,1,2.1,1.5c0.7,0.5,1.4,0.9,2.1,1.4c0.7,0.5,1.4,0.9,2.2,1.4
					c0.7,0.4,1.5,0.9,2.2,1.3c0.7,0.4,1.5,0.8,2.2,1.3c0.7,0.4,1.5,0.8,2.3,1.2c0,0,0,0,0,0c0.8,0.4,1.5,0.8,2.3,1.1
					c3.1,1.5,6.3,2.8,9.5,4c0.8,0.3,1.6,0.6,2.5,0.9c0.8,0.3,1.7,0.6,2.5,0.8c0.8,0.3,1.7,0.5,2.5,0.7c0.8,0.2,1.7,0.5,2.5,0.7
					c0.8,0.2,1.7,0.4,2.6,0.6c0.9,0.2,1.7,0.4,2.6,0.6c0.9,0.2,1.7,0.3,2.6,0.5c0.9,0.2,1.8,0.3,2.6,0.4c0.9,0.1,1.8,0.3,2.7,0.4
					c0.9,0.1,1.8,0.2,2.7,0.3c0.9,0.1,1.8,0.2,2.7,0.2c1.8,0.1,3.6,0.2,5.4,0.3c0.9,0,1.8,0,2.7,0c2.6,0,5.1-0.1,7.6-0.3
					c1.7-0.1,3.3-0.3,5-0.5c0.8-0.1,1.6-0.2,2.4-0.3c0.1,0,0.2,0,0.3-0.1c0.6-0.1,1.2-0.2,1.8-0.3c0.3,0,0.6-0.1,0.9-0.1
					c0.3-0.1,0.6-0.1,0.9-0.2c19.8-3.6,37.8-12.6,52.2-25.6c18.8-17,31.6-40.5,34.6-67.1h3.1c8.1,0,14.7-6.6,14.7-14.7v-14.1
					C377.3,181.4,376,178.1,373.8,175.5z"/>
				<path id="XMLID_962_" class="st268" d="M272.3,306.5c-49.7-9-87.3-52.4-87.3-104.6v-48.1c0-18,4.5-35,12.4-49.9
					c-2.1,0.5-4.2,1-6.3,1.6c-7.7,2.2-15.1,5.2-22.1,9c-4.8,2.6-10.5-1.4-9.5-6.8c0.2-1.1,1.6-4.5,1.5-5.8
					c-6,11.4-11.7,26.2-13.3,39.6c-0.5,4-0.7,8.1-0.7,12.3v16.6h-2c-8.1,0-14.7,6.6-14.7,14.7v14.1c0,8.1,6.6,14.7,14.7,14.7h2.7
					c0,0.1,0,0.3,0.1,0.4c0.1,0.6,0.1,1.2,0.2,1.8c0,0.2,0.1,0.4,0.1,0.5c0.1,0.7,0.2,1.4,0.3,2.2c0.1,0.8,0.3,1.6,0.4,2.4
					c0.2,0.8,0.3,1.6,0.5,2.4c0.5,2.4,1,4.7,1.7,7c0.2,0.8,0.5,1.7,0.7,2.5c0.2,0.8,0.5,1.5,0.7,2.3c0.2,0.7,0.4,1.3,0.7,1.9
					c0.1,0.2,0.1,0.4,0.2,0.6c0.2,0.5,0.3,1,0.5,1.4c0.1,0.3,0.3,0.7,0.4,1c0.2,0.5,0.4,0.9,0.6,1.4c0.1,0.2,0.2,0.5,0.3,0.7
					c0.2,0.4,0.4,0.9,0.6,1.3c0.2,0.5,0.4,0.9,0.6,1.4c0.1,0.3,0.2,0.5,0.3,0.7c0.3,0.6,0.5,1.1,0.8,1.7c0.1,0.2,0.2,0.4,0.3,0.5
					c0.2,0.4,0.4,0.8,0.6,1.2c0.3,0.5,0.5,1,0.8,1.5c0,0,0,0.1,0,0.1c0.3,0.7,0.7,1.3,1.1,2c0.5,0.9,1,1.8,1.6,2.8
					c0.3,0.5,0.6,1,0.9,1.5c0.8,1.4,1.7,2.8,2.6,4.1c0.5,0.7,1,1.4,1.5,2.1c1.6,2.2,3.2,4.3,4.9,6.4c0.4,0.6,0.9,1.1,1.4,1.6
					c0.5,0.6,1,1.1,1.5,1.7c0.5,0.5,0.9,1,1.4,1.6c0.3,0.3,0.6,0.6,0.8,0.9c0.3,0.4,0.7,0.7,1,1c0.4,0.5,0.9,0.9,1.4,1.4
					c0.4,0.4,0.8,0.8,1.2,1.2c0.5,0.5,1,1,1.5,1.4c2.5,2.2,5,4.4,7.7,6.4c0.1,0,0.1,0.1,0.1,0.1c0.7,0.5,1.4,1,2.1,1.5
					c0.7,0.5,1.4,1,2.1,1.5c0.7,0.5,1.4,0.9,2.1,1.4c0.7,0.5,1.4,0.9,2.2,1.4c0.7,0.4,1.5,0.9,2.2,1.3c0.7,0.4,1.5,0.8,2.2,1.3
					c0.7,0.4,1.5,0.8,2.3,1.2c0,0,0,0,0,0c0.8,0.4,1.5,0.8,2.3,1.1c3.1,1.5,6.3,2.9,9.5,4c0.8,0.3,1.6,0.6,2.5,0.9
					c0.8,0.3,1.7,0.6,2.5,0.8c0.8,0.3,1.7,0.5,2.5,0.7c0.8,0.2,1.7,0.5,2.5,0.7c0.8,0.2,1.7,0.4,2.6,0.6c0.9,0.2,1.7,0.4,2.6,0.6
					c0.9,0.2,1.7,0.3,2.6,0.5c0.9,0.2,1.8,0.3,2.6,0.4c0.9,0.1,1.8,0.3,2.7,0.4c0.9,0.1,1.8,0.2,2.7,0.3c0.9,0.1,1.8,0.2,2.7,0.2
					c1.8,0.1,3.6,0.2,5.4,0.3c0.9,0,1.8,0,2.7,0c1.5,0,3,0,4.4-0.1c1.1,0,2.1-0.1,3.2-0.2c1.7-0.1,3.3-0.3,5-0.5
					c0.8-0.1,1.6-0.2,2.4-0.3c0.1,0,0.2,0,0.3-0.1c0.6-0.1,1.2-0.2,1.8-0.3c0.3,0,0.6-0.1,0.9-0.1
					C271.7,306.6,272,306.6,272.3,306.5C272.3,306.5,272.3,306.5,272.3,306.5z"/>
				<path id="XMLID_961_" class="st268" d="M260.2,218.5H247c-4.3,0-7.9-3.5-7.9-7.9v0c0-4.3,3.5-7.9,7.9-7.9h13.2
					c4.3,0,7.9,3.5,7.9,7.9v0C268,215,264.5,218.5,260.2,218.5z"/>
				<path id="XMLID_960_" class="st36" d="M282.4,236.4c1.5,0,2.8,1.2,2.8,2.8v0c0,2.9-0.4,5.6-1.1,8.3c-1.7,6.1-5.1,11.5-9.8,15.6
					c-5.5,4.8-12.8,7.8-20.7,7.8c-7.9,0-15.2-2.9-20.7-7.8c-4.6-4-8.1-9.4-9.8-15.6c-0.7-2.6-1.1-5.4-1.1-8.3v0
					c0-1.5,1.2-2.8,2.8-2.8H282.4z"/>
				<path id="XMLID_958_" class="st26" d="M274.3,263.1c-5.5,4.8-12.8,7.8-20.7,7.8c-7.9,0-15.2-2.9-20.7-7.8
					c5.5-4.8,12.8-7.8,20.7-7.8C261.5,255.3,268.8,258.2,274.3,263.1z"/>
				<path id="XMLID_957_" class="st16" d="M282.4,236.4c1.5,0,2.8,1.2,2.8,2.8v0c0,2.9-0.4,5.6-1.1,8.3h-61
					c-0.7-2.6-1.1-5.4-1.1-8.3v0c0-1.5,1.2-2.8,2.8-2.8H282.4z"/>
				<path id="XMLID_956_" class="st269" d="M215.7,187.5c0-6.8-5.5-12.3-12.3-12.3s-12.3,5.5-12.3,12.3"/>
				<path id="XMLID_955_" class="st269" d="M319.1,187.5c0-6.8-5.5-12.3-12.3-12.3c-6.8,0-12.3,5.5-12.3,12.3"/>
				<path id="XMLID_952_" class="st26" d="M310.9,323.8l-22.7-1.7c-3-0.2-5.8,1.6-6.8,4.4c-7.7,22.3-25.2,21.7-27.8,21.5v0
					c0,0-0.1,0-0.2,0c-0.1,0-0.2,0-0.2,0v0c-2.5,0.2-20.1,0.9-27.8-21.5c-1-2.8-3.8-4.6-6.8-4.4l-22.7,1.7c-4.6,0.3-7.5,5.1-5.7,9.3
					c5.7,13.6,19.3,39.5,43.6,49.6c8.7,3.6,18.2-2.1,19.6-11.1c1.3,9,10.9,14.7,19.6,11.1c24.3-10.2,37.9-36,43.6-49.6
					C318.4,328.9,315.5,324.1,310.9,323.8z"/>
				<path id="XMLID_951_" class="st26" d="M350.8,435.2h-50.9c-3,0-5.4-2.4-5.4-5.4v-13c0-3,2.4-5.4,5.4-5.4h50.9
					c3,0,5.4,2.4,5.4,5.4v13C356.2,432.8,353.8,435.2,350.8,435.2z"/>
				<path id="XMLID_947_" class="st270" d="M214.1,455.4L214.1,455.4c-3.8,0-6.8-3.1-6.8-6.8V320.2c0-3.8,3.1-6.8,6.8-6.8h0
					c3.8,0,6.8,3.1,6.8,6.8v128.3C221,452.3,217.9,455.4,214.1,455.4z"/>
				<path id="XMLID_946_" class="st270" d="M294.5,455.4L294.5,455.4c-3.8,0-6.8-3.1-6.8-6.8V320.2c0-3.8,3.1-6.8,6.8-6.8l0,0
					c3.8,0,6.8,3.1,6.8,6.8v128.3C301.3,452.3,298.3,455.4,294.5,455.4z"/>
				<g id="XMLID_934_">
					<path id="XMLID_945_" class="st0" d="M296.5,441.4h-14.4l-2.8-8.1c-1.1-3.1-4-5.3-7.4-5.3h-36.4c-3.3,0-6.3,2.1-7.4,5.3
						l-2.8,8.1h-14.4c-5.1,0-9.3,4.2-9.3,9.3v44.7c0,5.1,4.2,9.3,9.3,9.3h85.4c5.1,0,9.3-4.2,9.3-9.3v-44.7
						C305.8,445.5,301.6,441.4,296.5,441.4z"/>
					<path id="XMLID_944_" class="st15" d="M259.3,428c-3.3,0-6.3,2.1-7.4,5.3l-2.8,8.1h-14.4c-5.1,0-9.3,4.2-9.3,9.3v44.7
						c0,5.1,4.2,9.3,9.3,9.3h-23.7c-5.1,0-9.3-4.2-9.3-9.3v-44.7c0-5.1,4.2-9.3,9.3-9.3h14.4l2.8-8.1c1.1-3.1,4-5.3,7.4-5.3H259.3z"
						/>
					<path id="XMLID_943_" class="st57" d="M220.1,433.5h-5.9c-1.7,0-3,1.4-3,3v4.9h12v-4.9C223.1,434.8,221.8,433.5,220.1,433.5z"
						/>
					<circle id="XMLID_942_" class="st42" cx="253.8" cy="475.7" r="21.9"/>
					<circle id="XMLID_941_" class="st5" cx="253.8" cy="475.7" r="15.9"/>
					<path id="XMLID_940_" class="st58" d="M257.6,491.2c-1.2,0.3-2.5,0.4-3.8,0.4c-8.8,0-15.9-7.1-15.9-15.9
						c0-8.8,7.1-15.9,15.9-15.9c1.3,0,2.6,0.2,3.8,0.4c-7,1.7-12.2,8-12.2,15.5C245.4,483.2,250.6,489.5,257.6,491.2z"/>
					<circle id="XMLID_939_" class="st59" cx="261.6" cy="473.5" r="5"/>
				</g>
				<path id="XMLID_924_" class="st267" d="M114.1,253.9c-4.8-1.2-9.5,1.8-10.7,6.5l-10,41.5l-10-41.5c-1.2-4.8-5.9-7.7-10.7-6.5
					s-7.7,5.9-6.5,10.7l9.5,39.3h-16c-5.8,0-10.6,4.7-10.6,10.6v25.8c0,12.8,10.4,23.1,23.1,23.1H88c12.8,0,23.1-10.4,23.1-23.1
					v-36.4l9.5-39.3C121.8,259.8,118.9,255,114.1,253.9z"/>
				<path id="XMLID_923_" class="st268" d="M58.3,350.4L58.3,350.4c-3.5-3.5-3.5-9.1,0-12.6l11.5-11.5c3.5-3.5,9.1-3.5,12.6,0h0
					c3.5,3.5,3.5,9.1,0,12.6l-11.5,11.5C67.4,353.8,61.8,353.8,58.3,350.4z"/>
				<path id="XMLID_1001_" class="st6" d="M108,362.8v102.1c-15.2-10.8-29.2-23.2-41.7-37c-3.7-4-7.2-8.2-10.6-12.5
					c-2.3-2.9-4.5-5.8-6.6-8.7v-43.9c0-0.4,0-0.9,0.1-1.3c0.1-0.3,0.2-0.7,0.3-1c0-0.1,0.1-0.2,0.1-0.3c0.1-0.3,0.3-0.6,0.5-0.9
					c0.4-0.7,1-1.2,1.7-1.7c0.3-0.2,0.6-0.4,0.9-0.5c0.1-0.1,0.2-0.1,0.3-0.1c0.3-0.1,0.7-0.2,1-0.3c0.4-0.1,0.8-0.1,1.3-0.1h46.3
					c0.8,0,1.6,0.2,2.4,0.5C106.4,357.8,108,360.1,108,362.8z"/>
				<path id="XMLID_1004_" class="st26" d="M72.6,356.4c-3.4,0-6.2,2.8-6.3,6.2c0,0.1,0,0.1,0,0.2v65.1c-3.7-4-7.2-8.2-10.6-12.5
					c-2.3-2.9-4.5-5.8-6.6-8.7v-43.9c0-0.4,0-0.9,0.1-1.3c0.1-0.3,0.2-0.7,0.3-1c0-0.1,0.1-0.2,0.1-0.3c0.1-0.3,0.3-0.6,0.5-0.9
					c0.4-0.7,1-1.2,1.7-1.7c0.3-0.2,0.6-0.4,0.9-0.5c0.1-0.1,0.2-0.1,0.3-0.1c0.3-0.1,0.7-0.2,1-0.3c0.4-0.1,0.8-0.1,1.3-0.1H72.6z"
					/>
			</g>
		</g>
		<path id="XMLID_3367_" class="st31" d="M300.7,38.5c8.6,4.3,20.8,12.8,27.7,28.9c1.5,3.5-2.1,7.1-5.6,5.5v0
			c-2.3-1.1-4.6,1.2-3.6,3.5c1.5,3.3,3.2,7.6,4.8,11.8c1.6,4.4-4.1,7.7-7.1,4.1c-8-9.4-19.9-20.4-32.4-21.9
			c-1.4-0.2-2.2-1.7-1.4-2.9c1.8-2.9,5.3-7.2,10.9-8.7c5-1.3,8.2-6.3,7.2-11.4c-0.4-2-1.3-4-2.8-6.1
			C297.2,39.7,298.9,37.6,300.7,38.5z"/>
	</g>
</g>
</svg>
