<?xml version="1.0" encoding="utf-8"?>
<!-- Generator: Adobe Illustrator 22.0.1, SVG Export Plug-In . SVG Version: 6.00 Build 0)  -->
<svg version="1.1" xmlns="http://www.w3.org/2000/svg" xmlns:xlink="http://www.w3.org/1999/xlink" x="0px" y="0px"
	 viewBox="0 0 512 512" style="enable-background:new 0 0 512 512;" xml:space="preserve">
<style type="text/css">
	.st0{fill:#E9B12D;}
	.st1{fill:#A9E7D8;}
	.st2{fill:#76CFB1;}
	.st3{fill:#AE6B5D;}
	.st4{fill:#7770D3;}
	.st5{fill:#5BA0F5;}
	.st6{fill:#DA4545;}
	.st7{fill:#89CCFC;}
	.st8{fill:#CD462A;}
	.st9{fill:#514896;}
	.st10{fill:#5493A0;}
	.st11{fill:#CC6B5C;}
	.st12{fill:#62AA8D;}
	.st13{fill:#8ABAAB;}
	.st14{fill:#C3791F;}
	.st15{fill:#E39123;}
	.st16{fill:#FFFFFF;}
	.st17{fill:none;stroke:#FFFFFF;stroke-width:10;stroke-linecap:round;stroke-miterlimit:10;}
	.st18{fill:none;stroke:#5F55AB;stroke-width:10;stroke-linecap:round;stroke-miterlimit:10;}
	.st19{fill:#A9671C;}
	.st20{fill:#D5B3A7;}
	.st21{fill:#C09A8F;}
	.st22{fill:#487F87;}
	.st23{fill:#1B305C;}
	.st24{fill:#172945;}
	.st25{fill:none;}
	.st26{fill:#B62A2A;}
	.st27{fill:#325859;}
	.st28{fill:#3F6E71;}
	.st29{fill:#284646;}
	.st30{fill:#8F2727;}
	.st31{fill:#29477C;}
	.st32{fill:#5B9BEE;}
	.st33{fill:#487FDE;}
	.st34{fill:#CD9829;}
	.st35{fill:#9F2A2A;}
	.st36{fill:#4C3328;}
	.st37{fill:#E8B94A;}
	.st38{fill:#DDF8F1;}
	.st39{fill:#3E2A22;}
	.st40{fill:#D3A971;}
	.st41{fill:#C79A5B;}
	.st42{fill:#233E76;}
	.st43{fill:#21395F;}
	.st44{fill:#487D82;}
	.st45{fill:none;stroke:#C79A5B;stroke-width:10;stroke-linecap:round;stroke-miterlimit:10;}
	.st46{fill:#5E3E31;}
	.st47{fill:#AC3939;}
	.st48{fill:#CA9628;}
	.st49{fill:#AF8F88;}
	.st50{fill:#815048;}
	.st51{fill:#6F4232;}
	.st52{fill:#5F55AB;}
	.st53{fill:#192A48;}
	.st54{fill:#152336;}
	.st55{fill:#192B49;}
	.st56{fill:#264173;}
	.st57{fill:#B06F1E;}
	.st58{fill:#4E88C0;}
	.st59{fill:#83C3F1;}
	.st60{fill:#CF9929;}
	.st61{fill:none;stroke:#FFFFFF;stroke-width:10;stroke-linecap:round;stroke-linejoin:round;stroke-miterlimit:10;}
	.st62{fill:#EAC262;}
	.st63{fill:#D6D5D4;}
	.st64{fill:#6BBA9B;}
	.st65{fill:#63AA8F;}
	.st66{fill:none;stroke:#3E2A22;stroke-width:10;stroke-linecap:round;stroke-miterlimit:10;}
	.st67{fill:#CA7D1F;}
	.st68{fill:#213B64;}
	.st69{fill:#CDF8EC;}
	.st70{fill:#C59125;}
	.st71{fill:none;stroke:#C09A8F;stroke-width:10;stroke-linecap:round;stroke-miterlimit:10;}
	.st72{fill:#32579B;}
	.st73{fill:#172843;}
	.st74{fill:#D66767;}
	.st75{fill:#A74949;}
	.st76{fill:#EBC76F;}
	.st77{fill:#7A4940;}
	.st78{fill:#182A48;}
	.st79{fill:none;stroke:#A0794A;stroke-width:10;stroke-linecap:round;stroke-miterlimit:10;}
	.st80{fill:#C37A20;}
	.st81{fill:#D26D5C;}
	.st82{fill:#A45752;}
	.st83{fill:#284579;}
	.st84{fill:#88C7F4;}
	.st85{fill:#6EB6F0;}
	.st86{fill:#32221E;}
	.st87{fill:#E7A6A6;}
	.st88{fill:#C59191;}
	.st89{fill:#AA3B3B;}
	.st90{fill:#B83E3E;}
	.st91{fill:none;stroke:#5F55A9;stroke-width:10;stroke-linecap:round;stroke-miterlimit:10;}
	.st92{fill:#963838;}
	.st93{fill:#402B25;}
	.st94{fill:#6B6ABA;}
	.st95{fill:#BABABA;}
	.st96{fill:#D1D1D1;}
	.st97{fill:#264377;}
	.st98{fill:#A19BF5;}
	.st99{fill:#3C2A21;}
	.st100{fill:none;stroke:#4C3328;stroke-width:10;stroke-linecap:round;stroke-miterlimit:10;}
	.st101{fill:#C1781F;}
	.st102{fill:#E3A147;}
	.st103{fill:#F2D2A1;}
	.st104{fill:#4F372D;}
	.st105{fill:none;stroke:#DA4545;stroke-width:10;stroke-linecap:round;stroke-miterlimit:10;}
	.st106{fill:#AA3928;}
	.st107{fill:#8C2C22;}
	.st108{fill:#BF4336;}
	.st109{fill:#5797D4;}
	.st110{fill:#CFCFCF;}
	.st111{fill:#613A2E;}
	.st112{fill:none;stroke:#B18653;stroke-width:10;stroke-linecap:round;stroke-miterlimit:10;}
	.st113{fill:#B13B3B;}
	.st114{fill:#16263A;}
	.st115{fill:none;stroke:#16263A;stroke-width:10;stroke-miterlimit:10;}
	.st116{fill:#C87D20;}
	.st117{fill:#E4F0FD;}
	.st118{fill:#AA3737;}
	.st119{fill:#BF771F;}
	.st120{fill:none;stroke:#CD462A;stroke-width:10;stroke-linejoin:round;stroke-miterlimit:10;}
	.st121{fill:#5696D2;}
	.st122{fill:#C0771E;}
	.st123{fill:#9B5F1B;}
	.st124{fill:#A83A29;}
	.st125{fill:#E7A74F;}
	.st126{fill:#C9924C;}
	.st127{fill:#C58E48;}
	.st128{fill:#BE8844;}
	.st129{fill:#916939;}
	.st130{fill:#264275;}
	.st131{fill:#253F65;}
	.st132{fill:#182A45;}
	.st133{fill:#162336;}
	.st134{fill:#93C7B7;}
	.st135{fill:#E6A4A4;}
	.st136{fill:#B06B1D;}
	.st137{fill:#484185;}
	.st138{fill:#DB6E6E;}
	.st139{fill:#6BBA9A;}
	.st140{fill:#CACCCC;}
	.st141{fill:#D4D4D4;}
	.st142{fill:#A98881;}
	.st143{fill:#213A62;}
	.st144{fill:#A2837D;}
	.st145{fill:#6FB8F4;}
	.st146{fill:#9B9E9E;}
	.st147{fill:#B2B3B3;}
	.st148{fill:#20385D;}
	.st149{fill:#335AA8;}
	.st150{fill:#BCE7FD;}
	.st151{fill:#3B2921;}
	.st152{fill:#AD3C3C;}
	.st153{fill:#9D3838;}
	.st154{fill:#603F33;}
	.st155{fill:#4D868B;}
	.st156{fill:#A2DDFD;}
	.st157{fill:#ECB6B6;}
	.st158{fill:#E8A346;}
	.st159{fill:#514C94;}
	.st160{fill:#D2F1E8;}
	.st161{fill:#BDD6CE;}
	.st162{fill:#B93B29;}
	.st163{fill:#E0AD70;}
	.st164{fill:#C57C21;}
	.st165{fill:#EDA34A;}
	.st166{fill:#2F538F;}
	.st167{fill:#2B4B78;}
	.st168{fill:#65AF91;}
	.st169{fill:#A7CEFC;}
	.st170{fill:#98BDE2;}
	.st171{fill:#CFE5F7;}
	.st172{fill:#5492CD;}
	.st173{fill:#97CCBC;}
	.st174{fill:#5491CA;}
	.st175{fill:#EDC563;}
	.st176{fill:#423C79;}
	.st177{fill:#D3B1A5;}
	.st178{fill:#BE988D;}
	.st179{fill:#A7E5D6;}
	.st180{fill:#F2FFF9;}
	.st181{fill:#D64545;}
	.st182{fill:#A73B3B;}
	.st183{fill:#15233A;}
	.st184{fill:none;stroke:#BE988D;stroke-width:10;stroke-linecap:round;stroke-miterlimit:10;}
	.st185{fill:#AF3A29;}
	.st186{fill:#FAF9FF;}
	.st187{fill:#CACACC;}
	.st188{fill:#372720;}
	.st189{fill:#3F2C26;}
	.st190{fill:#2D201C;}
	.st191{fill:#3D6D6F;}
	.st192{fill:#5B54A8;}
	.st193{fill:#325799;}
	.st194{fill:#E8C26E;}
	.st195{fill:#254784;}
	.st196{fill:#5696D4;}
	.st197{fill:#4F8AB6;}
	.st198{fill:#5FA4AC;}
	.st199{fill:#AA3524;}
	.st200{fill:#D15F4D;}
	.st201{fill:#2B294C;}
	.st202{fill:#A43A2A;}
	.st203{fill:#E7AE2D;}
	.st204{fill:#CD9729;}
	.st205{fill:none;stroke:#AA8253;stroke-width:10;stroke-linecap:round;stroke-miterlimit:10;}
	.st206{fill:none;stroke:#E18F23;stroke-width:10;stroke-linecap:round;stroke-linejoin:round;stroke-miterlimit:10;}
	.st207{fill:#CF9828;}
	.st208{fill:#B88926;}
	.st209{fill:#A17623;}
	.st210{fill:#96CCBC;}
	.st211{fill:#CF9A2A;}
	.st212{fill:#C57B20;}
	.st213{fill:#C7F1E6;}
	.st214{fill:#DC6363;}
	.st215{fill:#E89F9F;}
	.st216{fill:#C88C8C;}
	.st217{fill:#C16E6E;}
	.st218{fill:#A46060;}
	.st219{fill:#AA3626;}
	.st220{fill:#87EDC4;}
	.st221{fill:#D86552;}
	.st222{fill:#BC7620;}
	.st223{fill:#BA741E;}
	.st224{fill:#8F8CE3;}
	.st225{fill:#3A2820;}
	.st226{fill:#AC7060;}
	.st227{fill:#915F55;}
	.st228{fill:#49332A;}
	.st229{fill:#2D1F1B;}
	.st230{fill:#69B7BE;}
	.st231{fill:#D6D6D6;}
	.st232{fill:#B8B8B8;}
	.st233{fill:#CACACA;}
	.st234{fill:#467B80;}
	.st235{fill:#C2EDE2;}
	.st236{fill:#A9574F;}
	.st237{fill:#5595D2;}
	.st238{fill:#955949;}
	.st239{fill:#7E4B42;}
	.st240{fill:#89CCF1;}
	.st241{fill:#DD584A;}
	.st242{fill:#C18F26;}
	.st243{fill:#B33C2A;}
	.st244{fill:#D1A771;}
	.st245{fill:#B42A2A;}
	.st246{fill:#325797;}
	.st247{fill:#9F3529;}
	.st248{fill:#EDCE80;}
	.st249{fill:#F0DBAC;}
	.st250{fill:#CFB478;}
	.st251{fill:#D4C29B;}
	.st252{fill:#993939;}
	.st253{fill:#D1AFA3;}
	.st254{fill:#BC968B;}
	.st255{fill:none;stroke:#BC968B;stroke-width:10;stroke-linecap:round;stroke-miterlimit:10;}
	.st256{fill:#814C3C;}
	.st257{fill:#C0EBE0;}
	.st258{fill:#A5E3D4;}
	.st259{fill:#15243C;}
	.st260{fill:#443E79;}
	.st261{fill:#F0FFF7;}
	.st262{fill:#9A764B;}
	.st263{fill:#826443;}
	.st264{fill:#D9AA74;}
	.st265{fill:#5DA186;}
	.st266{fill:#68B596;}
	.st267{fill:#E5C6BE;}
	.st268{fill:#D3B6B1;}
	.st269{fill:none;stroke:#BAA09C;stroke-width:10;stroke-linecap:round;stroke-miterlimit:10;}
	.st270{fill:#F4D78F;}
	.st271{fill:#20385F;}
	.st272{fill:#BA8727;}
	.st273{fill:#5A9C82;}
	.st274{fill:none;stroke:#E39123;stroke-width:10;stroke-linecap:round;stroke-linejoin:round;stroke-miterlimit:10;}
	.st275{fill:#60392D;}
	.st276{fill:#CCCCCC;}
	.st277{fill:#844F3E;}
	.st278{fill:#F3FFFB;}
	.st279{fill:#365E60;}
	.st280{fill:#D84545;}
	.st281{fill:#A83B3B;}
	.st282{fill:#253F70;}
	.st283{fill:#EAADAD;}
	.st284{fill:#443E7C;}
	.st285{fill:#3D6B9F;}
	.st286{fill:#4274BC;}
	.st287{fill:#AF3827;}
	.st288{fill:#E59D9D;}
	.st289{fill:#C48989;}
	.st290{fill:none;stroke:#9B621A;stroke-width:10;stroke-linecap:round;stroke-linejoin:round;stroke-miterlimit:10;}
	.st291{fill:#213A5E;}
	.st292{fill:#2D507A;}
	.st293{fill:#528EC8;}
	.st294{fill:#EFD696;}
	.st295{fill:#D1BA87;}
	.st296{fill:#FDFCFC;}
	.st297{fill:#86CBFC;}
	.st298{fill:#7AB7DA;}
	.st299{fill:#192C4C;}
	.st300{fill:#BCBCBC;}
	.st301{fill:#A13838;}
	.st302{fill:#75BDF6;}
	.st303{fill:#D0B1AA;}
	.st304{fill:#142233;}
	.st305{fill:#E6C4BB;}
	.st306{fill:#BDBDBD;}
	.st307{fill:#E8A192;}
	.st308{fill:#A43939;}
	.st309{fill:#162640;}
	.st310{fill:#27457C;}
	.st311{fill:#EFBE5E;}
	.st312{fill:#87EDC5;}
	.st313{fill:#A03838;}
	.st314{fill:#833232;}
	.st315{fill:#47417F;}
	.st316{fill:none;stroke:#915F55;stroke-width:10;stroke-linecap:round;stroke-miterlimit:10;}
	.st317{fill:#BC8B25;}
	.st318{fill:#473129;}
	.st319{fill:#67B394;}
	.st320{fill:#599A80;}
	.st321{fill:#B13D3D;}
</style>
<g id="BULINE">
	<circle id="XMLID_1868_" class="st6" cx="256" cy="256" r="256"/>
	<g>
	</g>
</g>
<g id="Icons">
	<g id="XMLID_1906_">
		<path id="XMLID_2224_" class="st138" d="M481.2,173.5c0,43.5-12.4,84.2-33.8,118.6c-0.3,0.4-0.6,0.9-0.8,1.3
			c-4.5,7.1-9.3,13.9-14.5,20.4c-22.6,28.2-51.8,50.9-85.2,65.6c-5.7,2.5-11.5,4.8-17.4,6.8c-3.3,1.1-6.6,2.2-9.9,3.1
			c-20.1,5.9-41.4,9.1-63.4,9.1c-21.2,0-41.8-2.9-61.2-8.4c-12-3.4-23.5-7.7-34.6-13c-0.2-0.1-0.5-0.2-0.8-0.4
			c-7.6-3.6-14.9-7.6-22-12c-2.2-1.4-4.4-2.8-6.6-4.3c-1-0.6-1.9-1.3-2.9-2c-14.2-9.8-27.2-21.3-38.8-34.1c-1.5-1.6-2.9-3.2-4.3-4.9
			c0,0,0,0-0.1-0.1c-1.3-1.5-2.5-3-3.8-4.5c-2.9-3.5-5.6-7.2-8.3-10.9c-0.1-0.1-0.2-0.3-0.3-0.4c-0.8-1.2-1.6-2.3-2.4-3.5
			c-11.8-17.3-21.3-36.4-27.9-56.7c-7.2-22-11.1-45.5-11.1-69.9c0-17.1,1.9-33.7,5.5-49.6C81.6,49.6,163,0,256,0
			c27.6,0,54.2,4.4,79.1,12.5h0.5c1,0,1.9,0,2.9,0c0.8,0,1.7,0.1,2.5,0.1c0.9,0,1.8,0.1,2.7,0.2c0.9,0.1,1.7,0.1,2.5,0.2
			c0,0,0.1,0,0.1,0c38.4,3.7,71.1,26.8,88.1,59.5c16,15.6,30.1,33.3,41.6,52.6C479.4,140.6,481.2,156.8,481.2,173.5z"/>
		<g id="XMLID_1928_">
			<path id="XMLID_2016_" class="st16" d="M150.1,324.3h-65c-8.2,0-14.9-6.7-14.9-14.9v-166c0-8.2,6.7-14.9,14.9-14.9h65
				c8.2,0,14.9,6.7,14.9,14.9v166C165,317.7,158.3,324.3,150.1,324.3z"/>
			<g id="XMLID_2008_">
				<path id="XMLID_2015_" class="st2" d="M123.8,319.5H55.6c-7.3,0-13.3-5.9-13.3-13.3V176.7c0-7.3,5.9-13.3,13.3-13.3h68.2
					c7.3,0,13.3,5.9,13.3,13.3v129.5C137.1,313.5,131.1,319.5,123.8,319.5z"/>
				<path id="XMLID_2014_" class="st139" d="M86.2,319.5H55.6c-7.3,0-13.3-5.9-13.3-13.3V176.7c0-7.3,5.9-13.3,13.3-13.3h30.7
					c-7.3,0-13.3,5.9-13.3,13.3v129.5C73,313.5,78.9,319.5,86.2,319.5z"/>
				<g id="XMLID_2009_">
					<circle id="XMLID_2012_" class="st17" cx="89.8" cy="241.5" r="36.1"/>
					<ellipse id="XMLID_2011_" class="st17" cx="89.8" cy="241.5" rx="14.6" ry="36.1"/>
					<path id="XMLID_2010_" class="st17" d="M54.4,238.9c0,4,15.8,7.3,35.3,7.3s35.3-3.3,35.3-7.3"/>
				</g>
			</g>
			<path id="XMLID_2007_" class="st140" d="M151,176.7v129.5c0,7.3-5.9,13.3-13.3,13.3h-14.7c7.3,0,13.3-5.9,13.3-13.3V176.7
				c0-7.3-5.9-13.3-13.3-13.3h14.7C145.1,163.5,151,169.4,151,176.7z"/>
			<path id="XMLID_2004_" class="st16" d="M130.7,360.4l-63.7,10c-3.4,0.5-5.7,3.7-5.2,7.1l3.5,22.5l78.6,3.8l-6-38.3
				C137.3,362.2,134.1,359.9,130.7,360.4z"/>
			<path id="XMLID_2003_" class="st141" d="M142.1,399.1l0.8,4.9l-78.6-3.8l-3.5-22.5c-0.5-3.4,1.8-6.6,5.2-7.1l23.7-3.7
				c-3.4,0.5-5.7,3.7-5.2,7.1l3.5,22.5L142.1,399.1z"/>
			<path id="XMLID_2083_" class="st0" d="M463.6,362.5v43.3c-43.3,59.9-111.8,100.3-189.9,105.6c-5.8,0.4-11.7,0.6-17.7,0.6
				c-16.3,0-32.3-1.5-47.8-4.5c-4.4-0.8-8.9-1.8-13.2-2.9c-10.9-2.7-21.5-6-31.8-10c-0.9-0.4-1.9-0.7-2.8-1.1
				c-0.3-0.1-0.5-0.2-0.8-0.3V362.5c0-18.4,9.3-34.6,23.4-44.2c8.5-5.8,18.8-9.2,29.9-9.2h197.4c7.8,0,15.1,1.7,21.8,4.7
				c4.4,2,8.5,4.5,12.1,7.5c3.6,2.9,6.7,6.3,9.4,10.1C459.9,340.2,463.6,350.9,463.6,362.5z"/>
			<path id="XMLID_2047_" class="st15" d="M248.3,309.2c-22.9,0-42.4,14.4-50,34.7c-2.2,5.8-3.4,12.1-3.4,18.6v142.2
				c-10.9-2.7-21.5-6-31.8-10c-0.9-0.4-1.9-0.7-2.8-1.1v-131c0-18.1,9-34.1,22.8-43.8c8.6-6,19.1-9.6,30.5-9.6H248.3z"/>
			<path id="XMLID_2061_" class="st36" d="M458.7,326.4l-22.3,22.3l-55.2,55.2l-66.5,66.5l-40.9,40.9c-5.8,0.4-11.7,0.6-17.7,0.6
				c-16.3,0-32.3-1.5-47.8-4.5l100.9-100.9c0,0,0,0,0,0l20.3-20.3l94.5-94.5c5.8-5.8,15.1-5.8,20.9,0l1.7,1.7l0.8,0.8l11.3,11.3
				C464.5,311.2,464.5,320.6,458.7,326.4z"/>
			<path id="XMLID_1997_" class="st21" d="M423.1,161.8h-2.5v-16.9c0-11.5-1.8-22.5-5.1-32.9c-94.1-59.2-174.8-22.8-205.2-4.3
				c-4.2,11.6-6.6,24.1-6.6,37.2v0v16.9h-2c-8.3,0-15,6.7-15,15v14.3c0,8.3,6.7,15,15,15h2.7c0,0,0,0,0,0c1,9.3,3.2,18.1,6.5,26.5
				c0,0.1,0,0.1,0.1,0.2c0.3,0.7,0.5,1.4,0.8,2.1c0,0.1,0.1,0.2,0.1,0.3c0.3,0.7,0.6,1.3,0.8,2c0,0.1,0.1,0.2,0.1,0.3
				c0.3,0.6,0.6,1.3,0.9,1.9c0.1,0.1,0.1,0.2,0.2,0.3c0.3,0.6,0.6,1.3,0.9,1.9c0.1,0.1,0.1,0.2,0.2,0.3c0.3,0.6,0.6,1.3,1,1.9
				c0,0.1,0.1,0.2,0.1,0.3c0.3,0.6,0.7,1.3,1,1.9c0,0.1,0.1,0.1,0.1,0.2c2.3,4.1,4.8,8.1,7.6,11.9c0.1,0.1,0.1,0.2,0.2,0.3
				c0.4,0.5,0.7,1,1.1,1.5c0.1,0.2,0.3,0.3,0.4,0.5c0.4,0.5,0.7,0.9,1.1,1.3c0.2,0.2,0.3,0.4,0.5,0.6c0.3,0.4,0.7,0.8,1,1.2
				c0.2,0.2,0.4,0.5,0.6,0.7c0.3,0.4,0.7,0.8,1,1.2c0.2,0.2,0.4,0.5,0.6,0.7c0.3,0.4,0.7,0.7,1,1.1c0.2,0.3,0.5,0.5,0.7,0.8
				c0.3,0.4,0.7,0.7,1,1.1c0.2,0.3,0.5,0.5,0.7,0.8c0.3,0.3,0.7,0.7,1,1c0.3,0.3,0.5,0.5,0.8,0.8c0.3,0.3,0.7,0.6,1,0.9
				c0.3,0.3,0.6,0.5,0.9,0.8c0.3,0.3,0.6,0.6,1,0.9c0.3,0.3,0.6,0.6,0.9,0.8c0.3,0.3,0.6,0.6,0.9,0.8c0.3,0.3,0.7,0.6,1.1,0.9
				c0.3,0.2,0.6,0.5,0.9,0.7c0.5,0.4,1.1,0.9,1.6,1.3c0.2,0.2,0.4,0.3,0.6,0.5c0.6,0.4,1.2,0.9,1.7,1.3c0.2,0.2,0.4,0.3,0.7,0.5
				c0.5,0.3,0.9,0.7,1.4,1c0.3,0.2,0.5,0.4,0.8,0.5c0.4,0.3,0.9,0.6,1.3,0.9c0.3,0.2,0.5,0.4,0.8,0.5c0.4,0.3,0.9,0.6,1.3,0.9
				c0.3,0.2,0.6,0.4,0.8,0.5c0.4,0.3,0.9,0.6,1.3,0.8c0.3,0.2,0.6,0.3,0.8,0.5c0.5,0.3,0.9,0.5,1.4,0.8c0.3,0.2,0.6,0.3,0.8,0.5
				c0.5,0.3,0.9,0.5,1.4,0.8c0.3,0.2,0.5,0.3,0.8,0.4c0.5,0.3,1,0.5,1.5,0.8c0.3,0.1,0.5,0.3,0.8,0.4c0.5,0.3,1,0.5,1.5,0.8
				c0.3,0.1,0.5,0.2,0.8,0.4c0.5,0.3,1.1,0.5,1.6,0.8c0.2,0.1,0.5,0.2,0.7,0.3c0.6,0.3,1.2,0.5,1.8,0.8c0.2,0.1,0.4,0.2,0.6,0.2
				c0.7,0.3,1.4,0.6,2.1,0.9c0.1,0,0.2,0.1,0.3,0.1c2.4,1,4.9,1.8,7.5,2.6c0.1,0,0.1,0,0.2,0.1c0.8,0.2,1.5,0.5,2.3,0.7
				c0.2,0,0.3,0.1,0.5,0.1c0.7,0.2,1.3,0.4,2,0.5c0.2,0.1,0.4,0.1,0.6,0.2c0.6,0.2,1.3,0.3,1.9,0.5c0.2,0.1,0.5,0.1,0.7,0.2
				c0.6,0.1,1.2,0.3,1.9,0.4c0.2,0.1,0.5,0.1,0.7,0.2c0.6,0.1,1.2,0.2,1.8,0.4c0.3,0,0.5,0.1,0.8,0.1c0.6,0.1,1.2,0.2,1.9,0.3
				c0.3,0,0.5,0.1,0.8,0.1c0.6,0.1,1.3,0.2,1.9,0.3c0.2,0,0.5,0.1,0.7,0.1c0.7,0.1,1.3,0.2,2,0.2c0.2,0,0.5,0,0.7,0.1
				c0.7,0.1,1.4,0.1,2.1,0.2c0.2,0,0.4,0,0.6,0c0.8,0.1,1.6,0.1,2.3,0.1c0.1,0,0.2,0,0.3,0c1.8,0.1,3.7,0.1,5.5,0.1
				c0.1,0,0.2,0,0.2,0c1.4,0,2.9,0,4.3-0.1c0.2,0,0.4,0,0.6,0c1.4-0.1,2.9-0.2,4.3-0.3c0.2,0,0.4,0,0.7-0.1c1.4-0.1,2.8-0.3,4.2-0.5
				c0.2,0,0.4-0.1,0.7-0.1c1.4-0.2,2.8-0.4,4.1-0.7c0.1,0,0.2,0,0.3-0.1c0,0,0,0,0,0c46.7-8.4,83.1-46.8,88.4-94.5h3.2
				c8.3,0,15-6.7,15-15v-14.3C438.1,168.5,431.4,161.8,423.1,161.8z"/>
			<path id="XMLID_1996_" class="st142" d="M344.9,297.3c-4.4,1.4-8.8,2.5-13.4,3.3c-0.1,0-0.2,0-0.3,0.1c-1.4,0.2-2.8,0.5-4.2,0.6
				c-0.2,0-0.4,0.1-0.7,0.1c-1.4,0.2-2.8,0.3-4.2,0.5c-0.2,0-0.5,0-0.7,0c-1.4,0.1-2.8,0.2-4.3,0.3c-0.2,0-0.4,0-0.6,0
				c-1.4,0.1-2.9,0.1-4.3,0.1c-0.1,0-0.2,0-0.2,0c-1.9,0-3.7,0-5.5-0.1c-0.1,0-0.2,0-0.3,0c-0.8,0-1.6-0.1-2.3-0.2
				c-0.2,0-0.4,0-0.6,0c-0.7,0-1.4-0.1-2.1-0.2c-0.2,0-0.4,0-0.7-0.1c-0.7-0.1-1.3-0.1-2-0.2c-0.2,0-0.5-0.1-0.7-0.1
				c-0.6-0.1-1.3-0.2-1.9-0.3c-0.3,0-0.5-0.1-0.8-0.1c-0.6-0.1-1.2-0.2-1.9-0.3c-0.2,0-0.5-0.1-0.8-0.1c-0.6-0.1-1.2-0.2-1.8-0.3
				c-0.2,0-0.5-0.1-0.8-0.2c-0.6-0.1-1.2-0.3-1.9-0.4c-0.2,0-0.5-0.1-0.7-0.2c-0.6-0.2-1.3-0.3-1.9-0.5c-0.2,0-0.4-0.1-0.6-0.1
				c-0.7-0.2-1.4-0.4-2-0.6c-0.2,0-0.3-0.1-0.5-0.1c-0.8-0.2-1.5-0.4-2.3-0.7c-0.1,0-0.1,0-0.2-0.1c-2.5-0.8-5-1.7-7.4-2.6
				c-0.1,0-0.2-0.1-0.3-0.1c-0.7-0.3-1.4-0.6-2.1-0.9c-0.2-0.1-0.4-0.2-0.6-0.2c-0.6-0.2-1.2-0.5-1.8-0.8c-0.2-0.1-0.5-0.2-0.7-0.3
				c-0.5-0.2-1.1-0.5-1.6-0.8c-0.2-0.1-0.5-0.2-0.8-0.4c-0.5-0.2-1-0.5-1.5-0.8c-0.3-0.1-0.5-0.3-0.8-0.4c-0.5-0.3-1-0.5-1.5-0.8
				c-0.3-0.1-0.6-0.3-0.8-0.5c-0.5-0.3-0.9-0.5-1.4-0.8c-0.3-0.2-0.6-0.3-0.8-0.5c-0.4-0.3-0.9-0.5-1.4-0.8
				c-0.3-0.2-0.6-0.3-0.8-0.5c-0.4-0.3-0.9-0.6-1.3-0.8c-0.3-0.2-0.6-0.4-0.8-0.5c-0.4-0.3-0.9-0.6-1.3-0.9
				c-0.3-0.2-0.5-0.4-0.8-0.5c-0.4-0.3-0.9-0.6-1.3-0.9c-0.2-0.2-0.5-0.3-0.8-0.5c-0.5-0.3-0.9-0.7-1.4-1c-0.2-0.2-0.5-0.3-0.7-0.5
				c-0.6-0.4-1.2-0.9-1.7-1.3c-0.2-0.2-0.4-0.3-0.6-0.5c-0.5-0.4-1.1-0.9-1.6-1.3c-0.3-0.2-0.6-0.5-0.9-0.7
				c-0.4-0.3-0.7-0.6-1.1-0.9c-0.3-0.3-0.6-0.5-0.9-0.8c-0.3-0.3-0.6-0.5-0.9-0.8c-0.3-0.3-0.7-0.6-1-0.9c-0.3-0.3-0.6-0.5-0.9-0.8
				c-0.3-0.3-0.7-0.6-1-1c-0.3-0.3-0.5-0.5-0.8-0.8c-0.3-0.3-0.7-0.7-1-1c-0.2-0.3-0.5-0.5-0.8-0.8c-0.3-0.4-0.7-0.7-1-1
				c-0.2-0.2-0.5-0.5-0.7-0.8c-0.3-0.4-0.7-0.7-1-1.1c-0.2-0.2-0.4-0.5-0.6-0.7c-0.3-0.4-0.7-0.8-1-1.2c-0.2-0.2-0.4-0.5-0.6-0.7
				c-0.3-0.4-0.7-0.8-1-1.2c-0.2-0.2-0.3-0.4-0.5-0.6c-0.4-0.5-0.7-0.9-1.1-1.3c-0.1-0.2-0.3-0.3-0.4-0.5c-0.4-0.5-0.8-1-1.1-1.5
				c-0.1-0.1-0.1-0.2-0.2-0.3c-2.8-3.8-5.3-7.8-7.6-11.9c0,0-0.1-0.1-0.1-0.2c-0.3-0.6-0.7-1.3-1-1.9c0-0.1-0.1-0.2-0.1-0.3
				c-0.3-0.6-0.7-1.3-1-1.9c0-0.1-0.1-0.2-0.2-0.3c-0.3-0.6-0.6-1.3-0.9-1.9c-0.1-0.1-0.1-0.2-0.2-0.3c-0.3-0.6-0.6-1.3-0.9-1.9
				c0-0.1-0.1-0.2-0.1-0.3c-0.3-0.7-0.6-1.3-0.8-2c0-0.1-0.1-0.2-0.1-0.3c-0.3-0.7-0.5-1.4-0.8-2.1c0,0,0-0.1-0.1-0.2
				c-3.2-8.4-5.4-17.3-6.5-26.5v0h-2.7c-8.3,0-15-6.7-15-15v-14.3c0-8.3,6.7-15,15-15h2v-16.9c0-13.1,2.3-25.6,6.6-37.2
				c13.1-8,35.5-19.2,64.3-24.8c-19.5,23.1-31.2,52.9-31.2,85.6C243.4,231.3,286.7,283.8,344.9,297.3z"/>
			<path id="XMLID_1992_" class="st42" d="M447,281.2V123.8c0-18.5-4.5-36-12.5-51.3c-17-32.6-49.7-55.8-88.1-59.5c0,0-0.1,0-0.1,0
				c-0.8-0.1-1.7-0.1-2.5-0.2c-0.9-0.1-1.8-0.1-2.7-0.2c-0.8,0-1.7-0.1-2.5-0.1c-0.9,0-1.9,0-2.9,0h-48.6
				c-61.5,0-111.3,49.8-111.3,111.3v157.4c0,4.7,0.3,9.3,1,13.8c1.1,8.2,3.3,16,6.3,23.4c0,0.1,0.1,0.3,0.2,0.4
				c3.8,9.1,8.9,17.6,15.1,25.1c18,21.8,45.3,35.6,75.7,35.6h47.9c0,3-0.8,6.3-2.3,9.9c-2.2,5.3-5.9,11.1-10.4,17.2
				c-0.1,0.1-0.2,0.2-0.2,0.3c-6.8,9.1-15.6,18.6-24.5,27.4c-2.8,2.8-5.7,5.6-8.4,8.2c0,0,0,0,0,0c-0.8,0.8-1.6,1.5-2.4,2.2
				c-0.8,0.7-1.6,1.5-2.4,2.2c-0.8,0.7-1.5,1.4-2.3,2.1c-1.5,1.4-3,2.7-4.4,4c-1.3,1.2-2.2,2.5-2.7,3.9c-0.1,0.2-0.1,0.3-0.2,0.5
				c-1,3.1-0.3,6.6,1.7,9.1c0.3,0.4,0.6,0.7,0.9,1.1c1.7,1.7,4.1,2.8,6.9,2.8h57.4c0.2,0,0.5,0,0.7,0c0.7-0.1,1.4-0.2,2.1-0.4
				c0.2-0.1,0.5-0.1,0.7-0.2c0.7-0.2,1.3-0.6,1.9-1c0.3-0.2,0.5-0.4,0.8-0.6c60-40.1,88.3-84.2,101.5-119.6
				c3.7-9.9,6.2-19.1,7.9-27.3c2.3-11,3-20.3,3.2-27.2c0-0.7,0-1.4,0-2.1C447.5,285.1,447,281.2,447,281.2z M239,93.4
				c0.5-0.2,1-0.4,1.4-0.6c0.1,0,0.2-0.1,0.3-0.1c0.7-0.3,1.4-0.5,2.1-0.8c0.2-0.1,0.3-0.1,0.5-0.2c0.7-0.2,1.4-0.5,2.1-0.8
				c0.3-0.1,0.6-0.2,0.9-0.3c0.2,0,0.3-0.1,0.4-0.2c1.1-0.4,2.2-0.7,3.3-1.1c0.9-0.3,1.7-0.6,2.6-0.9c1.1-0.3,2.2-0.7,3.3-1
				c0.6-0.2,1.1-0.3,1.7-0.5c0.6-0.2,1.1-0.3,1.7-0.5c1.1-0.3,2.3-0.6,3.4-0.9c0.6-0.1,1.2-0.3,1.7-0.4c1.2-0.3,2.3-0.6,3.5-0.8
				c1.2-0.3,2.4-0.5,3.6-0.8c0.6-0.1,1.2-0.2,1.8-0.4c0.4-0.1,0.7-0.2,1.1-0.2c20-3.8,43-4.9,68.1-0.2c22.8,4.3,47.3,13.3,72.8,29.3
				c0,0,0,0,0,0c1.8,5.5,3.1,11.2,3.9,17.1c0.8,5.2,1.2,10.4,1.2,15.8v16.9h2.5c8.3,0,15,6.7,15,15v14.3c0,8.3-6.7,15-15,15h-3.2
				c-4.8,43.1-34.9,78.5-75,91.2c-0.5,0.2-1.1,0.4-1.6,0.5c-0.5,0.2-1,0.3-1.6,0.5c-0.6,0.2-1.2,0.3-1.7,0.5
				c-1.3,0.3-2.5,0.6-3.8,0.9c-0.2,0-0.4,0.1-0.7,0.1c-0.6,0.1-1.2,0.2-1.8,0.4c-0.7,0.2-1.4,0.3-2.2,0.4c-0.1,0-0.2,0-0.3,0.1
				c-1.4,0.2-2.8,0.5-4.1,0.6c-0.2,0-0.4,0.1-0.7,0.1c0,0-0.1,0-0.1,0c-25.8-8.7-46.2-21-62.4-34.6c-6.8-5.7-12.8-11.7-18.1-17.7
				c-7.4-8.4-13.6-17-18.7-25.4c-0.8-1.3-1.6-2.6-2.3-3.8c-0.4-0.6-0.7-1.3-1.1-1.9c-1.1-1.9-2.1-3.8-3-5.6c0-0.1-0.1-0.2-0.1-0.3
				c-0.6-1.1-1.1-2.2-1.6-3.3c-0.3-0.6-0.6-1.3-0.9-1.9c-0.3-0.6-0.6-1.2-0.8-1.8c-0.3-0.6-0.5-1.2-0.8-1.8
				c-0.3-0.6-0.5-1.2-0.8-1.8c0-0.1-0.1-0.1-0.1-0.2c-0.2-0.5-0.4-1-0.6-1.5c-0.2-0.4-0.3-0.7-0.5-1.1c-0.2-0.4-0.3-0.8-0.5-1.3
				c-0.8-2-1.6-4-2.3-5.9c-0.2-0.4-0.3-0.9-0.5-1.3c-0.2-0.5-0.4-1.1-0.6-1.6c0,0,0,0,0,0c-0.6-1.6-1.1-3.1-1.5-4.6
				c-0.2-0.5-0.3-1-0.4-1.4c-0.3-0.9-0.6-1.8-0.8-2.7c-0.1-0.4-0.3-0.9-0.4-1.3c0,0,0-0.1,0-0.1c-0.2-0.6-0.3-1.3-0.5-1.9
				c-0.3-1-0.5-1.9-0.7-2.8c-0.1-0.4-0.2-0.7-0.3-1.1c-0.5-2.3-1-4.2-1.3-5.8c-0.1-0.4-0.2-0.8-0.2-1.1c-0.3-1.8-0.5-3-0.6-3.5
				c0-0.1,0-0.1,0-0.2c0,0,0,0,0-0.1c0,0,0-0.1,0-0.1c0,0,0,0,0,0v-16.9c0-1.1,0-2.3,0.1-3.4v0c0-0.3,0-0.6,0-0.9
				c0-1.1,0.1-2.1,0.2-3.1c0.1-0.8,0.1-1.6,0.2-2.4c0.1-0.6,0.1-1.1,0.2-1.7c0.1-0.9,0.2-1.7,0.3-2.6c0.1-0.5,0.1-1,0.2-1.5
				c0.1-0.9,0.3-1.7,0.4-2.6c0.1-0.5,0.2-1,0.2-1.4c0.2-1.1,0.4-2.3,0.7-3.4c0.1-0.3,0.1-0.7,0.2-1c0.3-1.3,0.6-2.6,0.9-3.8
				c0-0.2,0.1-0.3,0.1-0.5c0.8-2.9,1.7-5.8,2.7-8.7c0-0.1,0-0.1,0.1-0.2c0,0,0-0.1,0-0.1c0.1,0,0.1-0.1,0.2-0.1
				c0.2-0.1,0.4-0.3,0.7-0.4c0,0,0,0,0,0c1.2-0.7,2.4-1.4,3.6-2.1c0.6-0.4,1.3-0.7,2-1.1c1-0.6,2.1-1.1,3.2-1.7
				c0.4-0.2,0.7-0.4,1.1-0.6c0.4-0.2,0.8-0.4,1.1-0.6c0.4-0.2,0.8-0.4,1.2-0.6c2.7-1.4,5.6-2.8,8.7-4.1c0.4-0.2,0.9-0.4,1.3-0.6
				C235.2,94.9,237.1,94.2,239,93.4z"/>
			<path id="XMLID_1988_" class="st143" d="M344.1,379.5c-2.5,0-5-0.1-7.5-0.3c-41.2-3.1-75.4-31.6-86.8-70
				c-1.7-5.7-2.9-11.6-3.5-17.7c-0.4-3.4-0.5-6.9-0.5-10.4V249c-7.4-8.4-13.6-17-18.7-25.4c-0.8-1.3-1.5-2.6-2.3-3.8
				c-0.4-0.6-0.7-1.3-1.1-1.9c-1.1-1.9-2.1-3.8-3-5.6c0-0.1-0.1-0.2-0.1-0.3c-0.6-1.1-1.1-2.2-1.6-3.3c-0.3-0.6-0.6-1.3-0.9-1.9
				c-0.3-0.6-0.6-1.2-0.8-1.8c-0.3-0.6-0.5-1.2-0.8-1.8s-0.5-1.2-0.8-1.8c0-0.1-0.1-0.1-0.1-0.2c-0.2-0.5-0.4-1-0.6-1.5
				c-0.2-0.4-0.3-0.7-0.5-1.1c-0.2-0.4-0.3-0.8-0.5-1.3c-0.8-2-1.6-4-2.3-5.9c-0.2-0.4-0.3-0.9-0.5-1.3c-0.2-0.5-0.4-1.1-0.6-1.6
				c0,0,0,0,0,0c-0.6-1.6-1.1-3.1-1.5-4.6c-0.2-0.5-0.3-0.9-0.4-1.4c-0.3-0.9-0.6-1.8-0.8-2.7c-0.1-0.4-0.2-0.9-0.4-1.3
				c0,0,0-0.1,0-0.1c-0.2-0.6-0.3-1.3-0.5-1.9c-0.3-1-0.5-1.9-0.7-2.8c-0.1-0.4-0.2-0.7-0.3-1.1c-0.5-2.3-1-4.2-1.3-5.8
				c-0.1-0.4-0.1-0.8-0.2-1.1c-0.3-1.8-0.5-3-0.6-3.5c0-0.1,0-0.1,0-0.2c0,0,0,0,0-0.1c0,0,0,0,0-0.1c0,0,0,0,0,0v-16.9
				c0-1.1,0-2.3,0.1-3.4v0c0-0.3,0-0.6,0-0.9c0-1.1,0.1-2.1,0.2-3.1c0.1-0.8,0.1-1.6,0.2-2.4c0.1-0.6,0.1-1.1,0.2-1.7
				c0.1-0.9,0.2-1.7,0.3-2.6c0.1-0.5,0.1-1,0.2-1.5c0.1-0.9,0.3-1.7,0.4-2.6c0.1-0.5,0.2-1,0.2-1.4c0.2-1.1,0.4-2.3,0.7-3.4
				c0.1-0.3,0.1-0.7,0.2-1c0.3-1.3,0.6-2.6,0.9-3.8c0-0.2,0.1-0.3,0.1-0.5c0.8-2.9,1.7-5.8,2.7-8.7c0,0,0-0.1,0.1-0.2
				c0,0,0-0.1,0-0.1c0,0,0,0,0,0c0.3-0.2,0.6-0.3,0.9-0.5c0,0,0,0,0,0c0.3-0.2,0.6-0.4,0.9-0.5c0.9-0.5,1.8-1,2.7-1.6
				c0.6-0.4,1.3-0.7,2-1.1c1-0.6,2.1-1.1,3.2-1.7c0.4-0.2,0.7-0.4,1.1-0.6c0.2-0.1,0.3-0.2,0.5-0.2c0.2-0.1,0.4-0.2,0.7-0.3
				c0.4-0.2,0.8-0.4,1.2-0.6c0.5-0.2,1-0.5,1.4-0.7c0.5-0.3,1-0.5,1.6-0.8c0.4-0.2,0.9-0.4,1.3-0.6c0.4-0.2,0.9-0.4,1.3-0.6
				c0.9-0.4,1.8-0.8,2.7-1.2c0.1-0.1,0.3-0.1,0.4-0.2l0.5-0.2c0.3-0.1,0.6-0.2,0.8-0.4c1.7-0.8,3.5-1.5,5.4-2.2
				c0.5-0.2,1-0.4,1.5-0.6c0.2-0.1,0.3-0.1,0.5-0.2c0.7-0.3,1.4-0.6,2.1-0.8c0.7-0.2,1.3-0.5,2-0.7c0.2-0.1,0.4-0.1,0.6-0.2
				c0.3-0.1,0.7-0.2,1-0.4c0.1-0.1,0.3-0.1,0.4-0.1c1.5-0.5,3-1,4.5-1.5c12.8-39,46.6-68.4,88-75c2.3-0.4,4.7-0.7,7.1-0.9
				c0,0-0.1,0-0.1,0c-0.8-0.1-1.7-0.1-2.5-0.2c-0.9-0.1-1.8-0.1-2.7-0.2c-0.8,0-1.7-0.1-2.5-0.1c-0.9,0-1.9,0-2.9,0h-48.6
				c-61.5,0-111.3,49.8-111.3,111.3v157.4c0,4.7,0.3,9.3,1,13.8c1.1,8.2,3.3,16,6.3,23.4c0,0.1,0.1,0.3,0.2,0.4
				c3.8,9.1,8.9,17.6,15.1,25.1c18,21.8,45.3,35.6,75.7,35.6h47.9c0,3-0.8,6.3-2.3,9.9c-2.2,5.3-5.9,11.1-10.4,17.2c0,0,0,0,0,0
				c-0.1,0.1-0.1,0.2-0.2,0.3c-6.8,9.1-15.6,18.6-24.5,27.4c-2.8,2.8-5.7,5.6-8.4,8.2c0,0,0,0,0,0c-0.8,0.8-1.6,1.5-2.4,2.2
				c-0.8,0.7-1.6,1.5-2.4,2.2c-0.8,0.7-1.5,1.4-2.3,2.1c-1.5,1.4-3,2.7-4.4,4c-1.3,1.2-2.2,2.5-2.7,3.9c-0.1,0.2-0.1,0.3-0.2,0.5
				c-1,3.1-0.3,6.6,1.7,9.1c0.3,0.4,0.6,0.7,0.9,1.1c1.7,1.7,4.1,2.8,6.9,2.8h57.4c0.2,0,0.5,0,0.7,0c0.7-0.1,1.4-0.2,2.1-0.4
				c0.2-0.1,0.5-0.1,0.7-0.2c0.7-0.3,1.3-0.6,1.9-1c0.3-0.2,0.5-0.4,0.8-0.5c-4.4-3.6-5.3-10.8-0.4-15.2
				c14.9-13.4,34.6-32.3,46.6-49.1c6.6-9.2,10.9-17.8,10.8-24.5H344.1z"/>
			<path id="XMLID_1987_" class="st26" d="M333.5,256.3c-5.7,4.9-13.1,7.9-21.2,7.9s-15.5-3-21.2-7.9c5.7-4.9,13.1-7.9,21.2-7.9
				S327.8,251.3,333.5,256.3z"/>
			<circle id="XMLID_1986_" class="st23" cx="259.4" cy="176.7" r="14.9"/>
			<circle id="XMLID_1985_" class="st16" cx="263.2" cy="171.8" r="6.6"/>
			<circle id="XMLID_1966_" class="st23" cx="363.7" cy="176.7" r="14.9"/>
			<circle id="XMLID_1961_" class="st16" cx="367.5" cy="171.8" r="6.6"/>
			<path id="XMLID_1959_" class="st144" d="M319,210.8h-13.4c-4.4,0-8-3.6-8-8v0c0-4.4,3.6-8,8-8H319c4.4,0,8,3.6,8,8v0
				C327,207.2,323.5,210.8,319,210.8z"/>
			<path id="XMLID_1958_" class="st36" d="M341.7,229.1c1.6,0,2.8,1.3,2.8,2.8l0,0c0,2.9-0.4,5.8-1.1,8.5
				c-1.7,6.2-5.2,11.7-9.9,15.9c-5.7,4.9-13.1,7.9-21.2,7.9s-15.5-3-21.2-7.9c-4.7-4.1-8.3-9.6-9.9-15.9c-0.7-2.7-1.1-5.5-1.1-8.5
				l0,0c0-1.6,1.3-2.8,2.8-2.8H341.7z"/>
			<path id="XMLID_1954_" class="st16" d="M341.7,229.1c1.6,0,2.8,1.3,2.8,2.8l0,0c0,2.9-0.4,5.8-1.1,8.5h-62.2
				c-0.7-2.7-1.1-5.5-1.1-8.5l0,0c0-1.6,1.3-2.8,2.8-2.8H341.7z"/>
			<path id="XMLID_1950_" class="st16" d="M210.3,107.7c0,0-8.9,26.9-6.6,54.1c0,0,94.8-72.2,216.9,0c0,0,1.3-35.7-5.1-49.8
				C415.5,112,326,42.9,210.3,107.7z"/>
			<path id="XMLID_2056_" class="st0" d="M163.2,494.7c-0.9-0.4-1.9-0.7-2.8-1.1c-0.3-0.1-0.5-0.2-0.8-0.3
				c-21.5-8.8-41.6-20.4-59.7-34.3c-13.9-10.7-26.7-22.8-38.1-36.1v0L57,392.4c-0.2-1.3,0.1-2.5,0.7-3.5c0.2-0.4,0.5-0.8,0.8-1.1
				c0.9-0.9,2.2-1.5,3.6-1.6c0.2,0,0.3,0,0.5,0c0.1,0,0.2,0,0.3,0l0.1,0l23.8,3.1l55.8,7.2l1.2,0.1c2.4,0.3,4.2,2.1,4.6,4.5
				l11.1,70.6l0.8,4.8L163.2,494.7z"/>
			<path id="XMLID_2048_" class="st15" d="M99.9,458.9c-13.9-10.7-26.7-22.8-38.1-36.1v0L57,392.4c-0.2-1.3,0.1-2.5,0.7-3.5
				c0.2-0.4,0.5-0.8,0.8-1.1c0.9-0.9,2.2-1.5,3.6-1.6c0.2,0,0.3,0,0.5,0c0.1,0,0.2,0,0.4,0l0.1,0l23.8,3.1l2.1,0.3l1.1,7l0.7,4.7
				l0,0.2L99.9,458.9z"/>
			<path id="XMLID_1946_" class="st21" d="M91.3,298.3l-8.1,1.3c-14.7,2.3-24.8,16.1-22.5,30.9l6.3,40l61.5-9.7l-6.3-40
				C119.8,306.1,106,296,91.3,298.3z"/>
			<path id="XMLID_1945_" class="st142" d="M97.1,298c-11.6,4.5-18.9,16.6-16.8,29.3l6.3,40L67,370.5l-6.3-40
				c-2.3-14.7,7.7-28.6,22.5-30.9l8.1-1.3C93.2,298,95.2,297.9,97.1,298z"/>
		</g>
	</g>
</g>
</svg>
