<?xml version="1.0" encoding="utf-8"?>
<!-- Generator: Adobe Illustrator 22.0.1, SVG Export Plug-In . SVG Version: 6.00 Build 0)  -->
<svg version="1.1" xmlns="http://www.w3.org/2000/svg" xmlns:xlink="http://www.w3.org/1999/xlink" x="0px" y="0px"
	 viewBox="0 0 512 512" style="enable-background:new 0 0 512 512;" xml:space="preserve">
<style type="text/css">
	.st0{fill:#E9B12D;}
	.st1{fill:#A9E7D8;}
	.st2{fill:#76CFB1;}
	.st3{fill:#AE6B5D;}
	.st4{fill:#7770D3;}
	.st5{fill:#5BA0F5;}
	.st6{fill:#DA4545;}
	.st7{fill:#89CCFC;}
	.st8{fill:#CD462A;}
	.st9{fill:#514896;}
	.st10{fill:#5493A0;}
	.st11{fill:#CC6B5C;}
	.st12{fill:#62AA8D;}
	.st13{fill:#8ABAAB;}
	.st14{fill:#C3791F;}
	.st15{fill:#E39123;}
	.st16{fill:#FFFFFF;}
	.st17{fill:none;stroke:#FFFFFF;stroke-width:10;stroke-linecap:round;stroke-miterlimit:10;}
	.st18{fill:none;stroke:#5F55AB;stroke-width:10;stroke-linecap:round;stroke-miterlimit:10;}
	.st19{fill:#A9671C;}
	.st20{fill:#D5B3A7;}
	.st21{fill:#C09A8F;}
	.st22{fill:#487F87;}
	.st23{fill:#1B305C;}
	.st24{fill:#172945;}
	.st25{fill:none;}
	.st26{fill:#B62A2A;}
	.st27{fill:#325859;}
	.st28{fill:#3F6E71;}
	.st29{fill:#284646;}
	.st30{fill:#8F2727;}
	.st31{fill:#29477C;}
	.st32{fill:#5B9BEE;}
	.st33{fill:#487FDE;}
	.st34{fill:#CD9829;}
	.st35{fill:#9F2A2A;}
	.st36{fill:#4C3328;}
	.st37{fill:#E8B94A;}
	.st38{fill:#DDF8F1;}
	.st39{fill:#3E2A22;}
	.st40{fill:#D3A971;}
	.st41{fill:#C79A5B;}
	.st42{fill:#233E76;}
	.st43{fill:#21395F;}
	.st44{fill:#487D82;}
	.st45{fill:none;stroke:#C79A5B;stroke-width:10;stroke-linecap:round;stroke-miterlimit:10;}
	.st46{fill:#5E3E31;}
	.st47{fill:#AC3939;}
	.st48{fill:#CA9628;}
	.st49{fill:#AF8F88;}
	.st50{fill:#815048;}
	.st51{fill:#6F4232;}
	.st52{fill:#5F55AB;}
	.st53{fill:#192A48;}
	.st54{fill:#152336;}
	.st55{fill:#192B49;}
	.st56{fill:#264173;}
	.st57{fill:#B06F1E;}
	.st58{fill:#4E88C0;}
	.st59{fill:#83C3F1;}
	.st60{fill:#CF9929;}
	.st61{fill:none;stroke:#FFFFFF;stroke-width:10;stroke-linecap:round;stroke-linejoin:round;stroke-miterlimit:10;}
	.st62{fill:#EAC262;}
	.st63{fill:#D6D5D4;}
	.st64{fill:#6BBA9B;}
	.st65{fill:#63AA8F;}
	.st66{fill:none;stroke:#3E2A22;stroke-width:10;stroke-linecap:round;stroke-miterlimit:10;}
	.st67{fill:#CA7D1F;}
	.st68{fill:#213B64;}
	.st69{fill:#CDF8EC;}
	.st70{fill:#C59125;}
	.st71{fill:none;stroke:#C09A8F;stroke-width:10;stroke-linecap:round;stroke-miterlimit:10;}
	.st72{fill:#32579B;}
	.st73{fill:#172843;}
	.st74{fill:#D66767;}
	.st75{fill:#A74949;}
	.st76{fill:#EBC76F;}
	.st77{fill:#7A4940;}
	.st78{fill:#182A48;}
	.st79{fill:none;stroke:#A0794A;stroke-width:10;stroke-linecap:round;stroke-miterlimit:10;}
	.st80{fill:#C37A20;}
	.st81{fill:#D26D5C;}
	.st82{fill:#A45752;}
	.st83{fill:#284579;}
	.st84{fill:#88C7F4;}
	.st85{fill:#6EB6F0;}
	.st86{fill:#32221E;}
	.st87{fill:#E7A6A6;}
	.st88{fill:#C59191;}
	.st89{fill:#AA3B3B;}
	.st90{fill:#B83E3E;}
	.st91{fill:none;stroke:#5F55A9;stroke-width:10;stroke-linecap:round;stroke-miterlimit:10;}
	.st92{fill:#963838;}
	.st93{fill:#402B25;}
	.st94{fill:#6B6ABA;}
	.st95{fill:#BABABA;}
	.st96{fill:#D1D1D1;}
	.st97{fill:#264377;}
	.st98{fill:#A19BF5;}
	.st99{fill:#3C2A21;}
	.st100{fill:none;stroke:#4C3328;stroke-width:10;stroke-linecap:round;stroke-miterlimit:10;}
	.st101{fill:#C1781F;}
	.st102{fill:#E3A147;}
	.st103{fill:#F2D2A1;}
	.st104{fill:#4F372D;}
	.st105{fill:none;stroke:#DA4545;stroke-width:10;stroke-linecap:round;stroke-miterlimit:10;}
	.st106{fill:#AA3928;}
	.st107{fill:#8C2C22;}
	.st108{fill:#BF4336;}
	.st109{fill:#5797D4;}
	.st110{fill:#CFCFCF;}
	.st111{fill:#613A2E;}
	.st112{fill:none;stroke:#B18653;stroke-width:10;stroke-linecap:round;stroke-miterlimit:10;}
	.st113{fill:#B13B3B;}
	.st114{fill:#16263A;}
	.st115{fill:none;stroke:#16263A;stroke-width:10;stroke-miterlimit:10;}
	.st116{fill:#C87D20;}
	.st117{fill:#E4F0FD;}
	.st118{fill:#AA3737;}
	.st119{fill:#BF771F;}
	.st120{fill:none;stroke:#CD462A;stroke-width:10;stroke-linejoin:round;stroke-miterlimit:10;}
	.st121{fill:#5696D2;}
	.st122{fill:#C0771E;}
	.st123{fill:#9B5F1B;}
	.st124{fill:#A83A29;}
	.st125{fill:#E7A74F;}
	.st126{fill:#C9924C;}
	.st127{fill:#C58E48;}
	.st128{fill:#BE8844;}
	.st129{fill:#916939;}
	.st130{fill:#264275;}
	.st131{fill:#253F65;}
	.st132{fill:#182A45;}
	.st133{fill:#162336;}
	.st134{fill:#93C7B7;}
	.st135{fill:#E6A4A4;}
	.st136{fill:#B06B1D;}
	.st137{fill:#484185;}
	.st138{fill:#DB6E6E;}
	.st139{fill:#6BBA9A;}
	.st140{fill:#CACCCC;}
	.st141{fill:#D4D4D4;}
	.st142{fill:#A98881;}
	.st143{fill:#213A62;}
	.st144{fill:#A2837D;}
	.st145{fill:#6FB8F4;}
	.st146{fill:#9B9E9E;}
	.st147{fill:#B2B3B3;}
	.st148{fill:#20385D;}
	.st149{fill:#335AA8;}
	.st150{fill:#BCE7FD;}
	.st151{fill:#3B2921;}
	.st152{fill:#AD3C3C;}
	.st153{fill:#9D3838;}
	.st154{fill:#603F33;}
	.st155{fill:#4D868B;}
	.st156{fill:#A2DDFD;}
	.st157{fill:#ECB6B6;}
	.st158{fill:#E8A346;}
	.st159{fill:#514C94;}
	.st160{fill:#D2F1E8;}
	.st161{fill:#BDD6CE;}
	.st162{fill:#B93B29;}
	.st163{fill:#E0AD70;}
	.st164{fill:#C57C21;}
	.st165{fill:#EDA34A;}
	.st166{fill:#2F538F;}
	.st167{fill:#2B4B78;}
	.st168{fill:#65AF91;}
	.st169{fill:#A7CEFC;}
	.st170{fill:#98BDE2;}
	.st171{fill:#CFE5F7;}
	.st172{fill:#5492CD;}
	.st173{fill:#97CCBC;}
	.st174{fill:#5491CA;}
	.st175{fill:#EDC563;}
	.st176{fill:#423C79;}
	.st177{fill:#D3B1A5;}
	.st178{fill:#BE988D;}
	.st179{fill:#A7E5D6;}
	.st180{fill:#F2FFF9;}
	.st181{fill:#D64545;}
	.st182{fill:#A73B3B;}
	.st183{fill:#15233A;}
	.st184{fill:none;stroke:#BE988D;stroke-width:10;stroke-linecap:round;stroke-miterlimit:10;}
	.st185{fill:#AF3A29;}
	.st186{fill:#FAF9FF;}
	.st187{fill:#CACACC;}
	.st188{fill:#372720;}
	.st189{fill:#3F2C26;}
	.st190{fill:#2D201C;}
	.st191{fill:#3D6D6F;}
	.st192{fill:#5B54A8;}
	.st193{fill:#325799;}
	.st194{fill:#E8C26E;}
	.st195{fill:#254784;}
	.st196{fill:#5696D4;}
	.st197{fill:#4F8AB6;}
	.st198{fill:#5FA4AC;}
	.st199{fill:#AA3524;}
	.st200{fill:#D15F4D;}
	.st201{fill:#2B294C;}
	.st202{fill:#A43A2A;}
	.st203{fill:#E7AE2D;}
	.st204{fill:#CD9729;}
	.st205{fill:none;stroke:#AA8253;stroke-width:10;stroke-linecap:round;stroke-miterlimit:10;}
	.st206{fill:none;stroke:#E18F23;stroke-width:10;stroke-linecap:round;stroke-linejoin:round;stroke-miterlimit:10;}
	.st207{fill:#CF9828;}
	.st208{fill:#B88926;}
	.st209{fill:#A17623;}
	.st210{fill:#96CCBC;}
	.st211{fill:#CF9A2A;}
	.st212{fill:#C57B20;}
	.st213{fill:#C7F1E6;}
	.st214{fill:#DC6363;}
	.st215{fill:#E89F9F;}
	.st216{fill:#C88C8C;}
	.st217{fill:#C16E6E;}
	.st218{fill:#A46060;}
	.st219{fill:#AA3626;}
	.st220{fill:#87EDC4;}
	.st221{fill:#D86552;}
	.st222{fill:#BC7620;}
	.st223{fill:#BA741E;}
	.st224{fill:#8F8CE3;}
	.st225{fill:#3A2820;}
	.st226{fill:#AC7060;}
	.st227{fill:#915F55;}
	.st228{fill:#49332A;}
	.st229{fill:#2D1F1B;}
	.st230{fill:#69B7BE;}
	.st231{fill:#D6D6D6;}
	.st232{fill:#B8B8B8;}
	.st233{fill:#CACACA;}
	.st234{fill:#467B80;}
	.st235{fill:#C2EDE2;}
	.st236{fill:#A9574F;}
	.st237{fill:#5595D2;}
	.st238{fill:#955949;}
	.st239{fill:#7E4B42;}
	.st240{fill:#89CCF1;}
	.st241{fill:#DD584A;}
	.st242{fill:#C18F26;}
	.st243{fill:#B33C2A;}
	.st244{fill:#D1A771;}
	.st245{fill:#B42A2A;}
	.st246{fill:#325797;}
	.st247{fill:#9F3529;}
	.st248{fill:#EDCE80;}
	.st249{fill:#F0DBAC;}
	.st250{fill:#CFB478;}
	.st251{fill:#D4C29B;}
	.st252{fill:#993939;}
	.st253{fill:#D1AFA3;}
	.st254{fill:#BC968B;}
	.st255{fill:none;stroke:#BC968B;stroke-width:10;stroke-linecap:round;stroke-miterlimit:10;}
	.st256{fill:#814C3C;}
	.st257{fill:#C0EBE0;}
	.st258{fill:#A5E3D4;}
	.st259{fill:#15243C;}
	.st260{fill:#443E79;}
	.st261{fill:#F0FFF7;}
	.st262{fill:#9A764B;}
	.st263{fill:#826443;}
	.st264{fill:#D9AA74;}
	.st265{fill:#5DA186;}
	.st266{fill:#68B596;}
	.st267{fill:#E5C6BE;}
	.st268{fill:#D3B6B1;}
	.st269{fill:none;stroke:#BAA09C;stroke-width:10;stroke-linecap:round;stroke-miterlimit:10;}
	.st270{fill:#F4D78F;}
	.st271{fill:#20385F;}
	.st272{fill:#BA8727;}
	.st273{fill:#5A9C82;}
	.st274{fill:none;stroke:#E39123;stroke-width:10;stroke-linecap:round;stroke-linejoin:round;stroke-miterlimit:10;}
	.st275{fill:#60392D;}
	.st276{fill:#CCCCCC;}
	.st277{fill:#844F3E;}
	.st278{fill:#F3FFFB;}
	.st279{fill:#365E60;}
	.st280{fill:#D84545;}
	.st281{fill:#A83B3B;}
	.st282{fill:#253F70;}
	.st283{fill:#EAADAD;}
	.st284{fill:#443E7C;}
	.st285{fill:#3D6B9F;}
	.st286{fill:#4274BC;}
	.st287{fill:#AF3827;}
	.st288{fill:#E59D9D;}
	.st289{fill:#C48989;}
	.st290{fill:none;stroke:#9B621A;stroke-width:10;stroke-linecap:round;stroke-linejoin:round;stroke-miterlimit:10;}
	.st291{fill:#213A5E;}
	.st292{fill:#2D507A;}
	.st293{fill:#528EC8;}
	.st294{fill:#EFD696;}
	.st295{fill:#D1BA87;}
	.st296{fill:#FDFCFC;}
	.st297{fill:#86CBFC;}
	.st298{fill:#7AB7DA;}
	.st299{fill:#192C4C;}
	.st300{fill:#BCBCBC;}
	.st301{fill:#A13838;}
	.st302{fill:#75BDF6;}
	.st303{fill:#D0B1AA;}
	.st304{fill:#142233;}
	.st305{fill:#E6C4BB;}
	.st306{fill:#BDBDBD;}
	.st307{fill:#E8A192;}
	.st308{fill:#A43939;}
	.st309{fill:#162640;}
	.st310{fill:#27457C;}
	.st311{fill:#EFBE5E;}
	.st312{fill:#87EDC5;}
	.st313{fill:#A03838;}
	.st314{fill:#833232;}
	.st315{fill:#47417F;}
	.st316{fill:none;stroke:#915F55;stroke-width:10;stroke-linecap:round;stroke-miterlimit:10;}
	.st317{fill:#BC8B25;}
	.st318{fill:#473129;}
	.st319{fill:#67B394;}
	.st320{fill:#599A80;}
	.st321{fill:#B13D3D;}
</style>
<g id="BULINE">
	<circle id="XMLID_2471_" class="st2" cx="256" cy="256" r="256"/>
	<g>
	</g>
</g>
<g id="Icons">
	<g id="XMLID_3806_">
		<path id="XMLID_3116_" class="st220" d="M499.2,175.7c-3.5,51-22.7,97.7-52.7,135.3c-14.1,17.7-30.7,33.4-49.2,46.5
			c-9.6,6.8-19.7,13-30.2,18.4c-14.1,7.2-29.1,13.1-44.6,17.5c-6.2,1.8-12.4,3.2-18.8,4.5c-3.7,0.7-7.4,1.4-11.2,1.9
			c-7.2,1.1-14.6,1.9-22,2.3c-0.9,0.1-1.9,0.1-2.8,0.1c-3.9,0.2-7.8,0.3-11.7,0.3c-2,0-4,0-6-0.1c-3.6-0.1-7.2-0.2-10.8-0.5
			c-14.5-1-28.6-3.2-42.3-6.6c-10.2-2.5-20.1-5.7-29.7-9.4c-5.3-2.1-10.4-4.3-15.5-6.7c-0.1-0.1-0.2-0.1-0.3-0.1
			c-0.8-0.4-1.6-0.8-2.4-1.2c-0.6-0.3-1.2-0.6-1.9-0.9c-11.1-5.5-21.7-11.9-31.8-19c-0.2-0.1-0.4-0.3-0.6-0.4
			C98.3,346,83.4,332.3,70.4,317c-0.1-0.1-0.1-0.2-0.2-0.3c-32.7-38.4-53.7-87.1-57.4-140.6C33.2,113.6,77.2,61.6,134.3,30.7
			c0.8-2.1,1.7-4.1,2.9-6.1c0,0,0,0,0,0c0.8-1.3,1.7-2.6,2.7-3.9c0.2-0.3,0.5-0.6,0.8-0.9c0.5-0.6,1.1-1.2,1.6-1.8
			c2.5-2.6,5.5-4.8,8.8-6.5c0.5-0.2,1-0.5,1.4-0.7c0.4-0.2,0.9-0.4,1.3-0.6c0.4-0.2,0.8-0.3,1.2-0.5c0,0,0,0,0,0
			c0.2-0.1,0.4-0.2,0.6-0.2c0.3-0.1,0.5-0.2,0.8-0.3c0.2-0.1,0.4-0.1,0.6-0.2c0.3-0.1,0.7-0.2,1.1-0.3c0.9-0.2,1.8-0.5,2.8-0.6
			c0.1,0,0.2,0,0.2,0c0.4-0.1,0.9-0.2,1.3-0.2h0c1.6-0.2,3.2-0.3,4.8-0.3c5.1,0,10.2,1.1,14.8,3.3C205.5,3.8,230.3,0,256,0
			C369.4,0,465.5,73.7,499.2,175.7z"/>
		<path id="XMLID_3762_" class="st8" d="M444.8,311c-2.5-2.7-5.2-5.2-8.2-7.3c6-6.9,9.7-16,9.7-25.9c0-13.3-6.6-25-16.6-32.1
			c3.1-4.5,4.9-9.9,4.9-15.8c0-15.4-12.4-27.8-27.8-27.8c-1.1,0-2.1,0.1-3.2,0.2v-51.2c0-11.7-1.5-23-4.3-33.9
			c-14-54.5-61-95.7-118.5-101.1c-1.3-0.1-2.6-0.2-3.9-0.3c-0.6,0-1.2-0.1-1.8-0.1c-0.6,0-1.2-0.1-1.8-0.1c-0.6,0-1.2,0-1.9-0.1
			c-0.5,0-1.1,0-1.6,0h-0.4c-0.7,0-1.3,0-2,0h-20.8c-0.9,0-1.7,0-2.6,0c-3,0.1-6,0.2-8.9,0.5c-1.5,0.1-3,0.3-4.5,0.5
			c-0.4,0-0.8,0.1-1.1,0.1c-0.1,0-0.1,0-0.2,0c-1.2,0.2-2.4,0.3-3.6,0.5c-0.3,0.1-0.7,0.1-1,0.2c-1.3,0.2-2.5,0.4-3.8,0.7v0
			c-8.2,1.6-16.2,3.9-23.8,7c-15.9,6.3-30.4,15.5-42.7,27.1c-5.5,5.1-10.6,10.8-15.2,16.8c-1.3,1.7-2.6,3.4-3.8,5.2v0
			c-0.1,0.1-0.2,0.2-0.3,0.4c0,0,0,0,0,0c-1.9,2.7-3.6,5.5-5.3,8.3c0,0,0,0,0,0c-4.7,8-8.6,16.5-11.5,25.4c-0.2,0.7-0.5,1.5-0.7,2.2
			v0c-4.1,12.9-6.3,26.6-6.3,40.8v51c-15.3,0-27.8,12.4-27.8,27.8c0,5.9,1.8,11.3,4.9,15.8c-10,7.2-16.6,18.9-16.6,32.1
			c0,9.9,3.7,18.9,9.7,25.9c-5.1,3.6-9.5,8.1-12.9,13.3c-5.4,8.1-8.6,17.9-8.6,28.5c0,27.9,22.2,50.5,49.8,51.3c0.4,0,0.8,0,1.1,0
			h0.2c0.4,0,0.8,0,1.2,0c0.2,0,0.5,0,0.7,0c12.4-0.4,23.6-5.2,32.3-12.9c0.6-0.6,1.3-1.1,1.9-1.7c0.9-0.9,1.9-1.9,2.7-2.9
			c7-8,11.6-18.3,12.5-29.6c0.1-1.4,0.2-2.8,0.2-4.3c0-5.1-0.8-10-2.1-14.7h196.9c-1.4,4.6-2.1,9.6-2.1,14.7
			c0,11.4,3.7,21.9,10,30.4c7.4,10,18.2,17.2,30.8,19.9c3.4,0.7,6.9,1.1,10.6,1.1c28.4,0,51.3-23,51.3-51.4
			C458.1,332.2,453.1,320.1,444.8,311z"/>
		<path id="XMLID_2768_" class="st20" d="M264.2,336.5h-16c-12.8,0-23.2-10.4-23.2-23.2V275c0-12.8,10.4-23.2,23.2-23.2h16
			c12.8,0,23.2,10.4,23.2,23.2v38.3C287.5,326.1,277.1,336.5,264.2,336.5z"/>
		<path id="XMLID_2767_" class="st21" d="M267.1,336.3c-1.1,0.2-2.2,0.2-3.4,0.2h-16c-12.8,0-23.2-10.4-23.2-23.2V275
			c0-12.8,10.4-23.2,23.2-23.2h16c1.1,0,2.3,0.1,3.4,0.2c-11.2,1.6-19.9,11.3-19.9,23v38.3C247.3,325,255.9,334.7,267.1,336.3z"/>
		<path id="XMLID_3807_" class="st221" d="M315.5,47.8c8.8,4.4,21.2,13.1,28.3,29.5c1.6,3.6-2.2,7.3-5.7,5.6v0
			c-2.3-1.1-4.7,1.3-3.7,3.6c1.5,3.4,3.3,7.7,4.9,12.1c1.6,4.5-4.2,7.8-7.3,4.2c-8.2-9.6-20.4-20.8-33.1-22.4
			c-1.4-0.2-2.2-1.8-1.4-3c1.8-2.9,5.4-7.3,11.1-8.9c5.1-1.4,8.4-6.5,7.3-11.6c-0.4-2-1.3-4.1-2.8-6.3
			C311.8,49.1,313.6,46.9,315.5,47.8z"/>
		<path id="XMLID_2775_" class="st185" d="M278.6,15.8c-0.6,0-1.2-0.1-1.8-0.1c-0.6,0-1.2-0.1-1.8-0.1c-0.6,0-1.2,0-1.9-0.1
			c-0.6,0-1.2,0-1.9,0h-0.1c-0.7,0-1.3,0-2,0h-20.8c-0.9,0-1.7,0-2.6,0c-3.1,0.1-6.2,0.2-9.3,0.5c-1.5,0.1-3,0.3-4.5,0.5
			c-0.4,0-0.8,0.1-1.1,0.1c-0.1,0-0.1,0-0.2,0c-1.2,0.2-2.4,0.3-3.6,0.5c-0.3,0.1-0.7,0.1-1,0.2c-1.3,0.2-2.5,0.4-3.8,0.7v0
			c-8.1,1.6-16,3.9-23.5,6.9c-15.9,6.2-30.4,15.4-42.7,26.9c-5.7,5.2-10.9,11-15.6,17.1c-1.3,1.7-2.6,3.5-3.8,5.3
			c-0.1,0.1-0.1,0.1-0.1,0.2l0,0c-0.2,0.3-0.4,0.6-0.6,0.9c-1.4,2.1-2.7,4.2-4,6.3c-5,8.3-9.1,17.2-12.3,26.6
			c-0.3,0.8-0.5,1.6-0.8,2.5v0c-4,12.8-6.2,26.4-6.2,40.6v51c-15.3,0-27.8,12.4-27.8,27.8c0,5.9,1.8,11.3,4.9,15.8
			c-10,7.2-16.6,18.9-16.6,32.1c0,9.9,3.6,18.9,9.7,25.9c-5,3.6-9.3,8-12.7,13.1c-5.6,8.2-8.8,18.1-8.8,28.7
			c0,28,22.4,50.7,50.2,51.3c0.4,0,0.8,0,1.1,0h0.2c0.4,0,0.8,0,1.2,0v0c0.2,0,0.5,0,0.7,0c12.4-0.5,23.7-5.4,32.3-13.2
			c0.6-0.6,1.3-1.2,1.9-1.8c0.8-0.8,1.7-1.7,2.4-2.6c1.7-2,3.3-4.1,4.8-6.4c-3.6-5.7-6.1-12.2-7.2-19.2c-0.1-0.3-0.1-0.7-0.2-1
			c-0.3-2.3-0.5-4.7-0.5-7.1c0-2.8,0.2-5.5,0.6-8.2c1.1-6.8,3.5-13.1,6.9-18.7c0.5-0.8,1-1.6,1.6-2.4c0,0,0.1-0.1,0.1-0.1
			c0.1-0.1,0.2-0.3,0.3-0.4c3.3-4.7,7.4-8.7,12-12.1c-6-6.9-9.7-16-9.7-25.9c0-8.3,2.6-16,6.9-22.3c-0.2-0.3-0.4-0.6-0.6-0.8
			c-0.1-0.1-0.1-0.2-0.2-0.3c-2.9-4-5.6-8.1-8-12.5c0-0.1-0.1-0.1-0.1-0.2c-0.4-0.7-0.7-1.3-1.1-2c0-0.1-0.1-0.2-0.2-0.3
			c-0.3-0.7-0.7-1.3-1-2c-0.1-0.1-0.1-0.2-0.2-0.3c-0.3-0.7-0.6-1.3-0.9-2c-0.1-0.1-0.1-0.2-0.2-0.4c-0.3-0.7-0.6-1.4-0.9-2
			c-0.1-0.1-0.1-0.2-0.1-0.3c-0.3-0.7-0.6-1.4-0.9-2.1c0-0.1-0.1-0.2-0.1-0.3c-0.3-0.7-0.6-1.5-0.9-2.2c0-0.1,0-0.1-0.1-0.2
			c-3.4-8.8-5.7-18.1-6.8-27.8c0,0,0,0,0,0h-2.9c-8.7,0-15.7-7-15.7-15.7v-15c0-8.7,7-15.7,15.7-15.7h2.1v-17.7c0-1.2,0-2.5,0.1-3.7
			c0.1,0.1,0.3,0.1,0.4,0.2c9.8,5.9,21.1,9.5,33.2,10.3c0,0,0.1,0,0.1,0c0.3,0,0.6,0.1,0.9,0.1c0.2,0,0.4,0,0.6,0c0.1,0,0.1,0,0.2,0
			h0.1c0.3,0,0.6,0,0.9,0c0.4,0,0.9,0,1.3,0c0.4,0,0.9,0,1.3,0c0.6,0,1.2,0,1.8,0c0,0,0,0,0,0h0c5.2-0.1,10.2-0.8,15.1-2
			c0.8-11.3,3.1-22.3,6.6-32.7c4.8-14.3,11.9-27.6,20.9-39.3c18.4-24,44.6-41.7,74.8-49.2C294.6,17.6,286.7,16.4,278.6,15.8z"/>
		<path id="XMLID_3062_" class="st5" d="M397.9,365.5v103.6c-12.7,8.5-26.1,15.8-40.2,21.9c-31.1,13.5-65.5,21-101.6,21
			c-20.3,0-40.1-2.4-59.1-6.9c-10.1-2.4-20.1-5.4-29.7-9c-6.2-2.3-12.3-4.8-18.2-7.6c-0.6-0.3-1.2-0.6-1.9-0.9
			c-0.9-0.4-1.7-0.8-2.6-1.2c-0.1,0-0.2-0.1-0.3-0.1c-4-1.9-7.9-4-11.8-6.1c-6-3.3-11.9-6.9-17.7-10.7c-0.2-0.2-0.5-0.3-0.7-0.5
			V365.5c0-2.7,0.2-5.3,0.6-7.9c3-18.8,16.5-34,34.3-39.6c2.2-0.7,4.5-1.2,6.9-1.6c0.6-0.1,1.1-0.2,1.7-0.2c1.7-0.2,3.4-0.3,5.1-0.4
			c0.1,0,0.3,0,0.4,0c0.3,0,0.6,0,0.9,0h184.2c2.7,0,5.3,0.2,7.9,0.6c21.1,3.4,37.9,20,41.3,41.2
			C397.7,360.1,397.9,362.8,397.9,365.5z"/>
		<path id="XMLID_2947_" class="st33" d="M196.9,315.7c-11.1,0-21.4,3.7-29.6,9.8c-3.4,2.5-6.4,5.4-9,8.6
			c-4.2,5.2-7.4,11.2-9.2,17.8c-0.1,0.2-0.1,0.4-0.2,0.6c-1.1,4.1-1.7,8.5-1.7,12.9v122.2c-0.9-0.4-1.7-0.8-2.6-1.2
			c-0.1,0-0.2-0.1-0.3-0.1c-4-1.9-7.9-4-11.8-6.1c-6-3.3-11.9-6.9-17.7-10.7V365.5c0-2.5,0.2-5,0.5-7.4c2.8-18.7,16.1-34,33.6-39.8
			c2.2-0.7,4.5-1.3,6.9-1.7c0.5-0.1,1.1-0.2,1.6-0.3c2.3-0.3,4.7-0.5,7.1-0.5H196.9z"/>
		<path id="XMLID_2770_" class="st20" d="M356,315.7c0,20.2-8.2,38.5-21.4,51.7c-1.9,1.9-3.9,3.7-6,5.4c-4.8,3.9-10.2,7.2-15.9,9.7
			c-9.1,4.1-19.2,6.3-29.8,6.3h-54c-11.5,0-22.3-2.6-32-7.4c-5.8-2.8-11.1-6.4-15.9-10.5c-15.4-13.4-25.1-33.1-25.1-55.1H356z"/>
		<path id="XMLID_2766_" class="st20" d="M254.9,89.4c-9.2,30.9-37.8,53.4-71.7,53.4c-14.1,0-27.3-3.9-38.5-10.7
			c0,1.2-0.1,2.5-0.1,3.7v0v17.7h-2.1c-8.7,0-15.7,7-15.7,15.7v15c0,8.7,7,15.7,15.7,15.7h2.9c0,0,0,0,0,0c1.1,9.7,3.4,19,6.8,27.8
			c0,0.1,0,0.1,0.1,0.2c0.3,0.7,0.6,1.5,0.9,2.2c0,0.1,0.1,0.2,0.1,0.3c0.3,0.7,0.6,1.4,0.9,2.1c0,0.1,0.1,0.2,0.1,0.3
			c0.3,0.7,0.6,1.4,0.9,2c0.1,0.1,0.1,0.2,0.2,0.4c0.3,0.7,0.6,1.3,1,2c0.1,0.1,0.1,0.2,0.2,0.3c0.3,0.7,0.7,1.3,1,2
			c0,0.1,0.1,0.2,0.2,0.3c0.4,0.7,0.7,1.3,1.1,2c0,0.1,0.1,0.1,0.1,0.2c2.4,4.3,5.1,8.5,8,12.5c0.1,0.1,0.1,0.2,0.2,0.3
			c0.4,0.5,0.8,1,1.2,1.6c0.1,0.2,0.3,0.4,0.4,0.5c0.4,0.5,0.7,0.9,1.1,1.4c0.2,0.2,0.3,0.4,0.5,0.6c0.4,0.4,0.7,0.9,1.1,1.3
			c0.2,0.2,0.4,0.5,0.6,0.7c0.4,0.4,0.7,0.8,1.1,1.2c0.2,0.3,0.4,0.5,0.7,0.8c0.4,0.4,0.7,0.8,1.1,1.2c0.2,0.3,0.5,0.5,0.7,0.8
			c0.3,0.4,0.7,0.7,1.1,1.1c0.3,0.3,0.5,0.5,0.8,0.8c0.3,0.4,0.7,0.7,1,1.1c0.3,0.3,0.6,0.5,0.8,0.8c0.3,0.3,0.7,0.7,1,1
			c0.3,0.3,0.6,0.5,0.9,0.8c0.3,0.3,0.7,0.6,1,0.9c0.3,0.3,0.6,0.6,1,0.9c0.3,0.3,0.7,0.6,1,0.9c0.4,0.3,0.7,0.6,1.1,0.9
			c0.3,0.3,0.6,0.5,0.9,0.8c0.5,0.4,1.1,0.9,1.6,1.3c0.3,0.2,0.5,0.4,0.8,0.6c0.6,0.4,1.2,0.9,1.7,1.3c0.2,0.2,0.5,0.4,0.7,0.5
			c0.5,0.3,0.9,0.7,1.4,1c0.3,0.2,0.5,0.4,0.8,0.6c0.5,0.3,0.9,0.6,1.4,1c0.3,0.2,0.6,0.4,0.8,0.6c0.5,0.3,0.9,0.6,1.4,0.9
			c0.3,0.2,0.6,0.4,0.9,0.5c0.5,0.3,0.9,0.6,1.4,0.9c0.3,0.2,0.6,0.4,0.9,0.5c0.5,0.3,0.9,0.6,1.4,0.8c0.3,0.2,0.6,0.3,0.9,0.5
			c0.5,0.3,1,0.5,1.5,0.8c0.3,0.2,0.6,0.3,0.9,0.5c0.5,0.3,1,0.5,1.5,0.8c0.3,0.1,0.6,0.3,0.8,0.4c0.5,0.3,1.1,0.5,1.6,0.8
			c0.3,0.1,0.5,0.3,0.8,0.4c0.6,0.3,1.1,0.5,1.7,0.8c0.2,0.1,0.5,0.2,0.7,0.3c0.6,0.3,1.2,0.5,1.9,0.8c0.2,0.1,0.4,0.2,0.6,0.3
			c0.7,0.3,1.4,0.6,2.2,0.9c0.1,0,0.2,0.1,0.3,0.1c2.6,1,5.2,1.9,7.8,2.7c0.1,0,0.2,0,0.2,0.1c0.8,0.2,1.6,0.5,2.4,0.7
			c0.2,0,0.3,0.1,0.5,0.1c0.7,0.2,1.4,0.4,2.1,0.6c0.2,0.1,0.4,0.1,0.7,0.2c0.7,0.2,1.3,0.3,2,0.5c0.2,0.1,0.5,0.1,0.7,0.2
			c0.6,0.1,1.3,0.3,1.9,0.4c0.3,0.1,0.5,0.1,0.8,0.2c0.6,0.1,1.3,0.3,1.9,0.4c0.3,0,0.5,0.1,0.8,0.1c0.6,0.1,1.3,0.2,1.9,0.3
			c0.3,0,0.5,0.1,0.8,0.1c0.7,0.1,1.3,0.2,2,0.3c0.3,0,0.5,0.1,0.8,0.1c0.7,0.1,1.4,0.2,2.1,0.2c0.2,0,0.5,0.1,0.7,0.1
			c0.7,0.1,1.5,0.1,2.2,0.2c0.2,0,0.4,0,0.6,0.1c0.8,0.1,1.6,0.1,2.4,0.2c0.1,0,0.3,0,0.4,0c1.9,0.1,3.8,0.1,5.8,0.1
			c1.8,0,3.6,0,5.4-0.1c0.1,0,0.1,0,0.2,0c0.8,0,1.6-0.1,2.5-0.1c0.2,0,0.4,0,0.5,0c0.7-0.1,1.4-0.1,2.1-0.2c0.3,0,0.5-0.1,0.8-0.1
			c0.6-0.1,1.2-0.1,1.8-0.2c0.3,0,0.6-0.1,0.9-0.1c0.5-0.1,1.1-0.1,1.6-0.2c0.4,0,0.7-0.1,1.1-0.2c0.5-0.1,1-0.1,1.4-0.2
			c0.4-0.1,0.8-0.1,1.2-0.2c0.3,0,0.5-0.1,0.8-0.1c0,0,0,0,0,0c48.9-8.8,86.9-48.9,92.5-98.9h3.3c8.7,0,15.7-7,15.7-15.7v-15
			c0-8.7-7-15.7-15.7-15.7h-2.6v-16.3c-10.6,4.4-22.1,6.8-34.3,6.8C300.2,144,268.4,121.5,254.9,89.4z"/>
		<path id="XMLID_2765_" class="st21" d="M278.3,298.8C278.3,298.8,278.3,298.8,278.3,298.8c-0.2,0-0.5,0.1-0.8,0.1
			c-0.4,0.1-0.8,0.1-1.2,0.2c-0.5,0.1-1,0.2-1.5,0.2c-0.3,0.1-0.7,0.1-1.1,0.2c-0.5,0.1-1.1,0.1-1.6,0.2c-0.3,0-0.6,0.1-0.9,0.1
			c-0.6,0.1-1.2,0.1-1.8,0.2c-0.2,0-0.5,0-0.8,0.1c-0.7,0.1-1.4,0.1-2.1,0.2c-0.2,0-0.3,0-0.5,0c-0.8,0.1-1.6,0.1-2.5,0.1
			c0,0-0.1,0-0.2,0c-1.8,0.1-3.6,0.1-5.4,0.1c-1.9,0-3.9-0.1-5.8-0.2c-0.1,0-0.2,0-0.4,0c-0.8,0-1.6-0.1-2.4-0.1c-0.2,0-0.4,0-0.6,0
			c-0.7-0.1-1.5-0.1-2.2-0.2c-0.2,0-0.5,0-0.7-0.1c-0.7-0.1-1.4-0.2-2.1-0.2c-0.3,0-0.5-0.1-0.8-0.1c-0.7-0.1-1.3-0.2-2-0.3
			c-0.3,0-0.5-0.1-0.8-0.1c-0.7-0.1-1.3-0.2-1.9-0.3c-0.3,0-0.5-0.1-0.8-0.2c-0.7-0.1-1.3-0.2-1.9-0.4c-0.3,0-0.5-0.1-0.8-0.2
			c-0.6-0.1-1.3-0.3-1.9-0.4c-0.2-0.1-0.5-0.1-0.8-0.2c-0.7-0.1-1.3-0.3-2-0.5c-0.2-0.1-0.4-0.1-0.7-0.2c-0.7-0.2-1.4-0.4-2.1-0.6
			c-0.2-0.1-0.3-0.1-0.5-0.2c-0.8-0.2-1.6-0.5-2.4-0.7c-0.1,0-0.2,0-0.2-0.1c-2.6-0.8-5.2-1.7-7.8-2.7c-0.1,0-0.2-0.1-0.3-0.1
			c-0.7-0.3-1.4-0.6-2.2-0.9c-0.2-0.1-0.4-0.2-0.6-0.2l-1.9-0.8c-0.2-0.1-0.5-0.2-0.7-0.3c-0.6-0.3-1.1-0.5-1.7-0.8
			c-0.3-0.1-0.5-0.3-0.8-0.4c-0.5-0.3-1.1-0.5-1.6-0.8c-0.3-0.1-0.6-0.3-0.8-0.4c-0.5-0.3-1-0.5-1.5-0.8c-0.3-0.2-0.6-0.3-0.9-0.5
			c-0.5-0.3-1-0.5-1.5-0.8c-0.3-0.2-0.6-0.3-0.9-0.5c-0.5-0.3-0.9-0.5-1.4-0.8c-0.3-0.2-0.6-0.3-0.9-0.5c-0.5-0.3-0.9-0.6-1.4-0.9
			c-0.3-0.2-0.6-0.4-0.9-0.6c-0.5-0.3-0.9-0.6-1.4-0.9c-0.3-0.2-0.6-0.4-0.8-0.6c-0.5-0.3-0.9-0.6-1.4-1c-0.3-0.2-0.5-0.4-0.8-0.6
			c-0.5-0.3-0.9-0.7-1.4-1c-0.2-0.2-0.5-0.4-0.7-0.5c-0.6-0.4-1.2-0.9-1.7-1.3c-0.3-0.2-0.5-0.4-0.8-0.6c-0.5-0.4-1.1-0.9-1.6-1.3
			c-0.3-0.3-0.6-0.5-0.9-0.8c-0.4-0.3-0.7-0.6-1.1-0.9c-0.3-0.3-0.7-0.6-1-0.9c-0.3-0.3-0.6-0.6-1-0.8c-0.4-0.3-0.7-0.6-1-1
			c-0.3-0.3-0.6-0.5-0.9-0.8c-0.3-0.3-0.7-0.7-1-1c-0.3-0.3-0.6-0.5-0.8-0.8c-0.4-0.3-0.7-0.7-1.1-1c-0.3-0.3-0.5-0.5-0.8-0.8
			c-0.3-0.4-0.7-0.7-1-1.1c-0.2-0.3-0.5-0.5-0.7-0.8c-0.3-0.4-0.7-0.8-1.1-1.2c-0.2-0.2-0.4-0.5-0.7-0.8c-0.4-0.4-0.7-0.8-1.1-1.2
			c-0.2-0.2-0.4-0.5-0.6-0.7c-0.4-0.4-0.7-0.9-1.1-1.3c-0.2-0.2-0.3-0.4-0.5-0.7c-0.4-0.5-0.8-0.9-1.1-1.4c-0.1-0.2-0.3-0.4-0.4-0.5
			c-0.4-0.5-0.8-1-1.2-1.6c-0.1-0.1-0.1-0.2-0.2-0.3c-2.9-4-5.6-8.1-8-12.5c0-0.1-0.1-0.1-0.1-0.2c-0.4-0.7-0.7-1.3-1.1-2
			c-0.1-0.1-0.1-0.2-0.2-0.3c-0.3-0.7-0.7-1.3-1-2c-0.1-0.1-0.1-0.2-0.2-0.3c-0.3-0.7-0.6-1.3-0.9-2c-0.1-0.1-0.1-0.2-0.2-0.4
			c-0.3-0.7-0.6-1.3-0.9-2c-0.1-0.1-0.1-0.2-0.2-0.3c-0.3-0.7-0.6-1.4-0.9-2.1c0-0.1-0.1-0.2-0.1-0.3c-0.3-0.7-0.6-1.5-0.9-2.2
			c0,0,0-0.1-0.1-0.2c-3.4-8.8-5.7-18.1-6.8-27.8c0,0,0,0,0,0h-2.9c-8.7,0-15.7-7-15.7-15.7v-15c0-8.7,7-15.7,15.7-15.7h2.1v-17.7
			c0-1.2,0-2.5,0.1-3.7c11.2,6.8,24.4,10.7,38.5,10.7c1.4,0,2.7,0,4-0.1c-2.1,9.4-3.3,19.2-3.3,29.3c0,61.9,42.5,113.5,99.1,125.8
			C281.5,298.1,279.9,298.5,278.3,298.8z"/>
		<path id="XMLID_2764_" class="st23" d="M328.6,315.7v57c-4.8,3.9-10.2,7.2-15.9,9.7v-66.8H328.6z"/>
		<circle id="XMLID_2763_" class="st23" cx="200.6" cy="169.1" r="15.6"/>
		<circle id="XMLID_2762_" class="st16" cx="204.6" cy="164" r="6.9"/>
		<circle id="XMLID_2760_" class="st23" cx="309.7" cy="169.1" r="15.6"/>
		<circle id="XMLID_2759_" class="st16" cx="313.7" cy="164" r="6.9"/>
		<path id="XMLID_2758_" class="st21" d="M263,204.8h-14c-4.6,0-8.4-3.8-8.4-8.4v0c0-4.6,3.8-8.4,8.4-8.4h14c4.6,0,8.4,3.8,8.4,8.4
			v0C271.4,201.1,267.6,204.8,263,204.8z"/>
		<path id="XMLID_2756_" class="st36" d="M286.7,224c1.6,0,3,1.3,3,3l0,0c0,3.1-0.4,6-1.2,8.8c-1.8,6.5-5.4,12.3-10.4,16.6
			c-5.9,5.2-13.7,8.3-22.1,8.3s-16.2-3.1-22.1-8.3c-5-4.3-8.6-10.1-10.4-16.6c-0.8-2.8-1.2-5.8-1.2-8.8l0,0c0-1.6,1.3-3,3-3H286.7z"
			/>
		<path id="XMLID_2755_" class="st26" d="M278.1,252.4c-5.9,5.2-13.7,8.3-22.1,8.3s-16.2-3.1-22.1-8.3c5.9-5.2,13.7-8.3,22.1-8.3
			S272.2,247.2,278.1,252.4z"/>
		<path id="XMLID_2754_" class="st16" d="M286.7,224c1.6,0,3,1.3,3,3l0,0c0,3.1-0.4,6-1.2,8.8h-65.1c-0.8-2.8-1.2-5.8-1.2-8.8l0,0
			c0-1.6,1.3-3,3-3H286.7z"/>
		<path id="XMLID_2974_" class="st15" d="M196.9,316.7v188.5c-10.1-2.4-20.1-5.4-29.7-9c-6.2-2.3-12.3-4.8-18.2-7.6v-172
			c0-7.2,5.8-13,13-13h21.9c6.9,0,12.5,5.3,12.9,12.1C196.9,316,196.9,316.4,196.9,316.7z"/>
		<path id="XMLID_2960_" class="st222" d="M180.2,303.7c-6.9,0-12.5,5.3-12.9,12.1c0,0.3,0,0.6,0,0.9v179.5
			c-6.2-2.3-12.3-4.8-18.2-7.6v-172c0-7.2,5.8-13,13-13H180.2z"/>
		<path id="XMLID_2942_" class="st20" d="M172.9,456.7c0,5.9-2.1,11.7-5.7,16.3c-2.6,3.3-6,6-10.1,7.8l-8.1,3.5l-1.9,0.8l-2.9,1.3
			c-4-1.9-7.9-4-11.8-6.1c-6-3.3-11.9-6.9-17.7-10.7c-0.2-0.2-0.5-0.3-0.7-0.5c-2.8-1.8-5.5-3.7-8.2-5.7c-2.5-1.8-4.9-3.6-7.3-5.5
			l-1-2.4c-0.6-1.4-0.9-2.8-0.9-4.2c-0.1-4.3,2.4-8.5,6.6-10.3l10.9-4.8l0.7-0.3l19-8.3c4.3-1.9,8.9-2.5,13.3-2.1
			c0.6,0.1,1.2,0.1,1.9,0.3c7.4,1.3,14.2,5.8,18.2,12.6c0.5,0.9,1,1.8,1.4,2.8l2.1,4.7c1.4,3.3,2.2,6.8,2.2,10.1
			C172.9,456.3,172.9,456.5,172.9,456.7z"/>
		<path id="XMLID_2938_" class="st21" d="M98.2,445.7l7.7,17.7c-2.5-1.8-4.9-3.6-7.3-5.5c-0.1-0.1-0.1-0.1-0.2-0.1l-0.9-2
			c-0.6-1.5-0.9-3-0.9-4.5C96.7,449.3,97.2,447.4,98.2,445.7z"/>
		<path id="XMLID_2940_" class="st21" d="M172.9,456.7c0,6-2,11.9-5.7,16.6c-2.6,3.3-6,6-10.1,7.8l-8.1,3.5l-1.9,0.8l-2.6,1.1
			c-0.1,0-0.2-0.1-0.3-0.1c-4-1.9-7.9-4-11.8-6.1l14.6-6.4l1.9-0.8l8.1-3.5c4.1-1.8,7.5-4.5,10.1-7.8c2.5-3.1,4.2-6.8,5.1-10.6
			c0.4,1.7,0.6,3.4,0.6,5C172.9,456.3,172.9,456.5,172.9,456.7z"/>
		<g id="XMLID_2743_">
			<path id="XMLID_2944_" class="st0" d="M210.7,35.8l-53.2,27.6L139,73c0,0,0,0,0,0l-1.8,0.9l-0.4,0.2l0-0.1l-0.7-6.6
				c-0.6-5.9-1.8-11.7-3-17.6c-0.1-0.3-0.1-0.6-0.2-0.9c-1.1-6.2-0.6-12.5,1.5-18.3c0.8-2.1,1.7-4.1,2.9-6.1c0,0,0,0,0,0
				c0.8-1.3,1.7-2.6,2.7-3.9c0.2-0.3,0.5-0.6,0.8-0.9c0.5-0.6,1.1-1.2,1.6-1.8c2.5-2.6,5.5-4.8,8.8-6.5c0.5-0.2,1-0.5,1.4-0.7
				c0.4-0.2,0.9-0.4,1.3-0.6c0.4-0.2,0.8-0.3,1.2-0.5c0,0,0,0,0,0c0.2-0.1,0.4-0.2,0.6-0.2c0.3-0.1,0.5-0.2,0.8-0.3
				c0.2-0.1,0.4-0.1,0.6-0.2c0.3-0.1,0.7-0.2,1.1-0.3c0.9-0.2,1.8-0.5,2.8-0.6c0.1,0,0.2,0,0.2,0c0.4-0.1,0.9-0.2,1.3-0.2h0
				c1.6-0.2,3.2-0.3,4.8-0.3c5.1,0,10.2,1.1,14.8,3.3c4,1.9,7.8,4.5,10.9,7.9c1.9,2.1,3.8,4.1,5.8,6.1c0,0,0.1,0.1,0.1,0.1
				c2.2,2.2,4.4,4.3,6.7,6.3L210.7,35.8z"/>
			<path id="XMLID_2929_" class="st70" d="M156.8,56.7l0.7,6.7L139,73c0,0,0,0,0,0l-1.8,0.9l-0.4,0.2l0-0.1l-0.7-6.6
				c-0.6-5.9-1.8-11.7-3-17.6c-0.1-0.3-0.1-0.6-0.2-0.9c-1.1-6.2-0.6-12.5,1.5-18.3c0.8-2.1,1.7-4.1,2.9-6.1c0,0,0,0,0,0
				c0.8-1.3,1.7-2.6,2.7-3.9c0.2-0.3,0.5-0.6,0.8-0.9c0.5-0.6,1.1-1.2,1.6-1.8c2.5-2.6,5.5-4.8,8.8-6.5c0.5-0.2,1-0.5,1.4-0.7
				c0.4-0.2,0.9-0.4,1.3-0.6c0.4-0.2,0.8-0.3,1.2-0.5c0,0,0,0,0,0c0.2-0.1,0.4-0.2,0.6-0.2c0.3-0.1,0.5-0.2,0.8-0.3
				c0.2-0.1,0.4-0.1,0.6-0.2c0.3-0.1,0.7-0.2,1.1-0.3c0.9-0.2,1.8-0.5,2.8-0.6c0.1,0,0.2,0,0.2,0c0.4-0.1,0.9-0.2,1.3-0.2h0
				c-3.5,3.7-6.1,8.1-7.6,12.9c-1.9,5.8-2.3,12.1-1,18.3c0.9,4.2,1.7,8.4,2.4,12.6c0,0.1,0,0.2,0,0.3
				C156.4,53.6,156.6,55.1,156.8,56.7z"/>
			<path id="XMLID_2745_" class="st15" d="M255,39.8l-142.2,73.9c-4.3,2.3-9.7,0-11-4.8l-0.9-3.2c-1.8-6.5,1.2-13.5,7.2-16.6
				l129.4-67.3c6-3.1,13.4-1.6,17.8,3.7l2.1,2.6C260.5,31.9,259.3,37.6,255,39.8z"/>
			<path id="XMLID_2744_" class="st223" d="M143.7,97.6l-31,16.1c-4.3,2.3-9.6,0-11-4.8l-0.9-3.2c-1.8-6.6,1.2-13.5,7.2-16.6L139,73
				c-6,3.1-9,10.1-7.2,16.6l0.9,3.2C134.1,97.6,139.4,99.9,143.7,97.6z"/>
		</g>
		<path id="XMLID_2930_" class="st5" d="M420.7,452c-7.3,6.1-14.9,11.8-22.8,17.1c-12.7,8.5-26.1,15.8-40.2,21.9l-20.3-2.5
			c-4.6-0.6-7.9-4.1-8.6-8.2c0-0.1,0-0.2-0.1-0.3c-0.3-1.8,0-3.8,0.8-5.6l3.4-7.2l17.3-37.1h40.2c2.6,0,5.1,0.3,7.6,0.9
			C408.6,433.6,417.2,441.6,420.7,452z"/>
		<g id="XMLID_2716_">
			<path id="XMLID_2740_" class="st6" d="M329.7,432.5l-50.5,25.2c-5.4,2.7-12,0.5-14.7-4.9L216.7,357c-2.7-5.4-0.5-12,4.9-14.7
				l50.5-25.2c5.4-2.7,12-0.5,14.7,4.9l47.8,95.8C337.3,423.3,335.1,429.8,329.7,432.5z"/>
			<path id="XMLID_2739_" class="st26" d="M301.9,446.4l-22.7,11.3c-5.4,2.7-12,0.5-14.7-4.9L216.7,357c-2.7-5.4-0.5-12,4.9-14.7
				l22.7-11.3c-5.4,2.7-7.6,9.3-4.9,14.7l47.8,95.8C289.9,446.9,296.5,449.1,301.9,446.4z"/>
			<g id="XMLID_2734_">
				<circle id="XMLID_2738_" class="st17" cx="275.7" cy="387.4" r="29.9"/>
				
					<ellipse id="XMLID_2737_" transform="matrix(0.8947 -0.4466 0.4466 0.8947 -144.0069 163.9303)" class="st17" cx="275.7" cy="387.4" rx="12.1" ry="29.9"/>
				<path id="XMLID_2735_" class="st17" d="M248.6,398.5c1.5,3,14.4-0.4,28.8-7.6c14.4-7.2,24.9-15.4,23.4-18.4"/>
			</g>
		</g>
		<path id="XMLID_2715_" class="st20" d="M292.2,466.8l31,12.5c5.6,2.3,12-0.5,14.3-6.1l13.5-33.4c2.3-5.6-0.5-12-6.1-14.3l-31-12.5
			c-13.5-5.5-28.9,1.1-34.4,14.6l-1.9,4.8C272.1,445.9,278.7,461.3,292.2,466.8z"/>
		<path id="XMLID_2712_" class="st21" d="M292.2,467.1l31,12.5c5.6,2.3,12-0.5,14.3-6.1l13.5-33.4c1.4-3.4,0.9-7.1-0.9-10L337.2,462
			c-2.3,5.6-8.7,8.4-14.3,6.1l-31-12.5c-8.1-3.3-13.7-10.1-15.7-18C273.8,449.7,280.3,462.3,292.2,467.1z"/>
	</g>
</g>
</svg>
