<?xml version="1.0" encoding="utf-8"?>
<!-- Generator: Adobe Illustrator 22.0.1, SVG Export Plug-In . SVG Version: 6.00 Build 0)  -->
<svg version="1.1" xmlns="http://www.w3.org/2000/svg" xmlns:xlink="http://www.w3.org/1999/xlink" x="0px" y="0px"
	 viewBox="0 0 512 512" style="enable-background:new 0 0 512 512;" xml:space="preserve">
<style type="text/css">
	.st0{fill:#E9B12D;}
	.st1{fill:#A9E7D8;}
	.st2{fill:#76CFB1;}
	.st3{fill:#AE6B5D;}
	.st4{fill:#7770D3;}
	.st5{fill:#5BA0F5;}
	.st6{fill:#DA4545;}
	.st7{fill:#89CCFC;}
	.st8{fill:#CD462A;}
	.st9{fill:#514896;}
	.st10{fill:#5493A0;}
	.st11{fill:#CC6B5C;}
	.st12{fill:#62AA8D;}
	.st13{fill:#8ABAAB;}
	.st14{fill:#C3791F;}
	.st15{fill:#E39123;}
	.st16{fill:#FFFFFF;}
	.st17{fill:none;stroke:#FFFFFF;stroke-width:10;stroke-linecap:round;stroke-miterlimit:10;}
	.st18{fill:none;stroke:#5F55AB;stroke-width:10;stroke-linecap:round;stroke-miterlimit:10;}
	.st19{fill:#A9671C;}
	.st20{fill:#D5B3A7;}
	.st21{fill:#C09A8F;}
	.st22{fill:#487F87;}
	.st23{fill:#1B305C;}
	.st24{fill:#172945;}
	.st25{fill:none;}
	.st26{fill:#B62A2A;}
	.st27{fill:#325859;}
	.st28{fill:#3F6E71;}
	.st29{fill:#284646;}
	.st30{fill:#8F2727;}
	.st31{fill:#29477C;}
	.st32{fill:#5B9BEE;}
	.st33{fill:#487FDE;}
	.st34{fill:#CD9829;}
	.st35{fill:#9F2A2A;}
	.st36{fill:#4C3328;}
	.st37{fill:#E8B94A;}
	.st38{fill:#DDF8F1;}
	.st39{fill:#3E2A22;}
	.st40{fill:#D3A971;}
	.st41{fill:#C79A5B;}
	.st42{fill:#233E76;}
	.st43{fill:#21395F;}
	.st44{fill:#487D82;}
	.st45{fill:none;stroke:#C79A5B;stroke-width:10;stroke-linecap:round;stroke-miterlimit:10;}
	.st46{fill:#5E3E31;}
	.st47{fill:#AC3939;}
	.st48{fill:#CA9628;}
	.st49{fill:#AF8F88;}
	.st50{fill:#815048;}
	.st51{fill:#6F4232;}
	.st52{fill:#5F55AB;}
	.st53{fill:#192A48;}
	.st54{fill:#152336;}
	.st55{fill:#192B49;}
	.st56{fill:#264173;}
	.st57{fill:#B06F1E;}
	.st58{fill:#4E88C0;}
	.st59{fill:#83C3F1;}
	.st60{fill:#CF9929;}
	.st61{fill:none;stroke:#FFFFFF;stroke-width:10;stroke-linecap:round;stroke-linejoin:round;stroke-miterlimit:10;}
	.st62{fill:#EAC262;}
	.st63{fill:#D6D5D4;}
	.st64{fill:#6BBA9B;}
	.st65{fill:#63AA8F;}
	.st66{fill:none;stroke:#3E2A22;stroke-width:10;stroke-linecap:round;stroke-miterlimit:10;}
	.st67{fill:#CA7D1F;}
	.st68{fill:#213B64;}
	.st69{fill:#CDF8EC;}
	.st70{fill:#C59125;}
	.st71{fill:none;stroke:#C09A8F;stroke-width:10;stroke-linecap:round;stroke-miterlimit:10;}
	.st72{fill:#32579B;}
	.st73{fill:#172843;}
	.st74{fill:#D66767;}
	.st75{fill:#A74949;}
	.st76{fill:#EBC76F;}
	.st77{fill:#7A4940;}
	.st78{fill:#182A48;}
	.st79{fill:none;stroke:#A0794A;stroke-width:10;stroke-linecap:round;stroke-miterlimit:10;}
	.st80{fill:#C37A20;}
	.st81{fill:#D26D5C;}
	.st82{fill:#A45752;}
	.st83{fill:#284579;}
	.st84{fill:#88C7F4;}
	.st85{fill:#6EB6F0;}
	.st86{fill:#32221E;}
	.st87{fill:#E7A6A6;}
	.st88{fill:#C59191;}
	.st89{fill:#AA3B3B;}
	.st90{fill:#B83E3E;}
	.st91{fill:none;stroke:#5F55A9;stroke-width:10;stroke-linecap:round;stroke-miterlimit:10;}
	.st92{fill:#963838;}
	.st93{fill:#402B25;}
	.st94{fill:#6B6ABA;}
	.st95{fill:#BABABA;}
	.st96{fill:#D1D1D1;}
	.st97{fill:#264377;}
	.st98{fill:#A19BF5;}
	.st99{fill:#3C2A21;}
	.st100{fill:none;stroke:#4C3328;stroke-width:10;stroke-linecap:round;stroke-miterlimit:10;}
	.st101{fill:#C1781F;}
	.st102{fill:#E3A147;}
	.st103{fill:#F2D2A1;}
	.st104{fill:#4F372D;}
	.st105{fill:none;stroke:#DA4545;stroke-width:10;stroke-linecap:round;stroke-miterlimit:10;}
	.st106{fill:#AA3928;}
	.st107{fill:#8C2C22;}
	.st108{fill:#BF4336;}
	.st109{fill:#5797D4;}
	.st110{fill:#CFCFCF;}
	.st111{fill:#613A2E;}
	.st112{fill:none;stroke:#B18653;stroke-width:10;stroke-linecap:round;stroke-miterlimit:10;}
	.st113{fill:#B13B3B;}
	.st114{fill:#16263A;}
	.st115{fill:none;stroke:#16263A;stroke-width:10;stroke-miterlimit:10;}
	.st116{fill:#C87D20;}
	.st117{fill:#E4F0FD;}
	.st118{fill:#AA3737;}
	.st119{fill:#BF771F;}
	.st120{fill:none;stroke:#CD462A;stroke-width:10;stroke-linejoin:round;stroke-miterlimit:10;}
	.st121{fill:#5696D2;}
	.st122{fill:#C0771E;}
	.st123{fill:#9B5F1B;}
	.st124{fill:#A83A29;}
	.st125{fill:#E7A74F;}
	.st126{fill:#C9924C;}
	.st127{fill:#C58E48;}
	.st128{fill:#BE8844;}
	.st129{fill:#916939;}
	.st130{fill:#264275;}
	.st131{fill:#253F65;}
	.st132{fill:#182A45;}
	.st133{fill:#162336;}
	.st134{fill:#93C7B7;}
	.st135{fill:#E6A4A4;}
	.st136{fill:#B06B1D;}
	.st137{fill:#484185;}
	.st138{fill:#DB6E6E;}
	.st139{fill:#6BBA9A;}
	.st140{fill:#CACCCC;}
	.st141{fill:#D4D4D4;}
	.st142{fill:#A98881;}
	.st143{fill:#213A62;}
	.st144{fill:#A2837D;}
	.st145{fill:#6FB8F4;}
	.st146{fill:#9B9E9E;}
	.st147{fill:#B2B3B3;}
	.st148{fill:#20385D;}
	.st149{fill:#335AA8;}
	.st150{fill:#BCE7FD;}
	.st151{fill:#3B2921;}
	.st152{fill:#AD3C3C;}
	.st153{fill:#9D3838;}
	.st154{fill:#603F33;}
	.st155{fill:#4D868B;}
	.st156{fill:#A2DDFD;}
	.st157{fill:#ECB6B6;}
	.st158{fill:#E8A346;}
	.st159{fill:#514C94;}
	.st160{fill:#D2F1E8;}
	.st161{fill:#BDD6CE;}
	.st162{fill:#B93B29;}
	.st163{fill:#E0AD70;}
	.st164{fill:#C57C21;}
	.st165{fill:#EDA34A;}
	.st166{fill:#2F538F;}
	.st167{fill:#2B4B78;}
	.st168{fill:#65AF91;}
	.st169{fill:#A7CEFC;}
	.st170{fill:#98BDE2;}
	.st171{fill:#CFE5F7;}
	.st172{fill:#5492CD;}
	.st173{fill:#97CCBC;}
	.st174{fill:#5491CA;}
	.st175{fill:#EDC563;}
	.st176{fill:#423C79;}
	.st177{fill:#D3B1A5;}
	.st178{fill:#BE988D;}
	.st179{fill:#A7E5D6;}
	.st180{fill:#F2FFF9;}
	.st181{fill:#D64545;}
	.st182{fill:#A73B3B;}
	.st183{fill:#15233A;}
	.st184{fill:none;stroke:#BE988D;stroke-width:10;stroke-linecap:round;stroke-miterlimit:10;}
	.st185{fill:#AF3A29;}
	.st186{fill:#FAF9FF;}
	.st187{fill:#CACACC;}
	.st188{fill:#372720;}
	.st189{fill:#3F2C26;}
	.st190{fill:#2D201C;}
	.st191{fill:#3D6D6F;}
	.st192{fill:#5B54A8;}
	.st193{fill:#325799;}
	.st194{fill:#E8C26E;}
	.st195{fill:#254784;}
	.st196{fill:#5696D4;}
	.st197{fill:#4F8AB6;}
	.st198{fill:#5FA4AC;}
	.st199{fill:#AA3524;}
	.st200{fill:#D15F4D;}
	.st201{fill:#2B294C;}
	.st202{fill:#A43A2A;}
	.st203{fill:#E7AE2D;}
	.st204{fill:#CD9729;}
	.st205{fill:none;stroke:#AA8253;stroke-width:10;stroke-linecap:round;stroke-miterlimit:10;}
	.st206{fill:none;stroke:#E18F23;stroke-width:10;stroke-linecap:round;stroke-linejoin:round;stroke-miterlimit:10;}
	.st207{fill:#CF9828;}
	.st208{fill:#B88926;}
	.st209{fill:#A17623;}
	.st210{fill:#96CCBC;}
	.st211{fill:#CF9A2A;}
	.st212{fill:#C57B20;}
	.st213{fill:#C7F1E6;}
	.st214{fill:#DC6363;}
	.st215{fill:#E89F9F;}
	.st216{fill:#C88C8C;}
	.st217{fill:#C16E6E;}
	.st218{fill:#A46060;}
	.st219{fill:#AA3626;}
	.st220{fill:#87EDC4;}
	.st221{fill:#D86552;}
	.st222{fill:#BC7620;}
	.st223{fill:#BA741E;}
	.st224{fill:#8F8CE3;}
	.st225{fill:#3A2820;}
	.st226{fill:#AC7060;}
	.st227{fill:#915F55;}
	.st228{fill:#49332A;}
	.st229{fill:#2D1F1B;}
	.st230{fill:#69B7BE;}
	.st231{fill:#D6D6D6;}
	.st232{fill:#B8B8B8;}
	.st233{fill:#CACACA;}
	.st234{fill:#467B80;}
	.st235{fill:#C2EDE2;}
	.st236{fill:#A9574F;}
	.st237{fill:#5595D2;}
	.st238{fill:#955949;}
	.st239{fill:#7E4B42;}
	.st240{fill:#89CCF1;}
	.st241{fill:#DD584A;}
	.st242{fill:#C18F26;}
	.st243{fill:#B33C2A;}
	.st244{fill:#D1A771;}
	.st245{fill:#B42A2A;}
	.st246{fill:#325797;}
	.st247{fill:#9F3529;}
	.st248{fill:#EDCE80;}
	.st249{fill:#F0DBAC;}
	.st250{fill:#CFB478;}
	.st251{fill:#D4C29B;}
	.st252{fill:#993939;}
	.st253{fill:#D1AFA3;}
	.st254{fill:#BC968B;}
	.st255{fill:none;stroke:#BC968B;stroke-width:10;stroke-linecap:round;stroke-miterlimit:10;}
	.st256{fill:#814C3C;}
	.st257{fill:#C0EBE0;}
	.st258{fill:#A5E3D4;}
	.st259{fill:#15243C;}
	.st260{fill:#443E79;}
	.st261{fill:#F0FFF7;}
	.st262{fill:#9A764B;}
	.st263{fill:#826443;}
	.st264{fill:#D9AA74;}
	.st265{fill:#5DA186;}
	.st266{fill:#68B596;}
	.st267{fill:#E5C6BE;}
	.st268{fill:#D3B6B1;}
	.st269{fill:none;stroke:#BAA09C;stroke-width:10;stroke-linecap:round;stroke-miterlimit:10;}
	.st270{fill:#F4D78F;}
	.st271{fill:#20385F;}
	.st272{fill:#BA8727;}
	.st273{fill:#5A9C82;}
	.st274{fill:none;stroke:#E39123;stroke-width:10;stroke-linecap:round;stroke-linejoin:round;stroke-miterlimit:10;}
	.st275{fill:#60392D;}
	.st276{fill:#CCCCCC;}
	.st277{fill:#844F3E;}
	.st278{fill:#F3FFFB;}
	.st279{fill:#365E60;}
	.st280{fill:#D84545;}
	.st281{fill:#A83B3B;}
	.st282{fill:#253F70;}
	.st283{fill:#EAADAD;}
	.st284{fill:#443E7C;}
	.st285{fill:#3D6B9F;}
	.st286{fill:#4274BC;}
	.st287{fill:#AF3827;}
	.st288{fill:#E59D9D;}
	.st289{fill:#C48989;}
	.st290{fill:none;stroke:#9B621A;stroke-width:10;stroke-linecap:round;stroke-linejoin:round;stroke-miterlimit:10;}
	.st291{fill:#213A5E;}
	.st292{fill:#2D507A;}
	.st293{fill:#528EC8;}
	.st294{fill:#EFD696;}
	.st295{fill:#D1BA87;}
	.st296{fill:#FDFCFC;}
	.st297{fill:#86CBFC;}
	.st298{fill:#7AB7DA;}
	.st299{fill:#192C4C;}
	.st300{fill:#BCBCBC;}
	.st301{fill:#A13838;}
	.st302{fill:#75BDF6;}
	.st303{fill:#D0B1AA;}
	.st304{fill:#142233;}
	.st305{fill:#E6C4BB;}
	.st306{fill:#BDBDBD;}
	.st307{fill:#E8A192;}
	.st308{fill:#A43939;}
	.st309{fill:#162640;}
	.st310{fill:#27457C;}
	.st311{fill:#EFBE5E;}
	.st312{fill:#87EDC5;}
	.st313{fill:#A03838;}
	.st314{fill:#833232;}
	.st315{fill:#47417F;}
	.st316{fill:none;stroke:#915F55;stroke-width:10;stroke-linecap:round;stroke-miterlimit:10;}
	.st317{fill:#BC8B25;}
	.st318{fill:#473129;}
	.st319{fill:#67B394;}
	.st320{fill:#599A80;}
	.st321{fill:#B13D3D;}
</style>
<g id="BULINE">
	<g>
		<circle id="XMLID_1312_" class="st9" cx="256" cy="256" r="256"/>
	</g>
</g>
<g id="Icons">
	<g id="XMLID_837_">
		<path id="XMLID_1891_" class="st284" d="M477.5,384.4c-18.6,32.1-44,59.7-74.2,81c-4.3,3-8.7,5.9-13.1,8.7
			c-7.3,4.5-14.9,8.7-22.7,12.5c-10.1,4.9-20.6,9.2-31.3,12.7c-11,3.6-22.3,6.5-33.9,8.6c-15,2.7-30.4,4.2-46.2,4.2
			c-15.9,0-31.6-1.5-46.7-4.3c-11.6-2.1-22.9-5.1-33.9-8.7c-4.9-1.6-9.7-3.4-14.5-5.3c-2.8-1.1-5.5-2.2-8.2-3.4
			c-10.6-4.7-20.8-10.1-30.6-16.1c-0.2-0.1-0.4-0.3-0.7-0.4c0,0,0,0,0,0c-4.1-2.5-8.1-5.2-12-7.9c-0.6-0.4-1.2-0.8-1.7-1.2
			c-30.3-21.6-55.7-49.7-74.2-82.2c8.7-28.8,22.8-55.2,41.2-78c9-11.2,19.1-21.6,30-31c5.1-4.4,10.4-8.6,15.9-12.5
			c2.2-1.6,4.4-3.1,6.7-4.6c4.1-2.8,8.3-5.4,12.7-7.8c4.8-2.8,9.7-5.3,14.7-7.8c11.2-5.4,22.9-9.9,35-13.5
			c18.3-5.4,37.5-8.6,57.4-9.3c2.7-0.1,5.5-0.1,8.3-0.1c2.5,0,5,0,7.5,0.1c34,1.1,66,9.4,94.8,23.6c3.4,1.7,6.8,3.4,10.1,5.3
			c6.6,3.7,13.1,7.7,19.3,12c6.6,4.6,13,9.5,19.2,14.8c11,9.4,21.1,19.9,30.1,31.2C454.7,328.1,468.9,355,477.5,384.4z"/>
		<path id="XMLID_1779_" class="st285" d="M436.1,221.8h16.2c5.9,0,10.6,4.8,10.6,10.6v49.5c0,5.9-4.8,10.6-10.6,10.6h-16.2V221.8z"
			/>
		<path id="XMLID_1774_" class="st33" d="M444.6,233.8v46.7c0,21.5-17.5,39-39,39H105.4c-21.5,0-39-17.5-39-39v-46.7
			c0-14.7,8.1-27.5,20.1-34.1c5.6-3.1,12.1-4.9,18.9-4.9h300.2c6.9,0,13.3,1.8,18.9,4.9C436.4,206.3,444.6,219.1,444.6,233.8z"/>
		<path id="XMLID_1772_" class="st286" d="M166.2,319.5h-60.8c-21.5,0-39-17.5-39-39v-46.7c0-14.7,8.1-27.5,20.1-34.1
			c5.6-3.1,12.1-4.9,18.9-4.9h60.8c-6.9,0-13.3,1.8-18.9,4.9c-12,6.6-20.1,19.4-20.1,34.1v46.7C127.2,302.1,144.6,319.5,166.2,319.5
			z"/>
		<path id="XMLID_1773_" class="st286" d="M424.5,199.7v42c0,20.4-16.5,36.9-36.9,36.9H123.3c-20.4,0-36.9-16.5-36.9-36.9v-41.9
			c5.6-3.1,12.1-4.9,18.9-4.9h300.2C412.4,194.8,418.9,196.6,424.5,199.7z"/>
		<path id="XMLID_1853_" class="st8" d="M403.3,366.4v98.9c-4.3,3-8.7,5.9-13.1,8.7c-7.3,4.5-14.9,8.7-22.7,12.5
			c-10.1,4.9-20.6,9.2-31.3,12.7c-11,3.6-22.3,6.5-33.9,8.6c-15,2.7-30.4,4.2-46.2,4.2c-15.9,0-31.6-1.5-46.7-4.3
			c-11.6-2.1-22.9-5.1-33.9-8.7c-4.9-1.6-9.7-3.4-14.5-5.3c-2.8-1.1-5.5-2.2-8.2-3.4c-10.6-4.7-20.8-10.1-30.6-16.1
			c-0.2-0.1-0.4-0.3-0.7-0.4c0,0,0,0,0,0c-4.1-2.5-8.1-5.2-12-7.9c-0.6-0.4-1.2-0.8-1.7-1.2v-98.2c0-16,7.3-30.3,18.7-39.8
			c3.4-2.8,7.2-5.3,11.3-7.2c0.7-0.3,1.5-0.7,2.2-1h0c3-1.2,6.2-2.2,9.5-2.8c3.2-0.6,6.5-1,9.9-1h192.4c5.5,0,10.9,0.9,15.9,2.5
			c2,0.6,3.9,1.4,5.8,2.3c3.5,1.6,6.8,3.6,9.8,5.9C395.4,334.9,403.3,349.8,403.3,366.4z"/>
		<path id="XMLID_1762_" class="st50" d="M263.6,367.7h-15.2c-12.2,0-22-9.9-22-22v-36.3c0-12.2,9.9-22,22-22h15.2
			c12.2,0,22,9.9,22,22v36.3C285.6,357.8,275.7,367.7,263.6,367.7z"/>
		<path id="XMLID_1761_" class="st51" d="M266.3,367.4c-1,0.2-2.1,0.2-3.2,0.2H248c-12.2,0-22-9.9-22-22v-36.3c0-12.2,9.9-22,22-22
			h15.2c1.1,0,2.1,0.1,3.2,0.2c-10.6,1.5-18.8,10.7-18.8,21.8v36.3C247.5,356.7,255.7,365.9,266.3,367.4z"/>
		<path id="XMLID_1806_" class="st285" d="M74.6,292.5H57.5c-6,0-10.9-4.9-10.9-10.9v-49c0-6,4.9-10.9,10.9-10.9h17.1V292.5z"/>
		<path id="XMLID_1419_" class="st287" d="M212.5,314.8c-1.6,0-3.1,0.1-4.7,0.2c-1.1,0.1-2.1,0.2-3.1,0.4c-0.2,0-0.5,0.1-0.7,0.1
			c-4.6,0.8-9.1,2.1-13.2,4.1c-12.2,5.7-21.9,16-26.7,28.7c0,0,0,0.1,0,0.1c-2.1,5.7-3.3,11.8-3.3,18.2v127.3
			c-2.8-1.1-5.5-2.2-8.2-3.4c-10.6-4.7-20.8-10.1-30.6-16.1c-0.2-0.1-0.4-0.3-0.7-0.4c0,0,0,0,0,0c-4.1-2.5-8.1-5.2-12-7.9v-99.4
			c0-15.7,7-29.8,18.1-39.3c3.6-3,7.5-5.6,11.8-7.6c0.1-0.1,0.3-0.1,0.4-0.2c0,0,0,0,0,0h0c3.2-1.4,6.6-2.6,10.1-3.4h0
			c3.6-0.8,7.3-1.2,11.1-1.2H212.5z"/>
		<path id="XMLID_1770_" class="st285" d="M166.2,194.8c-6.9,0-13.3,1.8-18.9,4.9c-12,6.6-20.1,19.4-20.1,34.1v44.7h-3.9
			c-20.4,0-36.9-16.5-36.9-36.9v-41.9c5.6-3.1,12.1-4.9,18.9-4.9H166.2z"/>
		<path id="XMLID_1769_" class="st15" d="M130.2,327.5L130.2,327.5c-5.3,0-9.7-4.3-9.7-9.7V194.3c0-5.3,4.3-9.7,9.7-9.7h0
			c5.3,0,9.7,4.3,9.7,9.7v123.6C139.8,323.2,135.5,327.5,130.2,327.5z"/>
		<path id="XMLID_1768_" class="st15" d="M377.2,327.5L377.2,327.5c-5.3,0-9.7-4.3-9.7-9.7V194.3c0-5.3,4.3-9.7,9.7-9.7h0
			c5.3,0,9.7,4.3,9.7,9.7v123.6C386.8,323.2,382.5,327.5,377.2,327.5z"/>
		<path id="XMLID_1431_" class="st288" d="M390.2,395.1V474c-7.3,4.5-14.9,8.7-22.7,12.5c-10.1,4.9-20.6,9.2-31.3,12.7
			c-11,3.6-22.3,6.5-33.9,8.6c-15,2.7-30.4,4.2-46.2,4.2c-15.9,0-31.6-1.5-46.7-4.3c-11.6-2.1-22.9-5.1-33.9-8.7
			c-4.9-1.6-9.7-3.4-14.5-5.3c-2.8-1.1-5.5-2.2-8.2-3.4c-10.6-4.7-20.8-10.1-30.6-16.1c-0.2-0.1-0.4-0.3-0.7-0.4v-78.6
			c0-24.6,18.8-44.8,42.8-47c1.4-0.1,2.9-0.2,4.4-0.2h174.5C369.1,348,390.2,369.1,390.2,395.1z"/>
		<path id="XMLID_1408_" class="st289" d="M199.8,348c-3.5,0-6.9,0.4-10.2,1.1c-11.9,2.6-22.1,9.7-28.8,19.5
			c-5.2,7.6-8.2,16.7-8.2,26.6v95.1c-10.6-4.7-20.8-10.1-30.6-16.1v-79c0-24.3,18.4-44.4,42.1-46.9c1.7-0.2,3.4-0.3,5.1-0.3H199.8z"
			/>
		<path id="XMLID_1411_" class="st15" d="M336.2,441.1v58.1c-11,3.6-22.3,6.5-33.9,8.6v-49.1c0-3.4-2.8-6.1-6.2-6.1h-80.5
			c-3.4,0-6.2,2.7-6.2,6.1v49c-11.6-2.1-22.9-5.1-33.9-8.7v-57.9c0-4.3,3.5-7.7,7.8-7.7h6.4V350c0-0.3,0-0.6,0.1-0.9
			c0-0.4,0.1-0.8,0.2-1.1c0.9-4.2,4.7-7.3,9.2-7.3h0.5c4.5,0,8.2,3.1,9.2,7.3c0.2,0.7,0.2,1.4,0.2,2.1v83.4h93.8V350
			c0-0.7,0.1-1.4,0.2-2.1c0.9-4.2,4.7-7.3,9.2-7.3h0.5c4.5,0,8.2,3.1,9.2,7.3c0.2,0.7,0.2,1.4,0.2,2.1v83.4h6.4
			C332.7,433.4,336.2,436.9,336.2,441.1z"/>
		<rect id="XMLID_1759_" x="234.7" y="425.9" class="st290" width="43.3" height="35"/>
		<path id="XMLID_1409_" class="st50" d="M175.3,449.4V499c-4.9-1.6-9.7-3.4-14.5-5.3c-2.8-1.1-5.5-2.2-8.2-3.4
			c-10.6-4.7-20.8-10.1-30.6-16.1c-0.2-0.1-0.4-0.3-0.7-0.4c0,0,0,0,0,0v-24.4H175.3z"/>
		<path id="XMLID_1406_" class="st51" d="M152.6,449.4v40.9c-10.6-4.7-20.8-10.1-30.6-16.1c-0.2-0.1-0.4-0.3-0.7-0.4c0,0,0,0,0,0
			v-24.4H152.6z"/>
		<path id="XMLID_1404_" class="st50" d="M390.2,449.4V474c-7.3,4.5-14.9,8.7-22.7,12.5c-10.1,4.9-20.6,9.2-31.3,12.7v-49.8H390.2z"
			/>
		<path id="XMLID_1401_" class="st51" d="M367.5,449.4v37.1c-10.1,4.9-20.6,9.2-31.3,12.7v-49.8H367.5z"/>
		<path id="XMLID_1351_" class="st50" d="M362.8,186h-2.4v-12.9c-6,3.3-13,5.3-20.4,5.3c-23.2,0-42.1-18.8-42.1-42.1
			c0-1.7,0.1-3.5,0.3-5.2c-6.7,4.6-14.8,7.2-23.6,7.2c-5.5,0-10.8-1.1-15.6-3c-8.6,6.5-19.4,10.4-31.1,10.4c-3.5,0-7-0.4-10.3-1
			c-3.1,15.1-14.2,27.2-28.7,31.7v40.4c0,21.4,6.5,41.3,17.5,57.8c15.4,23.1,39.8,39.7,68.2,44.8c44.1-7.9,78.5-43.6,84.7-88.2
			c0.1-0.9,0.2-1.8,0.3-2.7h1.5h1.5c7.7,0,14-6,14.4-13.6c0-0.3,0-0.5,0-0.8v-13.8C377.2,192.4,370.7,186,362.8,186z"/>
		<path id="XMLID_1350_" class="st51" d="M206.5,274.7c-11-16.6-17.5-36.4-17.5-57.8v-40.4c-4,1.2-8.2,1.9-12.5,1.9
			c-9.2,0-17.8-3-24.7-8V186h-2c-8,0-14.4,6.5-14.4,14.4v13.8c0,0.4,0,0.8,0.1,1.3c0.6,7.4,6.8,13.2,14.4,13.2h0.9h1.7c0,0,0,0,0,0
			c0.1,1,0.3,2,0.4,3.1c1.1,7.8,3.1,15.3,5.8,22.5c0,0.1,0,0.1,0.1,0.2c0.3,0.7,0.5,1.3,0.8,2c0,0.1,0.1,0.2,0.1,0.3
			c0.3,0.6,0.5,1.3,0.8,1.9c0,0.1,0.1,0.2,0.1,0.3c0.3,0.6,0.6,1.2,0.8,1.9c0.1,0.1,0.1,0.2,0.2,0.3c0.3,0.6,0.6,1.2,0.9,1.8
			c0.1,0.1,0.1,0.2,0.2,0.3c0.3,0.6,0.6,1.2,0.9,1.8c0,0.1,0.1,0.2,0.1,0.3c0.3,0.6,0.7,1.2,1,1.8c0,0.1,0.1,0.1,0.1,0.2
			c2.2,4,4.7,7.8,7.3,11.5c0.1,0.1,0.1,0.2,0.2,0.3c0.4,0.5,0.7,1,1.1,1.4c0.1,0.2,0.2,0.3,0.4,0.5c0.3,0.4,0.7,0.9,1,1.3
			c0.2,0.2,0.3,0.4,0.5,0.6c0.3,0.4,0.7,0.8,1,1.2c0.2,0.2,0.4,0.4,0.6,0.7c0.3,0.4,0.7,0.8,1,1.1c0.2,0.2,0.4,0.5,0.6,0.7
			c0.3,0.4,0.6,0.7,1,1.1c0.2,0.2,0.4,0.5,0.7,0.7c0.3,0.3,0.6,0.7,1,1c0.2,0.2,0.5,0.5,0.7,0.7c0.3,0.3,0.6,0.6,1,1
			c0.3,0.3,0.5,0.5,0.8,0.7c0.3,0.3,0.6,0.6,1,0.9c0.3,0.3,0.5,0.5,0.8,0.8c0.3,0.3,0.6,0.6,0.9,0.9c0.3,0.3,0.6,0.5,0.9,0.8
			c0.3,0.3,0.6,0.5,0.9,0.8c0.3,0.3,0.7,0.6,1,0.9c0.3,0.2,0.6,0.5,0.8,0.7c0.5,0.4,1,0.8,1.6,1.3c0.2,0.2,0.4,0.3,0.6,0.4
			c0.5,0.4,1.1,0.9,1.7,1.3c0.2,0.2,0.4,0.3,0.7,0.5c0.4,0.3,0.9,0.6,1.3,1c0.2,0.2,0.5,0.3,0.7,0.5c0.4,0.3,0.8,0.6,1.3,0.9
			c0.3,0.2,0.5,0.3,0.8,0.5c0.4,0.3,0.8,0.6,1.3,0.8c0.3,0.2,0.5,0.3,0.8,0.5c0.4,0.3,0.9,0.5,1.3,0.8c0.3,0.2,0.5,0.3,0.8,0.5
			c0.4,0.3,0.9,0.5,1.3,0.8c0.3,0.2,0.5,0.3,0.8,0.5c0.4,0.3,0.9,0.5,1.3,0.8c0.3,0.1,0.5,0.3,0.8,0.4c0.5,0.2,0.9,0.5,1.4,0.7
			c0.3,0.1,0.5,0.3,0.8,0.4c0.5,0.2,1,0.5,1.5,0.7c0.2,0.1,0.5,0.2,0.7,0.4c0.5,0.2,1,0.5,1.6,0.7c0.2,0.1,0.4,0.2,0.7,0.3
			c0.6,0.3,1.1,0.5,1.7,0.7c0.2,0.1,0.4,0.2,0.5,0.2c0.7,0.3,1.3,0.6,2,0.8c0.1,0,0.2,0.1,0.3,0.1c2.3,0.9,4.7,1.8,7.2,2.5
			c0.1,0,0.1,0,0.2,0.1c0.7,0.2,1.5,0.4,2.2,0.7c0.2,0,0.3,0.1,0.5,0.1c0.6,0.2,1.3,0.4,1.9,0.5c0.2,0.1,0.4,0.1,0.6,0.2
			c0.6,0.2,1.2,0.3,1.8,0.4c0.2,0.1,0.5,0.1,0.7,0.2c0.6,0.1,1.2,0.3,1.8,0.4c0.2,0,0.5,0.1,0.7,0.1c0.6,0.1,1.2,0.2,1.8,0.3
			c0.2,0,0.5,0.1,0.7,0.1c0.6,0.1,1.2,0.2,1.8,0.3c0.2,0,0.5,0.1,0.7,0.1c0.6,0.1,1.2,0.2,1.8,0.3c0.2,0,0.5,0.1,0.7,0.1
			c0.6,0.1,1.3,0.1,1.9,0.2c0.2,0,0.4,0,0.7,0.1c0.7,0.1,1.3,0.1,2,0.2c0.2,0,0.4,0,0.6,0c0.7,0.1,1.5,0.1,2.2,0.1
			c0.1,0,0.2,0,0.3,0c1.8,0.1,3.5,0.1,5.3,0.1h0c0.1,0,0.2,0,0.2,0c1.4,0,2.8,0,4.1-0.1c0.2,0,0.4,0,0.5,0c1.4-0.1,2.7-0.2,4.1-0.3
			c0.2,0,0.4,0,0.6-0.1c1.3-0.1,2.7-0.3,4-0.5c0.2,0,0.4-0.1,0.6-0.1c1.3-0.2,2.7-0.4,4-0.6c0.1,0,0.2,0,0.3-0.1
			C246.3,314.4,221.9,297.8,206.5,274.7z"/>
		<path id="XMLID_1346_" class="st291" d="M392.4,109c-4.5-13.8-23.4-20.3-31.7-31.7c-8.4-11.6-8.8-31.5-20.4-40
			c-10.5-7.6-27.4-3.5-40.8-6.2c-0.8-0.2-1.6-0.3-2.3-0.6c-0.4-0.1-0.8-0.2-1.2-0.4c-13.3-4.3-25.3-20.3-40-20.3
			c-14.7,0-26.7,16-40,20.3c-13.8,4.5-32.8-1.2-44.3,7.1c-0.7,0.5-1.4,1.1-2,1.7c-1.6,1.5-3,3.3-4.2,5.3c-0.7,1.2-1.4,2.4-2,3.7
			c-0.2,0.4-0.4,0.9-0.6,1.3c-0.4,0.9-0.8,1.8-1.1,2.7c-3.4,8.6-5.5,18.5-10.5,25.3c-8.3,11.5-27.2,18-31.7,31.7
			c-4.3,13.3,7,29.6,7,44.3c0,13.7-9.8,28.8-7.7,41.5c0.2,1,0.4,1.9,0.7,2.8c0.3,0.8,0.6,1.6,0.9,2.3c1.9,4.1,5.1,7.5,8.7,10.6
			c0.8,0.7,1.6,1.3,2.4,2c0.4,0.3,0.8,0.6,1.2,1c0.8,0.6,1.7,1.3,2.6,1.9c0-0.4-0.1-0.8-0.1-1.3v-13.8c0-2,0.4-3.9,1.1-5.6
			c0.2-0.4,0.4-0.9,0.6-1.3c0.2-0.4,0.5-0.8,0.7-1.2c0.4-0.6,0.8-1.1,1.3-1.6c0.2-0.2,0.3-0.3,0.5-0.5c2.6-2.6,6.2-4.2,10.2-4.2h2
			v-15.6c6.9,5,15.5,8,24.7,8c4.4,0,8.6-0.7,12.5-1.9c0.4-0.1,0.9-0.3,1.3-0.4c0.4-0.1,0.8-0.3,1.2-0.5c0.5-0.2,0.9-0.4,1.4-0.6
			c0.4-0.2,0.7-0.3,1-0.4c0.2-0.1,0.5-0.2,0.7-0.3c0.9-0.4,1.8-0.9,2.7-1.4c0.3-0.2,0.6-0.3,0.9-0.5c1.4-0.9,2.8-1.9,4.2-2.9
			c0.3-0.2,0.5-0.4,0.8-0.6c0.2-0.2,0.5-0.4,0.8-0.6c1.5-1.3,3-2.8,4.3-4.3c0.2-0.2,0.4-0.5,0.6-0.8c0.4-0.5,0.8-1,1.2-1.6
			c0.2-0.3,0.4-0.5,0.6-0.8c0.2-0.3,0.4-0.5,0.6-0.8c0.7-1,1.4-2.1,2-3.2c0-0.1,0.1-0.2,0.1-0.2c2-3.6,3.4-7.5,4.3-11.7
			c3.3,0.7,6.8,1,10.3,1c11.7,0,22.4-3.9,31.1-10.4c4.8,1.9,10.1,3,15.6,3c8.7,0,16.9-2.7,23.6-7.2c-0.2,1.7-0.3,3.4-0.3,5.2
			c0,23.2,18.8,42.1,42.1,42.1c7.4,0,14.3-1.9,20.3-5.2V186h2.4c2.6,0,5,0.7,7.1,1.9c2.7,1.6,4.9,4,6.2,6.9c0.7,1.7,1.1,3.6,1.1,5.6
			v13.8c0,0.3,0,0.5,0,0.8c3.5-2.6,6.9-5.3,9.7-8.3c2.5-2.7,4.5-5.6,5.6-9c0.3-0.9,0.5-1.8,0.7-2.8c2.1-12.7-7.7-27.8-7.7-41.5
			C385.4,138.6,396.7,122.3,392.4,109z"/>
		<path id="XMLID_1342_" class="st132" d="M297.2,30.6c-0.4-0.1-0.8-0.2-1.2-0.4c-13.3-4.3-25.3-20.3-40-20.3
			c-14.7,0-26.7,16-40,20.3c-13.8,4.5-32.8-1.2-44.3,7.1c-0.7,0.5-1.4,1.1-2,1.7c-1.6,1.5-3,3.3-4.2,5.3c-0.7,1.2-1.4,2.4-2,3.7
			c-0.2,0.4-0.4,0.9-0.6,1.3c-0.4,0.9-0.8,1.8-1.1,2.7c-3.4,8.6-5.5,18.5-10.5,25.3c-8.3,11.5-27.2,18-31.7,31.7
			c-4.3,13.3,7,29.6,7,44.3c0,13.7-9.8,28.8-7.7,41.5c0.2,1,0.4,1.9,0.7,2.8c0.3,0.8,0.6,1.6,0.9,2.3c1.9,4.1,5.1,7.5,8.7,10.6
			c0.8,0.7,1.6,1.3,2.4,2c0.4,0.3,0.8,0.6,1.2,1c0.8,0.6,1.7,1.3,2.6,1.9c0-0.4-0.1-0.8-0.1-1.3v-13.8c0-2,0.4-3.9,1.1-5.6
			c0.2-0.4,0.4-0.9,0.6-1.3c0.2-0.4,0.5-0.8,0.7-1.2c0.4-0.6,0.8-1.1,1.3-1.6c0.2-0.2,0.3-0.3,0.5-0.5c2.6-2.6,6.2-4.2,10.2-4.2h2
			v-15.6c6.9,5,15.5,8,24.7,8c4.4,0,8.6-0.7,12.5-1.9c0.4-0.1,0.9-0.3,1.3-0.4c0.4-0.1,0.8-0.3,1.2-0.5c0.5-0.2,0.9-0.4,1.4-0.6
			c0.4-0.2,0.7-0.3,1-0.4c0.2-0.1,0.5-0.2,0.7-0.3c0.9-0.4,1.8-0.9,2.7-1.4c0.3-0.2,0.6-0.3,0.9-0.5c1.4-0.9,2.8-1.9,4.2-2.9
			c0.3-0.2,0.5-0.4,0.8-0.6c0.2-0.2,0.5-0.4,0.8-0.6c1.5-1.3,3-2.8,4.3-4.3c0.2-0.2,0.4-0.5,0.6-0.8c0.4-0.5,0.8-1,1.2-1.6
			c0.2-0.3,0.4-0.5,0.6-0.8c0.2-0.3,0.4-0.5,0.6-0.8c0.7-1,1.4-2.1,2-3.2c0-0.1,0.1-0.2,0.1-0.2c0.1-1,0.2-2.1,0.2-3.1
			c0-14.7-11.3-31.1-7-44.3c4.5-13.8,23.4-20.3,31.7-31.7c8.4-11.6,8.8-31.5,20.4-40c10.5-7.7,27.5-3.5,40.8-6.2
			C298.7,30.9,297.9,30.8,297.2,30.6z"/>
		<circle id="XMLID_1341_" class="st23" cx="203.9" cy="200.3" r="14.3"/>
		<circle id="XMLID_1340_" class="st16" cx="207.6" cy="195.6" r="6.3"/>
		<circle id="XMLID_1339_" class="st23" cx="304.3" cy="200.3" r="14.3"/>
		<circle id="XMLID_1338_" class="st16" cx="307.9" cy="195.6" r="6.3"/>
		<path id="XMLID_1337_" class="st51" d="M261.3,233.2h-12.9c-4.3,0-7.7-3.4-7.7-7.7v0c0-4.3,3.4-7.7,7.7-7.7h12.9
			c4.3,0,7.7,3.4,7.7,7.7v0C269,229.7,265.6,233.2,261.3,233.2z"/>
		<path id="XMLID_1336_" class="st36" d="M283.1,250.8c1.5,0,2.7,1.2,2.7,2.7l0,0c0,2.8-0.4,5.5-1.1,8.1c-1.6,6-5,11.3-9.6,15.3
			c-5.4,4.7-12.6,7.6-20.3,7.6c-7.8,0-14.9-2.9-20.3-7.6c-4.6-4-8-9.2-9.6-15.3c-0.7-2.6-1.1-5.3-1.1-8.1l0,0c0-1.5,1.2-2.7,2.7-2.7
			H283.1z"/>
		<path id="XMLID_1333_" class="st26" d="M275.2,276.9c-5.4,4.7-12.6,7.6-20.3,7.6c-7.8,0-14.9-2.9-20.3-7.6
			c5.4-4.8,12.6-7.6,20.3-7.6C262.6,269.3,269.8,272.1,275.2,276.9z"/>
		<path id="XMLID_1332_" class="st16" d="M283.1,250.8c1.5,0,2.7,1.2,2.7,2.7l0,0c0,2.8-0.4,5.5-1.1,8.1h-59.8
			c-0.7-2.6-1.1-5.3-1.1-8.1l0,0c0-1.5,1.2-2.7,2.7-2.7H283.1z"/>
		<path id="XMLID_1324_" class="st292" d="M330.8,84.3c8.8,4.4,21.2,13.1,28.3,29.5c1.6,3.6-2.2,7.3-5.7,5.6l0,0
			c-2.3-1.1-4.7,1.3-3.7,3.6c1.5,3.4,3.3,7.7,4.9,12.1c1.6,4.5-4.2,7.8-7.3,4.2c-8.2-9.6-20.4-20.8-33.1-22.4
			c-1.4-0.2-2.2-1.8-1.4-3c1.8-2.9,5.4-7.3,11.1-8.9c5.1-1.4,8.4-6.5,7.3-11.6c-0.4-2-1.3-4.1-2.8-6.3
			C327.2,85.6,329,83.4,330.8,84.3z"/>
	</g>
</g>
</svg>
