<?xml version="1.0" encoding="utf-8"?>
<!-- Generator: Adobe Illustrator 22.0.1, SVG Export Plug-In . SVG Version: 6.00 Build 0)  -->
<svg version="1.1" xmlns="http://www.w3.org/2000/svg" xmlns:xlink="http://www.w3.org/1999/xlink" x="0px" y="0px"
	 viewBox="0 0 512 512" style="enable-background:new 0 0 512 512;" xml:space="preserve">
<style type="text/css">
	.st0{fill:#E9B12D;}
	.st1{fill:#A9E7D8;}
	.st2{fill:#76CFB1;}
	.st3{fill:#AE6B5D;}
	.st4{fill:#7770D3;}
	.st5{fill:#5BA0F5;}
	.st6{fill:#DA4545;}
	.st7{fill:#89CCFC;}
	.st8{fill:#CD462A;}
	.st9{fill:#514896;}
	.st10{fill:#5493A0;}
	.st11{fill:#CC6B5C;}
	.st12{fill:#62AA8D;}
	.st13{fill:#8ABAAB;}
	.st14{fill:#C3791F;}
	.st15{fill:#E39123;}
	.st16{fill:#FFFFFF;}
	.st17{fill:none;stroke:#FFFFFF;stroke-width:10;stroke-linecap:round;stroke-miterlimit:10;}
	.st18{fill:none;stroke:#5F55AB;stroke-width:10;stroke-linecap:round;stroke-miterlimit:10;}
	.st19{fill:#A9671C;}
	.st20{fill:#D5B3A7;}
	.st21{fill:#C09A8F;}
	.st22{fill:#487F87;}
	.st23{fill:#1B305C;}
	.st24{fill:#172945;}
	.st25{fill:none;}
	.st26{fill:#B62A2A;}
	.st27{fill:#325859;}
	.st28{fill:#3F6E71;}
	.st29{fill:#284646;}
	.st30{fill:#8F2727;}
	.st31{fill:#29477C;}
	.st32{fill:#5B9BEE;}
	.st33{fill:#487FDE;}
	.st34{fill:#CD9829;}
	.st35{fill:#9F2A2A;}
	.st36{fill:#4C3328;}
	.st37{fill:#E8B94A;}
	.st38{fill:#DDF8F1;}
	.st39{fill:#3E2A22;}
	.st40{fill:#D3A971;}
	.st41{fill:#C79A5B;}
	.st42{fill:#233E76;}
	.st43{fill:#21395F;}
	.st44{fill:#487D82;}
	.st45{fill:none;stroke:#C79A5B;stroke-width:10;stroke-linecap:round;stroke-miterlimit:10;}
	.st46{fill:#5E3E31;}
	.st47{fill:#AC3939;}
	.st48{fill:#CA9628;}
	.st49{fill:#AF8F88;}
	.st50{fill:#815048;}
	.st51{fill:#6F4232;}
	.st52{fill:#5F55AB;}
	.st53{fill:#192A48;}
	.st54{fill:#152336;}
	.st55{fill:#192B49;}
	.st56{fill:#264173;}
	.st57{fill:#B06F1E;}
	.st58{fill:#4E88C0;}
	.st59{fill:#83C3F1;}
	.st60{fill:#CF9929;}
	.st61{fill:none;stroke:#FFFFFF;stroke-width:10;stroke-linecap:round;stroke-linejoin:round;stroke-miterlimit:10;}
	.st62{fill:#EAC262;}
	.st63{fill:#D6D5D4;}
	.st64{fill:#6BBA9B;}
	.st65{fill:#63AA8F;}
	.st66{fill:none;stroke:#3E2A22;stroke-width:10;stroke-linecap:round;stroke-miterlimit:10;}
	.st67{fill:#CA7D1F;}
	.st68{fill:#213B64;}
	.st69{fill:#CDF8EC;}
	.st70{fill:#C59125;}
	.st71{fill:none;stroke:#C09A8F;stroke-width:10;stroke-linecap:round;stroke-miterlimit:10;}
	.st72{fill:#32579B;}
	.st73{fill:#172843;}
	.st74{fill:#D66767;}
	.st75{fill:#A74949;}
	.st76{fill:#EBC76F;}
	.st77{fill:#7A4940;}
	.st78{fill:#182A48;}
	.st79{fill:none;stroke:#A0794A;stroke-width:10;stroke-linecap:round;stroke-miterlimit:10;}
	.st80{fill:#C37A20;}
	.st81{fill:#D26D5C;}
	.st82{fill:#A45752;}
	.st83{fill:#284579;}
	.st84{fill:#88C7F4;}
	.st85{fill:#6EB6F0;}
	.st86{fill:#32221E;}
	.st87{fill:#E7A6A6;}
	.st88{fill:#C59191;}
	.st89{fill:#AA3B3B;}
	.st90{fill:#B83E3E;}
	.st91{fill:none;stroke:#5F55A9;stroke-width:10;stroke-linecap:round;stroke-miterlimit:10;}
	.st92{fill:#963838;}
	.st93{fill:#402B25;}
	.st94{fill:#6B6ABA;}
	.st95{fill:#BABABA;}
	.st96{fill:#D1D1D1;}
	.st97{fill:#264377;}
	.st98{fill:#A19BF5;}
	.st99{fill:#3C2A21;}
	.st100{fill:none;stroke:#4C3328;stroke-width:10;stroke-linecap:round;stroke-miterlimit:10;}
	.st101{fill:#C1781F;}
	.st102{fill:#E3A147;}
	.st103{fill:#F2D2A1;}
	.st104{fill:#4F372D;}
	.st105{fill:none;stroke:#DA4545;stroke-width:10;stroke-linecap:round;stroke-miterlimit:10;}
	.st106{fill:#AA3928;}
	.st107{fill:#8C2C22;}
	.st108{fill:#BF4336;}
	.st109{fill:#5797D4;}
	.st110{fill:#CFCFCF;}
	.st111{fill:#613A2E;}
	.st112{fill:none;stroke:#B18653;stroke-width:10;stroke-linecap:round;stroke-miterlimit:10;}
	.st113{fill:#B13B3B;}
	.st114{fill:#16263A;}
	.st115{fill:none;stroke:#16263A;stroke-width:10;stroke-miterlimit:10;}
	.st116{fill:#C87D20;}
	.st117{fill:#E4F0FD;}
	.st118{fill:#AA3737;}
	.st119{fill:#BF771F;}
	.st120{fill:none;stroke:#CD462A;stroke-width:10;stroke-linejoin:round;stroke-miterlimit:10;}
	.st121{fill:#5696D2;}
	.st122{fill:#C0771E;}
	.st123{fill:#9B5F1B;}
	.st124{fill:#A83A29;}
	.st125{fill:#E7A74F;}
	.st126{fill:#C9924C;}
	.st127{fill:#C58E48;}
	.st128{fill:#BE8844;}
	.st129{fill:#916939;}
	.st130{fill:#264275;}
	.st131{fill:#253F65;}
	.st132{fill:#182A45;}
	.st133{fill:#162336;}
	.st134{fill:#93C7B7;}
	.st135{fill:#E6A4A4;}
	.st136{fill:#B06B1D;}
	.st137{fill:#484185;}
	.st138{fill:#DB6E6E;}
	.st139{fill:#6BBA9A;}
	.st140{fill:#CACCCC;}
	.st141{fill:#D4D4D4;}
	.st142{fill:#A98881;}
	.st143{fill:#213A62;}
	.st144{fill:#A2837D;}
	.st145{fill:#6FB8F4;}
	.st146{fill:#9B9E9E;}
	.st147{fill:#B2B3B3;}
	.st148{fill:#20385D;}
	.st149{fill:#335AA8;}
	.st150{fill:#BCE7FD;}
	.st151{fill:#3B2921;}
	.st152{fill:#AD3C3C;}
	.st153{fill:#9D3838;}
	.st154{fill:#603F33;}
	.st155{fill:#4D868B;}
	.st156{fill:#A2DDFD;}
	.st157{fill:#ECB6B6;}
	.st158{fill:#E8A346;}
	.st159{fill:#514C94;}
	.st160{fill:#D2F1E8;}
	.st161{fill:#BDD6CE;}
	.st162{fill:#B93B29;}
	.st163{fill:#E0AD70;}
	.st164{fill:#C57C21;}
	.st165{fill:#EDA34A;}
	.st166{fill:#2F538F;}
	.st167{fill:#2B4B78;}
	.st168{fill:#65AF91;}
	.st169{fill:#A7CEFC;}
	.st170{fill:#98BDE2;}
	.st171{fill:#CFE5F7;}
	.st172{fill:#5492CD;}
	.st173{fill:#97CCBC;}
	.st174{fill:#5491CA;}
	.st175{fill:#EDC563;}
	.st176{fill:#423C79;}
	.st177{fill:#D3B1A5;}
	.st178{fill:#BE988D;}
	.st179{fill:#A7E5D6;}
	.st180{fill:#F2FFF9;}
	.st181{fill:#D64545;}
	.st182{fill:#A73B3B;}
	.st183{fill:#15233A;}
	.st184{fill:none;stroke:#BE988D;stroke-width:10;stroke-linecap:round;stroke-miterlimit:10;}
	.st185{fill:#AF3A29;}
	.st186{fill:#FAF9FF;}
	.st187{fill:#CACACC;}
	.st188{fill:#372720;}
	.st189{fill:#3F2C26;}
	.st190{fill:#2D201C;}
	.st191{fill:#3D6D6F;}
	.st192{fill:#5B54A8;}
	.st193{fill:#325799;}
	.st194{fill:#E8C26E;}
	.st195{fill:#254784;}
	.st196{fill:#5696D4;}
	.st197{fill:#4F8AB6;}
	.st198{fill:#5FA4AC;}
	.st199{fill:#AA3524;}
	.st200{fill:#D15F4D;}
	.st201{fill:#2B294C;}
	.st202{fill:#A43A2A;}
	.st203{fill:#E7AE2D;}
	.st204{fill:#CD9729;}
	.st205{fill:none;stroke:#AA8253;stroke-width:10;stroke-linecap:round;stroke-miterlimit:10;}
	.st206{fill:none;stroke:#E18F23;stroke-width:10;stroke-linecap:round;stroke-linejoin:round;stroke-miterlimit:10;}
	.st207{fill:#CF9828;}
	.st208{fill:#B88926;}
	.st209{fill:#A17623;}
	.st210{fill:#96CCBC;}
	.st211{fill:#CF9A2A;}
	.st212{fill:#C57B20;}
	.st213{fill:#C7F1E6;}
	.st214{fill:#DC6363;}
	.st215{fill:#E89F9F;}
	.st216{fill:#C88C8C;}
	.st217{fill:#C16E6E;}
	.st218{fill:#A46060;}
	.st219{fill:#AA3626;}
	.st220{fill:#87EDC4;}
	.st221{fill:#D86552;}
	.st222{fill:#BC7620;}
	.st223{fill:#BA741E;}
	.st224{fill:#8F8CE3;}
	.st225{fill:#3A2820;}
	.st226{fill:#AC7060;}
	.st227{fill:#915F55;}
	.st228{fill:#49332A;}
	.st229{fill:#2D1F1B;}
	.st230{fill:#69B7BE;}
	.st231{fill:#D6D6D6;}
	.st232{fill:#B8B8B8;}
	.st233{fill:#CACACA;}
	.st234{fill:#467B80;}
	.st235{fill:#C2EDE2;}
	.st236{fill:#A9574F;}
	.st237{fill:#5595D2;}
	.st238{fill:#955949;}
	.st239{fill:#7E4B42;}
	.st240{fill:#89CCF1;}
	.st241{fill:#DD584A;}
	.st242{fill:#C18F26;}
	.st243{fill:#B33C2A;}
	.st244{fill:#D1A771;}
	.st245{fill:#B42A2A;}
	.st246{fill:#325797;}
	.st247{fill:#9F3529;}
	.st248{fill:#EDCE80;}
	.st249{fill:#F0DBAC;}
	.st250{fill:#CFB478;}
	.st251{fill:#D4C29B;}
	.st252{fill:#993939;}
	.st253{fill:#D1AFA3;}
	.st254{fill:#BC968B;}
	.st255{fill:none;stroke:#BC968B;stroke-width:10;stroke-linecap:round;stroke-miterlimit:10;}
	.st256{fill:#814C3C;}
	.st257{fill:#C0EBE0;}
	.st258{fill:#A5E3D4;}
	.st259{fill:#15243C;}
	.st260{fill:#443E79;}
	.st261{fill:#F0FFF7;}
	.st262{fill:#9A764B;}
	.st263{fill:#826443;}
	.st264{fill:#D9AA74;}
	.st265{fill:#5DA186;}
	.st266{fill:#68B596;}
	.st267{fill:#E5C6BE;}
	.st268{fill:#D3B6B1;}
	.st269{fill:none;stroke:#BAA09C;stroke-width:10;stroke-linecap:round;stroke-miterlimit:10;}
	.st270{fill:#F4D78F;}
	.st271{fill:#20385F;}
	.st272{fill:#BA8727;}
	.st273{fill:#5A9C82;}
	.st274{fill:none;stroke:#E39123;stroke-width:10;stroke-linecap:round;stroke-linejoin:round;stroke-miterlimit:10;}
	.st275{fill:#60392D;}
	.st276{fill:#CCCCCC;}
	.st277{fill:#844F3E;}
	.st278{fill:#F3FFFB;}
	.st279{fill:#365E60;}
	.st280{fill:#D84545;}
	.st281{fill:#A83B3B;}
	.st282{fill:#253F70;}
	.st283{fill:#EAADAD;}
	.st284{fill:#443E7C;}
	.st285{fill:#3D6B9F;}
	.st286{fill:#4274BC;}
	.st287{fill:#AF3827;}
	.st288{fill:#E59D9D;}
	.st289{fill:#C48989;}
	.st290{fill:none;stroke:#9B621A;stroke-width:10;stroke-linecap:round;stroke-linejoin:round;stroke-miterlimit:10;}
	.st291{fill:#213A5E;}
	.st292{fill:#2D507A;}
	.st293{fill:#528EC8;}
	.st294{fill:#EFD696;}
	.st295{fill:#D1BA87;}
	.st296{fill:#FDFCFC;}
	.st297{fill:#86CBFC;}
	.st298{fill:#7AB7DA;}
	.st299{fill:#192C4C;}
	.st300{fill:#BCBCBC;}
	.st301{fill:#A13838;}
	.st302{fill:#75BDF6;}
	.st303{fill:#D0B1AA;}
	.st304{fill:#142233;}
	.st305{fill:#E6C4BB;}
	.st306{fill:#BDBDBD;}
	.st307{fill:#E8A192;}
	.st308{fill:#A43939;}
	.st309{fill:#162640;}
	.st310{fill:#27457C;}
	.st311{fill:#EFBE5E;}
	.st312{fill:#87EDC5;}
	.st313{fill:#A03838;}
	.st314{fill:#833232;}
	.st315{fill:#47417F;}
	.st316{fill:none;stroke:#915F55;stroke-width:10;stroke-linecap:round;stroke-miterlimit:10;}
	.st317{fill:#BC8B25;}
	.st318{fill:#473129;}
	.st319{fill:#67B394;}
	.st320{fill:#599A80;}
	.st321{fill:#B13D3D;}
</style>
<g id="BULINE">
	<circle id="XMLID_825_" class="st0" cx="256" cy="256" r="256"/>
	<g>
	</g>
</g>
<g id="Icons">
	<g id="XMLID_2_">
		<path id="XMLID_2839_" class="st194" d="M486.5,150.9c0,60.6-23.3,115.7-61.5,156.9c-14.5,15.6-31.1,29.2-49.3,40.3
			c-3.7,2.2-7.4,4.4-11.2,6.4c-2.8,1.5-5.7,3-8.6,4.4c-4.2,2-8.4,3.9-12.8,5.7c-27,11-56.5,17.1-87.4,17.1
			c-16.6,0-32.8-1.8-48.4-5.1c-8.2-1.8-16.2-3.9-24-6.5c-4.8-1.6-9.6-3.3-14.2-5.2c-1.2-0.5-2.4-1-3.6-1.5c-0.5-0.2-1-0.4-1.5-0.6
			c-2.7-1.2-5.4-2.4-8.1-3.7c-1.7-0.8-3.5-1.7-5.2-2.6c-2.9-1.5-5.7-3-8.5-4.6c-2.8-1.6-5.5-3.2-8.2-4.9c-18.6-11.6-35.4-25.8-50-42
			c-36.6-40.8-58.9-94.8-58.9-154c0-1.8,0-3.6,0.1-5.4C66.2,59.4,154.2,0,256,0c101.3,0,188.9,58.9,230.4,144.3
			C486.5,146.5,486.5,148.7,486.5,150.9z"/>
		<path id="XMLID_3544_" class="st23" d="M427.1,314.9c-0.7-2.4-1.4-4.8-2.1-7.1c-13.7-48.5-20.9-98.7-20.9-149.2v-30.7
			c0-30.8-11.7-59-31-80.1c-2.8-3.1-5.9-6.1-9-8.9c-17.7-15.8-40.2-26.3-65-29.2c-0.6-0.1-1.3-0.1-1.9-0.2c-0.5,0-0.9-0.1-1.3-0.1
			c-0.1,0-0.1,0-0.2,0c-0.7-0.1-1.4-0.1-2.1-0.2c-0.6-0.1-1.3-0.1-1.9-0.1c-0.4,0-0.8,0-1.2-0.1c-0.9,0-1.9-0.1-2.8-0.1
			c-0.8,0-1.6,0-2.5,0c0,0,0,0,0,0h-57c-30.3,0-58,11.3-79,30c-1.8,1.6-3.5,3.2-5.1,4.8c-2.1,2.1-4.1,4.2-6,6.4
			c-0.3,0.4-0.6,0.7-1,1.1c-0.3,0.4-0.6,0.7-0.9,1.1c-0.4,0.5-0.8,1-1.2,1.5c-0.8,1-1.5,2-2.3,3c-0.4,0.5-0.7,1-1.1,1.5
			c-0.5,0.7-1,1.3-1.4,2c-1.8,2.6-3.5,5.2-5,7.9c-1,1.8-2,3.6-3,5.5c-0.8,1.5-1.5,3.1-2.3,4.7c-0.1,0.2-0.2,0.3-0.2,0.5
			c-0.7,1.6-1.4,3.2-2.1,4.8c-0.6,1.5-1.1,3-1.7,4.5c-2.1,6-3.8,12.2-4.9,18.6c-0.3,1.7-0.6,3.4-0.8,5.2c-0.7,5.2-1,10.5-1,15.8
			v11.7c0,8.7-0.2,17.5-0.6,26.2c0,0.2,0,0.3,0,0.5c-0.2,3.1-0.3,6.1-0.5,9.2c-0.2,3.1-0.4,6.1-0.7,9.2c-0.2,3.1-0.5,6.1-0.8,9.1
			c-0.3,3.1-0.6,6.1-1,9.1c-0.2,1.7-0.4,3.5-0.6,5.2c-0.2,1.7-0.4,3.5-0.7,5.2c-0.3,2.6-0.7,5.2-1.1,7.8c-0.4,2.6-0.8,5.2-1.2,7.8
			c-0.8,5.2-1.8,10.4-2.8,15.6c-0.2,1.3-0.5,2.6-0.8,3.9c-0.5,2.6-1.1,5.2-1.6,7.8c-0.3,1.3-0.6,2.6-0.9,3.9
			c-0.8,3.4-1.6,6.9-2.4,10.3c-0.8,3.4-1.7,6.8-2.6,10.2c-2.2,8.1-4.5,16.2-7.1,24.3c-0.1,0.4-0.2,0.7-0.3,1.1
			c-3.8,11.9-7.2,24.3-9.8,36.8c-0.3,1.6-0.6,3.1-0.9,4.7c-0.4,2.3-0.9,4.7-1.2,7c-0.4,2.3-0.7,4.7-1,7c-0.2,1.6-0.4,3.1-0.6,4.6
			c-0.2,2.3-0.5,4.6-0.6,6.9c-0.2,2.3-0.3,4.6-0.4,6.8c0,1.3,0.3,2.4,1,3.3c0.2,0.3,0.4,0.6,0.7,0.8c2,1.8,5.2,2.1,7.4-0.1
			c0.2-0.2,0.3-0.3,0.5-0.5l9.4-11.8c0.1-0.1,0.2-0.2,0.2-0.3c1.3-1.3,3.3-1.1,4.4,0.1c0.2,0.2,0.4,0.5,0.6,0.9
			c0.1,0.3,0.2,0.7,0.2,1.1c0.3,5.8,1,14.2,2.9,23.7c0.3,1.4,0.6,2.8,0.9,4.2c0.6,2.6,1.3,5.3,2,8c0.8,2.6,1.6,5.3,2.6,8
			c0.7,2,1.5,4,2.3,6.1c0.3,0.7,0.6,1.3,0.9,2c0.6,1.3,1.2,2.7,1.9,4c1.5,3,3,5.9,4.8,8.9c0.3,0.5,0.7,1.1,1,1.6
			c0.3,0.5,0.7,1.1,1,1.6c0.7,1.1,1.4,2.1,2.2,3.1v0c0.8,1,1.5,2,2.3,3c0.8,1,1.6,2,2.5,3c0,0,0,0,0,0c0.7,0.8,1.4,1.6,2.1,2.3v0
			c0.7,0.8,1.4,1.5,2.2,2.3c0.7,0.8,1.5,1.5,2.3,2.2c0.6,0.5,1.2,1.1,1.8,1.6c1.2,1,2.4,2.1,3.7,3.1c0,0,0,0,0,0c1.3,1,2.6,2,4,2.9
			c1.4,1,2.9,1.9,4.4,2.8c0.3,0.2,0.7,0.4,1,0.6c0.3,0.2,0.7,0.4,1,0.6c4.7,2.6,9.9,4.9,15.6,6.6c0.9,0.3,1.8,0.6,2.7,0.8h0
			c0.6,0.2,1.3,0.4,2,0.6h181.2c4.2-1.1,8.1-2.4,11.9-4c18.5-7.7,31.2-20.5,39.8-34.7c14.4-23.7,17.6-51.2,18.3-64.7
			c0.1-2.8,3.7-4,5.5-1.8l9.4,11.8c3.2,4,9.7,1.6,9.5-3.6C438.2,358.7,433.4,336.1,427.1,314.9z"/>
		<path id="XMLID_2489_" class="st20" d="M265.5,360.9h-19.8c-11.8,0-21.4-9.6-21.4-21.4v-29c0-11.8,9.6-21.4,21.4-21.4h19.8
			c11.8,0,21.4,9.6,21.4,21.4v29C286.9,351.3,277.3,360.9,265.5,360.9z"/>
		<path id="XMLID_2487_" class="st21" d="M266.5,360.7c-1.1,0.1-2.2,0.2-3.4,0.2h-16.1c-12.9,0-23.3-8.8-23.3-19.7v-32.5
			c0-10.9,10.4-19.7,23.3-19.7h16.1c1.1,0,2.3,0.1,3.4,0.2c-11.3,1.4-19.9,9.6-19.9,19.5v32.5C246.6,351.1,255.3,359.3,266.5,360.7z
			"/>
		<path id="XMLID_6_" class="st195" d="M320.9,39.4c8.8,4.4,21.2,13.1,28.3,29.5c1.6,3.6-2.2,7.3-5.7,5.6l0,0
			c-2.3-1.1-4.7,1.3-3.7,3.6c1.5,3.4,3.3,7.7,4.9,12.1c1.6,4.5-4.2,7.8-7.3,4.2c-8.2-9.6-20.4-20.8-33.1-22.4
			c-1.4-0.2-2.2-1.8-1.4-3c1.8-2.9,5.4-7.3,11.1-8.9c5.1-1.4,8.4-6.5,7.3-11.6c-0.4-2-1.3-4.1-2.8-6.3
			C317.3,40.7,319.1,38.5,320.9,39.4z"/>
		<path id="XMLID_2648_" class="st78" d="M218.8,462.7c-1.2-0.9-2.4-1.8-3.6-2.8c-2.9-2.4-5.5-4.9-7.9-7.6
			c-4.6-5.1-8.6-10.6-11.8-16.3c-5.8-10-9.6-20.5-12.2-30.4c-1-3.6-1.7-7.1-2.3-10.4c-0.5-2.4-0.8-4.8-1.2-7.1
			c-0.3-2.4-0.6-4.6-0.8-6.8c-0.3-3.1-0.5-5.8-0.6-8.1c-0.1-2.8-3.7-4-5.5-1.8l-1.8,2.2l-2.1,2.6l-1.2,1.5l-3.1,3.9l-1.2,1.6
			c-1.3,1.6-3,2.2-4.7,2c-2.6-0.3-4.9-2.4-4.8-5.6c0.1-3.1,0.3-6.2,0.6-9.3c0.2-2.4,0.5-4.8,0.8-7.2c0.2-1.4,0.3-2.8,0.5-4.2
			c0.7-5.2,1.7-10.4,2.7-15.6c0,0,0,0,0,0c0.3-1.6,0.7-3.2,1-4.7v0c0,0,0,0,0,0c2.5-11.1,5.5-22,8.9-32.5c2.8-8.7,5.4-17.5,7.7-26.4
			l-0.8-0.8h0c-0.2-0.2-0.3-0.3-0.5-0.5c-0.2-0.2-0.3-0.4-0.5-0.5c-0.3-0.3-0.5-0.5-0.8-0.8c-0.4-0.4-0.7-0.7-1.1-1.1
			c-0.2-0.3-0.5-0.5-0.7-0.8c-0.4-0.4-0.7-0.8-1.1-1.2c-0.1-0.1-0.2-0.2-0.3-0.4c-0.1-0.1-0.2-0.3-0.4-0.4c-0.4-0.4-0.7-0.8-1.1-1.2
			c-0.2-0.2-0.4-0.5-0.6-0.7c-0.4-0.4-0.7-0.9-1.1-1.3c-0.2-0.2-0.3-0.4-0.5-0.7c-0.4-0.5-0.8-0.9-1.1-1.4c-0.1-0.2-0.3-0.4-0.4-0.5
			c-0.4-0.5-0.8-1.1-1.2-1.6c-0.1-0.1-0.1-0.2-0.2-0.3c-2.9-4-5.6-8.1-8-12.5c0-0.1-0.1-0.1-0.1-0.2c-0.4-0.7-0.7-1.3-1.1-2
			c0-0.1-0.1-0.2-0.2-0.3c-0.1-0.2-0.2-0.3-0.2-0.5c-0.1-0.2-0.2-0.3-0.2-0.5c-0.2-0.3-0.3-0.7-0.5-1c-0.1-0.1-0.1-0.2-0.2-0.4
			c-0.3-0.7-0.6-1.3-1-2c0-0.1-0.1-0.2-0.2-0.4c-0.3-0.7-0.6-1.3-0.9-2c0-0.1-0.1-0.2-0.1-0.3c-0.1-0.2-0.2-0.5-0.3-0.7
			c0-0.1-0.1-0.2-0.1-0.3c-0.1-0.2-0.2-0.4-0.3-0.6l-0.2-0.4c0-0.1-0.1-0.2-0.1-0.3c-0.3-0.7-0.6-1.5-0.9-2.2c0-0.1,0-0.1-0.1-0.2
			c-0.1-0.3-0.2-0.6-0.3-0.9c-0.1-0.3-0.2-0.5-0.3-0.8c0-0.1-0.1-0.2-0.1-0.4c-0.1-0.3-0.2-0.6-0.3-0.9c-0.2-0.7-0.5-1.4-0.7-2.2
			c-0.2-0.5-0.3-1-0.5-1.6c-0.1-0.3-0.2-0.6-0.3-0.8c-0.2-0.7-0.4-1.5-0.7-2.2c0-0.1-0.1-0.2-0.1-0.4c0-0.1,0-0.1-0.1-0.2
			c-0.1-0.2-0.1-0.4-0.2-0.6c0-0.1-0.1-0.3-0.1-0.4c-0.2-0.8-0.4-1.7-0.6-2.5c-0.1-0.3-0.2-0.7-0.2-1.1c-0.2-0.7-0.3-1.5-0.5-2.2
			c-0.2-0.8-0.3-1.6-0.5-2.4c-0.1-0.3-0.1-0.7-0.2-1c0,0,0,0,0-0.1c-0.2-1.2-0.4-2.4-0.6-3.6c-0.2-1.2-0.3-2.4-0.5-3.6v0h-2.9
			c-1.8,0-3.6-0.3-5.2-0.9c0,0,0,0,0,0c-0.2-0.1-0.4-0.1-0.5-0.2c-0.2-0.1-0.5-0.2-0.7-0.3c-0.1,0-0.2-0.1-0.3-0.2c0,0,0,0,0,0
			c-0.1-0.1-0.3-0.1-0.4-0.2c-0.1-0.1-0.3-0.2-0.4-0.2c-0.2-0.1-0.3-0.2-0.5-0.3c-0.4-0.2-0.8-0.5-1.2-0.8c0,0,0,0-0.1-0.1
			c-0.2-0.1-0.4-0.3-0.6-0.5c-0.1-0.1-0.2-0.2-0.3-0.3c-0.1,0-0.1-0.1-0.2-0.1c0,0-0.1,0-0.1-0.1c0,0,0,0,0,0
			c-0.2-0.2-0.4-0.3-0.5-0.5c-0.2-0.1-0.3-0.3-0.5-0.5c0,0,0,0-0.1-0.1c0,0,0,0,0,0c-0.1-0.1-0.2-0.2-0.3-0.3
			c-0.1-0.2-0.3-0.3-0.4-0.5c0,0,0,0,0,0c0,0,0,0,0,0c0,0,0,0,0-0.1c0,0-0.1-0.1-0.1-0.1c0,0,0,0,0,0c0,0-0.1-0.1-0.1-0.1v0
			c0,0,0-0.1-0.1-0.1c0,0-0.1-0.1-0.1-0.1c-0.1-0.1-0.2-0.2-0.2-0.3c0,0,0,0,0,0c0,0,0,0,0,0c0,0,0,0,0,0c-0.1-0.2-0.3-0.4-0.4-0.6
			c-0.3-0.4-0.5-0.8-0.7-1.3c0-0.1-0.1-0.2-0.2-0.4c-0.1-0.1-0.1-0.2-0.2-0.4c0,0,0,0,0,0c-0.2-0.5-0.4-0.9-0.5-1.4
			c-0.1-0.2-0.1-0.3-0.1-0.5c0,0,0-0.1,0-0.1c0,0,0,0,0-0.1c0,0,0,0,0,0c0-0.1-0.1-0.2-0.1-0.4c0-0.1-0.1-0.2-0.1-0.3
			c0-0.1,0-0.1,0-0.2c0,0,0,0,0,0s0,0,0,0c0-0.2-0.1-0.4-0.1-0.6c0,0,0-0.1,0-0.1c0-0.1,0-0.2-0.1-0.4c0-0.1,0-0.2,0-0.3
			c0-0.4-0.1-0.8-0.1-1.2c0,0,0-0.1,0-0.1c0-0.1,0-0.3,0-0.4v-15c0-0.2,0-0.5,0-0.7c0,0,0-0.1,0-0.1c0-0.2,0-0.4,0-0.6
			c0-0.1,0-0.3,0-0.4c0-0.1,0-0.3,0-0.4c0,0,0,0,0,0c0-0.1,0-0.2,0-0.3c0-0.1,0-0.1,0-0.1c0-0.1,0-0.1,0-0.2c0-0.2,0.1-0.4,0.1-0.5
			c0-0.2,0.1-0.4,0.1-0.6c0.1-0.2,0.1-0.4,0.2-0.6c0,0,0,0,0,0c0-0.1,0.1-0.3,0.1-0.4c0-0.1,0-0.1,0.1-0.2c0.1-0.2,0.1-0.4,0.2-0.6
			c0.1-0.2,0.2-0.4,0.2-0.6c0.1-0.2,0.2-0.4,0.3-0.6c0.2-0.4,0.4-0.8,0.6-1.1c0.1-0.1,0.2-0.3,0.3-0.4c0-0.1,0.1-0.1,0.1-0.1
			c0.2-0.3,0.5-0.7,0.7-1c0.1-0.2,0.3-0.3,0.4-0.5c0,0,0.1-0.1,0.1-0.1c0.1-0.1,0.2-0.2,0.2-0.3c0,0,0,0,0-0.1h0
			c0,0,0.1-0.1,0.1-0.1c0,0,0.1-0.1,0.1-0.1c0.1-0.1,0.1-0.1,0.2-0.2c0.2-0.2,0.5-0.4,0.7-0.6c0.2-0.1,0.3-0.2,0.4-0.4l0,0
			c0.2-0.2,0.5-0.4,0.8-0.6c0.2-0.1,0.3-0.2,0.5-0.4c0.4-0.2,0.7-0.4,1.1-0.7c0.2-0.1,0.4-0.2,0.6-0.3c0.2-0.1,0.4-0.2,0.6-0.3
			c0.1,0,0.2-0.1,0.3-0.1c0.1,0,0.2-0.1,0.3-0.1c0,0,0,0,0,0c0.6-0.2,1.2-0.4,1.8-0.6c1.3-0.4,2.6-0.6,4.1-0.6h2.1v-17.7
			c0-0.3,0-0.6,0-0.9c0-0.4,0-0.9,0-1.3c0-0.4,0-0.9,0-1.3c0-1.1,0.1-2.3,0.2-3.4c0-0.6,0.1-1.1,0.1-1.7c0-0.4,0.1-10.9,0.1-11.3
			c0-0.4,0.1-0.8,0.1-1.3c0-0.1,0-0.2,0-0.2c0-0.4,0.1-0.8,0.1-1.2c0-0.4,0.1-0.7,0.1-1h51.6v-5c0-28.6,10.1-44.9,27-65.5
			c4-4.8,8.3-9.4,13-13.5c17.7-15.7,40.2-26.3,65-29.2c-0.6-0.1-1.3-0.1-1.9-0.2c-0.5,0-0.9-0.1-1.3-0.1c-0.1,0-0.1,0-0.2,0
			c-0.7-0.1-1.4-0.1-2.1-0.2c-0.6-0.1-1.3-0.1-1.9-0.1c-0.4,0-0.8,0-1.2-0.1c-0.9,0-1.9-0.1-2.8-0.1c-0.8,0-1.6,0-2.5,0c0,0,0,0,0,0
			h-57c-30.3,0-58,11.3-79,30c-1.8,1.6-3.5,3.2-5.1,4.8c-2.1,2.1-4.1,4.2-6,6.4c-0.3,0.4-0.6,0.7-1,1.1c-0.3,0.4-0.6,0.7-0.9,1.1
			c-0.4,0.5-0.8,1-1.2,1.5c-0.8,1-1.5,2-2.3,3c-0.4,0.5-0.7,1-1.1,1.5c-0.5,0.7-1,1.3-1.4,2c-1.8,2.6-3.5,5.2-5,7.9
			c-1,1.8-2,3.6-3,5.5c-0.8,1.5-1.5,3.1-2.3,4.7c-0.1,0.2-0.2,0.3-0.2,0.5c-0.7,1.6-1.4,3.2-2.1,4.8c-0.6,1.5-1.2,3-1.7,4.5
			c-2.1,6-3.8,12.2-4.9,18.6c-0.3,1.7-0.6,3.4-0.8,5.2c-0.7,5.2-1,10.5-1,15.8v11.7c0,8.7-0.2,17.5-0.6,26.2c0,0.2,0,0.3,0,0.5
			c-0.2,3.1-0.3,6.1-0.5,9.2c-0.2,3.1-0.4,6.1-0.7,9.2c-0.2,3.1-0.5,6.1-0.8,9.1c-0.3,3.1-0.6,6.1-1,9.1c-0.2,1.7-0.4,3.5-0.6,5.2
			c-0.2,1.7-0.4,3.5-0.7,5.2c-0.3,2.6-0.7,5.2-1.1,7.8c-0.4,2.6-0.8,5.2-1.2,7.8c-0.8,5.2-1.8,10.4-2.8,15.6
			c-0.2,1.3-0.5,2.6-0.8,3.9c-0.5,2.6-1.1,5.2-1.6,7.8c-0.3,1.3-0.6,2.6-0.9,3.9c-0.8,3.4-1.6,6.9-2.4,10.3
			c-0.8,3.4-1.7,6.8-2.6,10.2c-2.2,8.1-4.5,16.2-7.1,24.3c-0.1,0.4-0.2,0.7-0.3,1.1c-3.8,11.9-7.2,24.3-9.8,36.8
			c-0.3,1.6-0.6,3.1-0.9,4.7c-0.4,2.3-0.9,4.7-1.2,7c-0.4,2.3-0.7,4.7-1,7c-0.2,1.6-0.4,3.1-0.6,4.6c-0.2,2.3-0.5,4.6-0.6,6.9
			c-0.2,2.3-0.3,4.6-0.4,6.8c0,1.3,0.3,2.4,1,3.3c0.2,0.3,0.4,0.6,0.7,0.8c2,1.8,5.2,2.1,7.4-0.1c0.1-0.2,0.3-0.3,0.4-0.5l9.4-11.8
			c0.1-0.1,0.2-0.2,0.3-0.3c1.3-1.3,3.3-1.1,4.4,0.1c0.2,0.2,0.4,0.5,0.6,0.9c0.1,0.3,0.2,0.7,0.2,1.1c0.3,5.8,1,14.2,2.9,23.7
			c0.3,1.4,0.6,2.8,0.9,4.2c0.6,2.6,1.3,5.3,2,8c0.8,2.6,1.6,5.3,2.6,8c0.7,2,1.5,4,2.3,6.1c0.3,0.7,0.6,1.3,0.9,2
			c0.6,1.3,1.2,2.7,1.8,4h0c1.4,3,3,6,4.8,8.9c0.3,0.5,0.7,1.1,1,1.6c0.3,0.5,0.7,1.1,1,1.6c0.7,1.1,1.4,2.1,2.2,3.1v0
			c0.8,1,1.5,2,2.3,3c0.8,1,1.6,2,2.5,3c0,0,0,0,0,0c0.7,0.8,1.4,1.6,2.1,2.3v0c0.7,0.8,1.4,1.5,2.2,2.3c0.7,0.8,1.5,1.5,2.3,2.2
			c0.6,0.5,1.2,1.1,1.8,1.6c1.2,1.1,2.4,2.1,3.7,3.1c0,0,0,0,0,0c1.3,1,2.6,2,4,2.9c1.4,1,2.9,1.9,4.4,2.8v0c0.3,0.2,0.7,0.4,1,0.6
			c0.3,0.2,0.7,0.4,1,0.6c4.7,2.6,9.9,4.9,15.6,6.6c0.9,0.3,1.8,0.6,2.7,0.8h0c0.6,0.2,1.3,0.4,2,0.6h85
			C236.7,473.7,226.9,468.8,218.8,462.7C218.8,462.8,218.8,462.8,218.8,462.7z"/>
		<path id="XMLID_2780_" class="st5" d="M396.2,388.4v81.8c-12.6,8.2-25.9,15.4-39.8,21.3c-5.9,2.5-11.9,4.8-18,6.9
			c-25.7,8.7-53.2,13.5-81.8,13.5H256c-1.5,0-3,0-4.5,0c-15.1-0.3-29.9-1.8-44.3-4.6c-8.2-1.6-16.2-3.5-24-5.9
			c-4-1.2-7.9-2.4-11.8-3.8c-0.1,0-0.2-0.1-0.3-0.1c-0.7-0.2-1.4-0.5-2.1-0.8c-1.7-0.6-3.5-1.3-5.2-1.9c-7.8-3-15.4-6.4-22.8-10.1
			c-0.4-0.2-0.7-0.4-1.1-0.5c-9.8-5-19.3-10.6-28.3-16.8v-79c0-14.6,6.3-27.8,16.3-36.9c0.6-0.5,1.2-1.1,1.8-1.6
			c0.6-0.5,1.2-1,1.9-1.5s1.3-0.9,2-1.4c0.1-0.1,0.1-0.1,0.2-0.1c0.6-0.4,1.2-0.8,1.8-1.2c0.7-0.4,1.4-0.8,2.1-1.2
			c0.2-0.1,0.4-0.2,0.5-0.3c0.5-0.3,1-0.5,1.6-0.8c0.1,0,0.1-0.1,0.2-0.1c0.5-0.2,1.1-0.5,1.6-0.7c0.4-0.2,0.8-0.3,1.2-0.5
			c0.6-0.2,1.2-0.5,1.8-0.7c0.6-0.2,1.2-0.4,1.9-0.6c0.5-0.2,1-0.3,1.5-0.4c0.3-0.1,0.6-0.2,0.9-0.2c0.3-0.1,0.7-0.2,1-0.3
			c0.3-0.1,0.6-0.1,0.9-0.2c0.1,0,0.1,0,0.2,0c0.2-0.1,0.4-0.1,0.6-0.1c0.1,0,0.1,0,0.2-0.1c0.3-0.1,0.7-0.1,1-0.2
			c0.3-0.1,0.6-0.1,0.9-0.2c0.5-0.1,1-0.2,1.5-0.2c0.1,0,0.3,0,0.4-0.1c0.6-0.1,1.1-0.1,1.7-0.2c0.3,0,0.7-0.1,1-0.1
			c0.4,0,0.8-0.1,1.2-0.1c0.6,0,1.3,0,2,0h184.7c0.9,0,1.7,0,2.6,0.1c0.3,0,0.5,0,0.8,0.1c0,0,0.1,0,0.2,0c0.2,0,0.5,0,0.7,0.1
			c0.4,0,0.8,0.1,1.1,0.1c0.3,0,0.6,0.1,0.9,0.1c0.5,0.1,1.1,0.2,1.6,0.2c0.3,0.1,0.7,0.1,1,0.2c0.4,0.1,0.8,0.1,1.2,0.2
			c0.3,0.1,0.7,0.1,1,0.2c0.1,0,0.2,0,0.2,0.1c0.4,0.1,0.8,0.2,1.2,0.3c0.2,0,0.4,0.1,0.6,0.2c0.4,0.1,0.8,0.2,1.1,0.3
			c0.2,0.1,0.4,0.1,0.5,0.2c0.8,0.3,1.7,0.6,2.5,0.9c0.3,0.1,0.7,0.2,1,0.4c0.2,0.1,0.4,0.2,0.6,0.3c0.6,0.2,1.2,0.5,1.7,0.7
			c0.3,0.1,0.6,0.2,0.8,0.4c0.1,0,0.2,0.1,0.3,0.2c0.5,0.3,1.1,0.6,1.6,0.8c0.1,0,0.1,0.1,0.2,0.1c0,0,0,0,0.1,0
			c0.1,0,0.2,0.1,0.3,0.2c0.1,0.1,0.2,0.1,0.3,0.2h0c0.2,0.1,0.3,0.2,0.5,0.2c0.8,0.4,1.5,0.9,2.2,1.4c0.7,0.4,1.3,0.9,2,1.3
			c0.2,0.1,0.3,0.2,0.4,0.3c0.5,0.4,0.9,0.7,1.4,1.1c0,0,0,0,0,0c0.3,0.2,0.6,0.5,0.9,0.7c0.3,0.3,0.7,0.6,1,0.9
			c0.2,0.2,0.4,0.3,0.6,0.5c0.4,0.3,0.7,0.7,1.1,1c0,0,0,0,0,0c0.2,0.2,0.4,0.4,0.6,0.6c0.5,0.5,1,1.1,1.6,1.6
			c0.5,0.5,1,1.1,1.5,1.7c0.5,0.6,1,1.2,1.4,1.7c0.5,0.6,0.9,1.2,1.3,1.8c0.4,0.6,0.9,1.2,1.3,1.9c0.4,0.6,0.8,1.3,1.2,1.9
			c0.2,0.4,0.4,0.8,0.7,1.2c0.1,0.3,0.3,0.5,0.4,0.8c0,0.1,0.1,0.2,0.1,0.3c0.2,0.4,0.5,0.9,0.7,1.4c0,0,0,0.1,0,0.1
			c0,0.1,0.1,0.2,0.2,0.3c0,0.1,0.1,0.2,0.1,0.3c0.2,0.5,0.5,1,0.7,1.6c0.1,0.2,0.2,0.5,0.3,0.7c0.2,0.4,0.3,0.8,0.4,1.2
			c0.2,0.6,0.5,1.3,0.7,1.9c0,0.1,0.1,0.2,0.1,0.3c0.1,0.2,0.1,0.4,0.2,0.6c0.1,0.3,0.2,0.6,0.2,0.8c0.1,0.3,0.2,0.6,0.3,0.9
			c0.1,0.4,0.2,0.8,0.3,1.2c0.1,0.3,0.2,0.7,0.2,1c0.2,0.8,0.3,1.6,0.4,2.3c0,0.3,0.1,0.5,0.1,0.8c0,0.2,0.1,0.5,0.1,0.8
			c0.1,0.7,0.2,1.3,0.2,2C396.1,385.5,396.2,387,396.2,388.4z"/>
		<path id="XMLID_2702_" class="st196" d="M208.5,338.6c-0.4,0-0.8,0-1.3,0c-8.8,0.2-17,2.7-24,6.8c-5.5,3.2-10.4,7.5-14.2,12.6
			c-1.3,1.7-2.5,3.5-3.6,5.4c-0.2,0.4-0.4,0.7-0.6,1.1c-1.2,2.2-2.2,4.5-3.1,6.8c-0.7,1.8-1.2,3.7-1.7,5.6c-0.7,2.7-1.1,5.6-1.3,8.4
			c-0.1,1-0.1,2.1-0.1,3.1v103.3c0.2,0.1,0.5,0.3,0.7,0.4c1.5,0.9,3,1.8,4.5,2.7c-7.8-3-15.4-6.4-22.8-10.1
			c-0.4-0.2-0.7-0.4-1.1-0.5c-9.8-5-19.3-10.6-28.3-16.8v-79c0-14.6,6.3-27.8,16.3-36.9c0.6-0.5,1.2-1.1,1.8-1.6
			c0.6-0.5,1.2-1,1.9-1.5s1.3-0.9,2-1.4c0.1-0.1,0.1-0.1,0.2-0.1c0.6-0.4,1.2-0.8,1.8-1.2c0.7-0.4,1.4-0.8,2.1-1.2
			c0.2-0.1,0.4-0.2,0.5-0.3c1.5-0.8,3-1.5,4.5-2.1c4.8-2,10-3.2,15.5-3.5c0.4,0,0.8-0.1,1.2-0.1c0.7,0,1.3,0,2,0H208.5z"/>
		<path id="XMLID_2576_" class="st20" d="M294,393.6h-80c-30.8,0-55.7-24.9-55.7-55.7v-0.7h191.3v0.7
			C349.7,368.7,324.7,393.6,294,393.6z"/>
		<path id="XMLID_2484_" class="st20" d="M141.7,146.6v17.7h-2.1c-1.4,0-2.8,0.2-4.1,0.5c-6.7,1.8-11.7,7.9-11.7,15.2v15
			c0,8.7,7,15.7,15.7,15.7h2.9l0,0c1.1,9.7,3.4,19.1,6.8,27.9c0,0.1,0,0.1,0.1,0.2c0.3,0.7,0.6,1.5,0.9,2.2c0,0.1,0.1,0.2,0.1,0.3
			c0.3,0.7,0.6,1.4,0.9,2.1c0,0.1,0.1,0.2,0.1,0.3c0.3,0.7,0.6,1.4,0.9,2c0.1,0.1,0.1,0.2,0.2,0.4c0.3,0.7,0.6,1.3,1,2
			c0.1,0.1,0.1,0.2,0.2,0.3c0.3,0.7,0.7,1.3,1,2c0.1,0.1,0.1,0.2,0.2,0.3c0.4,0.7,0.7,1.3,1.1,2c0,0.1,0.1,0.1,0.1,0.2
			c2.4,4.3,5.1,8.5,8,12.5c0.1,0.1,0.1,0.2,0.2,0.3c0.4,0.5,0.8,1,1.2,1.6c0.1,0.2,0.3,0.4,0.4,0.5c0.4,0.5,0.7,0.9,1.1,1.4
			c0.2,0.2,0.4,0.4,0.5,0.7c0.4,0.4,0.7,0.9,1.1,1.3c0.2,0.2,0.4,0.5,0.6,0.7c0.4,0.4,0.7,0.8,1.1,1.2c0.2,0.3,0.4,0.5,0.7,0.8
			c0.4,0.4,0.7,0.8,1.1,1.2c0.2,0.3,0.5,0.5,0.7,0.8c0.3,0.4,0.7,0.7,1.1,1.1c0.3,0.3,0.5,0.5,0.8,0.8c0.3,0.4,0.7,0.7,1,1.1
			c0.3,0.3,0.6,0.5,0.8,0.8c0.3,0.3,0.7,0.7,1,1c0.3,0.3,0.6,0.6,0.9,0.8c0.3,0.3,0.7,0.6,1,0.9c0.3,0.3,0.6,0.6,1,0.9
			c0.3,0.3,0.7,0.6,1,0.9c0.4,0.3,0.7,0.6,1.1,0.9c0.3,0.3,0.6,0.5,0.9,0.8c0.6,0.5,1.1,0.9,1.7,1.4c0.2,0.2,0.4,0.3,0.6,0.5
			c0.6,0.5,1.2,0.9,1.8,1.4c0.2,0.2,0.5,0.4,0.7,0.5c0.5,0.3,0.9,0.7,1.4,1c0.3,0.2,0.5,0.4,0.8,0.6c0.5,0.3,0.9,0.6,1.4,1
			c0.3,0.2,0.6,0.4,0.8,0.6c0.5,0.3,0.9,0.6,1.4,0.9c0.3,0.2,0.6,0.4,0.9,0.5c0.5,0.3,0.9,0.6,1.4,0.9c0.3,0.2,0.6,0.4,0.9,0.5
			c0.5,0.3,0.9,0.6,1.4,0.8c0.3,0.2,0.6,0.3,0.9,0.5c0.5,0.3,1,0.6,1.5,0.8c0.3,0.2,0.6,0.3,0.9,0.5c0.5,0.3,1,0.5,1.5,0.8
			c0.3,0.1,0.6,0.3,0.8,0.4c0.5,0.3,1.1,0.5,1.6,0.8c0.3,0.1,0.5,0.3,0.8,0.4c0.6,0.3,1.1,0.5,1.7,0.8c0.2,0.1,0.5,0.2,0.7,0.3
			c0.6,0.3,1.2,0.5,1.9,0.8c0.2,0.1,0.4,0.2,0.6,0.3c0.7,0.3,1.5,0.6,2.2,0.9c0.1,0,0.2,0.1,0.3,0.1c2.6,1,5.2,1.9,7.8,2.8
			c0.1,0,0.1,0,0.2,0.1c0.8,0.2,1.6,0.5,2.4,0.7c0.2,0,0.3,0.1,0.5,0.1c0.7,0.2,1.4,0.4,2.1,0.6c0.2,0.1,0.4,0.1,0.7,0.2
			c0.7,0.2,1.3,0.3,2,0.5c0.2,0.1,0.5,0.1,0.7,0.2c0.6,0.1,1.3,0.3,2,0.4c0.3,0.1,0.5,0.1,0.8,0.2c0.6,0.1,1.3,0.3,1.9,0.4
			c0.3,0,0.5,0.1,0.8,0.1c0.7,0.1,1.3,0.2,2,0.3c0.3,0,0.5,0.1,0.8,0.1c0.7,0.1,1.3,0.2,2,0.3c0.3,0,0.5,0.1,0.8,0.1
			c0.7,0.1,1.4,0.2,2.1,0.2c0.2,0,0.5,0.1,0.7,0.1c0.7,0.1,1.5,0.1,2.2,0.2c0.2,0,0.4,0,0.6,0.1c0.8,0.1,1.6,0.1,2.4,0.2
			c0.1,0,0.2,0,0.4,0c1.9,0.1,3.8,0.1,5.8,0.1h0c0.1,0,0.2,0,0.3,0c1.5,0,3,0,4.5-0.1c0.2,0,0.4,0,0.6,0c1.5-0.1,3-0.2,4.5-0.3
			c0.2,0,0.5,0,0.7-0.1c1.5-0.1,2.9-0.3,4.4-0.5c0.2,0,0.5-0.1,0.7-0.1c1.5-0.2,2.9-0.4,4.4-0.7c0.1,0,0.2,0,0.3-0.1
			c49-8.8,87.2-49.1,92.8-99.2h3.3c8.7,0,15.7-7,15.7-15.7v-15c0-7.9-5.9-14.4-13.5-15.5c-0.7-0.1-1.5-0.2-2.3-0.2h-2.6v-17.7
			c0-4.6-0.3-19.2-0.8-23.7h-37.3c-11.8,0-22.7-6.5-28.2-16.9v0l-1.8,2.7c-5.9,8.9-15.9,14.2-26.6,14.2H142.5
			C142,127.4,141.7,142,141.7,146.6z"/>
		<path id="XMLID_2483_" class="st21" d="M297.4,303.8c-6.9,2.7-14.1,4.8-21.6,6.2c-0.1,0-0.2,0-0.3,0.1c-1.4,0.3-2.9,0.5-4.4,0.7
			c-0.2,0-0.5,0.1-0.7,0.1c-1.4,0.2-2.9,0.4-4.4,0.5c-0.2,0-0.5,0-0.7,0.1c-1.5,0.1-3,0.2-4.5,0.3c-0.2,0-0.4,0-0.6,0
			c-1.5,0.1-3,0.1-4.5,0.1h-0.2c-1.9,0-3.9,0-5.8-0.1c-0.1,0-0.2,0-0.4,0c-0.8,0-1.6-0.1-2.4-0.2c-0.2,0-0.4,0-0.6,0
			c-0.7-0.1-1.5-0.1-2.2-0.2c-0.2,0-0.5,0-0.7-0.1c-0.7-0.1-1.4-0.1-2.1-0.2c-0.3,0-0.5-0.1-0.8-0.1c-0.7-0.1-1.3-0.2-2-0.3
			c-0.3,0-0.5-0.1-0.8-0.1c-0.7-0.1-1.3-0.2-2-0.3c-0.3,0-0.5-0.1-0.8-0.1c-0.7-0.1-1.3-0.2-1.9-0.4c-0.3-0.1-0.5-0.1-0.8-0.2
			c-0.7-0.1-1.3-0.3-2-0.4c-0.2-0.1-0.5-0.1-0.7-0.2c-0.7-0.2-1.3-0.3-2-0.5c-0.2-0.1-0.5-0.1-0.7-0.2c-0.7-0.2-1.4-0.4-2.1-0.6
			c-0.2,0-0.3-0.1-0.5-0.1c-0.8-0.2-1.6-0.5-2.4-0.7c-0.1,0-0.1,0-0.2-0.1c-2.6-0.8-5.3-1.7-7.8-2.8c-0.1,0-0.2-0.1-0.3-0.1
			c-0.7-0.3-1.5-0.6-2.2-0.9c-0.2-0.1-0.4-0.2-0.6-0.2c-0.6-0.3-1.2-0.5-1.9-0.8c-0.2-0.1-0.5-0.2-0.7-0.3c-0.6-0.3-1.1-0.5-1.7-0.8
			c-0.3-0.1-0.5-0.3-0.8-0.4c-0.5-0.3-1.1-0.5-1.6-0.8c-0.3-0.1-0.6-0.3-0.8-0.4c-0.5-0.3-1-0.5-1.5-0.8c-0.3-0.1-0.6-0.3-0.9-0.5
			c-0.5-0.3-1-0.5-1.5-0.8c-0.3-0.2-0.6-0.3-0.9-0.5c-0.5-0.3-1-0.6-1.4-0.8c-0.3-0.2-0.6-0.4-0.9-0.5c-0.5-0.3-0.9-0.6-1.4-0.9
			c-0.3-0.2-0.6-0.4-0.9-0.5c-0.5-0.3-0.9-0.6-1.4-0.9c-0.3-0.2-0.6-0.4-0.8-0.6c-0.5-0.3-0.9-0.6-1.4-1c-0.3-0.2-0.5-0.4-0.8-0.6
			c-0.5-0.3-1-0.7-1.4-1c-0.2-0.2-0.5-0.3-0.7-0.5c-0.6-0.5-1.2-0.9-1.8-1.4c-0.2-0.2-0.4-0.3-0.6-0.5c-0.6-0.5-1.1-0.9-1.7-1.4
			c-0.3-0.2-0.6-0.5-0.9-0.8c-0.4-0.3-0.7-0.6-1.1-0.9c-0.3-0.3-0.7-0.6-1-0.9c-0.3-0.3-0.6-0.6-1-0.9c-0.4-0.3-0.7-0.6-1-0.9
			c-0.3-0.3-0.6-0.6-0.9-0.8c-0.4-0.3-0.7-0.7-1-1c-0.3-0.3-0.6-0.5-0.8-0.8c-0.4-0.3-0.7-0.7-1.1-1c-0.3-0.3-0.5-0.5-0.8-0.8
			c-0.3-0.4-0.7-0.7-1-1.1c-0.2-0.3-0.5-0.5-0.7-0.8c-0.4-0.4-0.7-0.8-1.1-1.2c-0.2-0.3-0.4-0.5-0.7-0.8c-0.4-0.4-0.7-0.8-1.1-1.2
			c-0.2-0.2-0.4-0.5-0.6-0.7c-0.4-0.4-0.7-0.9-1.1-1.3c-0.2-0.2-0.3-0.4-0.5-0.7c-0.4-0.5-0.8-0.9-1.1-1.4c-0.1-0.2-0.3-0.4-0.4-0.5
			c-0.4-0.5-0.8-1.1-1.2-1.6c-0.1-0.1-0.1-0.2-0.2-0.3c-2.9-4-5.6-8.1-8-12.5c0-0.1-0.1-0.1-0.1-0.2c-0.4-0.7-0.7-1.3-1.1-2
			c0-0.1-0.1-0.2-0.2-0.3c-0.3-0.6-0.7-1.3-1-2c-0.1-0.1-0.1-0.2-0.2-0.4c-0.3-0.7-0.6-1.3-1-2c0-0.1-0.1-0.2-0.2-0.4
			c-0.3-0.7-0.6-1.3-0.9-2c0-0.1-0.1-0.2-0.2-0.3c-0.3-0.7-0.6-1.4-0.9-2.1c0-0.1-0.1-0.2-0.1-0.3c-0.3-0.7-0.6-1.5-0.9-2.2
			c0-0.1,0-0.1-0.1-0.2c-3.4-8.8-5.7-18.1-6.8-27.9v0h-2.9c-8.7,0-15.7-7-15.7-15.7v-15c0-7.3,5-13.4,11.7-15.2
			c1.3-0.4,2.7-0.6,4.1-0.6h2.1v-17.7c0-4.6,0.3-19.2,0.8-23.7h47.6c-3.9,12.9-6,36.7-6,51C184.2,243.8,234.4,300.8,297.4,303.8z"/>
		<g id="XMLID_2449_">
			<path id="XMLID_2477_" class="st21" d="M261.5,215.8h-14.1c-4.6,0-8.4-3.8-8.4-8.4v0c0-4.6,3.8-8.4,8.4-8.4h14.1
				c4.6,0,8.4,3.8,8.4,8.4v0C269.9,212,266.2,215.8,261.5,215.8z"/>
			<path id="XMLID_2476_" class="st36" d="M285,234c1.6,0,2.9,1.3,2.9,2.9l0,0c0,3-0.4,5.8-1.1,8.6c-1.7,6.3-5.3,11.9-10.1,16.1
				c-5.7,5-13.3,8-21.5,8s-15.7-3-21.5-8c-4.8-4.2-8.4-9.8-10.1-16.1c-0.7-2.7-1.1-5.6-1.1-8.6l0,0c0-1.6,1.3-2.9,2.9-2.9H285z"/>
			<path id="XMLID_2475_" class="st26" d="M276.6,261.5c-5.7,5-13.3,8-21.5,8s-15.7-3-21.5-8c5.7-5,13.3-8,21.5-8
				S270.9,256.5,276.6,261.5z"/>
			<path id="XMLID_2460_" class="st16" d="M285,234c1.6,0,2.9,1.3,2.9,2.9l0,0c0,3-0.4,5.8-1.1,8.6h-63.2c-0.7-2.7-1.1-5.6-1.1-8.6
				l0,0c0-1.6,1.3-2.9,2.9-2.9H285z"/>
			<circle id="XMLID_2459_" class="st23" cx="199.8" cy="174.1" r="15.1"/>
			<circle id="XMLID_2458_" class="st16" cx="203.7" cy="169.1" r="6.7"/>
			<circle id="XMLID_2457_" class="st23" cx="305.7" cy="174.1" r="15.1"/>
			<circle id="XMLID_2456_" class="st16" cx="309.6" cy="169.1" r="6.7"/>
		</g>
		<path id="XMLID_2700_" class="st51" d="M207.3,339.2v168.2c-8.2-1.6-16.2-3.5-24-5.9c-4-1.2-7.9-2.4-11.8-3.8
			c-0.1,0-0.2-0.1-0.3-0.1c-0.7-0.2-1.4-0.5-2.1-0.8V339.2c0-0.2,0-0.4,0-0.6c0,0,0,0,0,0c0.2-2.9,1.6-5.5,3.7-7.3
			c0.2-0.2,0.5-0.4,0.8-0.6c0.1-0.1,0.3-0.2,0.4-0.3c0.3-0.2,0.6-0.3,0.9-0.5c0,0,0,0,0,0c0.3-0.1,0.6-0.3,0.9-0.4
			c1.1-0.4,2.3-0.6,3.5-0.6H197c5.5,0,9.9,4.2,10.2,9.6c0,0,0,0,0,0c0,0,0,0,0,0C207.3,338.8,207.3,339,207.3,339.2z"/>
		<path id="XMLID_2675_" class="st36" d="M193.5,328.9c-5.5,0-9.9,4.3-10.2,9.6c0,0,0,0,0,0c0,0.2,0,0.4,0,0.6v162.4
			c-4-1.2-7.9-2.4-11.8-3.8c-0.1,0-0.2-0.1-0.3-0.1c-0.7-0.2-1.4-0.5-2.1-0.8V339.2c0-0.2,0-0.4,0-0.6c0,0,0,0,0,0
			c0.2-2.9,1.6-5.5,3.7-7.3c0.2-0.2,0.5-0.4,0.8-0.6c0.1-0.1,0.3-0.2,0.4-0.3c0.3-0.2,0.6-0.3,0.9-0.5c0,0,0,0,0,0
			c0.3-0.1,0.6-0.3,0.9-0.4c1.1-0.4,2.3-0.6,3.5-0.6H193.5z"/>
		<path id="XMLID_2705_" class="st16" d="M383.4,185.2v37.7c0,1.6-0.7,3-1.8,4V291c0,19.1-4.2,37.2-11.8,53.4
			c-1.6,3.4-3.3,6.8-5.2,10.1c-19.6,33.9-54.3,58-94.8,63c-0.8,2.8-3.4,4.8-6.4,4.8h-6.7V512H256c-1.5,0-3,0-4.5,0v-89.7h-5.8
			c-3,0-5.5-2-6.4-4.7c-11.2-1.3-22-4-32.1-8.1c-8.5-3.4-16.5-7.6-24-12.6c-0.8-0.5-1.6-1.1-2.3-1.6c-4.2-2.9-8.1-6.1-11.9-9.5
			c-1.5-1.3-2.9-2.7-4.3-4.1c-1.6-1.6-3.2-3.2-4.7-4.9c-1.9-2.1-3.8-4.2-5.5-6.4c-4.7-5.8-8.8-12-12.4-18.6c-1.3-2.5-2.6-5-3.8-7.6
			c-7.5-16.2-11.7-34.3-11.7-53.3v-63.6c-1.6-0.9-2.8-2.6-2.8-4.6v-37.7c0-4.4,3.6-8,8-8h1.5c4.1,0,7.5,3.4,7.5,7.5v10.5
			c0,4.1-3.4,7.5-7.5,7.5h1v20.2c0,2-1.1,3.7-2.8,4.6V291c0,18.3,4,35.6,11.2,51.2c0,0,0,0,0,0c2.3,4.9,4.9,9.7,7.8,14.2
			c1.5,2.3,3,4.6,4.6,6.8c2,2.8,4.2,5.4,6.4,8c2,2.3,4,4.5,6.2,6.6c0.4,0.4,0.8,0.8,1.2,1.1c3.4,3.3,7,6.4,10.7,9.2
			c1.2,0.9,2.3,1.8,3.5,2.6c7.4,5.3,15.5,9.8,24,13.3c10.2,4.2,21.1,7.1,32.5,8.5c1.1-2.2,3.3-3.7,5.9-3.7h17.6
			c2.6,0,4.8,1.5,5.9,3.6c36.1-4.5,67.4-24.7,86.7-53.6c3.5-5.3,6.6-10.8,9.3-16.6c7.2-15.6,11.3-33,11.3-51.3v-63.2
			c-2.1-0.7-3.7-2.6-3.7-5v-20.2h1c-4.1,0-7.5-3.4-7.5-7.5v-10.5c0-4.1,3.4-7.5,7.5-7.5h1.5C379.8,177.2,383.4,180.8,383.4,185.2z"
			/>
		<path id="XMLID_2165_" class="st196" d="M356.3,442.9v48.7c-5.9,2.5-11.9,4.8-18,6.9v-55.6c0-5,4-9,9-9c2.5,0,4.7,1,6.4,2.6
			C355.3,438.2,356.3,440.4,356.3,442.9z"/>
		<path id="XMLID_2678_" class="st20" d="M219,466.4v0.1c0,0.5,0,1,0,1.5c-0.2,3.1-0.8,6-1.7,8.7c-1.6,4.5-4.1,8.5-7.4,11.7
			c-0.8,0.8-1.7,1.6-2.6,2.3c-5.3,4.3-12.1,6.8-19.5,6.8h-16.7c-0.7-0.2-1.4-0.5-2.1-0.8c-1.7-0.6-3.5-1.3-5.2-1.9
			c-7.8-3-15.4-6.4-22.8-10.1v-49.6h46.8c2.6,0,5.2,0.3,7.7,0.9c4.4,1.1,8.4,3.2,11.8,5.9c6.3,5,10.6,12.4,11.5,20.8
			c0,0.1,0,0.3,0,0.4c0,0.2,0,0.3,0,0.5c0,0.5,0.1,0.9,0.1,1.4C219,465.5,219,465.9,219,466.4z"/>
		<path id="XMLID_2669_" class="st21" d="M219,466.4v0.1c0,0.5,0,1,0,1.5c-0.1,3.1-0.7,6-1.7,8.7c-1.6,4.5-4.1,8.6-7.4,11.8
			c-0.8,0.8-1.7,1.6-2.6,2.3c-5.3,4.3-12.1,6.8-19.5,6.8h-16.3c-0.1,0-0.2-0.1-0.3-0.1c-0.7-0.2-1.4-0.5-2.1-0.8
			c-1.7-0.6-3.5-1.3-5.2-1.9c-7.8-3-15.4-6.4-22.8-10.1v-8.6h46.8c7.4,0,14.2-2.6,19.5-6.8c3.2-2.6,5.9-5.8,7.9-9.4
			c0.7-1.3,1.4-2.8,1.9-4.2c0.8,2.2,1.4,4.6,1.7,7c0,0.2,0,0.3,0.1,0.5c0,0.2,0,0.3,0,0.5c0,0.5,0.1,0.9,0.1,1.4
			C219,465.5,219,465.9,219,466.4z"/>
		<path id="XMLID_2671_" class="st196" d="M141,436.5v48.3c-0.4-0.2-0.7-0.4-1.1-0.5c-9.8-5-19.3-10.6-28.3-16.8
			c-11.6-7.9-22.5-16.8-32.7-26.5c6.8-7.2,16.4-11.7,27.1-11.7h27.6C137.7,429.2,141,432.5,141,436.5z"/>
		<path id="XMLID_2163_" class="st197" d="M141,480.5v4.3c-0.4-0.2-0.7-0.4-1.1-0.5C140.6,483.1,141,481.8,141,480.5z"/>
	</g>
</g>
</svg>
