<?xml version="1.0" encoding="utf-8"?>
<!-- Generator: Adobe Illustrator 22.0.1, SVG Export Plug-In . SVG Version: 6.00 Build 0)  -->
<svg version="1.1" xmlns="http://www.w3.org/2000/svg" xmlns:xlink="http://www.w3.org/1999/xlink" x="0px" y="0px"
	 viewBox="0 0 512 512" style="enable-background:new 0 0 512 512;" xml:space="preserve">
<style type="text/css">
	.st0{fill:#E9B12D;}
	.st1{fill:#A9E7D8;}
	.st2{fill:#76CFB1;}
	.st3{fill:#AE6B5D;}
	.st4{fill:#7770D3;}
	.st5{fill:#5BA0F5;}
	.st6{fill:#DA4545;}
	.st7{fill:#89CCFC;}
	.st8{fill:#CD462A;}
	.st9{fill:#514896;}
	.st10{fill:#5493A0;}
	.st11{fill:#CC6B5C;}
	.st12{fill:#62AA8D;}
	.st13{fill:#8ABAAB;}
	.st14{fill:#C3791F;}
	.st15{fill:#E39123;}
	.st16{fill:#FFFFFF;}
	.st17{fill:none;stroke:#FFFFFF;stroke-width:10;stroke-linecap:round;stroke-miterlimit:10;}
	.st18{fill:none;stroke:#5F55AB;stroke-width:10;stroke-linecap:round;stroke-miterlimit:10;}
	.st19{fill:#A9671C;}
	.st20{fill:#D5B3A7;}
	.st21{fill:#C09A8F;}
	.st22{fill:#487F87;}
	.st23{fill:#1B305C;}
	.st24{fill:#172945;}
	.st25{fill:none;}
	.st26{fill:#B62A2A;}
	.st27{fill:#325859;}
	.st28{fill:#3F6E71;}
	.st29{fill:#284646;}
	.st30{fill:#8F2727;}
	.st31{fill:#29477C;}
	.st32{fill:#5B9BEE;}
	.st33{fill:#487FDE;}
	.st34{fill:#CD9829;}
	.st35{fill:#9F2A2A;}
	.st36{fill:#4C3328;}
	.st37{fill:#E8B94A;}
	.st38{fill:#DDF8F1;}
	.st39{fill:#3E2A22;}
	.st40{fill:#D3A971;}
	.st41{fill:#C79A5B;}
	.st42{fill:#233E76;}
	.st43{fill:#21395F;}
	.st44{fill:#487D82;}
	.st45{fill:none;stroke:#C79A5B;stroke-width:10;stroke-linecap:round;stroke-miterlimit:10;}
	.st46{fill:#5E3E31;}
	.st47{fill:#AC3939;}
	.st48{fill:#CA9628;}
	.st49{fill:#AF8F88;}
	.st50{fill:#815048;}
	.st51{fill:#6F4232;}
	.st52{fill:#5F55AB;}
	.st53{fill:#192A48;}
	.st54{fill:#152336;}
	.st55{fill:#192B49;}
	.st56{fill:#264173;}
	.st57{fill:#B06F1E;}
	.st58{fill:#4E88C0;}
	.st59{fill:#83C3F1;}
	.st60{fill:#CF9929;}
	.st61{fill:none;stroke:#FFFFFF;stroke-width:10;stroke-linecap:round;stroke-linejoin:round;stroke-miterlimit:10;}
	.st62{fill:#EAC262;}
	.st63{fill:#D6D5D4;}
	.st64{fill:#6BBA9B;}
	.st65{fill:#63AA8F;}
	.st66{fill:none;stroke:#3E2A22;stroke-width:10;stroke-linecap:round;stroke-miterlimit:10;}
	.st67{fill:#CA7D1F;}
	.st68{fill:#213B64;}
	.st69{fill:#CDF8EC;}
	.st70{fill:#C59125;}
	.st71{fill:none;stroke:#C09A8F;stroke-width:10;stroke-linecap:round;stroke-miterlimit:10;}
	.st72{fill:#32579B;}
	.st73{fill:#172843;}
	.st74{fill:#D66767;}
	.st75{fill:#A74949;}
	.st76{fill:#EBC76F;}
	.st77{fill:#7A4940;}
	.st78{fill:#182A48;}
	.st79{fill:none;stroke:#A0794A;stroke-width:10;stroke-linecap:round;stroke-miterlimit:10;}
	.st80{fill:#C37A20;}
	.st81{fill:#D26D5C;}
	.st82{fill:#A45752;}
	.st83{fill:#284579;}
	.st84{fill:#88C7F4;}
	.st85{fill:#6EB6F0;}
	.st86{fill:#32221E;}
	.st87{fill:#E7A6A6;}
	.st88{fill:#C59191;}
	.st89{fill:#AA3B3B;}
	.st90{fill:#B83E3E;}
	.st91{fill:none;stroke:#5F55A9;stroke-width:10;stroke-linecap:round;stroke-miterlimit:10;}
	.st92{fill:#963838;}
	.st93{fill:#402B25;}
	.st94{fill:#6B6ABA;}
	.st95{fill:#BABABA;}
	.st96{fill:#D1D1D1;}
	.st97{fill:#264377;}
	.st98{fill:#A19BF5;}
	.st99{fill:#3C2A21;}
	.st100{fill:none;stroke:#4C3328;stroke-width:10;stroke-linecap:round;stroke-miterlimit:10;}
	.st101{fill:#C1781F;}
	.st102{fill:#E3A147;}
	.st103{fill:#F2D2A1;}
	.st104{fill:#4F372D;}
	.st105{fill:none;stroke:#DA4545;stroke-width:10;stroke-linecap:round;stroke-miterlimit:10;}
	.st106{fill:#AA3928;}
	.st107{fill:#8C2C22;}
	.st108{fill:#BF4336;}
	.st109{fill:#5797D4;}
	.st110{fill:#CFCFCF;}
	.st111{fill:#613A2E;}
	.st112{fill:none;stroke:#B18653;stroke-width:10;stroke-linecap:round;stroke-miterlimit:10;}
	.st113{fill:#B13B3B;}
	.st114{fill:#16263A;}
	.st115{fill:none;stroke:#16263A;stroke-width:10;stroke-miterlimit:10;}
	.st116{fill:#C87D20;}
	.st117{fill:#E4F0FD;}
	.st118{fill:#AA3737;}
	.st119{fill:#BF771F;}
	.st120{fill:none;stroke:#CD462A;stroke-width:10;stroke-linejoin:round;stroke-miterlimit:10;}
	.st121{fill:#5696D2;}
	.st122{fill:#C0771E;}
	.st123{fill:#9B5F1B;}
	.st124{fill:#A83A29;}
	.st125{fill:#E7A74F;}
	.st126{fill:#C9924C;}
	.st127{fill:#C58E48;}
	.st128{fill:#BE8844;}
	.st129{fill:#916939;}
	.st130{fill:#264275;}
	.st131{fill:#253F65;}
	.st132{fill:#182A45;}
	.st133{fill:#162336;}
	.st134{fill:#93C7B7;}
	.st135{fill:#E6A4A4;}
	.st136{fill:#B06B1D;}
	.st137{fill:#484185;}
	.st138{fill:#DB6E6E;}
	.st139{fill:#6BBA9A;}
	.st140{fill:#CACCCC;}
	.st141{fill:#D4D4D4;}
	.st142{fill:#A98881;}
	.st143{fill:#213A62;}
	.st144{fill:#A2837D;}
	.st145{fill:#6FB8F4;}
	.st146{fill:#9B9E9E;}
	.st147{fill:#B2B3B3;}
	.st148{fill:#20385D;}
	.st149{fill:#335AA8;}
	.st150{fill:#BCE7FD;}
	.st151{fill:#3B2921;}
	.st152{fill:#AD3C3C;}
	.st153{fill:#9D3838;}
	.st154{fill:#603F33;}
	.st155{fill:#4D868B;}
	.st156{fill:#A2DDFD;}
	.st157{fill:#ECB6B6;}
	.st158{fill:#E8A346;}
	.st159{fill:#514C94;}
	.st160{fill:#D2F1E8;}
	.st161{fill:#BDD6CE;}
	.st162{fill:#B93B29;}
	.st163{fill:#E0AD70;}
	.st164{fill:#C57C21;}
	.st165{fill:#EDA34A;}
	.st166{fill:#2F538F;}
	.st167{fill:#2B4B78;}
	.st168{fill:#65AF91;}
	.st169{fill:#A7CEFC;}
	.st170{fill:#98BDE2;}
	.st171{fill:#CFE5F7;}
	.st172{fill:#5492CD;}
	.st173{fill:#97CCBC;}
	.st174{fill:#5491CA;}
	.st175{fill:#EDC563;}
	.st176{fill:#423C79;}
	.st177{fill:#D3B1A5;}
	.st178{fill:#BE988D;}
	.st179{fill:#A7E5D6;}
	.st180{fill:#F2FFF9;}
	.st181{fill:#D64545;}
	.st182{fill:#A73B3B;}
	.st183{fill:#15233A;}
	.st184{fill:none;stroke:#BE988D;stroke-width:10;stroke-linecap:round;stroke-miterlimit:10;}
	.st185{fill:#AF3A29;}
	.st186{fill:#FAF9FF;}
	.st187{fill:#CACACC;}
	.st188{fill:#372720;}
	.st189{fill:#3F2C26;}
	.st190{fill:#2D201C;}
	.st191{fill:#3D6D6F;}
	.st192{fill:#5B54A8;}
	.st193{fill:#325799;}
	.st194{fill:#E8C26E;}
	.st195{fill:#254784;}
	.st196{fill:#5696D4;}
	.st197{fill:#4F8AB6;}
	.st198{fill:#5FA4AC;}
	.st199{fill:#AA3524;}
	.st200{fill:#D15F4D;}
	.st201{fill:#2B294C;}
	.st202{fill:#A43A2A;}
	.st203{fill:#E7AE2D;}
	.st204{fill:#CD9729;}
	.st205{fill:none;stroke:#AA8253;stroke-width:10;stroke-linecap:round;stroke-miterlimit:10;}
	.st206{fill:none;stroke:#E18F23;stroke-width:10;stroke-linecap:round;stroke-linejoin:round;stroke-miterlimit:10;}
	.st207{fill:#CF9828;}
	.st208{fill:#B88926;}
	.st209{fill:#A17623;}
	.st210{fill:#96CCBC;}
	.st211{fill:#CF9A2A;}
	.st212{fill:#C57B20;}
	.st213{fill:#C7F1E6;}
	.st214{fill:#DC6363;}
	.st215{fill:#E89F9F;}
	.st216{fill:#C88C8C;}
	.st217{fill:#C16E6E;}
	.st218{fill:#A46060;}
	.st219{fill:#AA3626;}
	.st220{fill:#87EDC4;}
	.st221{fill:#D86552;}
	.st222{fill:#BC7620;}
	.st223{fill:#BA741E;}
	.st224{fill:#8F8CE3;}
	.st225{fill:#3A2820;}
	.st226{fill:#AC7060;}
	.st227{fill:#915F55;}
	.st228{fill:#49332A;}
	.st229{fill:#2D1F1B;}
	.st230{fill:#69B7BE;}
	.st231{fill:#D6D6D6;}
	.st232{fill:#B8B8B8;}
	.st233{fill:#CACACA;}
	.st234{fill:#467B80;}
	.st235{fill:#C2EDE2;}
	.st236{fill:#A9574F;}
	.st237{fill:#5595D2;}
	.st238{fill:#955949;}
	.st239{fill:#7E4B42;}
	.st240{fill:#89CCF1;}
	.st241{fill:#DD584A;}
	.st242{fill:#C18F26;}
	.st243{fill:#B33C2A;}
	.st244{fill:#D1A771;}
	.st245{fill:#B42A2A;}
	.st246{fill:#325797;}
	.st247{fill:#9F3529;}
	.st248{fill:#EDCE80;}
	.st249{fill:#F0DBAC;}
	.st250{fill:#CFB478;}
	.st251{fill:#D4C29B;}
	.st252{fill:#993939;}
	.st253{fill:#D1AFA3;}
	.st254{fill:#BC968B;}
	.st255{fill:none;stroke:#BC968B;stroke-width:10;stroke-linecap:round;stroke-miterlimit:10;}
	.st256{fill:#814C3C;}
	.st257{fill:#C0EBE0;}
	.st258{fill:#A5E3D4;}
	.st259{fill:#15243C;}
	.st260{fill:#443E79;}
	.st261{fill:#F0FFF7;}
	.st262{fill:#9A764B;}
	.st263{fill:#826443;}
	.st264{fill:#D9AA74;}
	.st265{fill:#5DA186;}
	.st266{fill:#68B596;}
	.st267{fill:#E5C6BE;}
	.st268{fill:#D3B6B1;}
	.st269{fill:none;stroke:#BAA09C;stroke-width:10;stroke-linecap:round;stroke-miterlimit:10;}
	.st270{fill:#F4D78F;}
	.st271{fill:#20385F;}
	.st272{fill:#BA8727;}
	.st273{fill:#5A9C82;}
	.st274{fill:none;stroke:#E39123;stroke-width:10;stroke-linecap:round;stroke-linejoin:round;stroke-miterlimit:10;}
	.st275{fill:#60392D;}
	.st276{fill:#CCCCCC;}
	.st277{fill:#844F3E;}
	.st278{fill:#F3FFFB;}
	.st279{fill:#365E60;}
	.st280{fill:#D84545;}
	.st281{fill:#A83B3B;}
	.st282{fill:#253F70;}
	.st283{fill:#EAADAD;}
	.st284{fill:#443E7C;}
	.st285{fill:#3D6B9F;}
	.st286{fill:#4274BC;}
	.st287{fill:#AF3827;}
	.st288{fill:#E59D9D;}
	.st289{fill:#C48989;}
	.st290{fill:none;stroke:#9B621A;stroke-width:10;stroke-linecap:round;stroke-linejoin:round;stroke-miterlimit:10;}
	.st291{fill:#213A5E;}
	.st292{fill:#2D507A;}
	.st293{fill:#528EC8;}
	.st294{fill:#EFD696;}
	.st295{fill:#D1BA87;}
	.st296{fill:#FDFCFC;}
	.st297{fill:#86CBFC;}
	.st298{fill:#7AB7DA;}
	.st299{fill:#192C4C;}
	.st300{fill:#BCBCBC;}
	.st301{fill:#A13838;}
	.st302{fill:#75BDF6;}
	.st303{fill:#D0B1AA;}
	.st304{fill:#142233;}
	.st305{fill:#E6C4BB;}
	.st306{fill:#BDBDBD;}
	.st307{fill:#E8A192;}
	.st308{fill:#A43939;}
	.st309{fill:#162640;}
	.st310{fill:#27457C;}
	.st311{fill:#EFBE5E;}
	.st312{fill:#87EDC5;}
	.st313{fill:#A03838;}
	.st314{fill:#833232;}
	.st315{fill:#47417F;}
	.st316{fill:none;stroke:#915F55;stroke-width:10;stroke-linecap:round;stroke-miterlimit:10;}
	.st317{fill:#BC8B25;}
	.st318{fill:#473129;}
	.st319{fill:#67B394;}
	.st320{fill:#599A80;}
	.st321{fill:#B13D3D;}
</style>
<g id="BULINE">
	<g>
		<circle id="XMLID_1163_" class="st3" cx="256" cy="256" r="256"/>
	</g>
</g>
<g id="Icons">
	<g id="XMLID_4077_">
		<path id="XMLID_1510_" class="st239" d="M502.3,325.9c-16,56.6-51,105.2-97.7,138.5c-4.3,3.1-8.7,6-13.1,8.8
			c-7.3,4.6-14.9,8.8-22.7,12.6c-10.1,5-20.5,9.3-31.3,12.9c-11,3.7-22.3,6.7-33.9,8.8c-15.4,2.9-31.3,4.4-47.5,4.4
			c-15.5,0-30.7-1.4-45.4-4c-11.6-2.1-22.9-4.9-34-8.5c-4.9-1.6-9.7-3.3-14.5-5.2c-2.8-1.1-5.5-2.2-8.2-3.4
			c-10.6-4.6-20.8-9.9-30.6-15.9c-0.2-0.1-0.5-0.3-0.7-0.4c0,0,0,0,0,0c-4.1-2.5-8.1-5.1-12-7.8c-0.6-0.4-1.2-0.8-1.7-1.2
			c-47.8-33.6-83.6-83.2-99.6-141c8.3-6.7,17.1-14.2,22.3-18.7c2.9-2.5,7-2.5,10-0.2l14.9,11.9c6.2,4.9,15.1,3.9,20-2.2l7.1-8.8
			c2.4-2.9,6.4-3.7,9.7-2l10.1,5.3l22.7-14.7l9.9-6.4l5-3.2l4.9-3.2l32.2-20.9l0.1-0.1l0.4-0.2l20.7-13.4l4.5-2.9l14.1-9.2l2.8,0.8
			l3.3,0.9l36.9,10.4l23.2,6.5l32.8,9.2l12.5,3.2l0,0l39.3,10.1l10.1,2.6c1.6,0.4,3,1.3,4.1,2.5l5.1,6.1l0.6,0.8l13.2,15.7
			c5.7,6.7,16,6.8,21.8,0.2l7.2-8.3c3.3-3.8,9.4-3.5,12.3,0.6l9.3,13.1c5.7,8,17.7,8,23.3,0c1.6-2.2,4-3.3,6.4-3.3
			c2.2,0,4.4,0.9,6,2.8L502.3,325.9z"/>
		<path id="XMLID_1335_" class="st67" d="M75.9,261.7H58.7c-6,0-10.9-4.9-10.9-10.9v-49c0-6,4.9-10.9,10.9-10.9h17.1V261.7z"/>
		<path id="XMLID_1334_" class="st15" d="M437.4,190.9h16.2c5.9,0,10.6,4.8,10.6,10.6v49.5c0,5.9-4.8,10.6-10.6,10.6h-16.2V190.9z"
			/>
		<path id="XMLID_1464_" class="st42" d="M404.6,335.6v128.9c-4.3,3.1-8.7,6-13.1,8.8c-7.3,4.6-14.9,8.8-22.7,12.6
			c-10.1,5-20.5,9.3-31.3,12.9c-11,3.7-22.3,6.7-33.9,8.8c-15.4,2.9-31.3,4.4-47.5,4.4c-15.5,0-30.7-1.4-45.4-4
			c-11.6-2.1-22.9-4.9-34-8.5c-4.9-1.6-9.7-3.3-14.5-5.2c-2.8-1.1-5.5-2.2-8.2-3.4c-10.6-4.6-20.8-9.9-30.6-15.9
			c-0.2-0.1-0.5-0.3-0.7-0.4c0,0,0,0,0,0c-4.1-2.5-8.1-5.1-12-7.8c-0.6-0.4-1.2-0.8-1.7-1.2V335.6c0-16,7.3-30.3,18.7-39.8
			c3.4-2.8,7.2-5.3,11.3-7.2c0.7-0.3,1.5-0.7,2.2-1c3-1.2,6.2-2.2,9.5-2.8c3.2-0.6,6.5-1,9.9-1H353c5.5,0,10.9,0.9,15.9,2.5
			c2,0.6,4,1.4,5.8,2.3c3.5,1.6,6.8,3.6,9.8,5.9C396.7,304,404.6,318.9,404.6,335.6z"/>
		<path id="XMLID_1377_" class="st271" d="M213.8,283.9c-1.6,0-3.1,0.1-4.7,0.2c-1.1,0.1-2.1,0.2-3.1,0.4c-0.2,0-0.5,0.1-0.7,0.1
			c-4.6,0.8-9.1,2.2-13.2,4.1c-12.2,5.7-21.9,16-26.7,28.7c0,0,0,0,0,0.1c-2.1,5.7-3.3,11.8-3.3,18.2v158.7
			c-2.8-1.1-5.5-2.2-8.2-3.4c-10.6-4.6-20.8-9.9-30.6-15.9c-0.2-0.1-0.5-0.3-0.7-0.4c0,0,0,0,0,0c-4.1-2.5-8.1-5.1-12-7.8V335.6
			c0-15.7,7-29.8,18.1-39.3c3.6-3,7.5-5.6,11.8-7.6c0.1-0.1,0.3-0.1,0.4-0.2c3.2-1.4,6.6-2.6,10.2-3.4c3.6-0.8,7.3-1.2,11.1-1.2
			H213.8z"/>
		<path id="XMLID_1330_" class="st0" d="M445.9,203v46.7c0,21.5-17.5,39-39,39H106.6c-21.5,0-39-17.5-39-39V203
			c0-14.7,8.1-27.5,20.1-34.1c5.6-3.1,12.1-4.9,18.9-4.9h300.2c6.9,0,13.3,1.8,18.9,4.9C437.7,175.5,445.9,188.3,445.9,203z"/>
		<path id="XMLID_1329_" class="st60" d="M425.7,168.8v42c0,20.4-16.5,36.9-36.9,36.9H124.6c-20.4,0-36.9-16.5-36.9-36.9v-41.9
			c5.6-3.1,12.1-4.9,18.9-4.9h300.2C413.7,164,420.2,165.7,425.7,168.8z"/>
		<path id="XMLID_1328_" class="st60" d="M167.4,288.7h-60.8c-21.5,0-39-17.5-39-39V203c0-14.7,8.1-27.5,20.1-34.1
			c5.6-3.1,12.1-4.9,18.9-4.9h60.8c-6.9,0-13.3,1.8-18.9,4.9c-12,6.6-20.1,19.4-20.1,34.1v46.7C128.5,271.2,145.9,288.7,167.4,288.7
			z"/>
		<path id="XMLID_1327_" class="st272" d="M167.4,164c-6.9,0-13.3,1.8-18.9,4.9c-12,6.6-20.1,19.4-20.1,34.1v44.7h-3.9
			c-20.4,0-36.9-16.5-36.9-36.9v-41.9c5.6-3.1,12.1-4.9,18.9-4.9H167.4z"/>
		<path id="XMLID_1326_" class="st6" d="M131.4,296.7L131.4,296.7c-5.3,0-9.7-4.3-9.7-9.7V163.4c0-5.3,4.3-9.7,9.7-9.7h0
			c5.3,0,9.7,4.3,9.7,9.7V287C141.1,292.3,136.8,296.7,131.4,296.7z"/>
		<path id="XMLID_1325_" class="st6" d="M378.5,296.7L378.5,296.7c-5.3,0-9.7-4.3-9.7-9.7V163.4c0-5.3,4.3-9.7,9.7-9.7h0
			c5.3,0,9.7,4.3,9.7,9.7V287C388.1,292.3,383.8,296.7,378.5,296.7z"/>
		<path id="XMLID_1402_" class="st266" d="M391.5,364.3v109c-7.3,4.6-14.9,8.8-22.7,12.6c-10.1,5-20.5,9.3-31.3,12.9
			c-11,3.7-22.3,6.7-33.9,8.8c-15.4,2.9-31.3,4.4-47.5,4.4c-15.5,0-30.7-1.4-45.4-4c-11.6-2.1-22.9-4.9-34-8.5
			c-4.9-1.6-9.7-3.3-14.5-5.2c-2.8-1.1-5.5-2.2-8.2-3.4c-10.6-4.6-20.8-9.9-30.6-15.9c-0.2-0.1-0.5-0.3-0.7-0.4V364.3
			c0-24.6,18.8-44.8,42.8-47c1.4-0.1,2.9-0.2,4.4-0.2h174.5C370.4,317.1,391.5,338.2,391.5,364.3z"/>
		<path id="XMLID_1363_" class="st273" d="M201.1,317.1c-3.5,0-6.9,0.4-10.2,1.1c-11.9,2.6-22.1,9.7-28.8,19.5
			c-5.2,7.6-8.2,16.7-8.2,26.6v126.6c-10.6-4.6-20.8-9.9-30.6-15.9V364.3c0-24.3,18.4-44.4,42.1-46.9c1.7-0.2,3.4-0.3,5.1-0.3H201.1
			z"/>
		<path id="XMLID_1322_" class="st20" d="M264.9,336.8h-15.2c-12.2,0-22-9.9-22-22v-36.3c0-12.2,9.9-22,22-22h15.2
			c12.2,0,22,9.9,22,22v36.3C286.9,326.9,277,336.8,264.9,336.8z"/>
		<path id="XMLID_1320_" class="st21" d="M267.6,336.6c-1,0.2-2.1,0.2-3.2,0.2h-15.2c-12.2,0-22-9.9-22-22v-36.3
			c0-12.2,9.9-22,22-22h15.2c1.1,0,2.1,0.1,3.2,0.2c-10.6,1.5-18.8,10.7-18.8,21.8v36.3C248.8,325.9,257,335,267.6,336.6z"/>
		<path id="XMLID_1319_" class="st20" d="M372,156.8c-1.7-0.7-3.5-1.1-5.5-1.1H364V139c0-25.8-9.1-49.4-24.2-68
			c-4.3,27.4-40,48.7-83.4,48.7c-24.8,0-47-7-62.4-18c-4.3,11.6-6.6,24.2-6.6,37.3v48.6c0,14.3,2.8,28,7.9,40.5
			c13.7,33.6,43.8,58.7,80.4,65.3c9.7-1.7,18.9-4.8,27.4-8.9c9.2-4.4,17.7-10.2,25.3-17c16.2-14.6,28-34.1,33-56.2
			c0.8-3.5,1.4-7,1.8-10.6v0c0.1-0.4,0.1-0.7,0.1-1.1h3.2c0.6,0,1.1,0,1.7-0.1c7.4-0.8,13.2-7.1,13.2-14.7v-14.2
			C381.4,164.4,377.5,159,372,156.8z"/>
		<path id="XMLID_1318_" class="st21" d="M195.3,228.1c-5.1-12.5-7.9-26.2-7.9-40.5V139c0-13.1,2.3-25.7,6.6-37.3
			c-11.5-8.3-19.1-18.8-21-30.5c-15,18.5-24.1,42.1-24.1,67.8v16.8h0h-2c-2.3,0-4.5,0.6-6.5,1.5c-4.9,2.4-8.4,7.5-8.4,13.3v14.2
			c0,7.2,5.2,13.3,12.1,14.6c0.9,0.2,1.8,0.3,2.8,0.3h2.7c0.1,1.1,0.3,2.1,0.4,3.2c0,0.3,0.1,0.6,0.1,0.9c0.1,0.8,0.3,1.6,0.4,2.4
			c0,0.3,0.1,0.5,0.1,0.8c0.2,1,0.4,2,0.6,2.9c0.1,0.3,0.1,0.6,0.2,0.9c0.1,0.5,0.2,1.1,0.4,1.6c0,0.2,0.1,0.3,0.1,0.5
			c0.1,0.4,0.2,0.7,0.3,1.1c0.2,0.7,0.4,1.5,0.6,2.2c0.1,0.4,0.2,0.7,0.3,1.1c0.2,0.8,0.5,1.6,0.7,2.3c0.1,0.4,0.3,0.8,0.4,1.2
			c0.2,0.6,0.4,1.1,0.6,1.7c0.1,0.4,0.3,0.8,0.4,1.2c0.3,0.8,0.6,1.7,0.9,2.5c0.2,0.4,0.3,0.8,0.5,1.2c0.2,0.5,0.4,1.1,0.6,1.6
			c0.2,0.4,0.4,0.9,0.5,1.3c0.2,0.5,0.5,1.1,0.7,1.6c0.2,0.5,0.5,1.1,0.8,1.6c0.3,0.6,0.6,1.2,0.9,1.8c0.2,0.4,0.4,0.9,0.6,1.3
			c0.2,0.5,0.5,0.9,0.7,1.4c0.2,0.4,0.4,0.8,0.7,1.3c0.4,0.6,0.7,1.3,1.1,1.9c0.3,0.5,0.6,1,0.9,1.5c0.3,0.5,0.5,0.9,0.8,1.4
			c0.3,0.4,0.5,0.8,0.8,1.2c0.3,0.5,0.6,0.9,0.9,1.3c0.3,0.4,0.6,0.9,0.9,1.3c0.4,0.6,0.9,1.3,1.3,1.9c0.3,0.4,0.5,0.7,0.8,1.1
			c0.3,0.4,0.6,0.9,1,1.3c0.3,0.4,0.5,0.7,0.8,1.1c0.4,0.6,0.9,1.1,1.3,1.7c0.3,0.4,0.7,0.8,1,1.2c0.4,0.5,0.8,0.9,1.2,1.4
			c0.3,0.3,0.6,0.7,0.8,1c0.4,0.5,0.8,0.9,1.2,1.4c0.2,0.3,0.5,0.6,0.7,0.8c0.6,0.7,1.2,1.3,1.9,2c0.3,0.3,0.5,0.5,0.8,0.8
			c0.5,0.5,0.9,0.9,1.4,1.4c0.3,0.3,0.5,0.5,0.8,0.8c0.6,0.6,1.3,1.2,2,1.8c0.2,0.1,0.3,0.3,0.5,0.4c0.6,0.6,1.3,1.1,1.9,1.6
			c0.2,0.2,0.5,0.4,0.7,0.6c0.6,0.5,1.2,1,1.8,1.5c0.2,0.1,0.4,0.3,0.6,0.4c0.8,0.6,1.6,1.2,2.4,1.8c0.2,0.1,0.3,0.2,0.5,0.3
			c0.7,0.5,1.4,1,2.1,1.5c0.2,0.1,0.4,0.3,0.6,0.4c1.7,1.2,3.4,2.3,5.2,3.4c0.1,0.1,0.3,0.2,0.4,0.2c0.9,0.5,1.7,1,2.6,1.5
			c0,0,0.1,0,0.1,0.1c1.9,1.1,3.9,2.1,5.9,3.1c0,0,0.1,0,0.1,0.1c2.6,1.3,5.3,2.4,8,3.5c0,0,0.1,0,0.1,0.1c0.8,0.3,1.6,0.6,2.4,0.9
			c0.2,0.1,0.4,0.1,0.5,0.2c0.7,0.3,1.4,0.5,2.2,0.7c0.2,0.1,0.4,0.1,0.6,0.2c0.8,0.2,1.5,0.5,2.3,0.7c0.1,0,0.3,0.1,0.4,0.1
			c0.9,0.3,1.9,0.5,2.8,0.8c0,0,0.1,0,0.1,0c0.9,0.2,1.7,0.4,2.6,0.6c0.3,0.1,0.5,0.1,0.8,0.2c0.6,0.1,1.3,0.3,2,0.4
			c0.3,0.1,0.6,0.1,0.9,0.2c0.6,0.1,1.3,0.2,1.9,0.4c0.3,0.1,0.6,0.1,0.9,0.2c0.7,0.1,1.5,0.2,2.2,0.4c0.2,0,0.4,0.1,0.6,0.1
			c0.9,0.1,1.9,0.3,2.8,0.4c0.3,0,0.5,0.1,0.8,0.1c0.7,0.1,1.4,0.1,2,0.2c0.3,0,0.7,0.1,1,0.1c0.6,0,1.2,0.1,1.9,0.1
			c0.4,0,0.7,0,1.1,0.1c0.6,0,1.3,0.1,2,0.1c0.3,0,0.6,0,0.9,0c1,0,1.9,0,2.9,0c0,0,0,0,0,0c0,0,0,0,0,0c1.5,0,2.9,0,4.3-0.1
			c0.3,0,0.7,0,1,0c1.4-0.1,2.8-0.2,4.2-0.3c0.2,0,0.4,0,0.6-0.1c1.3-0.1,2.6-0.3,3.8-0.4c0.3,0,0.5-0.1,0.8-0.1
			c1.4-0.2,2.8-0.4,4.2-0.7c0.1,0,0.2,0,0.2,0C239.1,286.8,209,261.7,195.3,228.1z"/>
		<path id="XMLID_1314_" class="st6" d="M200.8,416.2h-0.5c-5.2,0-9.4-4.2-9.4-9.4v-87.6c0-5.2,4.2-9.4,9.4-9.4h0.5
			c5.2,0,9.4,4.2,9.4,9.4v87.6C210.1,412,205.9,416.2,200.8,416.2z"/>
		<path id="XMLID_1313_" class="st6" d="M313.8,416.2h-0.5c-5.2,0-9.4-4.2-9.4-9.4v-87.6c0-5.2,4.2-9.4,9.4-9.4h0.5
			c5.2,0,9.4,4.2,9.4,9.4v87.6C323.2,412,319,416.2,313.8,416.2z"/>
		<path id="XMLID_1366_" class="st6" d="M337.5,410.3v88.5c-11,3.7-22.3,6.7-33.9,8.8v-79.7c0-3.4-2.8-6.1-6.2-6.1h-80.5
			c-3.4,0-6.2,2.7-6.2,6.1V508c-11.6-2.1-22.9-4.9-34-8.5v-89.2c0-4.3,3.5-7.7,7.8-7.7h145.2C334,402.5,337.5,406,337.5,410.3z"/>
		<rect id="XMLID_1311_" x="235.9" y="395.1" class="st274" width="43.3" height="35"/>
		<path id="XMLID_1364_" class="st20" d="M176.6,418.5v80.9c-4.9-1.6-9.7-3.3-14.5-5.2c-2.8-1.1-5.5-2.2-8.2-3.4
			c-10.6-4.6-20.8-9.9-30.6-15.9c-0.2-0.1-0.5-0.3-0.7-0.4c0,0,0,0,0,0v-56H176.6z"/>
		<path id="XMLID_1361_" class="st21" d="M153.9,418.5v72.3c-10.6-4.6-20.8-9.9-30.6-15.9c-0.2-0.1-0.5-0.3-0.7-0.4c0,0,0,0,0,0v-56
			H153.9z"/>
		<path id="XMLID_1359_" class="st20" d="M391.5,418.5v54.7c-7.3,4.6-14.9,8.8-22.7,12.6c-10.1,5-20.5,9.3-31.3,12.9v-80.2H391.5z"
			/>
		<path id="XMLID_1357_" class="st21" d="M368.8,418.5v67.3c-10.1,5-20.5,9.3-31.3,12.9v-80.2H368.8z"/>
		<circle id="XMLID_1305_" class="st23" cx="203.2" cy="170.5" r="14.8"/>
		<circle id="XMLID_1304_" class="st16" cx="207" cy="165.7" r="6.5"/>
		<circle id="XMLID_1303_" class="st23" cx="306.6" cy="170.5" r="14.8"/>
		<circle id="XMLID_1302_" class="st16" cx="310.4" cy="165.7" r="6.5"/>
		<path id="XMLID_1301_" class="st21" d="M264.5,207h-17.6c-5.8,0-10.5-4.7-10.5-10.5v0c0-5.8,4.7-10.5,10.5-10.5h17.6
			c5.8,0,10.5,4.7,10.5,10.5v0C275,202.3,270.3,207,264.5,207z"/>
		<g id="XMLID_1298_">
			<path id="XMLID_1300_" class="st51" d="M366.5,199.7h-3.2c0,0.4-0.1,0.7-0.1,1.1v0c0,0,0,0.1,0,0.1c-4.4,4.9-22.7,23.8-46.3,24.4
				c-0.6-8.5-7.7-15.1-16.3-15.1H212c-9,0-16.4,7.3-16.4,16.4c-28.2,0.7-45.8-26.8-45.8-26.8l-0.1,0.1c0,0,0,0,0-0.1H147
				c-1,0-1.9-0.1-2.8-0.3c1.7,4.3,4,8.4,6.9,11.9c6.7,29.8,26.1,54.5,51.8,69.4c9.8,17.3,28.3,29,49.6,29h7.6
				c21.1,0,39.5-11.5,49.3-28.5c6.9-3.9,13.3-8.5,19.1-13.7c16.3-14.6,28-34.2,33-56.3c2.8-3.5,5.1-7.4,6.7-11.6
				C367.6,199.7,367.1,199.7,366.5,199.7z"/>
			<path id="XMLID_1299_" class="st51" d="M328.5,37.9c-14.6-15.9-41.4-26.6-72.1-26.6c-30.5,0-57.2,10.5-71.8,26.3
				c-27.3,11.7-46.2,39.2-45.4,70.8l1.3,48.9c2-1,4.2-1.5,6.5-1.5h2V139c0-25.7,9-49.3,24.1-67.8c0.1-0.2,0.3-0.3,0.4-0.4
				c-0.1,0.2-0.3,0.3-0.4,0.5c1.9,11.7,9.5,22.2,21,30.5c15.3,11.1,37.6,18,62.4,18c43.4,0,79.1-21.4,83.4-48.7
				c15.1,18.5,24.2,42.2,24.2,68v16.8h2.5c1.9,0,3.8,0.4,5.5,1.1l1.3-48.4C374.1,77,355.5,49.7,328.5,37.9z"/>
		</g>
		<g id="XMLID_1281_">
			<path id="XMLID_1283_" class="st275" d="M287,303.4c-7.8,4.1-16.7,6.3-26.1,6.3h-7.6c-21.3,0-39.9-11.7-49.6-29
				c-25.7-14.9-45.1-39.6-51.8-69.4c-2.9-3.6-5.2-7.6-6.9-11.9c0.9,0.2,1.8,0.3,2.8,0.3h2.7c0,0,0,0,0,0.1l0.1-0.1
				c0,0,17.6,27.6,45.8,26.8c0-8.4,6.3-15.3,14.4-16.3c0.3,0.4,0.6,0.7,0.8,1.1c6.7,29.8,26.1,54.5,51.8,69.4
				C268.9,290.4,277.1,298.3,287,303.4z"/>
			<path id="XMLID_1282_" class="st275" d="M287.1,14.8c-17.6,4.3-32.3,12.4-41.9,22.7c-26.3,11.3-44.9,37.3-45.4,67.5
				c-1.7-1-3.4-2.1-4.9-3.3c-11.5-8.3-19.1-18.8-21-30.5c-15,18.5-24.1,42.1-24.1,67.8v16.8h-2c-2.3,0-4.5,0.6-6.5,1.5l-1.3-48.9
				c-0.8-31.6,18.1-59.1,45.4-70.8c14.7-15.8,41.3-26.3,71.8-26.3C267.7,11.3,277.8,12.5,287.1,14.8z"/>
		</g>
		<path id="XMLID_1279_" class="st20" d="M269,260h-22c-12.6,0-22.9-10.2-22.9-22.9v-3.8c0-4.4,3.6-8,8-8h51.8c4.4,0,8,3.6,8,8v3.8
			C291.9,249.7,281.6,260,269,260z"/>
		<path id="XMLID_1277_" class="st71" d="M243,238.3c7.8,7.8,20.4,7.8,28.1,0"/>
		<path id="XMLID_1273_" class="st16" d="M213.2,311.6c0.5-3.1,5-3,5.4,0.1c2.4,17,10.9,39.3,39.4,39.3c0,0,26,1.8,34.6-36.1
			c0.7-3.1,5.3-2.7,5.4,0.5c1.5,26.4-1.8,70.2-34.9,97.4c-3,2.5-7.3,2.5-10.3,0C239,401.6,203.5,366.7,213.2,311.6z"/>
		<path id="XMLID_1169_" class="st276" d="M230.3,351.8c9.5,8,28.7,18.8,50.5-0.2c1.2-1,2.9,0.4,2.1,1.7c-8.7,15-30.5,42.7-54.6,0.2
			C227.5,352.2,229.1,350.8,230.3,351.8z"/>
		<path id="XMLID_1168_" class="st276" d="M236,374.1c7.5,6.2,22.9,14.6,40.3-0.1c0.9-0.8,2.3,0.3,1.7,1.3
			c-7,11.6-24.4,33.1-43.6,0.1C233.8,374.4,235.1,373.4,236,374.1z"/>
		<path id="XMLID_4078_" class="st277" d="M288.7,24c11.1,5.5,26.8,16.6,35.8,37.4c2,4.6-2.7,9.2-7.2,7.1l0,0
			c-2.9-1.4-5.9,1.6-4.6,4.5c1.9,4.3,4.2,9.8,6.1,15.3c2,5.6-5.3,9.9-9.2,5.3c-10.4-12.1-25.8-26.3-41.8-28.3
			c-1.8-0.2-2.8-2.2-1.8-3.8c2.3-3.7,6.9-9.3,14.1-11.2c6.5-1.7,10.6-8.2,9.3-14.7c-0.5-2.5-1.6-5.2-3.6-7.9
			C284.1,25.6,286.3,22.8,288.7,24z"/>
	</g>
</g>
</svg>
