<?xml version="1.0" encoding="utf-8"?>
<!-- Generator: Adobe Illustrator 22.0.1, SVG Export Plug-In . SVG Version: 6.00 Build 0)  -->
<svg version="1.1" xmlns="http://www.w3.org/2000/svg" xmlns:xlink="http://www.w3.org/1999/xlink" x="0px" y="0px"
	 viewBox="0 0 512 512" style="enable-background:new 0 0 512 512;" xml:space="preserve">
<style type="text/css">
	.st0{fill:#E9B12D;}
	.st1{fill:#A9E7D8;}
	.st2{fill:#76CFB1;}
	.st3{fill:#AE6B5D;}
	.st4{fill:#7770D3;}
	.st5{fill:#5BA0F5;}
	.st6{fill:#DA4545;}
	.st7{fill:#89CCFC;}
	.st8{fill:#CD462A;}
	.st9{fill:#514896;}
	.st10{fill:#5493A0;}
	.st11{fill:#CC6B5C;}
	.st12{fill:#62AA8D;}
	.st13{fill:#8ABAAB;}
	.st14{fill:#C3791F;}
	.st15{fill:#E39123;}
	.st16{fill:#FFFFFF;}
	.st17{fill:none;stroke:#FFFFFF;stroke-width:10;stroke-linecap:round;stroke-miterlimit:10;}
	.st18{fill:none;stroke:#5F55AB;stroke-width:10;stroke-linecap:round;stroke-miterlimit:10;}
	.st19{fill:#A9671C;}
	.st20{fill:#D5B3A7;}
	.st21{fill:#C09A8F;}
	.st22{fill:#487F87;}
	.st23{fill:#1B305C;}
	.st24{fill:#172945;}
	.st25{fill:none;}
	.st26{fill:#B62A2A;}
	.st27{fill:#325859;}
	.st28{fill:#3F6E71;}
	.st29{fill:#284646;}
	.st30{fill:#8F2727;}
	.st31{fill:#29477C;}
	.st32{fill:#5B9BEE;}
	.st33{fill:#487FDE;}
	.st34{fill:#CD9829;}
	.st35{fill:#9F2A2A;}
	.st36{fill:#4C3328;}
	.st37{fill:#E8B94A;}
	.st38{fill:#DDF8F1;}
	.st39{fill:#3E2A22;}
	.st40{fill:#D3A971;}
	.st41{fill:#C79A5B;}
	.st42{fill:#233E76;}
	.st43{fill:#21395F;}
	.st44{fill:#487D82;}
	.st45{fill:none;stroke:#C79A5B;stroke-width:10;stroke-linecap:round;stroke-miterlimit:10;}
	.st46{fill:#5E3E31;}
	.st47{fill:#AC3939;}
	.st48{fill:#CA9628;}
	.st49{fill:#AF8F88;}
	.st50{fill:#815048;}
	.st51{fill:#6F4232;}
	.st52{fill:#5F55AB;}
	.st53{fill:#192A48;}
	.st54{fill:#152336;}
	.st55{fill:#192B49;}
	.st56{fill:#264173;}
	.st57{fill:#B06F1E;}
	.st58{fill:#4E88C0;}
	.st59{fill:#83C3F1;}
	.st60{fill:#CF9929;}
	.st61{fill:none;stroke:#FFFFFF;stroke-width:10;stroke-linecap:round;stroke-linejoin:round;stroke-miterlimit:10;}
	.st62{fill:#EAC262;}
	.st63{fill:#D6D5D4;}
	.st64{fill:#6BBA9B;}
	.st65{fill:#63AA8F;}
	.st66{fill:none;stroke:#3E2A22;stroke-width:10;stroke-linecap:round;stroke-miterlimit:10;}
	.st67{fill:#CA7D1F;}
	.st68{fill:#213B64;}
	.st69{fill:#CDF8EC;}
	.st70{fill:#C59125;}
	.st71{fill:none;stroke:#C09A8F;stroke-width:10;stroke-linecap:round;stroke-miterlimit:10;}
	.st72{fill:#32579B;}
	.st73{fill:#172843;}
	.st74{fill:#D66767;}
	.st75{fill:#A74949;}
	.st76{fill:#EBC76F;}
	.st77{fill:#7A4940;}
	.st78{fill:#182A48;}
	.st79{fill:none;stroke:#A0794A;stroke-width:10;stroke-linecap:round;stroke-miterlimit:10;}
	.st80{fill:#C37A20;}
	.st81{fill:#D26D5C;}
	.st82{fill:#A45752;}
	.st83{fill:#284579;}
	.st84{fill:#88C7F4;}
	.st85{fill:#6EB6F0;}
	.st86{fill:#32221E;}
	.st87{fill:#E7A6A6;}
	.st88{fill:#C59191;}
	.st89{fill:#AA3B3B;}
	.st90{fill:#B83E3E;}
	.st91{fill:none;stroke:#5F55A9;stroke-width:10;stroke-linecap:round;stroke-miterlimit:10;}
	.st92{fill:#963838;}
	.st93{fill:#402B25;}
	.st94{fill:#6B6ABA;}
	.st95{fill:#BABABA;}
	.st96{fill:#D1D1D1;}
	.st97{fill:#264377;}
	.st98{fill:#A19BF5;}
	.st99{fill:#3C2A21;}
	.st100{fill:none;stroke:#4C3328;stroke-width:10;stroke-linecap:round;stroke-miterlimit:10;}
	.st101{fill:#C1781F;}
	.st102{fill:#E3A147;}
	.st103{fill:#F2D2A1;}
	.st104{fill:#4F372D;}
	.st105{fill:none;stroke:#DA4545;stroke-width:10;stroke-linecap:round;stroke-miterlimit:10;}
	.st106{fill:#AA3928;}
	.st107{fill:#8C2C22;}
	.st108{fill:#BF4336;}
	.st109{fill:#5797D4;}
	.st110{fill:#CFCFCF;}
	.st111{fill:#613A2E;}
	.st112{fill:none;stroke:#B18653;stroke-width:10;stroke-linecap:round;stroke-miterlimit:10;}
	.st113{fill:#B13B3B;}
	.st114{fill:#16263A;}
	.st115{fill:none;stroke:#16263A;stroke-width:10;stroke-miterlimit:10;}
	.st116{fill:#C87D20;}
	.st117{fill:#E4F0FD;}
	.st118{fill:#AA3737;}
	.st119{fill:#BF771F;}
	.st120{fill:none;stroke:#CD462A;stroke-width:10;stroke-linejoin:round;stroke-miterlimit:10;}
	.st121{fill:#5696D2;}
	.st122{fill:#C0771E;}
	.st123{fill:#9B5F1B;}
	.st124{fill:#A83A29;}
	.st125{fill:#E7A74F;}
	.st126{fill:#C9924C;}
	.st127{fill:#C58E48;}
	.st128{fill:#BE8844;}
	.st129{fill:#916939;}
	.st130{fill:#264275;}
	.st131{fill:#253F65;}
	.st132{fill:#182A45;}
	.st133{fill:#162336;}
	.st134{fill:#93C7B7;}
	.st135{fill:#E6A4A4;}
	.st136{fill:#B06B1D;}
	.st137{fill:#484185;}
	.st138{fill:#DB6E6E;}
	.st139{fill:#6BBA9A;}
	.st140{fill:#CACCCC;}
	.st141{fill:#D4D4D4;}
	.st142{fill:#A98881;}
	.st143{fill:#213A62;}
	.st144{fill:#A2837D;}
	.st145{fill:#6FB8F4;}
	.st146{fill:#9B9E9E;}
	.st147{fill:#B2B3B3;}
	.st148{fill:#20385D;}
	.st149{fill:#335AA8;}
	.st150{fill:#BCE7FD;}
	.st151{fill:#3B2921;}
	.st152{fill:#AD3C3C;}
	.st153{fill:#9D3838;}
	.st154{fill:#603F33;}
	.st155{fill:#4D868B;}
	.st156{fill:#A2DDFD;}
	.st157{fill:#ECB6B6;}
	.st158{fill:#E8A346;}
	.st159{fill:#514C94;}
	.st160{fill:#D2F1E8;}
	.st161{fill:#BDD6CE;}
	.st162{fill:#B93B29;}
	.st163{fill:#E0AD70;}
	.st164{fill:#C57C21;}
	.st165{fill:#EDA34A;}
	.st166{fill:#2F538F;}
	.st167{fill:#2B4B78;}
	.st168{fill:#65AF91;}
	.st169{fill:#A7CEFC;}
	.st170{fill:#98BDE2;}
	.st171{fill:#CFE5F7;}
	.st172{fill:#5492CD;}
	.st173{fill:#97CCBC;}
	.st174{fill:#5491CA;}
	.st175{fill:#EDC563;}
	.st176{fill:#423C79;}
	.st177{fill:#D3B1A5;}
	.st178{fill:#BE988D;}
	.st179{fill:#A7E5D6;}
	.st180{fill:#F2FFF9;}
	.st181{fill:#D64545;}
	.st182{fill:#A73B3B;}
	.st183{fill:#15233A;}
	.st184{fill:none;stroke:#BE988D;stroke-width:10;stroke-linecap:round;stroke-miterlimit:10;}
	.st185{fill:#AF3A29;}
	.st186{fill:#FAF9FF;}
	.st187{fill:#CACACC;}
	.st188{fill:#372720;}
	.st189{fill:#3F2C26;}
	.st190{fill:#2D201C;}
	.st191{fill:#3D6D6F;}
	.st192{fill:#5B54A8;}
	.st193{fill:#325799;}
	.st194{fill:#E8C26E;}
	.st195{fill:#254784;}
	.st196{fill:#5696D4;}
	.st197{fill:#4F8AB6;}
	.st198{fill:#5FA4AC;}
	.st199{fill:#AA3524;}
	.st200{fill:#D15F4D;}
	.st201{fill:#2B294C;}
	.st202{fill:#A43A2A;}
	.st203{fill:#E7AE2D;}
	.st204{fill:#CD9729;}
	.st205{fill:none;stroke:#AA8253;stroke-width:10;stroke-linecap:round;stroke-miterlimit:10;}
	.st206{fill:none;stroke:#E18F23;stroke-width:10;stroke-linecap:round;stroke-linejoin:round;stroke-miterlimit:10;}
	.st207{fill:#CF9828;}
	.st208{fill:#B88926;}
	.st209{fill:#A17623;}
	.st210{fill:#96CCBC;}
	.st211{fill:#CF9A2A;}
	.st212{fill:#C57B20;}
	.st213{fill:#C7F1E6;}
	.st214{fill:#DC6363;}
	.st215{fill:#E89F9F;}
	.st216{fill:#C88C8C;}
	.st217{fill:#C16E6E;}
	.st218{fill:#A46060;}
	.st219{fill:#AA3626;}
	.st220{fill:#87EDC4;}
	.st221{fill:#D86552;}
	.st222{fill:#BC7620;}
	.st223{fill:#BA741E;}
	.st224{fill:#8F8CE3;}
	.st225{fill:#3A2820;}
	.st226{fill:#AC7060;}
	.st227{fill:#915F55;}
	.st228{fill:#49332A;}
	.st229{fill:#2D1F1B;}
	.st230{fill:#69B7BE;}
	.st231{fill:#D6D6D6;}
	.st232{fill:#B8B8B8;}
	.st233{fill:#CACACA;}
	.st234{fill:#467B80;}
	.st235{fill:#C2EDE2;}
	.st236{fill:#A9574F;}
	.st237{fill:#5595D2;}
	.st238{fill:#955949;}
	.st239{fill:#7E4B42;}
	.st240{fill:#89CCF1;}
	.st241{fill:#DD584A;}
	.st242{fill:#C18F26;}
	.st243{fill:#B33C2A;}
	.st244{fill:#D1A771;}
	.st245{fill:#B42A2A;}
	.st246{fill:#325797;}
	.st247{fill:#9F3529;}
	.st248{fill:#EDCE80;}
	.st249{fill:#F0DBAC;}
	.st250{fill:#CFB478;}
	.st251{fill:#D4C29B;}
	.st252{fill:#993939;}
	.st253{fill:#D1AFA3;}
	.st254{fill:#BC968B;}
	.st255{fill:none;stroke:#BC968B;stroke-width:10;stroke-linecap:round;stroke-miterlimit:10;}
	.st256{fill:#814C3C;}
	.st257{fill:#C0EBE0;}
	.st258{fill:#A5E3D4;}
	.st259{fill:#15243C;}
	.st260{fill:#443E79;}
	.st261{fill:#F0FFF7;}
	.st262{fill:#9A764B;}
	.st263{fill:#826443;}
	.st264{fill:#D9AA74;}
	.st265{fill:#5DA186;}
	.st266{fill:#68B596;}
	.st267{fill:#E5C6BE;}
	.st268{fill:#D3B6B1;}
	.st269{fill:none;stroke:#BAA09C;stroke-width:10;stroke-linecap:round;stroke-miterlimit:10;}
	.st270{fill:#F4D78F;}
	.st271{fill:#20385F;}
	.st272{fill:#BA8727;}
	.st273{fill:#5A9C82;}
	.st274{fill:none;stroke:#E39123;stroke-width:10;stroke-linecap:round;stroke-linejoin:round;stroke-miterlimit:10;}
	.st275{fill:#60392D;}
	.st276{fill:#CCCCCC;}
	.st277{fill:#844F3E;}
	.st278{fill:#F3FFFB;}
	.st279{fill:#365E60;}
	.st280{fill:#D84545;}
	.st281{fill:#A83B3B;}
	.st282{fill:#253F70;}
	.st283{fill:#EAADAD;}
	.st284{fill:#443E7C;}
	.st285{fill:#3D6B9F;}
	.st286{fill:#4274BC;}
	.st287{fill:#AF3827;}
	.st288{fill:#E59D9D;}
	.st289{fill:#C48989;}
	.st290{fill:none;stroke:#9B621A;stroke-width:10;stroke-linecap:round;stroke-linejoin:round;stroke-miterlimit:10;}
	.st291{fill:#213A5E;}
	.st292{fill:#2D507A;}
	.st293{fill:#528EC8;}
	.st294{fill:#EFD696;}
	.st295{fill:#D1BA87;}
	.st296{fill:#FDFCFC;}
	.st297{fill:#86CBFC;}
	.st298{fill:#7AB7DA;}
	.st299{fill:#192C4C;}
	.st300{fill:#BCBCBC;}
	.st301{fill:#A13838;}
	.st302{fill:#75BDF6;}
	.st303{fill:#D0B1AA;}
	.st304{fill:#142233;}
	.st305{fill:#E6C4BB;}
	.st306{fill:#BDBDBD;}
	.st307{fill:#E8A192;}
	.st308{fill:#A43939;}
	.st309{fill:#162640;}
	.st310{fill:#27457C;}
	.st311{fill:#EFBE5E;}
	.st312{fill:#87EDC5;}
	.st313{fill:#A03838;}
	.st314{fill:#833232;}
	.st315{fill:#47417F;}
	.st316{fill:none;stroke:#915F55;stroke-width:10;stroke-linecap:round;stroke-miterlimit:10;}
	.st317{fill:#BC8B25;}
	.st318{fill:#473129;}
	.st319{fill:#67B394;}
	.st320{fill:#599A80;}
	.st321{fill:#B13D3D;}
</style>
<g id="BULINE">
	<circle id="XMLID_2632_" class="st8" cx="256" cy="256" r="256"/>
	<g>
	</g>
</g>
<g id="Icons">
	<g id="XMLID_1522_">
		<path id="XMLID_2972_" class="st247" d="M102.5,460.9c3.7,2.8,7.4,5.4,11.2,8c14.7,9.8,30.4,18.2,47,24.8
			c18.6,7.5,38.2,12.8,58.6,15.7c12,1.7,24.2,2.6,36.6,2.6c29.6,0,58-5,84.4-14.3c6.1-2.1,12.1-4.5,18-7.1
			c14-6.1,27.3-13.4,39.9-21.8c3.8-2.6,7.6-5.2,11.2-8c41.5-31.2,73.2-74.6,89.8-125c-4.7-5.3-11.5-8.5-18.8-8.5
			c-1.3,0-2.6,0.1-3.9,0.3c-15.2,2.4-28.9-9.4-28.9-24.8v-39.2c0-15.1-13.3-26.8-28.3-24.9l-4.5,0.6c-2.7,0.3-5.2,0.3-7.7-0.2
			c-7.7-1.4-14.1-6.2-17.6-12.8c0,0,0,0,0,0c0,0,0,0,0,0c-1.2-2.2-2.1-4.7-2.6-7.2v0c-0.7-3.6-0.6-7.4,0.5-11.2l2.2-8.1
			c4.3-15.9-7.7-31.7-24.2-31.7h-24.3c-7.6,0-14.8-3.5-19.5-9.4c-0.1-0.1-0.2-0.3-0.3-0.4c-0.1-0.2-0.3-0.3-0.4-0.5l-13.5-18.6
			l-5.4-7.4c-4.2-5.8-10.2-9.1-16.5-10c-10.3-1.5-21.3,3.3-26.4,14l-7.3,15.3l0,0L248,159l-1.3,2.7l-5.1,10.6
			c-1.6,3.4-3.9,6.2-6.6,8.4c0,0,0,0,0,0c-7.4,6.1-17.9,7.7-27.1,3.2l-6.6-3.2l0,0l-0.8-0.4c-1.4-0.7-2.8-1.2-4.2-1.6
			c-6.4-1.8-13.1-1-18.7,2c0,0,0,0,0,0c-5.1,2.8-9.4,7.3-11.6,13.3l-16.3,43.5c-3.3,8.7-10.9,14.6-19.6,16h0h0
			c-3.3,0.5-6.8,0.4-10.2-0.5l-9.2-2.4c-1-0.2-1.9-0.4-2.9-0.6c-12.7-1.8-24.9,6.4-27.9,19.3L77,282.1
			c-3.2,14.1-17.7,22.6-31.5,18.5l-11.8-3.5c-10.2-3-21.1,0.7-27.3,9.3l-1,1.4C18,370,53.4,424.1,102.5,460.9L102.5,460.9z"/>
		<path id="XMLID_3877_" class="st23" d="M424.5,360c-0.7-2.3-1.4-4.6-2-7c-10.5-37-17-75-19.3-113.3c-0.7-10.6-1-21.2-1-31.9v-29.9
			c0-9.1-1.1-18-3.1-26.5c-1.5-6.5-3.6-12.7-6.1-18.7c-3.6-8.5-8.2-16.4-13.6-23.7c-2.3-3.1-4.8-6.1-7.4-9c-2.5-2.8-5.2-5.4-8-7.9
			c-0.3-0.3-0.5-0.5-0.8-0.7c-6.6-5.9-13.9-11-21.7-15.2c-7.5-4.1-15.4-7.3-23.8-9.7c-5.8-1.6-11.7-2.8-17.8-3.5
			c-0.6-0.1-1.2-0.1-1.8-0.2c-0.4,0-0.9-0.1-1.3-0.1c-0.1,0-0.1,0-0.2,0c-0.7-0.1-1.3-0.1-2-0.2c-0.6,0-1.2-0.1-1.9-0.1
			c-0.4,0-0.8,0-1.2-0.1c-0.9,0-1.8-0.1-2.7-0.1c-0.8,0-1.6,0-2.4,0c0,0,0,0,0,0h-55.5c-10,0-19.7,1.3-29,3.7
			c-18,4.7-34.4,13.5-47.9,25.6c-1.7,1.5-3.4,3.1-5,4.7c-2,2-4,4.1-5.8,6.3c-0.3,0.4-0.6,0.7-0.9,1.1c-0.3,0.4-0.6,0.7-0.9,1.1
			c-0.4,0.5-0.8,0.9-1.1,1.4c-0.7,0.9-1.5,1.9-2.2,2.9c-0.4,0.5-0.7,1-1.1,1.5c-0.5,0.7-0.9,1.3-1.4,2c-1.7,2.5-3.4,5.1-4.9,7.7
			c-1,1.8-2,3.5-2.9,5.4c-0.8,1.5-1.5,3-2.2,4.6c-0.1,0.2-0.2,0.3-0.2,0.5c-0.4,1-0.9,2-1.3,3c-0.2,0.6-0.5,1.1-0.7,1.7
			c-0.6,1.4-1.1,2.9-1.6,4.3c-1.5,4.3-2.8,8.8-3.8,13.3c-0.4,1.6-0.7,3.2-1,4.8c-0.3,1.7-0.6,3.3-0.8,5c-0.7,5-1,10.2-1,15.4v11.4
			c0,8.5-0.2,17-0.6,25.5c0,0.2,0,0.3,0,0.5c-0.1,3-0.3,6-0.5,8.9c-0.2,3-0.4,5.9-0.6,8.9c-0.2,3-0.5,5.9-0.8,8.9
			c-0.3,2.7-0.5,5.5-0.9,8.2c0,0.2,0,0.5-0.1,0.7c-0.2,1.7-0.4,3.4-0.6,5.1c-0.2,1.7-0.4,3.4-0.7,5.1c-0.3,2.6-0.7,5.1-1.1,7.6
			c-0.4,2.5-0.8,5.1-1.2,7.6c-0.8,5.1-1.7,10.1-2.7,15.2c-0.2,1.3-0.5,2.5-0.7,3.8c-0.5,2.5-1,5-1.6,7.5c-0.3,1.3-0.5,2.5-0.8,3.8
			c-0.7,3.3-1.5,6.7-2.3,10c-0.8,3.3-1.7,6.6-2.6,10c-2.1,7.9-4.4,15.8-6.9,23.6c-0.1,0.4-0.2,0.7-0.3,1.1
			c-3.7,11.6-7.1,23.7-9.6,35.8c-0.3,1.5-0.6,3-0.9,4.6c-0.4,2.3-0.8,4.5-1.2,6.8c-0.4,2.3-0.7,4.5-1,6.8c-0.2,1.5-0.4,3-0.5,4.5
			c-0.2,2.2-0.4,4.5-0.6,6.7c-0.2,2.2-0.3,4.4-0.4,6.6c0,1.3,0.3,2.4,1,3.3c0.2,0.3,0.4,0.5,0.7,0.8c1.9,1.8,5.1,2,7.2-0.1
			c0.2-0.1,0.3-0.3,0.4-0.5l9.2-11.4c0.1-0.1,0.2-0.2,0.2-0.3c1.3-1.2,3.2-1,4.3,0.1c0.2,0.2,0.4,0.5,0.5,0.8
			c0.1,0.3,0.2,0.7,0.2,1.1c0.3,5.6,1,13.8,2.9,23.1c0.3,1.3,0.6,2.7,0.9,4c0.6,2.5,1.2,5.1,2,7.7c0.4,1.3,0.8,2.5,1.2,3.8
			c3.6,2.7,7.2,5.3,10.9,7.7c14.3,9.6,29.6,17.7,45.8,24.2c18.1,7.3,37.2,12.5,57.1,15.3c11.6,1.7,23.5,2.5,35.7,2.5
			c28.8,0,56.5-4.9,82.2-13.9c5.9-2.1,11.8-4.4,17.5-6.9c13.6-5.9,26.6-13.1,38.8-21.3c3.7-2.5,7.4-5.1,10.9-7.7
			c5-15.5,6.5-30,6.9-38.7c0.1-2.7,3.6-3.9,5.3-1.7l9.2,11.5c3.2,3.9,9.5,1.5,9.3-3.5C435.3,402.6,430.6,380.6,424.5,360z"/>
		<path id="XMLID_2685_" class="st177" d="M267.3,404.8H248c-11.5,0-20.9-9.3-20.9-20.9v-28.3c0-11.5,9.3-20.9,20.9-20.9h19.3
			c11.5,0,20.9,9.3,20.9,20.9v28.3C288.1,395.4,278.8,404.8,267.3,404.8z"/>
		<path id="XMLID_2683_" class="st178" d="M268.3,404.6c-1.1,0.1-2.2,0.2-3.3,0.2h-15.6c-12.5,0-22.7-8.6-22.7-19.2v-31.6
			c0-10.6,10.2-19.2,22.7-19.2H265c1.1,0,2.2,0.1,3.3,0.2c-11,1.3-19.4,9.3-19.4,19v31.6C248.9,395.2,257.3,403.2,268.3,404.6z"/>
		<path id="XMLID_2783_" class="st25" d="M102.5,460.9c3.7,2.8,7.4,5.4,11.2,8c14.7,9.8,30.4,18.2,47,24.8
			c18.6,7.5,38.2,12.8,58.6,15.7c-0.7-0.5-1.4-1.1-2.1-1.7c-2.9-2.4-5.5-4.9-7.9-7.6c-4.6-5.1-8.6-10.6-11.8-16.3
			c-5.8-10-9.6-20.5-12.2-30.4c-0.9-3.6-1.7-7.1-2.3-10.4c-0.5-2.4-0.9-4.8-1.2-7.1c-0.3-2.4-0.6-4.6-0.8-6.8v0
			c-0.3-3.1-0.5-5.8-0.6-8.1c-0.1-2.8-3.7-4-5.4-1.8l-1.8,2.2l-2.1,2.6l-1.2,1.5l-3.1,3.9l-1.2,1.6c-1.3,1.6-3.1,2.2-4.7,2
			c-2.6-0.3-4.9-2.4-4.8-5.5c0.1-3.1,0.3-6.2,0.6-9.3c0.2-2.4,0.5-4.8,0.8-7.2c0.2-1.4,0.4-2.8,0.6-4.2c0.7-5.2,1.7-10.4,2.7-15.6
			c0,0,0,0,0,0c0.3-1.6,0.7-3.2,1-4.7v0c0,0,0,0,0,0c2.5-11.1,5.5-22,8.9-32.5c2.8-8.7,5.4-17.5,7.7-26.4l-0.4-0.4
			c-0.1-0.1-0.2-0.2-0.4-0.4h0c-0.2-0.2-0.4-0.3-0.5-0.5c-0.2-0.2-0.3-0.4-0.5-0.5c-0.3-0.3-0.5-0.5-0.8-0.8
			c-0.4-0.4-0.7-0.7-1.1-1.1c-0.2-0.3-0.5-0.5-0.7-0.8c-0.4-0.4-0.7-0.8-1.1-1.2c-0.1-0.1-0.2-0.2-0.3-0.4c-0.1-0.1-0.2-0.3-0.4-0.4
			c-0.4-0.4-0.7-0.8-1.1-1.2c-0.2-0.2-0.4-0.5-0.6-0.7c-0.2-0.2-0.4-0.4-0.5-0.6c-0.2-0.2-0.4-0.4-0.6-0.6c-0.2-0.2-0.4-0.4-0.5-0.7
			c-0.4-0.5-0.8-0.9-1.1-1.4c-0.1-0.2-0.3-0.4-0.4-0.5c-0.4-0.5-0.8-1-1.2-1.6c-0.1-0.1-0.1-0.2-0.2-0.3c-2.9-4-5.6-8.1-8-12.5
			c0-0.1-0.1-0.1-0.1-0.2c-0.4-0.7-0.7-1.3-1.1-2c0-0.1-0.1-0.2-0.2-0.3c-0.1-0.2-0.2-0.3-0.2-0.5c-0.1-0.2-0.2-0.3-0.2-0.5
			c-0.2-0.3-0.3-0.7-0.5-1c0-0.1-0.1-0.1-0.1-0.2c0,0-0.1-0.1-0.1-0.2c-0.3-0.7-0.6-1.3-0.9-2c-0.1-0.1-0.1-0.2-0.2-0.4
			c-0.3-0.7-0.6-1.3-0.9-2c-0.1-0.1-0.1-0.2-0.1-0.3c-0.1-0.2-0.2-0.5-0.3-0.7c0-0.1-0.1-0.2-0.1-0.3c0-0.1-0.1-0.2-0.1-0.3
			c0-0.1-0.1-0.2-0.1-0.3c-0.1-0.1-0.1-0.3-0.2-0.4c0-0.1-0.1-0.2-0.1-0.3c-0.3-0.7-0.6-1.4-0.9-2.2c0,0,0-0.1-0.1-0.2
			c-0.1-0.3-0.2-0.6-0.3-0.9c-0.1-0.3-0.2-0.5-0.3-0.8c0-0.1-0.1-0.1-0.1-0.2c0-0.1-0.1-0.1-0.1-0.2c-0.1-0.3-0.2-0.6-0.3-0.9
			c0-0.1-0.1-0.2-0.1-0.4c-0.2-0.6-0.4-1.2-0.6-1.8c-0.2-0.5-0.3-1-0.5-1.5c0,0,0,0,0,0c-0.1-0.3-0.2-0.5-0.3-0.8
			c-0.1-0.3-0.2-0.6-0.3-0.9c0-0.1,0-0.1-0.1-0.2c-0.1-0.4-0.2-0.7-0.3-1.1c0-0.1-0.1-0.2-0.1-0.4c0,0,0,0,0,0
			c0-0.1-0.1-0.1-0.1-0.2c-0.1-0.2-0.1-0.4-0.2-0.6c0-0.1-0.1-0.3-0.1-0.4c0-0.1-0.1-0.3-0.1-0.4c-0.1-0.2-0.1-0.5-0.2-0.8
			c-0.1-0.5-0.3-1-0.4-1.5c0-0.1-0.1-0.3-0.1-0.4c-0.2-0.9-0.4-1.8-0.6-2.7c-0.2-0.8-0.3-1.6-0.5-2.4c-0.1-0.3-0.1-0.7-0.2-1
			c0,0,0,0,0-0.1c-0.2-1.2-0.4-2.4-0.6-3.6c-0.2-1.2-0.3-2.4-0.5-3.6v0h-2.9c-0.5,0-1.1,0-1.6-0.1c-0.2,0-0.4,0-0.6-0.1
			c-0.1,0-0.1,0-0.1,0c-0.2,0-0.3,0-0.4-0.1c-0.1,0-0.2,0-0.3-0.1c-0.2,0-0.4-0.1-0.6-0.1c-0.2-0.1-0.5-0.1-0.7-0.2
			c-0.1,0-0.1,0-0.2-0.1c-0.2,0-0.4-0.1-0.5-0.2c0,0,0,0,0,0c0,0,0,0-0.1,0c-0.1,0-0.1,0-0.1,0c0,0,0,0,0,0c-0.1,0-0.2-0.1-0.2-0.1
			c0,0-0.1,0-0.1,0c-0.2-0.1-0.5-0.2-0.7-0.3c-0.1-0.1-0.2-0.1-0.3-0.2c0,0,0,0,0,0c-0.1-0.1-0.3-0.1-0.4-0.2
			c-0.1,0-0.1-0.1-0.2-0.1c0,0,0,0-0.1-0.1h0c-0.1,0-0.1,0-0.1-0.1c-0.2-0.1-0.4-0.2-0.5-0.3c-0.4-0.2-0.8-0.5-1.2-0.8
			c0,0,0,0-0.1,0c0,0,0,0,0,0c-0.2-0.1-0.4-0.3-0.6-0.4c-0.1-0.1-0.2-0.2-0.3-0.3c-0.1,0-0.1-0.1-0.2-0.1c0,0-0.1,0-0.1-0.1
			c0,0,0,0,0,0c-0.2-0.2-0.4-0.3-0.5-0.5v0c-0.2-0.1-0.3-0.3-0.4-0.5c0,0-0.1,0-0.1-0.1c0,0,0,0,0,0c-0.1-0.1-0.2-0.3-0.4-0.4
			c0,0,0,0-0.1-0.1c0-0.1-0.1-0.1-0.1-0.1c0,0,0,0,0,0c0,0,0,0-0.1-0.1c0,0,0-0.1-0.1-0.1c0,0,0,0,0,0c0,0,0,0,0,0c0,0,0,0,0-0.1
			c0-0.1-0.1-0.1-0.1-0.1c0,0-0.1-0.1-0.1-0.1v0c-0.1-0.2-0.3-0.4-0.4-0.6c0,0,0,0,0,0h0c0,0,0,0,0,0s0,0,0,0
			c-0.1-0.2-0.3-0.4-0.4-0.6c0,0,0,0,0,0c-0.3-0.4-0.5-0.8-0.7-1.3c0-0.1-0.1-0.2-0.2-0.4c0-0.1-0.1-0.2-0.1-0.3c0,0,0-0.1-0.1-0.1
			c-0.1-0.2-0.2-0.5-0.3-0.7c-0.1-0.2-0.2-0.5-0.2-0.7c-0.1-0.1-0.1-0.3-0.1-0.4c0,0,0,0,0-0.1c0-0.1,0-0.1,0-0.1
			c0-0.1-0.1-0.2-0.1-0.4c0-0.2-0.1-0.4-0.1-0.5c0,0,0,0,0,0c0-0.2-0.1-0.4-0.1-0.6c0-0.1,0-0.1,0-0.2c0-0.1,0-0.3,0-0.4
			c0-0.2-0.1-0.3-0.1-0.5c0-0.3,0-0.5,0-0.8c0-0.1,0-0.1,0-0.2c0,0,0-0.1,0-0.1c0-0.1,0-0.3,0-0.4v-15c0-0.1,0-0.2,0-0.3
			c0-0.1,0-0.2,0-0.3c0-0.1,0-0.1,0-0.2c0,0,0-0.1,0-0.1c0,0,0,0,0-0.1c0-0.1,0-0.1,0-0.2c0-0.1,0-0.1,0-0.2c0-0.2,0-0.5,0.1-0.7
			c0,0,0-0.1,0-0.1c0,0,0,0,0,0c0,0,0,0,0,0h0c0,0,0,0,0,0c0-0.1,0-0.2,0-0.3c0-0.1,0-0.1,0-0.2c0,0,0-0.1,0-0.1c0,0,0,0,0-0.1
			c0-0.2,0.1-0.3,0.1-0.5c0-0.1,0-0.1,0-0.2c0-0.1,0-0.2,0.1-0.3c0,0,0-0.1,0-0.1c0,0,0-0.1,0-0.1c0,0,0-0.1,0-0.1c0,0,0,0,0-0.1
			c0-0.1,0-0.1,0-0.1c0,0,0,0,0,0c0.1-0.2,0.1-0.4,0.2-0.6c0-0.1,0-0.1,0.1-0.2c0.1-0.3,0.2-0.5,0.3-0.8c0.1-0.1,0.1-0.3,0.2-0.4
			c0-0.1,0.1-0.2,0.1-0.3c0-0.1,0.1-0.2,0.1-0.3c0,0,0,0,0,0h0c0-0.1,0.1-0.2,0.2-0.3c0.1-0.2,0.2-0.4,0.3-0.6c0,0,0,0,0,0
			c0-0.1,0.1-0.1,0.1-0.2c0,0,0,0,0,0h0c0.1-0.1,0.2-0.3,0.2-0.4c0,0,0.1-0.1,0.1-0.1c0.2-0.2,0.3-0.5,0.5-0.7
			c0.1-0.1,0.2-0.3,0.3-0.4c0.1-0.1,0.2-0.2,0.3-0.4c0,0,0.1-0.1,0.1-0.1c0.1-0.1,0.2-0.2,0.2-0.3c0,0,0,0,0.1-0.1c0,0,0,0,0,0h0
			c0,0,0,0,0,0c0.1-0.1,0.1-0.1,0.2-0.2c0,0,0.1-0.1,0.1-0.1c0,0,0.1-0.1,0.1-0.1c0.2-0.2,0.4-0.4,0.7-0.6c0.1-0.1,0.3-0.2,0.4-0.4
			l0,0c0.1-0.1,0.2-0.2,0.4-0.3c0.1,0,0.1-0.1,0.1-0.1c0.1-0.1,0.2-0.1,0.2-0.2c0,0,0,0,0,0v0 M132.4,215.1
			C132.4,215.1,132.4,215.1,132.4,215.1"/>
		<path id="XMLID_3374_" class="st0" d="M398.3,436.3v32.6c-12.5,8.4-25.9,15.7-39.8,21.8c-5.9,2.6-11.9,4.9-18,7.1
			C314,507,285.6,512,256,512c-12.4,0-24.7-0.9-36.6-2.6c-20.4-2.9-40.1-8.3-58.6-15.7c-16.6-6.7-32.3-15-47-24.8v-32.6
			c0-14.6,6.3-27.8,16.4-36.9c0.6-0.5,1.2-1.1,1.8-1.6c0.6-0.5,1.2-1,1.9-1.5c0.6-0.5,1.3-0.9,2-1.4c0.1,0,0.1-0.1,0.2-0.1
			c0.6-0.4,1.2-0.8,1.8-1.2c0.7-0.4,1.4-0.8,2.1-1.2c0.2-0.1,0.4-0.2,0.6-0.3c1.1-0.6,2.2-1.1,3.4-1.6c0.4-0.2,0.8-0.3,1.1-0.5
			c0.6-0.2,1.2-0.5,1.8-0.7c0.6-0.2,1.2-0.4,1.9-0.6c0.5-0.2,1-0.3,1.5-0.4c0.3-0.1,0.6-0.2,0.9-0.2c0.3-0.1,0.7-0.2,1-0.3
			c0,0,0,0,0.1,0c0.2-0.1,0.5-0.1,0.7-0.2c0.1,0,0.2,0,0.3-0.1c0.2,0,0.4-0.1,0.6-0.1c0.7-0.1,1.4-0.3,2.1-0.4
			c0.5-0.1,1-0.2,1.5-0.2c0.1,0,0.3,0,0.4,0c0.6-0.1,1.1-0.1,1.7-0.2c0.3,0,0.7-0.1,1-0.1c0.4,0,0.8-0.1,1.2-0.1c0.7,0,1.3,0,2,0
			h184.7c0.9,0,1.7,0,2.6,0.1c0.3,0,0.5,0,0.8,0h0c0,0,0.1,0,0.1,0c0.2,0,0.5,0,0.7,0c0.4,0,0.8,0.1,1.1,0.1c0.3,0,0.6,0.1,0.9,0.1
			c0.5,0.1,1.1,0.1,1.6,0.2c0.3,0.1,0.7,0.1,1,0.2c0.4,0.1,0.8,0.1,1.2,0.2c0.3,0.1,0.7,0.1,1,0.2c0.1,0,0.2,0,0.2,0
			c0.4,0.1,0.8,0.2,1.2,0.3c0.2,0,0.4,0.1,0.6,0.2c0.4,0.1,0.8,0.2,1.1,0.3c0.2,0.1,0.4,0.1,0.5,0.2c0.8,0.3,1.7,0.6,2.5,0.9
			c0.3,0.1,0.7,0.2,1,0.4c0.2,0.1,0.4,0.2,0.7,0.3c0.6,0.2,1.1,0.5,1.7,0.7c0.3,0.1,0.6,0.2,0.9,0.4c0.1,0,0.2,0.1,0.3,0.2
			c0.6,0.3,1.1,0.6,1.6,0.8c0.1,0,0.1,0.1,0.2,0.1c0,0,0,0,0.1,0c0.1,0,0.2,0.1,0.3,0.2c0.1,0.1,0.2,0.1,0.3,0.2h0
			c0.1,0.1,0.3,0.2,0.5,0.2c0.8,0.4,1.5,0.9,2.2,1.4c0.7,0.4,1.3,0.9,2,1.3c0.1,0.1,0.3,0.2,0.4,0.3c0.5,0.4,0.9,0.7,1.4,1.1
			c0,0,0,0,0,0c0.3,0.2,0.6,0.5,0.9,0.7c0.3,0.3,0.7,0.6,1,0.9c0.2,0.2,0.4,0.3,0.6,0.5c0.4,0.4,0.7,0.7,1.1,1c0,0,0,0,0,0
			c0.2,0.2,0.4,0.4,0.6,0.6c0.5,0.5,1,1.1,1.6,1.6c0.5,0.5,1,1.1,1.5,1.7c0.5,0.6,1,1.2,1.4,1.7c0.5,0.6,0.9,1.2,1.3,1.8
			c0.4,0.6,0.9,1.2,1.3,1.9c0.4,0.6,0.8,1.3,1.2,1.9c0.2,0.4,0.4,0.8,0.7,1.2c0.1,0.3,0.3,0.5,0.4,0.8c0,0.1,0.1,0.2,0.1,0.3
			c0.2,0.4,0.5,0.9,0.7,1.4c0,0,0,0.1,0,0.1c0,0.1,0.1,0.2,0.1,0.3c0,0.1,0.1,0.2,0.1,0.3c0.2,0.5,0.5,1,0.7,1.6
			c0.1,0.2,0.2,0.5,0.3,0.7c0.2,0.4,0.3,0.8,0.4,1.2c0.2,0.6,0.4,1.3,0.7,1.9c0,0.1,0.1,0.2,0.1,0.4c0.1,0.2,0.1,0.4,0.2,0.6
			c0.1,0.3,0.2,0.6,0.2,0.8c0.1,0.3,0.2,0.6,0.3,0.9c0.1,0.4,0.2,0.8,0.3,1.2c0.1,0.3,0.1,0.7,0.2,1c0.2,0.8,0.3,1.6,0.4,2.3
			c0,0.3,0.1,0.5,0.1,0.8c0,0.2,0.1,0.5,0.1,0.8c0.1,0.7,0.2,1.3,0.2,2C398.2,433.4,398.3,434.8,398.3,436.3z"/>
		<path id="XMLID_2975_" class="st15" d="M210.7,386.4c-0.4,0-0.9,0-1.3,0c-8.8,0.2-17,2.7-24,6.9c-5.5,3.2-10.4,7.5-14.2,12.6
			c-1.3,1.7-2.5,3.5-3.6,5.4c-0.2,0.4-0.4,0.7-0.6,1.1v0c-1.2,2.2-2.2,4.5-3.1,6.8c-0.7,1.8-1.2,3.7-1.7,5.6
			c-0.7,2.7-1.1,5.5-1.3,8.4c-0.1,1-0.1,2.1-0.1,3.1v57.4c-16.6-6.7-32.3-15-47-24.8v-32.6c0-14.6,6.3-27.8,16.4-36.9
			c0.6-0.5,1.2-1.1,1.8-1.6c0.6-0.5,1.2-1,1.9-1.5c0.6-0.5,1.3-0.9,2-1.4c0.1,0,0.1-0.1,0.2-0.1c0.6-0.4,1.2-0.8,1.8-1.2
			c0.7-0.4,1.4-0.8,2.1-1.2c0.2-0.1,0.4-0.2,0.6-0.3c1.1-0.6,2.2-1.1,3.4-1.6c0.4-0.2,0.8-0.3,1.1-0.5c0.6-0.2,1.2-0.5,1.8-0.7
			c0.6-0.2,1.2-0.4,1.9-0.6c0.5-0.2,1-0.3,1.5-0.4c0.3-0.1,0.6-0.2,0.9-0.2c0.3-0.1,0.7-0.2,1-0.3c0,0,0,0,0.1,0
			c0.2-0.1,0.5-0.1,0.7-0.2c0.1,0,0.2,0,0.3-0.1c0.2,0,0.4-0.1,0.6-0.1c0.7-0.1,1.4-0.3,2.1-0.4c0.5-0.1,1-0.1,1.5-0.2
			c0.1,0,0.3,0,0.4,0c0.6-0.1,1.1-0.1,1.7-0.2c0.3,0,0.7,0,1-0.1c0.4,0,0.8-0.1,1.2-0.1c0.7,0,1.3,0,2,0H210.7z"/>
		<path id="XMLID_2686_" class="st177" d="M296.7,441.4h-81.3c-30.4,0-55-24.6-55-55v0h191.3v0C351.8,416.7,327.1,441.4,296.7,441.4
			z"/>
		<path id="XMLID_2682_" class="st177" d="M146.8,196.1v17.3h-2.1c-1.4,0-2.7,0.2-4,0.5c-6.5,1.7-11.3,7.7-11.3,14.8v14.6
			c0,8.5,6.9,15.3,15.3,15.3h2.8c0,0,0,0,0,0c1.1,9.5,3.3,18.5,6.6,27.1c0,0.1,0,0.1,0.1,0.2c0.3,0.7,0.6,1.4,0.8,2.1
			c0,0.1,0.1,0.2,0.1,0.3c0.3,0.7,0.6,1.4,0.9,2c0,0.1,0.1,0.2,0.1,0.3c0.3,0.7,0.6,1.3,0.9,2c0.1,0.1,0.1,0.2,0.2,0.4
			c0.3,0.6,0.6,1.3,0.9,1.9c0.1,0.1,0.1,0.2,0.2,0.3c0.3,0.6,0.6,1.3,1,1.9c0,0.1,0.1,0.2,0.2,0.3c0.3,0.7,0.7,1.3,1.1,2
			c0,0.1,0.1,0.1,0.1,0.2c2.3,4.2,4.9,8.3,7.8,12.2c0.1,0.1,0.1,0.2,0.2,0.3c0.4,0.5,0.8,1,1.2,1.5c0.1,0.2,0.3,0.3,0.4,0.5
			c0.4,0.5,0.7,0.9,1.1,1.4c0.2,0.2,0.3,0.4,0.5,0.6c0.3,0.4,0.7,0.8,1.1,1.3c0.2,0.2,0.4,0.5,0.6,0.7c0.3,0.4,0.7,0.8,1,1.2
			c0.2,0.2,0.4,0.5,0.7,0.7c0.3,0.4,0.7,0.8,1,1.1c0.2,0.3,0.5,0.5,0.7,0.8c0.3,0.4,0.7,0.7,1,1.1c0.3,0.3,0.5,0.5,0.8,0.8
			c0.3,0.3,0.7,0.7,1,1c0.3,0.3,0.5,0.5,0.8,0.8c0.3,0.3,0.7,0.7,1,1c0.3,0.3,0.6,0.5,0.9,0.8c0.3,0.3,0.7,0.6,1,0.9
			c0.3,0.3,0.6,0.6,0.9,0.8c0.3,0.3,0.6,0.6,1,0.9c0.4,0.3,0.7,0.6,1.1,0.9c0.3,0.2,0.6,0.5,0.9,0.7c0.5,0.5,1.1,0.9,1.7,1.3
			c0.2,0.2,0.4,0.3,0.6,0.5c0.6,0.5,1.2,0.9,1.8,1.3c0.2,0.2,0.5,0.3,0.7,0.5c0.5,0.3,0.9,0.7,1.4,1c0.3,0.2,0.5,0.4,0.8,0.5
			c0.4,0.3,0.9,0.6,1.3,0.9c0.3,0.2,0.6,0.4,0.8,0.6c0.4,0.3,0.9,0.6,1.3,0.9c0.3,0.2,0.6,0.4,0.8,0.5c0.5,0.3,0.9,0.6,1.4,0.8
			c0.3,0.2,0.6,0.3,0.9,0.5c0.5,0.3,0.9,0.6,1.4,0.8c0.3,0.2,0.6,0.3,0.9,0.5c0.5,0.3,1,0.5,1.4,0.8c0.3,0.2,0.6,0.3,0.8,0.5
			c0.5,0.3,1,0.5,1.5,0.8c0.3,0.1,0.5,0.3,0.8,0.4c0.5,0.3,1,0.5,1.6,0.8c0.3,0.1,0.5,0.3,0.8,0.4c0.6,0.3,1.1,0.5,1.7,0.8
			c0.2,0.1,0.5,0.2,0.7,0.3c0.6,0.3,1.2,0.5,1.8,0.8c0.2,0.1,0.4,0.2,0.6,0.2c0.7,0.3,1.4,0.6,2.1,0.9c0.1,0,0.2,0.1,0.3,0.1
			c2.5,1,5,1.9,7.6,2.7c0.1,0,0.1,0,0.2,0.1c0.8,0.2,1.6,0.5,2.3,0.7c0.2,0,0.3,0.1,0.5,0.1c0.7,0.2,1.4,0.4,2.1,0.6
			c0.2,0.1,0.4,0.1,0.6,0.2c0.6,0.2,1.3,0.3,2,0.5c0.2,0.1,0.5,0.1,0.7,0.2c0.6,0.1,1.3,0.3,1.9,0.4c0.3,0.1,0.5,0.1,0.8,0.2
			c0.6,0.1,1.3,0.2,1.9,0.4c0.3,0,0.5,0.1,0.8,0.1c0.6,0.1,1.3,0.2,1.9,0.3c0.3,0,0.5,0.1,0.8,0.1c0.6,0.1,1.3,0.2,1.9,0.3
			c0.3,0,0.5,0.1,0.8,0.1c0.7,0.1,1.3,0.2,2,0.2c0.2,0,0.5,0.1,0.7,0.1c0.7,0.1,1.4,0.1,2.1,0.2c0.2,0,0.4,0,0.6,0
			c0.8,0.1,1.6,0.1,2.4,0.2c0.1,0,0.2,0,0.4,0c1.9,0.1,3.7,0.1,5.6,0.1h0c0.1,0,0.2,0,0.2,0c1.5,0,2.9,0,4.4-0.1c0.2,0,0.4,0,0.6,0
			c1.5-0.1,2.9-0.2,4.4-0.3c0.2,0,0.5,0,0.7-0.1c1.4-0.1,2.9-0.3,4.3-0.5c0.2,0,0.5-0.1,0.7-0.1c1.4-0.2,2.8-0.4,4.2-0.7
			c0.1,0,0.2,0,0.3-0.1c47.7-8.6,84.8-47.8,90.3-96.5h3.2c8.5,0,15.3-6.9,15.3-15.3v-14.6c0-7.7-5.7-14.1-13.1-15.1
			c-0.7-0.1-1.4-0.2-2.2-0.2h-2.5v-17.3c0-4.5-0.3-8.9-0.8-13.3H147.6C147.1,187.2,146.8,191.6,146.8,196.1z"/>
		<path id="XMLID_2673_" class="st178" d="M298.3,349.1c-6.7,2.7-13.8,4.7-21,6c-0.1,0-0.2,0-0.3,0.1c-1.4,0.3-2.8,0.5-4.2,0.7
			c-0.2,0-0.5,0.1-0.7,0.1c-1.4,0.2-2.8,0.4-4.3,0.5c-0.2,0-0.4,0-0.7,0.1c-1.5,0.1-2.9,0.2-4.4,0.3c-0.2,0-0.4,0-0.6,0
			c-1.5,0.1-2.9,0.1-4.4,0.1h-0.2c-1.9,0-3.8,0-5.6-0.1c-0.1,0-0.2,0-0.4,0c-0.8,0-1.6-0.1-2.4-0.2c-0.2,0-0.4,0-0.6,0
			c-0.7-0.1-1.4-0.1-2.1-0.2c-0.2,0-0.5,0-0.7-0.1c-0.7-0.1-1.3-0.1-2-0.2c-0.3,0-0.5-0.1-0.8-0.1c-0.6-0.1-1.3-0.2-1.9-0.3
			c-0.3,0-0.5-0.1-0.8-0.1c-0.6-0.1-1.3-0.2-1.9-0.3c-0.3,0-0.5-0.1-0.8-0.1c-0.6-0.1-1.3-0.2-1.9-0.4c-0.3,0-0.5-0.1-0.8-0.2
			c-0.6-0.1-1.3-0.3-1.9-0.4c-0.2-0.1-0.5-0.1-0.7-0.2c-0.7-0.2-1.3-0.3-1.9-0.5c-0.2-0.1-0.4-0.1-0.7-0.2c-0.7-0.2-1.4-0.4-2.1-0.6
			c-0.2,0-0.3-0.1-0.5-0.1c-0.8-0.2-1.6-0.5-2.3-0.7c-0.1,0-0.1,0-0.2-0.1c-2.6-0.8-5.1-1.7-7.6-2.7c-0.1,0-0.2-0.1-0.3-0.1
			c-0.7-0.3-1.4-0.6-2.1-0.9c-0.2-0.1-0.4-0.2-0.6-0.2c-0.6-0.3-1.2-0.5-1.8-0.8c-0.2-0.1-0.5-0.2-0.7-0.3c-0.6-0.3-1.1-0.5-1.7-0.8
			c-0.3-0.1-0.5-0.3-0.8-0.4c-0.5-0.3-1-0.5-1.6-0.8c-0.3-0.1-0.5-0.3-0.8-0.4c-0.5-0.3-1-0.5-1.5-0.8c-0.3-0.1-0.6-0.3-0.8-0.5
			c-0.5-0.3-1-0.5-1.4-0.8c-0.3-0.2-0.6-0.3-0.9-0.5c-0.5-0.3-0.9-0.5-1.4-0.8c-0.3-0.2-0.6-0.3-0.9-0.5c-0.5-0.3-0.9-0.6-1.4-0.8
			c-0.3-0.2-0.6-0.4-0.8-0.5c-0.5-0.3-0.9-0.6-1.3-0.9c-0.3-0.2-0.6-0.4-0.8-0.6c-0.4-0.3-0.9-0.6-1.3-0.9c-0.3-0.2-0.5-0.4-0.8-0.5
			c-0.5-0.3-0.9-0.7-1.4-1c-0.2-0.2-0.5-0.3-0.7-0.5c-0.6-0.4-1.2-0.9-1.8-1.3c-0.2-0.2-0.4-0.3-0.6-0.5c-0.6-0.4-1.1-0.9-1.7-1.3
			c-0.3-0.2-0.6-0.5-0.9-0.7c-0.4-0.3-0.7-0.6-1.1-0.9c-0.3-0.3-0.7-0.6-1-0.9c-0.3-0.3-0.6-0.5-0.9-0.8c-0.3-0.3-0.7-0.6-1-0.9
			c-0.3-0.3-0.6-0.5-0.9-0.8c-0.4-0.3-0.7-0.7-1-1c-0.3-0.3-0.5-0.5-0.8-0.8c-0.4-0.3-0.7-0.7-1-1c-0.3-0.3-0.5-0.5-0.8-0.8
			c-0.3-0.4-0.7-0.7-1-1.1c-0.2-0.3-0.5-0.5-0.7-0.8c-0.4-0.4-0.7-0.7-1-1.1c-0.2-0.3-0.4-0.5-0.7-0.7c-0.4-0.4-0.7-0.8-1-1.2
			c-0.2-0.2-0.4-0.5-0.6-0.7c-0.4-0.4-0.7-0.8-1.1-1.3c-0.2-0.2-0.3-0.4-0.5-0.6c-0.4-0.5-0.7-0.9-1.1-1.4c-0.1-0.2-0.3-0.4-0.4-0.5
			c-0.4-0.5-0.8-1-1.2-1.5c-0.1-0.1-0.1-0.2-0.2-0.3c-2.9-3.9-5.5-7.9-7.8-12.2c0-0.1-0.1-0.1-0.1-0.2c-0.4-0.7-0.7-1.3-1.1-2
			c0-0.1-0.1-0.2-0.2-0.3c-0.3-0.6-0.7-1.3-1-1.9c-0.1-0.1-0.1-0.2-0.2-0.3c-0.3-0.6-0.6-1.3-0.9-1.9c0-0.1-0.1-0.2-0.2-0.4
			c-0.3-0.7-0.6-1.3-0.9-2c0-0.1-0.1-0.2-0.1-0.3c-0.3-0.7-0.6-1.4-0.9-2c0-0.1-0.1-0.2-0.1-0.3c-0.3-0.7-0.6-1.4-0.8-2.1
			c0,0,0-0.1-0.1-0.2c-3.3-8.6-5.5-17.7-6.6-27.1v0h-2.8c-8.5,0-15.3-6.9-15.3-15.3v-14.7c0-7.1,4.8-13,11.4-14.8
			c1.3-0.3,2.6-0.5,4-0.5h2.1v-17.3c0-4.5,0.3-8.9,0.8-13.3H194c-3.8,12.5-5.9,26-5.9,39.9C188.1,290.7,237,346.2,298.3,349.1z"/>
		<path id="XMLID_2670_" class="st178" d="M263.6,263.6h-14.1c-4.6,0-8.4-3.8-8.4-8.4v0c0-4.6,3.8-8.4,8.4-8.4h14.1
			c4.6,0,8.4,3.8,8.4,8.4v0C272,259.8,268.3,263.6,263.6,263.6z"/>
		<path id="XMLID_2667_" class="st36" d="M287.1,281.8c1.6,0,2.9,1.3,2.9,2.9l0,0c0,3-0.4,5.8-1.1,8.6c-1.7,6.3-5.3,11.9-10.1,16.1
			c-5.7,5-13.3,8-21.5,8c-8.2,0-15.7-3-21.5-8c-4.8-4.2-8.4-9.8-10.1-16.1c-0.7-2.7-1.1-5.6-1.1-8.6l0,0c0-1.6,1.3-2.9,2.9-2.9
			H287.1z"/>
		<path id="XMLID_2666_" class="st245" d="M278.7,309.3c-5.7,5-13.3,8-21.5,8c-8.2,0-15.7-3-21.5-8c5.7-5,13.3-8,21.5-8
			C265.5,301.3,273,304.3,278.7,309.3z"/>
		<path id="XMLID_2665_" class="st16" d="M287.1,281.8c1.6,0,2.9,1.3,2.9,2.9l0,0c0,3-0.4,5.8-1.1,8.6h-63.2
			c-0.7-2.7-1.1-5.6-1.1-8.6l0,0c0-1.6,1.3-2.9,2.9-2.9H287.1z"/>
		<path id="XMLID_2911_" class="st15" d="M358.4,490.7c-5.9,2.6-11.9,4.9-18,7.1v-7c0-5,4-9,9-9c2.5,0,4.7,1,6.4,2.6
			C357.4,486,358.4,488.2,358.4,490.7z"/>
		<path id="XMLID_2659_" class="st71" d="M321.3,229.1c-5.5-5.5-14.5-5.5-20,0"/>
		<path id="XMLID_2658_" class="st71" d="M215.6,229.1c-5.5-5.5-14.5-5.5-20,0"/>
		<g id="XMLID_2637_">
			<path id="XMLID_2656_" class="st248" d="M408,149.9c-14.5,2.6-28.6,4.8-42.4,6.6c-16.1,2.1-31.6,3.8-46.6,5
				c-12.9,1-25.4,1.8-37.5,2.2c-14.5,0.5-28.3,0.7-41.5,0.5c-11.8-0.1-23-0.5-33.6-1.1c-13.5-0.7-26-1.8-37.5-3
				c-11.2-1.2-21.4-2.5-30.5-3.9c-13-2-23.7-4-31.7-5.7c-0.7-0.1-1.3-0.3-1.9-0.6c-6.5-2.6-8.4-10.3-3-14.9L232.3,21.9
				c8.3-7.2,19.7-10.2,30.6-9c7.7,0.9,15,3.9,20.9,9l80.6,69.9l17.5,15.1l20.4,17.7l11.1,9.6C419.4,139.5,416.3,148.3,408,149.9z"/>
			<path id="XMLID_2644_" class="st249" d="M288.6,26L138.5,156.2c-13-2-23.7-4-31.7-5.7c-0.7-0.1-1.3-0.3-1.9-0.6l158-137
				c7.7,0.9,15,3.9,20.9,9L288.6,26z"/>
			<path id="XMLID_2643_" class="st249" d="M326.5,58.9L206.4,163.1c-13.5-0.7-26-1.8-37.5-3L306.1,41.2L326.5,58.9z"/>
			<path id="XMLID_2642_" class="st250" d="M269.2,163.1c4.1,0.2,8.4,0.4,12.7,0.6c-0.1,0-0.2,0-0.4,0c-14.5,0.5-28.3,0.7-41.5,0.5
				c-11.8-0.1-23-0.5-33.6-1.1c-13.5-0.7-26-1.8-37.5-3c-11.2-1.2-21.4-2.5-30.5-3.9c-13-2-23.7-4-31.7-5.7
				c-0.7-0.1-1.3-0.3-1.9-0.6c-6.5-2.6-8.4-10.3-3-14.9L232.3,21.9c8.3-7.2,19.7-10.2,30.6-9c7.7,0.9,15,3.9,20.9,9l5.6,4.9
				L164.6,135c-5.4,4.7-3.5,12.3,3,14.9c0.6,0.2,1.2,0.4,1.9,0.6c2.6,0.6,5.4,1.1,8.5,1.7c6.6,1.3,14.4,2.7,23.2,4
				c3.6,0.5,7.3,1.1,11.2,1.6c6,0.8,12.4,1.6,19.3,2.3C243.2,161.3,255.7,162.3,269.2,163.1z"/>
			<path id="XMLID_2640_" class="st251" d="M288.6,26L138.5,156.2c-13-2-23.7-4-31.7-5.7c-0.7-0.1-1.3-0.3-1.9-0.6l158-137
				c7.7,0.9,15,3.9,20.9,9L288.6,26z"/>
			<path id="XMLID_2638_" class="st251" d="M201.3,156.2c3.6,0.5,7.3,1.1,11.2,1.6l-6,5.2c-13.5-0.7-26-1.8-37.5-3l9.1-7.9
				C184.6,153.5,192.4,154.9,201.3,156.2z"/>
			<path id="XMLID_3050_" class="st249" d="M364.4,91.8l-82.9,71.9c-14.5,0.5-28.3,0.7-41.5,0.5L344,74.1L364.4,91.8z"/>
			<path id="XMLID_3051_" class="st249" d="M402.3,124.7l-36.7,31.8c-16.1,2.1-31.6,3.8-46.6,5l62.9-54.5L402.3,124.7z"/>
		</g>
	</g>
</g>
</svg>
