<?xml version="1.0" encoding="utf-8"?>
<!-- Generator: Adobe Illustrator 22.0.1, SVG Export Plug-In . SVG Version: 6.00 Build 0)  -->
<svg version="1.1" xmlns="http://www.w3.org/2000/svg" xmlns:xlink="http://www.w3.org/1999/xlink" x="0px" y="0px"
	 viewBox="0 0 512 512" style="enable-background:new 0 0 512 512;" xml:space="preserve">
<style type="text/css">
	.st0{fill:#E9B12D;}
	.st1{fill:#A9E7D8;}
	.st2{fill:#76CFB1;}
	.st3{fill:#AE6B5D;}
	.st4{fill:#7770D3;}
	.st5{fill:#5BA0F5;}
	.st6{fill:#DA4545;}
	.st7{fill:#89CCFC;}
	.st8{fill:#CD462A;}
	.st9{fill:#514896;}
	.st10{fill:#5493A0;}
	.st11{fill:#CC6B5C;}
	.st12{fill:#62AA8D;}
	.st13{fill:#8ABAAB;}
	.st14{fill:#C3791F;}
	.st15{fill:#E39123;}
	.st16{fill:#FFFFFF;}
	.st17{fill:none;stroke:#FFFFFF;stroke-width:10;stroke-linecap:round;stroke-miterlimit:10;}
	.st18{fill:none;stroke:#5F55AB;stroke-width:10;stroke-linecap:round;stroke-miterlimit:10;}
	.st19{fill:#A9671C;}
	.st20{fill:#D5B3A7;}
	.st21{fill:#C09A8F;}
	.st22{fill:#487F87;}
	.st23{fill:#1B305C;}
	.st24{fill:#172945;}
	.st25{fill:none;}
	.st26{fill:#B62A2A;}
	.st27{fill:#325859;}
	.st28{fill:#3F6E71;}
	.st29{fill:#284646;}
	.st30{fill:#8F2727;}
	.st31{fill:#29477C;}
	.st32{fill:#5B9BEE;}
	.st33{fill:#487FDE;}
	.st34{fill:#CD9829;}
	.st35{fill:#9F2A2A;}
	.st36{fill:#4C3328;}
	.st37{fill:#E8B94A;}
	.st38{fill:#DDF8F1;}
	.st39{fill:#3E2A22;}
	.st40{fill:#D3A971;}
	.st41{fill:#C79A5B;}
	.st42{fill:#233E76;}
	.st43{fill:#21395F;}
	.st44{fill:#487D82;}
	.st45{fill:none;stroke:#C79A5B;stroke-width:10;stroke-linecap:round;stroke-miterlimit:10;}
	.st46{fill:#5E3E31;}
	.st47{fill:#AC3939;}
	.st48{fill:#CA9628;}
	.st49{fill:#AF8F88;}
	.st50{fill:#815048;}
	.st51{fill:#6F4232;}
	.st52{fill:#5F55AB;}
	.st53{fill:#192A48;}
	.st54{fill:#152336;}
	.st55{fill:#192B49;}
	.st56{fill:#264173;}
	.st57{fill:#B06F1E;}
	.st58{fill:#4E88C0;}
	.st59{fill:#83C3F1;}
	.st60{fill:#CF9929;}
	.st61{fill:none;stroke:#FFFFFF;stroke-width:10;stroke-linecap:round;stroke-linejoin:round;stroke-miterlimit:10;}
	.st62{fill:#EAC262;}
	.st63{fill:#D6D5D4;}
	.st64{fill:#6BBA9B;}
	.st65{fill:#63AA8F;}
	.st66{fill:none;stroke:#3E2A22;stroke-width:10;stroke-linecap:round;stroke-miterlimit:10;}
	.st67{fill:#CA7D1F;}
	.st68{fill:#213B64;}
	.st69{fill:#CDF8EC;}
	.st70{fill:#C59125;}
	.st71{fill:none;stroke:#C09A8F;stroke-width:10;stroke-linecap:round;stroke-miterlimit:10;}
	.st72{fill:#32579B;}
	.st73{fill:#172843;}
	.st74{fill:#D66767;}
	.st75{fill:#A74949;}
	.st76{fill:#EBC76F;}
	.st77{fill:#7A4940;}
	.st78{fill:#182A48;}
	.st79{fill:none;stroke:#A0794A;stroke-width:10;stroke-linecap:round;stroke-miterlimit:10;}
	.st80{fill:#C37A20;}
	.st81{fill:#D26D5C;}
	.st82{fill:#A45752;}
	.st83{fill:#284579;}
	.st84{fill:#88C7F4;}
	.st85{fill:#6EB6F0;}
	.st86{fill:#32221E;}
	.st87{fill:#E7A6A6;}
	.st88{fill:#C59191;}
	.st89{fill:#AA3B3B;}
	.st90{fill:#B83E3E;}
	.st91{fill:none;stroke:#5F55A9;stroke-width:10;stroke-linecap:round;stroke-miterlimit:10;}
	.st92{fill:#963838;}
	.st93{fill:#402B25;}
	.st94{fill:#6B6ABA;}
	.st95{fill:#BABABA;}
	.st96{fill:#D1D1D1;}
	.st97{fill:#264377;}
	.st98{fill:#A19BF5;}
	.st99{fill:#3C2A21;}
	.st100{fill:none;stroke:#4C3328;stroke-width:10;stroke-linecap:round;stroke-miterlimit:10;}
	.st101{fill:#C1781F;}
	.st102{fill:#E3A147;}
	.st103{fill:#F2D2A1;}
	.st104{fill:#4F372D;}
	.st105{fill:none;stroke:#DA4545;stroke-width:10;stroke-linecap:round;stroke-miterlimit:10;}
	.st106{fill:#AA3928;}
	.st107{fill:#8C2C22;}
	.st108{fill:#BF4336;}
	.st109{fill:#5797D4;}
	.st110{fill:#CFCFCF;}
	.st111{fill:#613A2E;}
	.st112{fill:none;stroke:#B18653;stroke-width:10;stroke-linecap:round;stroke-miterlimit:10;}
	.st113{fill:#B13B3B;}
	.st114{fill:#16263A;}
	.st115{fill:none;stroke:#16263A;stroke-width:10;stroke-miterlimit:10;}
	.st116{fill:#C87D20;}
	.st117{fill:#E4F0FD;}
	.st118{fill:#AA3737;}
	.st119{fill:#BF771F;}
	.st120{fill:none;stroke:#CD462A;stroke-width:10;stroke-linejoin:round;stroke-miterlimit:10;}
	.st121{fill:#5696D2;}
	.st122{fill:#C0771E;}
	.st123{fill:#9B5F1B;}
	.st124{fill:#A83A29;}
	.st125{fill:#E7A74F;}
	.st126{fill:#C9924C;}
	.st127{fill:#C58E48;}
	.st128{fill:#BE8844;}
	.st129{fill:#916939;}
	.st130{fill:#264275;}
	.st131{fill:#253F65;}
	.st132{fill:#182A45;}
	.st133{fill:#162336;}
	.st134{fill:#93C7B7;}
	.st135{fill:#E6A4A4;}
	.st136{fill:#B06B1D;}
	.st137{fill:#484185;}
	.st138{fill:#DB6E6E;}
	.st139{fill:#6BBA9A;}
	.st140{fill:#CACCCC;}
	.st141{fill:#D4D4D4;}
	.st142{fill:#A98881;}
	.st143{fill:#213A62;}
	.st144{fill:#A2837D;}
	.st145{fill:#6FB8F4;}
	.st146{fill:#9B9E9E;}
	.st147{fill:#B2B3B3;}
	.st148{fill:#20385D;}
	.st149{fill:#335AA8;}
	.st150{fill:#BCE7FD;}
	.st151{fill:#3B2921;}
	.st152{fill:#AD3C3C;}
	.st153{fill:#9D3838;}
	.st154{fill:#603F33;}
	.st155{fill:#4D868B;}
	.st156{fill:#A2DDFD;}
	.st157{fill:#ECB6B6;}
	.st158{fill:#E8A346;}
	.st159{fill:#514C94;}
	.st160{fill:#D2F1E8;}
	.st161{fill:#BDD6CE;}
	.st162{fill:#B93B29;}
	.st163{fill:#E0AD70;}
	.st164{fill:#C57C21;}
	.st165{fill:#EDA34A;}
	.st166{fill:#2F538F;}
	.st167{fill:#2B4B78;}
	.st168{fill:#65AF91;}
	.st169{fill:#A7CEFC;}
	.st170{fill:#98BDE2;}
	.st171{fill:#CFE5F7;}
	.st172{fill:#5492CD;}
	.st173{fill:#97CCBC;}
	.st174{fill:#5491CA;}
	.st175{fill:#EDC563;}
	.st176{fill:#423C79;}
	.st177{fill:#D3B1A5;}
	.st178{fill:#BE988D;}
	.st179{fill:#A7E5D6;}
	.st180{fill:#F2FFF9;}
	.st181{fill:#D64545;}
	.st182{fill:#A73B3B;}
	.st183{fill:#15233A;}
	.st184{fill:none;stroke:#BE988D;stroke-width:10;stroke-linecap:round;stroke-miterlimit:10;}
	.st185{fill:#AF3A29;}
	.st186{fill:#FAF9FF;}
	.st187{fill:#CACACC;}
	.st188{fill:#372720;}
	.st189{fill:#3F2C26;}
	.st190{fill:#2D201C;}
	.st191{fill:#3D6D6F;}
	.st192{fill:#5B54A8;}
	.st193{fill:#325799;}
	.st194{fill:#E8C26E;}
	.st195{fill:#254784;}
	.st196{fill:#5696D4;}
	.st197{fill:#4F8AB6;}
	.st198{fill:#5FA4AC;}
	.st199{fill:#AA3524;}
	.st200{fill:#D15F4D;}
	.st201{fill:#2B294C;}
	.st202{fill:#A43A2A;}
	.st203{fill:#E7AE2D;}
	.st204{fill:#CD9729;}
	.st205{fill:none;stroke:#AA8253;stroke-width:10;stroke-linecap:round;stroke-miterlimit:10;}
	.st206{fill:none;stroke:#E18F23;stroke-width:10;stroke-linecap:round;stroke-linejoin:round;stroke-miterlimit:10;}
	.st207{fill:#CF9828;}
	.st208{fill:#B88926;}
	.st209{fill:#A17623;}
	.st210{fill:#96CCBC;}
	.st211{fill:#CF9A2A;}
	.st212{fill:#C57B20;}
	.st213{fill:#C7F1E6;}
	.st214{fill:#DC6363;}
	.st215{fill:#E89F9F;}
	.st216{fill:#C88C8C;}
	.st217{fill:#C16E6E;}
	.st218{fill:#A46060;}
	.st219{fill:#AA3626;}
	.st220{fill:#87EDC4;}
	.st221{fill:#D86552;}
	.st222{fill:#BC7620;}
	.st223{fill:#BA741E;}
	.st224{fill:#8F8CE3;}
	.st225{fill:#3A2820;}
	.st226{fill:#AC7060;}
	.st227{fill:#915F55;}
	.st228{fill:#49332A;}
	.st229{fill:#2D1F1B;}
	.st230{fill:#69B7BE;}
	.st231{fill:#D6D6D6;}
	.st232{fill:#B8B8B8;}
	.st233{fill:#CACACA;}
	.st234{fill:#467B80;}
	.st235{fill:#C2EDE2;}
	.st236{fill:#A9574F;}
	.st237{fill:#5595D2;}
	.st238{fill:#955949;}
	.st239{fill:#7E4B42;}
	.st240{fill:#89CCF1;}
	.st241{fill:#DD584A;}
	.st242{fill:#C18F26;}
	.st243{fill:#B33C2A;}
	.st244{fill:#D1A771;}
	.st245{fill:#B42A2A;}
	.st246{fill:#325797;}
	.st247{fill:#9F3529;}
	.st248{fill:#EDCE80;}
	.st249{fill:#F0DBAC;}
	.st250{fill:#CFB478;}
	.st251{fill:#D4C29B;}
	.st252{fill:#993939;}
	.st253{fill:#D1AFA3;}
	.st254{fill:#BC968B;}
	.st255{fill:none;stroke:#BC968B;stroke-width:10;stroke-linecap:round;stroke-miterlimit:10;}
	.st256{fill:#814C3C;}
	.st257{fill:#C0EBE0;}
	.st258{fill:#A5E3D4;}
	.st259{fill:#15243C;}
	.st260{fill:#443E79;}
	.st261{fill:#F0FFF7;}
	.st262{fill:#9A764B;}
	.st263{fill:#826443;}
	.st264{fill:#D9AA74;}
	.st265{fill:#5DA186;}
	.st266{fill:#68B596;}
	.st267{fill:#E5C6BE;}
	.st268{fill:#D3B6B1;}
	.st269{fill:none;stroke:#BAA09C;stroke-width:10;stroke-linecap:round;stroke-miterlimit:10;}
	.st270{fill:#F4D78F;}
	.st271{fill:#20385F;}
	.st272{fill:#BA8727;}
	.st273{fill:#5A9C82;}
	.st274{fill:none;stroke:#E39123;stroke-width:10;stroke-linecap:round;stroke-linejoin:round;stroke-miterlimit:10;}
	.st275{fill:#60392D;}
	.st276{fill:#CCCCCC;}
	.st277{fill:#844F3E;}
	.st278{fill:#F3FFFB;}
	.st279{fill:#365E60;}
	.st280{fill:#D84545;}
	.st281{fill:#A83B3B;}
	.st282{fill:#253F70;}
	.st283{fill:#EAADAD;}
	.st284{fill:#443E7C;}
	.st285{fill:#3D6B9F;}
	.st286{fill:#4274BC;}
	.st287{fill:#AF3827;}
	.st288{fill:#E59D9D;}
	.st289{fill:#C48989;}
	.st290{fill:none;stroke:#9B621A;stroke-width:10;stroke-linecap:round;stroke-linejoin:round;stroke-miterlimit:10;}
	.st291{fill:#213A5E;}
	.st292{fill:#2D507A;}
	.st293{fill:#528EC8;}
	.st294{fill:#EFD696;}
	.st295{fill:#D1BA87;}
	.st296{fill:#FDFCFC;}
	.st297{fill:#86CBFC;}
	.st298{fill:#7AB7DA;}
	.st299{fill:#192C4C;}
	.st300{fill:#BCBCBC;}
	.st301{fill:#A13838;}
	.st302{fill:#75BDF6;}
	.st303{fill:#D0B1AA;}
	.st304{fill:#142233;}
	.st305{fill:#E6C4BB;}
	.st306{fill:#BDBDBD;}
	.st307{fill:#E8A192;}
	.st308{fill:#A43939;}
	.st309{fill:#162640;}
	.st310{fill:#27457C;}
	.st311{fill:#EFBE5E;}
	.st312{fill:#87EDC5;}
	.st313{fill:#A03838;}
	.st314{fill:#833232;}
	.st315{fill:#47417F;}
	.st316{fill:none;stroke:#915F55;stroke-width:10;stroke-linecap:round;stroke-miterlimit:10;}
	.st317{fill:#BC8B25;}
	.st318{fill:#473129;}
	.st319{fill:#67B394;}
	.st320{fill:#599A80;}
	.st321{fill:#B13D3D;}
</style>
<g id="BULINE">
	<circle id="XMLID_1410_" class="st6" cx="256" cy="256" r="256"/>
	<g>
	</g>
</g>
<g id="Icons">
	<g id="XMLID_4180_">
		<path id="XMLID_4152_" class="st23" d="M416.9,134.7C416.9,71.9,366,21,303.2,21h-40.5c-62.8,0-113.7,50.9-113.7,113.7v49
			c0-8.8,7.1-15.9,15.9-15.9h2.2v0h-2.2c-8.8,0-15.9,7.1-15.9,15.9V199v70.5c0,26.2,21.3,47.5,47.5,47.5h77.3h0h0.6H291h0.5
			c0,0,0,0,0,0h77.9c26.2,0,47.5-21.3,47.5-47.5V199v-15.3c0-1-0.1-2-0.3-2.9c0.2,0.9,0.3,1.9,0.3,2.9V134.7z"/>
		<path id="XMLID_1435_" class="st20" d="M292,375.7h-17.6c-14.1,0-25.5-11.4-25.5-25.5v-42c0-14.1,11.4-25.5,25.5-25.5H292
			c14.1,0,25.5,11.4,25.5,25.5v42C317.5,364.2,306.1,375.7,292,375.7z"/>
		<path id="XMLID_1434_" class="st21" d="M295.2,375.4c-1.2,0.2-2.4,0.3-3.7,0.3h-17.6c-14.1,0-25.5-11.4-25.5-25.5v-42
			c0-14.1,11.4-25.5,25.5-25.5h17.6c1.3,0,2.5,0.1,3.7,0.3c-12.3,1.8-21.8,12.4-21.8,25.3v42C273.4,363,282.9,373.6,295.2,375.4z"/>
		<g id="XMLID_1758_">
			<path id="XMLID_1778_" class="st42" d="M113.1,382.7H54.6c-8.4,0-15.2-6.8-15.2-15.2V228c0-8.4,6.8-15.2,15.2-15.2h58.5
				c8.4,0,15.2,6.8,15.2,15.2v139.5C128.3,375.9,121.5,382.7,113.1,382.7z"/>
			<path id="XMLID_1777_" class="st23" d="M83.3,382.7H54.6c-8.4,0-15.2-6.8-15.2-15.2V228c0-8.4,6.8-15.2,15.2-15.2h28.7
				c-8.4,0-15.2,6.8-15.2,15.2v139.5C68.1,375.9,74.9,382.7,83.3,382.7z"/>
			<path id="XMLID_1767_" class="st23" d="M99.2,245.5h13.9c2.6,0,4.7-2.1,4.7-4.7v-13.9c0-2.6-2.1-4.7-4.7-4.7H99.2
				c-2.6,0-4.7,2.1-4.7,4.7v13.9C94.5,243.4,96.6,245.5,99.2,245.5z"/>
			<path id="XMLID_1765_" class="st1" d="M101.9,241h8.5c1.6,0,2.9-1.3,2.9-2.9v-8.5c0-1.6-1.3-2.9-2.9-2.9h-8.5
				c-1.6,0-2.9,1.3-2.9,2.9v8.5C99,239.7,100.3,241,101.9,241z"/>
			<path id="XMLID_1760_" class="st278" d="M133.4,222.2c0-2.8-3.8-5.2-9.2-6.2c-1.1-5.4-3.4-9.2-6.2-9.2c-2.8,0-5.2,3.8-6.2,9.2
				c-5.4,1.1-9.2,3.4-9.2,6.2s3.8,5.2,9.2,6.2c1.1,5.4,3.4,9.2,6.2,9.2c2.8,0,5.2-3.8,6.2-9.2C129.7,227.4,133.4,225,133.4,222.2z"
				/>
		</g>
		<path id="XMLID_1885_" class="st0" d="M434.9,402.3v36.8c-17.2,16.8-36.7,31.1-58,42.5c-6.2,3.3-12.5,6.4-19,9.2
			c-6.2,2.7-12.6,5.2-19,7.4c-26,8.9-53.9,13.7-82.9,13.7c-9.4,0-18.8-0.5-27.9-1.5c-6.4-0.7-12.8-1.6-19-2.8
			c-6.4-1.2-12.8-2.6-19-4.3c-8.1-2.1-16-4.7-23.7-7.5c-4.1-1.5-8.2-3.2-12.2-4.9c-7.7-3.3-15.2-7-22.4-11.1l-0.8-0.4v-77.2
			c0-6.2,1.1-12.2,3-17.7c1.1-3.2,2.6-6.3,4.3-9.2c1.4-2.3,2.9-4.5,4.6-6.6c2.5-3.1,5.4-5.9,8.5-8.4c9.1-7.1,20.5-11.3,32.9-11.3
			h197.2c3,0,6,0.3,8.8,0.8C415.7,354,434.9,375.9,434.9,402.3z"/>
		<path id="XMLID_1843_" class="st15" d="M219.7,349c-3.2,0-6.4,0.3-9.5,0.8c-0.4,0.1-0.7,0.1-1.1,0.2c-6.9,1.4-13.4,4.1-19,7.9
			c-14.3,9.6-23.7,25.8-23.7,44.3v93.6c-4.1-1.5-8.2-3.2-12.2-4.9c-7.7-3.3-15.2-7-22.4-11.1v-77.6c0-6.2,1.1-12.2,3-17.7
			c1.2-3.3,2.7-6.5,4.5-9.5c1.1-1.9,2.3-3.7,3.6-5.4c2.5-3.2,5.4-6.2,8.6-8.8c9.2-7.5,20.9-11.9,33.6-11.9H219.7z"/>
		<path id="XMLID_1858_" class="st22" d="M228.1,351v159.5c-6.4-0.7-12.8-1.6-19-2.8c-6.4-1.2-12.8-2.6-19-4.3V351
			c0-0.7,0-1.3,0.1-2c0.9-6.2,6.3-10.9,12.7-10.9h12.2c0.2,0,0.5,0,0.8,0c0.2,0,0.4,0,0.5,0c0.7,0.1,1.3,0.2,1.9,0.3
			c0,0,0.1,0,0.1,0s0,0,0.1,0c4.9,1.3,8.6,5.4,9.4,10.5C228,349.6,228.1,350.3,228.1,351z"/>
		<path id="XMLID_1848_" class="st279" d="M218.6,338.5C218.6,338.5,218.6,338.5,218.6,338.5c-4.9,1.3-8.6,5.4-9.4,10.5
			c-0.1,0.3-0.1,0.7-0.1,1.1c0,0.3,0,0.6,0,0.9v156.7c-6.4-1.2-12.8-2.6-19-4.3V351c0-0.7,0-1.3,0.1-2c0.9-6.2,6.3-10.9,12.7-10.9
			h12.2c0.2,0,0.5,0,0.8,0c0.2,0,0.4,0,0.5,0c0.7,0.1,1.3,0.2,1.9,0.3C218.4,338.5,218.5,338.5,218.6,338.5
			C218.5,338.5,218.5,338.5,218.6,338.5z"/>
		<path id="XMLID_1442_" class="st280" d="M223.5,471.8h-29.6c-6.7,0-12.2-5.5-12.2-12.2v-46.8c0-6.7,5.5-12.2,12.2-12.2h29.6
			c6.7,0,12.2,5.5,12.2,12.2v46.8C235.7,466.3,230.3,471.8,223.5,471.8z"/>
		<path id="XMLID_1441_" class="st281" d="M218.8,459.6h-19.5c-4.4,0-8-3.6-8-8v-30.8c0-4.4,3.6-8,8-8h19.5c4.4,0,8,3.6,8,8v30.8
			C226.8,456,223.2,459.6,218.8,459.6z"/>
		<path id="XMLID_1854_" class="st22" d="M376.9,351v130.7c-6.2,3.3-12.5,6.4-19,9.2c-6.2,2.7-12.6,5.2-19,7.4V351
			c0-0.7,0.1-1.3,0.2-2c0.9-6.2,6.3-10.9,12.7-10.9H364c0.3,0,0.5,0,0.8,0c0.2,0,0.3,0,0.5,0c0.7,0.1,1.3,0.2,1.9,0.3
			c0,0,0.1,0,0.1,0.1c4.9,1.3,8.6,5.4,9.4,10.5C376.9,349.6,376.9,350.3,376.9,351z"/>
		<path id="XMLID_1846_" class="st279" d="M367.4,338.5C367.4,338.5,367.4,338.5,367.4,338.5c-4.9,1.3-8.6,5.4-9.3,10.5
			c-0.1,0.6-0.2,1.3-0.2,2v139.9c-6.2,2.7-12.6,5.2-19,7.4V351c0-0.7,0.1-1.3,0.2-2c0.9-6.2,6.3-10.9,12.7-10.9H364
			c0.3,0,0.5,0,0.8,0c0.2,0,0.3,0,0.5,0c0.7,0.1,1.3,0.2,1.9,0.3C367.3,338.5,367.4,338.5,367.4,338.5z"/>
		<path id="XMLID_1438_" class="st280" d="M372.4,471.8h-29.6c-6.7,0-12.2-5.5-12.2-12.2v-46.8c0-6.7,5.5-12.2,12.2-12.2h29.6
			c6.7,0,12.2,5.5,12.2,12.2v46.8C384.6,466.3,379.1,471.8,372.4,471.8z"/>
		<path id="XMLID_1437_" class="st281" d="M367.6,459.6h-19.5c-4.4,0-8-3.6-8-8v-30.8c0-4.4,3.6-8,8-8h19.5c4.4,0,8,3.6,8,8v30.8
			C375.7,456,372.1,459.6,367.6,459.6z"/>
		<path id="XMLID_1436_" class="st20" d="M283.2,471.8L283.2,471.8c-26.2,0-47.4-21.2-47.4-47.4V349h94.8v75.3
			C330.6,450.5,309.3,471.8,283.2,471.8z"/>
		<path id="XMLID_1859_" class="st20" d="M116.9,425.8l-32.6,5.9l-5.4,1L72,434c-4.2-4.4-8.3-8.9-12.2-13.6l-0.5,0.2h0l-0.1,0h0
			l-0.2-1.2l-6.7-36.9v0l-0.2-0.9c-2.4-12.9,4.6-25.3,16-30.5c2-0.9,4.2-1.6,6.5-2c1.7-0.3,3.4-0.5,5-0.5c0.4,0,0.8,0,1.2,0
			c0.9,0,1.9,0.1,2.8,0.3c0.3,0,0.6,0.1,0.9,0.1c1.3,0.2,2.6,0.6,3.9,1c9.4,3.1,16.8,11.1,18.7,21.5l2,11.1l3,16.7l1.9,10.3
			L116.9,425.8z"/>
		<path id="XMLID_1850_" class="st21" d="M69.3,373.6c-0.3,2.6-0.2,5.3,0.3,8.1l0.2,1.1l5.6,30.9v0l3.5,19v0L72,434c0,0,0,0,0,0
			c-4.2-4.4-8.3-8.9-12.2-13.6l-0.5,0.2l-0.2-1l-6.8-37v0l-0.2-0.9c-2.3-12.9,4.5-25.3,15.9-30.4c2-0.9,4.2-1.6,6.6-2.1
			c1.7-0.3,3.4-0.4,5-0.4c0.4,0,0.8,0,1.1,0c0.9,0,1.9,0.1,2.8,0.3c0.3,0,0.6,0.1,0.9,0.1c1.3,0.2,2.6,0.6,3.9,1c0,0,0,0,0,0
			C77.8,353.6,70.5,362.9,69.3,373.6z"/>
		<path id="XMLID_1849_" class="st0" d="M154.2,491c-7.7-3.3-15.2-7-22.4-11.1l-0.8-0.4c-13.2-7.4-25.7-15.9-37.3-25.5
			c-7.6-6.2-14.9-12.9-21.7-20c0,0,0,0,0,0c-4.2-4.4-8.3-8.9-12.2-13.6l15.7-6.7v0h0l32.5-13.8c1.3-0.6,2.8-0.7,4.1-0.4
			c2.2,0.4,4.2,1.9,5.1,4.2l1.7,4l12.1,28.6l0.8,1.8l0.6,1.4l0.7,1.8L154.2,491z"/>
		<path id="XMLID_1844_" class="st15" d="M83.7,430.2l0.6,1.5v0l9.4,22.3c-7.6-6.2-14.9-12.9-21.7-20c0,0,0,0,0,0
			c-4.2-4.4-8.3-8.9-12.2-13.6l15.7-6.7v0h0l32.5-13.8c1.3-0.6,2.8-0.7,4.1-0.4c2.2,0.4,4.2,1.9,5.1,4.2l1.7,4l-4.9,2.1L87.4,421
			C83.8,422.5,82.1,426.6,83.7,430.2z"/>
		<path id="XMLID_1421_" class="st282" d="M328.6,28.2c10.2,5,24.5,15.1,32.7,34.1c1.8,4.2-2.5,8.4-6.6,6.5v0
			c-2.7-1.2-5.4,1.5-4.2,4.2c1.7,3.9,3.8,8.9,5.6,14c1.8,5.1-4.8,9-8.4,4.9c-9.5-11-23.5-24.1-38.2-25.8c-1.7-0.2-2.5-2-1.7-3.4
			c2.1-3.4,6.3-8.5,12.9-10.2c5.9-1.6,9.7-7.5,8.5-13.4c-0.5-2.3-1.5-4.8-3.3-7.2C324.3,29.6,326.4,27.1,328.6,28.2z"/>
		<path id="XMLID_1432_" class="st20" d="M401,167.8h-2.7v-18c0-20.8-5.5-40.4-15.2-57.3c-0.7-1.2-1.4-2.5-2.2-3.7
			c-1.2,1.8-2.5,3.4-4,4.9c0.6,1.7,1,3.5,1,5.5c0,8.7-7,15.7-15.7,15.7c-3.7,0-7.1-1.3-9.8-3.5c-3,3-7.1,4.8-11.6,4.8
			c-6.3,0-11.7-3.5-14.5-8.7c-4.4,6.1-11.5,10-19.6,10c-10.5,0-19.4-6.7-22.8-16.1c-3,3-7.1,4.9-11.6,4.9c-5.2,0-9.8-2.4-12.8-6.2
			c-2.9,10.1-12.2,17.5-23.2,17.5c-5.6,0-10.7-1.9-14.8-5.1c-2.3,1.9-5.2,3.2-8.3,3.5c-3.2,10.6-5,21.9-5,33.6v52.1
			c0,56.7,40.9,103.8,94.7,113.5c0,0,0,0,0,0c-0.4,0.1-0.7,0.1-1.1,0.2c-0.3,0.1-0.6,0.1-1,0.2c-0.6,0.1-1.3,0.2-1.9,0.3
			c-0.1,0-0.2,0-0.4,0.1c-0.9,0.1-1.7,0.2-2.6,0.3c-1.7,0.2-3.4,0.4-5.1,0.5h0.5c1.7-0.1,3.4-0.3,5.1-0.5c0.9-0.1,1.8-0.2,2.6-0.3
			c0.1,0,0.2,0,0.4-0.1c0.6-0.1,1.3-0.2,1.9-0.3c0.3,0,0.6-0.1,1-0.2c0.3-0.1,0.7-0.1,1-0.2c21.5-3.9,41-13.7,56.6-27.8
			c20.4-18.4,34.3-44,37.5-72.8h3.4c8.8,0,15.9-7.1,15.9-16v-15.3c0-4-1.5-7.6-3.9-10.4C410.2,169.9,405.8,167.8,401,167.8z"/>
		<path id="XMLID_1430_" class="st21" d="M303,315.5c-53.9-9.7-94.7-56.9-94.7-113.5v-52.1c0-11.7,1.8-23,5-33.6
			c-0.7,0.1-1.4,0.1-2.1,0.1c-7.3,0-13.6-5.4-15.7-12c-1.5,0.7-2.7,1.5-4.1,2.3c-1.1,0.6-2.4,1.4-3.5,1.4c-3.4-0.2-7.9-3.5-7-8.2
			c0.1-0.6,0.2-1.8,0.6-3.1c0.8-1,0.5-2.1,0.7-3.2c-3.8,5.8-6.5,13.3-9,20.7c-2.6,7.4-4.5,15-5.3,22.2c-0.5,4.4-0.8,8.8-0.8,13.3v18
			h-2.2c-8.8,0-15.9,7.1-15.9,15.9V199c0,8.8,7.1,16,15.9,16h2.9c0,0.2,0,0.3,0.1,0.5c0.1,0.7,0.2,1.3,0.2,2c0,0.2,0.1,0.4,0.1,0.6
			c0.1,0.8,0.2,1.6,0.3,2.3c0.1,0.9,0.3,1.8,0.5,2.6c0.2,0.9,0.3,1.8,0.5,2.6c0.5,2.6,1.1,5.1,1.8,7.6c0.3,0.9,0.5,1.8,0.8,2.7
			c0.3,0.8,0.5,1.7,0.8,2.5c0.2,0.7,0.5,1.4,0.7,2.1c0.1,0.2,0.1,0.4,0.2,0.6c0.2,0.5,0.4,1,0.6,1.5c0.1,0.4,0.3,0.8,0.4,1.1
			c0.2,0.5,0.4,1,0.6,1.5c0.1,0.3,0.2,0.5,0.3,0.8c0.2,0.5,0.4,1,0.6,1.4c0.2,0.5,0.4,1,0.7,1.5c0.1,0.3,0.2,0.5,0.4,0.8
			c0.3,0.6,0.6,1.2,0.9,1.8c0.1,0.2,0.2,0.4,0.3,0.6c0.2,0.5,0.4,0.9,0.7,1.3c0.3,0.6,0.6,1.1,0.9,1.7c0,0,0,0.1,0,0.1
			c0.4,0.7,0.8,1.4,1.2,2.1c0.5,1,1.1,2,1.7,3c0.3,0.5,0.6,1.1,0.9,1.6c0.9,1.5,1.9,3,2.9,4.4c0.5,0.8,1,1.5,1.6,2.3
			c1.7,2.4,3.5,4.7,5.4,7c0.5,0.6,1,1.2,1.5,1.7c0.5,0.6,1,1.2,1.6,1.8c0.5,0.6,1,1.1,1.6,1.7c0.3,0.3,0.6,0.7,0.9,1
			c0.4,0.4,0.7,0.8,1.1,1.1c0.5,0.5,1,1,1.5,1.5c0.4,0.4,0.9,0.9,1.3,1.3c0.6,0.5,1.1,1,1.7,1.5c2.7,2.4,5.5,4.8,8.4,6.9
			c0.1,0,0.1,0.1,0.2,0.1c0.7,0.6,1.5,1.1,2.2,1.6c0.8,0.5,1.5,1.1,2.3,1.6c0.8,0.5,1.5,1,2.3,1.5c0.8,0.5,1.6,1,2.4,1.5
			c0.8,0.5,1.6,1,2.4,1.4c0.8,0.5,1.6,0.9,2.4,1.4c0.8,0.4,1.6,0.9,2.4,1.3c0,0,0,0,0,0c0.8,0.4,1.6,0.8,2.5,1.2
			c3.4,1.6,6.8,3.1,10.3,4.4c0.9,0.3,1.8,0.6,2.7,0.9c0.9,0.3,1.8,0.6,2.7,0.9c0.9,0.3,1.8,0.6,2.7,0.8c0.9,0.3,1.8,0.5,2.8,0.8
			c0.9,0.2,1.8,0.5,2.8,0.7c0.9,0.2,1.9,0.4,2.8,0.6c0.9,0.2,1.9,0.4,2.8,0.5c1,0.2,1.9,0.3,2.9,0.5c1,0.1,1.9,0.3,2.9,0.4
			c1,0.1,1.9,0.2,2.9,0.3c1,0.1,1.9,0.2,2.9,0.3c0.1,0,0.2,0,0.2,0h0.6h16.7c1.7-0.1,3.4-0.3,5.1-0.5c0.9-0.1,1.8-0.2,2.6-0.3
			c0.1,0,0.2,0,0.4-0.1c0.6-0.1,1.3-0.2,1.9-0.3c0.3,0,0.6-0.1,1-0.2C302.4,315.6,302.7,315.5,303,315.5
			C303,315.5,303,315.5,303,315.5z"/>
		<path id="XMLID_1428_" class="st21" d="M290.6,220h-14.3c-4.7,0-8.5-3.8-8.5-8.5v0c0-4.7,3.8-8.5,8.5-8.5h14.3
			c4.7,0,8.5,3.8,8.5,8.5v0C299.1,216.1,295.3,220,290.6,220z"/>
		<circle id="XMLID_1426_" class="st16" cx="401.1" cy="214.2" r="8.2"/>
		<path id="XMLID_1420_" class="st71" d="M241.6,190.3c0-7.3-5.9-13.2-13.2-13.2c-7.3,0-13.2,5.9-13.2,13.2"/>
		<path id="XMLID_1418_" class="st71" d="M351.8,190.3c0-7.3-5.9-13.2-13.2-13.2s-13.2,5.9-13.2,13.2"/>
		<path id="XMLID_1416_" class="st71" d="M263.8,236.5c0,10.8,8.8,19.6,19.6,19.6c10.8,0,19.6-8.8,19.6-19.6"/>
		<line id="XMLID_1415_" class="st71" x1="267.8" y1="270.7" x2="299.1" y2="270.7"/>
		<ellipse id="XMLID_1414_" class="st283" cx="228.4" cy="217.7" rx="18.3" ry="11.7"/>
		<ellipse id="XMLID_1413_" class="st283" cx="338.5" cy="217.7" rx="18.3" ry="11.7"/>
		<circle id="XMLID_1427_" class="st16" cx="160.2" cy="214.2" r="8.2"/>
	</g>
</g>
</svg>
