<?xml version="1.0" encoding="utf-8"?>
<!-- Generator: Adobe Illustrator 22.0.1, SVG Export Plug-In . SVG Version: 6.00 Build 0)  -->
<svg version="1.1" xmlns="http://www.w3.org/2000/svg" xmlns:xlink="http://www.w3.org/1999/xlink" x="0px" y="0px"
	 viewBox="0 0 512 512" style="enable-background:new 0 0 512 512;" xml:space="preserve">
<style type="text/css">
	.st0{fill:#E9B12D;}
	.st1{fill:#A9E7D8;}
	.st2{fill:#76CFB1;}
	.st3{fill:#AE6B5D;}
	.st4{fill:#7770D3;}
	.st5{fill:#5BA0F5;}
	.st6{fill:#DA4545;}
	.st7{fill:#89CCFC;}
	.st8{fill:#CD462A;}
	.st9{fill:#514896;}
	.st10{fill:#5493A0;}
	.st11{fill:#CC6B5C;}
	.st12{fill:#62AA8D;}
	.st13{fill:#8ABAAB;}
	.st14{fill:#C3791F;}
	.st15{fill:#E39123;}
	.st16{fill:#FFFFFF;}
	.st17{fill:none;stroke:#FFFFFF;stroke-width:10;stroke-linecap:round;stroke-miterlimit:10;}
	.st18{fill:none;stroke:#5F55AB;stroke-width:10;stroke-linecap:round;stroke-miterlimit:10;}
	.st19{fill:#A9671C;}
	.st20{fill:#D5B3A7;}
	.st21{fill:#C09A8F;}
	.st22{fill:#487F87;}
	.st23{fill:#1B305C;}
	.st24{fill:#172945;}
	.st25{fill:none;}
	.st26{fill:#B62A2A;}
	.st27{fill:#325859;}
	.st28{fill:#3F6E71;}
	.st29{fill:#284646;}
	.st30{fill:#8F2727;}
	.st31{fill:#29477C;}
	.st32{fill:#5B9BEE;}
	.st33{fill:#487FDE;}
	.st34{fill:#CD9829;}
	.st35{fill:#9F2A2A;}
	.st36{fill:#4C3328;}
	.st37{fill:#E8B94A;}
	.st38{fill:#DDF8F1;}
	.st39{fill:#3E2A22;}
	.st40{fill:#D3A971;}
	.st41{fill:#C79A5B;}
	.st42{fill:#233E76;}
	.st43{fill:#21395F;}
	.st44{fill:#487D82;}
	.st45{fill:none;stroke:#C79A5B;stroke-width:10;stroke-linecap:round;stroke-miterlimit:10;}
	.st46{fill:#5E3E31;}
	.st47{fill:#AC3939;}
	.st48{fill:#CA9628;}
	.st49{fill:#AF8F88;}
	.st50{fill:#815048;}
	.st51{fill:#6F4232;}
	.st52{fill:#5F55AB;}
	.st53{fill:#192A48;}
	.st54{fill:#152336;}
	.st55{fill:#192B49;}
	.st56{fill:#264173;}
	.st57{fill:#B06F1E;}
	.st58{fill:#4E88C0;}
	.st59{fill:#83C3F1;}
	.st60{fill:#CF9929;}
	.st61{fill:none;stroke:#FFFFFF;stroke-width:10;stroke-linecap:round;stroke-linejoin:round;stroke-miterlimit:10;}
	.st62{fill:#EAC262;}
	.st63{fill:#D6D5D4;}
	.st64{fill:#6BBA9B;}
	.st65{fill:#63AA8F;}
	.st66{fill:none;stroke:#3E2A22;stroke-width:10;stroke-linecap:round;stroke-miterlimit:10;}
	.st67{fill:#CA7D1F;}
	.st68{fill:#213B64;}
	.st69{fill:#CDF8EC;}
	.st70{fill:#C59125;}
	.st71{fill:none;stroke:#C09A8F;stroke-width:10;stroke-linecap:round;stroke-miterlimit:10;}
	.st72{fill:#32579B;}
	.st73{fill:#172843;}
	.st74{fill:#D66767;}
	.st75{fill:#A74949;}
	.st76{fill:#EBC76F;}
	.st77{fill:#7A4940;}
	.st78{fill:#182A48;}
	.st79{fill:none;stroke:#A0794A;stroke-width:10;stroke-linecap:round;stroke-miterlimit:10;}
	.st80{fill:#C37A20;}
	.st81{fill:#D26D5C;}
	.st82{fill:#A45752;}
	.st83{fill:#284579;}
	.st84{fill:#88C7F4;}
	.st85{fill:#6EB6F0;}
	.st86{fill:#32221E;}
	.st87{fill:#E7A6A6;}
	.st88{fill:#C59191;}
	.st89{fill:#AA3B3B;}
	.st90{fill:#B83E3E;}
	.st91{fill:none;stroke:#5F55A9;stroke-width:10;stroke-linecap:round;stroke-miterlimit:10;}
	.st92{fill:#963838;}
	.st93{fill:#402B25;}
	.st94{fill:#6B6ABA;}
	.st95{fill:#BABABA;}
	.st96{fill:#D1D1D1;}
	.st97{fill:#264377;}
	.st98{fill:#A19BF5;}
	.st99{fill:#3C2A21;}
	.st100{fill:none;stroke:#4C3328;stroke-width:10;stroke-linecap:round;stroke-miterlimit:10;}
	.st101{fill:#C1781F;}
	.st102{fill:#E3A147;}
	.st103{fill:#F2D2A1;}
	.st104{fill:#4F372D;}
	.st105{fill:none;stroke:#DA4545;stroke-width:10;stroke-linecap:round;stroke-miterlimit:10;}
	.st106{fill:#AA3928;}
	.st107{fill:#8C2C22;}
	.st108{fill:#BF4336;}
	.st109{fill:#5797D4;}
	.st110{fill:#CFCFCF;}
	.st111{fill:#613A2E;}
	.st112{fill:none;stroke:#B18653;stroke-width:10;stroke-linecap:round;stroke-miterlimit:10;}
	.st113{fill:#B13B3B;}
	.st114{fill:#16263A;}
	.st115{fill:none;stroke:#16263A;stroke-width:10;stroke-miterlimit:10;}
	.st116{fill:#C87D20;}
	.st117{fill:#E4F0FD;}
	.st118{fill:#AA3737;}
	.st119{fill:#BF771F;}
	.st120{fill:none;stroke:#CD462A;stroke-width:10;stroke-linejoin:round;stroke-miterlimit:10;}
	.st121{fill:#5696D2;}
	.st122{fill:#C0771E;}
	.st123{fill:#9B5F1B;}
	.st124{fill:#A83A29;}
	.st125{fill:#E7A74F;}
	.st126{fill:#C9924C;}
	.st127{fill:#C58E48;}
	.st128{fill:#BE8844;}
	.st129{fill:#916939;}
	.st130{fill:#264275;}
	.st131{fill:#253F65;}
	.st132{fill:#182A45;}
	.st133{fill:#162336;}
	.st134{fill:#93C7B7;}
	.st135{fill:#E6A4A4;}
	.st136{fill:#B06B1D;}
	.st137{fill:#484185;}
	.st138{fill:#DB6E6E;}
	.st139{fill:#6BBA9A;}
	.st140{fill:#CACCCC;}
	.st141{fill:#D4D4D4;}
	.st142{fill:#A98881;}
	.st143{fill:#213A62;}
	.st144{fill:#A2837D;}
	.st145{fill:#6FB8F4;}
	.st146{fill:#9B9E9E;}
	.st147{fill:#B2B3B3;}
	.st148{fill:#20385D;}
	.st149{fill:#335AA8;}
	.st150{fill:#BCE7FD;}
	.st151{fill:#3B2921;}
	.st152{fill:#AD3C3C;}
	.st153{fill:#9D3838;}
	.st154{fill:#603F33;}
	.st155{fill:#4D868B;}
	.st156{fill:#A2DDFD;}
	.st157{fill:#ECB6B6;}
	.st158{fill:#E8A346;}
	.st159{fill:#514C94;}
	.st160{fill:#D2F1E8;}
	.st161{fill:#BDD6CE;}
	.st162{fill:#B93B29;}
	.st163{fill:#E0AD70;}
	.st164{fill:#C57C21;}
	.st165{fill:#EDA34A;}
	.st166{fill:#2F538F;}
	.st167{fill:#2B4B78;}
	.st168{fill:#65AF91;}
	.st169{fill:#A7CEFC;}
	.st170{fill:#98BDE2;}
	.st171{fill:#CFE5F7;}
	.st172{fill:#5492CD;}
	.st173{fill:#97CCBC;}
	.st174{fill:#5491CA;}
	.st175{fill:#EDC563;}
	.st176{fill:#423C79;}
	.st177{fill:#D3B1A5;}
	.st178{fill:#BE988D;}
	.st179{fill:#A7E5D6;}
	.st180{fill:#F2FFF9;}
	.st181{fill:#D64545;}
	.st182{fill:#A73B3B;}
	.st183{fill:#15233A;}
	.st184{fill:none;stroke:#BE988D;stroke-width:10;stroke-linecap:round;stroke-miterlimit:10;}
	.st185{fill:#AF3A29;}
	.st186{fill:#FAF9FF;}
	.st187{fill:#CACACC;}
	.st188{fill:#372720;}
	.st189{fill:#3F2C26;}
	.st190{fill:#2D201C;}
	.st191{fill:#3D6D6F;}
	.st192{fill:#5B54A8;}
	.st193{fill:#325799;}
	.st194{fill:#E8C26E;}
	.st195{fill:#254784;}
	.st196{fill:#5696D4;}
	.st197{fill:#4F8AB6;}
	.st198{fill:#5FA4AC;}
	.st199{fill:#AA3524;}
	.st200{fill:#D15F4D;}
	.st201{fill:#2B294C;}
	.st202{fill:#A43A2A;}
	.st203{fill:#E7AE2D;}
	.st204{fill:#CD9729;}
	.st205{fill:none;stroke:#AA8253;stroke-width:10;stroke-linecap:round;stroke-miterlimit:10;}
	.st206{fill:none;stroke:#E18F23;stroke-width:10;stroke-linecap:round;stroke-linejoin:round;stroke-miterlimit:10;}
	.st207{fill:#CF9828;}
	.st208{fill:#B88926;}
	.st209{fill:#A17623;}
	.st210{fill:#96CCBC;}
	.st211{fill:#CF9A2A;}
	.st212{fill:#C57B20;}
	.st213{fill:#C7F1E6;}
	.st214{fill:#DC6363;}
	.st215{fill:#E89F9F;}
	.st216{fill:#C88C8C;}
	.st217{fill:#C16E6E;}
	.st218{fill:#A46060;}
	.st219{fill:#AA3626;}
	.st220{fill:#87EDC4;}
	.st221{fill:#D86552;}
	.st222{fill:#BC7620;}
	.st223{fill:#BA741E;}
	.st224{fill:#8F8CE3;}
	.st225{fill:#3A2820;}
	.st226{fill:#AC7060;}
	.st227{fill:#915F55;}
	.st228{fill:#49332A;}
	.st229{fill:#2D1F1B;}
	.st230{fill:#69B7BE;}
	.st231{fill:#D6D6D6;}
	.st232{fill:#B8B8B8;}
	.st233{fill:#CACACA;}
	.st234{fill:#467B80;}
	.st235{fill:#C2EDE2;}
	.st236{fill:#A9574F;}
	.st237{fill:#5595D2;}
	.st238{fill:#955949;}
	.st239{fill:#7E4B42;}
	.st240{fill:#89CCF1;}
	.st241{fill:#DD584A;}
	.st242{fill:#C18F26;}
	.st243{fill:#B33C2A;}
	.st244{fill:#D1A771;}
	.st245{fill:#B42A2A;}
	.st246{fill:#325797;}
	.st247{fill:#9F3529;}
	.st248{fill:#EDCE80;}
	.st249{fill:#F0DBAC;}
	.st250{fill:#CFB478;}
	.st251{fill:#D4C29B;}
	.st252{fill:#993939;}
	.st253{fill:#D1AFA3;}
	.st254{fill:#BC968B;}
	.st255{fill:none;stroke:#BC968B;stroke-width:10;stroke-linecap:round;stroke-miterlimit:10;}
	.st256{fill:#814C3C;}
	.st257{fill:#C0EBE0;}
	.st258{fill:#A5E3D4;}
	.st259{fill:#15243C;}
	.st260{fill:#443E79;}
	.st261{fill:#F0FFF7;}
	.st262{fill:#9A764B;}
	.st263{fill:#826443;}
	.st264{fill:#D9AA74;}
	.st265{fill:#5DA186;}
	.st266{fill:#68B596;}
	.st267{fill:#E5C6BE;}
	.st268{fill:#D3B6B1;}
	.st269{fill:none;stroke:#BAA09C;stroke-width:10;stroke-linecap:round;stroke-miterlimit:10;}
	.st270{fill:#F4D78F;}
	.st271{fill:#20385F;}
	.st272{fill:#BA8727;}
	.st273{fill:#5A9C82;}
	.st274{fill:none;stroke:#E39123;stroke-width:10;stroke-linecap:round;stroke-linejoin:round;stroke-miterlimit:10;}
	.st275{fill:#60392D;}
	.st276{fill:#CCCCCC;}
	.st277{fill:#844F3E;}
	.st278{fill:#F3FFFB;}
	.st279{fill:#365E60;}
	.st280{fill:#D84545;}
	.st281{fill:#A83B3B;}
	.st282{fill:#253F70;}
	.st283{fill:#EAADAD;}
	.st284{fill:#443E7C;}
	.st285{fill:#3D6B9F;}
	.st286{fill:#4274BC;}
	.st287{fill:#AF3827;}
	.st288{fill:#E59D9D;}
	.st289{fill:#C48989;}
	.st290{fill:none;stroke:#9B621A;stroke-width:10;stroke-linecap:round;stroke-linejoin:round;stroke-miterlimit:10;}
	.st291{fill:#213A5E;}
	.st292{fill:#2D507A;}
	.st293{fill:#528EC8;}
	.st294{fill:#EFD696;}
	.st295{fill:#D1BA87;}
	.st296{fill:#FDFCFC;}
	.st297{fill:#86CBFC;}
	.st298{fill:#7AB7DA;}
	.st299{fill:#192C4C;}
	.st300{fill:#BCBCBC;}
	.st301{fill:#A13838;}
	.st302{fill:#75BDF6;}
	.st303{fill:#D0B1AA;}
	.st304{fill:#142233;}
	.st305{fill:#E6C4BB;}
	.st306{fill:#BDBDBD;}
	.st307{fill:#E8A192;}
	.st308{fill:#A43939;}
	.st309{fill:#162640;}
	.st310{fill:#27457C;}
	.st311{fill:#EFBE5E;}
	.st312{fill:#87EDC5;}
	.st313{fill:#A03838;}
	.st314{fill:#833232;}
	.st315{fill:#47417F;}
	.st316{fill:none;stroke:#915F55;stroke-width:10;stroke-linecap:round;stroke-miterlimit:10;}
	.st317{fill:#BC8B25;}
	.st318{fill:#473129;}
	.st319{fill:#67B394;}
	.st320{fill:#599A80;}
	.st321{fill:#B13D3D;}
</style>
<g id="BULINE">
	<circle id="XMLID_2789_" class="st10" cx="256" cy="256" r="256"/>
	<g>
	</g>
</g>
<g id="Icons">
	<g id="XMLID_2790_">
		<path id="XMLID_3141_" class="st198" d="M474.1,132.5c0,52.1-18.1,100.1-48.5,137.8c-9.5,11.8-20.2,22.6-31.8,32.2
			c-20.2,16.6-43.4,29.7-68.6,38.3c-8.8,3-17.8,5.5-27.1,7.4c-5.2,1.1-10.5,1.9-15.8,2.6c-8.2,1.1-16.6,1.6-25.1,1.8
			c-0.1,0-0.2,0-0.3,0c-0.9,0-1.9,0-2.8,0c-1.6,0-3.1,0-4.7,0c-0.1,0-0.2,0-0.3,0c-0.5,0-1,0-1.5,0c-7.6-0.2-15.1-0.8-22.5-1.8
			c-0.3,0-0.5-0.1-0.8-0.1c-5.4-0.7-10.7-1.7-16-2.8c-6.4-1.4-12.8-3-19-4.9c-2.1-0.6-4.3-1.3-6.4-2.1c0,0,0,0,0,0
			c-9.6-3.3-18.9-7.2-27.8-11.7c-15.3-7.7-29.7-17.2-42.7-28.2c-10.9-9.2-21-19.5-29.9-30.6v0C52,232.6,33.9,184.7,33.9,132.5
			c0-1.3,0-2.7,0-4C78.1,51.7,161,0,256,0c92,0,172.7,48.5,217.8,121.4C474,125.1,474.1,128.8,474.1,132.5z"/>
		<g id="XMLID_2791_">
			<path id="XMLID_3083_" class="st23" d="M427,286.4v160.1c-10.7,9.6-22.2,18.4-34.5,26.1c-18.5,11.7-38.7,21.1-60.1,27.8
				c-24.1,7.5-49.8,11.6-76.4,11.6c-28.5,0-56-4.7-81.6-13.3c-5.9-2-11.8-4.2-17.5-6.6c-0.6-0.3-1.3-0.5-1.9-0.8
				c-14.1-6.1-27.6-13.4-40.3-21.8c-0.1-0.1-0.2-0.2-0.4-0.2c-11.8-7.9-23-16.7-33.3-26.4c0,0,0,0,0,0V286.4c0-3.2,0.2-6.4,0.5-9.6
				c0.1-0.8,0.2-1.6,0.3-2.4c0.2-1.4,0.4-2.7,0.6-4.1v0c0.3-1.7,0.6-3.5,1-5.1c0.3-1.5,0.7-3,1.2-4.5c0.4-1.5,0.9-3,1.4-4.4
				c0.5-1.5,1-2.9,1.6-4.3c0.4-1.1,0.9-2.1,1.3-3.2c0.5-1,0.9-2.1,1.4-3.1v0c0.8-1.5,1.5-3.1,2.3-4.6c0.6-1,1.1-2,1.7-2.9
				c0.9-1.5,1.8-2.9,2.7-4.3c0.8-1.2,1.7-2.5,2.6-3.7c0.9-1.2,1.8-2.4,2.8-3.5c0,0,0,0,0,0c1.4-1.7,2.9-3.4,4.5-5v0
				c1-1.1,2.1-2.1,3.2-3.2c0,0,0,0,0,0c1.6-1.6,3.3-3.1,5-4.5c0,0,0,0,0,0c1.2-1,2.3-1.9,3.5-2.8c1.2-0.9,2.4-1.8,3.7-2.6
				c1.1-0.7,2.1-1.4,3.2-2.1c2.8-1.7,5.6-3.3,8.6-4.7h0c1-0.5,2.1-1,3.1-1.4c1-0.5,2.1-0.9,3.2-1.3c0,0,0,0,0,0
				c1.4-0.6,2.9-1.1,4.3-1.6c1.5-0.5,2.9-0.9,4.4-1.4c1.5-0.4,3-0.8,4.5-1.2c0,0,0,0,0,0c3-0.7,6.1-1.3,9.2-1.6
				c0.8-0.1,1.6-0.2,2.4-0.3c3.1-0.3,6.3-0.5,9.6-0.5H333c17.7,0,34.3,4.9,48.4,13.4c22.9,13.8,39.5,37.1,44.2,64.5
				C426.5,275.5,427,280.9,427,286.4z"/>
			<path id="XMLID_2969_" class="st73" d="M248.9,192.4c-25.8,0-49.1,10.4-66.1,27.2c-10.9,10.8-19.2,24.2-23.8,39.2
				c0,0.1-0.1,0.2-0.1,0.3c-0.2,0.8-0.5,1.6-0.7,2.4c-1.7,6.2-2.8,12.6-3.2,19.2c-0.1,1.9-0.2,3.8-0.2,5.6v204.9
				c-14.1-6.1-27.6-13.4-40.3-21.8c-0.1-0.1-0.2-0.2-0.4-0.2c-11.8-7.9-23-16.7-33.3-26.4V286.4c0-3.2,0.2-6.4,0.5-9.6
				c0.1-0.8,0.2-1.6,0.3-2.4c0.2-1.4,0.4-2.7,0.6-4.1v0c0.3-1.7,0.6-3.4,1-5.1c0.3-1.5,0.7-3,1.2-4.5c0.4-1.5,0.9-3,1.4-4.4
				c0.5-1.5,1-2.9,1.6-4.3c0.4-1.1,0.9-2.1,1.3-3.2c0.5-1,0.9-2.1,1.4-3.1v0c0.8-1.5,1.5-3.1,2.3-4.6c0.6-1,1.1-2,1.7-2.9
				c0.9-1.5,1.8-2.9,2.7-4.3c0.8-1.2,1.7-2.5,2.6-3.7c0.9-1.2,1.8-2.4,2.8-3.5c0,0,0,0,0,0c1.5-1.7,2.9-3.4,4.5-5v0
				c1-1.1,2.1-2.1,3.2-3.2c0,0,0,0,0,0c1.6-1.6,3.3-3,5-4.5c0,0,0,0,0,0c1.2-0.9,2.3-1.9,3.5-2.8c1.2-0.9,2.4-1.8,3.7-2.6
				c1.1-0.7,2.1-1.4,3.2-2.1c2.8-1.7,5.6-3.3,8.6-4.7h0c1-0.5,2.1-1,3.1-1.4c1-0.5,2.1-0.9,3.2-1.3c0,0,0,0,0,0
				c1.4-0.5,2.9-1.1,4.3-1.6c1.5-0.5,2.9-0.9,4.4-1.4c1.5-0.4,3-0.8,4.5-1.2c0,0,0,0,0,0c3-0.7,6.1-1.2,9.2-1.6
				c0.8-0.1,1.6-0.2,2.4-0.3c3.1-0.3,6.4-0.5,9.6-0.5H248.9z"/>
			<path id="XMLID_2999_" class="st51" d="M392.5,389.6v83c-18.5,11.7-38.7,21.1-60.1,27.8c-24.1,7.5-49.8,11.6-76.4,11.6
				c-28.5,0-56-4.7-81.6-13.3c-5.9-2-11.8-4.2-17.5-6.6c-0.6-0.3-1.3-0.5-1.9-0.8c-14.1-6.1-27.6-13.4-40.3-21.8
				c-0.1-0.1-0.2-0.2-0.4-0.2v-79.6c0-15.2,7-28.8,17.9-37.8c6.4-5.3,14.2-8.9,22.8-10.3c2.6-0.4,5.4-0.7,8.1-0.7h180.6
				c0.8,0,1.7,0,2.5,0.1c0.3,0,0.6,0,0.9,0.1c0.2,0,0.4,0,0.7,0c0.4,0,0.7,0.1,1.1,0.1c0.3,0,0.6,0.1,0.9,0.1
				c0.5,0.1,1.1,0.2,1.6,0.2c0.3,0,0.7,0.1,1,0.2c0.4,0.1,0.8,0.1,1.2,0.2c0.3,0.1,0.6,0.1,0.9,0.2c0.1,0,0.2,0,0.2,0.1
				c0.4,0.1,0.8,0.2,1.2,0.3c0.2,0,0.4,0.1,0.6,0.1c0.4,0.1,0.7,0.2,1.1,0.3c0.2,0.1,0.4,0.1,0.5,0.2c0.8,0.3,1.7,0.5,2.5,0.8
				c0.3,0.1,0.7,0.2,1,0.4c0.8,0.3,1.6,0.6,2.3,1c0.3,0.1,0.6,0.2,0.8,0.4c0.1,0,0.2,0.1,0.3,0.1c0.6,0.3,1.2,0.6,1.8,0.9
				c0,0,0,0,0.1,0c0.1,0,0.2,0.1,0.3,0.2c0.1,0,0.2,0.1,0.3,0.2h0c0.1,0.1,0.3,0.2,0.4,0.2c0.7,0.4,1.5,0.9,2.2,1.3
				c0.6,0.4,1.3,0.9,1.9,1.3c0.6,0.4,1.2,0.9,1.8,1.4c0,0,0,0,0,0c0.1,0.1,0.2,0.2,0.3,0.3c0.2,0.2,0.4,0.3,0.6,0.5
				c0.3,0.3,0.7,0.5,1,0.8c0.2,0.2,0.4,0.3,0.6,0.5c0.4,0.3,0.7,0.7,1.1,1c0,0,0,0,0,0c0.2,0.2,0.4,0.4,0.6,0.6c0.5,0.5,1,1,1.5,1.6
				c0.5,0.5,1,1.1,1.5,1.6c0.5,0.6,0.9,1.1,1.4,1.7c0.4,0.6,0.9,1.2,1.3,1.8c0.4,0.6,0.8,1.2,1.2,1.8c0.4,0.6,0.8,1.2,1.2,1.9
				c0.2,0.4,0.4,0.8,0.6,1.2c0.1,0.3,0.3,0.5,0.4,0.8c0,0.1,0.1,0.2,0.1,0.3c0.2,0.4,0.4,0.9,0.6,1.3c0,0,0,0.1,0,0.1
				c0,0.1,0.1,0.2,0.1,0.3c0.1,0.1,0.1,0.2,0.1,0.3c0.2,0.5,0.5,1,0.7,1.5c0.1,0.2,0.2,0.4,0.3,0.7c0.2,0.4,0.3,0.8,0.4,1.1
				c0.2,0.6,0.4,1.2,0.7,1.9c0,0.1,0.1,0.2,0.1,0.3c0.1,0.2,0.1,0.4,0.2,0.6c0.1,0.3,0.2,0.5,0.2,0.8c0.1,0.3,0.2,0.6,0.2,0.9
				c0.1,0.4,0.2,0.8,0.3,1.2c0.1,0.3,0.1,0.7,0.2,1c0.2,0.8,0.3,1.5,0.4,2.3c0,0.2,0.1,0.5,0.1,0.8c0,0.2,0.1,0.5,0.1,0.8
				c0.1,0.6,0.2,1.3,0.2,2C392.4,386.8,392.5,388.2,392.5,389.6z"/>
			<path id="XMLID_2951_" class="st177" d="M392.5,435.2v37.4c-18.5,11.7-38.7,21.1-60.1,27.8v-58c0-4,3.2-7.2,7.2-7.2H392.5z"/>
			<path id="XMLID_2965_" class="st36" d="M203.3,340.9c-4.9,0-9.6,0.7-14.1,2.1c-15,4.5-27,16.1-32.1,30.8c-1,2.9-1.7,5.9-2.2,9
				c-0.3,2.3-0.5,4.6-0.5,6.9v101c0.2,0.1,0.3,0.2,0.5,0.3c0.1,0,0.1,0.1,0.2,0.1c0.6,0.3,1.1,0.7,1.7,1c-0.6-0.3-1.3-0.5-1.9-0.8
				c-14.1-6.1-27.6-13.4-40.3-21.8v-79.8c0-15.1,6.9-28.6,17.7-37.6c6.4-5.3,14.1-9,22.6-10.5c2.8-0.5,5.6-0.7,8.5-0.7H203.3z"/>
			<path id="XMLID_2946_" class="st177" d="M174.4,442.4v56.4c-5.9-2-11.8-4.2-17.5-6.6c-0.6-0.3-1.3-0.5-1.9-0.8
				c-14.1-6.1-27.6-13.4-40.3-21.8c-0.1-0.1-0.2-0.2-0.4-0.2v-34.1h52.9C171.2,435.2,174.4,438.4,174.4,442.4z"/>
			<path id="XMLID_2954_" class="st178" d="M155.2,491.1c0.6,0.3,1.1,0.7,1.7,1c-0.6-0.3-1.3-0.5-1.9-0.8
				c-14.1-6.1-27.6-13.4-40.3-21.8v-34.3h39.8v55.5c0.2,0.1,0.3,0.2,0.5,0.3C155.1,491,155.1,491,155.2,491.1z"/>
			<path id="XMLID_2896_" class="st177" d="M263.3,362.7h-19.4c-11.6,0-21-9.4-21-21v-28.4c0-11.6,9.4-21,21-21h19.4
				c11.6,0,21,9.4,21,21v28.4C284.2,353.3,274.9,362.7,263.3,362.7z"/>
			<path id="XMLID_2895_" class="st178" d="M264.3,362.5c-1.1,0.1-2.2,0.2-3.3,0.2h-15.7c-12.6,0-22.8-8.6-22.8-19.3v-31.7
				c0-10.6,10.2-19.3,22.8-19.3H261c1.1,0,2.2,0.1,3.3,0.2c-11,1.4-19.5,9.4-19.5,19.1v31.7C244.8,353.1,253.3,361.2,264.3,362.5z"
				/>
			<path id="XMLID_2894_" class="st177" d="M212.4,307c-0.1,0-0.2-0.1-0.3-0.1C212.2,306.9,212.3,306.9,212.4,307z"/>
			<path id="XMLID_2893_" class="st177" d="M163.6,269.4c-2.9-3.9-5.5-8-7.8-12.2C158.1,261.4,160.7,265.5,163.6,269.4z"/>
			<path id="XMLID_2892_" class="st177" d="M198.3,300.2c-0.3-0.2-0.6-0.3-0.9-0.5C197.7,299.9,198,300,198.3,300.2z"/>
			<path id="XMLID_2888_" class="st177" d="M223.1,310.6c-0.2,0-0.3-0.1-0.5-0.1C222.8,310.5,222.9,310.5,223.1,310.6z"/>
			<path id="XMLID_2887_" class="st177" d="M210,306c-0.2-0.1-0.4-0.2-0.6-0.2C209.6,305.8,209.8,305.9,210,306z"/>
			<path id="XMLID_2886_" class="st177" d="M166.5,273.1c-0.4-0.5-0.7-0.9-1.1-1.4C165.7,272.2,166.1,272.7,166.5,273.1z"/>
			<path id="XMLID_2885_" class="st177" d="M165,271.2c-0.4-0.5-0.8-1-1.2-1.5C164.2,270.2,164.6,270.7,165,271.2z"/>
			<path id="XMLID_2884_" class="st177" d="M153.3,252.5c-0.3-0.6-0.6-1.3-0.9-1.9C152.7,251.2,153,251.8,153.3,252.5z"/>
			<path id="XMLID_2883_" class="st177" d="M184.8,291.2c-0.2-0.2-0.4-0.3-0.6-0.5C184.4,290.9,184.6,291,184.8,291.2z"/>
			<path id="XMLID_2882_" class="st177" d="M152.2,250.2c-0.3-0.7-0.6-1.3-0.9-2C151.6,248.9,151.9,249.5,152.2,250.2z"/>
			<path id="XMLID_2881_" class="st177" d="M220.3,309.7c-0.1,0-0.1,0-0.2-0.1C220.1,309.7,220.2,309.7,220.3,309.7z"/>
			<path id="XMLID_2880_" class="st177" d="M154.5,254.7c-0.3-0.6-0.7-1.3-1-1.9C153.8,253.5,154.1,254.1,154.5,254.7z"/>
			<path id="XMLID_2879_" class="st177" d="M155.7,257c-0.4-0.7-0.7-1.3-1.1-2C155,255.7,155.3,256.3,155.7,257z"/>
			<path id="XMLID_2878_" class="st177" d="M174.9,282.5c-0.3-0.3-0.7-0.7-1-1C174.2,281.8,174.6,282.1,174.9,282.5z"/>
			<path id="XMLID_2877_" class="st177" d="M173.1,280.7c-0.3-0.4-0.7-0.7-1-1.1C172.4,279.9,172.8,280.3,173.1,280.7z"/>
			<path id="XMLID_2876_" class="st177" d="M180.5,287.7c-0.3-0.3-0.7-0.6-1-0.9C179.9,287.1,180.2,287.4,180.5,287.7z"/>
			<path id="XMLID_2875_" class="st177" d="M202.9,302.7c-0.3-0.1-0.5-0.3-0.8-0.4C202.3,302.4,202.6,302.5,202.9,302.7z"/>
			<path id="XMLID_2874_" class="st177" d="M176.7,284.3c-0.3-0.3-0.7-0.7-1-1C176.1,283.6,176.4,283.9,176.7,284.3z"/>
			<path id="XMLID_2873_" class="st177" d="M200.6,301.5c-0.3-0.2-0.6-0.3-0.8-0.5C200,301.2,200.3,301.3,200.6,301.5z"/>
			<path id="XMLID_2872_" class="st177" d="M169.7,276.9c-0.4-0.4-0.7-0.8-1-1.2C169,276.1,169.3,276.5,169.7,276.9z"/>
			<path id="XMLID_2871_" class="st177" d="M207.6,304.9c-0.2-0.1-0.5-0.2-0.7-0.3C207.1,304.7,207.4,304.8,207.6,304.9z"/>
			<path id="XMLID_2870_" class="st177" d="M168,275c-0.4-0.4-0.7-0.8-1.1-1.3C167.3,274.2,167.7,274.6,168,275z"/>
			<path id="XMLID_2869_" class="st177" d="M205.2,303.8c-0.3-0.1-0.5-0.3-0.8-0.4C204.7,303.6,205,303.7,205.2,303.8z"/>
			<path id="XMLID_2868_" class="st177" d="M182.5,289.4c-0.3-0.2-0.6-0.5-0.9-0.7C181.9,288.9,182.2,289.1,182.5,289.4z"/>
			<path id="XMLID_2867_" class="st177" d="M171.4,278.8c-0.3-0.4-0.7-0.8-1-1.1C170.7,278.1,171,278.4,171.4,278.8z"/>
			<path id="XMLID_2866_" class="st177" d="M233.9,313c-0.3,0-0.5-0.1-0.8-0.1C233.4,312.9,233.6,313,233.9,313z"/>
			<path id="XMLID_2865_" class="st177" d="M189.4,294.6c-0.3-0.2-0.5-0.4-0.8-0.5C188.9,294.2,189.2,294.4,189.4,294.6z"/>
			<path id="XMLID_2864_" class="st177" d="M231.2,312.5c-0.3-0.1-0.5-0.1-0.8-0.2C230.7,312.4,230.9,312.5,231.2,312.5z"/>
			<path id="XMLID_2863_" class="st177" d="M191.6,296.1c-0.3-0.2-0.6-0.4-0.8-0.6C191.1,295.7,191.3,295.9,191.6,296.1z"/>
			<path id="XMLID_2862_" class="st177" d="M236.6,313.4c-0.3,0-0.5-0.1-0.8-0.1C236.1,313.4,236.3,313.4,236.6,313.4z"/>
			<path id="XMLID_2861_" class="st177" d="M196,298.9c-0.3-0.2-0.6-0.3-0.9-0.5C195.5,298.5,195.7,298.7,196,298.9z"/>
			<path id="XMLID_2860_" class="st177" d="M178.6,286c-0.3-0.3-0.7-0.6-1-0.9C178,285.4,178.3,285.7,178.6,286z"/>
			<path id="XMLID_2859_" class="st177" d="M193.8,297.5c-0.3-0.2-0.6-0.4-0.8-0.5C193.2,297.2,193.5,297.3,193.8,297.5z"/>
			<path id="XMLID_2858_" class="st177" d="M149.3,243.3c-3.3-8.6-5.6-17.7-6.6-27.2C143.7,225.5,146,234.6,149.3,243.3z"/>
			<path id="XMLID_2857_" class="st177" d="M225.8,311.3c-0.2-0.1-0.4-0.1-0.6-0.2C225.4,311.2,225.6,311.2,225.8,311.3z"/>
			<path id="XMLID_2856_" class="st177" d="M187.2,293c-0.2-0.2-0.5-0.3-0.7-0.5C186.8,292.7,187,292.9,187.2,293z"/>
			<path id="XMLID_2855_" class="st177" d="M150.2,245.6c-0.3-0.7-0.6-1.4-0.8-2.1C149.6,244.1,149.9,244.8,150.2,245.6z"/>
			<path id="XMLID_2854_" class="st177" d="M228.5,311.9c-0.2-0.1-0.5-0.1-0.7-0.2C228,311.8,228.3,311.9,228.5,311.9z"/>
			<path id="XMLID_2853_" class="st177" d="M151.2,247.9c-0.3-0.7-0.6-1.4-0.9-2C150.6,246.5,150.9,247.2,151.2,247.9z"/>
			<path id="XMLID_2852_" class="st177" d="M369.1,170.7c-0.7-0.1-1.5-0.2-2.2-0.2h-2.6v-17.3c0-36.6-17.7-69.1-45-89.4
				c-7.5,12.5-27.1,34.3-75.2,45.9c-5.6,1.4-10.3-4.3-8-9.6c4.3-9.8,9.2-23.7,8.9-36c-0.2-6.9-9.3-9.1-12.5-3
				c-4.6,8.4-11.9,18.6-22.8,25.1c-2,1.2-4.1,1.2-6,0.5c-13.9,18.6-22.1,41.6-22.1,66.6v44.2v6.1c0,54.6,39.4,100.1,91.4,109.5
				c47.9-8.6,85.2-48,90.7-96.9h3.3c8.5,0,15.4-6.9,15.4-15.4v-14.7C382.3,178.2,376.6,171.8,369.1,170.7z"/>
			<path id="XMLID_2851_" class="st178" d="M197.4,299.7c-0.5-0.3-0.9-0.5-1.4-0.8C196.5,299.2,197,299.4,197.4,299.7z"/>
			<path id="XMLID_2850_" class="st178" d="M195.2,298.4c-0.5-0.3-0.9-0.6-1.4-0.9C194.3,297.8,194.7,298.1,195.2,298.4z"/>
			<path id="XMLID_2849_" class="st178" d="M199.7,301c-0.5-0.3-1-0.5-1.4-0.8C198.8,300.5,199.2,300.7,199.7,301z"/>
			<path id="XMLID_2848_" class="st178" d="M227.8,311.8c-0.7-0.2-1.3-0.3-2-0.5C226.5,311.5,227.1,311.6,227.8,311.8z"/>
			<path id="XMLID_2847_" class="st178" d="M230.4,312.4c-0.6-0.1-1.3-0.3-1.9-0.4C229.2,312.1,229.8,312.2,230.4,312.4z"/>
			<path id="XMLID_2846_" class="st178" d="M225.2,311.1c-0.7-0.2-1.4-0.4-2.1-0.6C223.8,310.8,224.5,311,225.2,311.1z"/>
			<path id="XMLID_2845_" class="st178" d="M233.1,312.9c-0.6-0.1-1.3-0.2-1.9-0.4C231.8,312.6,232.5,312.8,233.1,312.9z"/>
			<path id="XMLID_2844_" class="st178" d="M238.5,313.7c-0.7-0.1-1.3-0.2-1.9-0.3C237.2,313.5,237.9,313.6,238.5,313.7z"/>
			<path id="XMLID_2842_" class="st178" d="M202,302.3c-0.5-0.3-1-0.5-1.5-0.8C201.1,301.7,201.6,302,202,302.3z"/>
			<path id="XMLID_2841_" class="st178" d="M222.6,310.4c-0.8-0.2-1.6-0.5-2.3-0.7C221,310,221.8,310.2,222.6,310.4z"/>
			<path id="XMLID_2840_" class="st178" d="M235.8,313.3c-0.6-0.1-1.3-0.2-1.9-0.3C234.5,313.1,235.2,313.2,235.8,313.3z"/>
			<path id="XMLID_2838_" class="st178" d="M220.1,309.7c-2.6-0.8-5.1-1.7-7.6-2.7C214.9,308,217.5,308.9,220.1,309.7z"/>
			<path id="XMLID_2837_" class="st178" d="M206.9,304.6c-0.6-0.3-1.1-0.5-1.7-0.8C205.8,304.1,206.3,304.4,206.9,304.6z"/>
			<path id="XMLID_2836_" class="st178" d="M204.4,303.5c-0.5-0.3-1-0.5-1.6-0.8C203.4,302.9,203.9,303.2,204.4,303.5z"/>
			<path id="XMLID_2835_" class="st178" d="M209.4,305.7c-0.6-0.3-1.2-0.5-1.8-0.8C208.2,305.2,208.8,305.5,209.4,305.7z"/>
			<path id="XMLID_2834_" class="st178" d="M212.1,306.9c-0.7-0.3-1.4-0.6-2.1-0.9C210.7,306.3,211.4,306.6,212.1,306.9z"/>
			<path id="XMLID_2833_" class="st178" d="M151.3,248.2c0-0.1-0.1-0.2-0.1-0.3C151.2,248,151.3,248.1,151.3,248.2z"/>
			<path id="XMLID_2832_" class="st178" d="M193,297c-0.5-0.3-0.9-0.6-1.3-0.9C192.1,296.4,192.5,296.7,193,297z"/>
			<path id="XMLID_2831_" class="st178" d="M149.3,243.4c0-0.1,0-0.1-0.1-0.2C149.3,243.3,149.3,243.4,149.3,243.4z"/>
			<path id="XMLID_2830_" class="st178" d="M154.6,255c-0.1-0.1-0.1-0.2-0.2-0.3C154.5,254.8,154.6,254.9,154.6,255z"/>
			<path id="XMLID_2829_" class="st178" d="M152.4,250.5c-0.1-0.1-0.1-0.2-0.2-0.4C152.3,250.3,152.3,250.4,152.4,250.5z"/>
			<path id="XMLID_2828_" class="st178" d="M153.5,252.8c-0.1-0.1-0.1-0.2-0.2-0.3C153.4,252.6,153.4,252.7,153.5,252.8z"/>
			<path id="XMLID_2827_" class="st178" d="M155.8,257.2c0-0.1-0.1-0.1-0.1-0.2C155.7,257.1,155.7,257.1,155.8,257.2z"/>
			<path id="XMLID_2826_" class="st178" d="M150.3,245.8c0-0.1-0.1-0.2-0.1-0.3C150.2,245.6,150.3,245.7,150.3,245.8z"/>
			<path id="XMLID_2825_" class="st178" d="M181.6,288.6c-0.4-0.3-0.7-0.6-1.1-0.9C180.9,288,181.3,288.3,181.6,288.6z"/>
			<path id="XMLID_2824_" class="st178" d="M179.6,286.8c-0.3-0.3-0.6-0.6-0.9-0.8C178.9,286.3,179.3,286.6,179.6,286.8z"/>
			<path id="XMLID_2823_" class="st178" d="M184.2,290.7c-0.6-0.4-1.1-0.9-1.7-1.3C183.1,289.8,183.6,290.3,184.2,290.7z"/>
			<path id="XMLID_2822_" class="st178" d="M163.8,269.7c-0.1-0.1-0.1-0.2-0.2-0.3C163.7,269.5,163.7,269.6,163.8,269.7z"/>
			<path id="XMLID_2821_" class="st178" d="M177.6,285.1c-0.3-0.3-0.6-0.5-0.9-0.8C177,284.5,177.3,284.8,177.6,285.1z"/>
			<path id="XMLID_2820_" class="st178" d="M188.6,294.1c-0.5-0.3-0.9-0.7-1.4-1C187.7,293.4,188.2,293.7,188.6,294.1z"/>
			<path id="XMLID_2819_" class="st178" d="M186.5,292.5c-0.6-0.4-1.2-0.9-1.8-1.4C185.4,291.6,185.9,292.1,186.5,292.5z"/>
			<path id="XMLID_2818_" class="st178" d="M190.8,295.5c-0.5-0.3-0.9-0.6-1.4-0.9C189.9,294.9,190.3,295.2,190.8,295.5z"/>
			<path id="XMLID_2817_" class="st178" d="M167,273.8c-0.2-0.2-0.3-0.4-0.5-0.6C166.6,273.3,166.8,273.5,167,273.8z"/>
			<path id="XMLID_2816_" class="st178" d="M165.4,271.7c-0.1-0.2-0.3-0.3-0.4-0.5C165.1,271.4,165.2,271.6,165.4,271.7z"/>
			<path id="XMLID_2815_" class="st178" d="M175.7,283.3c-0.3-0.3-0.5-0.5-0.8-0.8C175.2,282.8,175.5,283,175.7,283.3z"/>
			<path id="XMLID_2814_" class="st178" d="M168.6,275.7c-0.2-0.2-0.4-0.5-0.6-0.7C168.2,275.3,168.4,275.5,168.6,275.7z"/>
			<path id="XMLID_2813_" class="st178" d="M173.9,281.5c-0.3-0.3-0.5-0.5-0.8-0.8C173.4,280.9,173.6,281.2,173.9,281.5z"/>
			<path id="XMLID_2812_" class="st178" d="M170.3,277.7c-0.2-0.2-0.4-0.5-0.7-0.7C169.9,277.2,170.1,277.4,170.3,277.7z"/>
			<path id="XMLID_2811_" class="st178" d="M172.1,279.6c-0.2-0.3-0.5-0.5-0.7-0.8C171.6,279.1,171.8,279.3,172.1,279.6z"/>
			<path id="XMLID_2809_" class="st178" d="M201.3,54.8C201.3,54.8,201.3,54.8,201.3,54.8c-35.3,18.6-59.3,55.7-59.3,98.4v0
				C141.9,110.5,166,73.5,201.3,54.8z"/>
			<path id="XMLID_2808_" class="st178" d="M181.7,203.5v-6.1v-44.2c0-25,8.2-48,22.1-66.6c-3-1.2-5.2-4.5-4.3-8.2
				c1.9-7.6,3.3-16.9,1.8-23.7c-35.3,18.6-59.3,55.7-59.3,98.4v17.3h-2.1c-1.4,0-2.7,0.2-4,0.5c-6.6,1.8-11.4,7.7-11.4,14.8v14.7
				c0,8.5,6.9,15.4,15.4,15.4h2.8c0,0,0,0,0,0c1.1,9.5,3.3,18.6,6.6,27.2c0,0.1,0,0.1,0.1,0.2c0.3,0.7,0.6,1.4,0.8,2.1
				c0,0.1,0.1,0.2,0.1,0.3c0.3,0.7,0.6,1.4,0.9,2c0,0.1,0.1,0.2,0.1,0.3c0.3,0.7,0.6,1.3,0.9,2c0.1,0.1,0.1,0.2,0.2,0.4
				c0.3,0.7,0.6,1.3,0.9,1.9c0.1,0.1,0.1,0.2,0.2,0.3c0.3,0.6,0.6,1.3,1,1.9c0,0.1,0.1,0.2,0.2,0.3c0.3,0.7,0.7,1.3,1.1,2
				c0,0.1,0.1,0.1,0.1,0.2c2.3,4.2,5,8.3,7.8,12.2c0.1,0.1,0.1,0.2,0.2,0.3c0.4,0.5,0.8,1,1.2,1.5c0.1,0.2,0.3,0.3,0.4,0.5
				c0.4,0.5,0.7,0.9,1.1,1.4c0.2,0.2,0.3,0.4,0.5,0.6c0.3,0.4,0.7,0.9,1.1,1.3c0.2,0.2,0.4,0.5,0.6,0.7c0.3,0.4,0.7,0.8,1,1.2
				c0.2,0.2,0.4,0.5,0.7,0.7c0.3,0.4,0.7,0.8,1,1.1c0.2,0.3,0.5,0.5,0.7,0.8c0.3,0.4,0.7,0.7,1,1.1c0.3,0.3,0.5,0.5,0.8,0.8
				c0.3,0.3,0.7,0.7,1,1c0.3,0.3,0.5,0.5,0.8,0.8c0.3,0.3,0.7,0.7,1,1c0.3,0.3,0.6,0.5,0.9,0.8c0.3,0.3,0.7,0.6,1,0.9
				c0.3,0.3,0.6,0.6,0.9,0.8c0.3,0.3,0.6,0.6,1,0.9c0.4,0.3,0.7,0.6,1.1,0.9c0.3,0.2,0.6,0.5,0.9,0.7c0.5,0.5,1.1,0.9,1.7,1.3
				c0.2,0.2,0.4,0.3,0.6,0.5c0.6,0.5,1.2,0.9,1.8,1.4c0.2,0.2,0.5,0.3,0.7,0.5c0.5,0.3,0.9,0.7,1.4,1c0.3,0.2,0.5,0.4,0.8,0.5
				c0.4,0.3,0.9,0.6,1.4,0.9c0.3,0.2,0.6,0.4,0.8,0.6c0.4,0.3,0.9,0.6,1.3,0.9c0.3,0.2,0.6,0.4,0.8,0.5c0.5,0.3,0.9,0.6,1.4,0.9
				c0.3,0.2,0.6,0.3,0.9,0.5c0.5,0.3,0.9,0.6,1.4,0.8c0.3,0.2,0.6,0.3,0.9,0.5c0.5,0.3,1,0.5,1.4,0.8c0.3,0.2,0.6,0.3,0.8,0.5
				c0.5,0.3,1,0.5,1.5,0.8c0.3,0.1,0.5,0.3,0.8,0.4c0.5,0.3,1,0.5,1.6,0.8c0.3,0.1,0.5,0.3,0.8,0.4c0.6,0.3,1.1,0.5,1.7,0.8
				c0.2,0.1,0.5,0.2,0.7,0.3c0.6,0.3,1.2,0.5,1.8,0.8c0.2,0.1,0.4,0.2,0.6,0.2c0.7,0.3,1.4,0.6,2.1,0.9c0.1,0,0.2,0.1,0.3,0.1
				c2.5,1,5.1,1.9,7.6,2.7c0.1,0,0.1,0,0.2,0.1c0.8,0.2,1.6,0.5,2.3,0.7c0.2,0,0.3,0.1,0.5,0.1c0.7,0.2,1.4,0.4,2.1,0.6
				c0.2,0.1,0.4,0.1,0.6,0.2c0.7,0.2,1.3,0.3,2,0.5c0.2,0.1,0.5,0.1,0.7,0.2c0.6,0.1,1.3,0.3,1.9,0.4c0.3,0.1,0.5,0.1,0.8,0.2
				c0.6,0.1,1.3,0.2,1.9,0.4c0.3,0,0.5,0.1,0.8,0.1c0.6,0.1,1.3,0.2,1.9,0.3c0.3,0,0.5,0.1,0.8,0.1c0.6,0.1,1.3,0.2,1.9,0.3
				c0.3,0,0.5,0.1,0.8,0.1c0.7,0.1,1.3,0.2,2,0.2c0.2,0,0.5,0.1,0.7,0.1c0.7,0.1,1.4,0.1,2.1,0.2c0.2,0,0.4,0,0.6,0
				c0.8,0.1,1.6,0.1,2.4,0.2c0.1,0,0.2,0,0.4,0c1.9,0.1,3.8,0.1,5.7,0.1h0c0.1,0,0.2,0,0.2,0c1.5,0,2.9,0,4.4-0.1c0.2,0,0.4,0,0.6,0
				c1.5-0.1,2.9-0.2,4.4-0.3c0.2,0,0.5,0,0.7-0.1c1.4-0.1,2.9-0.3,4.3-0.5c0.2,0,0.5-0.1,0.7-0.1c1.4-0.2,2.8-0.4,4.3-0.7
				c0.1,0,0.2,0,0.3-0.1C221.1,303.5,181.7,258.1,181.7,203.5z"/>
			<line id="XMLID_2807_" class="st25" x1="201.3" y1="54.8" x2="201.3" y2="54.8"/>
			<path id="XMLID_2805_" class="st8" d="M284,13.8c-0.2,0-0.5-0.1-0.8-0.1c-0.1,0-0.2,0-0.3,0c-0.8-0.1-1.5-0.1-2.3-0.1
				c-1.6-0.1-3.3-0.1-4.9-0.1h-46.4c-1.6,0-3.3,0-4.9,0.1c-4,0.2-8,0.7-11.9,1.4c-2.1,0.4-4.2,0.9-6.2,1.4c-2.6,0.7-5.2,1.5-7.7,2.3
				c-1.2,0.4-2.3,0.9-3.5,1.3c-1.1,0.4-2.2,0.9-3.3,1.4c-1.1,0.5-2.2,1-3.2,1.5c-0.5,0.2-1,0.5-1.5,0.8c-1,0.5-2,1.1-3,1.6
				c-30.6,17.3-51,51.6-49.9,90.6l1.6,55.2c0,0,0,0,0.1,0c0.3-0.1,0.5-0.1,0.8-0.2c0,0,0.1,0,0.1,0c0,0,0,0,0,0
				c0.2-0.1,0.5-0.1,0.7-0.1c0.1,0,0.2,0,0.2,0c0.1,0,0.2,0,0.3,0c0.2,0,0.4,0,0.6-0.1c0.2,0,0.3,0,0.5,0h0c0.2,0,0.3,0,0.5,0h2.1
				v-17.3c0-0.9,0-1.8,0-2.7v-0.3c0-0.3,0-0.5,0-0.8c0-0.1,0-0.2,0-0.4v-0.1c0-0.4,0-0.9,0-1.3c0-0.3,0-0.6,0.1-0.9
				c0-0.3,0-0.6,0.1-0.9c0-0.2,0-0.3,0-0.5c0-0.6,0.1-1.1,0.1-1.7c0-0.1,0-0.2,0-0.2c0.1-1.3,0.3-2.6,0.4-3.9
				c0.1-0.7,0.2-1.5,0.3-2.2c0,0,0,0,0,0c0-0.1,0-0.1,0-0.2c0-0.3,0.1-0.6,0.1-0.9c0-0.1,0-0.1,0-0.2c0-0.1,0-0.2,0-0.3
				c0.1-0.6,0.2-1.3,0.3-1.9c0.2-1.3,0.5-2.5,0.7-3.8c0.2-0.8,0.3-1.5,0.5-2.3c0.2-0.8,0.4-1.6,0.6-2.3c0,0,0-0.1,0-0.1
				c0.1-0.3,0.1-0.5,0.2-0.8c0,0,0-0.1,0-0.1c0.1-0.3,0.2-0.6,0.3-0.9c0.2-0.7,0.4-1.4,0.6-2c0,0,0-0.1,0-0.1c0,0,0,0,0,0
				c0-0.1,0.1-0.2,0.1-0.4c0.2-0.8,0.5-1.6,0.8-2.4c0.1-0.2,0.1-0.4,0.2-0.6c0,0,0-0.1,0-0.1c0,0,0-0.1,0-0.1c0-0.1,0.1-0.2,0.1-0.4
				c0,0,0-0.1,0-0.1v0c0-0.1,0.1-0.2,0.1-0.3c0.1-0.2,0.1-0.4,0.2-0.5c0.1-0.2,0.1-0.4,0.2-0.5c0.1-0.4,0.3-0.8,0.5-1.2
				c0-0.1,0-0.1,0.1-0.2c0-0.1,0.1-0.2,0.1-0.3c0.3-0.7,0.6-1.5,0.9-2.2c0.1-0.4,0.3-0.8,0.5-1.1c0.2-0.4,0.3-0.8,0.5-1.1
				c0-0.1,0.1-0.2,0.1-0.3c0.2-0.5,0.5-1,0.7-1.6c0,0,0.1-0.1,0.1-0.2c0.1-0.3,0.3-0.6,0.4-0.9c0.1-0.3,0.3-0.6,0.4-0.9
				c0.1-0.1,0.1-0.3,0.2-0.4c0.1-0.1,0.1-0.3,0.2-0.4v0c0.2-0.5,0.5-1,0.7-1.5c0.3-0.6,0.6-1.2,1-1.9c0.1-0.2,0.2-0.4,0.3-0.6
				c0,0,0-0.1,0.1-0.1c0.2-0.3,0.3-0.6,0.5-0.9c0.1-0.2,0.2-0.5,0.4-0.7c0-0.1,0.1-0.1,0.1-0.2c0.1-0.3,0.3-0.5,0.5-0.8
				c0.1-0.1,0.1-0.2,0.2-0.3c0.1-0.2,0.3-0.4,0.4-0.7c0.1-0.2,0.2-0.4,0.4-0.6c0.1-0.1,0.1-0.2,0.2-0.3c0.2-0.3,0.4-0.7,0.6-1
				c0.1-0.1,0.1-0.2,0.2-0.3c0.1-0.1,0.1-0.2,0.2-0.4c0.2-0.4,0.5-0.8,0.8-1.2c0.1-0.2,0.3-0.4,0.4-0.6c0-0.1,0.1-0.1,0.2-0.2
				c0.2-0.2,0.3-0.5,0.5-0.8c0.2-0.4,0.5-0.7,0.7-1.1c0,0,0-0.1,0.1-0.1c0.1-0.1,0.2-0.2,0.2-0.3v0c0.3-0.5,0.7-1,1-1.5c0,0,0,0,0,0
				v0c0.4-0.5,0.7-1,1.1-1.5c0,0,0-0.1,0.1-0.1c0,0,0.1-0.1,0.1-0.1c0.2-0.2,0.3-0.4,0.5-0.7c0,0,0,0,0.1-0.1
				c0.1-0.2,0.3-0.3,0.4-0.5c0.2-0.3,0.5-0.6,0.7-0.9c0.1-0.2,0.3-0.4,0.4-0.5v0c0.3-0.4,0.7-0.9,1-1.3c0,0,0,0,0-0.1
				c0.3-0.3,0.5-0.6,0.8-0.9c0.2-0.2,0.3-0.4,0.5-0.6v0c0.1-0.1,0.1-0.2,0.2-0.2c0,0,0-0.1,0.1-0.1c0.2-0.2,0.4-0.5,0.6-0.7
				c0.1-0.1,0.1-0.1,0.2-0.2c0,0,0.1-0.1,0.1-0.1v0c0.3-0.4,0.7-0.8,1-1.2c0-0.1,0.1-0.1,0.2-0.2c0,0,0,0,0,0l0,0c0,0,0,0,0.1-0.1
				c0.2-0.2,0.3-0.4,0.5-0.6c0.2-0.2,0.4-0.5,0.7-0.7c0.2-0.2,0.3-0.3,0.5-0.5c0.6-0.6,1.2-1.2,1.8-1.8c0.1-0.1,0.2-0.2,0.3-0.3
				c0,0,0.1-0.1,0.1-0.1c0.2-0.2,0.4-0.4,0.6-0.6c0.2-0.2,0.3-0.3,0.5-0.5c0,0,0.1-0.1,0.1-0.1c0.4-0.4,0.9-0.9,1.3-1.3
				c0.2-0.2,0.5-0.4,0.7-0.6c0.2-0.1,0.3-0.3,0.5-0.4c0.1-0.1,0.1-0.1,0.2-0.2v0c0.4-0.3,0.7-0.7,1.1-1c0.1-0.1,0.2-0.2,0.3-0.2v0
				c0.2-0.2,0.4-0.4,0.6-0.5c0.2-0.2,0.5-0.4,0.7-0.6c0,0,0,0,0,0c0,0,0,0,0.1-0.1v0c0,0,0,0,0,0c0.1-0.1,0.2-0.2,0.3-0.2
				c0,0,0,0,0.1,0c0.1-0.1,0.2-0.1,0.2-0.2c0.5-0.4,1-0.9,1.6-1.3c0,0,0.1-0.1,0.1-0.1c0.1,0,0.1-0.1,0.2-0.2
				c0.2-0.2,0.5-0.4,0.7-0.6c0.2-0.2,0.5-0.4,0.7-0.6c0.2-0.2,0.5-0.4,0.7-0.5c0.1-0.1,0.2-0.2,0.3-0.2c0.1-0.1,0.2-0.1,0.2-0.2
				c0.1,0,0.1-0.1,0.2-0.1c0.1-0.1,0.3-0.2,0.4-0.3c0.9-0.7,1.9-1.4,2.9-2.1c0.3-0.2,0.6-0.4,0.8-0.6c0.3-0.2,0.5-0.4,0.8-0.6
				c0.5-0.3,1-0.7,1.6-1v0c0,0,0,0,0,0c0.5-0.3,1-0.7,1.6-1c0.3-0.2,0.5-0.3,0.8-0.5c0.1-0.1,0.2-0.1,0.3-0.2c0.1,0,0.1-0.1,0.2-0.1
				c0.1-0.1,0.2-0.1,0.3-0.2v0c0,0,0,0,0,0c0.3-0.1,0.5-0.3,0.8-0.5c0.2-0.1,0.4-0.3,0.7-0.4c0,0,0.1-0.1,0.1-0.1v0
				c0.2-0.1,0.4-0.2,0.5-0.3c0.1,0,0.2-0.1,0.3-0.1c0.3-0.2,0.5-0.3,0.8-0.5c0.4-0.2,0.8-0.4,1.2-0.6c0,0,0.1,0,0.1-0.1
				c0.1-0.1,0.2-0.1,0.4-0.2c0,0,0,0,0,0c0,0.2,0.1,0.5,0.1,0.7c0,0.2,0.1,0.5,0.1,0.8c0,0.2,0.1,0.4,0.1,0.6c0,0.1,0,0.3,0,0.4
				c0,0,0,0.1,0,0.1c0,0.4,0.1,0.8,0.1,1.2c0,0.1,0,0.1,0,0.1c0,0.1,0,0.1,0,0.2c0,0.5,0,1,0.1,1.5c0,1.4,0,2.8-0.1,4.2
				c0,0.7-0.1,1.4-0.2,2v0c-0.1,0.7-0.2,1.4-0.3,2.2c0,0,0,0,0,0c-0.1,0.7-0.2,1.4-0.3,2.2c-0.1,0.7-0.2,1.5-0.4,2.2
				c-0.3,1.8-0.7,3.6-1.1,5.2c-0.1,0.3-0.1,0.6-0.2,0.9c-0.1,0.7-0.1,1.3,0,1.9c0.1,0.4,0.1,0.7,0.2,1c0.1,0.2,0.1,0.3,0.2,0.5
				c0.1,0.2,0.2,0.3,0.2,0.5c0.1,0.1,0.2,0.3,0.2,0.4c0.1,0.2,0.2,0.3,0.3,0.5c0.1,0.2,0.2,0.3,0.4,0.4c0.1,0.2,0.3,0.3,0.4,0.5
				c0,0,0.1,0.1,0.1,0.1c0.1,0.1,0.3,0.3,0.5,0.4c0.2,0.2,0.4,0.3,0.7,0.5c0.1,0.1,0.3,0.2,0.5,0.3c0,0,0.1,0,0.1,0.1
				c0.2,0.1,0.4,0.2,0.6,0.3c0.2,0.1,0.4,0.1,0.6,0.2c0.2,0,0.3,0.1,0.5,0.1c0.1,0,0.2,0.1,0.3,0.1c0.1,0,0.2,0,0.3,0
				c0.1,0,0.2,0,0.2,0c0.2,0,0.4,0,0.5,0c0.2,0,0.3,0,0.5,0c0.2,0,0.4-0.1,0.6-0.1c0.2,0,0.3-0.1,0.5-0.1c0.2-0.1,0.4-0.1,0.5-0.2
				c0.1-0.1,0.3-0.1,0.5-0.2c0.3-0.1,0.6-0.3,0.8-0.4c0.7-0.4,1.3-0.8,2-1.3h0c0.7-0.5,1.4-1,2.1-1.5c0.4-0.3,0.7-0.5,1-0.8
				c0.3-0.3,0.7-0.5,1-0.8c0.3-0.3,0.7-0.5,1-0.8c0.3-0.2,0.6-0.5,0.8-0.7c0.7-0.6,1.3-1.2,2-1.8c0.5-0.5,0.9-0.9,1.4-1.4
				c0.4-0.5,0.9-0.9,1.3-1.4c0.4-0.5,0.8-1,1.2-1.4c0.4-0.5,0.8-1,1.2-1.4c0.9-1.1,1.7-2.2,2.5-3.4c0.8-1.1,1.5-2.2,2.2-3.3
				c1-1.7,2-3.3,2.9-4.9c3.3-6,12.4-3.8,12.5,3c0.3,12.4-4.6,26.3-8.9,36c-0.8,1.9-0.8,3.9-0.1,5.5c0.2,0.4,0.4,0.8,0.6,1.2
				c0.3,0.5,0.7,0.9,1.1,1.3c0.1,0.1,0.2,0.2,0.3,0.3s0.2,0.2,0.3,0.3c0.1,0.1,0.2,0.1,0.3,0.2c0.3,0.2,0.6,0.4,0.9,0.5
				c0.1,0.1,0.2,0.1,0.3,0.1c0.1,0,0.3,0.1,0.4,0.1c0.1,0,0.2,0.1,0.3,0.1c0.2,0.1,0.3,0.1,0.5,0.1c0.2,0,0.4,0.1,0.6,0.1
				c0,0,0,0,0,0c0.2,0,0.5,0,0.7,0c0.5,0,1.1-0.1,1.7-0.2c0.8-0.2,1.6-0.4,2.4-0.6c2-0.5,3.9-1,5.7-1.5c1.6-0.5,3.2-0.9,4.7-1.4
				c0.6-0.2,1.3-0.4,1.9-0.6c0.7-0.2,1.3-0.4,2-0.6c0.6-0.2,1.3-0.4,1.9-0.7c0.6-0.2,1.3-0.4,1.9-0.7c1.2-0.4,2.5-0.9,3.6-1.4
				c0.6-0.2,1.2-0.5,1.8-0.7c0.5-0.2,1-0.4,1.4-0.6c3.3-1.4,6.5-2.8,9.4-4.3c0.5-0.3,1.1-0.6,1.6-0.8c1.1-0.6,2.1-1.1,3.1-1.7
				c0.5-0.3,1-0.5,1.4-0.8c3.6-2.1,6.9-4.2,9.9-6.3c0.6-0.5,1.2-0.9,1.8-1.3c0.5-0.4,0.9-0.7,1.4-1c1-0.8,2-1.6,2.9-2.4
				c0.6-0.5,1.2-1,1.8-1.6c0.3-0.3,0.6-0.5,0.9-0.8c0.3-0.3,0.6-0.5,0.8-0.8c0.3-0.2,0.6-0.5,0.8-0.8c5.7-5.4,9.4-10.5,11.9-14.6
				c27.3,20.3,45,52.8,45,89.4v17.3h2.6c0.7,0,1.5,0.1,2.2,0.2l1.6-54.8C372.3,62.7,333.7,18.2,284,13.8z"/>
			<path id="XMLID_2802_" class="st199" d="M283.2,13.7c-0.1,0-0.2,0-0.3,0c-0.8-0.1-1.5-0.1-2.3-0.1c-1.6-0.1-3.2-0.1-4.8-0.1
				h-46.4c-1.7,0-3.3,0-5,0.1c-4,0.2-8,0.7-11.9,1.4c-2.1,0.4-4.2,0.9-6.2,1.4c-2.6,0.7-5.2,1.5-7.7,2.3c-1.2,0.4-2.3,0.9-3.5,1.3
				c-1.1,0.4-2.2,0.9-3.3,1.4c-1.1,0.5-2.2,1-3.2,1.5c-0.5,0.2-1,0.5-1.5,0.8c-1,0.5-2,1.1-3,1.6c-30.5,17.3-50.9,51.6-49.8,90.6
				l1.6,55.2v0c0.8-0.2,1.7-0.4,2.6-0.5c0.1,0,0.3,0,0.4,0c0.1,0,0.2,0,0.3,0h0c0.2,0,0.3,0,0.5,0h2.2v-17.3
				c0-42.7,24-79.7,59.3-98.4c0,0,0,0,0.1,0c1.5,6.8,0.1,16.1-1.8,23.7c-0.6,2.4,0.1,4.6,1.5,6.2c10.8-38.5,43.3-67.4,82.9-71
				c0,0,0,0,0.1,0C283.8,13.7,283.5,13.7,283.2,13.7z"/>
			<path id="XMLID_2801_" class="st178" d="M260.9,220.8h-13.8c-4.5,0-8.2-3.7-8.2-8.2v0c0-4.5,3.7-8.2,8.2-8.2h13.8
				c4.5,0,8.2,3.7,8.2,8.2v0C269.1,217.2,265.4,220.8,260.9,220.8z"/>
			<path id="XMLID_2800_" class="st184" d="M232.6,232.6c0,11.8,9.6,21.4,21.4,21.4c11.8,0,21.4-9.6,21.4-21.4"/>
			<path id="XMLID_2799_" class="st184" d="M286.1,178c0,8,6.5,14.4,14.4,14.4c8,0,14.4-6.5,14.4-14.4"/>
			<path id="XMLID_2798_" class="st184" d="M187.6,178c0,8,6.5,14.4,14.4,14.4c8,0,14.4-6.5,14.4-14.4"/>
			<line id="XMLID_2797_" class="st184" x1="241.1" y1="271" x2="266.9" y2="271"/>
			<path id="XMLID_2796_" class="st200" d="M318.5,33.5c7.4,4.4,20.4,13,27.1,23.3c0.7,1-0.1,2.4-1.3,2.4h-7.1
				c-0.9,0-1.6,0.7-1.6,1.5l-0.2,7.4c0,1.3-1.5,2-2.5,1.2c-4.6-3.5-15-10.8-25.9-13.6c-1.5-0.4-1.6-2.4-0.2-3l10.1-3.9
				c0.6-0.2,1-0.8,1-1.5c0-2.3-0.2-7.8-1.7-12C315.8,34,317.3,32.8,318.5,33.5z"/>
			<path id="XMLID_2795_" class="st0" d="M145.2,215c0,0-82.9,97.6,14.5,160.4c14.9,9.6,32.9,13.8,50.4,10.5
				c14-2.6,28.8-10.1,37-28.4c6.3-14.2,6.5-30.4,0.8-44.9c-5.6-14.4-17.4-30.8-41.8-31.2c-34.3-0.4-61.9-28.1-61.1-62.4
				C145.1,217.7,145.1,216.4,145.2,215z"/>
			<path id="XMLID_2794_" class="st15" d="M247.4,357.5c-8.2,18.3-23,25.8-37,28.5c-11.3,2.1-22.8,1.1-33.5-2.4
				c11-3.9,21.6-11.6,28-26c6.3-14.2,6.5-30.4,0.8-44.9c-5.6-14.4-17.4-30.8-41.8-31.2c-17.7-0.2-33.6-7.7-44.7-19.6
				c9.6-27.3,26.3-46.9,26.3-46.9c-0.1,1.4-0.1,2.7-0.1,4.1c-0.8,34.3,26.8,61.9,61.1,62.4c24.3,0.3,36.1,16.8,41.8,31.2
				C253.9,327.1,253.8,343.3,247.4,357.5z"/>
			<path id="XMLID_2793_" class="st0" d="M361,215c0,0,82.9,97.6-14.5,160.4c-14.9,9.6-32.9,13.8-50.4,10.5
				c-14-2.6-28.8-10.1-37-28.4c-6.3-14.2-6.5-30.4-0.8-44.9c5.6-14.4,17.4-30.8,41.8-31.2c34.3-0.4,61.9-28.1,61.1-62.4
				C361.1,217.7,361,216.4,361,215z"/>
			<path id="XMLID_2792_" class="st15" d="M258.7,357.5c8.2,18.3,23,25.8,37,28.5c11.3,2.1,22.8,1.1,33.5-2.4
				c-11-3.9-21.6-11.6-28-26c-6.3-14.2-6.5-30.4-0.8-44.9c5.6-14.4,17.4-30.8,41.8-31.2c17.7-0.2,33.6-7.7,44.7-19.6
				c-9.6-27.3-26.3-46.9-26.3-46.9c0.1,1.4,0.1,2.7,0.1,4.1c0.8,34.3-26.8,61.9-61.1,62.4c-24.3,0.3-36.1,16.8-41.8,31.2
				C252.2,327.1,252.4,343.3,258.7,357.5z"/>
		</g>
	</g>
</g>
</svg>
