<?xml version="1.0" encoding="utf-8"?>
<!-- Generator: Adobe Illustrator 22.0.1, SVG Export Plug-In . SVG Version: 6.00 Build 0)  -->
<svg version="1.1" xmlns="http://www.w3.org/2000/svg" xmlns:xlink="http://www.w3.org/1999/xlink" x="0px" y="0px"
	 viewBox="0 0 512 512" style="enable-background:new 0 0 512 512;" xml:space="preserve">
<style type="text/css">
	.st0{fill:#E9B12D;}
	.st1{fill:#A9E7D8;}
	.st2{fill:#76CFB1;}
	.st3{fill:#AE6B5D;}
	.st4{fill:#7770D3;}
	.st5{fill:#5BA0F5;}
	.st6{fill:#DA4545;}
	.st7{fill:#89CCFC;}
	.st8{fill:#CD462A;}
	.st9{fill:#514896;}
	.st10{fill:#5493A0;}
	.st11{fill:#CC6B5C;}
	.st12{fill:#62AA8D;}
	.st13{fill:#8ABAAB;}
	.st14{fill:#C3791F;}
	.st15{fill:#E39123;}
	.st16{fill:#FFFFFF;}
	.st17{fill:none;stroke:#FFFFFF;stroke-width:10;stroke-linecap:round;stroke-miterlimit:10;}
	.st18{fill:none;stroke:#5F55AB;stroke-width:10;stroke-linecap:round;stroke-miterlimit:10;}
	.st19{fill:#A9671C;}
	.st20{fill:#D5B3A7;}
	.st21{fill:#C09A8F;}
	.st22{fill:#487F87;}
	.st23{fill:#1B305C;}
	.st24{fill:#172945;}
	.st25{fill:none;}
	.st26{fill:#B62A2A;}
	.st27{fill:#325859;}
	.st28{fill:#3F6E71;}
	.st29{fill:#284646;}
	.st30{fill:#8F2727;}
	.st31{fill:#29477C;}
	.st32{fill:#5B9BEE;}
	.st33{fill:#487FDE;}
	.st34{fill:#CD9829;}
	.st35{fill:#9F2A2A;}
	.st36{fill:#4C3328;}
	.st37{fill:#E8B94A;}
	.st38{fill:#DDF8F1;}
	.st39{fill:#3E2A22;}
	.st40{fill:#D3A971;}
	.st41{fill:#C79A5B;}
	.st42{fill:#233E76;}
	.st43{fill:#21395F;}
	.st44{fill:#487D82;}
	.st45{fill:none;stroke:#C79A5B;stroke-width:10;stroke-linecap:round;stroke-miterlimit:10;}
	.st46{fill:#5E3E31;}
	.st47{fill:#AC3939;}
	.st48{fill:#CA9628;}
	.st49{fill:#AF8F88;}
	.st50{fill:#815048;}
	.st51{fill:#6F4232;}
	.st52{fill:#5F55AB;}
	.st53{fill:#192A48;}
	.st54{fill:#152336;}
	.st55{fill:#192B49;}
	.st56{fill:#264173;}
	.st57{fill:#B06F1E;}
	.st58{fill:#4E88C0;}
	.st59{fill:#83C3F1;}
	.st60{fill:#CF9929;}
	.st61{fill:none;stroke:#FFFFFF;stroke-width:10;stroke-linecap:round;stroke-linejoin:round;stroke-miterlimit:10;}
	.st62{fill:#EAC262;}
	.st63{fill:#D6D5D4;}
	.st64{fill:#6BBA9B;}
	.st65{fill:#63AA8F;}
	.st66{fill:none;stroke:#3E2A22;stroke-width:10;stroke-linecap:round;stroke-miterlimit:10;}
	.st67{fill:#CA7D1F;}
	.st68{fill:#213B64;}
	.st69{fill:#CDF8EC;}
	.st70{fill:#C59125;}
	.st71{fill:none;stroke:#C09A8F;stroke-width:10;stroke-linecap:round;stroke-miterlimit:10;}
	.st72{fill:#32579B;}
	.st73{fill:#172843;}
	.st74{fill:#D66767;}
	.st75{fill:#A74949;}
	.st76{fill:#EBC76F;}
	.st77{fill:#7A4940;}
	.st78{fill:#182A48;}
	.st79{fill:none;stroke:#A0794A;stroke-width:10;stroke-linecap:round;stroke-miterlimit:10;}
	.st80{fill:#C37A20;}
	.st81{fill:#D26D5C;}
	.st82{fill:#A45752;}
	.st83{fill:#284579;}
	.st84{fill:#88C7F4;}
	.st85{fill:#6EB6F0;}
	.st86{fill:#32221E;}
	.st87{fill:#E7A6A6;}
	.st88{fill:#C59191;}
	.st89{fill:#AA3B3B;}
	.st90{fill:#B83E3E;}
	.st91{fill:none;stroke:#5F55A9;stroke-width:10;stroke-linecap:round;stroke-miterlimit:10;}
	.st92{fill:#963838;}
	.st93{fill:#402B25;}
	.st94{fill:#6B6ABA;}
	.st95{fill:#BABABA;}
	.st96{fill:#D1D1D1;}
	.st97{fill:#264377;}
	.st98{fill:#A19BF5;}
	.st99{fill:#3C2A21;}
	.st100{fill:none;stroke:#4C3328;stroke-width:10;stroke-linecap:round;stroke-miterlimit:10;}
	.st101{fill:#C1781F;}
	.st102{fill:#E3A147;}
	.st103{fill:#F2D2A1;}
	.st104{fill:#4F372D;}
	.st105{fill:none;stroke:#DA4545;stroke-width:10;stroke-linecap:round;stroke-miterlimit:10;}
	.st106{fill:#AA3928;}
	.st107{fill:#8C2C22;}
	.st108{fill:#BF4336;}
	.st109{fill:#5797D4;}
	.st110{fill:#CFCFCF;}
	.st111{fill:#613A2E;}
	.st112{fill:none;stroke:#B18653;stroke-width:10;stroke-linecap:round;stroke-miterlimit:10;}
	.st113{fill:#B13B3B;}
	.st114{fill:#16263A;}
	.st115{fill:none;stroke:#16263A;stroke-width:10;stroke-miterlimit:10;}
	.st116{fill:#C87D20;}
	.st117{fill:#E4F0FD;}
	.st118{fill:#AA3737;}
	.st119{fill:#BF771F;}
	.st120{fill:none;stroke:#CD462A;stroke-width:10;stroke-linejoin:round;stroke-miterlimit:10;}
	.st121{fill:#5696D2;}
	.st122{fill:#C0771E;}
	.st123{fill:#9B5F1B;}
	.st124{fill:#A83A29;}
	.st125{fill:#E7A74F;}
	.st126{fill:#C9924C;}
	.st127{fill:#C58E48;}
	.st128{fill:#BE8844;}
	.st129{fill:#916939;}
	.st130{fill:#264275;}
	.st131{fill:#253F65;}
	.st132{fill:#182A45;}
	.st133{fill:#162336;}
	.st134{fill:#93C7B7;}
	.st135{fill:#E6A4A4;}
	.st136{fill:#B06B1D;}
	.st137{fill:#484185;}
	.st138{fill:#DB6E6E;}
	.st139{fill:#6BBA9A;}
	.st140{fill:#CACCCC;}
	.st141{fill:#D4D4D4;}
	.st142{fill:#A98881;}
	.st143{fill:#213A62;}
	.st144{fill:#A2837D;}
	.st145{fill:#6FB8F4;}
	.st146{fill:#9B9E9E;}
	.st147{fill:#B2B3B3;}
	.st148{fill:#20385D;}
	.st149{fill:#335AA8;}
	.st150{fill:#BCE7FD;}
	.st151{fill:#3B2921;}
	.st152{fill:#AD3C3C;}
	.st153{fill:#9D3838;}
	.st154{fill:#603F33;}
	.st155{fill:#4D868B;}
	.st156{fill:#A2DDFD;}
	.st157{fill:#ECB6B6;}
	.st158{fill:#E8A346;}
	.st159{fill:#514C94;}
	.st160{fill:#D2F1E8;}
	.st161{fill:#BDD6CE;}
	.st162{fill:#B93B29;}
	.st163{fill:#E0AD70;}
	.st164{fill:#C57C21;}
	.st165{fill:#EDA34A;}
	.st166{fill:#2F538F;}
	.st167{fill:#2B4B78;}
	.st168{fill:#65AF91;}
	.st169{fill:#A7CEFC;}
	.st170{fill:#98BDE2;}
	.st171{fill:#CFE5F7;}
	.st172{fill:#5492CD;}
	.st173{fill:#97CCBC;}
	.st174{fill:#5491CA;}
	.st175{fill:#EDC563;}
	.st176{fill:#423C79;}
	.st177{fill:#D3B1A5;}
	.st178{fill:#BE988D;}
	.st179{fill:#A7E5D6;}
	.st180{fill:#F2FFF9;}
	.st181{fill:#D64545;}
	.st182{fill:#A73B3B;}
	.st183{fill:#15233A;}
	.st184{fill:none;stroke:#BE988D;stroke-width:10;stroke-linecap:round;stroke-miterlimit:10;}
	.st185{fill:#AF3A29;}
	.st186{fill:#FAF9FF;}
	.st187{fill:#CACACC;}
	.st188{fill:#372720;}
	.st189{fill:#3F2C26;}
	.st190{fill:#2D201C;}
	.st191{fill:#3D6D6F;}
	.st192{fill:#5B54A8;}
	.st193{fill:#325799;}
	.st194{fill:#E8C26E;}
	.st195{fill:#254784;}
	.st196{fill:#5696D4;}
	.st197{fill:#4F8AB6;}
	.st198{fill:#5FA4AC;}
	.st199{fill:#AA3524;}
	.st200{fill:#D15F4D;}
	.st201{fill:#2B294C;}
	.st202{fill:#A43A2A;}
	.st203{fill:#E7AE2D;}
	.st204{fill:#CD9729;}
	.st205{fill:none;stroke:#AA8253;stroke-width:10;stroke-linecap:round;stroke-miterlimit:10;}
	.st206{fill:none;stroke:#E18F23;stroke-width:10;stroke-linecap:round;stroke-linejoin:round;stroke-miterlimit:10;}
	.st207{fill:#CF9828;}
	.st208{fill:#B88926;}
	.st209{fill:#A17623;}
	.st210{fill:#96CCBC;}
	.st211{fill:#CF9A2A;}
	.st212{fill:#C57B20;}
	.st213{fill:#C7F1E6;}
	.st214{fill:#DC6363;}
	.st215{fill:#E89F9F;}
	.st216{fill:#C88C8C;}
	.st217{fill:#C16E6E;}
	.st218{fill:#A46060;}
	.st219{fill:#AA3626;}
	.st220{fill:#87EDC4;}
	.st221{fill:#D86552;}
	.st222{fill:#BC7620;}
	.st223{fill:#BA741E;}
	.st224{fill:#8F8CE3;}
	.st225{fill:#3A2820;}
	.st226{fill:#AC7060;}
	.st227{fill:#915F55;}
	.st228{fill:#49332A;}
	.st229{fill:#2D1F1B;}
	.st230{fill:#69B7BE;}
	.st231{fill:#D6D6D6;}
	.st232{fill:#B8B8B8;}
	.st233{fill:#CACACA;}
	.st234{fill:#467B80;}
	.st235{fill:#C2EDE2;}
	.st236{fill:#A9574F;}
	.st237{fill:#5595D2;}
	.st238{fill:#955949;}
	.st239{fill:#7E4B42;}
	.st240{fill:#89CCF1;}
	.st241{fill:#DD584A;}
	.st242{fill:#C18F26;}
	.st243{fill:#B33C2A;}
	.st244{fill:#D1A771;}
	.st245{fill:#B42A2A;}
	.st246{fill:#325797;}
	.st247{fill:#9F3529;}
	.st248{fill:#EDCE80;}
	.st249{fill:#F0DBAC;}
	.st250{fill:#CFB478;}
	.st251{fill:#D4C29B;}
	.st252{fill:#993939;}
	.st253{fill:#D1AFA3;}
	.st254{fill:#BC968B;}
	.st255{fill:none;stroke:#BC968B;stroke-width:10;stroke-linecap:round;stroke-miterlimit:10;}
	.st256{fill:#814C3C;}
	.st257{fill:#C0EBE0;}
	.st258{fill:#A5E3D4;}
	.st259{fill:#15243C;}
	.st260{fill:#443E79;}
	.st261{fill:#F0FFF7;}
	.st262{fill:#9A764B;}
	.st263{fill:#826443;}
	.st264{fill:#D9AA74;}
	.st265{fill:#5DA186;}
	.st266{fill:#68B596;}
	.st267{fill:#E5C6BE;}
	.st268{fill:#D3B6B1;}
	.st269{fill:none;stroke:#BAA09C;stroke-width:10;stroke-linecap:round;stroke-miterlimit:10;}
	.st270{fill:#F4D78F;}
	.st271{fill:#20385F;}
	.st272{fill:#BA8727;}
	.st273{fill:#5A9C82;}
	.st274{fill:none;stroke:#E39123;stroke-width:10;stroke-linecap:round;stroke-linejoin:round;stroke-miterlimit:10;}
	.st275{fill:#60392D;}
	.st276{fill:#CCCCCC;}
	.st277{fill:#844F3E;}
	.st278{fill:#F3FFFB;}
	.st279{fill:#365E60;}
	.st280{fill:#D84545;}
	.st281{fill:#A83B3B;}
	.st282{fill:#253F70;}
	.st283{fill:#EAADAD;}
	.st284{fill:#443E7C;}
	.st285{fill:#3D6B9F;}
	.st286{fill:#4274BC;}
	.st287{fill:#AF3827;}
	.st288{fill:#E59D9D;}
	.st289{fill:#C48989;}
	.st290{fill:none;stroke:#9B621A;stroke-width:10;stroke-linecap:round;stroke-linejoin:round;stroke-miterlimit:10;}
	.st291{fill:#213A5E;}
	.st292{fill:#2D507A;}
	.st293{fill:#528EC8;}
	.st294{fill:#EFD696;}
	.st295{fill:#D1BA87;}
	.st296{fill:#FDFCFC;}
	.st297{fill:#86CBFC;}
	.st298{fill:#7AB7DA;}
	.st299{fill:#192C4C;}
	.st300{fill:#BCBCBC;}
	.st301{fill:#A13838;}
	.st302{fill:#75BDF6;}
	.st303{fill:#D0B1AA;}
	.st304{fill:#142233;}
	.st305{fill:#E6C4BB;}
	.st306{fill:#BDBDBD;}
	.st307{fill:#E8A192;}
	.st308{fill:#A43939;}
	.st309{fill:#162640;}
	.st310{fill:#27457C;}
	.st311{fill:#EFBE5E;}
	.st312{fill:#87EDC5;}
	.st313{fill:#A03838;}
	.st314{fill:#833232;}
	.st315{fill:#47417F;}
	.st316{fill:none;stroke:#915F55;stroke-width:10;stroke-linecap:round;stroke-miterlimit:10;}
	.st317{fill:#BC8B25;}
	.st318{fill:#473129;}
	.st319{fill:#67B394;}
	.st320{fill:#599A80;}
	.st321{fill:#B13D3D;}
</style>
<g id="BULINE">
	<g>
		<circle id="XMLID_1565_" class="st5" cx="256" cy="256" r="256"/>
	</g>
</g>
<g id="Icons">
	<line id="XMLID_1606_" class="st105" x1="177.3" y1="467.3" x2="214.7" y2="467.3"/>
	<line id="XMLID_1605_" class="st105" x1="177.3" y1="489.1" x2="214.7" y2="489.1"/>
	<g id="XMLID_1567_">
		<path id="XMLID_1625_" class="st106" d="M308,154c-0.6-0.1-1.2-0.1-1.8-0.1h-2.5v0l0,0c5.5,0,10-4.5,10-10v-18.7
			c0-54.5-44.2-98.7-98.7-98.7h-40.7c-54.5,0-98.7,44.2-98.7,98.7V140c0,7.6,6.2,13.8,13.8,13.8h0c-0.8,0-1.6,0-2.4,0h-2
			c-2.7,0,0.9,0.7-1.3,1.9c-4.5,2.6-7.6,7.4-7.6,13v14.3c0,8.3,0.7,15,8.9,15h2.7c0,0,0,0,0,0c1,9.3,3.2,18.2,6.5,26.6
			c0,0.1,0,0.1,0.1,0.2c0.3,0.7,0.5,1.4,0.8,2.1c0,0.1,0.1,0.2,0.1,0.3c0.3,0.7,0.6,1.3,0.8,2c0,0.1,0.1,0.2,0.1,0.3
			c0.3,0.6,0.6,1.3,0.9,1.9c0.1,0.1,0.1,0.2,0.2,0.3c0.3,0.6,0.6,1.3,0.9,1.9c0.1,0.1,0.1,0.2,0.2,0.3c0.3,0.6,0.6,1.3,1,1.9
			c0,0.1,0.1,0.2,0.1,0.3c0.3,0.6,0.7,1.3,1,1.9c0,0.1,0.1,0.1,0.1,0.2c2.3,4.1,4.8,8.1,7.6,11.9c0.1,0.1,0.1,0.2,0.2,0.3
			c0.4,0.5,0.8,1,1.1,1.5c0.1,0.2,0.3,0.3,0.4,0.5c0.4,0.5,0.7,0.9,1.1,1.3c0.2,0.2,0.3,0.4,0.5,0.6c0.3,0.4,0.7,0.8,1,1.2
			c0.2,0.2,0.4,0.5,0.6,0.7c0.3,0.4,0.7,0.8,1,1.2c0.2,0.2,0.4,0.5,0.6,0.7c0.3,0.4,0.7,0.7,1,1.1c0.2,0.3,0.5,0.5,0.7,0.7
			c0.3,0.4,0.7,0.7,1,1.1c0.2,0.3,0.5,0.5,0.7,0.8c0.3,0.3,0.7,0.7,1,1c0.3,0.3,0.5,0.5,0.8,0.8c0.3,0.3,0.7,0.6,1,1
			c0.3,0.3,0.6,0.5,0.8,0.8c0.3,0.3,0.7,0.6,1,0.9c0.3,0.3,0.6,0.5,0.9,0.8c0.3,0.3,0.6,0.6,1,0.8c0.3,0.3,0.7,0.6,1,0.9
			c0.3,0.2,0.6,0.5,0.9,0.7c0.5,0.4,1.1,0.9,1.6,1.3c0.2,0.2,0.4,0.3,0.6,0.5c0.6,0.4,1.1,0.9,1.7,1.3c0.2,0.2,0.5,0.3,0.7,0.5
			c0.5,0.3,0.9,0.7,1.4,1c0.3,0.2,0.5,0.4,0.8,0.5c0.4,0.3,0.9,0.6,1.3,0.9c0.3,0.2,0.5,0.4,0.8,0.5c0.4,0.3,0.9,0.6,1.3,0.9
			c0.3,0.2,0.5,0.3,0.8,0.5c0.4,0.3,0.9,0.6,1.3,0.8c0.3,0.2,0.6,0.3,0.8,0.5c0.5,0.3,0.9,0.5,1.4,0.8c0.3,0.2,0.6,0.3,0.8,0.5
			c0.5,0.3,0.9,0.5,1.4,0.8c0.3,0.2,0.5,0.3,0.8,0.4c0.5,0.3,1,0.5,1.5,0.8c0.3,0.1,0.5,0.3,0.8,0.4c0.5,0.3,1,0.5,1.5,0.8
			c0.3,0.1,0.5,0.2,0.8,0.4c0.5,0.3,1.1,0.5,1.6,0.8c0.2,0.1,0.5,0.2,0.7,0.3c0.6,0.3,1.2,0.5,1.8,0.8c0.2,0.1,0.4,0.2,0.6,0.2
			c0.7,0.3,1.4,0.6,2.1,0.9c0.1,0,0.2,0.1,0.3,0.1c2.4,1,4.9,1.8,7.4,2.6c0.1,0,0.1,0,0.2,0.1c0.8,0.2,1.5,0.5,2.3,0.7
			c0.2,0,0.3,0.1,0.5,0.1c0.7,0.2,1.3,0.4,2,0.5c0.2,0.1,0.4,0.1,0.6,0.2c0.6,0.2,1.3,0.3,1.9,0.5c0.2,0.1,0.5,0.1,0.7,0.2
			c0.6,0.1,1.2,0.3,1.9,0.4c0.2,0.1,0.5,0.1,0.7,0.2c0.6,0.1,1.2,0.2,1.8,0.4c0.3,0,0.5,0.1,0.8,0.1c0.6,0.1,1.2,0.2,1.9,0.3
			c0.3,0,0.5,0.1,0.8,0.1c0.6,0.1,1.3,0.2,1.9,0.3c0.2,0,0.5,0.1,0.7,0.1c0.7,0.1,1.3,0.2,2,0.2c0.2,0,0.5,0.1,0.7,0.1
			c0.7,0.1,1.4,0.1,2.1,0.2c0.2,0,0.4,0,0.6,0c0.8,0.1,1.5,0.1,2.3,0.1c0.1,0,0.2,0,0.4,0c1.8,0.1,3.7,0.1,5.5,0.1h0
			c0.1,0,0.2,0,0.2,0c1.4,0,2.9,0,4.3-0.1c0.2,0,0.4,0,0.6,0c1.4-0.1,2.9-0.2,4.3-0.3c0.2,0,0.4,0,0.7-0.1c1.4-0.1,2.8-0.3,4.2-0.5
			c0.2,0,0.4-0.1,0.7-0.1c1.4-0.2,2.8-0.4,4.1-0.7c0.1,0,0.2,0,0.3-0.1c46.7-8.4,83-46.7,88.4-94.5h3.2c8.3,0,15-6.7,15-15v-14.3
			C321.2,161.2,315.5,154.8,308,154z"/>
		<path id="XMLID_1581_" class="st107" d="M228.3,289.2c-4.4,1.4-9,2.6-13.7,3.4c-0.1,0-0.2,0-0.3,0.1c-1.4,0.2-2.8,0.5-4.1,0.7
			c-0.2,0-0.4,0.1-0.7,0.1c-1.4,0.2-2.8,0.3-4.2,0.5c-0.2,0-0.4,0-0.7,0.1c-1.4,0.1-2.8,0.2-4.3,0.3c-0.2,0-0.4,0-0.6,0
			c-1.4,0.1-2.8,0.1-4.3,0.1c-0.1,0-0.2,0-0.2,0c-1.8,0-3.7-0.1-5.5-0.1c-0.1,0-0.2,0-0.3,0c-0.8-0.1-1.6-0.1-2.3-0.2
			c-0.2,0-0.4,0-0.6,0c-0.7-0.1-1.4-0.1-2.1-0.2c-0.2,0-0.5,0-0.7-0.1c-0.7-0.1-1.3-0.1-2-0.2c-0.2,0-0.5-0.1-0.7-0.1
			c-0.6-0.1-1.3-0.2-1.9-0.3c-0.3,0-0.5-0.1-0.8-0.1c-0.6-0.1-1.2-0.2-1.9-0.3c-0.2-0.1-0.5-0.1-0.8-0.1c-0.6-0.1-1.2-0.2-1.8-0.3
			l-0.8-0.2c-0.6-0.1-1.2-0.3-1.9-0.4c-0.2-0.1-0.5-0.1-0.7-0.2c-0.6-0.2-1.3-0.3-1.9-0.5c-0.2-0.1-0.4-0.1-0.6-0.2
			c-0.7-0.2-1.3-0.4-2-0.5c-0.2-0.1-0.3-0.1-0.5-0.1c-0.8-0.2-1.5-0.4-2.3-0.7c-0.1,0-0.1,0-0.2-0.1c-2.5-0.8-5-1.7-7.4-2.6
			c-0.1,0-0.2-0.1-0.3-0.1c-0.7-0.3-1.4-0.6-2.1-0.9c-0.2-0.1-0.4-0.2-0.6-0.2c-0.6-0.2-1.2-0.5-1.8-0.8c-0.2-0.1-0.5-0.2-0.7-0.3
			c-0.5-0.2-1.1-0.5-1.6-0.8c-0.2-0.1-0.5-0.2-0.8-0.4c-0.5-0.2-1-0.5-1.5-0.8c-0.3-0.1-0.5-0.3-0.8-0.4c-0.5-0.2-1-0.5-1.5-0.8
			c-0.3-0.1-0.5-0.3-0.8-0.4c-0.5-0.3-0.9-0.5-1.4-0.8c-0.3-0.2-0.6-0.3-0.8-0.5c-0.5-0.3-0.9-0.5-1.4-0.8c-0.3-0.2-0.6-0.3-0.8-0.5
			c-0.4-0.3-0.9-0.6-1.3-0.8c-0.3-0.2-0.5-0.3-0.8-0.5c-0.4-0.3-0.9-0.6-1.3-0.9c-0.3-0.2-0.6-0.4-0.8-0.5c-0.4-0.3-0.9-0.6-1.3-0.9
			c-0.2-0.2-0.5-0.4-0.8-0.5c-0.5-0.3-0.9-0.7-1.4-1c-0.2-0.2-0.5-0.3-0.7-0.5c-0.6-0.4-1.2-0.9-1.7-1.3c-0.2-0.2-0.4-0.3-0.6-0.5
			c-0.6-0.4-1.1-0.9-1.6-1.3c-0.3-0.2-0.6-0.5-0.9-0.7c-0.3-0.3-0.7-0.6-1.1-0.9c-0.3-0.3-0.6-0.6-0.9-0.8c-0.3-0.3-0.6-0.5-0.9-0.8
			c-0.3-0.3-0.7-0.6-1-0.9c-0.3-0.3-0.6-0.5-0.9-0.8c-0.3-0.3-0.7-0.6-1-1c-0.3-0.3-0.5-0.5-0.8-0.8c-0.3-0.3-0.7-0.7-1-1
			c-0.3-0.3-0.5-0.5-0.8-0.8c-0.3-0.3-0.7-0.7-1-1.1c-0.2-0.2-0.5-0.5-0.7-0.8c-0.3-0.4-0.7-0.7-1-1.1c-0.2-0.2-0.4-0.5-0.6-0.7
			c-0.3-0.4-0.7-0.8-1-1.2c-0.2-0.2-0.4-0.5-0.6-0.7c-0.3-0.4-0.7-0.8-1-1.2c-0.2-0.2-0.3-0.4-0.5-0.6c-0.4-0.5-0.7-0.9-1.1-1.3
			c-0.1-0.2-0.3-0.3-0.4-0.5c-0.4-0.5-0.8-1-1.1-1.5c-0.1-0.1-0.1-0.2-0.2-0.3c-2.8-3.8-5.3-7.8-7.6-11.9c0,0-0.1-0.1-0.1-0.2
			c-0.3-0.6-0.7-1.3-1-1.9c0-0.1-0.1-0.2-0.1-0.3c-0.3-0.6-0.6-1.3-1-1.9c-0.1-0.1-0.1-0.2-0.2-0.3c-0.3-0.6-0.6-1.3-0.9-1.9
			c-0.1-0.1-0.1-0.2-0.2-0.3c-0.3-0.6-0.6-1.3-0.9-1.9c0-0.1-0.1-0.2-0.1-0.3c-0.3-0.7-0.6-1.3-0.9-2c0-0.1-0.1-0.2-0.1-0.3
			c-0.3-0.7-0.6-1.4-0.8-2.1c0,0,0-0.1-0.1-0.2c-3.2-8.4-5.4-17.3-6.5-26.6h-2.7c-8.3,0-10.9-6.7-10.9-15v-14.3
			c0-5.6,3.1-10.5,7.6-13c2.2-1.2,0.6-1.9,3.3-1.9h2c0.8,0,1.6,0,2.4,0c-7.6,0-13.8-6.2-13.8-13.8v-14.9c0-54.5,44.2-98.7,98.7-98.7
			H215c4.3,0,8.5,0.3,12.7,0.8c-48.5,6.2-86.1,47.7-86.1,97.9V140c0,7.6,6.2,13.8,13.8,13.8c-0.8,0-1.6,0-2.4,0h-2
			c-2.7,0-5.2,0.7-7.4,1.9c-4.5,2.6-7.6,7.4-7.6,13v14.3c0,8.3,6.7,15,15,15h2.7c0.5,4.6,1.3,9.2,2.4,13.6c1.1,4.4,2.4,8.8,4.1,13
			c0,0,0,0.1,0.1,0.2c0.3,0.7,0.5,1.4,0.8,2.1c0,0.1,0.1,0.2,0.1,0.3c0.3,0.7,0.6,1.3,0.8,2c0,0.1,0.1,0.2,0.1,0.3
			c0.3,0.6,0.6,1.3,0.9,1.9c0,0.1,0.1,0.2,0.2,0.3c0.3,0.6,0.6,1.3,0.9,1.9c0.1,0.1,0.1,0.2,0.2,0.3c0.3,0.6,0.6,1.3,1,1.9
			c0.1,0.1,0.1,0.2,0.1,0.3c0.3,0.6,0.7,1.3,1,1.9c0,0.1,0.1,0.1,0.1,0.2c2.3,4.1,4.8,8.1,7.6,11.9c0.1,0.1,0.1,0.2,0.2,0.3
			c0.4,0.5,0.8,1,1.1,1.5c0.1,0.2,0.3,0.3,0.4,0.5c0.3,0.4,0.7,0.9,1.1,1.3c0.2,0.2,0.3,0.4,0.5,0.6c0.3,0.4,0.7,0.8,1,1.2
			c0.2,0.2,0.4,0.5,0.6,0.7c0.3,0.4,0.7,0.8,1,1.2c0.2,0.2,0.4,0.5,0.7,0.7c0.3,0.4,0.7,0.7,1,1.1c0.2,0.2,0.5,0.5,0.7,0.8
			c0.3,0.4,0.7,0.7,1,1.1c0.2,0.3,0.5,0.5,0.8,0.8c0.3,0.3,0.7,0.7,1,1c0.3,0.3,0.5,0.5,0.8,0.8c0.3,0.3,0.7,0.6,1,1
			c0.3,0.3,0.6,0.5,0.9,0.8c0.3,0.3,0.6,0.6,1,0.9c0.3,0.3,0.6,0.5,0.9,0.8c0.3,0.3,0.6,0.6,0.9,0.8c0.4,0.3,0.7,0.6,1.1,0.9
			c0.3,0.2,0.6,0.5,0.9,0.7c0.5,0.4,1.1,0.9,1.6,1.3c0.2,0.2,0.4,0.3,0.6,0.5c0.6,0.4,1.1,0.9,1.7,1.3c0.2,0.2,0.4,0.3,0.7,0.5
			c0.4,0.3,0.9,0.7,1.4,1c0.3,0.2,0.5,0.4,0.8,0.5c0.4,0.3,0.9,0.6,1.3,0.9c0.3,0.2,0.5,0.4,0.8,0.5c0.4,0.3,0.9,0.6,1.3,0.9
			c0.3,0.2,0.6,0.3,0.8,0.5c0.4,0.3,0.9,0.6,1.3,0.8c0.3,0.2,0.6,0.3,0.8,0.5c0.4,0.3,0.9,0.5,1.4,0.8c0.3,0.2,0.5,0.3,0.8,0.5
			c0.5,0.3,0.9,0.5,1.4,0.8c0.3,0.1,0.5,0.3,0.8,0.4c0.5,0.3,1,0.5,1.5,0.8c0.3,0.1,0.5,0.3,0.8,0.4c0.5,0.3,1,0.5,1.5,0.8
			c0.2,0.1,0.5,0.2,0.8,0.4c0.5,0.3,1.1,0.5,1.6,0.8c0.2,0.1,0.5,0.2,0.7,0.3c0.6,0.3,1.2,0.5,1.8,0.8c0.2,0.1,0.4,0.2,0.6,0.2
			c0.7,0.3,1.4,0.6,2.1,0.9c0.1,0,0.2,0.1,0.3,0.1C223.8,287.7,226.1,288.5,228.3,289.2z"/>
		<path id="XMLID_1580_" class="st108" d="M250.1,39.9c8.8,4.4,21.2,13.1,28.3,29.5c1.6,3.6-2.2,7.3-5.7,5.6l0,0
			c-2.3-1.1-4.7,1.3-3.7,3.6c1.5,3.4,3.3,7.7,4.9,12.1c1.6,4.5-4.2,7.8-7.3,4.2c-8.2-9.6-20.4-20.8-33.1-22.4
			c-1.4-0.2-2.2-1.8-1.4-3c1.8-2.9,5.4-7.3,11.1-8.9c5.1-1.4,8.4-6.5,7.3-11.6c-0.4-2-1.3-4.1-2.8-6.3
			C246.5,41.2,248.3,39,250.1,39.9z"/>
		<path id="XMLID_1740_" class="st109" d="M449.2,375.6c0,19.4-2.4,38.2-7,56.1c-10.9,11.5-22.8,22.1-35.7,31.4
			c-22.6,16.5-48.1,29.3-75.5,37.7c-23.7,7.2-48.8,11.1-74.9,11.1c-7.5,0-14.9-0.3-22.2-0.9c-0.3,0-0.6-0.1-1-0.1
			c-12.9-1.1-25.5-3.3-37.8-6.3c-3.1-0.8-6.2-1.6-9.3-2.5c-7.7-2.2-15.2-4.7-22.6-7.6c-0.1,0-0.1,0-0.2-0.1
			c-26.3-10.2-50.5-24.7-71.7-42.5c-11.1-9.4-21.5-19.7-30.9-30.8c-0.2-0.3-0.5-0.5-0.7-0.8c-25.6-30.5-44.2-67-53.4-107.2
			C19.7,267.1,47.3,227,84,198.1c12.8-10.1,26.8-18.8,41.6-26c0.7-0.3,1.3-0.6,2-0.9c4-1.9,8.1-3.7,12.2-5.3
			c4.1-1.6,8.2-3.1,12.3-4.5c0.9-0.3,1.7-0.6,2.6-0.8c21.6-6.9,44.7-10.6,68.6-10.6c35,0,68.2,8,97.8,22.2
			c24.1,11.6,45.8,27.3,64.1,46.2c3.7,3.8,7.3,7.8,10.8,11.9c4.6,5.5,9,11.2,13.1,17.2c0.2,0.3,0.4,0.5,0.6,0.8
			c12.7,18.5,22.7,39.1,29.4,61C445.7,330.2,449.2,352.5,449.2,375.6z"/>
		<path id="XMLID_1639_" class="st6" d="M404.3,76.6l76.7,32.3c9.2,3.9,9.3,16.9,0.2,21l-76.8,34V76.6z"/>
		<path id="XMLID_1638_" class="st16" d="M404.3,249.1L404.3,249.1c-4.5,0-8.2-3.7-8.2-8.2V72.3c0-4.5,3.7-8.2,8.2-8.2h0
			c4.5,0,8.2,3.7,8.2,8.2v168.5C412.5,245.4,408.9,249.1,404.3,249.1z"/>
		<path id="XMLID_1637_" class="st20" d="M411.7,198.8c-15.2,0-27.5,12.3-27.5,27.5V248v86.4h-31v55.1h31h38.7
			c9.1,0,16.4-7.4,16.4-16.4V248v-21.6C439.2,211.2,426.9,198.8,411.7,198.8z"/>
		<rect id="XMLID_1636_" x="353.2" y="334.5" class="st21" width="25.6" height="55.1"/>
		<path id="XMLID_1635_" class="st21" d="M424.5,202c-8.7,4.6-14.7,13.8-14.7,24.4v108.1h-25.6V226.4c0-15.2,12.3-27.5,27.5-27.5
			C416.3,198.9,420.7,200,424.5,202z"/>
		<path id="XMLID_1689_" class="st0" d="M364.7,330v60.4c0,7.8-6.6,14.1-14.4,13.6l-19.4-1.2v98.1c-23.7,7.2-48.8,11.1-74.9,11.1
			c-7.5,0-14.9-0.3-22.2-0.9c-0.3,0-0.6-0.1-1-0.1c-12.9-1.1-25.5-3.3-37.8-6.3c-3.1-0.8-6.2-1.6-9.3-2.5
			c-7.7-2.2-15.2-4.7-22.6-7.6c-0.1,0-0.1,0-0.2-0.1c-26.3-10.2-50.5-24.7-71.7-42.5c-11.1-9.4-21.5-19.7-30.9-30.8
			c-0.2-0.3-0.5-0.5-0.7-0.8V364c0-26.3,21.3-47.6,47.5-47.6h243.8C358.7,316.4,364.7,322.5,364.7,330z"/>
		<path id="XMLID_1664_" class="st15" d="M138.9,316.4c-4,0-8,0.5-11.7,1.5c-0.2,0-0.3,0.1-0.5,0.1c-20.3,5.4-35.3,23.9-35.3,46
			v88.1c-11.1-9.4-21.5-19.7-30.9-30.8V364c0-26.3,21.3-47.6,47.6-47.6H138.9z"/>
		<polyline id="XMLID_1632_" class="st105" points="165.7,365.5 195.6,429.4 227.5,365.5 		"/>
		<path id="XMLID_1631_" class="st20" d="M203.2,336.3h-15.3c-12.3,0-22.2-9.9-22.2-22.2v-36.6c0-12.3,9.9-22.2,22.2-22.2h15.3
			c12.3,0,22.2,9.9,22.2,22.2v36.6C225.4,326.3,215.5,336.3,203.2,336.3z"/>
		<path id="XMLID_1630_" class="st21" d="M206,336.1c-1,0.2-2.1,0.2-3.2,0.2h-15.3c-12.3,0-22.2-9.9-22.2-22.2v-36.6
			c0-12.3,9.9-22.2,22.2-22.2h15.3c1.1,0,2.2,0.1,3.2,0.2c-10.7,1.6-19,10.8-19,22v36.6C187,325.2,195.3,334.5,206,336.1z"/>
		<path id="XMLID_1629_" class="st20" d="M308,154c-0.6-0.1-1.2-0.1-1.8-0.1h-2.5v-1.6c-8.8-5.8-38.9-26.3-53.1-46
			c-4.9-6.7-14.1-8.6-21.3-4.5c-21.9,12.3-64.7,34.9-103.6,45.8v38.4c0,1.1,0,2.3,0.1,3.4c1.6,51.7,39.4,94.3,88.9,103.2
			c46.7-8.4,83-46.7,88.4-94.5h3.2c8.3,0,15-6.7,15-15v-14.3C321.2,161.2,315.5,154.9,308,154z"/>
		<path id="XMLID_1628_" class="st21" d="M125.7,189.4c0-1.1-0.1-2.3-0.1-3.4v-38.4c-13.8,3.9-27,6.3-38.7,6.3h-2
			c-2.7,0-5.2,0.7-7.4,1.9c-4.5,2.6-7.6,7.4-7.6,13v14.3c0,8.3,6.7,15,15,15h2.7c0,0,0,0,0,0c1,9.2,3.2,18.1,6.5,26.5
			c0,0.1,0,0.1,0.1,0.2c0.3,0.7,0.5,1.4,0.8,2.1c0,0.1,0.1,0.2,0.1,0.3c0.3,0.7,0.6,1.3,0.8,2c0,0.1,0.1,0.2,0.1,0.3
			c0.3,0.6,0.6,1.3,0.9,1.9c0.1,0.1,0.1,0.2,0.2,0.3c0.3,0.6,0.6,1.3,0.9,1.9c0.1,0.1,0.1,0.2,0.2,0.3c0.3,0.6,0.6,1.3,1,1.9
			c0,0.1,0.1,0.2,0.1,0.3c0.3,0.6,0.7,1.3,1,1.9c0,0.1,0.1,0.1,0.1,0.2c2.3,4.1,4.8,8.1,7.6,11.9c0.1,0.1,0.1,0.2,0.2,0.3
			c0.4,0.5,0.8,1,1.1,1.5c0.1,0.2,0.3,0.3,0.4,0.5c0.4,0.5,0.7,0.9,1.1,1.3c0.2,0.2,0.3,0.4,0.5,0.6c0.3,0.4,0.7,0.8,1,1.2
			c0.2,0.2,0.4,0.5,0.6,0.7c0.3,0.4,0.7,0.8,1,1.2c0.2,0.2,0.4,0.5,0.6,0.7c0.3,0.4,0.7,0.7,1,1.1c0.2,0.3,0.5,0.5,0.7,0.7
			c0.3,0.4,0.7,0.7,1,1.1c0.2,0.3,0.5,0.5,0.7,0.8c0.3,0.3,0.7,0.7,1,1c0.3,0.3,0.5,0.5,0.8,0.8c0.3,0.3,0.7,0.6,1,1
			c0.3,0.3,0.6,0.5,0.8,0.8c0.3,0.3,0.7,0.6,1,0.9c0.3,0.3,0.6,0.5,0.9,0.8c0.3,0.3,0.6,0.6,1,0.8c0.3,0.3,0.7,0.6,1,0.9
			c0.3,0.2,0.6,0.5,0.9,0.7c0.5,0.4,1.1,0.9,1.6,1.3c0.2,0.2,0.4,0.3,0.6,0.5c0.6,0.4,1.1,0.9,1.7,1.3c0.2,0.2,0.5,0.3,0.7,0.5
			c0.5,0.3,0.9,0.7,1.4,1c0.3,0.2,0.5,0.4,0.8,0.5c0.4,0.3,0.9,0.6,1.3,0.9c0.3,0.2,0.5,0.4,0.8,0.5c0.4,0.3,0.9,0.6,1.3,0.9
			c0.3,0.2,0.5,0.3,0.8,0.5c0.4,0.3,0.9,0.6,1.3,0.8c0.3,0.2,0.6,0.3,0.8,0.5c0.5,0.3,0.9,0.5,1.4,0.8c0.3,0.2,0.6,0.3,0.8,0.5
			c0.5,0.3,0.9,0.5,1.4,0.8c0.3,0.2,0.5,0.3,0.8,0.4c0.5,0.3,1,0.5,1.5,0.8c0.3,0.1,0.5,0.3,0.8,0.4c0.5,0.3,1,0.5,1.5,0.8
			c0.3,0.1,0.5,0.2,0.8,0.4c0.5,0.3,1.1,0.5,1.6,0.8c0.2,0.1,0.5,0.2,0.7,0.3c0.6,0.3,1.2,0.5,1.8,0.8c0.2,0.1,0.4,0.2,0.6,0.2
			c0.7,0.3,1.4,0.6,2.1,0.9c0.1,0,0.2,0.1,0.3,0.1c2.4,1,4.9,1.8,7.4,2.6c0.1,0,0.1,0,0.2,0.1c0.8,0.2,1.5,0.5,2.3,0.7
			c0.2,0,0.3,0.1,0.5,0.1c0.7,0.2,1.3,0.4,2,0.5c0.2,0.1,0.4,0.1,0.6,0.2c0.6,0.2,1.3,0.3,1.9,0.5c0.2,0.1,0.5,0.1,0.7,0.2
			c0.6,0.1,1.2,0.3,1.9,0.4c0.2,0.1,0.5,0.1,0.7,0.2c0.6,0.1,1.2,0.2,1.8,0.4c0.3,0,0.5,0.1,0.8,0.1c0.6,0.1,1.2,0.2,1.9,0.3
			c0.3,0,0.5,0.1,0.8,0.1c0.6,0.1,1.3,0.2,1.9,0.3c0.2,0,0.5,0.1,0.7,0.1c0.7,0.1,1.3,0.2,2,0.2c0.2,0,0.5,0.1,0.7,0.1
			c0.7,0.1,1.4,0.1,2.1,0.2c0.2,0,0.4,0,0.6,0c0.8,0.1,1.5,0.1,2.3,0.1c0.1,0,0.2,0,0.4,0c1.8,0.1,3.7,0.1,5.5,0.1h0
			c0.1,0,0.2,0,0.2,0c1.4,0,2.9,0,4.3-0.1c0.2,0,0.4,0,0.6,0c1.4-0.1,2.9-0.2,4.3-0.3c0.2,0,0.4,0,0.7-0.1c1.4-0.1,2.8-0.3,4.2-0.5
			c0.2,0,0.4-0.1,0.7-0.1c1.4-0.2,2.8-0.4,4.1-0.7c0.1,0,0.2,0,0.3-0.1C165.2,283.7,127.4,241.1,125.7,189.4z"/>
		<circle id="XMLID_1624_" class="st23" cx="142.3" cy="168.7" r="14.9"/>
		<circle id="XMLID_1623_" class="st16" cx="146.1" cy="163.9" r="6.6"/>
		<circle id="XMLID_1620_" class="st23" cx="246.6" cy="168.7" r="14.9"/>
		<circle id="XMLID_1619_" class="st16" cx="250.4" cy="163.9" r="6.6"/>
		<path id="XMLID_1617_" class="st21" d="M202,202.9h-13.4c-4.4,0-8-3.6-8-8v0c0-4.4,3.6-8,8-8H202c4.4,0,8,3.6,8,8v0
			C210,199.3,206.4,202.9,202,202.9z"/>
		<path id="XMLID_1616_" class="st36" d="M224.6,221.2c1.6,0,2.8,1.3,2.8,2.8l0,0c0,2.9-0.4,5.8-1.1,8.4c-1.7,6.2-5.2,11.7-9.9,15.9
			c-5.7,4.9-13.1,7.9-21.1,7.9s-15.5-3-21.1-7.9c-4.7-4.1-8.3-9.6-9.9-15.9c-0.7-2.7-1.1-5.5-1.1-8.4l0,0c0-1.6,1.3-2.8,2.8-2.8
			H224.6z"/>
		<path id="XMLID_1615_" class="st26" d="M216.4,248.3c-5.7,4.9-13.1,7.9-21.1,7.9s-15.5-3-21.1-7.9c5.7-4.9,13.1-7.9,21.1-7.9
			S210.8,243.4,216.4,248.3z"/>
		<path id="XMLID_1613_" class="st16" d="M224.6,221.2c1.6,0,2.8,1.3,2.8,2.8l0,0c0,2.9-0.4,5.8-1.1,8.4h-62.2
			c-0.7-2.7-1.1-5.5-1.1-8.4l0,0c0-1.6,1.3-2.8,2.8-2.8H224.6z"/>
		<path id="XMLID_1611_" class="st16" d="M259.8,314.2l-34.5-8c-4.2,31.7-29.7,30.7-29.7,30.7s-25.5,1-29.7-30.7l-34.5,8
			c-4.7,1.1-6.8,6.5-4.2,10.5l42.6,64c2.1,3.1,6.6,3.2,8.8,0.2l17-23.4l17,23.4c2.2,3,6.7,2.9,8.8-0.2l42.6-64
			C266.6,320.7,264.5,315.3,259.8,314.2z"/>
		<path id="XMLID_1610_" class="st110" d="M188,376.6l-8.9,12.3c-2.2,3-6.7,2.9-8.8-0.2l-42.6-64c-2.6-4-0.5-9.4,4.2-10.5l34.5-7.9
			c0.3,2,0.6,3.9,1,5.7l-9.8,2.3c-4.7,1.1-6.8,6.5-4.2,10.5L188,376.6z"/>
		<path id="XMLID_1657_" class="st16" d="M231.7,438v58.4c0,4.6-3.7,8.3-8.3,8.3h-28.3c-3.1-0.8-6.2-1.6-9.3-2.5
			c-7.7-2.2-15.2-4.7-22.6-7.6c-0.1,0-0.1,0-0.2-0.1V438c0-3.8,2.6-7.1,6.2-8c0,0,0,0,0.1,0c0.3-0.1,0.5-0.1,0.8-0.2
			c0.3,0,0.6-0.1,0.8-0.1c0.1,0,0.2,0,0.3,0h52.2C228,429.7,231.7,433.4,231.7,438z"/>
		<path id="XMLID_1662_" class="st110" d="M183.4,496.1c0,2.4,0.9,4.6,2.4,6.1c-7.7-2.2-15.2-4.7-22.6-7.6v-56.4c0-4,2.6-7.3,6-8.3
			c0,0,0,0,0.1,0c0.5-0.1,1.1-0.2,1.6-0.2c0.1,0,0.2,0,0.3,0h20.2c-4.4,0-8,3.8-8,8.6V496.1z"/>
		<line id="XMLID_1607_" class="st105" x1="177.3" y1="445.5" x2="214.7" y2="445.5"/>
		<path id="XMLID_1591_" class="st15" d="M301.1,419.7h-50.3c-3.8,0-7-3.1-7-7v-8.3c0-3.8,3.1-7,7-7h50.3c3.8,0,7,3.1,7,7v8.3
			C308,416.6,304.9,419.7,301.1,419.7z"/>
	</g>
</g>
</svg>
