<?xml version="1.0" encoding="utf-8"?>
<!-- Generator: Adobe Illustrator 22.0.1, SVG Export Plug-In . SVG Version: 6.00 Build 0)  -->
<svg version="1.1" xmlns="http://www.w3.org/2000/svg" xmlns:xlink="http://www.w3.org/1999/xlink" x="0px" y="0px"
	 viewBox="0 0 512 512" style="enable-background:new 0 0 512 512;" xml:space="preserve">
<style type="text/css">
	.st0{fill:#E9B12D;}
	.st1{fill:#A9E7D8;}
	.st2{fill:#76CFB1;}
	.st3{fill:#AE6B5D;}
	.st4{fill:#7770D3;}
	.st5{fill:#5BA0F5;}
	.st6{fill:#DA4545;}
	.st7{fill:#89CCFC;}
	.st8{fill:#CD462A;}
	.st9{fill:#514896;}
	.st10{fill:#5493A0;}
	.st11{fill:#CC6B5C;}
	.st12{fill:#62AA8D;}
	.st13{fill:#8ABAAB;}
	.st14{fill:#C3791F;}
	.st15{fill:#E39123;}
	.st16{fill:#FFFFFF;}
	.st17{fill:none;stroke:#FFFFFF;stroke-width:10;stroke-linecap:round;stroke-miterlimit:10;}
	.st18{fill:none;stroke:#5F55AB;stroke-width:10;stroke-linecap:round;stroke-miterlimit:10;}
	.st19{fill:#A9671C;}
	.st20{fill:#D5B3A7;}
	.st21{fill:#C09A8F;}
	.st22{fill:#487F87;}
	.st23{fill:#1B305C;}
	.st24{fill:#172945;}
	.st25{fill:none;}
	.st26{fill:#B62A2A;}
	.st27{fill:#325859;}
	.st28{fill:#3F6E71;}
	.st29{fill:#284646;}
	.st30{fill:#8F2727;}
	.st31{fill:#29477C;}
	.st32{fill:#5B9BEE;}
	.st33{fill:#487FDE;}
	.st34{fill:#CD9829;}
	.st35{fill:#9F2A2A;}
	.st36{fill:#4C3328;}
	.st37{fill:#E8B94A;}
	.st38{fill:#DDF8F1;}
	.st39{fill:#3E2A22;}
	.st40{fill:#D3A971;}
	.st41{fill:#C79A5B;}
	.st42{fill:#233E76;}
	.st43{fill:#21395F;}
	.st44{fill:#487D82;}
	.st45{fill:none;stroke:#C79A5B;stroke-width:10;stroke-linecap:round;stroke-miterlimit:10;}
	.st46{fill:#5E3E31;}
	.st47{fill:#AC3939;}
	.st48{fill:#CA9628;}
	.st49{fill:#AF8F88;}
	.st50{fill:#815048;}
	.st51{fill:#6F4232;}
	.st52{fill:#5F55AB;}
	.st53{fill:#192A48;}
	.st54{fill:#152336;}
	.st55{fill:#192B49;}
	.st56{fill:#264173;}
	.st57{fill:#B06F1E;}
	.st58{fill:#4E88C0;}
	.st59{fill:#83C3F1;}
	.st60{fill:#CF9929;}
	.st61{fill:none;stroke:#FFFFFF;stroke-width:10;stroke-linecap:round;stroke-linejoin:round;stroke-miterlimit:10;}
	.st62{fill:#EAC262;}
	.st63{fill:#D6D5D4;}
	.st64{fill:#6BBA9B;}
	.st65{fill:#63AA8F;}
	.st66{fill:none;stroke:#3E2A22;stroke-width:10;stroke-linecap:round;stroke-miterlimit:10;}
	.st67{fill:#CA7D1F;}
	.st68{fill:#213B64;}
	.st69{fill:#CDF8EC;}
	.st70{fill:#C59125;}
	.st71{fill:none;stroke:#C09A8F;stroke-width:10;stroke-linecap:round;stroke-miterlimit:10;}
	.st72{fill:#32579B;}
	.st73{fill:#172843;}
	.st74{fill:#D66767;}
	.st75{fill:#A74949;}
	.st76{fill:#EBC76F;}
	.st77{fill:#7A4940;}
	.st78{fill:#182A48;}
	.st79{fill:none;stroke:#A0794A;stroke-width:10;stroke-linecap:round;stroke-miterlimit:10;}
	.st80{fill:#C37A20;}
	.st81{fill:#D26D5C;}
	.st82{fill:#A45752;}
	.st83{fill:#284579;}
	.st84{fill:#88C7F4;}
	.st85{fill:#6EB6F0;}
	.st86{fill:#32221E;}
	.st87{fill:#E7A6A6;}
	.st88{fill:#C59191;}
	.st89{fill:#AA3B3B;}
	.st90{fill:#B83E3E;}
	.st91{fill:none;stroke:#5F55A9;stroke-width:10;stroke-linecap:round;stroke-miterlimit:10;}
	.st92{fill:#963838;}
	.st93{fill:#402B25;}
	.st94{fill:#6B6ABA;}
	.st95{fill:#BABABA;}
	.st96{fill:#D1D1D1;}
	.st97{fill:#264377;}
	.st98{fill:#A19BF5;}
	.st99{fill:#3C2A21;}
	.st100{fill:none;stroke:#4C3328;stroke-width:10;stroke-linecap:round;stroke-miterlimit:10;}
	.st101{fill:#C1781F;}
	.st102{fill:#E3A147;}
	.st103{fill:#F2D2A1;}
	.st104{fill:#4F372D;}
	.st105{fill:none;stroke:#DA4545;stroke-width:10;stroke-linecap:round;stroke-miterlimit:10;}
	.st106{fill:#AA3928;}
	.st107{fill:#8C2C22;}
	.st108{fill:#BF4336;}
	.st109{fill:#5797D4;}
	.st110{fill:#CFCFCF;}
	.st111{fill:#613A2E;}
	.st112{fill:none;stroke:#B18653;stroke-width:10;stroke-linecap:round;stroke-miterlimit:10;}
	.st113{fill:#B13B3B;}
	.st114{fill:#16263A;}
	.st115{fill:none;stroke:#16263A;stroke-width:10;stroke-miterlimit:10;}
	.st116{fill:#C87D20;}
	.st117{fill:#E4F0FD;}
	.st118{fill:#AA3737;}
	.st119{fill:#BF771F;}
	.st120{fill:none;stroke:#CD462A;stroke-width:10;stroke-linejoin:round;stroke-miterlimit:10;}
	.st121{fill:#5696D2;}
	.st122{fill:#C0771E;}
	.st123{fill:#9B5F1B;}
	.st124{fill:#A83A29;}
	.st125{fill:#E7A74F;}
	.st126{fill:#C9924C;}
	.st127{fill:#C58E48;}
	.st128{fill:#BE8844;}
	.st129{fill:#916939;}
	.st130{fill:#264275;}
	.st131{fill:#253F65;}
	.st132{fill:#182A45;}
	.st133{fill:#162336;}
	.st134{fill:#93C7B7;}
	.st135{fill:#E6A4A4;}
	.st136{fill:#B06B1D;}
	.st137{fill:#484185;}
	.st138{fill:#DB6E6E;}
	.st139{fill:#6BBA9A;}
	.st140{fill:#CACCCC;}
	.st141{fill:#D4D4D4;}
	.st142{fill:#A98881;}
	.st143{fill:#213A62;}
	.st144{fill:#A2837D;}
	.st145{fill:#6FB8F4;}
	.st146{fill:#9B9E9E;}
	.st147{fill:#B2B3B3;}
	.st148{fill:#20385D;}
	.st149{fill:#335AA8;}
	.st150{fill:#BCE7FD;}
	.st151{fill:#3B2921;}
	.st152{fill:#AD3C3C;}
	.st153{fill:#9D3838;}
	.st154{fill:#603F33;}
	.st155{fill:#4D868B;}
	.st156{fill:#A2DDFD;}
	.st157{fill:#ECB6B6;}
	.st158{fill:#E8A346;}
	.st159{fill:#514C94;}
	.st160{fill:#D2F1E8;}
	.st161{fill:#BDD6CE;}
	.st162{fill:#B93B29;}
	.st163{fill:#E0AD70;}
	.st164{fill:#C57C21;}
	.st165{fill:#EDA34A;}
	.st166{fill:#2F538F;}
	.st167{fill:#2B4B78;}
	.st168{fill:#65AF91;}
	.st169{fill:#A7CEFC;}
	.st170{fill:#98BDE2;}
	.st171{fill:#CFE5F7;}
	.st172{fill:#5492CD;}
	.st173{fill:#97CCBC;}
	.st174{fill:#5491CA;}
	.st175{fill:#EDC563;}
	.st176{fill:#423C79;}
	.st177{fill:#D3B1A5;}
	.st178{fill:#BE988D;}
	.st179{fill:#A7E5D6;}
	.st180{fill:#F2FFF9;}
	.st181{fill:#D64545;}
	.st182{fill:#A73B3B;}
	.st183{fill:#15233A;}
	.st184{fill:none;stroke:#BE988D;stroke-width:10;stroke-linecap:round;stroke-miterlimit:10;}
	.st185{fill:#AF3A29;}
	.st186{fill:#FAF9FF;}
	.st187{fill:#CACACC;}
	.st188{fill:#372720;}
	.st189{fill:#3F2C26;}
	.st190{fill:#2D201C;}
	.st191{fill:#3D6D6F;}
	.st192{fill:#5B54A8;}
	.st193{fill:#325799;}
	.st194{fill:#E8C26E;}
	.st195{fill:#254784;}
	.st196{fill:#5696D4;}
	.st197{fill:#4F8AB6;}
	.st198{fill:#5FA4AC;}
	.st199{fill:#AA3524;}
	.st200{fill:#D15F4D;}
	.st201{fill:#2B294C;}
	.st202{fill:#A43A2A;}
	.st203{fill:#E7AE2D;}
	.st204{fill:#CD9729;}
	.st205{fill:none;stroke:#AA8253;stroke-width:10;stroke-linecap:round;stroke-miterlimit:10;}
	.st206{fill:none;stroke:#E18F23;stroke-width:10;stroke-linecap:round;stroke-linejoin:round;stroke-miterlimit:10;}
	.st207{fill:#CF9828;}
	.st208{fill:#B88926;}
	.st209{fill:#A17623;}
	.st210{fill:#96CCBC;}
	.st211{fill:#CF9A2A;}
	.st212{fill:#C57B20;}
	.st213{fill:#C7F1E6;}
	.st214{fill:#DC6363;}
	.st215{fill:#E89F9F;}
	.st216{fill:#C88C8C;}
	.st217{fill:#C16E6E;}
	.st218{fill:#A46060;}
	.st219{fill:#AA3626;}
	.st220{fill:#87EDC4;}
	.st221{fill:#D86552;}
	.st222{fill:#BC7620;}
	.st223{fill:#BA741E;}
	.st224{fill:#8F8CE3;}
	.st225{fill:#3A2820;}
	.st226{fill:#AC7060;}
	.st227{fill:#915F55;}
	.st228{fill:#49332A;}
	.st229{fill:#2D1F1B;}
	.st230{fill:#69B7BE;}
	.st231{fill:#D6D6D6;}
	.st232{fill:#B8B8B8;}
	.st233{fill:#CACACA;}
	.st234{fill:#467B80;}
	.st235{fill:#C2EDE2;}
	.st236{fill:#A9574F;}
	.st237{fill:#5595D2;}
	.st238{fill:#955949;}
	.st239{fill:#7E4B42;}
	.st240{fill:#89CCF1;}
	.st241{fill:#DD584A;}
	.st242{fill:#C18F26;}
	.st243{fill:#B33C2A;}
	.st244{fill:#D1A771;}
	.st245{fill:#B42A2A;}
	.st246{fill:#325797;}
	.st247{fill:#9F3529;}
	.st248{fill:#EDCE80;}
	.st249{fill:#F0DBAC;}
	.st250{fill:#CFB478;}
	.st251{fill:#D4C29B;}
	.st252{fill:#993939;}
	.st253{fill:#D1AFA3;}
	.st254{fill:#BC968B;}
	.st255{fill:none;stroke:#BC968B;stroke-width:10;stroke-linecap:round;stroke-miterlimit:10;}
	.st256{fill:#814C3C;}
	.st257{fill:#C0EBE0;}
	.st258{fill:#A5E3D4;}
	.st259{fill:#15243C;}
	.st260{fill:#443E79;}
	.st261{fill:#F0FFF7;}
	.st262{fill:#9A764B;}
	.st263{fill:#826443;}
	.st264{fill:#D9AA74;}
	.st265{fill:#5DA186;}
	.st266{fill:#68B596;}
	.st267{fill:#E5C6BE;}
	.st268{fill:#D3B6B1;}
	.st269{fill:none;stroke:#BAA09C;stroke-width:10;stroke-linecap:round;stroke-miterlimit:10;}
	.st270{fill:#F4D78F;}
	.st271{fill:#20385F;}
	.st272{fill:#BA8727;}
	.st273{fill:#5A9C82;}
	.st274{fill:none;stroke:#E39123;stroke-width:10;stroke-linecap:round;stroke-linejoin:round;stroke-miterlimit:10;}
	.st275{fill:#60392D;}
	.st276{fill:#CCCCCC;}
	.st277{fill:#844F3E;}
	.st278{fill:#F3FFFB;}
	.st279{fill:#365E60;}
	.st280{fill:#D84545;}
	.st281{fill:#A83B3B;}
	.st282{fill:#253F70;}
	.st283{fill:#EAADAD;}
	.st284{fill:#443E7C;}
	.st285{fill:#3D6B9F;}
	.st286{fill:#4274BC;}
	.st287{fill:#AF3827;}
	.st288{fill:#E59D9D;}
	.st289{fill:#C48989;}
	.st290{fill:none;stroke:#9B621A;stroke-width:10;stroke-linecap:round;stroke-linejoin:round;stroke-miterlimit:10;}
	.st291{fill:#213A5E;}
	.st292{fill:#2D507A;}
	.st293{fill:#528EC8;}
	.st294{fill:#EFD696;}
	.st295{fill:#D1BA87;}
	.st296{fill:#FDFCFC;}
	.st297{fill:#86CBFC;}
	.st298{fill:#7AB7DA;}
	.st299{fill:#192C4C;}
	.st300{fill:#BCBCBC;}
	.st301{fill:#A13838;}
	.st302{fill:#75BDF6;}
	.st303{fill:#D0B1AA;}
	.st304{fill:#142233;}
	.st305{fill:#E6C4BB;}
	.st306{fill:#BDBDBD;}
	.st307{fill:#E8A192;}
	.st308{fill:#A43939;}
	.st309{fill:#162640;}
	.st310{fill:#27457C;}
	.st311{fill:#EFBE5E;}
	.st312{fill:#87EDC5;}
	.st313{fill:#A03838;}
	.st314{fill:#833232;}
	.st315{fill:#47417F;}
	.st316{fill:none;stroke:#915F55;stroke-width:10;stroke-linecap:round;stroke-miterlimit:10;}
	.st317{fill:#BC8B25;}
	.st318{fill:#473129;}
	.st319{fill:#67B394;}
	.st320{fill:#599A80;}
	.st321{fill:#B13D3D;}
</style>
<g id="BULINE">
	<circle id="XMLID_1517_" class="st7" cx="256" cy="256" r="256"/>
	<g>
	</g>
</g>
<g id="Icons">
	<g id="XMLID_4354_">
		<path id="XMLID_2296_" class="st150" d="M481.8,138c0,16.4-1.7,32.3-5,47.7c-13.4,62.7-52.6,115.7-106,147.5
			c-11,6.5-22.6,12.2-34.6,16.8c-1.8,0.7-3.7,1.4-5.5,2c-1.4,0.5-2.8,1-4.2,1.4c-13.3,4.4-27.1,7.7-41.4,9.6c-9.9,1.3-20,2-30.3,2
			c-2.8,0-5.6-0.1-8.4-0.2c-7.2-0.3-14.4-0.9-21.4-1.8c-0.1,0-0.3,0-0.4-0.1c-13.2-1.8-26.1-4.7-38.5-8.6c-2.2-0.7-4.4-1.4-6.6-2.2
			c-1-0.4-2.1-0.7-3.1-1.1c-0.9-0.3-1.9-0.7-2.8-1.1c-0.8-0.3-1.7-0.6-2.5-1c-11.2-4.4-21.9-9.7-32.1-15.8c-0.1,0-0.2-0.1-0.2-0.1
			c-53.7-32.1-93.1-85.7-106.1-149c-2.9-14.3-4.6-29.1-4.7-44.2C70.1,56.9,156.4,0,256,0c97.7,0,182.6,54.7,225.8,135.2
			C481.8,136.1,481.8,137.1,481.8,138z"/>
		<path id="XMLID_2113_" class="st151" d="M281.8,61.5h-44.5l-8.1-34.8c-1-11.9,8.4-22.2,20.3-22.2h20c12,0,21.4,10.3,20.3,22.2
			L281.8,61.5z"/>
		<path id="XMLID_2118_" class="st7" d="M146.2,299.5c-8.8,0-16.8,3.3-22.9,8.7c0.1-1,0.2-2.1,0.2-3.2c0-14.7-11.9-26.6-26.6-26.6
			c-2.4,0-4.8,0.3-7,0.9c4.4-5.8,7-13,7-20.9c0-18.2-14-33-31.8-34.4c3.2-4.4,5.2-9.9,5.2-15.8c0-14.7-11.9-26.6-26.6-26.6
			S17,193.5,17,208.2c0,12.7,8.9,23.3,20.7,26c-6.1,6.2-9.9,14.8-9.9,24.2c0,19.1,15.5,34.5,34.5,34.5c4.2,0,8.3-0.8,12-2.1
			c-2.6,4.1-4.1,9-4.1,14.2c0,14.7,11.9,26.6,26.6,26.6c5.8,0,11.2-1.9,15.6-5.1c-0.5,2.4-0.8,4.9-0.8,7.4
			c0,19.1,15.5,34.5,34.5,34.5c19.1,0,34.5-15.5,34.5-34.5C180.8,314.9,165.3,299.5,146.2,299.5z"/>
		<path id="XMLID_2117_" class="st7" d="M489.3,208.2c0-14.7-11.9-26.6-26.6-26.6c-14.7,0-26.6,11.9-26.6,26.6
			c0,5.9,1.9,11.4,5.2,15.8c-17.8,1.4-31.8,16.3-31.8,34.4c0,7.9,2.6,15.1,7,20.9c-2.2-0.6-4.6-0.9-7-0.9
			c-14.7,0-26.6,11.9-26.6,26.6c0,1.1,0.1,2.1,0.2,3.2c-6.1-5.4-14.1-8.7-22.9-8.7c-19.1,0-34.5,15.5-34.5,34.5
			c0,19.1,15.5,34.5,34.5,34.5c19.1,0,34.5-15.5,34.5-34.5c0-2.6-0.3-5-0.8-7.4c4.4,3.2,9.8,5.1,15.6,5.1
			c14.7,0,26.6-11.9,26.6-26.6c0-5.2-1.5-10.1-4.1-14.2c3.7,1.4,7.8,2.1,12,2.1c19.1,0,34.5-15.5,34.5-34.5c0-9.4-3.8-18-9.9-24.2
			C480.4,231.5,489.3,220.9,489.3,208.2z"/>
		<path id="XMLID_2256_" class="st152" d="M391.2,366.7v106.7c-9.7,6.1-19.9,11.5-30.4,16.2h0c-2.5,1.1-5.1,2.2-7.6,3.3
			c-5,2.1-10.2,4-15.4,5.7c-5.1,1.7-10.2,3.2-15.4,4.6C301.2,509,279,512,256,512c-18.6,0-36.7-2-54.1-5.7c-4.3-0.9-8.6-2-12.8-3.1
			c-5.2-1.4-10.3-2.9-15.4-4.7c-2.4-0.8-4.8-1.7-7.2-2.6c-2.7-1-5.5-2.1-8.2-3.2c-2.5-1-4.9-2.1-7.3-3.2c-0.5-0.2-1.1-0.5-1.6-0.8
			c-10.8-4.9-21.2-10.6-31.1-16.9V366.7c0-3.6,0.5-7.1,1.5-10.4c2.9-10.1,9.8-18.4,19-23.1c5.2-2.7,11.1-4.2,17.3-4.2h56.1
			c0,0,0,0,0,0h141.2c6.2,0,12.1,1.5,17.3,4.2c8.2,4.2,14.7,11.4,18,20.1C390.3,357.5,391.2,362,391.2,366.7z"/>
		<path id="XMLID_2148_" class="st153" d="M204.3,329c-9,0-17.2,3.1-23.7,8.4c-4,3.2-7.2,7.2-9.6,11.7c-0.2,0.3-0.4,0.7-0.5,1
			c-1.8,3.6-3,7.5-3.6,11.7c-0.2,1.6-0.3,3.3-0.3,5v129.2c-2.7-1-5.5-2.1-8.2-3.2c-2.5-1-4.9-2.1-7.3-3.2c-0.5-0.2-1.1-0.5-1.6-0.8
			c-10.8-4.9-21.2-10.6-31.1-16.9c0,0,0,0,0,0c-0.2-0.1-0.3-0.2-0.5-0.3V366.7c0-3.8,0.6-7.4,1.6-10.9c3-10,10-18.2,19.1-22.8
			c5.1-2.6,10.9-4.1,17-4.1H204.3z"/>
		<path id="XMLID_2107_" class="st40" d="M262.7,387.6h-15.4c-12.3,0-22.3-10-22.3-22.3v-36.8c0-12.3,10-22.3,22.3-22.3h15.4
			c12.3,0,22.3,10,22.3,22.3v36.8C285,377.6,275,387.6,262.7,387.6z"/>
		<path id="XMLID_2106_" class="st41" d="M265.5,387.4c-1.1,0.2-2.1,0.2-3.2,0.2h-15.4c-12.3,0-22.3-10-22.3-22.3v-36.8
			c0-12.3,10-22.3,22.3-22.3h15.4c1.1,0,2.2,0.1,3.2,0.2c-10.8,1.6-19.1,10.9-19.1,22.1v36.8C246.4,376.6,254.7,385.9,265.5,387.4z"
			/>
		<path id="XMLID_4086_" class="st36" d="M386.3,227.7v-14.4c0-2.9-0.8-5.5-2.2-7.8c-0.5-0.8-1-1.5-1.6-2.2c0.6,0.7,1.1,1.4,1.6,2.1
			c3-11.1,4.7-22.7,4.7-34.8c0-24.1-6.5-46.7-17.8-66.1c-16.7-28.7-44-50.4-76.5-59.6c-0.7-0.2-1.5-0.4-2.2-0.6
			c-0.5-0.1-1-0.2-1.4-0.4c-0.9-0.2-1.8-0.4-2.7-0.6c-0.5-0.1-1-0.2-1.5-0.3c-0.1,0-0.2-0.1-0.3-0.1c-0.1,0-0.2-0.1-0.3-0.1
			c-0.7-0.1-1.4-0.3-2.1-0.4c-1.4-0.3-2.9-0.5-4.3-0.8c-0.5-0.1-1.1-0.2-1.6-0.2c-6-0.9-12.2-1.3-18.4-1.3c-8.9,0-17.5,0.9-25.9,2.6
			c-36.1,7.4-66.7,30.1-85,61c-11.6,19.6-18.2,42.4-18.2,66.9c0,5.4,0.3,10.7,0.9,15.9c0,0.1,0,0.3,0.1,0.4c0.8,6.6,2.1,13,3.8,19.2
			c0.1-0.2,0.3-0.5,0.4-0.7c0,0,0-0.1,0.1-0.1c-0.2,0.3-0.3,0.6-0.5,0.8c-1.1,2-1.7,4.3-1.7,6.7c0,0.1,0,0.2,0,0.3v0v14
			c-1.7,5.6-3,12.5-2.8,20.7c0.2,5.7,7.5,8,10.9,3.3c2-2.7,4.3-5.7,7-8.5h2.5c-3.1,9.1-9.2,32.7,1,56.5c1.9,4.5,8.1,4.9,10.6,0.7
			c1.9-3,4.2-6,6.9-8.1c0.2,0.3,0.5,0.7,0.7,1c0.1,0.1,0.2,0.3,0.3,0.5c0.9,1.2,1.8,2.5,2.7,3.7c0.1,0.1,0.1,0.1,0.2,0.2
			c0.5,0.6,0.9,1.2,1.4,1.8c0,0.1,0.1,0.1,0.1,0.2c0,0,0.1,0.1,0.1,0.1c0.5,0.6,0.9,1.1,1.4,1.7c0,0,0.1,0.1,0.1,0.1
			c0.5,0.6,1,1.2,1.6,1.8c0.5,0.6,1.1,1.2,1.6,1.8c1.1,1.2,2.2,2.4,3.4,3.5c1.2,1.1,2.3,2.2,3.5,3.3c0.6,0.5,1.2,1.1,1.8,1.6
			c0.6,0.5,1.2,1.1,1.9,1.6c2.1,1.8,4.3,3.4,6.6,5c0.5,0.4,1,0.7,1.5,1.1c0.3,0.2,0.7,0.4,1,0.7c0.3,0.2,0.6,0.4,0.9,0.6
			c0.2,0.1,0.4,0.2,0.5,0.3c0.4,0.2,0.8,0.5,1.2,0.7c0.1,0.1,0.2,0.1,0.3,0.2c0.6,0.4,1.3,0.8,1.9,1.2c0,0,0.1,0,0.1,0.1
			c0,0,0,0,0,0c0.5,0.3,1,0.6,1.6,0.9c0.3,0.1,0.6,0.3,0.8,0.5c0,0,0.1,0.1,0.1,0.1c0.1,0,0.1,0.1,0.2,0.1c0.5,0.3,0.9,0.5,1.4,0.8
			c0,0,0,0,0.1,0c0,0,0.1,0,0.1,0.1c0.6,0.3,1.2,0.6,1.9,1c0.7,0.3,1.3,0.7,2,1c0.5,0.2,0.9,0.4,1.4,0.7c3.8,1.8,7.8,3.3,11.8,4.6
			c0.7,0.2,1.4,0.5,2.2,0.7c0.6,0.2,1.1,0.3,1.7,0.5c0.2,0.1,0.4,0.1,0.7,0.2c0.5,0.1,1.1,0.3,1.6,0.4c0.3,0.1,0.5,0.1,0.8,0.2
			c0.1,0,0.2,0.1,0.3,0.1c0.6,0.1,1.2,0.3,1.8,0.4c0.1,0,0.2,0.1,0.3,0.1c0.3,0.1,0.5,0.1,0.8,0.2c0.4,0.1,0.9,0.2,1.3,0.3
			c0.1,0,0.1,0,0.2,0c0.2,0,0.4,0.1,0.6,0.1c0.6,0.1,1.1,0.2,1.7,0.3c0,0,0,0,0,0c0.5,0.1,1,0.2,1.4,0.3c0.1,0,0.1,0,0.2,0
			c0.2,0,0.4,0.1,0.6,0.1c0.5,0.1,1,0.2,1.5,0.2c0.6,0.1,1.2,0.2,1.8,0.2c0.1,0,0.2,0,0.4,0c0.2,0,0.3,0,0.5,0.1
			c0.4,0.1,0.9,0.1,1.3,0.1c0.1,0,0.1,0,0.2,0c0.4,0.1,0.9,0.1,1.3,0.2c0.3,0,0.7,0.1,1,0.1c0,0,0.1,0,0.1,0c0,0,0.1,0,0.1,0
			c0.4,0,0.8,0.1,1.3,0.1c0.5,0,1.1,0.1,1.6,0.1c0.2,0,0.4,0,0.6,0c0.5,0,1.1,0.1,1.7,0.1c0.3,0,0.7,0,1,0c0.2,0,0.4,0,0.6,0
			c0.9,0,1.8,0,2.6,0c0.9,0,1.7,0,2.6,0c0.6,0,1.2,0,1.8-0.1c1,0,2.1-0.1,3.1-0.2c0.3,0,0.6,0,1-0.1c0.2,0,0.4,0,0.7-0.1
			c0.2,0,0.3,0,0.5,0c0.2,0,0.5,0,0.7-0.1c0.7-0.1,1.5-0.1,2.2-0.2c0.6-0.1,1.1-0.1,1.7-0.2c0.1,0,0.2,0,0.3,0c0.2,0,0.4,0,0.5-0.1
			c0.6-0.1,1.2-0.2,1.9-0.3c0.9-0.1,1.8-0.3,2.7-0.4h0c0.1,0,0.1,0,0.2,0c1-0.2,2-0.4,3-0.6c0.4-0.1,0.7-0.2,1.1-0.2
			c1.1-0.2,2.1-0.5,3.2-0.8c0.1,0,0.1,0,0.2,0c0.8-0.2,1.5-0.4,2.3-0.6c0,0,0,0,0,0c16.4-4.6,31.3-12.9,43.6-24
			c6.3-5.7,11.9-12.1,16.7-19c2.4,2.1,4.4,4.8,6.1,7.5c2.6,4.1,8.7,3.7,10.6-0.7c9.5-22.1,4.9-44.1,1.7-54.4
			c0.1-0.7,0.2-1.4,0.3-2.1h1.5c2.7,2.9,5,5.8,7,8.5c3.4,4.7,10.7,2.4,10.9-3.3c0.2-6.2-0.5-11.7-1.6-16.4
			C386.1,230.3,386.3,229,386.3,227.7z M135.7,205.3c0-0.1,0.1-0.1,0.1-0.2c0.1-0.1,0.2-0.2,0.2-0.4c0-0.1,0.1-0.1,0.1-0.2
			C136,204.8,135.9,205,135.7,205.3z M136.3,204.4C136.3,204.4,136.3,204.4,136.3,204.4c0.2-0.3,0.4-0.5,0.6-0.8
			c0.1-0.1,0.2-0.2,0.2-0.3C136.8,203.7,136.5,204.1,136.3,204.4z"/>
		<path id="XMLID_1679_" class="st154" d="M299.1,62c8.8,4.4,21.2,13.1,28.3,29.5c1.6,3.6-2.2,7.3-5.7,5.6l0,0
			c-2.3-1.1-4.7,1.3-3.7,3.6c1.5,3.4,3.3,7.7,4.9,12.1c1.6,4.5-4.2,7.8-7.3,4.2c-8.2-9.6-20.4-20.8-33.1-22.4
			c-1.4-0.2-2.2-1.8-1.4-3c1.8-2.9,5.4-7.3,11.1-8.9c5.1-1.4,8.4-6.5,7.3-11.6c-0.4-2-1.3-4.1-2.8-6.3
			C295.4,63.3,297.2,61.1,299.1,62z"/>
		<path id="XMLID_2187_" class="st40" d="M391.2,415.5v57.9c-9.7,6.1-19.9,11.5-30.4,16.2h0c-2.5,1.1-5.1,2.2-7.6,3.3
			c-5,2.1-10.2,4-15.4,5.7c-5.1,1.7-10.2,3.2-15.4,4.6C301.2,509,279,512,256,512c-18.6,0-36.7-2-54.1-5.7c-4.3-0.9-8.6-2-12.8-3.1
			c-5.2-1.4-10.3-2.9-15.4-4.7c-2.4-0.8-4.8-1.7-7.2-2.6c-2.7-1-5.5-2.1-8.2-3.2c-2.5-1-4.9-2.1-7.3-3.2c-0.5-0.2-1.1-0.5-1.6-0.8
			c-10.8-4.9-21.2-10.6-31.1-16.9c0,0,0,0,0,0v-56.4c0-0.4,0-0.8,0-1.2c0.6-23,17.4-41.9,39.4-45.9c0.2,0,0.4-0.1,0.6-0.1
			c2.6-0.4,5.2-0.6,7.9-0.6h177.1c3.4,0,6.6,0.4,9.8,1C374.9,373.2,391.2,392.5,391.2,415.5z"/>
		<path id="XMLID_1722_" class="st41" d="M197.3,367.7c-2.8,0-5.5,0.2-8.2,0.7c-5.4,0.9-10.6,2.8-15.2,5.4c0,0-0.1,0.1-0.1,0.1
			c-2.6,1.4-5,3.1-7.2,5c-3.1,2.6-5.8,5.5-8.2,8.8c-5.6,7.8-8.9,17.5-8.9,27.8v73.3c-10.8-4.9-21.2-10.6-31.1-16.9v-56.4
			c0-23.5,17-43.1,39.4-47.1c0.2,0,0.4-0.1,0.6-0.1c2.6-0.4,5.2-0.6,7.9-0.6H197.3z"/>
		<path id="XMLID_2168_" class="st10" d="M360.7,489.7c-2.5,1.1-5.1,2.2-7.6,3.3c-5,2.1-10.2,4-15.4,5.7c-5.1,1.7-10.2,3.2-15.4,4.6
			C301.2,509,279,512,256,512c-18.6,0-36.7-2-54.1-5.7c-4.3-0.9-8.6-2-12.8-3.1c-5.2-1.4-10.3-2.9-15.4-4.7
			c-2.4-0.8-4.8-1.7-7.2-2.6c-2.7-1-5.5-2.1-8.2-3.2c-2.5-1-4.9-2.1-7.3-3.2c0.2-0.2,0.3-0.4,0.5-0.6c1.1-1.1,2.6-1.8,4.2-1.8
			c0.9,0,1.7-0.1,2.5-0.2c3-0.4,5.8-1.6,8.2-3.3c3.9-2.9,6.6-7.3,7.2-12.4c0.1-0.7,0.1-1.4,0.1-2.1v-97.9c0-1.3,0.2-2.5,0.6-3.6
			c1.5-4.5,5.8-7.8,10.9-7.8H198c3.2,0,6,1.3,8.1,3.4c1.2,1.2,2.2,2.8,2.8,4.5c0.4,1.1,0.6,2.4,0.6,3.6v5.9c0,0.3,0,0.7,0,1
			c0,0.3,0,0.7,0,1c0,0.3,0,0.6,0.1,0.9c0,0.1,0,0.2,0,0.3c0,0.3,0,0.6,0.1,0.9c0.1,0.7,0.1,1.3,0.2,2c0.1,0.7,0.2,1.3,0.3,1.9
			c0.2,0.9,0.4,1.9,0.7,2.8c0,0,0,0,0,0.1c0.3,0.9,0.6,1.9,0.9,2.8c0.1,0.3,0.2,0.6,0.3,0.9c0.1,0.3,0.2,0.6,0.4,0.9
			c0.2,0.6,0.5,1.2,0.8,1.7c0.1,0.2,0.2,0.4,0.3,0.7c0,0.1,0.1,0.2,0.2,0.3c0.1,0.2,0.2,0.5,0.4,0.7c0.2,0.3,0.3,0.6,0.5,0.8
			c0.2,0.3,0.3,0.6,0.5,0.8c0.5,0.8,1,1.6,1.6,2.4c0.2,0.2,0.3,0.5,0.5,0.7c2.4,3.3,5.4,6.1,8.7,8.5c6.4,4.6,14.3,7.3,22.9,7.3h13.1
			c21.7,0,39.3-17.6,39.3-39.3v-5.9c0-1.3,0.2-2.5,0.6-3.6c1.5-4.5,5.8-7.8,10.9-7.8h12.7c5.1,0,9.3,3.3,10.8,7.8
			c0.4,1.1,0.6,2.4,0.6,3.6v97.9c0,2.1,0.4,4.1,1,6c2.3,6.5,8.2,11.3,15.4,11.9c0.5,0,1.1,0.1,1.6,0.1h1.1
			C357.9,487.2,359.7,488.2,360.7,489.7z"/>
		<path id="XMLID_2119_" class="st155" d="M225.9,409.2v60c0,9.9-8.1,18-18,18c-1.7,0-3.2,0.7-4.2,1.8c-1.1,1.1-1.8,2.6-1.8,4.2
			v13.1c-4.3-0.9-8.6-2-12.8-3.1c-5.2-1.4-10.3-2.9-15.4-4.7c-2.4-0.8-4.8-1.7-7.2-2.6c-2.7-1-5.5-2.1-8.2-3.2
			c-2.5-1-4.9-2.1-7.3-3.2c0.2-0.2,0.3-0.4,0.5-0.6c1.1-1.1,2.6-1.8,4.2-1.8c0.9,0,1.7-0.1,2.5-0.2c3-0.4,5.8-1.6,8.2-3.3
			c3.9-2.9,6.6-7.3,7.2-12.4c0.1-0.7,0.1-1.4,0.1-2.1v-97.9c0-1.3,0.2-2.5,0.6-3.6c1.5-4.5,5.8-7.8,10.9-7.8H198
			c3.2,0,6,1.3,8.1,3.4c1.2,1.2,2.2,2.8,2.8,4.5c0.4,1.1,0.6,2.4,0.6,3.6v5.9c0,0.3,0,0.7,0,1c0,0.3,0,0.7,0,1c0,0.3,0,0.6,0.1,0.9
			c0,0.1,0,0.2,0,0.3c0,0.3,0,0.6,0.1,0.9c0.1,0.7,0.1,1.3,0.2,2c0.1,0.7,0.2,1.3,0.3,1.9c0.2,0.9,0.4,1.9,0.7,2.8c0,0,0,0,0,0.1
			c0.3,0.9,0.6,1.9,0.9,2.8c0.1,0.3,0.2,0.6,0.3,0.9c0.1,0.3,0.2,0.6,0.4,0.9c0.2,0.6,0.5,1.2,0.8,1.7c0.1,0.2,0.2,0.4,0.3,0.7
			c0,0.1,0.1,0.2,0.2,0.3c0.1,0.2,0.2,0.5,0.4,0.7c0.1,0.3,0.3,0.6,0.5,0.8c0.2,0.3,0.3,0.6,0.5,0.8c0.5,0.8,1,1.6,1.6,2.4
			c0.2,0.2,0.3,0.5,0.5,0.7C219.6,404,222.6,406.8,225.9,409.2z"/>
		<path id="XMLID_2102_" class="st40" d="M169.9,293.3c-3.3-4.7-6.2-9.6-8.8-14.7C163.6,283.8,166.6,288.7,169.9,293.3z"/>
		<path id="XMLID_2101_" class="st40" d="M172.8,297.3c-1-1.3-2-2.6-2.9-3.9C170.8,294.7,171.8,296,172.8,297.3z"/>
		<path id="XMLID_2100_" class="st40" d="M182.5,308.2c-1.2-1.1-2.3-2.3-3.4-3.5C180.2,305.9,181.3,307.1,182.5,308.2z"/>
		<path id="XMLID_2099_" class="st40" d="M150.6,242.7L150.6,242.7c0.3,2.7,0.7,5.4,1.2,8c1.5,8.2,4,16,7.2,23.4
			c-3.2-7.4-5.7-15.2-7.2-23.4C151.3,248.1,150.9,245.4,150.6,242.7z"/>
		<path id="XMLID_2098_" class="st40" d="M186,311.5c-1.2-1.1-2.4-2.2-3.5-3.3C183.6,309.3,184.8,310.5,186,311.5z"/>
		<path id="XMLID_2080_" class="st40" d="M383.4,205.4c-2.6-4.4-7.4-7.3-12.9-7.3H368v-17c0-23.1-7.2-44.5-19.5-62.2
			c-22,10.3-53.7,16.7-89,16.7c-20.9,0-40.5-2.3-57.7-6.2c-12.2-2.8-23.1-6.5-32.2-10.9c-0.9,1.2-1.7,2.5-2.6,3.8
			c-1.9,2.9-3.6,6-5.2,9.1c-2,3.9-3.8,8-5.3,12.1c-4.3,11.7-6.6,24.3-6.6,37.5v17h-2c-5.8,0-10.8,3.3-13.3,8c-1.1,2.1-1.7,4.5-1.7,7
			v14.4c0,8.3,6.8,15.1,15.1,15.1h2.7h0c0.3,2.7,0.7,5.4,1.2,8c1.5,8.2,4,16,7.2,23.4c0.3,0.8,0.7,1.5,1,2.2
			c0.3,0.7,0.7,1.5,1.1,2.2c2.5,5.1,5.5,10.1,8.8,14.7c0.9,1.3,1.9,2.6,2.9,3.9c0.5,0.6,1,1.3,1.5,1.9c0.5,0.6,1,1.2,1.5,1.8
			c0,0,0.1,0.1,0.1,0.1c0.5,0.6,1,1.2,1.6,1.8c0.5,0.6,1.1,1.2,1.6,1.8c1.1,1.2,2.2,2.4,3.4,3.5c1.2,1.1,2.3,2.2,3.5,3.3
			c0.6,0.5,1.2,1.1,1.8,1.6c0.6,0.5,1.2,1.1,1.9,1.6c2.1,1.8,4.3,3.4,6.6,5c0.5,0.4,1,0.7,1.5,1.1c0.6,0.4,1.2,0.8,1.9,1.2
			c0.6,0.4,1.1,0.7,1.7,1.1c0.1,0.1,0.2,0.1,0.3,0.2c0.6,0.4,1.3,0.8,1.9,1.2c0,0,0.1,0.1,0.1,0.1c0.5,0.3,1,0.6,1.6,0.9
			c0.3,0.2,0.6,0.4,1,0.5c0.5,0.3,1.1,0.6,1.6,0.9c0,0,0.1,0.1,0.1,0.1c0.6,0.3,1.2,0.6,1.9,1c0.7,0.3,1.3,0.7,2,1
			c0.5,0.2,0.9,0.4,1.4,0.7c4.5,2.1,9.2,3.9,14,5.3c0.6,0.2,1.1,0.3,1.7,0.5c0.7,0.2,1.5,0.4,2.2,0.6c0.4,0.1,0.8,0.2,1.2,0.3
			c0.6,0.1,1.2,0.3,1.8,0.4c0.1,0,0.2,0.1,0.3,0.1c0.7,0.2,1.4,0.3,2.1,0.5c0.2,0.1,0.5,0.1,0.7,0.1c0.6,0.1,1.1,0.2,1.7,0.3
			c0.5,0.1,1,0.2,1.4,0.3c0.3,0,0.5,0.1,0.8,0.1c0.5,0.1,1,0.2,1.5,0.2c0.6,0.1,1.2,0.2,1.8,0.3c0.3,0,0.6,0.1,0.8,0.1
			c0.5,0.1,1,0.1,1.5,0.2c0.4,0.1,0.9,0.1,1.3,0.1c0.4,0,0.8,0.1,1.2,0.1c0.5,0.1,0.9,0.1,1.4,0.1c0.8,0.1,1.5,0.1,2.3,0.1
			c0.5,0,1.1,0.1,1.7,0.1c0.5,0,1.1,0,1.6,0.1c0.9,0,1.7,0,2.6,0c2.5,0,5-0.1,7.4-0.3c0.6,0,1.1-0.1,1.6-0.1c0.4,0,0.8-0.1,1.2-0.1
			c0.7-0.1,1.5-0.1,2.2-0.2c0.6-0.1,1.1-0.1,1.7-0.2c0.3,0,0.5-0.1,0.8-0.1c0.6-0.1,1.2-0.2,1.9-0.3c0.9-0.1,1.8-0.3,2.7-0.4h0
			c20.3-3.7,38.7-13,53.5-26.2c17.4-15.7,29.7-36.8,34.2-60.8c0.5-2.6,0.9-5.3,1.2-8h3.2c8.3,0,15.1-6.7,15.1-15.1v-14.4
			C385.6,210.4,384.8,207.7,383.4,205.4z"/>
		<path id="XMLID_2078_" class="st41" d="M288.4,335.5c-3.2,0.9-6.6,1.7-9.9,2.3h0c-0.9,0.2-1.8,0.3-2.7,0.5
			c-0.6,0.1-1.2,0.2-1.9,0.3c-0.3,0.1-0.5,0.1-0.8,0.1c-0.6,0.1-1.1,0.1-1.7,0.2c-0.7,0.1-1.5,0.2-2.2,0.2c-0.4,0-0.8,0.1-1.2,0.1
			c-0.5,0-1.1,0.1-1.6,0.1c-2.5,0.2-4.9,0.2-7.4,0.2c-0.9,0-1.8,0-2.6,0c-0.5,0-1,0-1.6-0.1c-0.5,0-1.1,0-1.6-0.1
			c-0.8,0-1.5-0.1-2.3-0.1c-0.5,0-0.9-0.1-1.4-0.1c-0.4,0-0.8-0.1-1.2-0.1c-0.4,0-0.9-0.1-1.3-0.1c-0.5,0-1-0.1-1.5-0.2
			c-0.3,0-0.6-0.1-0.8-0.1c-0.6-0.1-1.2-0.2-1.8-0.2c-0.5-0.1-1-0.2-1.5-0.2c-0.3,0-0.5-0.1-0.8-0.1c-0.5-0.1-1-0.2-1.4-0.3
			c-0.6-0.1-1.1-0.2-1.7-0.3c-0.2,0-0.5-0.1-0.7-0.1c-0.7-0.2-1.4-0.3-2.1-0.5c-0.1,0-0.2,0-0.3-0.1c-0.6-0.1-1.2-0.3-1.8-0.4
			c-0.4-0.1-0.8-0.2-1.1-0.3c-0.8-0.2-1.5-0.4-2.2-0.6c-0.6-0.2-1.1-0.3-1.7-0.5c-4.8-1.5-9.5-3.2-14-5.3c-0.5-0.2-0.9-0.4-1.4-0.7
			c-0.7-0.3-1.3-0.6-2-1c-0.6-0.3-1.2-0.6-1.9-1c0,0-0.1,0-0.2-0.1c-0.5-0.3-1.1-0.6-1.6-0.9c-0.3-0.2-0.7-0.4-1-0.5
			c-0.5-0.3-1-0.6-1.6-0.9c0,0-0.1-0.1-0.1-0.1c-0.7-0.4-1.3-0.8-1.9-1.2c-0.1-0.1-0.2-0.1-0.3-0.2c-0.6-0.4-1.1-0.7-1.7-1.1
			c-0.6-0.4-1.2-0.8-1.9-1.2c-0.5-0.3-1-0.7-1.5-1.1c-2.3-1.6-4.5-3.3-6.6-5c-0.6-0.5-1.2-1-1.9-1.6c-0.6-0.5-1.2-1.1-1.8-1.6
			c-1.2-1.1-2.4-2.2-3.5-3.3c-1.2-1.1-2.3-2.3-3.4-3.5c-0.5-0.6-1.1-1.2-1.6-1.8c-0.5-0.6-1-1.2-1.6-1.8c0,0,0,0-0.1-0.1
			c-0.5-0.6-1-1.2-1.5-1.8c-0.5-0.6-1-1.3-1.5-1.9c-1-1.3-2-2.6-2.9-3.9c-3.3-4.7-6.2-9.6-8.8-14.7c-0.4-0.7-0.7-1.5-1.1-2.2
			c-0.3-0.8-0.7-1.5-1-2.2c-3.2-7.4-5.7-15.2-7.2-23.4c-0.5-2.7-0.9-5.3-1.2-8h-2.8c-8.3,0-15.1-6.8-15.1-15.1v-14.4
			c0-2.5,0.6-4.9,1.8-7c2.5-4.8,7.6-8,13.3-8h2v-17c0-13.2,2.3-25.8,6.6-37.5c1.5-4.2,3.3-8.2,5.3-12.2c1.6-3.1,3.4-6.2,5.2-9.1
			c0.8-1.3,1.7-2.5,2.6-3.8c8.2,3.9,17.9,7.3,28.6,10c-9.2,19.6-14.4,41.8-14.4,65.2C183.8,262.5,228.4,320.2,288.4,335.5z"/>
		<path id="XMLID_2058_" class="st151" d="M291.6,44.4c-0.5-0.1-1-0.2-1.4-0.4c-0.9-0.2-1.8-0.4-2.7-0.6c-0.5-0.1-1-0.2-1.5-0.3
			c-0.1,0-0.2-0.1-0.3-0.1c-0.1,0-0.2-0.1-0.3-0.1c-0.7-0.1-1.4-0.3-2.1-0.4c-1.4-0.3-2.9-0.5-4.3-0.8c-0.5-0.1-1.1-0.2-1.6-0.2
			c-6-0.9-12.2-1.3-18.4-1.3c-8.9,0-17.5,0.9-25.9,2.6c-36.1,7.4-66.7,30.1-85,61c-11.6,19.6-18.2,42.4-18.2,66.9
			c0,5.4,0.3,10.7,0.9,15.9c0,0.1,0,0.3,0.1,0.4c0,0,0,0,0,0c0.8,6.6,2.1,13,3.8,19.2c0.1-0.2,0.3-0.5,0.4-0.7
			c0-0.1,0.1-0.1,0.1-0.1c0.1-0.1,0.1-0.2,0.1-0.2c0.1-0.1,0.2-0.2,0.2-0.4c0.1-0.1,0.1-0.2,0.2-0.2c0-0.1,0.1-0.1,0.1-0.1
			c0.2-0.2,0.3-0.4,0.5-0.7c0.2-0.2,0.3-0.4,0.5-0.6c0.1-0.1,0.1-0.1,0.1-0.2c0.1-0.1,0.1-0.1,0.2-0.2c0.1-0.1,0.2-0.2,0.4-0.4
			c0.1-0.1,0.1-0.1,0.2-0.2c0.2-0.2,0.5-0.4,0.8-0.7c0,0,0,0,0,0c0.2-0.2,0.5-0.4,0.8-0.6c0,0,0,0,0,0c0.1-0.1,0.2-0.1,0.3-0.2
			c0.5-0.3,0.9-0.6,1.4-0.9c0.3-0.2,0.6-0.3,0.9-0.4c0.1,0,0.2-0.1,0.3-0.1c0.1-0.1,0.3-0.1,0.4-0.2c0,0,0,0,0,0c0,0,0.1,0,0.1,0
			c0,0,0.1,0,0.1,0c0.1,0,0.1-0.1,0.2-0.1c0.1-0.1,0.2-0.1,0.4-0.1c0.1,0,0.1,0,0.2-0.1c0,0,0,0,0,0c0.2-0.1,0.3-0.1,0.5-0.1
			c0.1,0,0.1,0,0.2-0.1c0.1,0,0.1,0,0.2,0c0,0,0.1,0,0.1,0c0.1,0,0.2,0,0.2-0.1c0,0,0.1,0,0.1,0c0.1,0,0.1,0,0.2-0.1
			c0,0,0.1,0,0.1,0c0.2,0,0.4-0.1,0.6-0.1c0.1,0,0.1,0,0.2,0c0,0,0,0,0.1,0c0.1,0,0.2,0,0.3,0c0.2,0,0.3,0,0.5,0h0c0,0,0.1,0,0.1,0
			c0.3,0,0.6,0,0.9,0h2.1v-17c0-13.2,2.3-25.8,6.6-37.5c0.2-0.5,0.4-1,0.6-1.6c0.1-0.3,0.2-0.5,0.3-0.8c0.1-0.3,0.2-0.5,0.3-0.8
			c0.4-1,0.8-2.1,1.3-3.1c0.2-0.5,0.4-1,0.7-1.5c0.2-0.5,0.5-1,0.7-1.5h0c0.1-0.2,0.2-0.4,0.3-0.6c0.1-0.3,0.3-0.6,0.5-0.9h0
			c0.2-0.5,0.5-1,0.7-1.5c1.6-3.1,3.4-6.2,5.2-9.1c0.4-0.6,0.8-1.3,1.3-1.9c0.4-0.6,0.8-1.3,1.3-1.9h0c0.6,0.3,1.2,0.5,1.7,0.8
			c0.1,0,0.2,0.1,0.3,0.1c0.7,0.3,1.4,0.6,2.1,0.9c0.3,0.2,0.7,0.3,1,0.4c0.1,0.1,0.2,0.1,0.3,0.1c0.5,0.2,1,0.4,1.4,0.6
			c1.9,0.8,3.8,1.5,5.8,2.2c0.1,0,0.2,0.1,0.3,0.1c0.1,0.1,0.3,0.1,0.4,0.1c0.5,0.2,1.1,0.4,1.6,0.5c0.1,0,0.1,0,0.2,0.1
			c0.5,0.2,1.1,0.4,1.6,0.5c0.7,0.2,1.4,0.5,2.1,0.7c1.2,0.4,2.5,0.8,3.8,1.1c0.3,0.1,0.6,0.2,1,0.3c0.3,0.1,0.6,0.2,1,0.3
			c0.6,0.2,1.3,0.4,2,0.5c0.6,0.2,1.2,0.3,1.8,0.5c0.1,0,0.2,0,0.2,0.1c1.2,0.3,2.4,0.6,3.6,0.9c0.7,0.2,1.4,0.3,2.1,0.5
			c0.1,0,0.2,0,0.3,0.1c0.6,0.1,1.2,0.2,1.8,0.4v0c3-9.4,7-18.3,11.9-26.6c10.1-17,23.8-31.4,40.1-42.3c8.4-5.5,17.4-10.1,26.9-13.6
			c2.9-1.1,5.9-2,8.9-2.9C293.1,44.8,292.4,44.6,291.6,44.4z"/>
		<circle id="XMLID_2057_" class="st23" cx="205.6" cy="213.1" r="15"/>
		<circle id="XMLID_2054_" class="st16" cx="209.4" cy="208.2" r="6.6"/>
		<circle id="XMLID_2053_" class="st23" cx="310.5" cy="213.1" r="15"/>
		<circle id="XMLID_2045_" class="st16" cx="314.4" cy="208.2" r="6.6"/>
		<path id="XMLID_2044_" class="st41" d="M265.6,239.4h-13.5c-4.4,0-8.1-3.6-8.1-8.1v0c0-4.4,3.6-8.1,8.1-8.1h13.5
			c4.4,0,8.1,3.6,8.1,8.1v0C273.7,235.8,270.1,239.4,265.6,239.4z"/>
		<path id="XMLID_2000_" class="st36" d="M288.4,265.9c1.6,0,2.9,1.3,2.9,2.9l0,0c0,2.9-0.4,5.8-1.1,8.5c-1.7,6.3-5.2,11.8-10,16
			c-5.7,5-13.1,8-21.3,8c-8.1,0-15.6-3-21.3-8c-4.8-4.2-8.3-9.7-10-16c-0.7-2.7-1.1-5.6-1.1-8.5l0,0c0-1.6,1.3-2.9,2.9-2.9H288.4z"
			/>
		<path id="XMLID_1998_" class="st26" d="M280.1,293.2c-5.7,5-13.1,8-21.3,8c-8.1,0-15.6-3-21.3-8c5.7-5,13.1-8,21.3-8
			C267,285.2,274.5,288.2,280.1,293.2z"/>
		<path id="XMLID_1947_" class="st16" d="M288.4,265.9c1.6,0,2.9,1.3,2.9,2.9l0,0c0,2.9-0.4,5.8-1.1,8.5h-62.6
			c-0.7-2.7-1.1-5.6-1.1-8.5l0,0c0-1.6,1.3-2.9,2.9-2.9H288.4z"/>
		<path id="XMLID_1523_" class="st36" d="M366.5,248.7L366.5,248.7c-3.3,0-6.4,1-9,2.7c-1.1,0.7-2.1,1.5-2.9,2.5
			c-1.3,1.4-2.4,2.9-3.1,4.7c-7.3,17.2-21.4,31.7-39.7,41.4v-39.6c0-4.2-1.7-7.9-4.4-10.6s-6.5-4.4-10.6-4.4h-74.3
			c-8.3,0-15,6.7-15,15v41c-12.6-6.2-23.3-14.6-31.4-24.5c-4.5-5.5-8.2-11.6-11-18c-0.7-1.6-1.6-3-2.6-4.3l0,0
			c-2.7-3.3-6.6-5.4-10.9-5.8h0c-0.5-0.1-1.1-0.1-1.7-0.1h-0.5c1.6,8.4,4.1,16.4,7.4,23.9c0.4,0.8,0.7,1.5,1,2.3s0.7,1.5,1.1,2.3
			c1.5,3,3.1,6,4.9,8.8c1.3,2.1,2.7,4.2,4.1,6.2c0.1,0.1,0.1,0.2,0.2,0.3c0.9,1.3,1.8,2.5,2.8,3.7c0.5,0.7,1,1.3,1.6,2
			c0.5,0.6,1,1.2,1.6,1.9c0,0,0,0.1,0.1,0.1c0.5,0.6,1.1,1.2,1.6,1.8c0.6,0.6,1.1,1.2,1.7,1.9c1.1,1.2,2.3,2.4,3.5,3.6
			c1.2,1.2,2.4,2.3,3.6,3.4c0.6,0.6,1.2,1.1,1.9,1.6c0.6,0.6,1.3,1.1,1.9,1.6c2.2,1.8,4.4,3.5,6.8,5.1c0.5,0.4,1,0.7,1.6,1.1
			c0.6,0.4,1.3,0.8,1.9,1.3c0.6,0.4,1.1,0.7,1.7,1.1c0.1,0.1,0.2,0.1,0.3,0.2c0.6,0.4,1.3,0.8,2,1.2c0,0,0.1,0.1,0.1,0.1
			c0.5,0.3,1.1,0.6,1.6,0.9c0.3,0.2,0.7,0.4,1,0.5c0.5,0.3,1.1,0.6,1.7,0.9c0,0,0.1,0,0.1,0.1c0.6,0.3,1.3,0.7,1.9,1
			c0.7,0.3,1.4,0.7,2.1,1c0.2,0.1,0.5,0.2,0.8,0.4c0.2,0.1,0.4,0.2,0.6,0.3c4,1.8,8,3.4,12.2,4.8c0.1,0.1,0.3,0.1,0.4,0.1
			c0.6,0.2,1.1,0.4,1.7,0.5c0.6,0.2,1.1,0.3,1.7,0.5c0.8,0.2,1.5,0.4,2.3,0.6c0.4,0.1,0.8,0.2,1.2,0.3c0.6,0.1,1.2,0.3,1.8,0.4
			c0.1,0,0.2,0.1,0.4,0.1c0.7,0.2,1.4,0.3,2.2,0.5c0.2,0.1,0.5,0.1,0.8,0.1c0.6,0.1,1.2,0.2,1.7,0.3c0.5,0.1,1,0.2,1.5,0.3
			c0.3,0.1,0.5,0.1,0.8,0.1c0.5,0.1,1,0.2,1.5,0.2c0.6,0.1,1.2,0.2,1.8,0.2c0.3,0,0.6,0.1,0.9,0.1c0.4,0.1,0.8,0.1,1.2,0.2
			c0.1,0,0.2,0,0.2,0c0.4,0.1,0.9,0.1,1.4,0.1c0.4,0.1,0.8,0.1,1.2,0.1c0.5,0,0.9,0.1,1.4,0.1c0.1,0,0.1,0,0.2,0
			c0.3,0,0.6,0.1,1,0.1c0.1,0,0.1,0,0.2,0c0.1,0,0.2,0,0.3,0c0.2,0,0.4,0,0.6,0c0.6,0,1.1,0,1.7,0.1c0.5,0,1.1,0,1.6,0.1
			c0.9,0,1.8,0,2.7,0c2.6,0,5.1-0.1,7.6-0.3c0.6,0,1.1-0.1,1.7-0.1c0.4,0,0.8-0.1,1.2-0.1c0.8-0.1,1.5-0.1,2.2-0.2
			c0.6-0.1,1.2-0.1,1.7-0.2c0.3,0,0.5-0.1,0.8-0.1c0.6-0.1,1.3-0.2,1.9-0.3c0.9-0.1,1.8-0.3,2.8-0.5h0c2.1-0.4,4.1-0.8,6.2-1.3
			c7.4-1.8,14.5-4.3,21.3-7.4c10-4.7,19.2-10.8,27.3-18.1c5.9-5.3,11.2-11.2,15.9-17.7c9-12.5,15.5-26.9,18.8-42.5
			C368.4,249.7,367.6,248.7,366.5,248.7z M219,265.4c0-2.8,2.2-5,5-5h71c2.8,0,5,2.2,5,5v39.9c-7.2,2.8-14.9,4.9-23,6.1h0
			c-6.1,1-12.4,1.5-18.9,1.5c-1.8,0-3.5,0-5.2-0.1c-4.4-0.2-8.8-0.6-13.1-1.3h0c-1.9-0.3-3.8-0.6-5.7-1c-0.1,0-0.2,0-0.3-0.1
			c-5.1-1-10-2.4-14.8-4.1c0,0,0,0,0,0V265.4z"/>
		<path id="XMLID_2147_" class="st6" d="M189.1,362.7v140.4c-5.2-1.4-10.3-2.9-15.4-4.7c-2.4-0.8-4.8-1.7-7.2-2.6
			c-2.7-1-5.5-2.1-8.2-3.2v-130c0-6.8,5.3-12.3,12-12.7c0.2,0,0.4,0,0.7,0h5.3c0.2,0,0.3,0,0.5,0c0.5,0,1,0.1,1.5,0.1
			c0.2,0,0.4,0.1,0.6,0.1c0.4,0.1,0.8,0.2,1.2,0.3c0.2,0.1,0.4,0.1,0.6,0.2c0.2,0.1,0.4,0.2,0.7,0.3h0c1.8,0.8,3.3,1.9,4.5,3.3h0
			c1.4,1.5,2.3,3.4,2.8,5.5C189,360.8,189.1,361.7,189.1,362.7z"/>
		<path id="XMLID_2142_" class="st153" d="M181.4,351c-0.7,0.3-1.4,0.7-2,1.1c-3.4,2.3-5.6,6.2-5.6,10.5v135.8
			c-2.4-0.8-4.8-1.7-7.2-2.6c-2.7-1-5.5-2.1-8.2-3.2v-130c0-6.8,5.3-12.3,12-12.7c0.2,0,0.4,0,0.7,0h5.3c0.2,0,0.3,0,0.5,0
			c0.5,0,1,0.1,1.5,0.1c0.2,0,0.4,0.1,0.6,0.1c0.4,0.1,0.8,0.2,1.2,0.3c0.2,0.1,0.4,0.1,0.6,0.2C181,350.9,181.2,350.9,181.4,351z"
			/>
		<path id="XMLID_2087_" class="st6" d="M353.1,362.7v130.2c-5,2.1-10.2,4-15.4,5.7c-5.1,1.7-10.2,3.2-15.4,4.6V362.7
			c0-1,0.1-1.9,0.3-2.9c0.6-2.5,1.9-4.7,3.7-6.4h0c1-1,2.2-1.8,3.6-2.4c1.6-0.7,3.3-1.1,5.1-1.1h5.3c0.7,0,1.3,0.1,1.9,0.1
			c0.2,0,0.4,0.1,0.6,0.1c0.4,0.1,0.8,0.2,1.2,0.3c0.2,0.1,0.4,0.1,0.6,0.2c0.2,0.1,0.4,0.2,0.7,0.3h0
			C350,353,353.1,357.5,353.1,362.7z"/>
		<path id="XMLID_2077_" class="st153" d="M345.4,351c-3.9,1.7-6.8,5.2-7.5,9.5c-0.1,0.7-0.2,1.4-0.2,2.2v135.9
			c-5.1,1.7-10.2,3.2-15.4,4.6V362.7c0-1,0.1-1.9,0.3-2.9c0.6-2.5,1.9-4.7,3.7-6.4h0c1-1,2.2-1.8,3.6-2.4c1.6-0.7,3.3-1.1,5.1-1.1
			h5.3c0.7,0,1.3,0.1,1.9,0.1c0.2,0,0.4,0.1,0.6,0.1c0.4,0.1,0.8,0.2,1.2,0.3c0.2,0.1,0.4,0.1,0.6,0.2
			C345,350.9,345.2,350.9,345.4,351z"/>
	</g>
</g>
</svg>
