<?xml version="1.0" encoding="utf-8"?>
<!-- Generator: Adobe Illustrator 22.0.1, SVG Export Plug-In . SVG Version: 6.00 Build 0)  -->
<svg version="1.1" xmlns="http://www.w3.org/2000/svg" xmlns:xlink="http://www.w3.org/1999/xlink" x="0px" y="0px"
	 viewBox="0 0 512 512" style="enable-background:new 0 0 512 512;" xml:space="preserve">
<style type="text/css">
	.st0{fill:#E9B12D;}
	.st1{fill:#A9E7D8;}
	.st2{fill:#76CFB1;}
	.st3{fill:#AE6B5D;}
	.st4{fill:#7770D3;}
	.st5{fill:#5BA0F5;}
	.st6{fill:#DA4545;}
	.st7{fill:#89CCFC;}
	.st8{fill:#CD462A;}
	.st9{fill:#514896;}
	.st10{fill:#5493A0;}
	.st11{fill:#CC6B5C;}
	.st12{fill:#62AA8D;}
	.st13{fill:#8ABAAB;}
	.st14{fill:#C3791F;}
	.st15{fill:#E39123;}
	.st16{fill:#FFFFFF;}
	.st17{fill:none;stroke:#FFFFFF;stroke-width:10;stroke-linecap:round;stroke-miterlimit:10;}
	.st18{fill:none;stroke:#5F55AB;stroke-width:10;stroke-linecap:round;stroke-miterlimit:10;}
	.st19{fill:#A9671C;}
	.st20{fill:#D5B3A7;}
	.st21{fill:#C09A8F;}
	.st22{fill:#487F87;}
	.st23{fill:#1B305C;}
	.st24{fill:#172945;}
	.st25{fill:none;}
	.st26{fill:#B62A2A;}
	.st27{fill:#325859;}
	.st28{fill:#3F6E71;}
	.st29{fill:#284646;}
	.st30{fill:#8F2727;}
	.st31{fill:#29477C;}
	.st32{fill:#5B9BEE;}
	.st33{fill:#487FDE;}
	.st34{fill:#CD9829;}
	.st35{fill:#9F2A2A;}
	.st36{fill:#4C3328;}
	.st37{fill:#E8B94A;}
	.st38{fill:#DDF8F1;}
	.st39{fill:#3E2A22;}
	.st40{fill:#D3A971;}
	.st41{fill:#C79A5B;}
	.st42{fill:#233E76;}
	.st43{fill:#21395F;}
	.st44{fill:#487D82;}
	.st45{fill:none;stroke:#C79A5B;stroke-width:10;stroke-linecap:round;stroke-miterlimit:10;}
	.st46{fill:#5E3E31;}
	.st47{fill:#AC3939;}
	.st48{fill:#CA9628;}
	.st49{fill:#AF8F88;}
	.st50{fill:#815048;}
	.st51{fill:#6F4232;}
	.st52{fill:#5F55AB;}
	.st53{fill:#192A48;}
	.st54{fill:#152336;}
	.st55{fill:#192B49;}
	.st56{fill:#264173;}
	.st57{fill:#B06F1E;}
	.st58{fill:#4E88C0;}
	.st59{fill:#83C3F1;}
	.st60{fill:#CF9929;}
	.st61{fill:none;stroke:#FFFFFF;stroke-width:10;stroke-linecap:round;stroke-linejoin:round;stroke-miterlimit:10;}
	.st62{fill:#EAC262;}
	.st63{fill:#D6D5D4;}
	.st64{fill:#6BBA9B;}
	.st65{fill:#63AA8F;}
	.st66{fill:none;stroke:#3E2A22;stroke-width:10;stroke-linecap:round;stroke-miterlimit:10;}
	.st67{fill:#CA7D1F;}
	.st68{fill:#213B64;}
	.st69{fill:#CDF8EC;}
	.st70{fill:#C59125;}
	.st71{fill:none;stroke:#C09A8F;stroke-width:10;stroke-linecap:round;stroke-miterlimit:10;}
	.st72{fill:#32579B;}
	.st73{fill:#172843;}
	.st74{fill:#D66767;}
	.st75{fill:#A74949;}
	.st76{fill:#EBC76F;}
	.st77{fill:#7A4940;}
	.st78{fill:#182A48;}
	.st79{fill:none;stroke:#A0794A;stroke-width:10;stroke-linecap:round;stroke-miterlimit:10;}
	.st80{fill:#C37A20;}
	.st81{fill:#D26D5C;}
	.st82{fill:#A45752;}
	.st83{fill:#284579;}
	.st84{fill:#88C7F4;}
	.st85{fill:#6EB6F0;}
	.st86{fill:#32221E;}
	.st87{fill:#E7A6A6;}
	.st88{fill:#C59191;}
	.st89{fill:#AA3B3B;}
	.st90{fill:#B83E3E;}
	.st91{fill:none;stroke:#5F55A9;stroke-width:10;stroke-linecap:round;stroke-miterlimit:10;}
	.st92{fill:#963838;}
	.st93{fill:#402B25;}
	.st94{fill:#6B6ABA;}
	.st95{fill:#BABABA;}
	.st96{fill:#D1D1D1;}
	.st97{fill:#264377;}
	.st98{fill:#A19BF5;}
	.st99{fill:#3C2A21;}
	.st100{fill:none;stroke:#4C3328;stroke-width:10;stroke-linecap:round;stroke-miterlimit:10;}
	.st101{fill:#C1781F;}
	.st102{fill:#E3A147;}
	.st103{fill:#F2D2A1;}
	.st104{fill:#4F372D;}
	.st105{fill:none;stroke:#DA4545;stroke-width:10;stroke-linecap:round;stroke-miterlimit:10;}
	.st106{fill:#AA3928;}
	.st107{fill:#8C2C22;}
	.st108{fill:#BF4336;}
	.st109{fill:#5797D4;}
	.st110{fill:#CFCFCF;}
	.st111{fill:#613A2E;}
	.st112{fill:none;stroke:#B18653;stroke-width:10;stroke-linecap:round;stroke-miterlimit:10;}
	.st113{fill:#B13B3B;}
	.st114{fill:#16263A;}
	.st115{fill:none;stroke:#16263A;stroke-width:10;stroke-miterlimit:10;}
	.st116{fill:#C87D20;}
	.st117{fill:#E4F0FD;}
	.st118{fill:#AA3737;}
	.st119{fill:#BF771F;}
	.st120{fill:none;stroke:#CD462A;stroke-width:10;stroke-linejoin:round;stroke-miterlimit:10;}
	.st121{fill:#5696D2;}
	.st122{fill:#C0771E;}
	.st123{fill:#9B5F1B;}
	.st124{fill:#A83A29;}
	.st125{fill:#E7A74F;}
	.st126{fill:#C9924C;}
	.st127{fill:#C58E48;}
	.st128{fill:#BE8844;}
	.st129{fill:#916939;}
	.st130{fill:#264275;}
	.st131{fill:#253F65;}
	.st132{fill:#182A45;}
	.st133{fill:#162336;}
	.st134{fill:#93C7B7;}
	.st135{fill:#E6A4A4;}
	.st136{fill:#B06B1D;}
	.st137{fill:#484185;}
	.st138{fill:#DB6E6E;}
	.st139{fill:#6BBA9A;}
	.st140{fill:#CACCCC;}
	.st141{fill:#D4D4D4;}
	.st142{fill:#A98881;}
	.st143{fill:#213A62;}
	.st144{fill:#A2837D;}
	.st145{fill:#6FB8F4;}
	.st146{fill:#9B9E9E;}
	.st147{fill:#B2B3B3;}
	.st148{fill:#20385D;}
	.st149{fill:#335AA8;}
	.st150{fill:#BCE7FD;}
	.st151{fill:#3B2921;}
	.st152{fill:#AD3C3C;}
	.st153{fill:#9D3838;}
	.st154{fill:#603F33;}
	.st155{fill:#4D868B;}
	.st156{fill:#A2DDFD;}
	.st157{fill:#ECB6B6;}
	.st158{fill:#E8A346;}
	.st159{fill:#514C94;}
	.st160{fill:#D2F1E8;}
	.st161{fill:#BDD6CE;}
	.st162{fill:#B93B29;}
	.st163{fill:#E0AD70;}
	.st164{fill:#C57C21;}
	.st165{fill:#EDA34A;}
	.st166{fill:#2F538F;}
	.st167{fill:#2B4B78;}
	.st168{fill:#65AF91;}
	.st169{fill:#A7CEFC;}
	.st170{fill:#98BDE2;}
	.st171{fill:#CFE5F7;}
	.st172{fill:#5492CD;}
	.st173{fill:#97CCBC;}
	.st174{fill:#5491CA;}
	.st175{fill:#EDC563;}
	.st176{fill:#423C79;}
	.st177{fill:#D3B1A5;}
	.st178{fill:#BE988D;}
	.st179{fill:#A7E5D6;}
	.st180{fill:#F2FFF9;}
	.st181{fill:#D64545;}
	.st182{fill:#A73B3B;}
	.st183{fill:#15233A;}
	.st184{fill:none;stroke:#BE988D;stroke-width:10;stroke-linecap:round;stroke-miterlimit:10;}
	.st185{fill:#AF3A29;}
	.st186{fill:#FAF9FF;}
	.st187{fill:#CACACC;}
	.st188{fill:#372720;}
	.st189{fill:#3F2C26;}
	.st190{fill:#2D201C;}
	.st191{fill:#3D6D6F;}
	.st192{fill:#5B54A8;}
	.st193{fill:#325799;}
	.st194{fill:#E8C26E;}
	.st195{fill:#254784;}
	.st196{fill:#5696D4;}
	.st197{fill:#4F8AB6;}
	.st198{fill:#5FA4AC;}
	.st199{fill:#AA3524;}
	.st200{fill:#D15F4D;}
	.st201{fill:#2B294C;}
	.st202{fill:#A43A2A;}
	.st203{fill:#E7AE2D;}
	.st204{fill:#CD9729;}
	.st205{fill:none;stroke:#AA8253;stroke-width:10;stroke-linecap:round;stroke-miterlimit:10;}
	.st206{fill:none;stroke:#E18F23;stroke-width:10;stroke-linecap:round;stroke-linejoin:round;stroke-miterlimit:10;}
	.st207{fill:#CF9828;}
	.st208{fill:#B88926;}
	.st209{fill:#A17623;}
	.st210{fill:#96CCBC;}
	.st211{fill:#CF9A2A;}
	.st212{fill:#C57B20;}
	.st213{fill:#C7F1E6;}
	.st214{fill:#DC6363;}
	.st215{fill:#E89F9F;}
	.st216{fill:#C88C8C;}
	.st217{fill:#C16E6E;}
	.st218{fill:#A46060;}
	.st219{fill:#AA3626;}
	.st220{fill:#87EDC4;}
	.st221{fill:#D86552;}
	.st222{fill:#BC7620;}
	.st223{fill:#BA741E;}
	.st224{fill:#8F8CE3;}
	.st225{fill:#3A2820;}
	.st226{fill:#AC7060;}
	.st227{fill:#915F55;}
	.st228{fill:#49332A;}
	.st229{fill:#2D1F1B;}
	.st230{fill:#69B7BE;}
	.st231{fill:#D6D6D6;}
	.st232{fill:#B8B8B8;}
	.st233{fill:#CACACA;}
	.st234{fill:#467B80;}
	.st235{fill:#C2EDE2;}
	.st236{fill:#A9574F;}
	.st237{fill:#5595D2;}
	.st238{fill:#955949;}
	.st239{fill:#7E4B42;}
	.st240{fill:#89CCF1;}
	.st241{fill:#DD584A;}
	.st242{fill:#C18F26;}
	.st243{fill:#B33C2A;}
	.st244{fill:#D1A771;}
	.st245{fill:#B42A2A;}
	.st246{fill:#325797;}
	.st247{fill:#9F3529;}
	.st248{fill:#EDCE80;}
	.st249{fill:#F0DBAC;}
	.st250{fill:#CFB478;}
	.st251{fill:#D4C29B;}
	.st252{fill:#993939;}
	.st253{fill:#D1AFA3;}
	.st254{fill:#BC968B;}
	.st255{fill:none;stroke:#BC968B;stroke-width:10;stroke-linecap:round;stroke-miterlimit:10;}
	.st256{fill:#814C3C;}
	.st257{fill:#C0EBE0;}
	.st258{fill:#A5E3D4;}
	.st259{fill:#15243C;}
	.st260{fill:#443E79;}
	.st261{fill:#F0FFF7;}
	.st262{fill:#9A764B;}
	.st263{fill:#826443;}
	.st264{fill:#D9AA74;}
	.st265{fill:#5DA186;}
	.st266{fill:#68B596;}
	.st267{fill:#E5C6BE;}
	.st268{fill:#D3B6B1;}
	.st269{fill:none;stroke:#BAA09C;stroke-width:10;stroke-linecap:round;stroke-miterlimit:10;}
	.st270{fill:#F4D78F;}
	.st271{fill:#20385F;}
	.st272{fill:#BA8727;}
	.st273{fill:#5A9C82;}
	.st274{fill:none;stroke:#E39123;stroke-width:10;stroke-linecap:round;stroke-linejoin:round;stroke-miterlimit:10;}
	.st275{fill:#60392D;}
	.st276{fill:#CCCCCC;}
	.st277{fill:#844F3E;}
	.st278{fill:#F3FFFB;}
	.st279{fill:#365E60;}
	.st280{fill:#D84545;}
	.st281{fill:#A83B3B;}
	.st282{fill:#253F70;}
	.st283{fill:#EAADAD;}
	.st284{fill:#443E7C;}
	.st285{fill:#3D6B9F;}
	.st286{fill:#4274BC;}
	.st287{fill:#AF3827;}
	.st288{fill:#E59D9D;}
	.st289{fill:#C48989;}
	.st290{fill:none;stroke:#9B621A;stroke-width:10;stroke-linecap:round;stroke-linejoin:round;stroke-miterlimit:10;}
	.st291{fill:#213A5E;}
	.st292{fill:#2D507A;}
	.st293{fill:#528EC8;}
	.st294{fill:#EFD696;}
	.st295{fill:#D1BA87;}
	.st296{fill:#FDFCFC;}
	.st297{fill:#86CBFC;}
	.st298{fill:#7AB7DA;}
	.st299{fill:#192C4C;}
	.st300{fill:#BCBCBC;}
	.st301{fill:#A13838;}
	.st302{fill:#75BDF6;}
	.st303{fill:#D0B1AA;}
	.st304{fill:#142233;}
	.st305{fill:#E6C4BB;}
	.st306{fill:#BDBDBD;}
	.st307{fill:#E8A192;}
	.st308{fill:#A43939;}
	.st309{fill:#162640;}
	.st310{fill:#27457C;}
	.st311{fill:#EFBE5E;}
	.st312{fill:#87EDC5;}
	.st313{fill:#A03838;}
	.st314{fill:#833232;}
	.st315{fill:#47417F;}
	.st316{fill:none;stroke:#915F55;stroke-width:10;stroke-linecap:round;stroke-miterlimit:10;}
	.st317{fill:#BC8B25;}
	.st318{fill:#473129;}
	.st319{fill:#67B394;}
	.st320{fill:#599A80;}
	.st321{fill:#B13D3D;}
</style>
<g id="BULINE">
	<circle id="XMLID_1516_" class="st5" cx="256" cy="256" r="256"/>
	<g>
	</g>
</g>
<g id="Icons">
	<g id="XMLID_1948_">
		<path id="XMLID_2220_" class="st145" d="M512,256c0,20.4-2.4,40.2-6.9,59.2c-28.5,24.8-63,42.9-101,51.9c0,0,0,0-0.1,0
			c-5.7,1.4-11.6,2.5-17.4,3.5c-12.4,2-25.2,3-38.2,3c-0.3,0-0.5,0-0.8,0c-0.4,0-0.8,0-1.2,0h-0.2c-3.9,0-7.8-0.2-11.7-0.4
			c-2.8-0.1-5.6-0.4-8.3-0.6c0,0,0,0-0.1,0c-5.5-0.5-10.9-1.2-16.2-2.1c-0.5-0.1-1-0.2-1.5-0.2c-39.4-6.6-75.6-22.9-105.9-46.4
			c-2.1-1.6-4.2-3.3-6.3-5c-10.5-8.7-20.3-18.3-29.2-28.7h0c-0.6-0.7-1.2-1.4-1.9-2.2c-0.5-0.6-1.1-1.3-1.6-1.9
			c-4.7-5.8-9.2-11.8-13.4-18c-0.5-0.8-1-1.5-1.5-2.3c-0.1-0.1-0.1-0.2-0.2-0.3c-1.1-1.7-2.2-3.4-3.3-5.2c-2.2-3.6-4.4-7.3-6.4-11
			c-4.2-7.7-8.1-15.7-11.4-23.9c-6.8-16.4-11.8-33.8-14.7-51.9c-0.7-4.3-1.3-8.6-1.8-12.9c-0.1-0.7-0.2-1.5-0.2-2.2
			c-0.8-7.9-1.2-15.9-1.2-24c0-9.3,0.5-18.6,1.6-27.6c0.1-0.8,0.2-1.7,0.3-2.5c0.2-1.6,0.4-3.1,0.6-4.7c0.9-6.4,2.1-12.7,3.6-18.9
			c3.8-16.4,9.2-32.2,16.2-47.2c0.3-0.6,0.5-1.1,0.8-1.7c2-4.2,4.2-8.4,6.4-12.5c2.4-4.4,4.9-8.6,7.6-12.8h52.3
			C217.1,2.2,236.3,0,256,0C397.4,0,512,114.6,512,256z"/>
		<path id="XMLID_2079_" class="st38" d="M428.9,135.3c0-10.5-8.5-19-19-19c-1.8,0-3.5,0.3-5.1,0.7c-3.2-10.7-13.1-18.5-24.9-18.5
			c-11.8,0-21.7,7.9-24.9,18.6c-1.8-0.6-3.7-0.9-5.7-0.9c-10.5,0-19,8.5-19,19c0,10.5,8.5,19,19,19h65.2v-0.6
			C422.7,151.7,428.9,144.3,428.9,135.3z"/>
		<g id="XMLID_2050_">
			<path id="XMLID_2250_" class="st146" d="M346.5,373.4c0,0.1-0.1,0.2-0.1,0.3c-2.8,6.2-8,11.3-14.6,13.8c-1.8,0.7-3.7,1.2-5.7,1.5
				c-1.2,0.2-2.4,0.3-3.7,0.3h-41.5c0,0,0,0,0,0H32.7c-16.5,0-28.9-15.1-25.8-31.3l4.9-25l44-226h243.5l36.6,188l0.2,0.8l3.7,18.8
				l0.1,0.6l2.8,14.6l1.2,6.4l2.1,10.5l0.1,0.7l2.1,10.6C349.3,363.3,348.6,368.7,346.5,373.4z"/>
			<path id="XMLID_2076_" class="st40" d="M181.3,338.9h-15.4c-12.3,0-22.3-10-22.3-22.3v-36.8c0-12.3,10-22.3,22.3-22.3h15.4
				c12.3,0,22.3,10,22.3,22.3v36.8C203.7,328.9,193.7,338.9,181.3,338.9z"/>
			<path id="XMLID_2075_" class="st41" d="M184.1,338.7c-1.1,0.2-2.1,0.2-3.2,0.2h-15.4c-12.3,0-22.3-10-22.3-22.3v-36.8
				c0-12.3,10-22.3,22.3-22.3h15.4c1.1,0,2.2,0.1,3.2,0.2c-10.8,1.6-19.1,10.9-19.1,22.1v36.8C165,327.8,173.3,337.1,184.1,338.7z"
				/>
			<path id="XMLID_2123_" class="st96" d="M309.8,366.8v139.6c-2.9,0.6-5.9,1.2-8.9,1.7c-10.2,1.8-20.6,3-31.2,3.6
				c-4.6,0.2-9.1,0.4-13.8,0.4c-74.2,0-141.1-31.6-187.9-82.1c-11.6-12.5-21.9-26.1-30.8-40.7H37v-22.4c0-13,5.2-24.9,13.7-33.5
				c3.1-3.1,6.5-5.8,10.3-8c0,0,0,0,0,0c1-0.6,2-1.1,3-1.6c0,0,0,0,0,0c0.7-0.3,1.4-0.7,2.1-1c0.4-0.1,0.7-0.3,1.1-0.4
				c1.1-0.4,2.2-0.8,3.3-1.2c0,0,0.1,0,0.1,0c0.6-0.2,1.3-0.4,1.9-0.5c0.2-0.1,0.4-0.1,0.5-0.1c0.6-0.2,1.2-0.3,1.8-0.4
				c0.8-0.2,1.7-0.3,2.5-0.5c0.4-0.1,0.8-0.1,1.2-0.2c2-0.2,4-0.4,6.1-0.4H262c22.3,0,41,15.2,46.3,35.9l0,0
				C309.3,358.6,309.8,362.6,309.8,366.8z"/>
			<path id="XMLID_2097_" class="st147" d="M116,318.9c-0.2,0-0.4,0-0.6,0c-26.1,0.3-47.2,21.6-47.2,47.8v63.1
				c-11.6-12.5-21.9-26.1-30.8-40.7h-0.3v-22.4c0-13,5.2-24.8,13.7-33.5c3.1-3.1,6.5-5.8,10.4-8c0,0,0,0,0,0c1-0.6,2-1.1,3-1.6
				c0,0,0,0,0,0c0.7-0.3,1.4-0.7,2.1-1c0.4-0.1,0.7-0.3,1.1-0.4c1.1-0.4,2.2-0.8,3.3-1.2c0,0,0.1,0,0.1,0c0.6-0.2,1.3-0.4,1.9-0.5
				c0.2-0.1,0.4-0.1,0.5-0.1c0.6-0.2,1.2-0.3,1.8-0.4c0.8-0.2,1.7-0.3,2.5-0.5c0.4-0.1,0.8-0.1,1.2-0.2c2-0.3,4.1-0.4,6.1-0.4H116z"
				/>
			<g id="XMLID_2059_">
				<path id="XMLID_2071_" class="st40" d="M304.3,164.4v14.4c0,8.3-6.8,15.1-15.1,15.1H286c-0.3,2.7-0.7,5.4-1.2,8
					c-4.5,23.9-16.8,45.1-34.2,60.8c-14.7,13.3-33.1,22.6-53.5,26.2h0c-0.9,0.2-1.8,0.3-2.7,0.4c-0.6,0.1-1.2,0.2-1.9,0.3
					c-0.3,0-0.5,0.1-0.8,0.1c-0.6,0.1-1.1,0.1-1.7,0.2c-0.7,0.1-1.5,0.2-2.2,0.2c-0.4,0-0.8,0.1-1.2,0.1c-0.5,0.1-1.1,0.1-1.6,0.1
					c-2.4,0.2-4.9,0.3-7.4,0.3c-0.9,0-1.7,0-2.6,0c-0.5,0-1.1,0-1.6-0.1c-0.6,0-1.1,0-1.7-0.1c-0.8,0-1.5-0.1-2.3-0.1
					c-0.5,0-0.9-0.1-1.4-0.1c-0.4,0-0.8-0.1-1.2-0.1c-0.4,0-0.9-0.1-1.3-0.1c-0.5,0-1-0.1-1.5-0.2c-0.3,0-0.6-0.1-0.8-0.1
					c-0.6-0.1-1.2-0.2-1.8-0.3c-0.5-0.1-1-0.1-1.5-0.2c-0.3,0-0.5-0.1-0.8-0.1c-0.5-0.1-1-0.2-1.4-0.3c-0.6-0.1-1.1-0.2-1.7-0.3
					c-0.3,0-0.5-0.1-0.7-0.1c-0.7-0.1-1.4-0.3-2.1-0.5c-0.1,0-0.2-0.1-0.3-0.1c-0.6-0.1-1.2-0.3-1.8-0.4c-0.4-0.1-0.8-0.2-1.2-0.3
					c-0.8-0.2-1.5-0.4-2.2-0.6c-0.6-0.2-1.1-0.3-1.7-0.5c-4.8-1.5-9.5-3.2-14-5.3c-0.5-0.2-0.9-0.4-1.4-0.7c-0.7-0.3-1.3-0.6-2-1
					c-0.6-0.3-1.2-0.6-1.9-1c-0.1,0-0.1-0.1-0.1-0.1c-0.5-0.3-1.1-0.6-1.6-0.9c-0.3-0.2-0.7-0.4-1-0.5c-0.5-0.3-1-0.6-1.6-0.9
					c-0.1,0-0.1-0.1-0.1-0.1c-0.6-0.4-1.3-0.8-1.9-1.2c-0.1-0.1-0.2-0.1-0.3-0.2c-0.6-0.4-1.1-0.7-1.7-1.1c-0.6-0.4-1.2-0.8-1.9-1.2
					c-0.5-0.3-1-0.7-1.5-1.1c-2.3-1.6-4.5-3.3-6.6-5c-0.6-0.5-1.2-1-1.9-1.6c-0.6-0.5-1.2-1.1-1.8-1.6c-1.2-1.1-2.4-2.2-3.5-3.3
					c-1.2-1.1-2.3-2.3-3.4-3.5c-0.6-0.6-1.1-1.2-1.6-1.8c-0.5-0.6-1-1.2-1.6-1.8c0,0,0-0.1-0.1-0.1c-0.5-0.6-1-1.2-1.5-1.8
					c-0.5-0.6-1-1.3-1.5-1.9c-1-1.3-2-2.6-2.9-3.9c-3.3-4.7-6.2-9.6-8.8-14.7c-0.4-0.7-0.7-1.5-1.1-2.2c-0.3-0.7-0.7-1.5-1-2.2
					c-3.3-7.4-5.7-15.2-7.2-23.4c-0.5-2.6-0.9-5.3-1.2-8c-0.5-4-0.7-8.1-0.7-12.3v-49.3c0-13.2,2.3-25.8,6.6-37.5
					c1.5-4.2,3.3-8.2,5.3-12.1c1.6-3.1,3.4-6.2,5.2-9.1c1.4-2.2,2.9-4.4,4.5-6.5c1-1.4,2.1-2.8,3.2-4.1c1.1-1.3,2.3-2.7,3.4-4
					c19.9-21.9,48.7-35.7,80.7-35.7c0.8,0,1.7,0,2.5,0c0.6,0,1.2,0,1.9,0.1c1.1,0,2.2,0.1,3.3,0.2c0.5,0,1.1,0.1,1.6,0.1
					c0.4,0,0.9,0.1,1.3,0.1c0.4,0,0.9,0.1,1.3,0.1c0.8,0.1,1.6,0.2,2.4,0.3c0.4,0.1,0.9,0.1,1.3,0.2c0.5,0.1,1,0.1,1.6,0.2
					c0.8,0.1,1.6,0.3,2.3,0.4h0c51,9.2,89.6,53.7,89.6,107.3v17h2.5C297.5,149.4,304.3,156.1,304.3,164.4z"/>
				<path id="XMLID_2070_" class="st41" d="M197.1,289c-0.9,0.2-1.8,0.3-2.7,0.4c-0.6,0.1-1.2,0.2-1.9,0.3c-0.3,0-0.5,0.1-0.8,0.1
					c-0.6,0.1-1.1,0.1-1.7,0.2c-0.7,0.1-1.5,0.2-2.2,0.2c-0.4,0-0.8,0.1-1.2,0.1c-0.5,0.1-1.1,0.1-1.6,0.1c-2.4,0.2-4.9,0.3-7.4,0.3
					c-0.9,0-1.7,0-2.6,0c-0.5,0-1.1,0-1.6-0.1c-0.6,0-1.1,0-1.7-0.1c-0.8,0-1.5-0.1-2.3-0.1c-0.5,0-0.9-0.1-1.4-0.1
					c-0.4,0-0.8-0.1-1.2-0.1c-0.4,0-0.9-0.1-1.3-0.1c-0.5,0-1-0.1-1.5-0.2c-0.3,0-0.6-0.1-0.8-0.1c-0.6-0.1-1.2-0.2-1.8-0.3
					c-0.5-0.1-1-0.1-1.5-0.2c-0.3,0-0.5-0.1-0.8-0.1c-0.5-0.1-1-0.2-1.4-0.3c-0.6-0.1-1.1-0.2-1.7-0.3c-0.3,0-0.5-0.1-0.7-0.1
					c-0.7-0.1-1.4-0.3-2.1-0.5c-0.1,0-0.2-0.1-0.3-0.1c-0.6-0.1-1.2-0.3-1.8-0.4c-0.4-0.1-0.8-0.2-1.2-0.3c-0.8-0.2-1.5-0.4-2.2-0.6
					c-0.6-0.2-1.1-0.3-1.7-0.5c-4.8-1.5-9.5-3.2-14-5.3c-0.5-0.2-0.9-0.4-1.4-0.7c-0.7-0.3-1.3-0.6-2-1c-0.6-0.3-1.2-0.6-1.9-1
					c-0.1,0-0.1-0.1-0.1-0.1c-0.5-0.3-1.1-0.6-1.6-0.9c-0.3-0.2-0.7-0.4-1-0.5c-0.5-0.3-1-0.6-1.6-0.9c-0.1,0-0.1-0.1-0.1-0.1
					c-0.6-0.4-1.3-0.8-1.9-1.2c-0.1-0.1-0.2-0.1-0.3-0.2c-0.6-0.4-1.1-0.7-1.7-1.1c-0.6-0.4-1.2-0.8-1.9-1.2c-0.5-0.3-1-0.7-1.5-1.1
					c-2.3-1.6-4.5-3.3-6.6-5c-0.6-0.5-1.2-1-1.9-1.6c-0.6-0.5-1.2-1.1-1.8-1.6c-1.2-1.1-2.4-2.2-3.5-3.3c-1.2-1.1-2.3-2.3-3.4-3.5
					c-0.6-0.6-1.1-1.2-1.6-1.8c-0.5-0.6-1-1.2-1.6-1.8c0,0,0-0.1-0.1-0.1c-0.5-0.6-1-1.2-1.5-1.8c-0.5-0.6-1-1.3-1.5-1.9
					c-1-1.3-2-2.6-2.9-3.9c-3.3-4.7-6.2-9.6-8.8-14.7c-0.4-0.7-0.7-1.5-1.1-2.2c-0.3-0.7-0.7-1.5-1-2.2c-3.2-7.4-5.7-15.2-7.2-23.4
					c-0.5-2.6-0.9-5.3-1.2-8h-2.7c-8.3,0-15.1-6.7-15.1-15.1v-14.4c0-8.3,6.8-15.1,15.1-15.1h2v-17c0-13.2,2.3-25.8,6.6-37.5
					c1.5-4.2,3.3-8.2,5.3-12.1c1.6-3.1,3.4-6.2,5.2-9.1c1.4-2.2,2.9-4.4,4.5-6.5c1-1.4,2.1-2.8,3.2-4.1c1.1-1.3,2.2-2.7,3.4-4
					c19.9-21.9,48.7-35.7,80.7-35.7c0.8,0,1.7,0,2.5,0c0.6,0,1.2,0,1.9,0.1c1.1,0,2.2,0.1,3.3,0.2c0.5,0,1.1,0.1,1.6,0.1
					c0.4,0,0.9,0.1,1.3,0.1c0.4,0,0.9,0.1,1.3,0.1c0.8,0.1,1.6,0.2,2.4,0.3c0.4,0.1,0.9,0.1,1.3,0.2c0.5,0.1,1,0.1,1.6,0.2
					c0.8,0.1,1.6,0.3,2.3,0.4c-50.9,9.2-89.6,53.8-89.6,107.3v49.3c0,29.9,12.1,57.1,31.6,76.8C154.5,274,174.6,284.9,197.1,289z"/>
				<circle id="XMLID_2068_" class="st23" cx="124.2" cy="164.3" r="15"/>
				<circle id="XMLID_2067_" class="st16" cx="128.1" cy="159.5" r="6.6"/>
				<circle id="XMLID_2066_" class="st23" cx="229.2" cy="164.3" r="15"/>
				<circle id="XMLID_2065_" class="st16" cx="233" cy="159.5" r="6.6"/>
				<path id="XMLID_2064_" class="st41" d="M184.3,198.7h-13.5c-4.4,0-8.1-3.6-8.1-8.1v0c0-4.4,3.6-8.1,8.1-8.1h13.5
					c4.4,0,8.1,3.6,8.1,8.1v0C192.3,195.1,188.7,198.7,184.3,198.7z"/>
				<path id="XMLID_2063_" class="st36" d="M207.1,217.1c1.6,0,2.9,1.3,2.9,2.9l0,0c0,2.9-0.4,5.8-1.1,8.5c-1.7,6.3-5.2,11.8-10,16
					c-5.7,5-13.1,8-21.3,8c-8.1,0-15.6-3-21.3-8c-4.8-4.2-8.3-9.7-10-16c-0.7-2.7-1.1-5.6-1.1-8.5l0,0c0-1.6,1.3-2.9,2.9-2.9H207.1z
					"/>
				<path id="XMLID_2062_" class="st26" d="M198.8,244.4c-5.7,5-13.1,8-21.3,8c-8.1,0-15.6-3-21.3-8c5.7-5,13.1-8,21.3-8
					C185.7,236.5,193.1,239.5,198.8,244.4z"/>
				<path id="XMLID_2060_" class="st16" d="M207.1,217.1c1.6,0,2.9,1.3,2.9,2.9l0,0c0,2.9-0.4,5.8-1.1,8.5h-62.6
					c-0.7-2.7-1.1-5.6-1.1-8.5l0,0c0-1.6,1.3-2.9,2.9-2.9H207.1z"/>
			</g>
			<path id="XMLID_2055_" class="st36" d="M145,260.3c1.1,1.7,2.2,3.5,3.3,5.2c1.1-1.3,2.2-2.4,3.6-3.4
				C149.5,261.6,147.3,261,145,260.3z M271.2,202c-5.3,20.9-20.8,38.8-42.1,50.1v-38.7c0-4.1-1.6-7.7-4.3-10.4
				c-2.7-2.7-6.3-4.3-10.4-4.3h-72.6c-8.1,0-14.7,6.6-14.7,14.7v40.1c-22.6-11.1-39.2-29.7-44.8-51.5H70.4c0.8,4.4,1.9,8.8,3.3,13
				c0.8,2.6,1.7,5.1,2.8,7.6c0,0.1,0.1,0.1,0.1,0.2c0.3,0.9,0.7,1.7,1.1,2.6c0.3,0.8,0.7,1.5,1,2.2c0.3,0.8,0.7,1.5,1.1,2.2
				c2.5,5.2,5.5,10.1,8.8,14.7c0.9,1.3,1.9,2.6,2.9,3.9c0.5,0.7,1,1.3,1.5,1.9c0.5,0.6,1,1.2,1.5,1.8c0,0,0.1,0.1,0.1,0.1
				c0.5,0.6,1,1.2,1.6,1.8c0.5,0.6,1.1,1.2,1.6,1.8c1.1,1.2,2.2,2.4,3.4,3.5c1.2,1.2,2.3,2.3,3.5,3.3c0.6,0.5,1.2,1.1,1.8,1.6
				c0.6,0.5,1.2,1,1.9,1.6c2.1,1.8,4.3,3.4,6.6,5c0.5,0.4,1,0.7,1.5,1.1c0.6,0.4,1.2,0.8,1.9,1.2c0.6,0.4,1.1,0.7,1.7,1.1
				c0.1,0.1,0.2,0.1,0.3,0.2c0.6,0.4,1.3,0.8,1.9,1.2c0,0,0.1,0.1,0.1,0.1c0.5,0.3,1,0.6,1.6,0.9c0.3,0.2,0.7,0.4,1,0.6
				c0.5,0.3,1.1,0.6,1.6,0.9c0,0,0.1,0.1,0.1,0.1c0.6,0.3,1.2,0.7,1.9,1c0.7,0.3,1.3,0.7,2,1c0.5,0.2,0.9,0.4,1.4,0.7
				c3.6,1.7,7.4,3.1,11.2,4.4c0.1,0.1,0.3,0.1,0.4,0.1c0.8,0.3,1.6,0.5,2.4,0.8c0.6,0.2,1.1,0.3,1.7,0.5c0.7,0.2,1.5,0.4,2.2,0.6
				c0.4,0.1,0.8,0.2,1.2,0.3c0.6,0.2,1.2,0.3,1.8,0.4c0.1,0,0.2,0.1,0.4,0.1c0.1,0,0.2,0,0.2,0.1c0.6,0.1,1.2,0.3,1.9,0.4
				c0.2,0.1,0.5,0.1,0.7,0.1c0.6,0.1,1.1,0.2,1.7,0.3c0.5,0.1,0.9,0.2,1.4,0.3c0.2,0,0.5,0.1,0.8,0.1c0.5,0.1,1,0.2,1.5,0.2
				c0.6,0.1,1.2,0.2,1.8,0.2c0.3,0,0.6,0.1,0.9,0.1c0.3,0,0.6,0.1,0.9,0.1c0.2,0,0.3,0,0.5,0.1c0.4,0.1,0.9,0.1,1.3,0.1h0
				c0.4,0,0.8,0.1,1.2,0.1c0.5,0.1,0.9,0.1,1.4,0.1c0.8,0.1,1.5,0.1,2.3,0.2c0.6,0,1.1,0,1.7,0.1c0.5,0,1.1,0,1.6,0.1
				c0.9,0,1.7,0,2.6,0c2.5,0,5-0.1,7.4-0.3c0.6,0,1.1-0.1,1.6-0.1c0.4,0,0.8-0.1,1.2-0.1c0.7-0.1,1.5-0.1,2.2-0.2
				c0.6-0.1,1.1-0.1,1.7-0.2c0.3,0,0.5-0.1,0.8-0.1c0.6-0.1,1.2-0.2,1.9-0.3c0.9-0.1,1.8-0.3,2.7-0.4h0c2.2-0.4,4.4-0.9,6.6-1.4
				c17.7-4.3,33.7-13,46.9-24.8c14-12.6,24.7-28.8,30.7-47.1c1.5-4.4,2.6-9,3.5-13.7H271.2z M217.8,257.3c-6,2.3-12.4,4.1-19,5.4
				c-0.8,0.2-1.7,0.3-2.6,0.5c-6.3,1.1-12.8,1.6-19.5,1.6c-1.9,0-3.9-0.1-5.8-0.1c-6.5-0.3-12.7-1.1-18.8-2.4c-0.1,0-0.2,0-0.3-0.1
				c-2.3-0.5-4.6-1.1-6.8-1.7c-2-0.6-4-1.2-5.9-1.9c-0.2-0.1-0.4-0.1-0.5-0.2c0,0,0,0,0,0v-40c0-2.7,2.2-4.9,4.9-4.9h69.4
				c0.2,0,0.3,0,0.5,0c2.5,0.3,4.4,2.3,4.4,4.9V257.3z"/>
			<path id="XMLID_2178_" class="st16" d="M346.3,373.3c0,0.1-0.1,0.2-0.1,0.3c-2.8,6.2-8,11.3-14.6,13.8c-1.7,0.7-3.5,1.2-5.4,1.4
				c-1.3,0.2-2.6,0.3-4,0.3h-39c3.3,0,6.5-0.6,9.4-1.7c7.7-2.9,13.5-9.3,15.8-17.1c1.2-3.9,1.4-8.1,0.6-12.4l-0.6-3l0,0l-27.1-139.1
				l-2.7-13.7l-18.5-95.2H94.8L76.3,202l-2.5,13l0,0l-23,118.2l0,0l-4.8,24.6c-2.9,15,7.5,29.1,22.2,31c1.2,0.2,2.4,0.2,3.6,0.2h-39
				c-16.5,0-28.9-15.1-25.8-31.3l4.9-25l44-226v-11c0-5.1,0.4-10.2,1.3-15.1c3.2-18.6,12.1-35.3,24.9-48.1c3-3,6.3-5.8,9.7-8.4
				c3.4-2.6,7.1-4.9,10.9-7c0.6-0.3,1.3-0.7,1.9-1c2.6-1.3,5.2-2.5,7.9-3.6c1.4-0.5,2.7-1,4.1-1.5c1.4-0.5,2.8-0.9,4.2-1.3
				c1.4-0.4,2.8-0.8,4.3-1.1c6.5-1.5,13.2-2.3,20.2-2.3h64.7c44.2,0,81,32.1,88.1,74.3c0.9,4.9,1.3,9.9,1.3,15.1v11h-0.2l36.6,188.3
				l0.2,0.9l3.6,18.4l0.1,0.7l2.8,14.5l1.3,6.4l2,10.2l0.1,0.7l2.1,10.8C349,363.3,348.3,368.6,346.3,373.3z"/>
			<path id="XMLID_2116_" class="st96" d="M184.9,6.5c-16.9,0-32.7,4.7-46.1,12.8c-10.7,6.4-19.9,15.1-27.1,25.3
				c-0.5,0.7-0.9,1.3-1.4,2c-6.7,10.1-11.4,21.7-13.5,34.1c-0.9,4.9-1.3,10-1.3,15.2v11h-0.7L76.3,202l-2.5,13l0,0l-23,118.2l0,0
				l-4.8,24.6c-2.9,15,7.5,29.1,22.2,31c1.2,0.2,2.4,0.2,3.6,0.2h-39c-16.5,0-28.9-15.1-25.8-31.3l4.9-25l44-226v-11
				c0-5.1,0.4-10.2,1.3-15.1c3.2-18.6,12.1-35.3,24.9-48.1c3-3,6.3-5.8,9.7-8.4c3.4-2.6,7.1-4.9,10.9-7c0.6-0.3,1.3-0.7,1.9-1
				c2.6-1.3,5.2-2.5,7.9-3.6c1.4-0.5,2.7-1,4.1-1.5c1.4-0.5,2.8-0.9,4.2-1.3c1.4-0.4,2.8-0.8,4.3-1.1c6.5-1.5,13.2-2.3,20.2-2.3
				H184.9z"/>
			<path id="XMLID_2052_" class="st42" d="M296.7,106.8H58.1c-7.2,0-13.1-5.9-13.1-13.1v0c0-7.2,5.9-13.1,13.1-13.1h238.6
				c7.2,0,13.1,5.9,13.1,13.1v0C309.8,101,304,106.8,296.7,106.8z"/>
			<path id="XMLID_2051_" class="st148" d="M308.4,99.6c-0.6,1.3-1.5,2.4-2.4,3.4c-2.4,2.4-5.6,3.8-9.2,3.8H58.1
				c-7.2,0-13.1-5.9-13.1-13.1c0-3.6,1.5-6.9,3.8-9.2c2.4-2.4,5.6-3.8,9.2-3.8h3.2c-0.9,1.8-1.4,3.8-1.4,5.9
				c0,7.2,5.9,13.1,13.1,13.1H308.4z"/>
		</g>
		<rect id="XMLID_2049_" x="326.1" y="329.6" class="st147" width="78" height="68.4"/>
		<g id="XMLID_1995_">
			<path id="XMLID_2111_" class="st15" d="M462.8,406.6v0.4c-28.5,39-67.8,69.6-113.4,87.5c-8.2,3.2-16.5,6-25.1,8.3
				c-4.8,1.3-9.6,2.5-14.4,3.5c-2.9,0.6-5.9,1.2-8.9,1.7c-10.2,1.8-20.6,3-31.2,3.6V406.6c0-4.6,1.6-8.9,4.4-12.2
				c0.4-0.5,0.8-0.9,1.2-1.4c1.6-1.6,3.5-2.9,5.6-3.9c0,0,0,0,0,0c2.4-1.1,5.1-1.7,7.9-1.7h154.8C454.2,387.4,462.8,396,462.8,406.6
				z"/>
			<path id="XMLID_1527_" class="st14" d="M320.1,387.4c-2.8,0-5.5,0.6-7.9,1.7c-0.8,0.4-1.6,0.8-2.3,1.2c-5.3,3.4-8.9,9.4-8.9,16.2
				v101.5c-10.2,1.8-20.6,3-31.2,3.6V406.6c0-4.6,1.6-8.9,4.4-12.2c0.4-0.5,0.8-0.9,1.2-1.4c1.6-1.6,3.5-2.9,5.6-3.9c0,0,0,0,0,0
				c2.4-1.1,5.1-1.7,7.9-1.7H320.1z"/>
			<path id="XMLID_2043_" class="st6" d="M345.5,373.3h-21.4c-3.2,0-5.8,2.6-5.8,5.8v8.4h32.9V379
				C351.3,375.8,348.7,373.3,345.5,373.3z"/>
			<path id="XMLID_2042_" class="st26" d="M334.1,373.2c-3.2,0-5.7,2.6-5.7,5.8v8.4h-10V379c0-3.2,2.6-5.8,5.8-5.8H334.1z"/>
			<path id="XMLID_2041_" class="st6" d="M406,373.3h-21.4c-3.2,0-5.8,2.6-5.8,5.8v8.4h32.9V379C411.8,375.8,409.2,373.3,406,373.3z
				"/>
			<path id="XMLID_2040_" class="st26" d="M394.6,373.2c-3.2,0-5.7,2.6-5.7,5.8v8.4h-10V379c0-3.2,2.6-5.8,5.8-5.8H394.6z"/>
			<rect id="XMLID_2039_" x="386.6" y="336.1" class="st149" width="17.4" height="37.2"/>
			<rect id="XMLID_2038_" x="326.1" y="336.1" class="st149" width="17.4" height="37.2"/>
			<path id="XMLID_2037_" class="st6" d="M411.5,314.5h-92.8c-3.1,0-5.6,2.5-5.6,5.6v10.5c0,3.1,2.5,5.6,5.6,5.6h92.8
				c3.1,0,5.6-2.5,5.6-5.6V320C417.1,317,414.6,314.5,411.5,314.5z"/>
			<path id="XMLID_2019_" class="st26" d="M342.3,336.1h-23.6c-3.1,0-5.6-2.5-5.6-5.6V320c0-3.1,2.5-5.6,5.6-5.6h23.6
				c-3.1,0-5.6,2.5-5.6,5.6v10.5C336.8,333.6,339.3,336.1,342.3,336.1z"/>
			<circle id="XMLID_2017_" class="st14" cx="334.1" cy="427.5" r="15.8"/>
			<circle id="XMLID_2002_" class="st14" cx="395.3" cy="427.5" r="15.8"/>
			<path id="XMLID_1524_" class="st14" d="M349.8,490.5c0,1.4-0.2,2.7-0.5,4c-8.2,3.2-16.5,6-25.1,8.3c-3.6-2.9-5.9-7.3-5.9-12.3
				c0-8.7,7.1-15.8,15.8-15.8C342.8,474.7,349.8,481.8,349.8,490.5z"/>
		</g>
		<path id="XMLID_1994_" class="st40" d="M366.8,354.7L366.8,354.7c-18.1,0-32.8-14.7-32.8-32.8v-21.3c0-5.4,4.4-9.8,9.8-9.8h45.9
			c5.4,0,9.8,4.4,9.8,9.8v21.3C399.6,340,384.9,354.7,366.8,354.7z"/>
		<path id="XMLID_1989_" class="st41" d="M379.6,352.4c-3.7,1.5-7.8,2.3-12,2.3c-18.1,0-32.8-14.7-32.8-32.8v-21.3
			c0-5.4,4.4-9.8,9.8-9.8h24c-5.4,0-9.8,4.4-9.8,9.8v21.3C358.8,335.8,367.4,347.6,379.6,352.4z"/>
	</g>
</g>
</svg>
