<?xml version="1.0" encoding="utf-8"?>
<!-- Generator: Adobe Illustrator 22.0.1, SVG Export Plug-In . SVG Version: 6.00 Build 0)  -->
<svg version="1.1" xmlns="http://www.w3.org/2000/svg" xmlns:xlink="http://www.w3.org/1999/xlink" x="0px" y="0px"
	 viewBox="0 0 512 512" style="enable-background:new 0 0 512 512;" xml:space="preserve">
<style type="text/css">
	.st0{fill:#E9B12D;}
	.st1{fill:#A9E7D8;}
	.st2{fill:#76CFB1;}
	.st3{fill:#AE6B5D;}
	.st4{fill:#7770D3;}
	.st5{fill:#5BA0F5;}
	.st6{fill:#DA4545;}
	.st7{fill:#89CCFC;}
	.st8{fill:#CD462A;}
	.st9{fill:#514896;}
	.st10{fill:#5493A0;}
	.st11{fill:#CC6B5C;}
	.st12{fill:#62AA8D;}
	.st13{fill:#8ABAAB;}
	.st14{fill:#C3791F;}
	.st15{fill:#E39123;}
	.st16{fill:#FFFFFF;}
	.st17{fill:none;stroke:#FFFFFF;stroke-width:10;stroke-linecap:round;stroke-miterlimit:10;}
	.st18{fill:none;stroke:#5F55AB;stroke-width:10;stroke-linecap:round;stroke-miterlimit:10;}
	.st19{fill:#A9671C;}
	.st20{fill:#D5B3A7;}
	.st21{fill:#C09A8F;}
	.st22{fill:#487F87;}
	.st23{fill:#1B305C;}
	.st24{fill:#172945;}
	.st25{fill:none;}
	.st26{fill:#B62A2A;}
	.st27{fill:#325859;}
	.st28{fill:#3F6E71;}
	.st29{fill:#284646;}
	.st30{fill:#8F2727;}
	.st31{fill:#29477C;}
	.st32{fill:#5B9BEE;}
	.st33{fill:#487FDE;}
	.st34{fill:#CD9829;}
	.st35{fill:#9F2A2A;}
	.st36{fill:#4C3328;}
	.st37{fill:#E8B94A;}
	.st38{fill:#DDF8F1;}
	.st39{fill:#3E2A22;}
	.st40{fill:#D3A971;}
	.st41{fill:#C79A5B;}
	.st42{fill:#233E76;}
	.st43{fill:#21395F;}
	.st44{fill:#487D82;}
	.st45{fill:none;stroke:#C79A5B;stroke-width:10;stroke-linecap:round;stroke-miterlimit:10;}
	.st46{fill:#5E3E31;}
	.st47{fill:#AC3939;}
	.st48{fill:#CA9628;}
	.st49{fill:#AF8F88;}
	.st50{fill:#815048;}
	.st51{fill:#6F4232;}
	.st52{fill:#5F55AB;}
	.st53{fill:#192A48;}
	.st54{fill:#152336;}
	.st55{fill:#192B49;}
	.st56{fill:#264173;}
	.st57{fill:#B06F1E;}
	.st58{fill:#4E88C0;}
	.st59{fill:#83C3F1;}
	.st60{fill:#CF9929;}
	.st61{fill:none;stroke:#FFFFFF;stroke-width:10;stroke-linecap:round;stroke-linejoin:round;stroke-miterlimit:10;}
	.st62{fill:#EAC262;}
	.st63{fill:#D6D5D4;}
	.st64{fill:#6BBA9B;}
	.st65{fill:#63AA8F;}
	.st66{fill:none;stroke:#3E2A22;stroke-width:10;stroke-linecap:round;stroke-miterlimit:10;}
	.st67{fill:#CA7D1F;}
	.st68{fill:#213B64;}
	.st69{fill:#CDF8EC;}
	.st70{fill:#C59125;}
	.st71{fill:none;stroke:#C09A8F;stroke-width:10;stroke-linecap:round;stroke-miterlimit:10;}
	.st72{fill:#32579B;}
	.st73{fill:#172843;}
	.st74{fill:#D66767;}
	.st75{fill:#A74949;}
	.st76{fill:#EBC76F;}
	.st77{fill:#7A4940;}
	.st78{fill:#182A48;}
	.st79{fill:none;stroke:#A0794A;stroke-width:10;stroke-linecap:round;stroke-miterlimit:10;}
	.st80{fill:#C37A20;}
	.st81{fill:#D26D5C;}
	.st82{fill:#A45752;}
	.st83{fill:#284579;}
	.st84{fill:#88C7F4;}
	.st85{fill:#6EB6F0;}
	.st86{fill:#32221E;}
	.st87{fill:#E7A6A6;}
	.st88{fill:#C59191;}
	.st89{fill:#AA3B3B;}
	.st90{fill:#B83E3E;}
	.st91{fill:none;stroke:#5F55A9;stroke-width:10;stroke-linecap:round;stroke-miterlimit:10;}
	.st92{fill:#963838;}
	.st93{fill:#402B25;}
	.st94{fill:#6B6ABA;}
	.st95{fill:#BABABA;}
	.st96{fill:#D1D1D1;}
	.st97{fill:#264377;}
	.st98{fill:#A19BF5;}
	.st99{fill:#3C2A21;}
	.st100{fill:none;stroke:#4C3328;stroke-width:10;stroke-linecap:round;stroke-miterlimit:10;}
	.st101{fill:#C1781F;}
	.st102{fill:#E3A147;}
	.st103{fill:#F2D2A1;}
	.st104{fill:#4F372D;}
	.st105{fill:none;stroke:#DA4545;stroke-width:10;stroke-linecap:round;stroke-miterlimit:10;}
	.st106{fill:#AA3928;}
	.st107{fill:#8C2C22;}
	.st108{fill:#BF4336;}
	.st109{fill:#5797D4;}
	.st110{fill:#CFCFCF;}
	.st111{fill:#613A2E;}
	.st112{fill:none;stroke:#B18653;stroke-width:10;stroke-linecap:round;stroke-miterlimit:10;}
	.st113{fill:#B13B3B;}
	.st114{fill:#16263A;}
	.st115{fill:none;stroke:#16263A;stroke-width:10;stroke-miterlimit:10;}
	.st116{fill:#C87D20;}
	.st117{fill:#E4F0FD;}
	.st118{fill:#AA3737;}
	.st119{fill:#BF771F;}
	.st120{fill:none;stroke:#CD462A;stroke-width:10;stroke-linejoin:round;stroke-miterlimit:10;}
	.st121{fill:#5696D2;}
	.st122{fill:#C0771E;}
	.st123{fill:#9B5F1B;}
	.st124{fill:#A83A29;}
	.st125{fill:#E7A74F;}
	.st126{fill:#C9924C;}
	.st127{fill:#C58E48;}
	.st128{fill:#BE8844;}
	.st129{fill:#916939;}
	.st130{fill:#264275;}
	.st131{fill:#253F65;}
	.st132{fill:#182A45;}
	.st133{fill:#162336;}
	.st134{fill:#93C7B7;}
	.st135{fill:#E6A4A4;}
	.st136{fill:#B06B1D;}
	.st137{fill:#484185;}
	.st138{fill:#DB6E6E;}
	.st139{fill:#6BBA9A;}
	.st140{fill:#CACCCC;}
	.st141{fill:#D4D4D4;}
	.st142{fill:#A98881;}
	.st143{fill:#213A62;}
	.st144{fill:#A2837D;}
	.st145{fill:#6FB8F4;}
	.st146{fill:#9B9E9E;}
	.st147{fill:#B2B3B3;}
	.st148{fill:#20385D;}
	.st149{fill:#335AA8;}
	.st150{fill:#BCE7FD;}
	.st151{fill:#3B2921;}
	.st152{fill:#AD3C3C;}
	.st153{fill:#9D3838;}
	.st154{fill:#603F33;}
	.st155{fill:#4D868B;}
	.st156{fill:#A2DDFD;}
	.st157{fill:#ECB6B6;}
	.st158{fill:#E8A346;}
	.st159{fill:#514C94;}
	.st160{fill:#D2F1E8;}
	.st161{fill:#BDD6CE;}
	.st162{fill:#B93B29;}
	.st163{fill:#E0AD70;}
	.st164{fill:#C57C21;}
	.st165{fill:#EDA34A;}
	.st166{fill:#2F538F;}
	.st167{fill:#2B4B78;}
	.st168{fill:#65AF91;}
	.st169{fill:#A7CEFC;}
	.st170{fill:#98BDE2;}
	.st171{fill:#CFE5F7;}
	.st172{fill:#5492CD;}
	.st173{fill:#97CCBC;}
	.st174{fill:#5491CA;}
	.st175{fill:#EDC563;}
	.st176{fill:#423C79;}
	.st177{fill:#D3B1A5;}
	.st178{fill:#BE988D;}
	.st179{fill:#A7E5D6;}
	.st180{fill:#F2FFF9;}
	.st181{fill:#D64545;}
	.st182{fill:#A73B3B;}
	.st183{fill:#15233A;}
	.st184{fill:none;stroke:#BE988D;stroke-width:10;stroke-linecap:round;stroke-miterlimit:10;}
	.st185{fill:#AF3A29;}
	.st186{fill:#FAF9FF;}
	.st187{fill:#CACACC;}
	.st188{fill:#372720;}
	.st189{fill:#3F2C26;}
	.st190{fill:#2D201C;}
	.st191{fill:#3D6D6F;}
	.st192{fill:#5B54A8;}
	.st193{fill:#325799;}
	.st194{fill:#E8C26E;}
	.st195{fill:#254784;}
	.st196{fill:#5696D4;}
	.st197{fill:#4F8AB6;}
	.st198{fill:#5FA4AC;}
	.st199{fill:#AA3524;}
	.st200{fill:#D15F4D;}
	.st201{fill:#2B294C;}
	.st202{fill:#A43A2A;}
	.st203{fill:#E7AE2D;}
	.st204{fill:#CD9729;}
	.st205{fill:none;stroke:#AA8253;stroke-width:10;stroke-linecap:round;stroke-miterlimit:10;}
	.st206{fill:none;stroke:#E18F23;stroke-width:10;stroke-linecap:round;stroke-linejoin:round;stroke-miterlimit:10;}
	.st207{fill:#CF9828;}
	.st208{fill:#B88926;}
	.st209{fill:#A17623;}
	.st210{fill:#96CCBC;}
	.st211{fill:#CF9A2A;}
	.st212{fill:#C57B20;}
	.st213{fill:#C7F1E6;}
	.st214{fill:#DC6363;}
	.st215{fill:#E89F9F;}
	.st216{fill:#C88C8C;}
	.st217{fill:#C16E6E;}
	.st218{fill:#A46060;}
	.st219{fill:#AA3626;}
	.st220{fill:#87EDC4;}
	.st221{fill:#D86552;}
	.st222{fill:#BC7620;}
	.st223{fill:#BA741E;}
	.st224{fill:#8F8CE3;}
	.st225{fill:#3A2820;}
	.st226{fill:#AC7060;}
	.st227{fill:#915F55;}
	.st228{fill:#49332A;}
	.st229{fill:#2D1F1B;}
	.st230{fill:#69B7BE;}
	.st231{fill:#D6D6D6;}
	.st232{fill:#B8B8B8;}
	.st233{fill:#CACACA;}
	.st234{fill:#467B80;}
	.st235{fill:#C2EDE2;}
	.st236{fill:#A9574F;}
	.st237{fill:#5595D2;}
	.st238{fill:#955949;}
	.st239{fill:#7E4B42;}
	.st240{fill:#89CCF1;}
	.st241{fill:#DD584A;}
	.st242{fill:#C18F26;}
	.st243{fill:#B33C2A;}
	.st244{fill:#D1A771;}
	.st245{fill:#B42A2A;}
	.st246{fill:#325797;}
	.st247{fill:#9F3529;}
	.st248{fill:#EDCE80;}
	.st249{fill:#F0DBAC;}
	.st250{fill:#CFB478;}
	.st251{fill:#D4C29B;}
	.st252{fill:#993939;}
	.st253{fill:#D1AFA3;}
	.st254{fill:#BC968B;}
	.st255{fill:none;stroke:#BC968B;stroke-width:10;stroke-linecap:round;stroke-miterlimit:10;}
	.st256{fill:#814C3C;}
	.st257{fill:#C0EBE0;}
	.st258{fill:#A5E3D4;}
	.st259{fill:#15243C;}
	.st260{fill:#443E79;}
	.st261{fill:#F0FFF7;}
	.st262{fill:#9A764B;}
	.st263{fill:#826443;}
	.st264{fill:#D9AA74;}
	.st265{fill:#5DA186;}
	.st266{fill:#68B596;}
	.st267{fill:#E5C6BE;}
	.st268{fill:#D3B6B1;}
	.st269{fill:none;stroke:#BAA09C;stroke-width:10;stroke-linecap:round;stroke-miterlimit:10;}
	.st270{fill:#F4D78F;}
	.st271{fill:#20385F;}
	.st272{fill:#BA8727;}
	.st273{fill:#5A9C82;}
	.st274{fill:none;stroke:#E39123;stroke-width:10;stroke-linecap:round;stroke-linejoin:round;stroke-miterlimit:10;}
	.st275{fill:#60392D;}
	.st276{fill:#CCCCCC;}
	.st277{fill:#844F3E;}
	.st278{fill:#F3FFFB;}
	.st279{fill:#365E60;}
	.st280{fill:#D84545;}
	.st281{fill:#A83B3B;}
	.st282{fill:#253F70;}
	.st283{fill:#EAADAD;}
	.st284{fill:#443E7C;}
	.st285{fill:#3D6B9F;}
	.st286{fill:#4274BC;}
	.st287{fill:#AF3827;}
	.st288{fill:#E59D9D;}
	.st289{fill:#C48989;}
	.st290{fill:none;stroke:#9B621A;stroke-width:10;stroke-linecap:round;stroke-linejoin:round;stroke-miterlimit:10;}
	.st291{fill:#213A5E;}
	.st292{fill:#2D507A;}
	.st293{fill:#528EC8;}
	.st294{fill:#EFD696;}
	.st295{fill:#D1BA87;}
	.st296{fill:#FDFCFC;}
	.st297{fill:#86CBFC;}
	.st298{fill:#7AB7DA;}
	.st299{fill:#192C4C;}
	.st300{fill:#BCBCBC;}
	.st301{fill:#A13838;}
	.st302{fill:#75BDF6;}
	.st303{fill:#D0B1AA;}
	.st304{fill:#142233;}
	.st305{fill:#E6C4BB;}
	.st306{fill:#BDBDBD;}
	.st307{fill:#E8A192;}
	.st308{fill:#A43939;}
	.st309{fill:#162640;}
	.st310{fill:#27457C;}
	.st311{fill:#EFBE5E;}
	.st312{fill:#87EDC5;}
	.st313{fill:#A03838;}
	.st314{fill:#833232;}
	.st315{fill:#47417F;}
	.st316{fill:none;stroke:#915F55;stroke-width:10;stroke-linecap:round;stroke-miterlimit:10;}
	.st317{fill:#BC8B25;}
	.st318{fill:#473129;}
	.st319{fill:#67B394;}
	.st320{fill:#599A80;}
	.st321{fill:#B13D3D;}
</style>
<g id="BULINE">
	<circle id="XMLID_2288_" class="st9" cx="256" cy="256" r="256"/>
	<g>
	</g>
</g>
<g id="Icons">
	<g id="XMLID_3606_">
		<path id="XMLID_3742_" class="st16" d="M512,256c0,7.1-0.3,14.1-0.9,21c-6.6,81.3-51.2,151.8-115.9,193.8
			c-36.7,23.8-79.9,38.5-126.3,40.8c-4.3,0.2-8.6,0.3-12.9,0.3c-3.2,0-6.4-0.1-9.6-0.2c-34.6-1.3-67.4-9.4-97.2-23.1
			c-11-5-21.6-10.9-31.7-17.4c0,0-0.1-0.1-0.2-0.1C46.7,425.6,0,346.3,0,256c0-6.5,0.2-12.9,0.7-19.3c1.2-15.8,3.8-31.2,7.7-46
			c19.4,4.2,36.4,14.8,48.6,29.6c5.2,6.3,9.6,13.4,12.9,21c2.3-0.6,4.7-1,7.1-1c14.7,0,26.6,11.9,26.6,26.6c0,1-0.1,1.9-0.2,2.9
			c-0.2,1.4-0.4,2.7-0.8,4c2.2,0.4,4.5,0.8,6.6,1.4c0.2,0.1,0.5,0.1,0.7,0.2c3.7,0.9,7.3,2.1,10.8,3.5c4.7,1.9,9.3,4.2,13.5,6.9
			c2.5,1.6,5,3.3,7.4,5.1c2.8,2.2,5.5,4.5,8.1,7.1c0.1,0.1,0.1,0.1,0.2,0.2c4.7,4.6,8.8,9.8,12.3,15.4c1.1,1.7,2.1,3.5,3.1,5.3
			h114.9c2.1-1.7,4.3-3.3,6.5-4.8c0.4-0.3,0.8-0.5,1.2-0.8c7.1-4.6,15-8.1,23.3-10.5c6-1.7,12.3-2.8,18.7-3.1
			c1.3-0.1,2.7-0.1,4.1-0.1h0c0.3,0,0.5,0,0.8,0c7.6,0,15,1,22.1,2.8c3.6,1,7.2,2.1,10.6,3.5c8,3.2,15.4,7.6,22,12.9h7.3
			c0.9-1.9,1.9-3.7,2.9-5.5c3.8-6.7,8.7-12.8,14.3-17.9c4.9-4.5,10.4-8.3,16.3-11.4c7.7-4,16.2-6.7,25.1-7.7h0
			c0.6-0.1,1.2-0.1,1.8-0.2c2.4-0.2,4.9-0.4,7.3-0.4c2.3,0,4.6,0.1,6.8,0.3c1.7-22.4,17.9-40.7,39.2-45.7
			C511.6,238.8,512,247.3,512,256z"/>
		<path id="XMLID_3053_" class="st1" d="M511.1,277c-6.6,81.3-51.2,151.8-115.9,193.8c-36.7,23.8-79.9,38.5-126.3,40.8
			c-4.3,0.2-8.6,0.3-12.9,0.3c-3.2,0-6.4-0.1-9.6-0.2c-34.6-1.3-67.4-9.4-97.2-23.1c-11-5-21.6-10.9-31.7-17.4c0,0-0.1-0.1-0.2-0.1
			C46.7,425.6,0,346.3,0,256c0-6.5,0.2-12.9,0.7-19.3c0.1-0.2,0.1-0.4,0.2-0.5c22.5,2.8,42.4,14.3,56.2,30.9
			c5.2,6.3,9.6,13.4,12.9,21c2.3-0.6,4.7-1,7.1-1c14.7,0,26.6,11.9,26.6,26.6c0,1-0.1,1.9-0.2,2.9c-0.2,1.4-0.4,2.7-0.8,4
			c6.3,1,12.4,2.8,18.2,5.1c4.7,1.9,9.3,4.2,13.5,6.9c3,1.8,5.8,3.8,8.5,6c0.1,0.1,0.2,0.1,0.3,0.2c5.5,4.4,10.4,9.5,14.7,15.1
			c1.6,2.1,3,4.2,4.4,6.4c1.1,1.7,2.1,3.5,3.1,5.3h114.9c9-7.3,19.6-12.8,31.1-16.1c7.2-2,14.9-3.2,22.8-3.2h0c0.3,0,0.5,0,0.8,0
			c7.6,0,15,1,22.1,2.8c12.1,3.2,23.1,8.9,32.5,16.5h7.3c0.9-1.9,1.9-3.7,2.9-5.5c3.8-6.7,8.7-12.8,14.3-18
			c4.9-4.5,10.4-8.3,16.3-11.4c7.7-4,16.2-6.7,25.1-7.7h0c0.6-0.1,1.2-0.1,1.8-0.2c2.4-0.2,4.9-0.4,7.3-0.4c2.3,0,4.6,0.1,6.8,0.3
			C473.3,300.3,489.7,281.9,511.1,277z"/>
		<path id="XMLID_3665_" class="st0" d="M335.3,342.6H173.1c-17.9,0-32.4-14.5-32.4-32.4v-10.7c0-17.9,14.5-32.4,32.4-32.4h162.2
			c17.9,0,32.4,14.5,32.4,32.4v10.7C367.7,328.1,353.2,342.6,335.3,342.6z"/>
		<path id="XMLID_3664_" class="st15" d="M306,329.6h-99.3c-13.6,0-24.7-11.1-24.7-24.7v0c0-13.6,11.1-24.7,24.7-24.7H306
			c13.6,0,24.7,11.1,24.7,24.7v0C330.7,318.5,319.6,329.6,306,329.6z"/>
		<path id="XMLID_3663_" class="st50" d="M264.1,353.5h-15.7c-12.6,0-22.8-10.2-22.8-22.8v-37.6c0-12.6,10.2-22.8,22.8-22.8h15.7
			c12.6,0,22.8,10.2,22.8,22.8v37.6C286.9,343.2,276.7,353.5,264.1,353.5z"/>
		<path id="XMLID_3662_" class="st51" d="M266.9,353.2c-1.1,0.2-2.2,0.2-3.3,0.2h-15.7c-12.6,0-22.8-10.2-22.8-22.8v-37.6
			c0-12.6,10.2-22.8,22.8-22.8h15.7c1.1,0,2.2,0.1,3.3,0.2c-11,1.6-19.5,11.1-19.5,22.6v37.6C247.4,342.1,255.9,351.6,266.9,353.2z"
			/>
		<path id="XMLID_3661_" class="st50" d="M370,158.7h-2.6v-17.3C367.4,79.8,317.6,30,256.1,30h0c-61.5,0-111.3,49.8-111.3,111.3
			v50.3c0,61.5,49.8,111.3,111.3,111.3h0c57.2,0,104.4-43.2,110.6-98.8h3.3c8.5,0,15.4-6.9,15.4-15.4v-14.7
			C385.4,165.6,378.5,158.7,370,158.7z"/>
		<path id="XMLID_3660_" class="st51" d="M184.5,191.6v-50.3c0-54.7,39.4-100.2,91.4-109.5c-6.4-1.2-13.1-1.8-19.9-1.8
			c-61.5,0-111.3,49.8-111.3,111.3v17.4h-2.1c-8.5,0-15.4,6.9-15.4,15.4v14.7c0,8.5,6.9,15.4,15.4,15.4h2.8
			c6.2,55.6,53.4,98.8,110.6,98.8c6.8,0,13.4-0.6,19.9-1.8C224,291.8,184.5,246.3,184.5,191.6z"/>
		<path id="XMLID_3659_" class="st51" d="M262.6,214.3h-13.8c-4.5,0-8.2-3.7-8.2-8.2v0c0-4.5,3.7-8.2,8.2-8.2h13.8
			c4.5,0,8.2,3.7,8.2,8.2v0C270.8,210.7,267.1,214.3,262.6,214.3z"/>
		<path id="XMLID_3732_" class="st0" d="M395.2,381.9v89c-36.7,23.8-79.9,38.5-126.3,40.8c-4.3,0.2-8.6,0.3-12.9,0.3
			c-3.2,0-6.4-0.1-9.6-0.2c-34.6-1.3-67.4-9.4-97.2-23.1c-11-5-21.6-10.9-31.7-17.4c0,0-0.1-0.1-0.2-0.1c-0.2-9-0.4-27.8-0.5-28
			v-61.3c0-18.8,10.6-35.1,26.2-43.3c2.9-1.5,6-2.8,9.2-3.7c4.3-1.2,8.8-1.9,13.4-1.9h45.5v-9.3c0-1.8,0.4-3.4,1.2-4.9
			c1.3-2.5,3.5-4.3,6.3-5.1c1-0.3,1.9-0.4,3-0.4h70.2c4.1,0,7.6,2.3,9.3,5.7c0.7,1.4,1.1,3,1.1,4.7v9.3h44.2c3.6,0,7.2,0.4,10.6,1.2
			h0c15.4,3.4,28.1,14.1,34.2,28.3c0,0,0,0,0,0c0.2,0.4,0.4,0.9,0.6,1.4c0.2,0.6,0.4,1.1,0.6,1.7
			C394.2,370.8,395.2,376.2,395.2,381.9z"/>
		<path id="XMLID_3280_" class="st15" d="M198,333.1c-10.7,0-20.6,3.4-28.6,9.3c-4.4,3.2-8.3,7.2-11.4,11.7
			c-5.5,7.9-8.8,17.5-8.8,27.9v106.8c-11-5-21.6-10.9-31.7-17.4v-89.4c0-18.6,10.4-34.8,25.8-43.1c2.9-1.6,6-2.8,9.1-3.8h0
			c4.4-1.3,9.1-2,13.9-2H198z"/>
		<path id="XMLID_3281_" class="st2" d="M268.9,313.3v198.4c-4.3,0.2-8.6,0.3-12.9,0.3c-3.2,0-6.4-0.1-9.6-0.2V313.3H268.9z"/>
		<path id="XMLID_3655_" class="st33" d="M257.6,350.7L257.6,350.7c-3.6,0-6.4-3.1-6-6.7l2.4-21.7c0-0.4,0.4-0.8,0.9-0.8h5.5
			c0.5,0,0.8,0.3,0.9,0.8l2.4,21.7C264,347.6,261.2,350.7,257.6,350.7z"/>
		<g id="XMLID_3651_">
			<path id="XMLID_3654_" class="st36" d="M283.5,228.6c1.6,0,2.8,1.3,2.8,2.8l0,0c0,2.9-0.4,5.7-1.1,8.4
				c-1.7,6.2-5.2,11.7-9.9,15.8c-5.6,4.9-13,7.9-21.1,7.9c-8.1,0-15.5-3-21.1-7.9c-4.7-4.1-8.2-9.6-9.9-15.8
				c-0.7-2.7-1.1-5.5-1.1-8.4l0,0c0-1.6,1.3-2.8,2.8-2.8H283.5z"/>
			<path id="XMLID_3653_" class="st245" d="M275.3,255.6c-5.6,4.9-13,7.9-21.1,7.9c-8.1,0-15.5-3-21.1-7.9c5.6-4.9,13-7.9,21.1-7.9
				C262.3,247.7,269.7,250.7,275.3,255.6z"/>
			<path id="XMLID_3652_" class="st16" d="M283.5,228.6c1.6,0,2.8,1.3,2.8,2.8l0,0c0,2.9-0.4,5.7-1.1,8.4h-62.1
				c-0.7-2.7-1.1-5.5-1.1-8.4l0,0c0-1.6,1.3-2.8,2.8-2.8H283.5z"/>
		</g>
		<path id="XMLID_3650_" class="st33" d="M280,405.9h-42.6c-7.9,0-14.3-6.4-14.3-14.3v0c0-7.9,6.4-14.3,14.3-14.3H280
			c7.9,0,14.3,6.4,14.3,14.3v0C294.3,399.5,287.9,405.9,280,405.9z"/>
		<path id="XMLID_3649_" class="st33" d="M280,451h-42.6c-7.9,0-14.3-6.4-14.3-14.3v0c0-7.9,6.4-14.3,14.3-14.3H280
			c7.9,0,14.3,6.4,14.3,14.3v0C294.3,444.6,287.9,451,280,451z"/>
		<path id="XMLID_3648_" class="st33" d="M280,496.2h-42.6c-7.9,0-14.3-6.4-14.3-14.3l0,0c0-7.9,6.4-14.3,14.3-14.3H280
			c7.9,0,14.3,6.4,14.3,14.3l0,0C294.3,489.8,287.9,496.2,280,496.2z"/>
		<path id="XMLID_3647_" class="st262" d="M372.2,144v-43.6c0-46.7-37.9-84.6-84.6-84.6h-63.4c-46.7,0-84.6,37.9-84.6,84.6V144
			c-17.6,3.2-31,18.6-31,37.2v87.7c0,17.1,13.9,31,31,31h0c17.1,0,31-13.9,31-31V162.6c0-10.1,8.2-18.2,18.2-18.2H323
			c10.1,0,18.2,8.2,18.2,18.2v106.2c0,17.1,13.9,31,31,31h0c17.1,0,31-13.9,31-31v-87.7C403.2,162.6,389.8,147.2,372.2,144z"/>
		<path id="XMLID_3646_" class="st263" d="M286.6,15.9c-46.7,0-84.6,37.9-84.6,84.6V144c-0.6,0.1-1.2,0.2-1.8,0.4h-10.7
			c-10.1,0-18.2,8.2-18.2,18.2v106.2c0,1,0,1.9-0.1,2.8c-1.4,15.8-14.7,28.2-30.8,28.2h0c-17.1,0-31-13.9-31-31v-87.7
			c0-18.5,13.4-34,31-37.2v-43.5c0-46.7,37.9-84.6,84.6-84.6H286.6z"/>
		<path id="XMLID_3645_" class="st263" d="M171.4,176.7v92.1c0,1,0,1.9-0.1,2.8c-0.1-0.9-0.1-1.9-0.1-2.8v-87.7
			C171.1,179.7,171.2,178.2,171.4,176.7z"/>
		<path id="XMLID_3644_" class="st41" d="M339.5,144.4H167.1c-5.8,0-10.6-4.7-10.6-10.6v-4.6c0-35.2,28.5-63.6,63.6-63.6h66.3
			c35.2,0,63.6,28.5,63.6,63.6v4.6C350.1,139.6,345.4,144.4,339.5,144.4z"/>
		<path id="XMLID_3643_" class="st100" d="M294.3,186c5.5,5.5,14.5,5.5,20,0"/>
		<path id="XMLID_3642_" class="st100" d="M198,186c5.5,5.5,14.5,5.5,20,0"/>
		<path id="XMLID_3641_" class="st264" d="M193.2,97c-0.2,1.1-1.7,1.2-2.1,0.2c-0.1-0.2-0.2-0.4-0.2-0.6c-2.4-6.3,0.9-13.4,7.4-15.5
			c6.1-2,12.9,1.4,14.9,7.5c0,0,0,0.1,0,0.1c0.3,1-0.8,1.8-1.7,1.2c-3.1-2.1-7.2-2.8-11-1.3C196.7,90.1,194.1,93.3,193.2,97z"/>
		<path id="XMLID_3640_" class="st264" d="M227.7,90.6c-0.9,0.7-2-0.1-1.7-1.2c0.1-0.2,0.1-0.4,0.2-0.6c2.1-6.4,9.2-9.7,15.6-7.2
			c6,2.4,9,9.3,6.7,15.3c0,0,0,0.1,0,0.1c-0.4,1-1.8,0.8-2.1-0.2c-1-3.6-3.8-6.7-7.6-8C234.8,87.5,230.7,88.3,227.7,90.6z"/>
		<path id="XMLID_3639_" class="st264" d="M267.9,97c-0.2,1.1-1.7,1.2-2.1,0.2c-0.1-0.2-0.2-0.4-0.2-0.6c-2.4-6.3,0.9-13.4,7.4-15.5
			c6.1-2,12.9,1.4,14.9,7.5c0,0,0,0.1,0,0.1c0.3,1-0.8,1.8-1.7,1.2c-3.1-2.1-7.2-2.8-11-1.3C271.3,90.1,268.7,93.3,267.9,97z"/>
		<path id="XMLID_3638_" class="st264" d="M302.4,90.6c-0.9,0.7-2-0.1-1.7-1.2c0.1-0.2,0.1-0.4,0.2-0.6c2.1-6.4,9.2-9.7,15.6-7.2
			c6,2.4,9,9.3,6.7,15.3c0,0,0,0.1,0,0.1c-0.4,1-1.8,0.8-2.1-0.2c-1-3.6-3.8-6.7-7.6-8C309.5,87.5,305.4,88.3,302.4,90.6z"/>
		<path id="XMLID_3637_" class="st264" d="M234.4,130c1.1,0,1.5,1.4,0.6,2c-0.2,0.1-0.3,0.2-0.5,0.3c-5.7,3.6-13.3,1.7-16.7-4.3
			c-3.1-5.6-1.1-12.9,4.5-16.1c0,0,0.1,0,0.1-0.1c0.9-0.5,1.9,0.5,1.5,1.4c-1.5,3.5-1.3,7.6,0.8,11C227,128,230.6,129.9,234.4,130z"
			/>
		<path id="XMLID_3635_" class="st264" d="M189.1,128c1.1,0,1.5,1.4,0.6,2c-0.2,0.1-0.3,0.2-0.5,0.3c-5.7,3.6-13.3,1.7-16.7-4.3
			c-3.1-5.6-1.1-12.9,4.5-16.1c0,0,0.1,0,0.1-0.1c0.9-0.5,1.9,0.5,1.5,1.4c-1.5,3.5-1.3,7.6,0.8,11C181.7,126,185.3,127.9,189.1,128
			z"/>
		<path id="XMLID_3634_" class="st264" d="M277.9,130c-1.1,0-1.5,1.4-0.6,2c0.2,0.1,0.3,0.2,0.5,0.3c5.7,3.6,13.3,1.7,16.7-4.3
			c3.1-5.6,1.1-12.9-4.5-16.1c0,0-0.1,0-0.1-0.1c-0.9-0.5-1.9,0.5-1.5,1.4c1.5,3.5,1.3,7.6-0.8,11C285.3,128,281.7,129.9,277.9,130z
			"/>
		<path id="XMLID_3633_" class="st264" d="M311.8,128c-1.1,0-1.5,1.4-0.6,2c0.2,0.1,0.3,0.2,0.5,0.3c5.7,3.6,13.3,1.7,16.7-4.3
			c3.1-5.6,1.1-12.9-4.5-16.1c0,0-0.1,0-0.1-0.1c-0.9-0.5-1.9,0.5-1.5,1.4c1.5,3.5,1.3,7.6-0.8,11C319.3,126,315.6,127.9,311.8,128z
			"/>
		<circle id="XMLID_3614_" class="st16" cx="76.3" cy="126.1" r="15.6"/>
		<circle id="XMLID_3613_" class="st16" cx="403.2" cy="65.6" r="15.6"/>
		<circle id="XMLID_3612_" class="st16" cx="367.7" cy="225.1" r="15.6"/>
		<circle id="XMLID_3610_" class="st16" cx="464.5" cy="217.1" r="15.6"/>
		<circle id="XMLID_3609_" class="st16" cx="140.7" cy="266.1" r="15.6"/>
		<circle id="XMLID_3608_" class="st16" cx="258.7" cy="45.1" r="15.6"/>
		<circle id="XMLID_3607_" class="st16" cx="347.1" cy="403.1" r="15.6"/>
	</g>
</g>
</svg>
