<?xml version="1.0" encoding="utf-8"?>
<!-- Generator: Adobe Illustrator 22.0.1, SVG Export Plug-In . SVG Version: 6.00 Build 0)  -->
<svg version="1.1" xmlns="http://www.w3.org/2000/svg" xmlns:xlink="http://www.w3.org/1999/xlink" x="0px" y="0px"
	 viewBox="0 0 512 512" style="enable-background:new 0 0 512 512;" xml:space="preserve">
<style type="text/css">
	.st0{fill:#E9B12D;}
	.st1{fill:#A9E7D8;}
	.st2{fill:#76CFB1;}
	.st3{fill:#AE6B5D;}
	.st4{fill:#7770D3;}
	.st5{fill:#5BA0F5;}
	.st6{fill:#DA4545;}
	.st7{fill:#89CCFC;}
	.st8{fill:#CD462A;}
	.st9{fill:#514896;}
	.st10{fill:#5493A0;}
	.st11{fill:#CC6B5C;}
	.st12{fill:#62AA8D;}
	.st13{fill:#8ABAAB;}
	.st14{fill:#C3791F;}
	.st15{fill:#E39123;}
	.st16{fill:#FFFFFF;}
	.st17{fill:none;stroke:#FFFFFF;stroke-width:10;stroke-linecap:round;stroke-miterlimit:10;}
	.st18{fill:none;stroke:#5F55AB;stroke-width:10;stroke-linecap:round;stroke-miterlimit:10;}
	.st19{fill:#A9671C;}
	.st20{fill:#D5B3A7;}
	.st21{fill:#C09A8F;}
	.st22{fill:#487F87;}
	.st23{fill:#1B305C;}
	.st24{fill:#172945;}
	.st25{fill:none;}
	.st26{fill:#B62A2A;}
	.st27{fill:#325859;}
	.st28{fill:#3F6E71;}
	.st29{fill:#284646;}
	.st30{fill:#8F2727;}
	.st31{fill:#29477C;}
	.st32{fill:#5B9BEE;}
	.st33{fill:#487FDE;}
	.st34{fill:#CD9829;}
	.st35{fill:#9F2A2A;}
	.st36{fill:#4C3328;}
	.st37{fill:#E8B94A;}
	.st38{fill:#DDF8F1;}
	.st39{fill:#3E2A22;}
	.st40{fill:#D3A971;}
	.st41{fill:#C79A5B;}
	.st42{fill:#233E76;}
	.st43{fill:#21395F;}
	.st44{fill:#487D82;}
	.st45{fill:none;stroke:#C79A5B;stroke-width:10;stroke-linecap:round;stroke-miterlimit:10;}
	.st46{fill:#5E3E31;}
	.st47{fill:#AC3939;}
	.st48{fill:#CA9628;}
	.st49{fill:#AF8F88;}
	.st50{fill:#815048;}
	.st51{fill:#6F4232;}
	.st52{fill:#5F55AB;}
	.st53{fill:#192A48;}
	.st54{fill:#152336;}
	.st55{fill:#192B49;}
	.st56{fill:#264173;}
	.st57{fill:#B06F1E;}
	.st58{fill:#4E88C0;}
	.st59{fill:#83C3F1;}
	.st60{fill:#CF9929;}
	.st61{fill:none;stroke:#FFFFFF;stroke-width:10;stroke-linecap:round;stroke-linejoin:round;stroke-miterlimit:10;}
	.st62{fill:#EAC262;}
	.st63{fill:#D6D5D4;}
	.st64{fill:#6BBA9B;}
	.st65{fill:#63AA8F;}
	.st66{fill:none;stroke:#3E2A22;stroke-width:10;stroke-linecap:round;stroke-miterlimit:10;}
	.st67{fill:#CA7D1F;}
	.st68{fill:#213B64;}
	.st69{fill:#CDF8EC;}
	.st70{fill:#C59125;}
	.st71{fill:none;stroke:#C09A8F;stroke-width:10;stroke-linecap:round;stroke-miterlimit:10;}
	.st72{fill:#32579B;}
	.st73{fill:#172843;}
	.st74{fill:#D66767;}
	.st75{fill:#A74949;}
	.st76{fill:#EBC76F;}
	.st77{fill:#7A4940;}
	.st78{fill:#182A48;}
	.st79{fill:none;stroke:#A0794A;stroke-width:10;stroke-linecap:round;stroke-miterlimit:10;}
	.st80{fill:#C37A20;}
	.st81{fill:#D26D5C;}
	.st82{fill:#A45752;}
	.st83{fill:#284579;}
	.st84{fill:#88C7F4;}
	.st85{fill:#6EB6F0;}
	.st86{fill:#32221E;}
	.st87{fill:#E7A6A6;}
	.st88{fill:#C59191;}
	.st89{fill:#AA3B3B;}
	.st90{fill:#B83E3E;}
	.st91{fill:none;stroke:#5F55A9;stroke-width:10;stroke-linecap:round;stroke-miterlimit:10;}
	.st92{fill:#963838;}
	.st93{fill:#402B25;}
	.st94{fill:#6B6ABA;}
	.st95{fill:#BABABA;}
	.st96{fill:#D1D1D1;}
	.st97{fill:#264377;}
	.st98{fill:#A19BF5;}
	.st99{fill:#3C2A21;}
	.st100{fill:none;stroke:#4C3328;stroke-width:10;stroke-linecap:round;stroke-miterlimit:10;}
	.st101{fill:#C1781F;}
	.st102{fill:#E3A147;}
	.st103{fill:#F2D2A1;}
	.st104{fill:#4F372D;}
	.st105{fill:none;stroke:#DA4545;stroke-width:10;stroke-linecap:round;stroke-miterlimit:10;}
	.st106{fill:#AA3928;}
	.st107{fill:#8C2C22;}
	.st108{fill:#BF4336;}
	.st109{fill:#5797D4;}
	.st110{fill:#CFCFCF;}
	.st111{fill:#613A2E;}
	.st112{fill:none;stroke:#B18653;stroke-width:10;stroke-linecap:round;stroke-miterlimit:10;}
	.st113{fill:#B13B3B;}
	.st114{fill:#16263A;}
	.st115{fill:none;stroke:#16263A;stroke-width:10;stroke-miterlimit:10;}
	.st116{fill:#C87D20;}
	.st117{fill:#E4F0FD;}
	.st118{fill:#AA3737;}
	.st119{fill:#BF771F;}
	.st120{fill:none;stroke:#CD462A;stroke-width:10;stroke-linejoin:round;stroke-miterlimit:10;}
	.st121{fill:#5696D2;}
	.st122{fill:#C0771E;}
	.st123{fill:#9B5F1B;}
	.st124{fill:#A83A29;}
	.st125{fill:#E7A74F;}
	.st126{fill:#C9924C;}
	.st127{fill:#C58E48;}
	.st128{fill:#BE8844;}
	.st129{fill:#916939;}
	.st130{fill:#264275;}
	.st131{fill:#253F65;}
	.st132{fill:#182A45;}
	.st133{fill:#162336;}
	.st134{fill:#93C7B7;}
	.st135{fill:#E6A4A4;}
	.st136{fill:#B06B1D;}
	.st137{fill:#484185;}
	.st138{fill:#DB6E6E;}
	.st139{fill:#6BBA9A;}
	.st140{fill:#CACCCC;}
	.st141{fill:#D4D4D4;}
	.st142{fill:#A98881;}
	.st143{fill:#213A62;}
	.st144{fill:#A2837D;}
	.st145{fill:#6FB8F4;}
	.st146{fill:#9B9E9E;}
	.st147{fill:#B2B3B3;}
	.st148{fill:#20385D;}
	.st149{fill:#335AA8;}
	.st150{fill:#BCE7FD;}
	.st151{fill:#3B2921;}
	.st152{fill:#AD3C3C;}
	.st153{fill:#9D3838;}
	.st154{fill:#603F33;}
	.st155{fill:#4D868B;}
	.st156{fill:#A2DDFD;}
	.st157{fill:#ECB6B6;}
	.st158{fill:#E8A346;}
	.st159{fill:#514C94;}
	.st160{fill:#D2F1E8;}
	.st161{fill:#BDD6CE;}
	.st162{fill:#B93B29;}
	.st163{fill:#E0AD70;}
	.st164{fill:#C57C21;}
	.st165{fill:#EDA34A;}
	.st166{fill:#2F538F;}
	.st167{fill:#2B4B78;}
	.st168{fill:#65AF91;}
	.st169{fill:#A7CEFC;}
	.st170{fill:#98BDE2;}
	.st171{fill:#CFE5F7;}
	.st172{fill:#5492CD;}
	.st173{fill:#97CCBC;}
	.st174{fill:#5491CA;}
	.st175{fill:#EDC563;}
	.st176{fill:#423C79;}
	.st177{fill:#D3B1A5;}
	.st178{fill:#BE988D;}
	.st179{fill:#A7E5D6;}
	.st180{fill:#F2FFF9;}
	.st181{fill:#D64545;}
	.st182{fill:#A73B3B;}
	.st183{fill:#15233A;}
	.st184{fill:none;stroke:#BE988D;stroke-width:10;stroke-linecap:round;stroke-miterlimit:10;}
	.st185{fill:#AF3A29;}
	.st186{fill:#FAF9FF;}
	.st187{fill:#CACACC;}
	.st188{fill:#372720;}
	.st189{fill:#3F2C26;}
	.st190{fill:#2D201C;}
	.st191{fill:#3D6D6F;}
	.st192{fill:#5B54A8;}
	.st193{fill:#325799;}
	.st194{fill:#E8C26E;}
	.st195{fill:#254784;}
	.st196{fill:#5696D4;}
	.st197{fill:#4F8AB6;}
	.st198{fill:#5FA4AC;}
	.st199{fill:#AA3524;}
	.st200{fill:#D15F4D;}
	.st201{fill:#2B294C;}
	.st202{fill:#A43A2A;}
	.st203{fill:#E7AE2D;}
	.st204{fill:#CD9729;}
	.st205{fill:none;stroke:#AA8253;stroke-width:10;stroke-linecap:round;stroke-miterlimit:10;}
	.st206{fill:none;stroke:#E18F23;stroke-width:10;stroke-linecap:round;stroke-linejoin:round;stroke-miterlimit:10;}
	.st207{fill:#CF9828;}
	.st208{fill:#B88926;}
	.st209{fill:#A17623;}
	.st210{fill:#96CCBC;}
	.st211{fill:#CF9A2A;}
	.st212{fill:#C57B20;}
	.st213{fill:#C7F1E6;}
	.st214{fill:#DC6363;}
	.st215{fill:#E89F9F;}
	.st216{fill:#C88C8C;}
	.st217{fill:#C16E6E;}
	.st218{fill:#A46060;}
	.st219{fill:#AA3626;}
	.st220{fill:#87EDC4;}
	.st221{fill:#D86552;}
	.st222{fill:#BC7620;}
	.st223{fill:#BA741E;}
	.st224{fill:#8F8CE3;}
	.st225{fill:#3A2820;}
	.st226{fill:#AC7060;}
	.st227{fill:#915F55;}
	.st228{fill:#49332A;}
	.st229{fill:#2D1F1B;}
	.st230{fill:#69B7BE;}
	.st231{fill:#D6D6D6;}
	.st232{fill:#B8B8B8;}
	.st233{fill:#CACACA;}
	.st234{fill:#467B80;}
	.st235{fill:#C2EDE2;}
	.st236{fill:#A9574F;}
	.st237{fill:#5595D2;}
	.st238{fill:#955949;}
	.st239{fill:#7E4B42;}
	.st240{fill:#89CCF1;}
	.st241{fill:#DD584A;}
	.st242{fill:#C18F26;}
	.st243{fill:#B33C2A;}
	.st244{fill:#D1A771;}
	.st245{fill:#B42A2A;}
	.st246{fill:#325797;}
	.st247{fill:#9F3529;}
	.st248{fill:#EDCE80;}
	.st249{fill:#F0DBAC;}
	.st250{fill:#CFB478;}
	.st251{fill:#D4C29B;}
	.st252{fill:#993939;}
	.st253{fill:#D1AFA3;}
	.st254{fill:#BC968B;}
	.st255{fill:none;stroke:#BC968B;stroke-width:10;stroke-linecap:round;stroke-miterlimit:10;}
	.st256{fill:#814C3C;}
	.st257{fill:#C0EBE0;}
	.st258{fill:#A5E3D4;}
	.st259{fill:#15243C;}
	.st260{fill:#443E79;}
	.st261{fill:#F0FFF7;}
	.st262{fill:#9A764B;}
	.st263{fill:#826443;}
	.st264{fill:#D9AA74;}
	.st265{fill:#5DA186;}
	.st266{fill:#68B596;}
	.st267{fill:#E5C6BE;}
	.st268{fill:#D3B6B1;}
	.st269{fill:none;stroke:#BAA09C;stroke-width:10;stroke-linecap:round;stroke-miterlimit:10;}
	.st270{fill:#F4D78F;}
	.st271{fill:#20385F;}
	.st272{fill:#BA8727;}
	.st273{fill:#5A9C82;}
	.st274{fill:none;stroke:#E39123;stroke-width:10;stroke-linecap:round;stroke-linejoin:round;stroke-miterlimit:10;}
	.st275{fill:#60392D;}
	.st276{fill:#CCCCCC;}
	.st277{fill:#844F3E;}
	.st278{fill:#F3FFFB;}
	.st279{fill:#365E60;}
	.st280{fill:#D84545;}
	.st281{fill:#A83B3B;}
	.st282{fill:#253F70;}
	.st283{fill:#EAADAD;}
	.st284{fill:#443E7C;}
	.st285{fill:#3D6B9F;}
	.st286{fill:#4274BC;}
	.st287{fill:#AF3827;}
	.st288{fill:#E59D9D;}
	.st289{fill:#C48989;}
	.st290{fill:none;stroke:#9B621A;stroke-width:10;stroke-linecap:round;stroke-linejoin:round;stroke-miterlimit:10;}
	.st291{fill:#213A5E;}
	.st292{fill:#2D507A;}
	.st293{fill:#528EC8;}
	.st294{fill:#EFD696;}
	.st295{fill:#D1BA87;}
	.st296{fill:#FDFCFC;}
	.st297{fill:#86CBFC;}
	.st298{fill:#7AB7DA;}
	.st299{fill:#192C4C;}
	.st300{fill:#BCBCBC;}
	.st301{fill:#A13838;}
	.st302{fill:#75BDF6;}
	.st303{fill:#D0B1AA;}
	.st304{fill:#142233;}
	.st305{fill:#E6C4BB;}
	.st306{fill:#BDBDBD;}
	.st307{fill:#E8A192;}
	.st308{fill:#A43939;}
	.st309{fill:#162640;}
	.st310{fill:#27457C;}
	.st311{fill:#EFBE5E;}
	.st312{fill:#87EDC5;}
	.st313{fill:#A03838;}
	.st314{fill:#833232;}
	.st315{fill:#47417F;}
	.st316{fill:none;stroke:#915F55;stroke-width:10;stroke-linecap:round;stroke-miterlimit:10;}
	.st317{fill:#BC8B25;}
	.st318{fill:#473129;}
	.st319{fill:#67B394;}
	.st320{fill:#599A80;}
	.st321{fill:#B13D3D;}
</style>
<g id="BULINE">
	<g>
		<circle id="XMLID_2211_" class="st0" cx="256" cy="256" r="256"/>
	</g>
</g>
<g id="Icons">
	<g>
		<g id="XMLID_2690_">
			<path id="XMLID_2843_" class="st194" d="M486,143.5c-4.3,73.8-43.5,138.3-101.3,177.2c-4.2,2.9-8.6,5.6-13,8.1
				c-2.2,1.2-4.3,2.5-6.5,3.6c-11,5.9-22.6,10.9-34.5,15h0c-23.1,7.8-47.8,12-73.5,12c-25.7,0-50.4-4.2-73.5-12
				c-7.7-2.6-15.2-5.6-22.5-9c-0.1-0.1-0.3-0.1-0.4-0.2c-9.2-4.3-18.1-9.1-26.6-14.6c-10-6.3-19.4-13.4-28.2-21.1
				c-4.9-4.3-9.6-8.8-14.1-13.5c-1.8-1.9-3.7-3.9-5.4-5.8c-9.2-10.2-17.4-21.2-24.7-33c-0.7-1.1-1.4-2.2-2-3.4
				c-5.6-9.5-10.6-19.4-14.8-29.7c-1.6-3.9-3.1-7.8-4.5-11.8c-7.2-20.7-11.5-42.7-12.5-65.6C70.1,56.8,156.4,0,256,0
				C357,0,444.4,58.5,486,143.5z"/>
			<g id="XMLID_2691_">
				<path id="XMLID_2803_" class="st319" d="M419.1,377.6v75.7c-1.6,1.3-3.2,2.6-4.8,3.9c-10.2,8-21,15.3-32.3,21.7h0
					c-32.1,18.2-68.4,29.6-107.2,32.4h0c-6.2,0.4-12.5,0.7-18.8,0.7c-5.3,0-10.6-0.2-15.8-0.5h0c-7.6-0.5-15.1-1.3-22.4-2.4
					c-15.4-2.3-30.3-6-44.7-10.9c-9.2-3.1-18.2-6.8-26.9-10.9c-1.6-0.8-3.2-1.6-4.9-2.4c-0.2-0.1-0.5-0.2-0.7-0.3v-107
					c0-16.1,7.8-30.5,19.9-39.4c7-5.1,15.3-8.4,24.4-9.3c1.5-0.1,3-0.2,4.5-0.2h180.8c0.5,0,0.9,0,1.4,0h0
					c7.4,0.2,14.4,2.1,20.6,5.2C408.2,342,419.1,358.6,419.1,377.6z"/>
				<path id="XMLID_2213_" class="st320" d="M221.9,328.8c-3.6,0-7.2,0.4-10.6,1.2c-11.2,2.5-20.9,8.8-27.8,17.5
					c-0.7,0.9-1.3,1.8-2,2.7c-5.4,7.8-8.5,17.3-8.5,27.5v120.6c-9.2-3.1-18.2-6.8-26.9-10.9c-1.6-0.8-3.2-1.6-4.9-2.4V377.6
					c0-16,7.7-30.2,19.7-39.2c0,0,0,0,0,0c6.8-5.1,15-8.4,23.9-9.4c1.7-0.2,3.5-0.3,5.2-0.3H221.9z"/>
				<path id="XMLID_2733_" class="st50" d="M287.9,349.2h-15.7c-12.6,0-22.8-10.2-22.8-22.8v-37.6c0-12.6,10.2-22.8,22.8-22.8h15.7
					c12.6,0,22.8,10.2,22.8,22.8v37.6C310.7,338.9,300.5,349.2,287.9,349.2z"/>
				<path id="XMLID_2732_" class="st51" d="M290.8,348.9c-1.1,0.2-2.2,0.2-3.3,0.2h-15.7c-12.6,0-22.8-10.2-22.8-22.8v-37.6
					c0-12.6,10.2-22.8,22.8-22.8h15.7c1.1,0,2.2,0.1,3.3,0.2c-11,1.6-19.5,11.1-19.5,22.6v37.6C271.3,337.8,279.8,347.3,290.8,348.9
					z"/>
				<path id="XMLID_2731_" class="st50" d="M398.9,162.8c-1.8-0.7-3.7-1.1-5.7-1.1h-2.6v-17.4c0-26.7-9.4-51.2-25.1-70.4
					c-4.4,28.4-41.4,50.5-86.4,50.5c-25.7,0-48.7-7.2-64.6-18.7c-4.4,12-6.9,25-6.9,38.6v50.3c0,14.9,2.9,29,8.2,42
					c14.2,34.8,45.4,60.8,83.2,67.6c10-1.8,19.5-4.9,28.4-9.2c9.6-4.6,18.4-10.5,26.2-17.6c16.8-15.1,29-35.3,34.1-58.2
					c0.8-3.6,1.5-7.2,1.9-11v0c0.1-0.4,0.1-0.7,0.1-1.1h3.3c0.6,0,1.2,0,1.8-0.1c7.7-0.9,13.6-7.4,13.6-15.3v-14.7
					C408.6,170.6,404.6,165,398.9,162.8z"/>
				<path id="XMLID_2730_" class="st51" d="M215.9,236.6c-5.3-13-8.2-27.1-8.2-42v-50.3c0-13.6,2.4-26.6,6.9-38.6
					c-11.9-8.6-19.8-19.5-21.7-31.6c-15.6,19.2-24.9,43.6-24.9,70.2v17.4h0h-2.1c-2.4,0-4.7,0.6-6.7,1.6c-5.1,2.5-8.6,7.7-8.6,13.8
					v14.7c0,7.5,5.4,13.8,12.5,15.1c0.9,0.2,1.9,0.3,2.9,0.3h2.8c0.1,1.1,0.3,2.2,0.4,3.3c0,0.3,0.1,0.6,0.1,0.9
					c0.1,0.8,0.3,1.7,0.4,2.5c0,0.3,0.1,0.5,0.1,0.8c0.2,1,0.4,2,0.6,3c0.1,0.3,0.1,0.6,0.2,0.9c0.1,0.6,0.3,1.1,0.4,1.7
					c0,0.2,0.1,0.4,0.1,0.5c0.1,0.4,0.2,0.8,0.3,1.1c0.2,0.8,0.4,1.5,0.6,2.3c0.1,0.4,0.2,0.7,0.3,1.1c0.2,0.8,0.5,1.6,0.7,2.4
					c0.1,0.4,0.3,0.8,0.4,1.2c0.2,0.6,0.4,1.2,0.6,1.8c0.1,0.4,0.3,0.8,0.4,1.2c0.3,0.9,0.6,1.8,1,2.6c0.2,0.4,0.3,0.8,0.5,1.2
					c0.2,0.5,0.4,1.1,0.7,1.6c0.2,0.4,0.4,0.9,0.6,1.3c0.2,0.5,0.5,1.1,0.7,1.6c0.3,0.6,0.5,1.1,0.8,1.7c0.3,0.6,0.6,1.3,0.9,1.9
					c0.2,0.4,0.4,0.9,0.7,1.3c0.2,0.5,0.5,0.9,0.7,1.4c0.2,0.4,0.5,0.9,0.7,1.3c0.4,0.7,0.7,1.3,1.1,2c0.3,0.5,0.6,1,0.9,1.5
					c0.3,0.5,0.6,0.9,0.9,1.4c0.3,0.4,0.5,0.8,0.8,1.3c0.3,0.5,0.6,0.9,0.9,1.4c0.3,0.5,0.6,0.9,0.9,1.4c0.5,0.7,0.9,1.3,1.4,2
					c0.3,0.4,0.6,0.8,0.8,1.1c0.3,0.4,0.7,0.9,1,1.3c0.3,0.4,0.6,0.7,0.8,1.1c0.5,0.6,0.9,1.2,1.4,1.8c0.3,0.4,0.7,0.8,1,1.2
					c0.4,0.5,0.8,1,1.2,1.5c0.3,0.3,0.6,0.7,0.9,1c0.4,0.5,0.8,0.9,1.3,1.4c0.3,0.3,0.5,0.6,0.8,0.9c0.6,0.7,1.3,1.4,1.9,2
					c0.3,0.3,0.5,0.5,0.8,0.8c0.5,0.5,0.9,0.9,1.4,1.4c0.3,0.3,0.5,0.5,0.8,0.8c0.7,0.6,1.3,1.3,2,1.9c0.2,0.1,0.3,0.3,0.5,0.4
					c0.6,0.6,1.3,1.1,2,1.7c0.3,0.2,0.5,0.4,0.8,0.6c0.6,0.5,1.2,1,1.8,1.5c0.2,0.2,0.4,0.3,0.6,0.5c0.8,0.6,1.6,1.3,2.5,1.9
					c0.2,0.1,0.3,0.2,0.5,0.4c0.7,0.5,1.4,1,2.1,1.5c0.2,0.1,0.4,0.3,0.6,0.4c1.8,1.2,3.6,2.4,5.4,3.5c0.1,0.1,0.3,0.2,0.4,0.2
					c0.9,0.5,1.8,1.1,2.7,1.6c0,0,0.1,0.1,0.1,0.1c2,1.1,4,2.2,6.1,3.2c0,0,0.1,0,0.1,0.1c2.7,1.3,5.5,2.5,8.3,3.6
					c0.1,0,0.1,0,0.2,0.1c0.8,0.3,1.7,0.6,2.5,0.9c0.2,0.1,0.4,0.1,0.6,0.2c0.7,0.3,1.5,0.5,2.2,0.8c0.2,0.1,0.4,0.1,0.6,0.2
					c0.8,0.3,1.6,0.5,2.4,0.7c0.1,0,0.3,0.1,0.4,0.1c1,0.3,1.9,0.5,2.9,0.8c0,0,0.1,0,0.1,0c0.9,0.2,1.8,0.5,2.7,0.7
					c0.3,0.1,0.5,0.1,0.8,0.2c0.7,0.2,1.3,0.3,2,0.4c0.3,0.1,0.6,0.1,1,0.2c0.7,0.1,1.3,0.3,2,0.4c0.3,0.1,0.6,0.1,0.9,0.2
					c0.8,0.1,1.5,0.3,2.3,0.4c0.2,0,0.4,0.1,0.6,0.1c1,0.1,1.9,0.3,2.9,0.4c0.3,0,0.5,0.1,0.8,0.1c0.7,0.1,1.4,0.1,2.1,0.2
					c0.4,0,0.7,0.1,1.1,0.1c0.6,0.1,1.3,0.1,1.9,0.1c0.4,0,0.7,0,1.1,0.1c0.7,0,1.3,0.1,2,0.1c0.3,0,0.6,0,1,0c1,0,2,0,3,0
					c0,0,0,0,0,0c0,0,0,0,0,0c1.5,0,3,0,4.5-0.1c0.3,0,0.7,0,1,0c1.5-0.1,2.9-0.2,4.4-0.3c0.2,0,0.4,0,0.6-0.1
					c1.3-0.1,2.7-0.3,4-0.4c0.3,0,0.5-0.1,0.8-0.1c1.4-0.2,2.9-0.4,4.3-0.7c0.1,0,0.2,0,0.2,0C261.3,297.4,230.1,271.4,215.9,236.6z
					"/>
				<circle id="XMLID_2729_" class="st23" cx="224.1" cy="176.9" r="15.3"/>
				<circle id="XMLID_2728_" class="st16" cx="228" cy="172" r="6.8"/>
				<circle id="XMLID_2727_" class="st23" cx="331.2" cy="176.9" r="15.3"/>
				<circle id="XMLID_2726_" class="st16" cx="335.1" cy="172" r="6.8"/>
				<path id="XMLID_2725_" class="st51" d="M287.6,214.7h-18.2c-6,0-10.9-4.9-10.9-10.9v0c0-6,4.9-10.9,10.9-10.9h18.2
					c6,0,10.9,4.9,10.9,10.9v0C298.4,209.8,293.6,214.7,287.6,214.7z"/>
				<g id="XMLID_2722_">
					<path id="XMLID_2724_" class="st42" d="M393.2,207.2h-3.3c0,0.4-0.1,0.7-0.1,1.1v0c0,0,0,0.1,0,0.1c-4.5,5-23.6,24.6-47.9,25.3
						c-0.7-8.8-8-15.7-16.9-15.7h-91.8c-9.4,0-16.9,7.6-17,16.9c-29.2,0.8-47.5-27.8-47.5-27.8l-0.1,0.1c0,0,0,0,0-0.1h-2.8
						c-1,0-2-0.1-2.9-0.3c1.7,4.5,4.2,8.7,7.1,12.4c6.9,30.8,27,56.5,53.7,71.9c10.1,17.9,29.3,30.1,51.4,30.1h7.8
						c21.8,0,40.9-11.9,51.1-29.6c7.1-4,13.7-8.8,19.8-14.2c16.9-15.2,29-35.4,34.2-58.3c2.9-3.6,5.3-7.7,7-12
						C394.4,207.1,393.8,207.2,393.2,207.2z"/>
					<path id="XMLID_2723_" class="st42" d="M353.9,39.5C338.7,23,311,12,279.2,12c-31.6,0-59.2,10.9-74.4,27.2
						c-28.3,12.1-47.9,40.6-47,73.4l1.3,50.6c2-1,4.3-1.6,6.7-1.6h2.1v-17.4c0-26.6,9.3-51,24.9-70.2c0.1-0.2,0.3-0.3,0.4-0.5
						c-0.1,0.2-0.3,0.3-0.4,0.5c2,12.1,9.8,23,21.7,31.6c15.9,11.5,38.9,18.7,64.6,18.7c45,0,81.9-22.1,86.4-50.5
						c15.7,19.2,25.1,43.7,25.1,70.4v17.4h2.6c2,0,3.9,0.4,5.7,1.1l1.3-50.2C401,80.1,381.8,51.8,353.9,39.5z"/>
				</g>
				<g id="XMLID_2719_">
					<path id="XMLID_2721_" class="st23" d="M310.8,314.6c-8.1,4.2-17.3,6.6-27,6.6H276c-22.1,0-41.3-12.1-51.4-30.1
						c-26.6-15.4-46.8-41-53.6-71.9c-3-3.7-5.4-7.8-7.2-12.3c0.9,0.2,1.9,0.3,2.9,0.3h2.8c0,0,0,0,0,0.1l0.1-0.1
						c0,0,18.3,28.5,47.5,27.8c0-8.7,6.5-15.8,14.9-16.8c0.3,0.4,0.6,0.8,0.9,1.1c6.9,30.8,27,56.5,53.6,71.9
						C292.1,301.1,300.6,309.3,310.8,314.6z"/>
					<path id="XMLID_2720_" class="st23" d="M311,15.7c-18.2,4.5-33.5,12.9-43.4,23.6c-27.3,11.7-46.5,38.6-47,69.9
						c-1.8-1.1-3.5-2.2-5.1-3.4c-11.9-8.6-19.7-19.5-21.7-31.6c-15.6,19.2-24.9,43.6-24.9,70.2v17.4h-2.1c-2.4,0-4.7,0.6-6.7,1.6
						l-1.3-50.6c-0.9-32.8,18.7-61.2,47-73.4C220.8,22.9,248.4,12,280,12C290.9,12,301.3,13.3,311,15.7z"/>
				</g>
				<path id="XMLID_2718_" class="st50" d="M292.2,269.6h-22.8c-13.1,0-23.7-10.6-23.7-23.7v-4c0-4.6,3.7-8.3,8.3-8.3h53.6
					c4.6,0,8.3,3.7,8.3,8.3v4C315.9,259,305.3,269.6,292.2,269.6z"/>
				<path id="XMLID_2717_" class="st100" d="M265.3,247.2c8,8,21.1,8,29.1,0"/>
				<path id="XMLID_2772_" class="st6" d="M388.8,347.8l-49.5,70.9l-22.2,31.8l-7.4,10.6l-35,50.2h0c-6.2,0.4-12.5,0.7-18.8,0.7
					c-5.3,0-10.6-0.2-15.8-0.5h0c-7.6-0.5-15.1-1.3-22.4-2.4l112.8-161.7l13-18.6h0l5.9-8.4c0.7-1,1.5-2,2.4-2.8
					c0.1-0.2,0.3-0.3,0.5-0.4c3.9-3.6,9.1-5.4,14.2-5.2c0.5,0,1,0.1,1.5,0.1c0.2,0,0.5,0.1,0.7,0.1c1.2,0.2,2.4,0.5,3.6,0.9h0
					c1.7,0.6,3.3,1.4,4.8,2.5l0.7,0.5l6,4.2c0.3,0.2,0.5,0.4,0.8,0.6c4.4,3.4,7,8.2,7.6,13.3C392.8,338.7,391.8,343.6,388.8,347.8z"
					/>
				<path id="XMLID_2761_" class="st321" d="M377.8,315.8L377.8,315.8c-1.6,1.2-3.1,2.7-4.3,4.5l-5.9,8.4l-2.6,3.7h0L240.2,511.5h0
					c-7.6-0.5-15.1-1.3-22.4-2.4l112.8-161.7h0l13-18.6l5.9-8.4c0.7-1,1.5-2,2.4-2.8c0.1-0.2,0.3-0.3,0.5-0.4
					c3.9-3.6,9.1-5.4,14.2-5.2c0.5,0,1,0.1,1.5,0.1c0.2,0,0.5,0.1,0.7,0.1c1.2,0.2,2.4,0.5,3.6,0.9h0c1.7,0.6,3.3,1.4,4.8,2.5
					L377.8,315.8z"/>
				<path id="XMLID_2714_" class="st50" d="M377.8,471.2h-47.3c-14.5,0-26.3-11.8-26.3-26.3v0c0-14.5,11.8-26.3,26.3-26.3h47.3
					V471.2z"/>
				<path id="XMLID_2713_" class="st51" d="M377.8,454.2v17.1h-47.3c-14.5,0-26.2-11.8-26.2-26.3c0-3,0.5-5.9,1.4-8.5
					c3.5,10.3,13.3,17.7,24.8,17.7H377.8z"/>
				<path id="XMLID_2769_" class="st319" d="M449.1,424.1c-9.2,10.5-19.2,20.3-30,29.2c-1.6,1.3-3.2,2.6-4.8,3.9
					c-10.2,8-21,15.3-32.3,21.7h0c-2.3-0.4-4.1-2.5-4.1-4.9v-61.5c0-2.8,2.2-5,5-5h36.3C431.7,407.6,442.8,414.2,449.1,424.1z"/>
				<path id="XMLID_2214_" class="st320" d="M382.8,457.2h31.5c-10.2,8-21,15.3-32.3,21.7h0c-2.3-0.4-4.1-2.5-4.1-4.9v-21.8
					C377.8,455,380.1,457.2,382.8,457.2z"/>
				<path id="XMLID_2774_" class="st319" d="M146.2,487.3c-1.6-0.8-3.2-1.6-4.9-2.4c-0.2-0.1-0.5-0.2-0.7-0.3
					c-11.1-5.6-21.7-12-31.8-19.1c-11.9-8.3-23-17.7-33.2-27.9l0,0l0,0l-5.4-15.7l-0.4-1.2c-0.8-2.5,0.4-5.2,2.7-6.2
					c0.1-0.1,0.2-0.1,0.4-0.1l2.6-0.9l16.2-5.5l1.8-0.6l31.7-10.9l5.9-2c2.6-0.9,5.5,0.5,6.3,3.1l3.2,9.3l0.7,2.1l14,40.9
					C160,463.5,155.9,478,146.2,487.3z"/>
				<path id="XMLID_2209_" class="st320" d="M105.4,457.5c1,2.8,2.1,5.5,3.4,8c-11.9-8.3-23-17.7-33.2-27.9l0,0l-5.4-15.7
					c-1.1-3.1,0-6.3,2.3-7.4c0.1-0.1,0.2-0.1,0.4-0.1l2.6-0.9l16.2-5.5l1.8-0.6c-2.6,0.9-3.8,4.3-2.7,7.5L105.4,457.5z"/>
				<g id="XMLID_2699_">
					<path id="XMLID_2708_" class="st149" d="M125.9,353l-69.3,14c-7.4,1.5-14.7-3.3-16.2-10.7L13.8,224.8
						c-1.5-7.4,3.3-14.7,10.7-16.2l69.3-14c7.4-1.5,14.7,3.3,16.2,10.7l26.6,131.4C138.1,344.2,133.3,351.5,125.9,353z"/>
					<path id="XMLID_2707_" class="st42" d="M87.7,360.7L56.6,367c-7.4,1.5-14.7-3.3-16.2-10.7L13.8,224.8
						c-1.5-7.4,3.3-14.7,10.7-16.2l31.1-6.3c-7.4,1.5-12.2,8.8-10.7,16.2L71.6,350C73.1,357.4,80.3,362.2,87.7,360.7z"/>
					<g id="XMLID_2701_">
						<circle id="XMLID_2706_" class="st17" cx="75.3" cy="280.9" r="37.4"/>
						
							<ellipse id="XMLID_2704_" transform="matrix(0.9801 -0.1983 0.1983 0.9801 -54.1986 20.5102)" class="st17" cx="75.3" cy="280.9" rx="15.1" ry="37.4"/>
						<path id="XMLID_2703_" class="st17" d="M38.9,285.4c0.8,4.1,17.5,4.2,37.3,0.2s35.1-10.6,34.3-14.7"/>
					</g>
				</g>
				<path id="XMLID_2693_" class="st50" d="M75.5,413.5l-15.3-44.7c-4.7-13.7,2.6-28.6,16.3-33.3h0c13.7-4.7,28.6,2.6,33.3,16.3
					l15.3,44.7L75.5,413.5z"/>
				<path id="XMLID_2692_" class="st51" d="M91.7,407.9l-16.2,5.5l-15.3-44.7c-4.7-13.7,2.6-28.6,16.3-33.3c2.8-1,5.7-1.4,8.5-1.4
					c-8.6,6.7-12.4,18.3-8.7,29.2L91.7,407.9z"/>
			</g>
		</g>
		<path id="XMLID_1810_" class="st195" d="M315.8,37.8c8.8,4.4,21.2,13.1,28.3,29.5c1.6,3.6-2.2,7.3-5.7,5.6l0,0
			c-2.3-1.1-4.7,1.3-3.7,3.6c1.5,3.4,3.3,7.7,4.9,12.1c1.6,4.5-4.2,7.8-7.3,4.2c-8.2-9.6-20.4-20.8-33.1-22.4
			c-1.4-0.2-2.2-1.8-1.4-3c1.8-2.9,5.4-7.3,11.1-8.9c5.1-1.4,8.4-6.5,7.3-11.6c-0.4-2-1.3-4.1-2.8-6.3
			C312.2,39.1,314,36.9,315.8,37.8z"/>
	</g>
</g>
</svg>
