<?xml version="1.0" encoding="utf-8"?>
<!-- Generator: Adobe Illustrator 22.0.1, SVG Export Plug-In . SVG Version: 6.00 Build 0)  -->
<svg version="1.1" xmlns="http://www.w3.org/2000/svg" xmlns:xlink="http://www.w3.org/1999/xlink" x="0px" y="0px"
	 viewBox="0 0 512 512" style="enable-background:new 0 0 512 512;" xml:space="preserve">
<style type="text/css">
	.st0{fill:#E9B12D;}
	.st1{fill:#A9E7D8;}
	.st2{fill:#76CFB1;}
	.st3{fill:#AE6B5D;}
	.st4{fill:#7770D3;}
	.st5{fill:#5BA0F5;}
	.st6{fill:#DA4545;}
	.st7{fill:#89CCFC;}
	.st8{fill:#CD462A;}
	.st9{fill:#514896;}
	.st10{fill:#5493A0;}
	.st11{fill:#CC6B5C;}
	.st12{fill:#62AA8D;}
	.st13{fill:#8ABAAB;}
	.st14{fill:#C3791F;}
	.st15{fill:#E39123;}
	.st16{fill:#FFFFFF;}
	.st17{fill:none;stroke:#FFFFFF;stroke-width:10;stroke-linecap:round;stroke-miterlimit:10;}
	.st18{fill:none;stroke:#5F55AB;stroke-width:10;stroke-linecap:round;stroke-miterlimit:10;}
	.st19{fill:#A9671C;}
	.st20{fill:#D5B3A7;}
	.st21{fill:#C09A8F;}
	.st22{fill:#487F87;}
	.st23{fill:#1B305C;}
	.st24{fill:#172945;}
	.st25{fill:none;}
	.st26{fill:#B62A2A;}
	.st27{fill:#325859;}
	.st28{fill:#3F6E71;}
	.st29{fill:#284646;}
	.st30{fill:#8F2727;}
	.st31{fill:#29477C;}
	.st32{fill:#5B9BEE;}
	.st33{fill:#487FDE;}
	.st34{fill:#CD9829;}
	.st35{fill:#9F2A2A;}
	.st36{fill:#4C3328;}
	.st37{fill:#E8B94A;}
	.st38{fill:#DDF8F1;}
	.st39{fill:#3E2A22;}
	.st40{fill:#D3A971;}
	.st41{fill:#C79A5B;}
	.st42{fill:#233E76;}
	.st43{fill:#21395F;}
	.st44{fill:#487D82;}
	.st45{fill:none;stroke:#C79A5B;stroke-width:10;stroke-linecap:round;stroke-miterlimit:10;}
	.st46{fill:#5E3E31;}
	.st47{fill:#AC3939;}
	.st48{fill:#CA9628;}
	.st49{fill:#AF8F88;}
	.st50{fill:#815048;}
	.st51{fill:#6F4232;}
	.st52{fill:#5F55AB;}
	.st53{fill:#192A48;}
	.st54{fill:#152336;}
	.st55{fill:#192B49;}
	.st56{fill:#264173;}
	.st57{fill:#B06F1E;}
	.st58{fill:#4E88C0;}
	.st59{fill:#83C3F1;}
	.st60{fill:#CF9929;}
	.st61{fill:none;stroke:#FFFFFF;stroke-width:10;stroke-linecap:round;stroke-linejoin:round;stroke-miterlimit:10;}
	.st62{fill:#EAC262;}
	.st63{fill:#D6D5D4;}
	.st64{fill:#6BBA9B;}
	.st65{fill:#63AA8F;}
	.st66{fill:none;stroke:#3E2A22;stroke-width:10;stroke-linecap:round;stroke-miterlimit:10;}
	.st67{fill:#CA7D1F;}
	.st68{fill:#213B64;}
	.st69{fill:#CDF8EC;}
	.st70{fill:#C59125;}
	.st71{fill:none;stroke:#C09A8F;stroke-width:10;stroke-linecap:round;stroke-miterlimit:10;}
	.st72{fill:#32579B;}
	.st73{fill:#172843;}
	.st74{fill:#D66767;}
	.st75{fill:#A74949;}
	.st76{fill:#EBC76F;}
	.st77{fill:#7A4940;}
	.st78{fill:#182A48;}
	.st79{fill:none;stroke:#A0794A;stroke-width:10;stroke-linecap:round;stroke-miterlimit:10;}
	.st80{fill:#C37A20;}
	.st81{fill:#D26D5C;}
	.st82{fill:#A45752;}
	.st83{fill:#284579;}
	.st84{fill:#88C7F4;}
	.st85{fill:#6EB6F0;}
	.st86{fill:#32221E;}
	.st87{fill:#E7A6A6;}
	.st88{fill:#C59191;}
	.st89{fill:#AA3B3B;}
	.st90{fill:#B83E3E;}
	.st91{fill:none;stroke:#5F55A9;stroke-width:10;stroke-linecap:round;stroke-miterlimit:10;}
	.st92{fill:#963838;}
	.st93{fill:#402B25;}
	.st94{fill:#6B6ABA;}
	.st95{fill:#BABABA;}
	.st96{fill:#D1D1D1;}
	.st97{fill:#264377;}
	.st98{fill:#A19BF5;}
	.st99{fill:#3C2A21;}
	.st100{fill:none;stroke:#4C3328;stroke-width:10;stroke-linecap:round;stroke-miterlimit:10;}
	.st101{fill:#C1781F;}
	.st102{fill:#E3A147;}
	.st103{fill:#F2D2A1;}
	.st104{fill:#4F372D;}
	.st105{fill:none;stroke:#DA4545;stroke-width:10;stroke-linecap:round;stroke-miterlimit:10;}
	.st106{fill:#AA3928;}
	.st107{fill:#8C2C22;}
	.st108{fill:#BF4336;}
	.st109{fill:#5797D4;}
	.st110{fill:#CFCFCF;}
	.st111{fill:#613A2E;}
	.st112{fill:none;stroke:#B18653;stroke-width:10;stroke-linecap:round;stroke-miterlimit:10;}
	.st113{fill:#B13B3B;}
	.st114{fill:#16263A;}
	.st115{fill:none;stroke:#16263A;stroke-width:10;stroke-miterlimit:10;}
	.st116{fill:#C87D20;}
	.st117{fill:#E4F0FD;}
	.st118{fill:#AA3737;}
	.st119{fill:#BF771F;}
	.st120{fill:none;stroke:#CD462A;stroke-width:10;stroke-linejoin:round;stroke-miterlimit:10;}
	.st121{fill:#5696D2;}
	.st122{fill:#C0771E;}
	.st123{fill:#9B5F1B;}
	.st124{fill:#A83A29;}
	.st125{fill:#E7A74F;}
	.st126{fill:#C9924C;}
	.st127{fill:#C58E48;}
	.st128{fill:#BE8844;}
	.st129{fill:#916939;}
	.st130{fill:#264275;}
	.st131{fill:#253F65;}
	.st132{fill:#182A45;}
	.st133{fill:#162336;}
	.st134{fill:#93C7B7;}
	.st135{fill:#E6A4A4;}
	.st136{fill:#B06B1D;}
	.st137{fill:#484185;}
	.st138{fill:#DB6E6E;}
	.st139{fill:#6BBA9A;}
	.st140{fill:#CACCCC;}
	.st141{fill:#D4D4D4;}
	.st142{fill:#A98881;}
	.st143{fill:#213A62;}
	.st144{fill:#A2837D;}
	.st145{fill:#6FB8F4;}
	.st146{fill:#9B9E9E;}
	.st147{fill:#B2B3B3;}
	.st148{fill:#20385D;}
	.st149{fill:#335AA8;}
	.st150{fill:#BCE7FD;}
	.st151{fill:#3B2921;}
	.st152{fill:#AD3C3C;}
	.st153{fill:#9D3838;}
	.st154{fill:#603F33;}
	.st155{fill:#4D868B;}
	.st156{fill:#A2DDFD;}
	.st157{fill:#ECB6B6;}
	.st158{fill:#E8A346;}
	.st159{fill:#514C94;}
	.st160{fill:#D2F1E8;}
	.st161{fill:#BDD6CE;}
	.st162{fill:#B93B29;}
	.st163{fill:#E0AD70;}
	.st164{fill:#C57C21;}
	.st165{fill:#EDA34A;}
	.st166{fill:#2F538F;}
	.st167{fill:#2B4B78;}
	.st168{fill:#65AF91;}
	.st169{fill:#A7CEFC;}
	.st170{fill:#98BDE2;}
	.st171{fill:#CFE5F7;}
	.st172{fill:#5492CD;}
	.st173{fill:#97CCBC;}
	.st174{fill:#5491CA;}
	.st175{fill:#EDC563;}
	.st176{fill:#423C79;}
	.st177{fill:#D3B1A5;}
	.st178{fill:#BE988D;}
	.st179{fill:#A7E5D6;}
	.st180{fill:#F2FFF9;}
	.st181{fill:#D64545;}
	.st182{fill:#A73B3B;}
	.st183{fill:#15233A;}
	.st184{fill:none;stroke:#BE988D;stroke-width:10;stroke-linecap:round;stroke-miterlimit:10;}
	.st185{fill:#AF3A29;}
	.st186{fill:#FAF9FF;}
	.st187{fill:#CACACC;}
	.st188{fill:#372720;}
	.st189{fill:#3F2C26;}
	.st190{fill:#2D201C;}
	.st191{fill:#3D6D6F;}
	.st192{fill:#5B54A8;}
	.st193{fill:#325799;}
	.st194{fill:#E8C26E;}
	.st195{fill:#254784;}
	.st196{fill:#5696D4;}
	.st197{fill:#4F8AB6;}
	.st198{fill:#5FA4AC;}
	.st199{fill:#AA3524;}
	.st200{fill:#D15F4D;}
	.st201{fill:#2B294C;}
	.st202{fill:#A43A2A;}
	.st203{fill:#E7AE2D;}
	.st204{fill:#CD9729;}
	.st205{fill:none;stroke:#AA8253;stroke-width:10;stroke-linecap:round;stroke-miterlimit:10;}
	.st206{fill:none;stroke:#E18F23;stroke-width:10;stroke-linecap:round;stroke-linejoin:round;stroke-miterlimit:10;}
	.st207{fill:#CF9828;}
	.st208{fill:#B88926;}
	.st209{fill:#A17623;}
	.st210{fill:#96CCBC;}
	.st211{fill:#CF9A2A;}
	.st212{fill:#C57B20;}
	.st213{fill:#C7F1E6;}
	.st214{fill:#DC6363;}
	.st215{fill:#E89F9F;}
	.st216{fill:#C88C8C;}
	.st217{fill:#C16E6E;}
	.st218{fill:#A46060;}
	.st219{fill:#AA3626;}
	.st220{fill:#87EDC4;}
	.st221{fill:#D86552;}
	.st222{fill:#BC7620;}
	.st223{fill:#BA741E;}
	.st224{fill:#8F8CE3;}
	.st225{fill:#3A2820;}
	.st226{fill:#AC7060;}
	.st227{fill:#915F55;}
	.st228{fill:#49332A;}
	.st229{fill:#2D1F1B;}
	.st230{fill:#69B7BE;}
	.st231{fill:#D6D6D6;}
	.st232{fill:#B8B8B8;}
	.st233{fill:#CACACA;}
	.st234{fill:#467B80;}
	.st235{fill:#C2EDE2;}
	.st236{fill:#A9574F;}
	.st237{fill:#5595D2;}
	.st238{fill:#955949;}
	.st239{fill:#7E4B42;}
	.st240{fill:#89CCF1;}
	.st241{fill:#DD584A;}
	.st242{fill:#C18F26;}
	.st243{fill:#B33C2A;}
	.st244{fill:#D1A771;}
	.st245{fill:#B42A2A;}
	.st246{fill:#325797;}
	.st247{fill:#9F3529;}
	.st248{fill:#EDCE80;}
	.st249{fill:#F0DBAC;}
	.st250{fill:#CFB478;}
	.st251{fill:#D4C29B;}
	.st252{fill:#993939;}
	.st253{fill:#D1AFA3;}
	.st254{fill:#BC968B;}
	.st255{fill:none;stroke:#BC968B;stroke-width:10;stroke-linecap:round;stroke-miterlimit:10;}
	.st256{fill:#814C3C;}
	.st257{fill:#C0EBE0;}
	.st258{fill:#A5E3D4;}
	.st259{fill:#15243C;}
	.st260{fill:#443E79;}
	.st261{fill:#F0FFF7;}
	.st262{fill:#9A764B;}
	.st263{fill:#826443;}
	.st264{fill:#D9AA74;}
	.st265{fill:#5DA186;}
	.st266{fill:#68B596;}
	.st267{fill:#E5C6BE;}
	.st268{fill:#D3B6B1;}
	.st269{fill:none;stroke:#BAA09C;stroke-width:10;stroke-linecap:round;stroke-miterlimit:10;}
	.st270{fill:#F4D78F;}
	.st271{fill:#20385F;}
	.st272{fill:#BA8727;}
	.st273{fill:#5A9C82;}
	.st274{fill:none;stroke:#E39123;stroke-width:10;stroke-linecap:round;stroke-linejoin:round;stroke-miterlimit:10;}
	.st275{fill:#60392D;}
	.st276{fill:#CCCCCC;}
	.st277{fill:#844F3E;}
	.st278{fill:#F3FFFB;}
	.st279{fill:#365E60;}
	.st280{fill:#D84545;}
	.st281{fill:#A83B3B;}
	.st282{fill:#253F70;}
	.st283{fill:#EAADAD;}
	.st284{fill:#443E7C;}
	.st285{fill:#3D6B9F;}
	.st286{fill:#4274BC;}
	.st287{fill:#AF3827;}
	.st288{fill:#E59D9D;}
	.st289{fill:#C48989;}
	.st290{fill:none;stroke:#9B621A;stroke-width:10;stroke-linecap:round;stroke-linejoin:round;stroke-miterlimit:10;}
	.st291{fill:#213A5E;}
	.st292{fill:#2D507A;}
	.st293{fill:#528EC8;}
	.st294{fill:#EFD696;}
	.st295{fill:#D1BA87;}
	.st296{fill:#FDFCFC;}
	.st297{fill:#86CBFC;}
	.st298{fill:#7AB7DA;}
	.st299{fill:#192C4C;}
	.st300{fill:#BCBCBC;}
	.st301{fill:#A13838;}
	.st302{fill:#75BDF6;}
	.st303{fill:#D0B1AA;}
	.st304{fill:#142233;}
	.st305{fill:#E6C4BB;}
	.st306{fill:#BDBDBD;}
	.st307{fill:#E8A192;}
	.st308{fill:#A43939;}
	.st309{fill:#162640;}
	.st310{fill:#27457C;}
	.st311{fill:#EFBE5E;}
	.st312{fill:#87EDC5;}
	.st313{fill:#A03838;}
	.st314{fill:#833232;}
	.st315{fill:#47417F;}
	.st316{fill:none;stroke:#915F55;stroke-width:10;stroke-linecap:round;stroke-miterlimit:10;}
	.st317{fill:#BC8B25;}
	.st318{fill:#473129;}
	.st319{fill:#67B394;}
	.st320{fill:#599A80;}
	.st321{fill:#B13D3D;}
</style>
<g id="BULINE">
	<g>
		<circle id="XMLID_1026_" class="st5" cx="256" cy="256" r="256"/>
	</g>
</g>
<g id="Icons">
	<g id="XMLID_1027_">
		<path id="XMLID_1174_" class="st5" d="M502,327c-7.2,25.2-18.2,48.7-32.3,70c-32.8,49.6-82.4,87.1-140.7,104.4
			c-4.9,1.4-9.8,2.8-14.8,3.9c-2.8,0.7-5.7,1.3-8.6,1.8c-4.3,0.9-8.7,1.6-13.1,2.2h0c-11.9,1.7-24.1,2.6-36.4,2.6
			c-42.3,0-82.1-10.2-117.2-28.4c-4.4-2.3-8.8-4.7-13.1-7.2c-9.7-5.7-18.9-12.1-27.8-19c-6.1-4.8-12-9.9-17.6-15.2
			c-6.3-5.9-12.3-12.2-18-18.8c-5.8-6.7-11.2-13.7-16.3-21c-1.3-1.9-2.6-3.8-3.9-5.7c-0.2-0.3-0.4-0.7-0.7-1
			c-15.3-23.4-26.9-49.6-33.9-77.5c11.2-1.1,22.4-2.1,33.6-3.1c14.7-1.3,29.4-2.4,44.1-3.3c18.2-1.2,36.3-2.1,54.3-2.8
			c1.5-0.1,3.1-0.1,4.6-0.2c0.1,0,0.3,0,0.4,0c3.2-0.1,6.5-0.2,9.8-0.3c1.6,0,3.2-0.1,4.8-0.1c2.1-0.1,4.1-0.1,6.2-0.2
			c1.8-0.1,3.6-0.1,5.5-0.2c7.8-0.2,15.7-0.3,23.5-0.4c2.8,0,5.6-0.1,8.4-0.1c1.5,0,2.9,0,4.4,0c26.2-0.2,52.4,0.1,78.4,0.9
			c6.6,0.2,13.2,0.4,19.8,0.7c8.4,0.3,16.8,0.7,25.2,1.2c18.8,1,37.4,2.3,56.1,3.8c15.6,1.3,31.2,2.7,46.8,4.4
			c19.2,2,38.4,4.4,57.6,7C494.7,326,498.4,326.5,502,327z"/>
		<path id="XMLID_3818_" class="st0" d="M325.1,171.1c6.2-5.9,10.1-15,10.1-25.1c0-17.9-12.2-32.4-27.3-32.4v-5.7
			c0-55-44.6-99.6-99.6-99.6h-69.8c-55,0-99.6,44.6-99.6,99.6v5.7c-6.3,0.4-11.9,3.4-16.4,8c-0.3,0.3-0.6,0.7-0.9,1
			c-5.1,5.9-8.3,14.2-8.3,23.3c0,6.3,1.5,12.2,4.2,17.2v0c0.6,1.2,1.3,2.3,2.1,3.4c0.6,0.9,1.2,1.7,1.9,2.5c0,0,0,0,0,0
			c0.3,0.4,0.7,0.8,1,1.1c-0.6,0.9-1.2,1.8-1.7,2.8c-1.6,2.9-3.1,6.1-4.3,9.7c-0.3,0.8-0.5,1.6-0.8,2.4c-0.2,0.8-0.5,1.6-0.7,2.5
			c-1.8,6.8-2.8,14.4-2.8,22.5c0,1.6,0,3.2,0.1,4.8c0.1,1.6,0.2,3.1,0.3,4.7c0.2,2.3,0.5,4.5,0.9,6.7c0.1,0.7,0.3,1.4,0.4,2.1
			c0.3,1.4,0.6,2.8,1,4.2c0.3,1.2,0.7,2.4,1,3.5c0.4,1.4,0.9,2.8,1.5,4.2c0.4,1,0.8,2,1.3,3c1.6,3.6,3.5,6.7,5.6,9.4
			c0.3,0.3,0.5,0.6,0.8,0.9c0.8,0.9,1.6,1.7,2.4,2.4c0.4,0.3,0.7,0.7,1.1,1c2.2,1.8,4.6,3.1,7.1,3.7h0c-0.2,0.5-0.3,1.1-0.4,1.6
			c-0.4,1.6-0.7,3.3-1,5.1c-0.2,1.2-0.3,2.3-0.4,3.5c-0.1,1.2-0.1,2.4-0.1,3.7c0,10.7,3.2,20.3,8.2,26.5c-1.6,4.1-1.9,9.1-0.9,14.5
			c1.1,6.1,3.9,12.6,8.2,18.6c0.8,1,1.5,2,2.3,3c0.2,0.3,0.5,0.5,0.7,0.8c0,0,0,0,0,0c0,0,0.1,0.1,0.1,0.1c0.1,0.1,0.1,0.2,0.2,0.3
			h0c0.7,0.8,1.5,1.6,2.2,2.4c0.1,0.2,0.3,0.3,0.4,0.4c6.2,6,13.3,9.7,19.7,10.4c4.3,0.5,8.3-0.3,11.5-2.6c0.5-0.4,1-0.8,1.4-1.2
			c0.5-0.4,0.9-0.9,1.3-1.4c13.3,7.1,28.5,11.1,44.7,11.1h78.7c16.5,0,32-4.2,45.6-11.6c1.3,2.1,3.1,3.8,5.2,5
			c4.4,2.5,9.8,2.5,15.3,0.3c5.6-2.2,11.3-6.7,16.1-12.8c1.5-1.9,2.8-4,4.1-6.2c4.4-7.7,6.4-15.8,6.3-22.8c-0.1-2.7-0.4-5.3-1.2-7.6
			c5.4-6.1,9-16.1,9-27.3c0-5-0.7-9.7-1.9-13.9c13.3-3.4,23.6-24.7,23.6-50.5c0-8-1-15.6-2.8-22.3
			C330.4,181.3,328,175.7,325.1,171.1z"/>
		<path id="XMLID_1056_" class="st60" d="M147.5,351.9c-4.7-1.6-9.2-3.6-13.5-5.9c-0.8,1-1.7,1.8-2.7,2.6c-9.7,7-26.4,0.3-37.3-14.8
			c-0.9-1.3-1.8-2.6-2.5-3.9c-1.7-2.9-3.1-5.8-4.1-8.7c0,0,0,0,0,0c-1.1-3.2-1.8-6.3-2.1-9.3c-0.4-4.1,0.1-8,1.3-11.2
			c-5-6.2-8.2-15.8-8.2-26.5c0-5,0.7-9.7,1.9-13.9c-13.3-3.4-23.6-24.7-23.6-50.5c0-16.2,4-30.5,10.3-39.9
			c-5.6-5.9-9.2-14.6-9.2-24.2c0-16.8,10.8-30.6,24.5-32.2h0c0,0,0-0.1,0-0.1c0.2-0.4,0.3-0.8,0.5-1.2c0.2-0.4,0.4-0.9,0.6-1.3v-3.3
			c0-20,5.9-38.6,16-54.2C117.3,26.1,148.1,8,183.1,8h-44.5C83.6,8,39,52.6,39,107.6v5.7c-6.3,0.4-11.9,3.4-16.4,8
			c-0.3,0.3-0.6,0.7-0.9,1c-5.1,5.9-8.3,14.2-8.3,23.3c0,6.3,1.5,12.2,4.2,17.2v0c0.6,1.2,1.3,2.3,2.1,3.4c0.6,0.9,1.2,1.7,1.9,2.5
			c0,0,0,0,0,0c0.3,0.4,0.7,0.8,1,1.1c-0.6,0.9-1.2,1.8-1.7,2.8c-1.6,2.9-3.1,6.1-4.3,9.7c-0.3,0.8-0.5,1.6-0.8,2.4
			c-0.2,0.8-0.5,1.6-0.7,2.5c-1.8,6.8-2.8,14.4-2.8,22.5c0,1.6,0,3.2,0.1,4.8c0.1,1.6,0.2,3.1,0.3,4.7c0.2,2.3,0.5,4.5,0.9,6.7
			c0.1,0.7,0.3,1.4,0.4,2.1c0.3,1.4,0.6,2.8,1,4.2c0.3,1.2,0.7,2.4,1,3.5c0.4,1.4,0.9,2.8,1.5,4.2c0.4,1,0.8,2,1.3,3
			c1.6,3.6,3.5,6.7,5.6,9.4c0.3,0.3,0.5,0.6,0.8,0.9c0.8,0.9,1.6,1.7,2.4,2.4c0.4,0.3,0.7,0.7,1.1,1c2.2,1.8,4.6,3.1,7.1,3.7
			c-0.1,0.5-0.3,1.1-0.4,1.6c-0.4,1.6-0.7,3.3-1,5.1c-0.2,1.2-0.3,2.3-0.4,3.5c-0.1,1.2-0.1,2.4-0.1,3.7c0,10.7,3.2,20.3,8.2,26.5
			c-1.6,4.1-1.9,9.1-0.9,14.5c1.1,6.1,3.9,12.6,8.2,18.6c0.8,1,1.5,2,2.3,3c0.2,0.3,0.5,0.5,0.7,0.8c0,0,0,0,0,0
			c0,0,0.1,0.1,0.1,0.1c0.1,0.1,0.2,0.2,0.2,0.3c0.7,0.8,1.5,1.6,2.2,2.4c0.1,0.2,0.3,0.3,0.4,0.4c6.2,6,13.3,9.7,19.7,10.4
			c4.3,0.5,8.3-0.3,11.5-2.6c0.5-0.4,1-0.8,1.4-1.2c0.5-0.4,0.9-0.9,1.3-1.4c13.3,7.1,28.5,11.1,44.7,11.1h44.5
			c-1.7,0-3.4-0.1-5.1-0.1C164.4,356.5,155.7,354.8,147.5,351.9z"/>
		<path id="XMLID_1055_" class="st20" d="M181.2,340.5h-14.9c-11.9,0-21.6-9.7-21.6-21.6v-35.6c0-11.9,9.7-21.6,21.6-21.6h14.9
			c11.9,0,21.6,9.7,21.6,21.6v35.6C202.8,330.8,193.1,340.5,181.2,340.5z"/>
		<path id="XMLID_1054_" class="st21" d="M183.9,340.3c-1,0.2-2.1,0.2-3.1,0.2h-14.9c-11.9,0-21.6-9.7-21.6-21.6v-35.6
			c0-11.9,9.7-21.6,21.6-21.6h14.9c1.1,0,2.1,0.1,3.1,0.2c-10.5,1.5-18.5,10.5-18.5,21.4v35.6C165.4,329.7,173.4,338.8,183.9,340.3z
			"/>
		<path id="XMLID_1157_" class="st6" d="M305.5,367.5v139.7c-4.3,0.9-8.7,1.6-13.1,2.2h0c-11.9,1.7-24.1,2.6-36.4,2.6
			c-42.3,0-82.1-10.2-117.2-28.4c-4.4-2.3-8.8-4.7-13.1-7.2c-9.7-5.7-18.9-12.1-27.8-19c-6.1-4.8-12-9.9-17.6-15.2
			c-6.3-5.9-12.3-12.2-18-18.8c-5.8-6.7-11.2-13.7-16.3-21c-1.3-1.9-2.6-3.8-3.9-5.7c-0.2-0.3-0.4-0.7-0.7-1v-28.3
			c0-11.4,4.1-21.8,10.9-29.9c0,0,0,0,0,0c8.4-9.9,20.9-16.3,34.9-16.4c0.2,0,0.3,0,0.5,0h51.8v-15.4c0-2.6,2.1-4.7,4.6-4.7h58.2
			c0.1,0,0.2,0,0.3,0c2.4,0.2,4.4,2.2,4.4,4.7v15.4h52.1c8.4,0,16.2,2.2,23,6.1c4.9,2.8,9.2,6.5,12.8,10.8
			C301.5,346,305.5,356.3,305.5,367.5z"/>
		<path id="XMLID_1052_" class="st61" d="M159.2,308.1v13.1c0,15.7-8,30.4-21.3,38.8l-41.6,26.4c-9.9,6.3-15.9,17.2-15.9,29l0,0"/>
		<line id="XMLID_1081_" class="st17" x1="80.3" y1="442.2" x2="80.3" y2="441.1"/>
		<path id="XMLID_1050_" class="st61" d="M187.8,308.1v13.1c0,15.7,8,30.4,21.3,38.8l41.6,26.4c9.9,6.3,15.9,17.2,15.9,29l0,0"/>
		<line id="XMLID_1049_" class="st17" x1="266.6" y1="441.1" x2="266.6" y2="505.3"/>
		<line id="XMLID_1048_" class="st61" x1="173.5" y1="352.1" x2="173.5" y2="418.4"/>
		<path id="XMLID_1047_" class="st20" d="M239.1,153.7c-13.2-35.4-58.4-32.4-58.4-32.4c-38.6-9.1-53.9-27.6-60.1-41
			c-11.4,16.9-18.1,37.2-18.1,59.1v47.7c0,51.9,37.4,95,86.7,103.9c37.7-6.8,68.5-33.6,80.8-69c-2.1-3.8-4.7-7.4-7.8-10.7
			C237.6,185.1,239.1,153.7,239.1,153.7z"/>
		<path id="XMLID_1046_" class="st21" d="M102.5,187.1v-47.7c0-21.9,6.7-42.2,18.1-59.1c0-0.1-0.1-0.2-0.1-0.3
			c-3.1-7-12.4-8.2-17.3-2.3C88.9,95.3,67.8,132.1,65.5,199c0,0,0,0,0,0c1,9,3.2,17.7,6.3,25.8c0,0.1,0,0.1,0.1,0.2
			c0.3,0.7,0.5,1.4,0.8,2c0,0.1,0.1,0.2,0.1,0.3c0.3,0.6,0.5,1.3,0.8,1.9c0,0.1,0.1,0.2,0.1,0.3c0.3,0.6,0.6,1.3,0.8,1.9
			c0.1,0.1,0.1,0.2,0.2,0.3c0.3,0.6,0.6,1.2,0.9,1.8c0.1,0.1,0.1,0.2,0.2,0.3c0.3,0.6,0.6,1.2,0.9,1.8c0,0.1,0.1,0.2,0.1,0.3
			c0.3,0.6,0.7,1.3,1,1.9c0,0.1,0.1,0.1,0.1,0.2c2.2,4,4.7,7.9,7.4,11.6c0.1,0.1,0.1,0.2,0.2,0.3c0.4,0.5,0.7,1,1.1,1.5
			c0.1,0.2,0.3,0.3,0.4,0.5c0.3,0.4,0.7,0.9,1,1.3c0.2,0.2,0.3,0.4,0.5,0.6c0.3,0.4,0.7,0.8,1,1.2c0.2,0.2,0.4,0.4,0.6,0.7
			c0.3,0.4,0.7,0.8,1,1.1c0.2,0.2,0.4,0.5,0.6,0.7c0.3,0.4,0.7,0.7,1,1.1c0.2,0.2,0.5,0.5,0.7,0.7c0.3,0.3,0.6,0.7,1,1
			c0.2,0.3,0.5,0.5,0.7,0.7c0.3,0.3,0.6,0.7,1,1c0.3,0.3,0.5,0.5,0.8,0.8c0.3,0.3,0.6,0.6,1,0.9c0.3,0.3,0.6,0.5,0.8,0.8
			c0.3,0.3,0.6,0.6,1,0.9c0.3,0.3,0.6,0.5,0.9,0.8c0.3,0.3,0.6,0.5,0.9,0.8c0.3,0.3,0.7,0.6,1,0.9c0.3,0.2,0.6,0.5,0.8,0.7
			c0.5,0.4,1,0.9,1.6,1.3c0.2,0.2,0.4,0.3,0.6,0.5c0.6,0.4,1.1,0.9,1.7,1.3c0.2,0.2,0.4,0.3,0.7,0.5c0.4,0.3,0.9,0.6,1.3,1
			c0.2,0.2,0.5,0.3,0.7,0.5c0.4,0.3,0.9,0.6,1.3,0.9c0.3,0.2,0.5,0.4,0.8,0.5c0.4,0.3,0.8,0.6,1.3,0.8c0.3,0.2,0.5,0.3,0.8,0.5
			c0.4,0.3,0.9,0.5,1.3,0.8c0.3,0.2,0.5,0.3,0.8,0.5c0.4,0.3,0.9,0.5,1.3,0.8c0.3,0.2,0.5,0.3,0.8,0.5c0.5,0.3,0.9,0.5,1.4,0.8
			c0.3,0.1,0.5,0.3,0.8,0.4c0.5,0.3,0.9,0.5,1.4,0.7c0.3,0.1,0.5,0.3,0.8,0.4c0.5,0.3,1,0.5,1.5,0.7c0.2,0.1,0.5,0.2,0.7,0.4
			c0.5,0.3,1.1,0.5,1.6,0.7c0.2,0.1,0.4,0.2,0.7,0.3c0.6,0.3,1.2,0.5,1.7,0.8c0.2,0.1,0.4,0.2,0.5,0.2c0.7,0.3,1.4,0.6,2,0.8
			c0.1,0,0.2,0.1,0.3,0.1c2.4,0.9,4.8,1.8,7.3,2.6c0.1,0,0.1,0,0.2,0.1c0.7,0.2,1.5,0.4,2.2,0.7c0.2,0,0.3,0.1,0.5,0.1
			c0.7,0.2,1.3,0.4,2,0.5c0.2,0.1,0.4,0.1,0.6,0.2c0.6,0.2,1.2,0.3,1.9,0.5c0.2,0.1,0.5,0.1,0.7,0.2c0.6,0.1,1.2,0.3,1.8,0.4
			c0.2,0.1,0.5,0.1,0.7,0.1c0.6,0.1,1.2,0.2,1.8,0.3c0.2,0,0.5,0.1,0.7,0.1c0.6,0.1,1.2,0.2,1.8,0.3c0.2,0,0.5,0.1,0.7,0.1
			c0.6,0.1,1.2,0.2,1.8,0.3c0.2,0,0.5,0.1,0.7,0.1c0.6,0.1,1.3,0.2,1.9,0.2c0.2,0,0.4,0,0.7,0.1c0.7,0.1,1.4,0.1,2,0.2
			c0.2,0,0.4,0,0.6,0c0.8,0.1,1.5,0.1,2.3,0.1c0.1,0,0.2,0,0.3,0c1.8,0.1,3.6,0.1,5.4,0.1h0c0.1,0,0.2,0,0.2,0c1.4,0,2.8,0,4.2-0.1
			c0.2,0,0.4,0,0.5,0c1.4-0.1,2.8-0.2,4.2-0.3c0.2,0,0.4,0,0.6-0.1c1.4-0.1,2.7-0.3,4.1-0.5c0.2,0,0.4-0.1,0.6-0.1
			c1.4-0.2,2.7-0.4,4-0.6c0.1,0,0.2,0,0.3-0.1C139.9,282.1,102.5,239,102.5,187.1z"/>
		<circle id="XMLID_1045_" class="st23" cx="121.9" cy="170.4" r="14.5"/>
		<circle id="XMLID_1044_" class="st16" cx="125.7" cy="165.7" r="6.4"/>
		<circle id="XMLID_1043_" class="st23" cx="223.5" cy="170.4" r="14.5"/>
		<circle id="XMLID_1042_" class="st16" cx="227.2" cy="165.7" r="6.4"/>
		<path id="XMLID_1040_" class="st21" d="M180,203.6H167c-4.3,0-7.8-3.5-7.8-7.8v0c0-4.3,3.5-7.8,7.8-7.8H180c4.3,0,7.8,3.5,7.8,7.8
			v0C187.8,200.1,184.3,203.6,180,203.6z"/>
		<path id="XMLID_1039_" class="st36" d="M202.1,221.5c1.5,0,2.8,1.2,2.8,2.8l0,0c0,2.8-0.4,5.6-1.1,8.2c-1.6,6.1-5.1,11.4-9.7,15.4
			c-5.5,4.8-12.7,7.7-20.6,7.7s-15.1-2.9-20.6-7.7c-4.6-4-8-9.4-9.7-15.4c-0.7-2.6-1.1-5.4-1.1-8.2l0,0c0-1.5,1.2-2.8,2.8-2.8H202.1
			z"/>
		<path id="XMLID_1038_" class="st26" d="M194.1,247.9c-5.5,4.8-12.7,7.7-20.6,7.7s-15.1-2.9-20.6-7.7c5.5-4.8,12.7-7.7,20.6-7.7
			S188.6,243.1,194.1,247.9z"/>
		<path id="XMLID_1037_" class="st16" d="M202.1,221.5c1.5,0,2.8,1.2,2.8,2.8l0,0c0,2.8-0.4,5.6-1.1,8.2h-60.6
			c-0.7-2.6-1.1-5.4-1.1-8.2l0,0c0-1.5,1.2-2.8,2.8-2.8H202.1z"/>
		<path id="XMLID_1036_" class="st62" d="M248.3,45.8c11.2,5.1,35.1,18.8,46.7,47.1c0.8,2-0.8,4.1-2.9,3.8l-13.3-1.9
			c-1.8-0.3-3.4,1.3-3.1,3.2l2.5,15.9c0.5,2.8-3.2,4.4-4.9,2.1c-9.3-12.3-27.7-31.9-51.3-35.2c-2.3-0.3-3.2-3.1-1.6-4.7
			c4-3.9,11.3-9.1,21.4-8.6c1.4,0.1,2.6-0.9,2.9-2.2c0.7-3.4,1.5-9.9-0.1-16.2C243.9,46.8,246.2,44.9,248.3,45.8z"/>
		<path id="XMLID_1116_" class="st16" d="M491,325.5c-0.3,1.5-0.7,3.1-1.1,4.6c-5.7,23.6-12.5,46-20.3,66.9
			c-32.8,49.6-82.4,87.1-140.7,104.4c-4.9,1.4-9.8,2.8-14.8,3.9c-2.8,0.7-5.7,1.3-8.6,1.8c-4.3,0.9-8.7,1.6-13.1,2.2
			c0-0.1-0.1-0.2-0.1-0.3c-1.1-2.6-2.2-5.2-3.3-8c-0.2-0.6-0.4-1.1-0.6-1.7c-0.1-0.4-0.3-0.7-0.4-1.1c-0.2-0.6-0.4-1.2-0.6-1.7
			c-0.8-2.5-1.6-5-2.4-7.6c-0.2-0.8-0.5-1.6-0.7-2.4c-0.7-2.7-1.4-5.5-2.1-8.3c-0.2-0.7-0.3-1.4-0.5-2.1c-0.3-1.3-0.6-2.6-0.8-3.8
			c-0.1-0.7-0.3-1.3-0.4-2c-0.2-1.1-0.4-2.2-0.6-3.4c-0.2-1.2-0.4-2.3-0.6-3.5c-0.1-0.6-0.2-1.2-0.3-1.8c0-0.2-0.1-0.4-0.1-0.6
			c-0.2-1-0.3-2-0.4-3c-0.1-1-0.3-2.1-0.4-3.1c-0.1-0.2-0.1-0.5-0.1-0.8c-0.1-0.4-0.1-0.8-0.1-1.2c-0.1-0.4-0.1-0.8-0.1-1.2
			c-0.3-2.1-0.5-4.2-0.7-6.3c-0.1-0.9-0.2-1.9-0.3-2.8c-0.1-0.7-0.1-1.5-0.2-2.2c-0.1-0.9-0.2-1.9-0.2-2.8c0-0.4-0.1-0.7-0.1-1.1
			c-0.1-1-0.2-2-0.2-3c-0.1-1.2-0.2-2.3-0.2-3.5c-0.1-1-0.1-2-0.2-3.1c0-0.7-0.1-1.5-0.1-2.2c0-0.8-0.1-1.7-0.1-2.6
			c0-1-0.1-1.9-0.1-2.9c0-1-0.1-2-0.1-3c0-0.3,0-0.6,0-1c0-2.3-0.1-4.7-0.1-7c0-18.2,1.2-37.5,3.6-57.6c0.9-7.7,2-15.6,3.3-23.6
			c1-6.2,2.1-12.5,3.4-18.9c1.7-8.6,3.6-17.3,5.7-26.1c8.5-35.2,23.4-67,40.8-94.8c29.8-47.6,66.9-83.3,91.2-103.9
			c4.9-4.1,10.5-6.2,15.9-6.4c9.8-0.4,19.3,5.3,23.7,15.9c0.3,0.8,0.7,1.7,1.1,2.6c0.1,0.1,0.1,0.2,0.2,0.4c3,7.3,6.2,15.6,9.4,24.9
			c2.6,7.5,5.2,15.5,7.7,24.1c3.8,12.9,7.2,27,10.1,42C499.1,228.6,501.9,276.9,491,325.5z"/>
		<path id="XMLID_1103_" class="st63" d="M464.1,96c-1.6,1.4-3.2,2.8-4.9,4.2c-39.6,34.9-103.1,102.5-124.7,192.4
			c-1.4,5.9-2.8,11.8-4,17.6c-10.2,48.7-13.7,94.9-11.1,134.1c1.3,19.7,4.1,37.6,8.4,53.2c0.4,1.3,0.7,2.6,1.1,3.9
			c-4.9,1.4-9.8,2.8-14.8,3.9c-2.8,0.7-5.7,1.3-8.6,1.8c-4.3,0.9-8.7,1.6-13.1,2.2h0c0-0.1-0.1-0.2-0.1-0.3c-1.1-2.6-2.2-5.2-3.3-8
			c-0.2-0.6-0.4-1.1-0.6-1.7c-0.1-0.4-0.3-0.7-0.4-1.1c-0.2-0.6-0.4-1.2-0.6-1.7c-0.8-2.5-1.6-5-2.4-7.6c-0.2-0.8-0.5-1.6-0.7-2.4
			c-0.7-2.7-1.4-5.5-2.1-8.3c-0.2-0.7-0.3-1.4-0.5-2.1c-0.3-1.3-0.6-2.6-0.8-3.8c-0.1-0.7-0.3-1.3-0.4-2c-0.2-1.1-0.4-2.2-0.6-3.4
			c-0.2-1.2-0.4-2.3-0.6-3.5c-0.1-0.6-0.2-1.2-0.3-1.8c0-0.2-0.1-0.4-0.1-0.6c-0.2-1-0.3-2-0.4-3c-0.1-1-0.3-2.1-0.4-3.1
			c0-0.2-0.1-0.5-0.1-0.8c-0.1-0.4-0.1-0.8-0.2-1.2c-0.1-0.4-0.1-0.8-0.1-1.2c-0.2-2.1-0.5-4.2-0.7-6.3c-0.1-0.9-0.2-1.9-0.3-2.8
			c-0.1-0.7-0.1-1.5-0.2-2.2c-0.1-0.9-0.2-1.9-0.2-2.8c0-0.4-0.1-0.7-0.1-1.1c-0.1-1-0.2-2-0.2-3c-0.1-1.2-0.2-2.3-0.2-3.5
			c-0.1-1-0.1-2-0.2-3.1c0-0.7-0.1-1.5-0.1-2.2c0-0.8-0.1-1.7-0.1-2.6c0-1-0.1-1.9-0.1-2.9c0-1-0.1-2-0.1-3c0-0.3,0-0.6,0-1
			c0-2.3-0.1-4.7-0.1-7c0-18.2,1.2-37.5,3.6-57.6c0.9-7.7,2-15.6,3.3-23.6c1-6.2,2.1-12.5,3.4-18.9c1.7-8.6,3.6-17.3,5.7-26.1
			c8.5-35.2,23.4-67,40.8-94.8c29.8-47.6,66.9-83.3,91.2-103.9c4.9-4.1,10.5-6.2,15.9-6.4c9.8-0.4,19.3,5.3,23.7,15.9
			c0.3,0.8,0.7,1.7,1.1,2.6C464,95.8,464.1,95.9,464.1,96z"/>
		<path id="XMLID_1080_" class="st52" d="M491.2,187c-47.7,63.9-57.7,131.2-57.7,131.2c0,0.1,0,0.1,0,0.2
			C414.2,421,368,472.1,327.8,497.5c-4.7,2.9-9.2,5.6-13.7,7.8c-2.8,0.7-5.7,1.3-8.6,1.8c-4.3,0.9-8.7,1.6-13.1,2.2
			c0-0.1-0.1-0.2-0.1-0.3c-1.1-2.6-2.2-5.2-3.3-8c-0.2-0.6-0.4-1.1-0.6-1.7c-0.1-0.4-0.3-0.7-0.4-1.1c-0.2-0.6-0.4-1.2-0.6-1.7
			c-0.8-2.5-1.6-5-2.4-7.6c-0.2-0.8-0.5-1.6-0.7-2.4c-0.7-2.7-1.4-5.5-2.1-8.3c-0.2-0.7-0.3-1.4-0.5-2.1c-0.3-1.3-0.6-2.6-0.8-3.8
			c-0.1-0.7-0.3-1.3-0.4-2c-0.2-1.1-0.4-2.2-0.6-3.4c-0.2-1.2-0.4-2.3-0.6-3.5h0c9.5-2.4,18.1-5.9,26.1-10.2
			c2.3-1.2,4.5-2.6,6.6-3.9h0c2.5-1.6,4.9-3.3,7.3-5.1c45.3-34.2,61.7-97.9,67.2-130.3c2.1-12.2,2.7-19.9,2.7-19.9
			c7.6-69.5,62.6-124.4,91.9-149.1C484.9,158,488.4,172.1,491.2,187z"/>
		<path id="XMLID_1089_" class="st26" d="M209,419.7v47.8c0,4.9-4,8.9-8.9,8.9h-74.4c-9.7-5.7-18.9-12.1-27.8-19
			c-6.1-4.8-12-9.9-17.6-15.2c-6.3-5.9-12.3-12.2-18-18.8c-5.8-6.7-11.2-13.7-16.3-21c-1.3-1.9-2.6-3.8-3.9-5.7v-29.3
			c0-11.2,4-21.5,10.6-29.5h0c8.3-10,20.6-16.5,34.6-16.8c0.4,0,0.8,0,1.1,0h30.1c-10.1,0-19.5,3.2-27.1,8.8
			c-7.3,5.3-13,12.7-16.3,21.3c-1.9,5.1-2.9,10.5-2.9,16.2V388c0,7.6,3.7,14.3,9.4,18.4c3.8,2.8,8.4,4.4,13.5,4.4h105.1
			C205,410.8,209,414.8,209,419.7z"/>
		<path id="XMLID_1029_" class="st20" d="M285.8,416.4h-30.7c-3.3,0-6.1,2-7.2,4.9H209v44.2h38.9c1.1,2.9,3.9,4.9,7.2,4.9h30.7
			c14.9,0,27-12.1,27-27v0C312.8,428.5,300.7,416.4,285.8,416.4z"/>
		<path id="XMLID_1028_" class="st21" d="M312.8,443.4c0,14.9-12.1,27-27,27h-30.7c-3.3,0-6.1-2-7.2-4.9H209v-16.2h38.9
			c1.1,2.9,3.9,4.9,7.2,4.9h30.7c12.1,0,22.3-7.9,25.8-18.9C312.4,437.9,312.8,440.6,312.8,443.4z"/>
	</g>
</g>
</svg>
