<?xml version="1.0" encoding="utf-8"?>
<!-- Generator: Adobe Illustrator 22.0.1, SVG Export Plug-In . SVG Version: 6.00 Build 0)  -->
<svg version="1.1" xmlns="http://www.w3.org/2000/svg" xmlns:xlink="http://www.w3.org/1999/xlink" x="0px" y="0px"
	 viewBox="0 0 512 512" style="enable-background:new 0 0 512 512;" xml:space="preserve">
<style type="text/css">
	.st0{fill:#E9B12D;}
	.st1{fill:#A9E7D8;}
	.st2{fill:#76CFB1;}
	.st3{fill:#AE6B5D;}
	.st4{fill:#7770D3;}
	.st5{fill:#5BA0F5;}
	.st6{fill:#DA4545;}
	.st7{fill:#89CCFC;}
	.st8{fill:#CD462A;}
	.st9{fill:#514896;}
	.st10{fill:#5493A0;}
	.st11{fill:#CC6B5C;}
	.st12{fill:#62AA8D;}
	.st13{fill:#8ABAAB;}
	.st14{fill:#C3791F;}
	.st15{fill:#E39123;}
	.st16{fill:#FFFFFF;}
	.st17{fill:none;stroke:#FFFFFF;stroke-width:10;stroke-linecap:round;stroke-miterlimit:10;}
	.st18{fill:none;stroke:#5F55AB;stroke-width:10;stroke-linecap:round;stroke-miterlimit:10;}
	.st19{fill:#A9671C;}
	.st20{fill:#D5B3A7;}
	.st21{fill:#C09A8F;}
	.st22{fill:#487F87;}
	.st23{fill:#1B305C;}
	.st24{fill:#172945;}
	.st25{fill:none;}
	.st26{fill:#B62A2A;}
	.st27{fill:#325859;}
	.st28{fill:#3F6E71;}
	.st29{fill:#284646;}
	.st30{fill:#8F2727;}
	.st31{fill:#29477C;}
	.st32{fill:#5B9BEE;}
	.st33{fill:#487FDE;}
	.st34{fill:#CD9829;}
	.st35{fill:#9F2A2A;}
	.st36{fill:#4C3328;}
	.st37{fill:#E8B94A;}
	.st38{fill:#DDF8F1;}
	.st39{fill:#3E2A22;}
	.st40{fill:#D3A971;}
	.st41{fill:#C79A5B;}
	.st42{fill:#233E76;}
	.st43{fill:#21395F;}
	.st44{fill:#487D82;}
	.st45{fill:none;stroke:#C79A5B;stroke-width:10;stroke-linecap:round;stroke-miterlimit:10;}
	.st46{fill:#5E3E31;}
	.st47{fill:#AC3939;}
	.st48{fill:#CA9628;}
	.st49{fill:#AF8F88;}
	.st50{fill:#815048;}
	.st51{fill:#6F4232;}
	.st52{fill:#5F55AB;}
	.st53{fill:#192A48;}
	.st54{fill:#152336;}
	.st55{fill:#192B49;}
	.st56{fill:#264173;}
	.st57{fill:#B06F1E;}
	.st58{fill:#4E88C0;}
	.st59{fill:#83C3F1;}
	.st60{fill:#CF9929;}
	.st61{fill:none;stroke:#FFFFFF;stroke-width:10;stroke-linecap:round;stroke-linejoin:round;stroke-miterlimit:10;}
	.st62{fill:#EAC262;}
	.st63{fill:#D6D5D4;}
	.st64{fill:#6BBA9B;}
	.st65{fill:#63AA8F;}
	.st66{fill:none;stroke:#3E2A22;stroke-width:10;stroke-linecap:round;stroke-miterlimit:10;}
	.st67{fill:#CA7D1F;}
	.st68{fill:#213B64;}
	.st69{fill:#CDF8EC;}
	.st70{fill:#C59125;}
	.st71{fill:none;stroke:#C09A8F;stroke-width:10;stroke-linecap:round;stroke-miterlimit:10;}
	.st72{fill:#32579B;}
	.st73{fill:#172843;}
	.st74{fill:#D66767;}
	.st75{fill:#A74949;}
	.st76{fill:#EBC76F;}
	.st77{fill:#7A4940;}
	.st78{fill:#182A48;}
	.st79{fill:none;stroke:#A0794A;stroke-width:10;stroke-linecap:round;stroke-miterlimit:10;}
	.st80{fill:#C37A20;}
	.st81{fill:#D26D5C;}
	.st82{fill:#A45752;}
	.st83{fill:#284579;}
	.st84{fill:#88C7F4;}
	.st85{fill:#6EB6F0;}
	.st86{fill:#32221E;}
	.st87{fill:#E7A6A6;}
	.st88{fill:#C59191;}
	.st89{fill:#AA3B3B;}
	.st90{fill:#B83E3E;}
	.st91{fill:none;stroke:#5F55A9;stroke-width:10;stroke-linecap:round;stroke-miterlimit:10;}
	.st92{fill:#963838;}
	.st93{fill:#402B25;}
	.st94{fill:#6B6ABA;}
	.st95{fill:#BABABA;}
	.st96{fill:#D1D1D1;}
	.st97{fill:#264377;}
	.st98{fill:#A19BF5;}
	.st99{fill:#3C2A21;}
	.st100{fill:none;stroke:#4C3328;stroke-width:10;stroke-linecap:round;stroke-miterlimit:10;}
	.st101{fill:#C1781F;}
	.st102{fill:#E3A147;}
	.st103{fill:#F2D2A1;}
	.st104{fill:#4F372D;}
	.st105{fill:none;stroke:#DA4545;stroke-width:10;stroke-linecap:round;stroke-miterlimit:10;}
	.st106{fill:#AA3928;}
	.st107{fill:#8C2C22;}
	.st108{fill:#BF4336;}
	.st109{fill:#5797D4;}
	.st110{fill:#CFCFCF;}
	.st111{fill:#613A2E;}
	.st112{fill:none;stroke:#B18653;stroke-width:10;stroke-linecap:round;stroke-miterlimit:10;}
	.st113{fill:#B13B3B;}
	.st114{fill:#16263A;}
	.st115{fill:none;stroke:#16263A;stroke-width:10;stroke-miterlimit:10;}
	.st116{fill:#C87D20;}
	.st117{fill:#E4F0FD;}
	.st118{fill:#AA3737;}
	.st119{fill:#BF771F;}
	.st120{fill:none;stroke:#CD462A;stroke-width:10;stroke-linejoin:round;stroke-miterlimit:10;}
	.st121{fill:#5696D2;}
	.st122{fill:#C0771E;}
	.st123{fill:#9B5F1B;}
	.st124{fill:#A83A29;}
	.st125{fill:#E7A74F;}
	.st126{fill:#C9924C;}
	.st127{fill:#C58E48;}
	.st128{fill:#BE8844;}
	.st129{fill:#916939;}
	.st130{fill:#264275;}
	.st131{fill:#253F65;}
	.st132{fill:#182A45;}
	.st133{fill:#162336;}
	.st134{fill:#93C7B7;}
	.st135{fill:#E6A4A4;}
	.st136{fill:#B06B1D;}
	.st137{fill:#484185;}
	.st138{fill:#DB6E6E;}
	.st139{fill:#6BBA9A;}
	.st140{fill:#CACCCC;}
	.st141{fill:#D4D4D4;}
	.st142{fill:#A98881;}
	.st143{fill:#213A62;}
	.st144{fill:#A2837D;}
	.st145{fill:#6FB8F4;}
	.st146{fill:#9B9E9E;}
	.st147{fill:#B2B3B3;}
	.st148{fill:#20385D;}
	.st149{fill:#335AA8;}
	.st150{fill:#BCE7FD;}
	.st151{fill:#3B2921;}
	.st152{fill:#AD3C3C;}
	.st153{fill:#9D3838;}
	.st154{fill:#603F33;}
	.st155{fill:#4D868B;}
	.st156{fill:#A2DDFD;}
	.st157{fill:#ECB6B6;}
	.st158{fill:#E8A346;}
	.st159{fill:#514C94;}
	.st160{fill:#D2F1E8;}
	.st161{fill:#BDD6CE;}
	.st162{fill:#B93B29;}
	.st163{fill:#E0AD70;}
	.st164{fill:#C57C21;}
	.st165{fill:#EDA34A;}
	.st166{fill:#2F538F;}
	.st167{fill:#2B4B78;}
	.st168{fill:#65AF91;}
	.st169{fill:#A7CEFC;}
	.st170{fill:#98BDE2;}
	.st171{fill:#CFE5F7;}
	.st172{fill:#5492CD;}
	.st173{fill:#97CCBC;}
	.st174{fill:#5491CA;}
	.st175{fill:#EDC563;}
	.st176{fill:#423C79;}
	.st177{fill:#D3B1A5;}
	.st178{fill:#BE988D;}
	.st179{fill:#A7E5D6;}
	.st180{fill:#F2FFF9;}
	.st181{fill:#D64545;}
	.st182{fill:#A73B3B;}
	.st183{fill:#15233A;}
	.st184{fill:none;stroke:#BE988D;stroke-width:10;stroke-linecap:round;stroke-miterlimit:10;}
	.st185{fill:#AF3A29;}
	.st186{fill:#FAF9FF;}
	.st187{fill:#CACACC;}
	.st188{fill:#372720;}
	.st189{fill:#3F2C26;}
	.st190{fill:#2D201C;}
	.st191{fill:#3D6D6F;}
	.st192{fill:#5B54A8;}
	.st193{fill:#325799;}
	.st194{fill:#E8C26E;}
	.st195{fill:#254784;}
	.st196{fill:#5696D4;}
	.st197{fill:#4F8AB6;}
	.st198{fill:#5FA4AC;}
	.st199{fill:#AA3524;}
	.st200{fill:#D15F4D;}
	.st201{fill:#2B294C;}
	.st202{fill:#A43A2A;}
	.st203{fill:#E7AE2D;}
	.st204{fill:#CD9729;}
	.st205{fill:none;stroke:#AA8253;stroke-width:10;stroke-linecap:round;stroke-miterlimit:10;}
	.st206{fill:none;stroke:#E18F23;stroke-width:10;stroke-linecap:round;stroke-linejoin:round;stroke-miterlimit:10;}
	.st207{fill:#CF9828;}
	.st208{fill:#B88926;}
	.st209{fill:#A17623;}
	.st210{fill:#96CCBC;}
	.st211{fill:#CF9A2A;}
	.st212{fill:#C57B20;}
	.st213{fill:#C7F1E6;}
	.st214{fill:#DC6363;}
	.st215{fill:#E89F9F;}
	.st216{fill:#C88C8C;}
	.st217{fill:#C16E6E;}
	.st218{fill:#A46060;}
	.st219{fill:#AA3626;}
	.st220{fill:#87EDC4;}
	.st221{fill:#D86552;}
	.st222{fill:#BC7620;}
	.st223{fill:#BA741E;}
	.st224{fill:#8F8CE3;}
	.st225{fill:#3A2820;}
	.st226{fill:#AC7060;}
	.st227{fill:#915F55;}
	.st228{fill:#49332A;}
	.st229{fill:#2D1F1B;}
	.st230{fill:#69B7BE;}
	.st231{fill:#D6D6D6;}
	.st232{fill:#B8B8B8;}
	.st233{fill:#CACACA;}
	.st234{fill:#467B80;}
	.st235{fill:#C2EDE2;}
	.st236{fill:#A9574F;}
	.st237{fill:#5595D2;}
	.st238{fill:#955949;}
	.st239{fill:#7E4B42;}
	.st240{fill:#89CCF1;}
	.st241{fill:#DD584A;}
	.st242{fill:#C18F26;}
	.st243{fill:#B33C2A;}
	.st244{fill:#D1A771;}
	.st245{fill:#B42A2A;}
	.st246{fill:#325797;}
	.st247{fill:#9F3529;}
	.st248{fill:#EDCE80;}
	.st249{fill:#F0DBAC;}
	.st250{fill:#CFB478;}
	.st251{fill:#D4C29B;}
	.st252{fill:#993939;}
	.st253{fill:#D1AFA3;}
	.st254{fill:#BC968B;}
	.st255{fill:none;stroke:#BC968B;stroke-width:10;stroke-linecap:round;stroke-miterlimit:10;}
	.st256{fill:#814C3C;}
	.st257{fill:#C0EBE0;}
	.st258{fill:#A5E3D4;}
	.st259{fill:#15243C;}
	.st260{fill:#443E79;}
	.st261{fill:#F0FFF7;}
	.st262{fill:#9A764B;}
	.st263{fill:#826443;}
	.st264{fill:#D9AA74;}
	.st265{fill:#5DA186;}
	.st266{fill:#68B596;}
	.st267{fill:#E5C6BE;}
	.st268{fill:#D3B6B1;}
	.st269{fill:none;stroke:#BAA09C;stroke-width:10;stroke-linecap:round;stroke-miterlimit:10;}
	.st270{fill:#F4D78F;}
	.st271{fill:#20385F;}
	.st272{fill:#BA8727;}
	.st273{fill:#5A9C82;}
	.st274{fill:none;stroke:#E39123;stroke-width:10;stroke-linecap:round;stroke-linejoin:round;stroke-miterlimit:10;}
	.st275{fill:#60392D;}
	.st276{fill:#CCCCCC;}
	.st277{fill:#844F3E;}
	.st278{fill:#F3FFFB;}
	.st279{fill:#365E60;}
	.st280{fill:#D84545;}
	.st281{fill:#A83B3B;}
	.st282{fill:#253F70;}
	.st283{fill:#EAADAD;}
	.st284{fill:#443E7C;}
	.st285{fill:#3D6B9F;}
	.st286{fill:#4274BC;}
	.st287{fill:#AF3827;}
	.st288{fill:#E59D9D;}
	.st289{fill:#C48989;}
	.st290{fill:none;stroke:#9B621A;stroke-width:10;stroke-linecap:round;stroke-linejoin:round;stroke-miterlimit:10;}
	.st291{fill:#213A5E;}
	.st292{fill:#2D507A;}
	.st293{fill:#528EC8;}
	.st294{fill:#EFD696;}
	.st295{fill:#D1BA87;}
	.st296{fill:#FDFCFC;}
	.st297{fill:#86CBFC;}
	.st298{fill:#7AB7DA;}
	.st299{fill:#192C4C;}
	.st300{fill:#BCBCBC;}
	.st301{fill:#A13838;}
	.st302{fill:#75BDF6;}
	.st303{fill:#D0B1AA;}
	.st304{fill:#142233;}
	.st305{fill:#E6C4BB;}
	.st306{fill:#BDBDBD;}
	.st307{fill:#E8A192;}
	.st308{fill:#A43939;}
	.st309{fill:#162640;}
	.st310{fill:#27457C;}
	.st311{fill:#EFBE5E;}
	.st312{fill:#87EDC5;}
	.st313{fill:#A03838;}
	.st314{fill:#833232;}
	.st315{fill:#47417F;}
	.st316{fill:none;stroke:#915F55;stroke-width:10;stroke-linecap:round;stroke-miterlimit:10;}
	.st317{fill:#BC8B25;}
	.st318{fill:#473129;}
	.st319{fill:#67B394;}
	.st320{fill:#599A80;}
	.st321{fill:#B13D3D;}
</style>
<g id="BULINE">
	<g>
		<circle id="XMLID_870_" class="st3" cx="256" cy="256" r="256"/>
	</g>
</g>
<g id="Icons">
	<g id="XMLID_7_">
		<path id="XMLID_2109_" class="st49" d="M467,401.1c-6.4,9.3-13.5,18.2-21.1,26.6c-16.5,18.2-35.5,34-56.5,46.9c-1.7,1-3.4,2-5.1,3
			c-8.5,5-17.4,9.4-26.5,13.4c-31.2,13.5-65.6,21-101.7,21c-16.1,0-31.8-1.5-47-4.3c-6.9-1.3-13.8-2.9-20.5-4.7
			c-6.9-1.9-13.8-4.1-20.5-6.5c-4.8-1.8-9.6-3.7-14.3-5.7c-10.3-4.5-20.2-9.6-29.7-15.4c-0.2-0.1-0.4-0.3-0.6-0.4
			c-31-18.8-57.8-44.1-78.3-73.9c12.5-66,55.3-121.4,113.3-151.1c10.3-5.3,21.2-9.8,32.4-13.4c20.6-6.5,42.5-10.1,65.2-10.1
			c16.6,0,32.7,1.9,48.1,5.4h0c8.2,1.9,16.2,4.2,24,7c5.8,2.1,11.5,4.4,17.1,7c1.6,0.7,3.3,1.5,4.9,2.3c0.8,0.4,1.5,0.7,2.2,1.1h0
			c0,0,0,0,0,0c1.5,0.7,2.9,1.5,4.4,2.3c3.5,1.9,6.9,3.8,10.3,5.9c2,1.2,3.9,2.4,5.8,3.7c1.2,0.8,2.4,1.6,3.6,2.4
			c1.7,1.2,3.4,2.4,5.1,3.6v0c0.4,0.3,0.9,0.6,1.3,0.9c6.1,4.5,11.9,9.3,17.5,14.4c4.2,3.9,8.3,7.9,12.3,12.1
			c18.2,19.4,32.8,42.2,42.8,67.3c0.1,0.4,0.3,0.7,0.4,1.1c1.9,4.8,3.6,9.7,5.1,14.6C463.5,385.2,465.4,393,467,401.1z"/>
		<g id="XMLID_9_">
			<path id="XMLID_2081_" class="st50" d="M261.4,351.3h-14.7c-11.8,0-21.4-9.6-21.4-21.4v-35.2c0-11.8,9.6-21.4,21.4-21.4h14.7
				c11.8,0,21.4,9.6,21.4,21.4v35.2C282.7,341.7,273.2,351.3,261.4,351.3z"/>
			<path id="XMLID_2074_" class="st51" d="M264,351.1c-1,0.1-2,0.2-3.1,0.2h-14.7c-11.8,0-21.4-9.6-21.4-21.4v-35.2
				c0-11.8,9.6-21.4,21.4-21.4H261c1,0,2.1,0.1,3.1,0.2c-10.3,1.5-18.3,10.4-18.3,21.2v35.2C245.8,340.7,253.7,349.6,264,351.1z"/>
			<path id="XMLID_2073_" class="st52" d="M384.2,377.9v99.7c-8.5,5-17.4,9.4-26.5,13.4c-31.2,13.5-65.6,21-101.7,21
				c-16.1,0-31.8-1.5-47-4.3c-6.9-1.3-13.8-2.9-20.5-4.7c-6.9-1.9-13.8-4.1-20.5-6.5c-4.8-1.8-9.6-3.7-14.3-5.7
				c-10.3-4.5-20.2-9.6-29.7-15.4c-0.2-0.1-0.4-0.3-0.6-0.4v-97.1c0-24.9,19.9-45.2,44.8-45.8c0.3,0,0.7,0,1,0h169.4
				C363.7,332.2,384.2,352.7,384.2,377.9z"/>
			<path id="XMLID_2036_" class="st9" d="M199.4,332.2c-1.7,0-3.3,0.1-5,0.3c-2,0.2-4,0.6-6,1c-7.8,1.9-14.8,5.8-20.5,11.2
				c-8.8,8.3-14.3,20.1-14.3,33.2v112.8c-10.3-4.5-20.2-9.6-29.7-15.4v-97.4c0-24.7,19.6-44.9,44.1-45.7c0.6,0,1.1,0,1.7,0H199.4z"
				/>
			<path id="XMLID_2026_" class="st50" d="M256,448.4L256,448.4c-34,0-61.5-27.5-61.5-61.5v-54.7h123.1v54.7
				C317.5,420.9,290,448.4,256,448.4z"/>
			<path id="XMLID_1833_" class="st53" d="M340.3,77.9c-0.2-12.9-7.8-24.1-18.7-29.4c0.2-1.1,0.3-2.2,0.3-3.4
				c0-11.8-9.6-21.3-21.3-21.3c-3.2,0-6.3,0.7-9,2c-9-10.8-22.6-17.7-37.7-17.7c-15.3,0-28.9,7-37.9,17.9c-2.8-1.4-6-2.2-9.4-2.2
				c-11.8,0-21.3,9.6-21.3,21.3c0,1.2,0.1,2.3,0.3,3.4c-10.8,5.3-18.3,16.2-18.7,29c-6,3.8-10,10.4-10,18c0,11.8,9.6,21.3,21.3,21.3
				c5.6,0,10.8-2.2,14.6-5.8c2.4,0.6,4.9,0.9,7.5,0.9c11,0,20.8-5.3,26.9-13.6c7.7,5,16.9,7.9,26.7,7.9c9.7,0,18.7-2.8,26.4-7.7
				c6.1,8.1,15.8,13.3,26.7,13.3c2.4,0,4.7-0.3,6.9-0.7c3.8,3.5,8.9,5.6,14.4,5.6c11.8,0,21.3-9.6,21.3-21.3
				C349.5,88.2,345.9,81.8,340.3,77.9z"/>
			<path id="XMLID_1831_" class="st54" d="M281.5,16.6c-3.8,2.6-7.3,5.8-10.2,9.3c-2.8-1.4-6-2.2-9.4-2.2
				c-11.8,0-21.3,9.5-21.3,21.3c0,1.2,0.1,2.3,0.3,3.4c-10.8,5.3-18.3,16.2-18.7,29c-6,3.8-10,10.4-10,18c0,4.6,1.5,8.9,4,12.4
				c-4.7,2.6-10.2,4-15.9,4c-2.6,0-5.1-0.3-7.5-0.8c-3.8,3.6-8.9,5.8-14.6,5.8c-11.8,0-21.3-9.6-21.3-21.3c0-7.6,4-14.3,10-18
				c0.4-12.7,7.9-23.7,18.7-29c-0.2-1.1-0.3-2.2-0.3-3.4c0-11.8,9.6-21.3,21.3-21.3c3.4,0,6.5,0.8,9.4,2.2
				c9-10.9,22.6-17.9,37.9-17.9C264.1,8.1,273.6,11.2,281.5,16.6z"/>
			<g id="XMLID_1449_">
				<path id="XMLID_1817_" class="st50" d="M375,191.5v13.8c0,8-6.5,14.4-14.4,14.4h-3.1c-2.9,26-15.4,49.2-33.9,65.8
					c-14.1,12.7-31.7,21.6-51.2,25.1c-0.3,0.1-0.6,0.1-0.9,0.2c-0.3,0.1-0.6,0.1-0.9,0.1c-0.6,0.1-1.2,0.2-1.7,0.3
					c-0.1,0-0.2,0-0.3,0.1c-0.8,0.1-1.6,0.2-2.4,0.3c-1.6,0.2-3.3,0.3-4.9,0.5c-2.5,0.2-5,0.3-7.5,0.3c-0.9,0-1.8,0-2.7,0
					c-1.8-0.1-3.6-0.1-5.3-0.3c-0.9-0.1-1.8-0.2-2.6-0.2c-0.9-0.1-1.8-0.2-2.6-0.3c-0.9-0.1-1.7-0.2-2.6-0.4
					c-0.9-0.1-1.7-0.3-2.6-0.4c-0.8-0.1-1.7-0.3-2.5-0.5c-0.8-0.2-1.7-0.4-2.5-0.5c-0.8-0.2-1.7-0.4-2.5-0.6
					c-0.8-0.2-1.7-0.4-2.5-0.7c-0.8-0.2-1.6-0.5-2.5-0.7s-1.6-0.5-2.4-0.8c-0.8-0.3-1.6-0.6-2.4-0.9c-3.2-1.2-6.3-2.5-9.4-4
					c-0.8-0.4-1.5-0.7-2.2-1.1c0,0,0,0,0,0c-0.7-0.4-1.5-0.8-2.2-1.2c-0.7-0.4-1.5-0.8-2.2-1.2c-0.7-0.4-1.5-0.8-2.2-1.3
					c-0.7-0.4-1.4-0.9-2.1-1.3c-0.7-0.5-1.4-0.9-2.1-1.4c-0.7-0.5-1.4-0.9-2.1-1.4c-0.7-0.5-1.4-1-2-1.5c0,0-0.1-0.1-0.1-0.1
					c-1.3-1-2.6-2-3.9-3c-1.3-1-2.5-2.1-3.7-3.2c-0.5-0.5-1-0.9-1.5-1.4c-0.4-0.4-0.8-0.8-1.2-1.2c-0.5-0.4-0.9-0.9-1.4-1.3
					c-0.3-0.3-0.7-0.7-1-1c-0.3-0.3-0.6-0.6-0.8-0.9c-0.5-0.5-0.9-1-1.4-1.5c-0.5-0.5-1-1.1-1.4-1.6c-0.5-0.5-0.9-1-1.3-1.6
					c-1.7-2-3.3-4.1-4.8-6.3c-0.5-0.7-1-1.4-1.4-2.1c-0.9-1.3-1.8-2.7-2.6-4c-0.3-0.5-0.6-1-0.8-1.4c-0.5-0.9-1.1-1.8-1.5-2.7
					c-0.4-0.6-0.7-1.3-1-1.9c0,0,0-0.1,0-0.1c-0.3-0.5-0.5-1-0.8-1.5c-0.2-0.4-0.4-0.8-0.6-1.2c-0.1-0.2-0.2-0.3-0.2-0.5
					c-0.3-0.5-0.5-1.1-0.8-1.7c-0.1-0.2-0.2-0.5-0.3-0.7c-0.2-0.4-0.4-0.9-0.6-1.3c-0.2-0.4-0.4-0.8-0.5-1.3
					c-0.1-0.2-0.2-0.5-0.3-0.7c-0.2-0.5-0.4-0.9-0.5-1.4c-0.1-0.3-0.3-0.7-0.4-1c-0.2-0.5-0.3-0.9-0.5-1.4c-0.1-0.2-0.1-0.4-0.2-0.5
					c-0.2-0.6-0.4-1.3-0.6-1.9c-0.2-0.8-0.5-1.5-0.7-2.3c-0.2-0.8-0.5-1.6-0.7-2.5c-0.6-2.2-1.2-4.5-1.7-6.8
					c-0.2-0.8-0.3-1.6-0.5-2.4c-0.1-0.8-0.3-1.6-0.4-2.4c-0.1-0.7-0.2-1.4-0.3-2.1c0-0.2,0-0.3-0.1-0.5c-0.1-0.6-0.2-1.2-0.2-1.8
					c0-0.1,0-0.3-0.1-0.4c-0.4-3.9-0.7-7.8-0.7-11.8v-47.1c0-57.6,46.7-104.3,104.3-104.3c0.8,0,1.6,0,2.4,0c0.6,0,1.2,0,1.8,0.1
					c1.1,0,2.1,0.1,3.1,0.2c0.5,0,1.1,0.1,1.6,0.1c0.4,0,0.7,0.1,1.1,0.1c0.5,0,0.9,0.1,1.4,0.2c0.3,0,0.6,0,0.9,0.1
					c0.5,0,0.9,0.1,1.4,0.2c0.3,0,0.7,0.1,1,0.1c0.5,0.1,1.1,0.2,1.6,0.2c0.8,0.1,1.5,0.2,2.3,0.4c25.2,4.5,47.3,18.2,62.8,37.4
					c3.4,4.2,6.5,8.7,9.2,13.5c8.7,15.3,13.7,32.9,13.7,51.8v16.3h2.4C368.5,177.1,375,183.6,375,191.5z"/>
				<path id="XMLID_1816_" class="st51" d="M272.5,310.6C272.5,310.7,272.5,310.7,272.5,310.6c-0.3,0.1-0.6,0.1-0.9,0.2
					c-0.3,0.1-0.6,0.1-0.9,0.1c-0.6,0.1-1.2,0.2-1.7,0.3c-0.1,0-0.2,0-0.3,0.1c-0.8,0.1-1.6,0.2-2.4,0.3c-1.6,0.2-3.2,0.4-4.9,0.5
					c-2.5,0.2-5,0.3-7.5,0.3c-0.9,0-1.8,0-2.7,0c-1.8,0-3.6-0.1-5.3-0.3c-0.9-0.1-1.8-0.2-2.6-0.2c-0.9-0.1-1.8-0.2-2.6-0.3
					c-0.9-0.1-1.7-0.2-2.6-0.4c-0.9-0.1-1.7-0.3-2.6-0.4c-0.8-0.1-1.7-0.3-2.5-0.5c-0.8-0.2-1.7-0.4-2.5-0.5
					c-0.8-0.2-1.7-0.4-2.5-0.6c-0.8-0.2-1.7-0.4-2.5-0.7c-0.8-0.2-1.6-0.5-2.5-0.7s-1.6-0.5-2.4-0.8c-0.8-0.3-1.6-0.6-2.4-0.9
					c-3.2-1.2-6.3-2.5-9.4-4c-0.8-0.4-1.5-0.7-2.2-1.1c0,0,0,0,0,0c-0.7-0.4-1.5-0.8-2.2-1.2c-0.7-0.4-1.5-0.8-2.2-1.2
					c-0.7-0.4-1.5-0.8-2.2-1.3c-0.7-0.4-1.4-0.9-2.1-1.3c-0.7-0.5-1.4-0.9-2.1-1.4c-0.7-0.5-1.4-0.9-2.1-1.4c-0.7-0.5-1.4-1-2-1.5
					c0,0-0.1-0.1-0.1-0.1c-2.6-2-5.2-4.1-7.6-6.3c-0.5-0.5-1-0.9-1.5-1.4c-0.4-0.4-0.8-0.8-1.2-1.2c-0.5-0.4-0.9-0.9-1.4-1.3
					c-0.3-0.3-0.7-0.7-1-1c-0.3-0.3-0.6-0.6-0.8-0.9c-0.5-0.5-0.9-1-1.4-1.5c-0.5-0.5-1-1.1-1.4-1.6c-0.5-0.5-0.9-1-1.3-1.6
					c-1.7-2-3.3-4.1-4.8-6.3c-0.5-0.7-1-1.4-1.4-2.1c-0.9-1.3-1.8-2.7-2.6-4c-0.3-0.5-0.6-1-0.8-1.4c-0.5-0.9-1.1-1.8-1.5-2.7
					c-0.4-0.6-0.7-1.3-1-1.9c0,0,0-0.1,0-0.1c-0.3-0.5-0.5-1-0.8-1.5c-0.2-0.4-0.4-0.8-0.6-1.2c-0.1-0.2-0.2-0.3-0.2-0.5
					c-0.3-0.5-0.5-1.1-0.8-1.7c-0.1-0.2-0.2-0.5-0.3-0.7c-0.2-0.4-0.4-0.9-0.6-1.3c-0.2-0.4-0.4-0.8-0.5-1.3
					c-0.1-0.2-0.2-0.5-0.3-0.7c-0.2-0.5-0.4-0.9-0.5-1.4c-0.1-0.3-0.3-0.7-0.4-1c-0.2-0.5-0.3-0.9-0.5-1.4c-0.1-0.2-0.1-0.4-0.2-0.5
					c-0.2-0.6-0.4-1.3-0.6-1.9c-0.2-0.8-0.5-1.5-0.7-2.3c-0.2-0.8-0.5-1.6-0.7-2.5c-0.6-2.2-1.2-4.5-1.7-6.8
					c-0.2-0.8-0.3-1.6-0.5-2.4c-0.1-0.8-0.3-1.6-0.4-2.4c-0.1-0.7-0.2-1.4-0.3-2.1c0-0.2,0-0.3-0.1-0.5c-0.1-0.6-0.2-1.2-0.2-1.8
					c0-0.1,0-0.3-0.1-0.4h-2.6c-8,0-14.4-6.5-14.4-14.4v-13.8c0-8,6.5-14.4,14.4-14.4h2v-16.3c0-57.6,46.7-104.3,104.3-104.3
					c0.8,0,1.6,0,2.4,0c0.6,0,1.2,0,1.8,0.1c1.1,0,2.1,0.1,3.1,0.2c0.5,0,1.1,0.1,1.6,0.1c0.4,0,0.7,0.1,1.1,0.1
					c0.5,0,0.9,0.1,1.4,0.2c0.3,0,0.6,0,0.9,0.1c0.5,0,0.9,0.1,1.4,0.2c0.3,0,0.7,0.1,1,0.1c0.5,0.1,1.1,0.2,1.6,0.2
					c0.8,0.1,1.5,0.2,2.3,0.4c-48.7,8.8-85.7,51.4-85.7,102.6V208C186.8,259.2,223.7,301.9,272.5,310.6z"/>
				<circle id="XMLID_1812_" class="st23" cx="202.8" cy="191.4" r="14.3"/>
				<circle id="XMLID_1811_" class="st16" cx="206.5" cy="186.8" r="6.3"/>
				<circle id="XMLID_1706_" class="st23" cx="303.2" cy="191.4" r="14.3"/>
				<circle id="XMLID_1513_" class="st16" cx="306.9" cy="186.8" r="6.3"/>
				<path id="XMLID_1512_" class="st51" d="M260.2,224.3h-12.9c-4.3,0-7.7-3.4-7.7-7.7v0c0-4.3,3.4-7.7,7.7-7.7h12.9
					c4.3,0,7.7,3.4,7.7,7.7v0C267.9,220.8,264.5,224.3,260.2,224.3z"/>
				<path id="XMLID_1470_" class="st36" d="M282.1,241.9c1.5,0,2.7,1.2,2.7,2.7v0c0,2.8-0.4,5.5-1.1,8.1c-1.6,6-5,11.3-9.6,15.3
					c-5.4,4.7-12.6,7.6-20.3,7.6s-14.9-2.9-20.3-7.6c-4.6-4-8-9.2-9.6-15.3c-0.7-2.6-1.1-5.3-1.1-8.1v0c0-1.5,1.2-2.7,2.7-2.7H282.1
					z"/>
				<path id="XMLID_1469_" class="st26" d="M274.1,268c-5.4,4.7-12.6,7.6-20.3,7.6s-14.9-2.9-20.3-7.6c5.4-4.8,12.6-7.6,20.3-7.6
					S268.7,263.3,274.1,268z"/>
				<path id="XMLID_1452_" class="st16" d="M282.1,241.9c1.5,0,2.7,1.2,2.7,2.7v0c0,2.8-0.4,5.5-1.1,8.1h-59.8
					c-0.7-2.6-1.1-5.3-1.1-8.1v0c0-1.5,1.2-2.7,2.7-2.7H282.1z"/>
			</g>
			<path id="XMLID_1448_" class="st23" d="M344.4,109.1c-0.6-1.1-1.3-2.1-1.9-3.2c-0.1-0.2-0.3-0.5-0.4-0.7
				c-0.6-0.9-1.2-1.9-1.8-2.8c-0.1-0.1-0.1-0.2-0.2-0.3c-0.7-1-1.4-2-2.2-3c-0.1-0.2-0.3-0.4-0.4-0.5C322,77.8,299,63,272.5,58.2
				c-0.8-0.1-1.5-0.3-2.3-0.4c-0.5-0.1-1.1-0.2-1.6-0.2c-0.3-0.1-0.7-0.1-1-0.1c-0.5-0.1-0.9-0.1-1.4-0.2c-0.3,0-0.6-0.1-0.9-0.1
				c-0.5-0.1-0.9-0.1-1.4-0.2c-0.4,0-0.7-0.1-1.1-0.1c-0.5,0-1.1-0.1-1.6-0.1c-1-0.1-2.1-0.1-3.1-0.2c-0.6,0-1.2-0.1-1.8-0.1
				c-0.8,0-1.6,0-2.4,0c-57.6,0-104.3,46.7-104.3,104.3v16.3c11.6,0,24.2-1.6,37.2-4.3c24.3-5,50.2-13.9,74.1-23.7
				c2.1,3,1.1,7.2-0.6,10.8c-1,2.2,1.3,4.4,3.5,3.2c17.7-9.8,20.6-22.6,20.9-24.2c0,0,0,0,0.1,0c2.2,8,1.3,14.4,0.1,18.4
				c-0.6,2,1.4,3.8,3.3,3c21.2-9.3,30.8-37.8,30.8-37.8c6.6,19.2,19.1,46,39.1,54.7v-16.3C358.2,142,353.2,124.3,344.4,109.1z"/>
			<path id="XMLID_1412_" class="st55" d="M271.6,57.4c-49.2,8.4-86.7,51.5-86.7,103.4v12.4c-12.4,2.5-24.3,3.9-35.3,3.9v-16.3
				c0-57.9,46.7-104.9,104.3-104.9c0.8,0,1.6,0,2.4,0c0.6,0,1.2,0,1.8,0.1c1,0,2.1,0.1,3.1,0.2c0.5,0,1.1,0.1,1.6,0.1
				c0.4,0,0.7,0.1,1.1,0.1c0.5,0,0.9,0.1,1.4,0.2c0.3,0,0.6,0.1,0.9,0.1c0.5,0,0.9,0.1,1.4,0.2c0.4,0,0.7,0.1,1,0.2
				c0.5,0.1,1.1,0.2,1.6,0.2C270.7,57.2,271.1,57.3,271.6,57.4z"/>
			<path id="XMLID_1323_" class="st56" d="M301.4,83.3c8.7,3.3,23.1,11.2,33.3,28.7c1,1.7-0.5,3.9-2.5,3.4l-3.4-0.7
				c-1.8-0.4-3.3,1.4-2.7,3.1l0,0c0.8,2-1.3,3.8-3.2,2.9c-6.8-3.2-19.3-7.9-32.4-6.8c-2.1,0.2-3.3-2.2-2-3.8
				c2.7-3.1,6.5-6.8,10.2-7.7c1-0.2,1.7-1.1,1.8-2.1c0.2-3,0.2-9.1-2.1-13.9C297.7,84.5,299.5,82.5,301.4,83.3z"/>
			<path id="XMLID_1280_" class="st6" d="M209,333.7v174c-6.9-1.3-13.8-2.9-20.5-4.7c-6.9-1.9-13.8-4.1-20.5-6.5V333.7
				c0-0.5,0-1,0.1-1.5c0,0,0,0,0,0c0.7-5.9,5.7-10.4,11.8-10.4h17.2c0.3,0,0.6,0,1,0c0.2,0,0.5,0,0.7,0.1c5.3,0.7,9.5,5,10.2,10.3
				C209,332.7,209,333.2,209,333.7z"/>
			<path id="XMLID_1197_" class="st26" d="M198.8,321.9c-5.3,0.7-9.5,5-10.2,10.3c-0.1,0.4-0.1,0.9-0.1,1.3V503
				c-6.9-1.9-13.8-4.1-20.5-6.5V333.7c0-0.5,0-1,0.1-1.5c0,0,0,0,0,0c0.7-5.9,5.7-10.4,11.8-10.4h17.2c0.3,0,0.6,0,1,0
				C198.3,321.8,198.5,321.9,198.8,321.9z"/>
			<g id="XMLID_980_">
				<path id="XMLID_1196_" class="st0" d="M406,227.8h-15.7l-3-8.9c-1.2-3.5-4.4-5.8-8.1-5.8h-39.9c-3.6,0-6.9,2.3-8.1,5.8l-3,8.9
					h-15.7c-5.6,0-10.2,4.6-10.2,10.2v49c0,5.6,4.6,10.2,10.2,10.2H406c5.6,0,10.2-4.6,10.2-10.2v-49
					C416.2,232.3,411.6,227.8,406,227.8z"/>
				<path id="XMLID_1167_" class="st15" d="M365.2,213.1c-3.7,0-6.9,2.3-8.1,5.8l-3,8.9h-15.8c-5.6,0-10.2,4.6-10.2,10.2v49
					c0,5.6,4.6,10.2,10.2,10.2h-26c-5.6,0-10.2-4.6-10.2-10.2v-49c0-5.6,4.6-10.2,10.2-10.2h15.8l3-8.9c1.2-3.5,4.4-5.8,8.1-5.8
					H365.2z"/>
				<path id="XMLID_1166_" class="st57" d="M322.2,219.1h-6.5c-1.8,0-3.3,1.5-3.3,3.3v5.3h13.2v-5.3
					C325.6,220.6,324.1,219.1,322.2,219.1z"/>
				<circle id="XMLID_1058_" class="st42" cx="359.2" cy="265.4" r="24"/>
				<circle id="XMLID_1035_" class="st5" cx="359.2" cy="265.4" r="17.5"/>
				<path id="XMLID_1034_" class="st58" d="M363.3,282.4c-1.3,0.3-2.7,0.5-4.1,0.5c-9.6,0-17.5-7.8-17.5-17.5
					c0-9.7,7.8-17.5,17.5-17.5c1.4,0,2.8,0.2,4.1,0.5c-7.7,1.9-13.3,8.8-13.3,17C350,273.7,355.6,280.5,363.3,282.4z"/>
				<circle id="XMLID_982_" class="st59" cx="367.7" cy="262.9" r="5.5"/>
			</g>
			<path id="XMLID_979_" class="st50" d="M410.9,263.7c-11.7-6.8-26.8-2.8-33.6,9l-0.8,1.5c-6.8,11.7-2.8,26.8,9,33.6l19.3,11.1
				v47.7h50.8v-53.2c0-14.2-7.5-27.4-19.7-34.7L410.9,263.7z"/>
			<path id="XMLID_912_" class="st51" d="M431.7,318.8v47.7h-27v-47.7l-19.3-11.1c-11.7-6.8-15.8-21.8-9-33.6l0.8-1.5
				c6.8-11.7,21.8-15.8,33.6-9l1.2,0.7c-3.1,2-5.8,4.8-7.8,8.2l-0.8,1.5c-6.8,11.7-2.8,26.8,9,33.6L431.7,318.8z"/>
			<path id="XMLID_911_" class="st52" d="M462.8,371.9l-1.7,5.5l-15.2,50.2c-16.5,18.2-35.5,34-56.5,46.9c-1.7,1-3.4,2-5.1,3
				c-8.5,5-17.4,9.4-26.5,13.4l26.5-87.4l15.4-50.7c0.7-2.5,2.8-4.2,5.1-4.6c1.1-0.2,2.2-0.2,3.3,0.1l17.9,5.4l5.8,1.8l23.8,7.2
				l0.4,0.1l2.3,0.7C461.8,364.6,463.8,368.4,462.8,371.9z"/>
			<path id="XMLID_910_" class="st9" d="M425.9,353.8l-3.9,12.8l0,0l-32.7,108c-1.7,1-3.4,2-5.1,3c-8.5,5-17.4,9.4-26.5,13.4
				l26.5-87.4l15.4-50.7c0.7-2.5,2.8-4.2,5.1-4.6c1.1-0.2,2.2-0.2,3.3,0.1L425.9,353.8z"/>
			<path id="XMLID_782_" class="st16" d="M406.6,224.2c0-2.8-7-5.1-16.5-5.8c-0.7-9.5-3-16.5-5.8-16.5s-5.1,7-5.8,16.5
				c-9.5,0.7-16.5,3-16.5,5.8s7,5.1,16.5,5.8c0.7,9.5,3,16.5,5.8,16.5s5.1-7,5.8-16.5C399.6,229.4,406.6,227,406.6,224.2z"/>
		</g>
	</g>
</g>
</svg>
