<?xml version="1.0" encoding="utf-8"?>
<!-- Generator: Adobe Illustrator 22.0.1, SVG Export Plug-In . SVG Version: 6.00 Build 0)  -->
<svg version="1.1" xmlns="http://www.w3.org/2000/svg" xmlns:xlink="http://www.w3.org/1999/xlink" x="0px" y="0px"
	 viewBox="0 0 512 512" style="enable-background:new 0 0 512 512;" xml:space="preserve">
<style type="text/css">
	.st0{fill:#E9B12D;}
	.st1{fill:#A9E7D8;}
	.st2{fill:#76CFB1;}
	.st3{fill:#AE6B5D;}
	.st4{fill:#7770D3;}
	.st5{fill:#5BA0F5;}
	.st6{fill:#DA4545;}
	.st7{fill:#89CCFC;}
	.st8{fill:#CD462A;}
	.st9{fill:#514896;}
	.st10{fill:#5493A0;}
	.st11{fill:#CC6B5C;}
	.st12{fill:#62AA8D;}
	.st13{fill:#8ABAAB;}
	.st14{fill:#C3791F;}
	.st15{fill:#E39123;}
	.st16{fill:#FFFFFF;}
	.st17{fill:none;stroke:#FFFFFF;stroke-width:10;stroke-linecap:round;stroke-miterlimit:10;}
	.st18{fill:none;stroke:#5F55AB;stroke-width:10;stroke-linecap:round;stroke-miterlimit:10;}
	.st19{fill:#A9671C;}
	.st20{fill:#D5B3A7;}
	.st21{fill:#C09A8F;}
	.st22{fill:#487F87;}
	.st23{fill:#1B305C;}
	.st24{fill:#172945;}
	.st25{fill:none;}
	.st26{fill:#B62A2A;}
	.st27{fill:#325859;}
	.st28{fill:#3F6E71;}
	.st29{fill:#284646;}
	.st30{fill:#8F2727;}
	.st31{fill:#29477C;}
	.st32{fill:#5B9BEE;}
	.st33{fill:#487FDE;}
	.st34{fill:#CD9829;}
	.st35{fill:#9F2A2A;}
	.st36{fill:#4C3328;}
	.st37{fill:#E8B94A;}
	.st38{fill:#DDF8F1;}
	.st39{fill:#3E2A22;}
	.st40{fill:#D3A971;}
	.st41{fill:#C79A5B;}
	.st42{fill:#233E76;}
	.st43{fill:#21395F;}
	.st44{fill:#487D82;}
	.st45{fill:none;stroke:#C79A5B;stroke-width:10;stroke-linecap:round;stroke-miterlimit:10;}
	.st46{fill:#5E3E31;}
	.st47{fill:#AC3939;}
	.st48{fill:#CA9628;}
	.st49{fill:#AF8F88;}
	.st50{fill:#815048;}
	.st51{fill:#6F4232;}
	.st52{fill:#5F55AB;}
	.st53{fill:#192A48;}
	.st54{fill:#152336;}
	.st55{fill:#192B49;}
	.st56{fill:#264173;}
	.st57{fill:#B06F1E;}
	.st58{fill:#4E88C0;}
	.st59{fill:#83C3F1;}
	.st60{fill:#CF9929;}
	.st61{fill:none;stroke:#FFFFFF;stroke-width:10;stroke-linecap:round;stroke-linejoin:round;stroke-miterlimit:10;}
	.st62{fill:#EAC262;}
	.st63{fill:#D6D5D4;}
	.st64{fill:#6BBA9B;}
	.st65{fill:#63AA8F;}
	.st66{fill:none;stroke:#3E2A22;stroke-width:10;stroke-linecap:round;stroke-miterlimit:10;}
	.st67{fill:#CA7D1F;}
	.st68{fill:#213B64;}
	.st69{fill:#CDF8EC;}
	.st70{fill:#C59125;}
	.st71{fill:none;stroke:#C09A8F;stroke-width:10;stroke-linecap:round;stroke-miterlimit:10;}
	.st72{fill:#32579B;}
	.st73{fill:#172843;}
	.st74{fill:#D66767;}
	.st75{fill:#A74949;}
	.st76{fill:#EBC76F;}
	.st77{fill:#7A4940;}
	.st78{fill:#182A48;}
	.st79{fill:none;stroke:#A0794A;stroke-width:10;stroke-linecap:round;stroke-miterlimit:10;}
	.st80{fill:#C37A20;}
	.st81{fill:#D26D5C;}
	.st82{fill:#A45752;}
	.st83{fill:#284579;}
	.st84{fill:#88C7F4;}
	.st85{fill:#6EB6F0;}
	.st86{fill:#32221E;}
	.st87{fill:#E7A6A6;}
	.st88{fill:#C59191;}
	.st89{fill:#AA3B3B;}
	.st90{fill:#B83E3E;}
	.st91{fill:none;stroke:#5F55A9;stroke-width:10;stroke-linecap:round;stroke-miterlimit:10;}
	.st92{fill:#963838;}
	.st93{fill:#402B25;}
	.st94{fill:#6B6ABA;}
	.st95{fill:#BABABA;}
	.st96{fill:#D1D1D1;}
	.st97{fill:#264377;}
	.st98{fill:#A19BF5;}
	.st99{fill:#3C2A21;}
	.st100{fill:none;stroke:#4C3328;stroke-width:10;stroke-linecap:round;stroke-miterlimit:10;}
	.st101{fill:#C1781F;}
	.st102{fill:#E3A147;}
	.st103{fill:#F2D2A1;}
	.st104{fill:#4F372D;}
	.st105{fill:none;stroke:#DA4545;stroke-width:10;stroke-linecap:round;stroke-miterlimit:10;}
	.st106{fill:#AA3928;}
	.st107{fill:#8C2C22;}
	.st108{fill:#BF4336;}
	.st109{fill:#5797D4;}
	.st110{fill:#CFCFCF;}
	.st111{fill:#613A2E;}
	.st112{fill:none;stroke:#B18653;stroke-width:10;stroke-linecap:round;stroke-miterlimit:10;}
	.st113{fill:#B13B3B;}
	.st114{fill:#16263A;}
	.st115{fill:none;stroke:#16263A;stroke-width:10;stroke-miterlimit:10;}
	.st116{fill:#C87D20;}
	.st117{fill:#E4F0FD;}
	.st118{fill:#AA3737;}
	.st119{fill:#BF771F;}
	.st120{fill:none;stroke:#CD462A;stroke-width:10;stroke-linejoin:round;stroke-miterlimit:10;}
	.st121{fill:#5696D2;}
	.st122{fill:#C0771E;}
	.st123{fill:#9B5F1B;}
	.st124{fill:#A83A29;}
	.st125{fill:#E7A74F;}
	.st126{fill:#C9924C;}
	.st127{fill:#C58E48;}
	.st128{fill:#BE8844;}
	.st129{fill:#916939;}
	.st130{fill:#264275;}
	.st131{fill:#253F65;}
	.st132{fill:#182A45;}
	.st133{fill:#162336;}
	.st134{fill:#93C7B7;}
	.st135{fill:#E6A4A4;}
	.st136{fill:#B06B1D;}
	.st137{fill:#484185;}
	.st138{fill:#DB6E6E;}
	.st139{fill:#6BBA9A;}
	.st140{fill:#CACCCC;}
	.st141{fill:#D4D4D4;}
	.st142{fill:#A98881;}
	.st143{fill:#213A62;}
	.st144{fill:#A2837D;}
	.st145{fill:#6FB8F4;}
	.st146{fill:#9B9E9E;}
	.st147{fill:#B2B3B3;}
	.st148{fill:#20385D;}
	.st149{fill:#335AA8;}
	.st150{fill:#BCE7FD;}
	.st151{fill:#3B2921;}
	.st152{fill:#AD3C3C;}
	.st153{fill:#9D3838;}
	.st154{fill:#603F33;}
	.st155{fill:#4D868B;}
	.st156{fill:#A2DDFD;}
	.st157{fill:#ECB6B6;}
	.st158{fill:#E8A346;}
	.st159{fill:#514C94;}
	.st160{fill:#D2F1E8;}
	.st161{fill:#BDD6CE;}
	.st162{fill:#B93B29;}
	.st163{fill:#E0AD70;}
	.st164{fill:#C57C21;}
	.st165{fill:#EDA34A;}
	.st166{fill:#2F538F;}
	.st167{fill:#2B4B78;}
	.st168{fill:#65AF91;}
	.st169{fill:#A7CEFC;}
	.st170{fill:#98BDE2;}
	.st171{fill:#CFE5F7;}
	.st172{fill:#5492CD;}
	.st173{fill:#97CCBC;}
	.st174{fill:#5491CA;}
	.st175{fill:#EDC563;}
	.st176{fill:#423C79;}
	.st177{fill:#D3B1A5;}
	.st178{fill:#BE988D;}
	.st179{fill:#A7E5D6;}
	.st180{fill:#F2FFF9;}
	.st181{fill:#D64545;}
	.st182{fill:#A73B3B;}
	.st183{fill:#15233A;}
	.st184{fill:none;stroke:#BE988D;stroke-width:10;stroke-linecap:round;stroke-miterlimit:10;}
	.st185{fill:#AF3A29;}
	.st186{fill:#FAF9FF;}
	.st187{fill:#CACACC;}
	.st188{fill:#372720;}
	.st189{fill:#3F2C26;}
	.st190{fill:#2D201C;}
	.st191{fill:#3D6D6F;}
	.st192{fill:#5B54A8;}
	.st193{fill:#325799;}
	.st194{fill:#E8C26E;}
	.st195{fill:#254784;}
	.st196{fill:#5696D4;}
	.st197{fill:#4F8AB6;}
	.st198{fill:#5FA4AC;}
	.st199{fill:#AA3524;}
	.st200{fill:#D15F4D;}
	.st201{fill:#2B294C;}
	.st202{fill:#A43A2A;}
	.st203{fill:#E7AE2D;}
	.st204{fill:#CD9729;}
	.st205{fill:none;stroke:#AA8253;stroke-width:10;stroke-linecap:round;stroke-miterlimit:10;}
	.st206{fill:none;stroke:#E18F23;stroke-width:10;stroke-linecap:round;stroke-linejoin:round;stroke-miterlimit:10;}
	.st207{fill:#CF9828;}
	.st208{fill:#B88926;}
	.st209{fill:#A17623;}
	.st210{fill:#96CCBC;}
	.st211{fill:#CF9A2A;}
	.st212{fill:#C57B20;}
	.st213{fill:#C7F1E6;}
	.st214{fill:#DC6363;}
	.st215{fill:#E89F9F;}
	.st216{fill:#C88C8C;}
	.st217{fill:#C16E6E;}
	.st218{fill:#A46060;}
	.st219{fill:#AA3626;}
	.st220{fill:#87EDC4;}
	.st221{fill:#D86552;}
	.st222{fill:#BC7620;}
	.st223{fill:#BA741E;}
	.st224{fill:#8F8CE3;}
	.st225{fill:#3A2820;}
	.st226{fill:#AC7060;}
	.st227{fill:#915F55;}
	.st228{fill:#49332A;}
	.st229{fill:#2D1F1B;}
	.st230{fill:#69B7BE;}
	.st231{fill:#D6D6D6;}
	.st232{fill:#B8B8B8;}
	.st233{fill:#CACACA;}
	.st234{fill:#467B80;}
	.st235{fill:#C2EDE2;}
	.st236{fill:#A9574F;}
	.st237{fill:#5595D2;}
	.st238{fill:#955949;}
	.st239{fill:#7E4B42;}
	.st240{fill:#89CCF1;}
	.st241{fill:#DD584A;}
	.st242{fill:#C18F26;}
	.st243{fill:#B33C2A;}
	.st244{fill:#D1A771;}
	.st245{fill:#B42A2A;}
	.st246{fill:#325797;}
	.st247{fill:#9F3529;}
	.st248{fill:#EDCE80;}
	.st249{fill:#F0DBAC;}
	.st250{fill:#CFB478;}
	.st251{fill:#D4C29B;}
	.st252{fill:#993939;}
	.st253{fill:#D1AFA3;}
	.st254{fill:#BC968B;}
	.st255{fill:none;stroke:#BC968B;stroke-width:10;stroke-linecap:round;stroke-miterlimit:10;}
	.st256{fill:#814C3C;}
	.st257{fill:#C0EBE0;}
	.st258{fill:#A5E3D4;}
	.st259{fill:#15243C;}
	.st260{fill:#443E79;}
	.st261{fill:#F0FFF7;}
	.st262{fill:#9A764B;}
	.st263{fill:#826443;}
	.st264{fill:#D9AA74;}
	.st265{fill:#5DA186;}
	.st266{fill:#68B596;}
	.st267{fill:#E5C6BE;}
	.st268{fill:#D3B6B1;}
	.st269{fill:none;stroke:#BAA09C;stroke-width:10;stroke-linecap:round;stroke-miterlimit:10;}
	.st270{fill:#F4D78F;}
	.st271{fill:#20385F;}
	.st272{fill:#BA8727;}
	.st273{fill:#5A9C82;}
	.st274{fill:none;stroke:#E39123;stroke-width:10;stroke-linecap:round;stroke-linejoin:round;stroke-miterlimit:10;}
	.st275{fill:#60392D;}
	.st276{fill:#CCCCCC;}
	.st277{fill:#844F3E;}
	.st278{fill:#F3FFFB;}
	.st279{fill:#365E60;}
	.st280{fill:#D84545;}
	.st281{fill:#A83B3B;}
	.st282{fill:#253F70;}
	.st283{fill:#EAADAD;}
	.st284{fill:#443E7C;}
	.st285{fill:#3D6B9F;}
	.st286{fill:#4274BC;}
	.st287{fill:#AF3827;}
	.st288{fill:#E59D9D;}
	.st289{fill:#C48989;}
	.st290{fill:none;stroke:#9B621A;stroke-width:10;stroke-linecap:round;stroke-linejoin:round;stroke-miterlimit:10;}
	.st291{fill:#213A5E;}
	.st292{fill:#2D507A;}
	.st293{fill:#528EC8;}
	.st294{fill:#EFD696;}
	.st295{fill:#D1BA87;}
	.st296{fill:#FDFCFC;}
	.st297{fill:#86CBFC;}
	.st298{fill:#7AB7DA;}
	.st299{fill:#192C4C;}
	.st300{fill:#BCBCBC;}
	.st301{fill:#A13838;}
	.st302{fill:#75BDF6;}
	.st303{fill:#D0B1AA;}
	.st304{fill:#142233;}
	.st305{fill:#E6C4BB;}
	.st306{fill:#BDBDBD;}
	.st307{fill:#E8A192;}
	.st308{fill:#A43939;}
	.st309{fill:#162640;}
	.st310{fill:#27457C;}
	.st311{fill:#EFBE5E;}
	.st312{fill:#87EDC5;}
	.st313{fill:#A03838;}
	.st314{fill:#833232;}
	.st315{fill:#47417F;}
	.st316{fill:none;stroke:#915F55;stroke-width:10;stroke-linecap:round;stroke-miterlimit:10;}
	.st317{fill:#BC8B25;}
	.st318{fill:#473129;}
	.st319{fill:#67B394;}
	.st320{fill:#599A80;}
	.st321{fill:#B13D3D;}
</style>
<g id="BULINE">
	<circle id="XMLID_2129_" class="st1" cx="256" cy="256" r="256"/>
	<g>
	</g>
</g>
<g id="Icons">
	<g id="XMLID_2255_">
		<path id="XMLID_2742_" class="st16" d="M512,256c0,60.9-21.3,116.9-56.8,160.8c-11.2,13.9-23.9,26.6-37.8,37.9
			c-5.8,4.7-11.8,9.2-17.9,13.3c-1.3,0.9-2.6,1.7-3.8,2.6c-10.5,6.8-21.4,12.9-32.9,18.1c-6.5,3-13.1,5.7-19.9,8.1
			c-0.7,0.2-1.3,0.5-2,0.7c-26.5,9.3-55.1,14.4-84.8,14.4c-11.8,0-23.5-0.8-34.9-2.4c-7.3-1-14.6-2.3-21.7-3.9
			c-34.4-7.8-66.1-22.4-93.7-42.5c-10.9-7.9-21.1-16.6-30.6-26.1l-0.7-0.7C28.4,390.2,0,326.4,0,256c0-25.3,3.7-49.8,10.5-72.9
			c32.8,1.6,60.6,22,73,50.6c2.2-0.6,4.5-0.9,6.9-0.9c14.2,0,25.7,11.5,25.7,25.7c0,0.9-0.1,1.9-0.2,2.8c-0.1,1.3-0.4,2.6-0.7,3.9
			c10.1,1.7,19.7,5.1,28.2,10.1c0.8,0.4,1.6,0.9,2.3,1.4c10.9,6.8,20.1,15.9,26.9,26.8c1,1.7,2,3.4,3,5.1h110.8
			c8.7-7,18.9-12.4,30-15.5c7-2,14.4-3.1,22-3.1c0.3,0,0.5,0,0.8,0c7.4,0,14.5,0.9,21.3,2.7c11.6,3,22.3,8.5,31.4,15.9h7
			c0.9-1.8,1.8-3.6,2.8-5.3c3.7-6.5,8.4-12.3,13.8-17.3c4.7-4.3,10-8,15.8-11c7.4-3.8,15.6-6.4,24.2-7.5h0c0.6-0.1,1.1-0.1,1.7-0.2
			c2.3-0.2,4.7-0.4,7.1-0.4c2.2,0,4.4,0.1,6.5,0.3c1.7-22.1,18-40,39.2-44.3C511.3,233.7,512,244.8,512,256z"/>
		<g id="XMLID_2257_">
			<path id="XMLID_2395_" class="st42" d="M285.1,331.2H128.7c-17.2,0-31.2-14-31.2-31.2v-10.3c0-17.2,14-31.2,31.2-31.2h156.4
				c17.2,0,31.2,14,31.2,31.2V300C316.3,317.2,302.3,331.2,285.1,331.2z"/>
			<path id="XMLID_2394_" class="st23" d="M256.8,318.6h-95.7c-13.2,0-23.8-10.7-23.8-23.8v0c0-13.2,10.7-23.8,23.8-23.8h95.7
				c13.2,0,23.8,10.7,23.8,23.8v0C280.6,308,270,318.6,256.8,318.6z"/>
			<path id="XMLID_2393_" class="st20" d="M216.4,341.7h-15.2c-12.1,0-22-9.8-22-22v-36.2c0-12.1,9.8-22,22-22h15.2
				c12.1,0,22,9.8,22,22v36.2C238.4,331.8,228.6,341.7,216.4,341.7z"/>
			<path id="XMLID_2391_" class="st21" d="M219.2,341.5c-1,0.2-2.1,0.2-3.2,0.2h-15.2c-12.1,0-22-9.8-22-22v-36.2
				c0-12.1,9.8-22,22-22H216c1.1,0,2.1,0.1,3.2,0.2c-10.6,1.5-18.8,10.7-18.8,21.8v36.2C200.4,330.8,208.6,339.9,219.2,341.5z"/>
			<path id="XMLID_2389_" class="st20" d="M318.5,153.9h-2.5v-16.7c0-59.3-48-107.3-107.3-107.3h0c-59.3,0-107.3,48-107.3,107.3
				v48.5c0,59.3,48,107.3,107.3,107.3h0c55.2,0,100.6-41.7,106.6-95.2h3.1c8.2,0,14.8-6.6,14.8-14.8v-14.2
				C333.4,160.5,326.7,153.9,318.5,153.9z"/>
			<path id="XMLID_2388_" class="st21" d="M139.7,185.7v-48.5c0-52.7,38-96.6,88.2-105.6c-6.2-1.1-12.6-1.7-19.2-1.7
				c-59.3,0-107.3,48-107.3,107.3v16.7h-2c-8.2,0-14.8,6.6-14.8,14.8v14.2c0,8.2,6.6,14.8,14.8,14.8h2.7
				c6,53.6,51.4,95.2,106.6,95.2c6.5,0,12.9-0.6,19.2-1.7C177.8,282.3,139.7,238.4,139.7,185.7z"/>
			<path id="XMLID_2387_" class="st21" d="M215,207.6h-13.3c-4.4,0-7.9-3.5-7.9-7.9v0c0-4.4,3.5-7.9,7.9-7.9H215
				c4.4,0,7.9,3.5,7.9,7.9v0C222.9,204,219.4,207.6,215,207.6z"/>
			<path id="XMLID_2386_" class="st71" d="M196,219.4c0,6.8,5.5,12.3,12.3,12.3c6.8,0,12.3-5.5,12.3-12.3"/>
			<line id="XMLID_2385_" class="st71" x1="196.9" y1="245.4" x2="219.8" y2="245.4"/>
			<path id="XMLID_2639_" class="st42" d="M342.8,369.1v127.8c-0.7,0.2-1.3,0.5-2,0.7c-26.5,9.3-55.1,14.4-84.8,14.4
				c-11.8,0-23.5-0.8-34.9-2.4c-7.3-1-14.6-2.3-21.7-3.9c-34.4-7.8-66.1-22.4-93.7-42.5c-10.9-7.9-21.1-16.6-30.6-26.1l-0.7-0.7
				v-67.4c0-21.5,14.5-39.7,34.2-45.3c4.1-1.2,8.4-1.8,12.9-1.8h43.9v-9c0-4.6,3-8.4,7.2-9.6c0.9-0.3,1.9-0.4,2.9-0.4h67.7
				c3.9,0,7.3,2.2,9,5.5c0.7,1.4,1.1,2.9,1.1,4.6v9h42.6c3.5,0,6.9,0.4,10.2,1.1c14.9,3.3,27.1,13.6,33,27.3
				c0.2,0.4,0.4,0.9,0.5,1.3C341.7,357.2,342.8,363,342.8,369.1z"/>
			<path id="XMLID_2418_" class="st23" d="M152.5,322c-3.1,0-6.2,0.3-9.1,0.9c-6.7,1.4-12.9,4.1-18.2,8
				c-11.8,8.5-19.5,22.5-19.5,38.1v94.1c-10.9-7.9-21.1-16.6-30.6-26.1v-68c0-21.3,14.2-39.4,33.7-45.1c4.2-1.3,8.8-1.9,13.4-1.9
				H152.5z"/>
			<path id="XMLID_2596_" class="st23" d="M221.1,303v206.6c-7.3-1-14.6-2.3-21.7-3.9V303H221.1z"/>
			<path id="XMLID_2380_" class="st8" d="M210.2,339.1L210.2,339.1c-3.5,0-6.2-3-5.8-6.5l2.3-20.9c0-0.4,0.4-0.8,0.8-0.8h5.3
				c0.4,0,0.8,0.3,0.8,0.8l2.3,20.9C216.4,336,213.7,339.1,210.2,339.1z"/>
			<path id="XMLID_2379_" class="st8" d="M164.1,390.9h-37.4c-4.8,0-8.7-3.9-8.7-8.7V377c0-4.8,3.9-8.7,8.7-8.7h37.4
				c4.8,0,8.7,3.9,8.7,8.7v5.1C172.9,386.9,169,390.9,164.1,390.9z"/>
			<path id="XMLID_2378_" class="st0" d="M319.6,116c0-62.2-50.5-112.7-112.7-112.7S94.2,53.8,94.2,116H319.6z"/>
			<path id="XMLID_2376_" class="st211" d="M239.8,8.2c-46.2,14.1-79.8,57-79.8,107.8H94.2c0-62.2,50.5-112.7,112.7-112.7
				C218.4,3.3,229.4,5,239.8,8.2z"/>
			<path id="XMLID_2375_" class="st15" d="M322.1,135H95.9c-6.2,0-11.3-5-11.3-11.3v-7.6c0-6.2,5-11.3,11.3-11.3h226.2
				c6.2,0,11.3,5,11.3,11.3v7.6C333.4,130,328.3,135,322.1,135z"/>
			<path id="XMLID_2374_" class="st212" d="M123.6,135h-8.7v-19.1c0-2.4,2-4.4,4.4-4.4h0c2.4,0,4.4,2,4.4,4.4V135z"/>
			<path id="XMLID_2373_" class="st212" d="M143.4,135h-8.7v-19.1c0-2.4,2-4.4,4.4-4.4h0c2.4,0,4.4,2,4.4,4.4V135z"/>
			<path id="XMLID_2372_" class="st212" d="M163.2,135h-8.7v-19.1c0-2.4,2-4.4,4.4-4.4l0,0c2.4,0,4.4,2,4.4,4.4V135z"/>
			<path id="XMLID_2370_" class="st212" d="M183,135h-8.7v-19.1c0-2.4,2-4.4,4.4-4.4l0,0c2.4,0,4.4,2,4.4,4.4V135z"/>
			<path id="XMLID_2368_" class="st212" d="M202.8,135h-8.7v-19.1c0-2.4,2-4.4,4.4-4.4h0c2.4,0,4.4,2,4.4,4.4V135z"/>
			<path id="XMLID_2360_" class="st212" d="M222.6,135h-8.7v-19.1c0-2.4,2-4.4,4.4-4.4l0,0c2.4,0,4.4,2,4.4,4.4V135z"/>
			<path id="XMLID_2358_" class="st212" d="M242.4,135h-8.7v-19.1c0-2.4,2-4.4,4.4-4.4h0c2.4,0,4.4,2,4.4,4.4V135z"/>
			<path id="XMLID_2356_" class="st212" d="M262.2,135h-8.7v-19.1c0-2.4,2-4.4,4.4-4.4h0c2.4,0,4.4,2,4.4,4.4V135z"/>
			<path id="XMLID_2355_" class="st212" d="M282,135h-8.7v-19.1c0-2.4,2-4.4,4.4-4.4h0c2.4,0,4.4,2,4.4,4.4V135z"/>
			<path id="XMLID_2352_" class="st212" d="M301.8,135h-8.7v-19.1c0-2.4,2-4.4,4.4-4.4l0,0c2.4,0,4.4,2,4.4,4.4V135z"/>
			<g id="XMLID_2340_">
				<g id="XMLID_2347_">
					<path id="XMLID_2348_" class="st23" d="M197.8,133.9l-1.1,1.1l-3.6,3.6h66.6l3.6-3.6l1.1-1.1H197.8z M325,134.7
						c-1.3-4.7-5-8.4-9.6-9.9h0c-1.4-0.4-2.8-0.6-4.2-0.6H106.8c-1.7,0-3.2,0.3-4.7,0.8c-4.4,1.5-7.9,5.2-9.2,9.7
						c-0.3,1.2-0.5,2.5-0.5,3.9v22.8c0,10.9,3.4,21,9.1,29.3c9.2,13.3,24.4,22.1,41.8,22.4c0.3,0,0.6,0,0.9,0
						c11.5,0,22.3-3.7,31.4-10.6c7.5-5.7,15.8-9.3,24.5-10.6c0.1,0,0.2,0,0.3,0c0.2,0,0.3-0.1,0.5-0.1c2.1-0.3,4.1-0.4,6.2-0.4h3.7
						c11.1,0,22,3.8,31.5,11.1c9.1,7,20,10.6,31.4,10.6c28.5,0,51.7-23.2,51.7-51.7v-22.8C325.5,137.2,325.3,135.9,325,134.7z
						 M311,161.4c0,0.4,0,0.9,0,1.3v0.3c-0.8,19.8-17.2,35.6-37.2,35.6c-0.2,0-0.4,0-0.5,0c-6.7-0.1-13.2-2-18.8-5.4
						c-1.1-0.7-2.2-1.4-3.2-2.2c-2-1.5-4-2.9-6.1-4.2c-7.6-4.7-15.8-7.8-24.3-9.1c-3.3-0.5-6.6-0.8-9.9-0.8h-3.7
						c-14.3,0-28.3,4.9-40.3,14.1c-1.6,1.2-3.2,2.3-4.9,3.2c-5.4,2.9-11.4,4.5-17.7,4.5c-1.2,0-2.5-0.1-3.7-0.2
						c-2.1-0.2-4.1-0.6-6.1-1.1c-3.9-1.1-7.5-2.7-10.8-4.9c-6.7-4.5-11.9-11.1-14.6-18.8c-1.1-3.2-1.8-6.7-2-10.2c0,0,0,0,0,0
						c0,0,0,0,0-0.1c0-0.1,0-0.1,0-0.2c0-0.5,0-1.1,0-1.6v-22.7h204V161.4z M197.8,133.9l-1.1,1.1l-3.6,3.6h66.6l3.6-3.6l1.1-1.1
						H197.8z"/>
				</g>
				<path id="XMLID_2346_" class="st149" d="M311,140.6v21.3c0,11.5-4.6,21.8-12.2,29.4c-7.5,7.5-17.9,12.2-29.3,12.2
					c-0.3,0-0.7,0-1,0c-6.9-0.2-13.4-2-19.1-5.2c-1.8-1-3.5-2.1-5.1-3.3c-1.4-1.1-2.8-2.1-4.3-3c-7.5-4.8-16-7.8-24.9-8.6
					c-1.5-0.1-2.9-0.2-4.4-0.2h-3.5c-12.2,0-23.8,4.3-33.5,11.8c-3.5,2.7-7.4,4.8-11.7,6.3c-2.9,1-6,1.7-9.2,2
					c-1.4,0.2-2.9,0.2-4.4,0.2c-5.9,0-11.6-1.2-16.7-3.5c-3.5-1.5-6.8-3.6-9.7-6c-6.3-5.2-11-12.1-13.4-20.1
					c-1.1-3.8-1.8-7.8-1.8-11.9v-21.3c0-3.7,3-6.7,6.7-6.7h190.6c2.5,0,4.7,1.4,5.9,3.5C310.7,138.3,311,139.4,311,140.6z"/>
				<path id="XMLID_2345_" class="st213" d="M182.1,133.9l-60,60c-6.3-5.2-11-12.1-13.4-20.1l39.9-39.9H182.1z"/>
				<path id="XMLID_2343_" class="st213" d="M222.1,133.9l-69.2,69.2c-1.4,0.2-2.9,0.2-4.4,0.2c-5.9,0-11.6-1.2-16.7-3.5l66-66
					H222.1z"/>
				<path id="XMLID_2342_" class="st213" d="M297.9,133.9l-58,58c-7.5-4.8-16-7.8-24.9-8.6l49.4-49.4H297.9z"/>
				<path id="XMLID_2341_" class="st213" d="M311,140.6v20.3l-42.5,42.5c-6.9-0.2-13.4-2-19.1-5.2l60.8-60.8
					C310.7,138.3,311,139.4,311,140.6z"/>
			</g>
			<g id="XMLID_2332_">
				<path id="XMLID_2600_" class="st214" d="M403.1,172.5l-0.7,59.6l-0.3,22l-0.2,14l-0.3,21.9l-0.2,13.3l-0.6,46.9l-0.3,22.3
					l-0.2,12.9l-0.3,22.1l-0.8,60.5c-1.3,0.9-2.6,1.7-3.8,2.6c-10.5,6.8-21.4,12.9-32.9,18.1c-6.5,3-13.1,5.7-19.9,8.1
					c-0.7,0.2-1.3,0.5-2,0.7l-1.5-122.7L339,352l0-1.5l-0.8-60.6l-0.4-32.4l-0.3-22.8l-0.8-62.3c-0.2-18.2,7-35.7,19.9-48.4l0.2-0.2
					c1.2-1.2,2.5-2.2,3.9-3c0.3-0.2,0.7-0.4,1.1-0.6c0.2-0.1,0.3-0.2,0.5-0.2c0.5-0.2,0.9-0.4,1.4-0.6c2.2-0.8,4.5-1.1,6.8-1
					c1.5,0,2.9,0.3,4.3,0.7c0.2,0.1,0.4,0.1,0.7,0.2c0,0,0,0,0.1,0c0.2,0.1,0.4,0.1,0.7,0.2c0.2,0.1,0.5,0.2,0.7,0.3
					c0.4,0.2,0.9,0.4,1.3,0.6c0.1,0.1,0.2,0.1,0.4,0.2c0.2,0.1,0.3,0.2,0.5,0.3c0.2,0.1,0.4,0.2,0.6,0.4c0.3,0.2,0.7,0.4,1,0.7
					c0.7,0.5,1.4,1.1,2,1.7l0.2,0.2c6.1,6,10.9,13.1,14.3,20.8C401.3,153.5,403.2,162.9,403.1,172.5z"/>
				<path id="XMLID_2414_" class="st6" d="M381,122.1c-0.7,0.5-1.4,1.1-2,1.7l-0.2,0.2c-12.9,12.8-20.1,30.2-19.9,48.4l0.7,59.7
					l0.3,22.2l0.5,38.3l0.7,57.7l0.3,22.5l1.4,115.9c-6.5,3-13.1,5.7-19.9,8.1c-0.7,0.2-1.3,0.5-2,0.7l-1.5-122.7L339,352l0-1.5
					l-0.8-60.6l-0.4-32.4l-0.3-22.8l-0.8-62.3c-0.2-18.2,7-35.7,19.9-48.4l0.2-0.2c1.2-1.2,2.5-2.2,3.9-3c0.3-0.2,0.7-0.4,1.1-0.6
					c0.2-0.1,0.3-0.2,0.5-0.2c0.5-0.2,0.9-0.4,1.4-0.6c2.2-0.8,4.5-1.1,6.8-1c1.5,0.1,2.9,0.3,4.3,0.7c0.2,0.1,0.4,0.1,0.7,0.2
					c0,0,0,0,0.1,0c0.2,0.1,0.4,0.1,0.7,0.2c0.2,0.1,0.5,0.2,0.7,0.3c0.4,0.2,0.9,0.4,1.3,0.6c0.1,0.1,0.2,0.1,0.4,0.2
					c0.2,0.1,0.3,0.2,0.5,0.3c0.2,0.1,0.4,0.2,0.6,0.4C380.3,121.6,380.6,121.9,381,122.1z"/>
				<path id="XMLID_2335_" class="st16" d="M401.9,268l-0.3,21.9c-13.7-2.1-26-11.2-31.4-25c-3.7-9.5-14.5-14.3-24-10.6l-6.2,2.4
					c-0.7,0.3-1.5,0.5-2.2,0.8l-0.3-22.8l1-0.4c20.5-8,43.8,2.2,51.7,22.8C392.4,262.5,396.8,266.4,401.9,268z"/>
				<path id="XMLID_2334_" class="st16" d="M400.5,385.4l-0.3,22.1c-13.1-2.5-24.7-11.5-29.9-24.8c-3.7-9.5-14.5-14.3-24-10.6
					l-6.2,2.4c-0.3,0.1-0.5,0.2-0.8,0.3L339,352c20.4-7.6,43.3,2.6,51.2,23C392.2,379.9,396,383.5,400.5,385.4z"/>
			</g>
			<g id="XMLID_2326_">
				<path id="XMLID_2622_" class="st214" d="M458.2,172.5l-1.2,94.8l0,0.8l-0.3,21.9l-0.1,3.7l-0.5,43.4l-0.2,19.5l-0.4,28.9
					l-0.3,22.1l-0.1,9.3c-11.2,13.9-23.9,26.6-37.8,37.9c-5.8,4.7-11.8,9.2-17.9,13.3c-1.3,0.9-2.6,1.7-3.8,2.6l-0.8-64.5l-0.3-24.7
					v0l-0.1-6.6l-0.3-22.9l-0.5-43.5l-0.3-20.8l-0.3-25.8l-0.1-4.4l-0.3-22.8l-0.8-62.3c-0.1-9.6,1.8-19,5.6-27.6
					c3.4-7.7,8.2-14.8,14.3-20.8l0.2-0.2c1.2-1.2,2.5-2.2,3.9-3c0.3-0.2,0.7-0.4,1.1-0.6c0.2-0.1,0.3-0.2,0.5-0.2
					c0.5-0.2,0.9-0.4,1.4-0.6c2.2-0.8,4.5-1.1,6.8-1c1.4,0,2.9,0.3,4.3,0.7c0.2,0.1,0.5,0.1,0.7,0.2c0,0,0,0,0.1,0
					c0.2,0.1,0.4,0.1,0.7,0.2c0.2,0.1,0.5,0.2,0.7,0.3c0.5,0.2,0.9,0.4,1.3,0.6c0.1,0.1,0.2,0.1,0.4,0.2c0.2,0.1,0.3,0.2,0.5,0.3
					c0.2,0.1,0.4,0.2,0.6,0.4c0.3,0.2,0.7,0.4,1,0.7c0.7,0.5,1.4,1.1,2,1.7l0.2,0.2C451.2,136.8,458.4,154.3,458.2,172.5z"/>
				<path id="XMLID_2601_" class="st6" d="M436.1,122.1c-0.7,0.5-1.4,1.1-2,1.7l-0.2,0.2c-12.9,12.8-20.1,30.2-19.9,48.4l0.7,59.7
					l0.3,22.2l0.4,31.5l0.4,29l0,0.9l0.2,20.2c0,0,0,0,0,0l0.2,14.4l0.3,22.5l1,81.8c-5.8,4.7-11.8,9.2-17.9,13.3
					c-1.3,0.9-2.6,1.7-3.8,2.6l-0.8-64.5l-0.3-24.7v0l-0.1-6.6l-0.3-22.9l-0.5-43.5l-0.2-20.8l-0.3-25.8l-0.1-4.4l-0.3-22.8
					l-0.8-62.3c-0.1-9.6,1.8-19,5.6-27.6c3.4-7.7,8.2-14.8,14.3-20.8l0.2-0.2c1.2-1.2,2.5-2.2,3.9-3c0.3-0.2,0.7-0.4,1.1-0.6
					c0.2-0.1,0.3-0.2,0.5-0.2c0.5-0.2,0.9-0.4,1.4-0.6c2.2-0.8,4.5-1.1,6.8-1c1.4,0.1,2.9,0.3,4.3,0.7c0.2,0.1,0.5,0.1,0.7,0.2
					c0,0,0,0,0.1,0c0.2,0.1,0.4,0.1,0.7,0.2c0.2,0.1,0.5,0.2,0.7,0.3c0.5,0.2,0.9,0.4,1.3,0.6c0.1,0.1,0.2,0.1,0.4,0.2
					c0.2,0.1,0.3,0.2,0.5,0.3c0.2,0.1,0.4,0.2,0.6,0.4C435.4,121.6,435.7,121.9,436.1,122.1z"/>
				<path id="XMLID_2328_" class="st16" d="M457,268l-0.3,21.9c-13.7-2.1-26-11.2-31.4-25c-3.7-9.5-14.5-14.3-24-10.6l-6.2,2.4
					c-0.7,0.3-1.5,0.5-2.2,0.8l-0.3-22.8l1-0.4c20.5-8,43.8,2.2,51.7,22.8C447.5,262.5,451.9,266.4,457,268z"/>
				<path id="XMLID_2327_" class="st16" d="M455.6,385.4l-0.3,22.1c-13.1-2.5-24.7-11.5-29.9-24.8c-3.7-9.5-14.5-14.3-24-10.6
					l-6.2,2.4c-0.3,0.1-0.5,0.2-0.8,0.3l-0.3-22.9c20.4-7.6,43.3,2.6,51.2,23C447.3,379.9,451.1,383.5,455.6,385.4z"/>
			</g>
			<rect id="XMLID_2325_" x="256.8" y="313" class="st23" width="7.5" height="137.5"/>
			<path id="XMLID_2301_" class="st8" d="M260.6,469L260.6,469c-2.1,0-3.8-1.7-3.8-3.8v-14.7h7.5v14.7
				C264.3,467.3,262.7,469,260.6,469z"/>
			<rect id="XMLID_2258_" x="152.5" y="313" class="st23" width="7.5" height="137.5"/>
			<path id="XMLID_2295_" class="st8" d="M156.2,469L156.2,469c-2.1,0-3.8-1.7-3.8-3.8v-14.7h7.5v14.7
				C160,467.3,158.3,469,156.2,469z"/>
			<path id="XMLID_2299_" class="st20" d="M468.2,356.4h-22.8c-17.4,0-31.4-14.1-31.4-31.4v0c0-17.4,14.1-31.4,31.4-31.4h22.8
				c7,0,12.7,5.7,12.7,12.7v37.5C480.9,350.8,475.2,356.4,468.2,356.4z"/>
			<path id="XMLID_2300_" class="st21" d="M480.9,324.3v19.5c0,7-5.7,12.7-12.7,12.7h-22.8c-17.4,0-31.4-14.1-31.4-31.4
				c0-3.4,0.5-6.7,1.5-9.7c4.1,12.6,15.9,21.7,29.9,21.7h22.8C475.2,337,480.9,331.3,480.9,324.3z"/>
		</g>
	</g>
</g>
</svg>
