<?xml version="1.0" encoding="utf-8"?>
<!-- Generator: Adobe Illustrator 22.0.1, SVG Export Plug-In . SVG Version: 6.00 Build 0)  -->
<svg version="1.1" xmlns="http://www.w3.org/2000/svg" xmlns:xlink="http://www.w3.org/1999/xlink" x="0px" y="0px"
	 viewBox="0 0 512 512" style="enable-background:new 0 0 512 512;" xml:space="preserve">
<style type="text/css">
	.st0{fill:#E9B12D;}
	.st1{fill:#A9E7D8;}
	.st2{fill:#76CFB1;}
	.st3{fill:#AE6B5D;}
	.st4{fill:#7770D3;}
	.st5{fill:#5BA0F5;}
	.st6{fill:#DA4545;}
	.st7{fill:#89CCFC;}
	.st8{fill:#CD462A;}
	.st9{fill:#514896;}
	.st10{fill:#5493A0;}
	.st11{fill:#CC6B5C;}
	.st12{fill:#62AA8D;}
	.st13{fill:#8ABAAB;}
	.st14{fill:#C3791F;}
	.st15{fill:#E39123;}
	.st16{fill:#FFFFFF;}
	.st17{fill:none;stroke:#FFFFFF;stroke-width:10;stroke-linecap:round;stroke-miterlimit:10;}
	.st18{fill:none;stroke:#5F55AB;stroke-width:10;stroke-linecap:round;stroke-miterlimit:10;}
	.st19{fill:#A9671C;}
	.st20{fill:#D5B3A7;}
	.st21{fill:#C09A8F;}
	.st22{fill:#487F87;}
	.st23{fill:#1B305C;}
	.st24{fill:#172945;}
	.st25{fill:none;}
	.st26{fill:#B62A2A;}
	.st27{fill:#325859;}
	.st28{fill:#3F6E71;}
	.st29{fill:#284646;}
	.st30{fill:#8F2727;}
	.st31{fill:#29477C;}
	.st32{fill:#5B9BEE;}
	.st33{fill:#487FDE;}
	.st34{fill:#CD9829;}
	.st35{fill:#9F2A2A;}
	.st36{fill:#4C3328;}
	.st37{fill:#E8B94A;}
	.st38{fill:#DDF8F1;}
	.st39{fill:#3E2A22;}
	.st40{fill:#D3A971;}
	.st41{fill:#C79A5B;}
	.st42{fill:#233E76;}
	.st43{fill:#21395F;}
	.st44{fill:#487D82;}
	.st45{fill:none;stroke:#C79A5B;stroke-width:10;stroke-linecap:round;stroke-miterlimit:10;}
	.st46{fill:#5E3E31;}
	.st47{fill:#AC3939;}
	.st48{fill:#CA9628;}
	.st49{fill:#AF8F88;}
	.st50{fill:#815048;}
	.st51{fill:#6F4232;}
	.st52{fill:#5F55AB;}
	.st53{fill:#192A48;}
	.st54{fill:#152336;}
	.st55{fill:#192B49;}
	.st56{fill:#264173;}
	.st57{fill:#B06F1E;}
	.st58{fill:#4E88C0;}
	.st59{fill:#83C3F1;}
	.st60{fill:#CF9929;}
	.st61{fill:none;stroke:#FFFFFF;stroke-width:10;stroke-linecap:round;stroke-linejoin:round;stroke-miterlimit:10;}
	.st62{fill:#EAC262;}
	.st63{fill:#D6D5D4;}
	.st64{fill:#6BBA9B;}
	.st65{fill:#63AA8F;}
	.st66{fill:none;stroke:#3E2A22;stroke-width:10;stroke-linecap:round;stroke-miterlimit:10;}
	.st67{fill:#CA7D1F;}
	.st68{fill:#213B64;}
	.st69{fill:#CDF8EC;}
	.st70{fill:#C59125;}
	.st71{fill:none;stroke:#C09A8F;stroke-width:10;stroke-linecap:round;stroke-miterlimit:10;}
	.st72{fill:#32579B;}
	.st73{fill:#172843;}
	.st74{fill:#D66767;}
	.st75{fill:#A74949;}
	.st76{fill:#EBC76F;}
	.st77{fill:#7A4940;}
	.st78{fill:#182A48;}
	.st79{fill:none;stroke:#A0794A;stroke-width:10;stroke-linecap:round;stroke-miterlimit:10;}
	.st80{fill:#C37A20;}
	.st81{fill:#D26D5C;}
	.st82{fill:#A45752;}
	.st83{fill:#284579;}
	.st84{fill:#88C7F4;}
	.st85{fill:#6EB6F0;}
	.st86{fill:#32221E;}
	.st87{fill:#E7A6A6;}
	.st88{fill:#C59191;}
	.st89{fill:#AA3B3B;}
	.st90{fill:#B83E3E;}
	.st91{fill:none;stroke:#5F55A9;stroke-width:10;stroke-linecap:round;stroke-miterlimit:10;}
	.st92{fill:#963838;}
	.st93{fill:#402B25;}
	.st94{fill:#6B6ABA;}
	.st95{fill:#BABABA;}
	.st96{fill:#D1D1D1;}
	.st97{fill:#264377;}
	.st98{fill:#A19BF5;}
	.st99{fill:#3C2A21;}
	.st100{fill:none;stroke:#4C3328;stroke-width:10;stroke-linecap:round;stroke-miterlimit:10;}
	.st101{fill:#C1781F;}
	.st102{fill:#E3A147;}
	.st103{fill:#F2D2A1;}
	.st104{fill:#4F372D;}
	.st105{fill:none;stroke:#DA4545;stroke-width:10;stroke-linecap:round;stroke-miterlimit:10;}
	.st106{fill:#AA3928;}
	.st107{fill:#8C2C22;}
	.st108{fill:#BF4336;}
	.st109{fill:#5797D4;}
	.st110{fill:#CFCFCF;}
	.st111{fill:#613A2E;}
	.st112{fill:none;stroke:#B18653;stroke-width:10;stroke-linecap:round;stroke-miterlimit:10;}
	.st113{fill:#B13B3B;}
	.st114{fill:#16263A;}
	.st115{fill:none;stroke:#16263A;stroke-width:10;stroke-miterlimit:10;}
	.st116{fill:#C87D20;}
	.st117{fill:#E4F0FD;}
	.st118{fill:#AA3737;}
	.st119{fill:#BF771F;}
	.st120{fill:none;stroke:#CD462A;stroke-width:10;stroke-linejoin:round;stroke-miterlimit:10;}
	.st121{fill:#5696D2;}
	.st122{fill:#C0771E;}
	.st123{fill:#9B5F1B;}
	.st124{fill:#A83A29;}
	.st125{fill:#E7A74F;}
	.st126{fill:#C9924C;}
	.st127{fill:#C58E48;}
	.st128{fill:#BE8844;}
	.st129{fill:#916939;}
	.st130{fill:#264275;}
	.st131{fill:#253F65;}
	.st132{fill:#182A45;}
	.st133{fill:#162336;}
	.st134{fill:#93C7B7;}
	.st135{fill:#E6A4A4;}
	.st136{fill:#B06B1D;}
	.st137{fill:#484185;}
	.st138{fill:#DB6E6E;}
	.st139{fill:#6BBA9A;}
	.st140{fill:#CACCCC;}
	.st141{fill:#D4D4D4;}
	.st142{fill:#A98881;}
	.st143{fill:#213A62;}
	.st144{fill:#A2837D;}
	.st145{fill:#6FB8F4;}
	.st146{fill:#9B9E9E;}
	.st147{fill:#B2B3B3;}
	.st148{fill:#20385D;}
	.st149{fill:#335AA8;}
	.st150{fill:#BCE7FD;}
	.st151{fill:#3B2921;}
	.st152{fill:#AD3C3C;}
	.st153{fill:#9D3838;}
	.st154{fill:#603F33;}
	.st155{fill:#4D868B;}
	.st156{fill:#A2DDFD;}
	.st157{fill:#ECB6B6;}
	.st158{fill:#E8A346;}
	.st159{fill:#514C94;}
	.st160{fill:#D2F1E8;}
	.st161{fill:#BDD6CE;}
	.st162{fill:#B93B29;}
	.st163{fill:#E0AD70;}
	.st164{fill:#C57C21;}
	.st165{fill:#EDA34A;}
	.st166{fill:#2F538F;}
	.st167{fill:#2B4B78;}
	.st168{fill:#65AF91;}
	.st169{fill:#A7CEFC;}
	.st170{fill:#98BDE2;}
	.st171{fill:#CFE5F7;}
	.st172{fill:#5492CD;}
	.st173{fill:#97CCBC;}
	.st174{fill:#5491CA;}
	.st175{fill:#EDC563;}
	.st176{fill:#423C79;}
	.st177{fill:#D3B1A5;}
	.st178{fill:#BE988D;}
	.st179{fill:#A7E5D6;}
	.st180{fill:#F2FFF9;}
	.st181{fill:#D64545;}
	.st182{fill:#A73B3B;}
	.st183{fill:#15233A;}
	.st184{fill:none;stroke:#BE988D;stroke-width:10;stroke-linecap:round;stroke-miterlimit:10;}
	.st185{fill:#AF3A29;}
	.st186{fill:#FAF9FF;}
	.st187{fill:#CACACC;}
	.st188{fill:#372720;}
	.st189{fill:#3F2C26;}
	.st190{fill:#2D201C;}
	.st191{fill:#3D6D6F;}
	.st192{fill:#5B54A8;}
	.st193{fill:#325799;}
	.st194{fill:#E8C26E;}
	.st195{fill:#254784;}
	.st196{fill:#5696D4;}
	.st197{fill:#4F8AB6;}
	.st198{fill:#5FA4AC;}
	.st199{fill:#AA3524;}
	.st200{fill:#D15F4D;}
	.st201{fill:#2B294C;}
	.st202{fill:#A43A2A;}
	.st203{fill:#E7AE2D;}
	.st204{fill:#CD9729;}
	.st205{fill:none;stroke:#AA8253;stroke-width:10;stroke-linecap:round;stroke-miterlimit:10;}
	.st206{fill:none;stroke:#E18F23;stroke-width:10;stroke-linecap:round;stroke-linejoin:round;stroke-miterlimit:10;}
	.st207{fill:#CF9828;}
	.st208{fill:#B88926;}
	.st209{fill:#A17623;}
	.st210{fill:#96CCBC;}
	.st211{fill:#CF9A2A;}
	.st212{fill:#C57B20;}
	.st213{fill:#C7F1E6;}
	.st214{fill:#DC6363;}
	.st215{fill:#E89F9F;}
	.st216{fill:#C88C8C;}
	.st217{fill:#C16E6E;}
	.st218{fill:#A46060;}
	.st219{fill:#AA3626;}
	.st220{fill:#87EDC4;}
	.st221{fill:#D86552;}
	.st222{fill:#BC7620;}
	.st223{fill:#BA741E;}
	.st224{fill:#8F8CE3;}
	.st225{fill:#3A2820;}
	.st226{fill:#AC7060;}
	.st227{fill:#915F55;}
	.st228{fill:#49332A;}
	.st229{fill:#2D1F1B;}
	.st230{fill:#69B7BE;}
	.st231{fill:#D6D6D6;}
	.st232{fill:#B8B8B8;}
	.st233{fill:#CACACA;}
	.st234{fill:#467B80;}
	.st235{fill:#C2EDE2;}
	.st236{fill:#A9574F;}
	.st237{fill:#5595D2;}
	.st238{fill:#955949;}
	.st239{fill:#7E4B42;}
	.st240{fill:#89CCF1;}
	.st241{fill:#DD584A;}
	.st242{fill:#C18F26;}
	.st243{fill:#B33C2A;}
	.st244{fill:#D1A771;}
	.st245{fill:#B42A2A;}
	.st246{fill:#325797;}
	.st247{fill:#9F3529;}
	.st248{fill:#EDCE80;}
	.st249{fill:#F0DBAC;}
	.st250{fill:#CFB478;}
	.st251{fill:#D4C29B;}
	.st252{fill:#993939;}
	.st253{fill:#D1AFA3;}
	.st254{fill:#BC968B;}
	.st255{fill:none;stroke:#BC968B;stroke-width:10;stroke-linecap:round;stroke-miterlimit:10;}
	.st256{fill:#814C3C;}
	.st257{fill:#C0EBE0;}
	.st258{fill:#A5E3D4;}
	.st259{fill:#15243C;}
	.st260{fill:#443E79;}
	.st261{fill:#F0FFF7;}
	.st262{fill:#9A764B;}
	.st263{fill:#826443;}
	.st264{fill:#D9AA74;}
	.st265{fill:#5DA186;}
	.st266{fill:#68B596;}
	.st267{fill:#E5C6BE;}
	.st268{fill:#D3B6B1;}
	.st269{fill:none;stroke:#BAA09C;stroke-width:10;stroke-linecap:round;stroke-miterlimit:10;}
	.st270{fill:#F4D78F;}
	.st271{fill:#20385F;}
	.st272{fill:#BA8727;}
	.st273{fill:#5A9C82;}
	.st274{fill:none;stroke:#E39123;stroke-width:10;stroke-linecap:round;stroke-linejoin:round;stroke-miterlimit:10;}
	.st275{fill:#60392D;}
	.st276{fill:#CCCCCC;}
	.st277{fill:#844F3E;}
	.st278{fill:#F3FFFB;}
	.st279{fill:#365E60;}
	.st280{fill:#D84545;}
	.st281{fill:#A83B3B;}
	.st282{fill:#253F70;}
	.st283{fill:#EAADAD;}
	.st284{fill:#443E7C;}
	.st285{fill:#3D6B9F;}
	.st286{fill:#4274BC;}
	.st287{fill:#AF3827;}
	.st288{fill:#E59D9D;}
	.st289{fill:#C48989;}
	.st290{fill:none;stroke:#9B621A;stroke-width:10;stroke-linecap:round;stroke-linejoin:round;stroke-miterlimit:10;}
	.st291{fill:#213A5E;}
	.st292{fill:#2D507A;}
	.st293{fill:#528EC8;}
	.st294{fill:#EFD696;}
	.st295{fill:#D1BA87;}
	.st296{fill:#FDFCFC;}
	.st297{fill:#86CBFC;}
	.st298{fill:#7AB7DA;}
	.st299{fill:#192C4C;}
	.st300{fill:#BCBCBC;}
	.st301{fill:#A13838;}
	.st302{fill:#75BDF6;}
	.st303{fill:#D0B1AA;}
	.st304{fill:#142233;}
	.st305{fill:#E6C4BB;}
	.st306{fill:#BDBDBD;}
	.st307{fill:#E8A192;}
	.st308{fill:#A43939;}
	.st309{fill:#162640;}
	.st310{fill:#27457C;}
	.st311{fill:#EFBE5E;}
	.st312{fill:#87EDC5;}
	.st313{fill:#A03838;}
	.st314{fill:#833232;}
	.st315{fill:#47417F;}
	.st316{fill:none;stroke:#915F55;stroke-width:10;stroke-linecap:round;stroke-miterlimit:10;}
	.st317{fill:#BC8B25;}
	.st318{fill:#473129;}
	.st319{fill:#67B394;}
	.st320{fill:#599A80;}
	.st321{fill:#B13D3D;}
</style>
<g id="BULINE">
	<circle id="XMLID_2120_" class="st9" cx="256" cy="256" r="256"/>
	<g>
	</g>
</g>
<g id="Icons">
	<g id="XMLID_2428_">
		<path id="XMLID_2810_" class="st192" d="M504.8,195.7c-19.8,51.4-57.5,93.8-105.4,119.8c-8.3,4.5-16.9,8.5-25.8,11.9
			c-6.2,2.4-12.6,4.6-19.1,6.5c-20.4,5.9-42,9.1-64.3,9.1c-32.9,0-64.2-6.9-92.5-19.4c-4.1-1.8-8.2-3.8-12.2-5.8
			c-0.3-0.1-0.5-0.3-0.8-0.4c-7.7-4-15.1-8.4-22.2-13.2c-3.3-2.2-6.6-4.6-9.8-7c-0.1-0.1-0.1-0.1-0.2-0.1
			c-21.5-16.1-40.1-35.9-54.8-58.5C74,202.5,60.3,159.4,60.3,113c0-0.3,0-0.6,0-0.9c0-0.1,0-0.1,0-0.2v0c0-7.5,0.4-14.9,1.2-22.3
			c0.6-5.8,1.4-11.6,2.4-17.3c0.4-2.4,0.9-4.9,1.4-7.3c1.6-7.6,3.6-15,5.9-22.3c0,0,0-0.1,0-0.1c0-0.1,0.1-0.2,0.1-0.2
			c0.3-1.1,0.7-2.1,1-3.2c1.2-0.7,2.4-1.2,3.8-1.6c6.6-6.3,14-11.6,22.1-15.8c0,0,0,0,0,0c2.7-1.4,5.5-2.7,8.4-3.9
			c1.2-0.5,2.4-0.9,3.6-1.4c2.6-0.9,5.2-1.7,7.8-2.4c2.1-0.5,4.2-1,6.3-1.4c4-0.7,8-1.2,12.2-1.4c1.7-0.1,3.4-0.1,5.1-0.1h39.3
			C204.6,3.9,229.8,0,256,0C376.6,0,477.7,83.4,504.8,195.7z"/>
		<g id="XMLID_2429_">
			<rect id="XMLID_2577_" x="359.9" y="365" class="st0" width="55.8" height="51.4"/>
			<path id="XMLID_2578_" class="st5" d="M308.4,396.1v102.3c-1.9,1.2-3.8,2.4-5.8,3.5c-1.6,0.9-3.2,1.9-4.8,2.8
				c-2.5,1.4-5,2.8-7.6,4.1c-0.7,0.4-1.4,0.8-2.1,1.1c-9.6,1.2-19.3,1.9-29.2,2c-1,0-1.9,0-2.9,0c-3.7,0-7.4-0.1-11.1-0.2
				c-11-0.5-21.7-1.6-32.3-3.4c-31.6-5.4-61.2-16.6-87.7-32.4c-26.3-15.7-49.6-36-68.6-59.8c-10.4-13-19.6-27-27.4-41.9l0,0
				c0.3-0.6,0.6-1.3,1-1.9c0.1-0.1,0.1-0.2,0.2-0.3c0.3-0.5,0.5-0.9,0.8-1.4c0.3-0.5,0.6-0.9,0.9-1.4c0,0,0,0,0,0
				c0.3-0.5,0.6-0.9,0.9-1.4c0.3-0.5,0.7-0.9,1-1.4c0.3-0.5,0.7-0.9,1-1.3c0.3-0.4,0.6-0.7,0.9-1.1c0.3-0.3,0.5-0.6,0.8-0.9
				c0-0.1,0.1-0.1,0.1-0.2c0.3-0.3,0.6-0.6,0.9-0.9c0.3-0.3,0.5-0.6,0.8-0.8c0.7-0.7,1.4-1.4,2.1-2c0.3-0.3,0.7-0.6,1-0.9
				c0.3-0.3,0.6-0.5,1-0.8c0.1,0,0.1-0.1,0.2-0.1c0.3-0.3,0.7-0.5,1-0.8c0.3-0.2,0.6-0.5,1-0.7c0.4-0.3,0.9-0.6,1.4-1
				c0.3-0.2,0.7-0.5,1.1-0.7c0.4-0.2,0.8-0.5,1.2-0.7c0.8-0.4,1.5-0.9,2.3-1.3c0.4-0.2,0.9-0.5,1.3-0.7c0.3-0.1,0.6-0.3,0.8-0.4
				c1.5-0.7,3-1.3,4.6-1.9c0.3-0.1,0.7-0.2,1-0.4c0.4-0.1,0.9-0.3,1.3-0.4c0.4-0.1,0.7-0.2,1.1-0.3c1.6-0.4,3.2-0.8,4.8-1.1
				c0.4-0.1,0.7-0.1,1.1-0.2c0.4-0.1,0.9-0.1,1.3-0.2c0.3,0,0.7-0.1,1-0.1c0.3,0,0.6-0.1,1-0.1c0.3,0,0.7-0.1,1-0.1
				c0.4,0,0.8,0,1.1-0.1c0.2,0,0.4,0,0.5,0c0.4,0,0.9,0,1.3,0h184.7c0.9,0,1.7,0,2.6,0.1c0.3,0,0.6,0,1,0.1c0.2,0,0.4,0,0.7,0
				c0.4,0,0.8,0.1,1.1,0.1c0.3,0,0.6,0.1,0.9,0.1c0.6,0.1,1.1,0.1,1.6,0.2c0.3,0,0.7,0.1,1,0.2c0.4,0.1,0.8,0.1,1.2,0.2
				c0.3,0.1,0.7,0.1,1,0.2c0.1,0,0.2,0,0.2,0.1c0.4,0.1,0.8,0.2,1.2,0.3c0.2,0.1,0.5,0.1,0.7,0.2c0.3,0.1,0.6,0.2,0.9,0.2
				c0.1,0,0.3,0.1,0.4,0.1c0.3,0.1,0.6,0.2,0.9,0.3c0,0,0,0,0,0c0.2,0.1,0.4,0.1,0.6,0.2c0.4,0.1,0.8,0.3,1.2,0.4
				c0.3,0.1,0.7,0.2,1,0.4c0.8,0.3,1.6,0.7,2.4,1c0.3,0.1,0.6,0.3,0.8,0.4c0.1,0,0.2,0.1,0.3,0.2c0.6,0.3,1.2,0.6,1.8,0.9
				c0,0,0,0,0.1,0c0.1,0.1,0.2,0.1,0.3,0.2c0.1,0.1,0.2,0.1,0.3,0.2h0c0.1,0.1,0.3,0.2,0.4,0.2c0.7,0.4,1.5,0.9,2.2,1.4
				c0.7,0.4,1.3,0.9,2,1.3c0.6,0.4,1.2,0.9,1.9,1.4c0,0,0,0,0,0c0.2,0.1,0.3,0.2,0.5,0.4c0.1,0.1,0.2,0.1,0.2,0.2
				c0.1,0.1,0.1,0.1,0.2,0.2c0,0,0,0,0,0c0.2,0.1,0.3,0.3,0.5,0.4c0.2,0.1,0.3,0.3,0.5,0.4c0.1,0.1,0.2,0.2,0.3,0.3l0.2,0.2
				c0.4,0.4,0.7,0.7,1.1,1c0,0,0,0,0,0c0.2,0.2,0.4,0.4,0.6,0.6c0.5,0.5,1,1.1,1.6,1.6s1,1.1,1.5,1.7c0.5,0.6,1,1.2,1.4,1.7
				c0.5,0.6,0.9,1.2,1.3,1.8c0.4,0.6,0.9,1.2,1.3,1.9c0.4,0.6,0.8,1.3,1.2,1.9c0.2,0.4,0.4,0.8,0.6,1.2c0.1,0.3,0.3,0.5,0.4,0.8
				c0,0.1,0,0.1,0.1,0.1c0.1,0.2,0.2,0.4,0.3,0.6c0.1,0.3,0.3,0.6,0.4,0.9c0,0,0,0,0,0c0.1,0.1,0.1,0.2,0.2,0.3c0,0,0,0.1,0.1,0.1
				c0,0,0.1,0.1,0.1,0.1c0.2,0.5,0.5,1,0.7,1.6c0.1,0.2,0.2,0.4,0.3,0.7c0.2,0.4,0.3,0.8,0.4,1.2c0.2,0.6,0.4,1.3,0.7,1.9
				c0,0.1,0.1,0.2,0.1,0.3c0.1,0.2,0.1,0.4,0.2,0.6c0.1,0.3,0.2,0.5,0.2,0.8c0.1,0.3,0.2,0.6,0.3,0.9c0.1,0.4,0.2,0.8,0.3,1.2
				c0.1,0.3,0.2,0.7,0.2,1c0.2,0.8,0.3,1.6,0.4,2.3c0,0.2,0.1,0.5,0.1,0.8c0,0.2,0.1,0.5,0.1,0.8c0.1,0.7,0.2,1.3,0.2,2
				C308.4,393.2,308.4,394.7,308.4,396.1z"/>
			<path id="XMLID_2575_" class="st40" d="M176.3,368.6h-19.8c-11.8,0-21.4-9.6-21.4-21.4v-29c0-11.8,9.6-21.4,21.4-21.4h19.8
				c11.8,0,21.4,9.6,21.4,21.4v29C197.7,359,188.1,368.6,176.3,368.6z"/>
			<path id="XMLID_2574_" class="st41" d="M177.3,368.4c-1.1,0.1-2.2,0.2-3.4,0.2h-16.1c-12.9,0-23.3-8.8-23.3-19.7v-32.5
				c0-10.9,10.4-19.7,23.3-19.7H174c1.1,0,2.3,0.1,3.4,0.2c-11.3,1.4-19.9,9.6-19.9,19.5v32.5C157.4,358.8,166,367,177.3,368.4z"/>
			<path id="XMLID_2573_" class="st177" d="M124.2,311.6c-0.1,0-0.2-0.1-0.3-0.1C124,311.5,124.1,311.5,124.2,311.6z"/>
			<path id="XMLID_2572_" class="st177" d="M74.3,273.1c-2.9-4-5.6-8.1-8-12.5C68.7,265,71.3,269.1,74.3,273.1z"/>
			<path id="XMLID_2571_" class="st177" d="M109.8,304.6c-0.3-0.2-0.6-0.3-0.9-0.5C109.2,304.3,109.5,304.5,109.8,304.6z"/>
			<path id="XMLID_2570_" class="st177" d="M135.2,315.2c-0.2,0-0.3-0.1-0.5-0.1C134.8,315.1,135,315.2,135.2,315.2z"/>
			<path id="XMLID_2569_" class="st177" d="M121.7,310.6c-0.2-0.1-0.4-0.2-0.6-0.3C121.3,310.4,121.5,310.5,121.7,310.6z"/>
			<path id="XMLID_2568_" class="st177" d="M77.2,276.9c-0.4-0.5-0.8-0.9-1.1-1.4C76.5,276,76.8,276.5,77.2,276.9z"/>
			<path id="XMLID_2567_" class="st177" d="M75.7,275c-0.4-0.5-0.8-1-1.2-1.6C74.9,273.9,75.3,274.5,75.7,275z"/>
			<path id="XMLID_2566_" class="st177" d="M63.7,255.8c-0.3-0.7-0.6-1.3-1-2C63.1,254.5,63.4,255.1,63.7,255.8z"/>
			<path id="XMLID_2565_" class="st177" d="M95.9,295.4c-0.2-0.2-0.4-0.3-0.6-0.5C95.5,295.1,95.7,295.2,95.9,295.4z"/>
			<path id="XMLID_2564_" class="st177" d="M62.6,253.5c-0.3-0.7-0.6-1.3-0.9-2C62,252.1,62.3,252.8,62.6,253.5z"/>
			<path id="XMLID_2563_" class="st177" d="M132.3,314.4c-0.1,0-0.1,0-0.2-0.1C132.1,314.3,132.2,314.4,132.3,314.4z"/>
			<path id="XMLID_2562_" class="st177" d="M64.9,258.1c-0.3-0.7-0.7-1.3-1-2C64.2,256.8,64.6,257.5,64.9,258.1z"/>
			<path id="XMLID_2561_" class="st177" d="M66.2,260.4c-0.4-0.7-0.7-1.3-1.1-2C65.4,259.1,65.8,259.8,66.2,260.4z"/>
			<path id="XMLID_2560_" class="st177" d="M85.8,286.5c-0.4-0.3-0.7-0.7-1-1.1C85.1,285.8,85.5,286.2,85.8,286.5z"/>
			<path id="XMLID_2559_" class="st177" d="M84,284.7c-0.4-0.4-0.7-0.7-1.1-1.1C83.3,283.9,83.7,284.3,84,284.7z"/>
			<path id="XMLID_2558_" class="st177" d="M91.6,291.8c-0.3-0.3-0.7-0.6-1-0.9C90.9,291.3,91.3,291.6,91.6,291.8z"/>
			<path id="XMLID_2557_" class="st177" d="M114.5,307.2c-0.3-0.1-0.6-0.3-0.8-0.4C113.9,306.9,114.2,307,114.5,307.2z"/>
			<path id="XMLID_2556_" class="st177" d="M87.7,288.3c-0.4-0.3-0.7-0.7-1-1C87,287.7,87.4,288,87.7,288.3z"/>
			<path id="XMLID_2555_" class="st177" d="M112.1,305.9c-0.3-0.2-0.6-0.3-0.9-0.5C111.5,305.6,111.8,305.8,112.1,305.9z"/>
			<path id="XMLID_2554_" class="st177" d="M80.5,280.8c-0.4-0.4-0.7-0.8-1.1-1.2C79.8,280,80.1,280.4,80.5,280.8z"/>
			<path id="XMLID_2553_" class="st177" d="M119.3,309.5c-0.2-0.1-0.5-0.2-0.7-0.3C118.8,309.3,119,309.4,119.3,309.5z"/>
			<path id="XMLID_2552_" class="st177" d="M78.8,278.9c-0.4-0.4-0.7-0.9-1.1-1.3C78.1,278,78.5,278.5,78.8,278.9z"/>
			<path id="XMLID_2551_" class="st177" d="M116.8,308.4c-0.3-0.1-0.5-0.3-0.8-0.4C116.3,308.1,116.6,308.2,116.8,308.4z"/>
			<path id="XMLID_2550_" class="st177" d="M93.6,293.5c-0.3-0.3-0.6-0.5-0.9-0.8C93,293,93.3,293.3,93.6,293.5z"/>
			<path id="XMLID_2549_" class="st177" d="M82.2,282.8c-0.4-0.4-0.7-0.8-1.1-1.2C81.5,282,81.9,282.4,82.2,282.8z"/>
			<path id="XMLID_2548_" class="st177" d="M146.2,317.7c-0.3,0-0.5-0.1-0.8-0.1C145.6,317.6,145.9,317.7,146.2,317.7z"/>
			<path id="XMLID_2547_" class="st177" d="M100.7,298.9c-0.3-0.2-0.5-0.4-0.8-0.6C100.2,298.5,100.4,298.7,100.7,298.9z"/>
			<path id="XMLID_2546_" class="st177" d="M143.4,317.2c-0.3-0.1-0.5-0.1-0.8-0.2C142.9,317.1,143.2,317.2,143.4,317.2z"/>
			<path id="XMLID_2545_" class="st177" d="M102.9,300.4c-0.3-0.2-0.6-0.4-0.8-0.6C102.4,300.1,102.6,300.3,102.9,300.4z"/>
			<path id="XMLID_2544_" class="st177" d="M148.9,318.2c-0.3,0-0.5-0.1-0.8-0.1C148.4,318.1,148.7,318.1,148.9,318.2z"/>
			<path id="XMLID_2543_" class="st177" d="M107.4,303.3c-0.3-0.2-0.6-0.4-0.9-0.5C106.9,302.9,107.2,303.1,107.4,303.3z"/>
			<path id="XMLID_2542_" class="st177" d="M89.6,290.1c-0.3-0.3-0.7-0.6-1-0.9C89,289.5,89.3,289.8,89.6,290.1z"/>
			<path id="XMLID_2541_" class="st177" d="M105.2,301.9c-0.3-0.2-0.6-0.4-0.9-0.5C104.6,301.5,104.9,301.7,105.2,301.9z"/>
			<path id="XMLID_2540_" class="st177" d="M59.6,246.4c-3.4-8.8-5.7-18.2-6.8-27.9C53.9,228.2,56.3,237.6,59.6,246.4z"/>
			<path id="XMLID_2538_" class="st177" d="M137.9,316c-0.2-0.1-0.4-0.1-0.7-0.2C137.5,315.9,137.7,315.9,137.9,316z"/>
			<path id="XMLID_2537_" class="st177" d="M98.5,297.3c-0.2-0.2-0.5-0.3-0.7-0.5C98,297,98.2,297.1,98.5,297.3z"/>
			<path id="XMLID_2536_" class="st177" d="M60.6,248.7c-0.3-0.7-0.6-1.5-0.9-2.2C60,247.3,60.3,248,60.6,248.7z"/>
			<path id="XMLID_2535_" class="st177" d="M140.7,316.6c-0.2-0.1-0.5-0.1-0.7-0.2C140.2,316.5,140.4,316.6,140.7,316.6z"/>
			<path id="XMLID_2534_" class="st177" d="M61.6,251.1c-0.3-0.7-0.6-1.4-0.9-2.1C61,249.7,61.3,250.4,61.6,251.1z"/>
			<path id="XMLID_2533_" class="st40" d="M284.5,172.2c-0.7-0.1-1.5-0.2-2.3-0.2h-2.6v-17.7c0-37.5-18.1-70.7-46.1-91.4
				c-7.7,12.8-27.7,35.1-76.9,47c-5.7,1.4-10.5-4.4-8.1-9.8c4.4-10,9.4-24.2,9.1-36.9c-0.2-7-9.5-9.3-12.8-3.1
				c-4.7,8.6-12.1,19-23.3,25.7c-2,1.2-4.2,1.3-6.1,0.5c-14.2,19-22.6,42.5-22.6,68.1v45.2v6.2c0,55.9,40.3,102.4,93.4,112
				c49-8.8,87.2-49.1,92.8-99.2h3.3c8.7,0,15.7-7,15.7-15.7v-15C298,179.8,292.2,173.3,284.5,172.2z"/>
			<path id="XMLID_2531_" class="st178" d="M108.9,304.1c-0.5-0.3-1-0.6-1.4-0.8C107.9,303.6,108.4,303.9,108.9,304.1z"/>
			<path id="XMLID_2530_" class="st178" d="M106.6,302.8c-0.5-0.3-0.9-0.6-1.4-0.9C105.6,302.2,106.1,302.5,106.6,302.8z"/>
			<path id="XMLID_2529_" class="st178" d="M111.2,305.5c-0.5-0.3-1-0.5-1.5-0.8C110.2,304.9,110.7,305.2,111.2,305.5z"/>
			<path id="XMLID_2528_" class="st178" d="M140,316.5c-0.7-0.2-1.3-0.3-2-0.5C138.6,316.2,139.3,316.3,140,316.5z"/>
			<path id="XMLID_2527_" class="st178" d="M142.6,317.1c-0.7-0.1-1.3-0.3-2-0.4C141.3,316.8,142,316.9,142.6,317.1z"/>
			<path id="XMLID_2526_" class="st178" d="M137.3,315.8c-0.7-0.2-1.4-0.4-2.1-0.6C135.9,315.4,136.6,315.6,137.3,315.8z"/>
			<path id="XMLID_2525_" class="st178" d="M145.4,317.6c-0.6-0.1-1.3-0.2-1.9-0.4C144.1,317.4,144.7,317.5,145.4,317.6z"/>
			<path id="XMLID_2524_" class="st178" d="M150.9,318.5c-0.7-0.1-1.3-0.2-2-0.3C149.6,318.3,150.3,318.4,150.9,318.5z"/>
			<path id="XMLID_2523_" class="st178" d="M113.6,306.7c-0.5-0.3-1-0.5-1.5-0.8C112.6,306.2,113.1,306.5,113.6,306.7z"/>
			<path id="XMLID_2522_" class="st178" d="M134.6,315.1c-0.8-0.2-1.6-0.5-2.4-0.7C133,314.6,133.8,314.9,134.6,315.1z"/>
			<path id="XMLID_2521_" class="st178" d="M148.1,318.1c-0.7-0.1-1.3-0.2-2-0.3C146.8,317.9,147.5,318,148.1,318.1z"/>
			<path id="XMLID_2520_" class="st178" d="M132,314.3c-2.6-0.8-5.3-1.7-7.8-2.8C126.8,312.6,129.4,313.5,132,314.3z"/>
			<path id="XMLID_2519_" class="st178" d="M118.6,309.2c-0.6-0.3-1.1-0.5-1.7-0.8C117.4,308.6,118,308.9,118.6,309.2z"/>
			<path id="XMLID_2518_" class="st178" d="M116.1,308c-0.5-0.3-1.1-0.5-1.6-0.8C115,307.4,115.5,307.7,116.1,308z"/>
			<path id="XMLID_2517_" class="st178" d="M121.1,310.3c-0.6-0.3-1.2-0.5-1.9-0.8C119.9,309.8,120.5,310,121.1,310.3z"/>
			<path id="XMLID_2516_" class="st178" d="M123.9,311.5c-0.7-0.3-1.5-0.6-2.2-0.9C122.5,310.9,123.2,311.2,123.9,311.5z"/>
			<path id="XMLID_2515_" class="st178" d="M61.7,251.4c-0.1-0.1-0.1-0.2-0.1-0.3C61.6,251.2,61.7,251.3,61.7,251.4z"/>
			<path id="XMLID_2514_" class="st178" d="M104.3,301.3c-0.5-0.3-0.9-0.6-1.4-0.9C103.4,300.7,103.8,301,104.3,301.3z"/>
			<path id="XMLID_2513_" class="st178" d="M59.7,246.5c0-0.1,0-0.1-0.1-0.2C59.7,246.4,59.7,246.5,59.7,246.5z"/>
			<path id="XMLID_2512_" class="st178" d="M65.1,258.4c-0.1-0.1-0.1-0.2-0.2-0.3C65,258.2,65,258.3,65.1,258.4z"/>
			<path id="XMLID_2511_" class="st178" d="M62.8,253.8c-0.1-0.1-0.1-0.2-0.2-0.4C62.7,253.6,62.7,253.7,62.8,253.8z"/>
			<path id="XMLID_2510_" class="st178" d="M63.9,256.2c-0.1-0.1-0.1-0.2-0.2-0.3C63.8,255.9,63.9,256,63.9,256.2z"/>
			<path id="XMLID_2509_" class="st178" d="M66.3,260.6c0-0.1-0.1-0.1-0.1-0.2C66.2,260.5,66.2,260.6,66.3,260.6z"/>
			<path id="XMLID_2508_" class="st178" d="M60.7,249c0-0.1-0.1-0.2-0.1-0.3C60.6,248.8,60.6,248.9,60.7,249z"/>
			<path id="XMLID_2507_" class="st178" d="M92.7,292.8c-0.4-0.3-0.7-0.6-1.1-0.9C92,292.2,92.3,292.5,92.7,292.8z"/>
			<path id="XMLID_2506_" class="st178" d="M90.6,291c-0.3-0.3-0.6-0.6-1-0.9C90,290.4,90.3,290.7,90.6,291z"/>
			<path id="XMLID_2505_" class="st178" d="M95.3,294.9c-0.6-0.5-1.1-0.9-1.7-1.4C94.2,294,94.8,294.5,95.3,294.9z"/>
			<path id="XMLID_2504_" class="st178" d="M74.5,273.4c-0.1-0.1-0.1-0.2-0.2-0.3C74.3,273.2,74.4,273.3,74.5,273.4z"/>
			<path id="XMLID_2503_" class="st178" d="M88.6,289.2c-0.3-0.3-0.6-0.6-0.9-0.8C88,288.6,88.3,288.9,88.6,289.2z"/>
			<path id="XMLID_2502_" class="st178" d="M99.9,298.4c-0.5-0.3-1-0.7-1.4-1C98.9,297.7,99.4,298,99.9,298.4z"/>
			<path id="XMLID_2501_" class="st178" d="M97.7,296.8c-0.6-0.5-1.2-0.9-1.8-1.4C96.5,295.9,97.1,296.3,97.7,296.8z"/>
			<path id="XMLID_2500_" class="st178" d="M102.1,299.9c-0.5-0.3-0.9-0.6-1.4-1C101.2,299.2,101.6,299.6,102.1,299.9z"/>
			<path id="XMLID_2499_" class="st178" d="M77.7,277.6c-0.2-0.2-0.4-0.4-0.5-0.7C77.4,277.1,77.6,277.4,77.7,277.6z"/>
			<path id="XMLID_2498_" class="st178" d="M76.1,275.5c-0.1-0.2-0.3-0.4-0.4-0.5C75.8,275.2,75.9,275.3,76.1,275.5z"/>
			<path id="XMLID_2497_" class="st178" d="M86.7,287.3c-0.3-0.3-0.6-0.5-0.8-0.8C86.1,286.8,86.4,287.1,86.7,287.3z"/>
			<path id="XMLID_2496_" class="st178" d="M79.4,279.6c-0.2-0.2-0.4-0.5-0.6-0.7C79,279.1,79.2,279.4,79.4,279.6z"/>
			<path id="XMLID_2495_" class="st178" d="M84.8,285.5c-0.3-0.3-0.5-0.5-0.8-0.8C84.3,284.9,84.5,285.2,84.8,285.5z"/>
			<path id="XMLID_2494_" class="st178" d="M81.2,281.6c-0.2-0.3-0.5-0.5-0.7-0.8C80.7,281.1,80.9,281.3,81.2,281.6z"/>
			<path id="XMLID_2493_" class="st178" d="M83,283.5c-0.2-0.3-0.5-0.5-0.7-0.8C82.5,283,82.7,283.3,83,283.5z"/>
			<path id="XMLID_2492_" class="st178" d="M112.8,53.6C112.8,53.6,112.8,53.6,112.8,53.6c-36.1,19.1-60.7,57-60.7,100.6v0
				C52.1,110.6,76.7,72.7,112.8,53.6z"/>
			<path id="XMLID_2491_" class="st41" d="M92.7,205.7v-6.2v-45.2c0-25.5,8.4-49.1,22.6-68.1c-3.1-1.2-5.3-4.6-4.4-8.4
				c1.9-7.8,3.4-17.3,1.8-24.2c-36.1,19.1-60.7,57-60.7,100.6V172H50c-1.4,0-2.8,0.2-4.1,0.5c-6.7,1.8-11.7,7.9-11.7,15.2v15
				c0,8.7,7,15.7,15.7,15.7h2.9c0,0,0,0,0,0c1.1,9.7,3.4,19,6.8,27.9c0,0.1,0,0.1,0.1,0.2c0.3,0.7,0.6,1.5,0.9,2.2
				c0,0.1,0.1,0.2,0.1,0.3c0.3,0.7,0.6,1.4,0.9,2.1c0,0.1,0.1,0.2,0.1,0.3c0.3,0.7,0.6,1.4,0.9,2c0.1,0.1,0.1,0.2,0.2,0.4
				c0.3,0.7,0.6,1.3,1,2c0.1,0.1,0.1,0.2,0.2,0.3c0.3,0.7,0.7,1.3,1,2c0.1,0.1,0.1,0.2,0.2,0.3c0.4,0.7,0.7,1.3,1.1,2
				c0,0.1,0.1,0.1,0.1,0.2c2.4,4.3,5.1,8.5,8,12.5c0.1,0.1,0.1,0.2,0.2,0.3c0.4,0.5,0.8,1,1.2,1.6c0.1,0.2,0.3,0.4,0.4,0.5
				c0.4,0.5,0.7,0.9,1.1,1.4c0.2,0.2,0.4,0.4,0.5,0.7c0.4,0.4,0.7,0.9,1.1,1.3c0.2,0.2,0.4,0.5,0.6,0.7c0.4,0.4,0.7,0.8,1.1,1.2
				c0.2,0.3,0.4,0.5,0.7,0.8c0.4,0.4,0.7,0.8,1.1,1.2c0.2,0.3,0.5,0.5,0.7,0.8c0.3,0.4,0.7,0.7,1.1,1.1c0.3,0.3,0.5,0.5,0.8,0.8
				c0.3,0.4,0.7,0.7,1,1.1c0.3,0.3,0.6,0.5,0.8,0.8c0.3,0.3,0.7,0.7,1,1c0.3,0.3,0.6,0.6,0.9,0.8c0.3,0.3,0.7,0.6,1,0.9
				c0.3,0.3,0.6,0.6,1,0.9c0.3,0.3,0.7,0.6,1,0.9c0.4,0.3,0.7,0.6,1.1,0.9c0.3,0.3,0.6,0.5,0.9,0.8c0.6,0.5,1.1,0.9,1.7,1.4
				c0.2,0.2,0.4,0.3,0.6,0.5c0.6,0.5,1.2,0.9,1.8,1.4c0.2,0.2,0.5,0.4,0.7,0.5c0.5,0.3,0.9,0.7,1.4,1c0.3,0.2,0.5,0.4,0.8,0.6
				c0.5,0.3,0.9,0.6,1.4,1c0.3,0.2,0.6,0.4,0.8,0.6c0.5,0.3,0.9,0.6,1.4,0.9c0.3,0.2,0.6,0.4,0.9,0.5c0.5,0.3,0.9,0.6,1.4,0.9
				c0.3,0.2,0.6,0.4,0.9,0.5c0.5,0.3,0.9,0.6,1.4,0.8c0.3,0.2,0.6,0.3,0.9,0.5c0.5,0.3,1,0.6,1.5,0.8c0.3,0.2,0.6,0.3,0.9,0.5
				c0.5,0.3,1,0.5,1.5,0.8c0.3,0.1,0.6,0.3,0.8,0.4c0.5,0.3,1.1,0.5,1.6,0.8c0.3,0.1,0.5,0.3,0.8,0.4c0.6,0.3,1.1,0.5,1.7,0.8
				c0.2,0.1,0.5,0.2,0.7,0.3c0.6,0.3,1.2,0.5,1.9,0.8c0.2,0.1,0.4,0.2,0.6,0.3c0.7,0.3,1.5,0.6,2.2,0.9c0.1,0,0.2,0.1,0.3,0.1
				c2.6,1,5.2,1.9,7.8,2.8c0.1,0,0.1,0,0.2,0.1c0.8,0.2,1.6,0.5,2.4,0.7c0.2,0,0.3,0.1,0.5,0.1c0.7,0.2,1.4,0.4,2.1,0.6
				c0.2,0.1,0.4,0.1,0.7,0.2c0.7,0.2,1.3,0.3,2,0.5c0.2,0.1,0.5,0.1,0.7,0.2c0.6,0.1,1.3,0.3,2,0.4c0.3,0.1,0.5,0.1,0.8,0.2
				c0.6,0.1,1.3,0.3,1.9,0.4c0.3,0,0.5,0.1,0.8,0.1c0.7,0.1,1.3,0.2,2,0.3c0.3,0,0.5,0.1,0.8,0.1c0.7,0.1,1.3,0.2,2,0.3
				c0.3,0,0.5,0.1,0.8,0.1c0.7,0.1,1.4,0.2,2.1,0.2c0.2,0,0.5,0.1,0.7,0.1c0.7,0.1,1.5,0.1,2.2,0.2c0.2,0,0.4,0,0.6,0.1
				c0.8,0.1,1.6,0.1,2.4,0.2c0.1,0,0.2,0,0.4,0c1.9,0.1,3.8,0.1,5.8,0.1h0c0.1,0,0.2,0,0.3,0c1.5,0,3,0,4.5-0.1c0.2,0,0.4,0,0.6,0
				c1.5-0.1,3-0.2,4.5-0.3c0.2,0,0.5,0,0.7-0.1c1.5-0.1,2.9-0.3,4.4-0.5c0.2,0,0.5-0.1,0.7-0.1c1.5-0.2,2.9-0.4,4.4-0.7
				c0.1,0,0.2,0,0.3-0.1C133,308.1,92.7,261.6,92.7,205.7z"/>
			<line id="XMLID_2490_" class="st25" x1="112.8" y1="53.6" x2="112.8" y2="53.6"/>
			<path id="XMLID_2488_" class="st51" d="M266.4,51.5c-0.8-1.1-1.6-2.1-2.4-3.1c0,0,0,0,0,0c-1.7-2.1-3.4-4.2-5.3-6.2l0,0
				c-1.4-1.5-2.9-3-4.4-4.5c-15.3-14.5-35-24.1-56.9-26c-0.3,0-0.5,0-0.8-0.1c-0.1,0-0.2,0-0.3,0c-0.8-0.1-1.6-0.1-2.3-0.2
				c-1.7-0.1-3.3-0.1-5-0.1h-47.5c-1.7,0-3.3,0-5,0.1c-4.1,0.2-8.2,0.7-12.2,1.4c-2.1,0.4-4.2,0.9-6.3,1.4c-2.6,0.7-5.3,1.5-7.8,2.4
				c-1.2,0.4-2.4,0.9-3.6,1.4c-0.7,0.3-1.4,0.6-2.1,0.9c-2.1,0.9-4.2,1.9-6.2,3c0,0,0,0,0,0c-0.5,0.3-1,0.5-1.5,0.8
				c-7.5,4.1-14.4,9.1-20.6,15c-1.5,1.4-3,2.9-4.5,4.5c0,0,0,0,0,0c-0.1,0.2-0.3,0.3-0.4,0.5c-1.7,1.8-3.3,3.7-4.8,5.7
				c-0.8,1-1.6,2.1-2.4,3.2c-12.3,16.9-19.6,37.9-19.8,60.6c0,1.3,0,2.7,0,4l1.6,56.5c0,0,0.1,0,0.1,0c0.3-0.1,0.6-0.1,0.9-0.2
				c0.3-0.1,0.7-0.1,1-0.2c0.1,0,0.2,0,0.2,0c0.2,0,0.5-0.1,0.8-0.1h0c0.3,0,0.7,0,1,0h2.1v-17.7c0-0.9,0-1.8,0-2.7
				c0-0.2,0-0.5,0-0.8s0-0.5,0-0.8c0-0.4,0-0.7,0-1.1v-0.1c0-0.1,0-0.2,0-0.2c0-0.6,0.1-1.3,0.1-1.9c0-0.2,0-0.5,0-0.7
				c0-0.3,0-0.7,0.1-1.1c0.1-0.9,0.2-1.8,0.3-2.7c0.1-0.7,0.1-1.3,0.2-2c0.1-0.8,0.2-1.5,0.3-2.2c0,0,0,0,0-0.1c0,0,0-0.1,0-0.1
				c0.1-0.4,0.1-0.9,0.2-1.3c0.1-0.8,0.2-1.5,0.4-2.2c0.2-1.3,0.5-2.6,0.8-3.9c0.2-0.8,0.3-1.6,0.5-2.4c0-0.1,0.1-0.3,0.1-0.4
				c0-0.1,0-0.1,0.1-0.2c0.1-0.5,0.2-1,0.4-1.5c0-0.1,0-0.1,0-0.1c0,0,0-0.1,0-0.1c0.2-0.7,0.4-1.4,0.6-2c0-0.1,0-0.2,0.1-0.3
				c0-0.2,0.1-0.3,0.1-0.5c0.1-0.4,0.2-0.7,0.3-1.1c0-0.1,0.1-0.3,0.1-0.4c0.1-0.4,0.2-0.8,0.4-1.1c0.1-0.4,0.2-0.7,0.3-1.1
				c0.1-0.4,0.2-0.8,0.4-1.2l0,0c0-0.1,0-0.1,0.1-0.2c0-0.1,0.1-0.2,0.1-0.4c0-0.1,0.1-0.2,0.1-0.4c0.1-0.4,0.3-0.7,0.4-1.1
				c0.1-0.3,0.2-0.6,0.3-0.9c0.1-0.3,0.2-0.6,0.3-0.9c0.1-0.4,0.3-0.8,0.4-1.1c0.1-0.3,0.3-0.7,0.4-1v0c0,0,0,0,0-0.1
				c0.3-0.8,0.6-1.6,1-2.3c0.1-0.1,0.1-0.2,0.1-0.3c0.3-0.6,0.5-1.2,0.8-1.8c0.2-0.4,0.3-0.7,0.5-1.1c0.2-0.4,0.4-0.7,0.5-1.1
				c0.6-1.3,1.3-2.6,1.9-3.9c0,0,0,0,0,0c0.1-0.2,0.2-0.4,0.3-0.6c0,0,0,0,0,0c0,0,0-0.1,0.1-0.1c0.2-0.3,0.3-0.6,0.5-0.9
				c0,0,0,0,0-0.1c0.2-0.3,0.3-0.6,0.5-0.8c0.3-0.6,0.7-1.2,1.1-1.9c0.1-0.2,0.2-0.4,0.4-0.6c0.2-0.3,0.3-0.6,0.5-0.8
				c0.2-0.3,0.3-0.6,0.5-0.8c0.2-0.4,0.5-0.8,0.8-1.2c0.2-0.3,0.4-0.6,0.6-1c0.1-0.2,0.2-0.4,0.4-0.6c0,0,0,0,0,0
				c0.3-0.5,0.7-1,1-1.5c0,0,0.1-0.1,0.1-0.1c0.1-0.1,0.2-0.2,0.2-0.4c0.3-0.5,0.7-1,1.1-1.6c0.1-0.1,0.2-0.2,0.2-0.4h0
				c0.4-0.6,0.8-1.1,1.2-1.7c0.5-0.6,0.9-1.2,1.4-1.8c0-0.1,0.1-0.1,0.1-0.1c0.5-0.7,1-1.3,1.6-2c0.5-0.6,1.1-1.3,1.6-1.9
				c0.3-0.3,0.6-0.6,0.8-0.9c0.3-0.4,0.6-0.7,0.9-1.1c0.7-0.8,1.4-1.6,2.1-2.3c0,0,0.1-0.1,0.1-0.1c0.6-0.6,1.2-1.2,1.8-1.9
				c0.4-0.4,0.7-0.7,1.1-1.1c0.2-0.2,0.3-0.3,0.5-0.5c0.7-0.7,1.4-1.4,2.2-2c0.6-0.6,1.3-1.2,1.9-1.8c0.7-0.6,1.3-1.1,2-1.7
				c0,0,0,0,0.1,0c0.6-0.5,1.3-1.1,2-1.6c0.4-0.3,0.7-0.6,1-0.8c0.3-0.3,0.7-0.5,1-0.8c1-0.8,2-1.5,3.1-2.3c2.1-1.5,4.2-2.9,6.3-4.2
				c0.6-0.3,1.1-0.7,1.7-1c0.3-0.2,0.7-0.4,1-0.6c0,0,0,0,0,0c0.2-0.1,0.4-0.2,0.6-0.3c0.1-0.1,0.2-0.1,0.4-0.2
				c0.1-0.1,0.2-0.1,0.4-0.2c0.3-0.2,0.6-0.4,0.9-0.5c0.6-0.3,1.1-0.6,1.7-0.9h0c0,0,0,0,0,0c0,0.2,0.1,0.5,0.1,0.7
				c0.1,0.5,0.2,0.9,0.2,1.4c0,0.1,0,0.3,0.1,0.4c0,0,0,0.1,0,0.1c0,0.2,0,0.4,0.1,0.6c0,0.2,0,0.4,0.1,0.6c0,0,0,0.1,0,0.1
				c0,0.1,0,0.1,0,0.2c0,0.5,0,1,0.1,1.5c0,1.6,0,3.2-0.1,4.8v0c-0.1,0.9-0.2,1.8-0.3,2.6c-0.1,0.4-0.1,0.8-0.2,1.2
				c-0.1,0.8-0.2,1.5-0.3,2.2c-0.1,0.8-0.3,1.5-0.4,2.2c-0.3,1.8-0.8,3.6-1.2,5.4c-0.2,1-0.3,1.9-0.1,2.8c0,0.2,0.1,0.3,0.1,0.5
				c0.1,0.2,0.1,0.4,0.2,0.7c0,0,0,0.1,0,0.1c0.1,0.2,0.1,0.4,0.2,0.5c0,0.1,0,0.1,0.1,0.2c0.1,0.2,0.2,0.4,0.3,0.6c0,0,0,0,0,0
				c0.1,0.2,0.2,0.4,0.4,0.5c0.1,0.1,0.1,0.2,0.2,0.2c0.1,0.2,0.3,0.3,0.4,0.5c0.2,0.2,0.5,0.5,0.8,0.7c0.1,0.1,0.3,0.2,0.4,0.3
				c0.2,0.1,0.4,0.3,0.7,0.4c0.2,0.1,0.5,0.2,0.7,0.3c0.1,0,0.2,0.1,0.3,0.1c0.1,0,0.2,0.1,0.3,0.1c0.2,0,0.4,0.1,0.6,0.1
				c0,0,0.1,0,0.1,0c0.1,0,0.3,0.1,0.4,0.1c0.1,0,0.2,0,0.2,0c1.4,0.1,2.8-0.2,4.1-1c0.4-0.2,0.7-0.4,1.1-0.6c0.5-0.3,1-0.7,1.5-1
				c0.5-0.3,1-0.7,1.5-1c1-0.7,1.9-1.4,2.8-2.2c0.6-0.5,1.2-1,1.8-1.5c0.6-0.5,1.1-1.1,1.7-1.6c1.4-1.3,2.7-2.7,3.9-4.1
				c1.9-2.2,3.6-4.6,5.2-6.9c0,0,0,0,0,0c0.3-0.4,0.6-0.8,0.8-1.3c0.3-0.4,0.5-0.9,0.8-1.3c0.3-0.4,0.5-0.8,0.8-1.3
				c0.2-0.4,0.5-0.8,0.7-1.2c0.3-0.6,0.6-1.1,0.9-1.6c0.2-0.3,0.3-0.6,0.5-0.9c0.1-0.1,0.2-0.3,0.3-0.4c0.1-0.1,0.2-0.2,0.3-0.4
				c0.1-0.1,0.2-0.2,0.3-0.3c0.1-0.1,0.2-0.2,0.3-0.3c0.4-0.3,0.7-0.5,1.1-0.7c0,0,0,0,0,0c0.3-0.2,0.7-0.3,1.1-0.4
				c0.1,0,0.1,0,0.2-0.1c0.1,0,0.2-0.1,0.3-0.1c0.1,0,0.2,0,0.3,0c0.1,0,0.2,0,0.3,0h0c0,0,0,0,0,0c0.2,0,0.4,0,0.6,0h0.1
				c0.2,0,0.3,0,0.5,0c0.1,0,0.2,0,0.3,0c0.2,0,0.4,0.1,0.6,0.1c0.1,0,0.2,0,0.3,0.1c0.1,0,0.2,0,0.3,0.1c0.1,0,0.3,0.1,0.4,0.1
				c0.2,0.1,0.3,0.1,0.5,0.2c0.1,0.1,0.2,0.1,0.3,0.2c0.1,0,0.2,0.1,0.2,0.1c0.1,0.1,0.2,0.1,0.3,0.2c0.1,0.1,0.2,0.1,0.2,0.2
				c0.1,0.1,0.2,0.1,0.3,0.2c0.1,0.1,0.3,0.2,0.4,0.4c0.1,0.1,0.2,0.2,0.3,0.3c0.1,0.1,0.2,0.2,0.3,0.3c0,0,0,0,0,0.1
				c0,0,0,0.1,0.1,0.1c0.1,0.1,0.1,0.2,0.2,0.3c0.1,0.2,0.3,0.4,0.4,0.6c0.1,0.2,0.2,0.3,0.3,0.5c0.2,0.4,0.3,0.9,0.4,1.3
				c0.1,0.2,0.1,0.5,0.1,0.8c0,0.2,0.1,0.5,0.1,0.7c0,0.4,0,0.8,0,1.2c0,0.6,0,1.2,0,1.9c0,0.6-0.1,1.3-0.1,1.9
				c0,0.6-0.1,1.3-0.2,1.9c-0.1,0.6-0.1,1.3-0.2,1.9c-0.1,0.8-0.2,1.6-0.4,2.4c-0.1,0.4-0.1,0.7-0.2,1.1c-0.2,0.8-0.3,1.7-0.5,2.5
				c-0.1,0.6-0.2,1.1-0.4,1.6c-0.2,0.9-0.5,1.9-0.7,2.8c-0.2,0.9-0.5,1.9-0.8,2.8c-0.1,0.5-0.3,0.9-0.4,1.4c0,0.1,0,0.1-0.1,0.2
				c-0.2,0.8-0.5,1.5-0.7,2.2c0,0.1-0.1,0.2-0.1,0.2c-0.2,0.4-0.3,0.9-0.5,1.3s-0.3,0.9-0.5,1.3c-0.2,0.4-0.3,0.9-0.5,1.3
				c-0.2,0.4-0.3,0.8-0.5,1.2c-0.2,0.4-0.3,0.8-0.5,1.2c-0.6,1.6-1.3,3.1-1.9,4.6c-2.4,5.4,2.4,11.2,8.1,9.9c4-1,7.9-2,11.5-3.1
				c0.7-0.2,1.5-0.4,2.2-0.7c0.8-0.2,1.5-0.5,2.3-0.7c0.7-0.2,1.3-0.4,1.9-0.6c0.7-0.2,1.4-0.5,2-0.7c0.7-0.2,1.3-0.5,2-0.7
				c1.3-0.5,2.6-1,3.9-1.5c0.6-0.2,1.3-0.5,1.9-0.8c0.6-0.2,1.2-0.5,1.7-0.7c0,0,0.1,0,0.1-0.1c1.2-0.5,2.4-1,3.5-1.5
				c1.4-0.6,2.7-1.2,3.9-1.9c0.7-0.3,1.3-0.7,2-1v0c0.2-0.1,0.5-0.2,0.7-0.3c1-0.5,2-1,2.9-1.6c0.9-0.5,1.7-0.9,2.5-1.4
				c0.6-0.3,1.1-0.6,1.6-1c0.4-0.2,0.7-0.4,1.1-0.7c0.3-0.2,0.6-0.4,0.9-0.6c0.2-0.1,0.4-0.2,0.6-0.4c0.4-0.3,0.8-0.5,1.2-0.8
				c0.4-0.3,0.8-0.5,1.2-0.8s0.8-0.5,1.2-0.8c1.2-0.8,2.3-1.7,3.4-2.5c0.7-0.5,1.4-1,2-1.6c0.3-0.3,0.7-0.5,1-0.8
				c0.7-0.5,1.3-1.1,1.9-1.6c0.1-0.1,0.2-0.2,0.3-0.2c0.2-0.2,0.4-0.4,0.6-0.6c0.3-0.3,0.6-0.5,0.9-0.8c0.3-0.3,0.6-0.5,0.9-0.8
				c0.6-0.5,1.1-1.1,1.7-1.6c0.3-0.3,0.5-0.5,0.8-0.8c0.3-0.3,0.5-0.5,0.8-0.8c0.8-0.8,1.5-1.6,2.2-2.4c0.4-0.5,0.8-0.9,1.2-1.4
				c0.3-0.3,0.5-0.6,0.8-0.9c0.4-0.4,0.7-0.9,1.1-1.3c0.2-0.2,0.4-0.5,0.6-0.7c0.5-0.7,1-1.4,1.5-2.1c0.2-0.2,0.3-0.4,0.5-0.7
				c0.2-0.2,0.3-0.4,0.4-0.7c0.1-0.2,0.3-0.4,0.4-0.6c0.3-0.4,0.6-0.8,0.8-1.2c0.1-0.2,0.2-0.4,0.4-0.6c0.5,0.4,1.1,0.8,1.6,1.2
				c0.5,0.4,1.1,0.8,1.6,1.3c0.5,0.4,1.1,0.8,1.6,1.3c0.9,0.8,1.9,1.6,2.8,2.4c0.1,0.1,0.2,0.2,0.3,0.3c0.5,0.4,1,0.9,1.5,1.4
				c0.5,0.5,1,0.9,1.5,1.4s1,0.9,1.5,1.4c0.6,0.6,1.1,1.2,1.7,1.7c0.6,0.6,1.1,1.2,1.7,1.8c0.7,0.8,1.5,1.6,2.2,2.4l0,0
				c0.7,0.8,1.4,1.6,2.1,2.5c0,0,0,0,0,0c0.7,0.8,1.4,1.7,2,2.5c0,0,0,0,0,0c0.7,0.8,1.3,1.7,1.9,2.6c0.5,0.7,1,1.4,1.5,2.1
				c0.4,0.6,0.8,1.2,1.3,1.8v0c0,0,0,0.1,0.1,0.1c0.3,0.5,0.6,0.9,0.9,1.4c0.7,1.1,1.4,2.2,2.1,3.4c0.3,0.6,0.7,1.1,1,1.7
				c0.7,1.1,1.3,2.3,1.9,3.5c0.3,0.6,0.6,1.2,0.9,1.8c0.3,0.6,0.6,1.1,0.8,1.7c0.9,1.8,1.8,3.7,2.6,5.6c0.3,0.6,0.5,1.2,0.8,1.8
				c0.5,1.2,1,2.5,1.4,3.8c0.2,0.6,0.4,1.2,0.6,1.8c0.3,0.8,0.5,1.5,0.8,2.3c0.2,0.6,0.3,1.1,0.5,1.7c0.2,0.6,0.4,1.3,0.6,1.9
				c0.2,0.7,0.4,1.3,0.5,2c0.4,1.5,0.8,3,1.1,4.5c0.1,0.4,0.2,0.8,0.3,1.2c0.6,2.9,1.1,5.8,1.5,8.8c0.1,0.6,0.1,1.2,0.2,1.8
				c0.2,1.6,0.3,3.1,0.4,4.7c0,0.5,0.1,1.1,0.1,1.6c0,0.7,0.1,1.3,0.1,2v0.1c0,0.7,0.1,1.4,0.1,2.1c0,0.7,0,1.4,0,2.1V172h2.6
				c0.8,0,1.5,0.1,2.2,0.2l1.6-56.1C286.9,91.8,279.4,69.3,266.4,51.5z"/>
			<path id="XMLID_2486_" class="st36" d="M196.7,11.5c-0.1,0-0.2,0-0.3,0c-0.8-0.1-1.6-0.1-2.3-0.2c-1.6-0.1-3.3-0.1-4.9-0.1h-47.4
				c-1.7,0-3.4,0-5.1,0.1c-4.1,0.2-8.2,0.7-12.2,1.4c-2.1,0.4-4.2,0.9-6.3,1.4c-2.6,0.7-5.3,1.5-7.8,2.4c-1.2,0.4-2.4,0.9-3.6,1.4
				c-0.7,0.3-1.4,0.6-2.1,0.9c-2.1,0.9-4.2,1.9-6.2,3c0,0,0,0,0,0c-0.5,0.3-1,0.5-1.5,0.8c-7.5,4.1-14.3,9.1-20.5,15
				c-1.5,1.4-3,2.9-4.4,4.4c0,0,0,0,0,0c-0.2,0.2-0.4,0.4-0.6,0.6c-1.7,1.8-3.3,3.7-4.8,5.7c0,0,0,0,0,0c-0.8,1-1.6,2.1-2.4,3.1
				C51.8,68.4,44.5,89.4,44.3,112c0,1.3,0,2.7,0,4.1l1.6,56.4v0c0.7-0.2,1.4-0.3,2.2-0.4c0.2,0,0.5-0.1,0.8-0.1h0c0.4,0,0.7,0,1,0
				h2.2v-17.7c0-14.9,2.9-29.1,8.1-42.2c2.6-6.5,5.8-12.7,9.5-18.6c0.3-0.5,0.7-1,1-1.6c0.9-1.3,1.8-2.6,2.7-3.9
				c10.2-14.3,23.7-26.2,39.4-34.4c0,0,0,0,0,0c0,0,0,0,0.1,0c0.7,3.1,0.8,6.7,0.5,10.5c-0.4,4.6-1.3,9.4-2.3,13.7
				c-0.3,1.4-0.2,2.7,0.1,3.9c0.3,0.9,0.8,1.8,1.4,2.5c0.5-1.9,1.1-3.8,1.8-5.7v0c4.6-13.4,11.8-25.4,21-35.6c0.9-1,1.9-2,2.8-3
				c1-1,2-1.9,3-2.9c15.2-14.2,34.7-23.6,56.3-25.5c0,0,0,0,0.1,0C197.2,11.6,196.9,11.6,196.7,11.5z"/>
			<path id="XMLID_2485_" class="st41" d="M173.8,223.4h-14.1c-4.6,0-8.4-3.8-8.4-8.4v0c0-4.6,3.8-8.4,8.4-8.4h14.1
				c4.6,0,8.4,3.8,8.4,8.4v0C182.2,219.7,178.4,223.4,173.8,223.4z"/>
			<path id="XMLID_2446_" class="st0" d="M132,346.2V403l-0.5,5v0l-6.7,68c-26.3-15.7-49.6-36-68.6-59.8c-10.4-13-19.6-27-27.4-41.9
				l0,0c0.3-0.6,0.6-1.3,1-1.9c0.1-0.1,0.1-0.2,0.2-0.3c0.3-0.5,0.5-0.9,0.8-1.4c0.3-0.5,0.6-0.9,0.9-1.4c0,0,0,0,0,0
				c0.3-0.5,0.6-0.9,0.9-1.4c0.3-0.5,0.7-0.9,1-1.4c0.3-0.5,0.7-0.9,1-1.3c0.3-0.4,0.6-0.7,0.9-1.1c0.3-0.3,0.5-0.6,0.8-0.9
				c0-0.1,0.1-0.1,0.1-0.2c0.3-0.3,0.6-0.6,0.9-0.9c0.3-0.3,0.5-0.6,0.8-0.8c0.7-0.7,1.4-1.4,2.1-2c0.3-0.3,0.7-0.6,1-0.9
				c0.3-0.3,0.6-0.5,1-0.8c0.1,0,0.1-0.1,0.2-0.1c0.3-0.3,0.7-0.5,1-0.8c0.3-0.2,0.6-0.5,1-0.7c0.4-0.3,0.9-0.6,1.4-1
				c0.3-0.2,0.7-0.5,1.1-0.7c0.4-0.2,0.8-0.5,1.2-0.7c0.8-0.4,1.5-0.9,2.3-1.3c0.4-0.2,0.9-0.5,1.3-0.7c0.3-0.1,0.6-0.3,0.8-0.4
				c1.5-0.7,3-1.3,4.6-1.9c0.3-0.1,0.7-0.2,1-0.4c0.4-0.1,0.9-0.3,1.3-0.4c0.4-0.1,0.7-0.2,1.1-0.3c1.6-0.4,3.2-0.8,4.8-1.1
				c0.4-0.1,0.7-0.1,1.1-0.2c0.4-0.1,0.9-0.1,1.3-0.2c0.3,0,0.7-0.1,1-0.1c0.3,0,0.6-0.1,1-0.1c0.3,0,0.7-0.1,1-0.1
				c0.4,0,0.8,0,1.1-0.1c0.2,0,0.4,0,0.5,0c0.4,0,0.9,0,1.3,0H132z"/>
			<path id="XMLID_2657_" class="st0" d="M308.4,396.1v102.3c-1.9,1.2-3.8,2.4-5.8,3.5c-1.6,0.9-3.2,1.9-4.8,2.8
				c-2.5,1.4-5,2.8-7.6,4.1c-0.7,0.4-1.4,0.8-2.1,1.1c-9.6,1.2-19.3,1.9-29.2,2c-1,0-1.9,0-2.9,0c-3.7,0-7.4-0.1-11.1-0.2
				c-11-0.5-21.7-1.6-32.3-3.4l-0.2-2.2l-2.7-27.3l-6.9-70.7l-0.5-5.1v-56.8h56.2c0.9,0,1.7,0,2.6,0.1c0.3,0,0.6,0,1,0.1
				c0.2,0,0.4,0,0.7,0c0.4,0,0.8,0.1,1.1,0.1c0.3,0,0.6,0.1,0.9,0.1c0.6,0.1,1.1,0.1,1.6,0.2c0.3,0,0.7,0.1,1,0.2
				c0.4,0.1,0.8,0.1,1.2,0.2c0.3,0.1,0.7,0.1,1,0.2c0.1,0,0.2,0,0.2,0.1c0.4,0.1,0.8,0.2,1.2,0.3c0.2,0.1,0.5,0.1,0.7,0.2
				c0.3,0.1,0.6,0.2,0.9,0.2c0.1,0,0.3,0.1,0.4,0.1c0.3,0.1,0.6,0.2,0.9,0.3c0,0,0,0,0,0c0.2,0.1,0.4,0.1,0.6,0.2
				c0.4,0.1,0.8,0.3,1.2,0.4c0.3,0.1,0.7,0.2,1,0.4c0.8,0.3,1.6,0.7,2.4,1c0.3,0.1,0.6,0.3,0.8,0.4c0.1,0,0.2,0.1,0.3,0.2
				c0.6,0.3,1.2,0.6,1.8,0.9c0,0,0,0,0.1,0c0.1,0.1,0.2,0.1,0.3,0.2c0.1,0,0.2,0.1,0.3,0.1c0.2,0.1,0.3,0.2,0.5,0.3
				c0.7,0.4,1.5,0.9,2.2,1.4c0.7,0.4,1.3,0.9,2,1.3c0.6,0.4,1.2,0.9,1.9,1.4c0,0,0,0,0,0c0.2,0.1,0.3,0.2,0.5,0.4
				c0.2,0.1,0.3,0.2,0.4,0.4v0c0,0,0,0,0,0c0.2,0.1,0.3,0.3,0.5,0.4c0.3,0.2,0.6,0.5,0.8,0.7c0.4,0.4,0.9,0.8,1.3,1.2h0v0
				c0.2,0.2,0.4,0.4,0.6,0.6c0.5,0.5,1,1.1,1.6,1.6s1,1.1,1.5,1.7c0.5,0.6,1,1.2,1.4,1.7c0.5,0.6,0.9,1.2,1.3,1.8
				c0.4,0.6,0.9,1.2,1.3,1.9c0.4,0.6,0.8,1.3,1.2,1.9c0.2,0.4,0.4,0.8,0.6,1.2c0.1,0.3,0.3,0.5,0.4,0.8c0,0.1,0,0.1,0.1,0.1
				c0.1,0.2,0.2,0.4,0.3,0.6c0.1,0.3,0.3,0.6,0.4,0.9c0,0,0,0,0,0c0.1,0.1,0.1,0.2,0.2,0.3c0,0,0,0.1,0.1,0.1c0,0,0.1,0.1,0.1,0.1
				c0.2,0.5,0.5,1,0.7,1.6c0.1,0.2,0.2,0.4,0.3,0.7c0.2,0.4,0.3,0.8,0.4,1.2c0.2,0.6,0.4,1.3,0.7,1.9c0,0.1,0.1,0.2,0.1,0.3
				c0.1,0.2,0.1,0.4,0.2,0.6c0.1,0.3,0.2,0.5,0.2,0.8c0.1,0.3,0.2,0.6,0.3,0.9c0.1,0.4,0.2,0.8,0.3,1.2c0.1,0.3,0.2,0.7,0.2,1
				c0.2,0.8,0.3,1.6,0.4,2.3c0,0.2,0.1,0.5,0.1,0.8c0,0.2,0.1,0.5,0.1,0.8c0.1,0.7,0.2,1.3,0.2,2
				C308.4,393.2,308.4,394.7,308.4,396.1z"/>
			<path id="XMLID_2479_" class="st16" d="M138.9,346.2l-9.8-9c-2.8-2.6-7-2.5-9.8,0.1l-11.8,11.2c-1.5,1.5-2.4,3.5-2.2,5.6
				c0.6,9.2,3.8,34.8,22,53.1c2.1,2.1,5.8,1.1,6.4-1.8C136.4,391.7,142.3,359.7,138.9,346.2z"/>
			<path id="XMLID_2478_" class="st16" d="M192.7,346.2l9.8-9c2.8-2.6,7-2.5,9.8,0.1l11.8,11.2c1.5,1.5,2.4,3.5,2.2,5.6
				c-0.6,9.2-3.8,34.8-22,53.1c-2.1,2.1-5.8,1.1-6.4-1.8C195.2,391.7,189.3,359.7,192.7,346.2z"/>
			<path id="XMLID_2133_" class="st15" d="M258.9,452.7V512c-1,0-1.9,0-2.9,0c-3.7,0-7.4-0.1-11.1-0.2v-59.1c0-3.9,3.1-7,7-7
				c1.9,0,3.7,0.8,5,2.1C258.1,449,258.9,450.7,258.9,452.7z"/>
			<path id="XMLID_2645_" class="st15" d="M106.2,346.2c-3.4,0-6.6,0.3-9.8,1h0c-22.9,4.6-40.1,24.7-40.1,48.9v20
				c-10.4-13-19.6-27-27.4-41.9c0.3-0.6,0.6-1.3,1-1.9c0.1-0.1,0.1-0.2,0.2-0.3c0.3-0.5,0.5-0.9,0.8-1.4c0.3-0.5,0.6-0.9,0.9-1.4
				c0,0,0,0,0,0c0.3-0.5,0.6-0.9,0.9-1.4c0.3-0.5,0.7-0.9,1-1.4c0.3-0.5,0.7-0.9,1-1.3c0.3-0.4,0.6-0.7,0.9-1.1
				c0.3-0.3,0.5-0.6,0.8-0.9c0-0.1,0.1-0.1,0.1-0.2c0.3-0.3,0.6-0.6,0.9-0.9c0.3-0.3,0.5-0.6,0.8-0.8c0.7-0.7,1.4-1.4,2.1-2
				c0.3-0.3,0.7-0.6,1-0.9c0.3-0.3,0.6-0.5,1-0.8c0.1,0,0.1-0.1,0.2-0.1c0.3-0.3,0.7-0.5,1-0.8c0.3-0.2,0.6-0.5,1-0.7
				c0.4-0.3,0.9-0.6,1.4-1c0.3-0.2,0.7-0.5,1.1-0.7c0.4-0.2,0.8-0.5,1.2-0.7c0.8-0.4,1.5-0.9,2.3-1.3c0.4-0.2,0.9-0.5,1.3-0.7
				c0.3-0.1,0.6-0.3,0.8-0.4c1.5-0.7,3-1.3,4.6-1.9c0.3-0.1,0.7-0.2,1-0.4c0.4-0.1,0.9-0.3,1.3-0.4c0.4-0.1,0.7-0.2,1.1-0.3
				c1.6-0.4,3.2-0.8,4.8-1.1c0.4-0.1,0.7-0.1,1.1-0.2c0.4-0.1,0.9-0.1,1.3-0.2c0.3,0,0.7-0.1,1-0.1c0.3,0,0.6-0.1,1-0.1
				c0.3,0,0.7-0.1,1-0.1c0.4,0,0.8,0,1.1-0.1c0.2,0,0.4,0,0.5,0c0.4,0,0.9,0,1.3,0H106.2z"/>
			<path id="XMLID_2474_" class="st36" d="M197.2,241.6c1.6,0,2.9,1.3,2.9,2.9l0,0c0,3-0.4,5.8-1.1,8.6c-1.7,6.3-5.3,11.9-10.1,16.1
				c-5.7,5-13.3,8-21.5,8c-8.2,0-15.7-3-21.5-8c-4.8-4.2-8.4-9.8-10.1-16.1c-0.7-2.7-1.1-5.6-1.1-8.6l0,0c0-1.6,1.3-2.9,2.9-2.9
				H197.2z"/>
			<path id="XMLID_2473_" class="st26" d="M188.9,269.2c-5.7,5-13.3,8-21.5,8c-8.2,0-15.7-3-21.5-8c5.7-5,13.3-8,21.5-8
				C175.6,261.2,183.1,264.2,188.9,269.2z"/>
			<path id="XMLID_2472_" class="st16" d="M197.2,241.6c1.6,0,2.9,1.3,2.9,2.9l0,0c0,3-0.4,5.8-1.1,8.6h-63.2
				c-0.7-2.7-1.1-5.6-1.1-8.6l0,0c0-1.6,1.3-2.9,2.9-2.9H197.2z"/>
			<g id="XMLID_2454_">
				<g id="XMLID_2466_">
					<path id="XMLID_2470_" class="st23" d="M151.5,53.8V65c0,23-18.6,41.6-41.6,41.6H98c-3.5,0-6.9-0.6-10.1-1.6
						c-3.7-1.2-7.1-3-10.1-5.4C73.6,96.3,70.2,92,68,87c-1.8-4-2.7-8.5-2.7-13.2V53.8c0-7.6,6.2-13.8,13.8-13.8h58.6
						c4.2,0,7.9,1.9,10.5,4.8C150.2,47.2,151.5,50.3,151.5,53.8z"/>
					<path id="XMLID_2469_" class="st193" d="M137.5,40L77.8,99.6C73.6,96.3,70.2,92,68,87l47-47H137.5z"/>
					<path id="XMLID_2468_" class="st193" d="M151.5,53.8v10l-42.8,42.8H98c-3.5,0-6.9-0.6-10.1-1.6l60.2-60.3
						C150.2,47.2,151.5,50.3,151.5,53.8z"/>
				</g>
				<g id="XMLID_2461_">
					<path id="XMLID_2465_" class="st23" d="M178.9,53.8V65c0,23,18.6,41.6,41.6,41.6h11.9c3.5,0,6.9-0.6,10.1-1.6
						c3.7-1.2,7.1-3,10.1-5.4c4.2-3.3,7.6-7.6,9.8-12.6c1.8-4,2.7-8.5,2.7-13.2V53.8c0-7.6-6.2-13.8-13.8-13.8h-58.6
						c-4.2,0-7.9,1.9-10.5,4.8C180.2,47.2,178.9,50.3,178.9,53.8z"/>
					<path id="XMLID_2463_" class="st193" d="M193,40l59.6,59.7c4.2-3.3,7.6-7.6,9.8-12.6l-47-47H193z"/>
					<path id="XMLID_2462_" class="st193" d="M178.9,53.8v10l42.8,42.8h10.7c3.5,0,6.9-0.6,10.1-1.6l-60.2-60.3
						C180.2,47.2,178.9,50.3,178.9,53.8z"/>
				</g>
				<path id="XMLID_2455_" class="st73" d="M266.4,51.5c-0.9-6.6-5.8-12.1-12.1-13.8c-1.4-0.4-3-0.6-4.5-0.6h-58.6
					c-3.4,0-6.6,1-9.3,2.9c-11.4-5.4-22.7-5.5-34.2-0.6c-2-1.1-4.2-1.9-6.5-2.1c-0.6-0.1-1.2-0.1-1.9-0.1H80.7c-1.5,0-3,0.2-4.4,0.6
					c0,0-0.1,0-0.1,0c-1.3,0.4-2.6,0.9-3.8,1.6c-4.4,2.5-7.6,7-8.3,12.3c0,0,0,0.1,0,0.1c-0.1,0.7-0.2,1.5-0.2,2.3v20.1
					c0,3.8,0.6,7.5,1.7,11c0.4,1.1,0.8,2.2,1.3,3.3c0.8,1.8,1.8,3.6,2.9,5.2c0,0,0,0,0,0.1c2.1,3.2,4.8,6.1,7.8,8.4
					c1.9,1.5,3.9,2.8,6,3.9c1.6,0.8,3.2,1.5,4.9,2c3.6,1.1,7.3,1.7,11.1,1.7h11.9c1.2,0,2.4,0,3.6-0.1c0.2,0,0.5,0,0.8-0.1h0
					c17.5-1.7,32-13.6,37.7-29.6c0.8-2.4,1.5-4.9,1.9-7.4c0.4-2.4,0.6-4.9,0.6-7.4v-8.3h18.4V65c0,1.6,0.1,3.1,0.2,4.7
					c0.4,3.6,1.2,7,2.3,10.2c2.6,7.3,7,13.7,12.7,18.7c6.9,6,15.6,9.9,25.2,10.8c1.3,0.1,2.7,0.2,4.1,0.2h11.9c0.2,0,0.4,0,0.5,0
					c3.6-0.1,7.1-0.6,10.5-1.7c4-1.3,7.7-3.3,11-5.9c3.4-2.6,6.3-5.9,8.5-9.6c0.8-1.3,1.6-2.7,2.2-4.2c2-4.5,3-9.4,3-14.4V53.8
					C266.6,53,266.5,52.2,266.4,51.5z M260.6,73.9c0,3.3-0.5,6.6-1.6,9.7v0c-0.2,0.8-0.5,1.5-0.9,2.2c-0.2,0.4-0.3,0.7-0.5,1.1
					c-1.9,3.8-4.6,7.2-7.8,9.9h0c-0.2,0.2-0.4,0.3-0.6,0.5c-2.8,2.2-5.8,3.8-9.1,4.9c-0.1,0-0.2,0.1-0.3,0.1h0
					c-2.9,0.9-5.9,1.4-8.9,1.4h-12.1c-2.7,0-5.3-0.3-7.8-0.8c-5.7-1.2-10.9-3.7-15.3-7v0c-4.7-3.6-8.6-8.3-11.3-13.6
					c-1.8-3.7-3.1-7.7-3.7-12c-0.2-1.6-0.3-3.2-0.3-4.9V53.8c0-2.6,0.9-5.1,2.6-7.1c0.2-0.2,0.4-0.4,0.6-0.6c2-2,4.8-3.1,7.6-3.1
					h58.6c6,0,10.8,4.9,10.8,10.8V73.9z M148.8,74.9L148.8,74.9c-0.6,2.4-1.5,4.8-2.6,7c-5.2,10.7-15.2,18.6-27.2,21
					c-0.1,0-0.1,0-0.2,0c-2.3,0.4-4.6,0.7-7.1,0.7H99.6c-3.1,0-6.1-0.5-8.9-1.4h0c-0.1,0-0.2-0.1-0.3-0.1c-2.4-0.8-4.7-1.9-6.9-3.2
					c-0.8-0.5-1.6-1.1-2.3-1.6c-0.2-0.1-0.4-0.3-0.6-0.5h0c-2.9-2.4-5.4-5.4-7.2-8.7c0,0,0,0,0-0.1h0c-0.4-0.7-0.8-1.4-1.1-2.2
					c-0.3-0.7-0.6-1.5-0.9-2.2v0c-0.4-1.3-0.8-2.6-1.1-3.9c-0.4-1.9-0.6-3.9-0.6-5.8V53.8c0-6,4.9-10.8,10.8-10.8h58.6
					c2.1,0,4.2,0.6,6,1.8l1,1.8c0.1,0,0.2-0.1,0.2-0.1c0.2-0.1,0.4-0.2,0.5-0.3c0.2,0.2,0.3,0.3,0.5,0.5c1.7,2,2.6,4.5,2.6,7.1v11.5
					C150.1,68.6,149.6,71.8,148.8,74.9z M174.7,50.8h-18.9c-0.5-2.6-1.5-5-3.1-7.1c8.3-3,16.4-2.8,24.7,0.7
					C176,46.3,175.1,48.5,174.7,50.8z"/>
			</g>
			<circle id="XMLID_2453_" class="st23" cx="112" cy="181.7" r="15.1"/>
			<circle id="XMLID_2452_" class="st16" cx="115.9" cy="176.8" r="6.7"/>
			<circle id="XMLID_2451_" class="st23" cx="217.9" cy="181.7" r="15.1"/>
			<circle id="XMLID_2450_" class="st16" cx="221.8" cy="176.8" r="6.7"/>
			<g id="XMLID_2434_">
				<g id="XMLID_2444_">
					<path id="XMLID_2647_" class="st6" d="M455.5,416.4c-5.1,6.3-10.5,12.4-16.2,18.2c-2.7,2.8-5.4,5.5-8.2,8.1
						c-11.2,10.6-23.4,20.1-36.5,28.5c-7.1,4.6-14.4,8.8-22,12.7c-10.3,5.3-21.1,9.9-32.2,13.8c-6.3,2.2-12.7,4.2-19.1,5.9
						c-0.9,0.2-1.9,0.5-2.8,0.7c-9.2,2.3-18.7,4.1-28.3,5.4v-74.2c0-10.2,8.1-18.6,18.2-19.1c0.3,0,0.6,0,0.9,0H455.5z"/>
					<path id="XMLID_2135_" class="st26" d="M340.5,416.4c-10.6,0-19.1,8.6-19.1,19.1v68.1c-0.9,0.2-1.9,0.5-2.8,0.7
						c-9.2,2.3-18.7,4.1-28.3,5.4v-74.2c0-10.2,8.1-18.6,18.2-19.1c0.3,0,0.6,0,0.9,0H340.5z"/>
					<path id="XMLID_2132_" class="st26" d="M439.4,434.6c-2.7,2.8-5.4,5.5-8.2,8.1C432.1,438.7,435.3,435.5,439.4,434.6z"/>
					<path id="XMLID_2130_" class="st26" d="M394.7,445.3v25.9c-7.1,4.6-14.4,8.8-22,12.7v-38.6c0-6.1,4.9-11,11-11
						c3,0,5.8,1.2,7.8,3.2C393.5,439.6,394.7,442.3,394.7,445.3z"/>
					<path id="XMLID_2131_" class="st26" d="M340.5,445.3v52.4c-6.3,2.2-12.7,4.2-19.1,5.9c-0.9,0.2-1.9,0.5-2.8,0.7v-59
						c0-2.8,1.1-5.4,2.8-7.3c2-2.2,4.9-3.6,8.2-3.6c3,0,5.8,1.2,7.8,3.2C339.3,439.6,340.5,442.3,340.5,445.3z"/>
				</g>
				<path id="XMLID_2442_" class="st5" d="M366,402.2h-21.4c-3.2,0-5.8,2.6-5.8,5.8v8.4h32.9V408C371.7,404.8,369.1,402.2,366,402.2
					z"/>
				<path id="XMLID_2441_" class="st33" d="M354.5,402.2c-3.2,0-5.7,2.6-5.7,5.8v8.4h-10V408c0-3.2,2.6-5.8,5.8-5.8H354.5z"/>
				<path id="XMLID_2440_" class="st5" d="M426.5,402.2h-21.4c-3.2,0-5.8,2.6-5.8,5.8v8.4h32.9V408
					C432.2,404.8,429.7,402.2,426.5,402.2z"/>
				<path id="XMLID_2439_" class="st33" d="M415.1,402.2c-3.2,0-5.7,2.6-5.7,5.8v8.4h-10V408c0-3.2,2.6-5.8,5.8-5.8H415.1z"/>
				<rect id="XMLID_2438_" x="407" y="365" class="st16" width="17.4" height="37.2"/>
				<rect id="XMLID_2437_" x="346.5" y="365" class="st16" width="17.4" height="37.2"/>
				<path id="XMLID_2436_" class="st5" d="M432,343.4h-92.8c-3.1,0-5.6,2.5-5.6,5.6v10.5c0,3.1,2.5,5.6,5.6,5.6H432
					c3.1,0,5.6-2.5,5.6-5.6V349C437.5,345.9,435.1,343.4,432,343.4z"/>
				<path id="XMLID_2435_" class="st33" d="M362.8,365h-23.6c-3.1,0-5.6-2.5-5.6-5.6V349c0-3.1,2.5-5.6,5.6-5.6h23.6
					c-3.1,0-5.6,2.5-5.6,5.6v10.5C357.2,362.5,359.7,365,362.8,365z"/>
			</g>
			<path id="XMLID_2433_" class="st40" d="M385.2,383.6L385.2,383.6c-16.9,0-30.6-13.7-30.6-30.6v-24.2c0-7.4,6-13.4,13.4-13.4h34.4
				c7.4,0,13.4,6,13.4,13.4V353C415.8,369.9,402.1,383.6,385.2,383.6z"/>
			<path id="XMLID_2432_" class="st41" d="M394.7,382.1c-3,1-6.2,1.5-9.5,1.5c-16.9,0-30.6-13.7-30.6-30.6v-24.2
				c0-7.4,6-13.4,13.4-13.4h19c-7.4,0-13.4,6-13.4,13.4V353C373.5,366.6,382.4,378.1,394.7,382.1z"/>
		</g>
	</g>
</g>
</svg>
