<?xml version="1.0" encoding="utf-8"?>
<!-- Generator: Adobe Illustrator 22.0.1, SVG Export Plug-In . SVG Version: 6.00 Build 0)  -->
<svg version="1.1" xmlns="http://www.w3.org/2000/svg" xmlns:xlink="http://www.w3.org/1999/xlink" x="0px" y="0px"
	 viewBox="0 0 512 512" style="enable-background:new 0 0 512 512;" xml:space="preserve">
<style type="text/css">
	.st0{fill:#E9B12D;}
	.st1{fill:#A9E7D8;}
	.st2{fill:#76CFB1;}
	.st3{fill:#AE6B5D;}
	.st4{fill:#7770D3;}
	.st5{fill:#5BA0F5;}
	.st6{fill:#DA4545;}
	.st7{fill:#89CCFC;}
	.st8{fill:#CD462A;}
	.st9{fill:#514896;}
	.st10{fill:#5493A0;}
	.st11{fill:#CC6B5C;}
	.st12{fill:#62AA8D;}
	.st13{fill:#8ABAAB;}
	.st14{fill:#C3791F;}
	.st15{fill:#E39123;}
	.st16{fill:#FFFFFF;}
	.st17{fill:none;stroke:#FFFFFF;stroke-width:10;stroke-linecap:round;stroke-miterlimit:10;}
	.st18{fill:none;stroke:#5F55AB;stroke-width:10;stroke-linecap:round;stroke-miterlimit:10;}
	.st19{fill:#A9671C;}
	.st20{fill:#D5B3A7;}
	.st21{fill:#C09A8F;}
	.st22{fill:#487F87;}
	.st23{fill:#1B305C;}
	.st24{fill:#172945;}
	.st25{fill:none;}
	.st26{fill:#B62A2A;}
	.st27{fill:#325859;}
	.st28{fill:#3F6E71;}
	.st29{fill:#284646;}
	.st30{fill:#8F2727;}
	.st31{fill:#29477C;}
	.st32{fill:#5B9BEE;}
	.st33{fill:#487FDE;}
	.st34{fill:#CD9829;}
	.st35{fill:#9F2A2A;}
	.st36{fill:#4C3328;}
	.st37{fill:#E8B94A;}
	.st38{fill:#DDF8F1;}
	.st39{fill:#3E2A22;}
	.st40{fill:#D3A971;}
	.st41{fill:#C79A5B;}
	.st42{fill:#233E76;}
	.st43{fill:#21395F;}
	.st44{fill:#487D82;}
	.st45{fill:none;stroke:#C79A5B;stroke-width:10;stroke-linecap:round;stroke-miterlimit:10;}
	.st46{fill:#5E3E31;}
	.st47{fill:#AC3939;}
	.st48{fill:#CA9628;}
	.st49{fill:#AF8F88;}
	.st50{fill:#815048;}
	.st51{fill:#6F4232;}
	.st52{fill:#5F55AB;}
	.st53{fill:#192A48;}
	.st54{fill:#152336;}
	.st55{fill:#192B49;}
	.st56{fill:#264173;}
	.st57{fill:#B06F1E;}
	.st58{fill:#4E88C0;}
	.st59{fill:#83C3F1;}
	.st60{fill:#CF9929;}
	.st61{fill:none;stroke:#FFFFFF;stroke-width:10;stroke-linecap:round;stroke-linejoin:round;stroke-miterlimit:10;}
	.st62{fill:#EAC262;}
	.st63{fill:#D6D5D4;}
	.st64{fill:#6BBA9B;}
	.st65{fill:#63AA8F;}
	.st66{fill:none;stroke:#3E2A22;stroke-width:10;stroke-linecap:round;stroke-miterlimit:10;}
	.st67{fill:#CA7D1F;}
	.st68{fill:#213B64;}
	.st69{fill:#CDF8EC;}
	.st70{fill:#C59125;}
	.st71{fill:none;stroke:#C09A8F;stroke-width:10;stroke-linecap:round;stroke-miterlimit:10;}
	.st72{fill:#32579B;}
	.st73{fill:#172843;}
	.st74{fill:#D66767;}
	.st75{fill:#A74949;}
	.st76{fill:#EBC76F;}
	.st77{fill:#7A4940;}
	.st78{fill:#182A48;}
	.st79{fill:none;stroke:#A0794A;stroke-width:10;stroke-linecap:round;stroke-miterlimit:10;}
	.st80{fill:#C37A20;}
	.st81{fill:#D26D5C;}
	.st82{fill:#A45752;}
	.st83{fill:#284579;}
	.st84{fill:#88C7F4;}
	.st85{fill:#6EB6F0;}
	.st86{fill:#32221E;}
	.st87{fill:#E7A6A6;}
	.st88{fill:#C59191;}
	.st89{fill:#AA3B3B;}
	.st90{fill:#B83E3E;}
	.st91{fill:none;stroke:#5F55A9;stroke-width:10;stroke-linecap:round;stroke-miterlimit:10;}
	.st92{fill:#963838;}
	.st93{fill:#402B25;}
	.st94{fill:#6B6ABA;}
	.st95{fill:#BABABA;}
	.st96{fill:#D1D1D1;}
	.st97{fill:#264377;}
	.st98{fill:#A19BF5;}
	.st99{fill:#3C2A21;}
	.st100{fill:none;stroke:#4C3328;stroke-width:10;stroke-linecap:round;stroke-miterlimit:10;}
	.st101{fill:#C1781F;}
	.st102{fill:#E3A147;}
	.st103{fill:#F2D2A1;}
	.st104{fill:#4F372D;}
	.st105{fill:none;stroke:#DA4545;stroke-width:10;stroke-linecap:round;stroke-miterlimit:10;}
	.st106{fill:#AA3928;}
	.st107{fill:#8C2C22;}
	.st108{fill:#BF4336;}
	.st109{fill:#5797D4;}
	.st110{fill:#CFCFCF;}
	.st111{fill:#613A2E;}
	.st112{fill:none;stroke:#B18653;stroke-width:10;stroke-linecap:round;stroke-miterlimit:10;}
	.st113{fill:#B13B3B;}
	.st114{fill:#16263A;}
	.st115{fill:none;stroke:#16263A;stroke-width:10;stroke-miterlimit:10;}
	.st116{fill:#C87D20;}
	.st117{fill:#E4F0FD;}
	.st118{fill:#AA3737;}
	.st119{fill:#BF771F;}
	.st120{fill:none;stroke:#CD462A;stroke-width:10;stroke-linejoin:round;stroke-miterlimit:10;}
	.st121{fill:#5696D2;}
	.st122{fill:#C0771E;}
	.st123{fill:#9B5F1B;}
	.st124{fill:#A83A29;}
	.st125{fill:#E7A74F;}
	.st126{fill:#C9924C;}
	.st127{fill:#C58E48;}
	.st128{fill:#BE8844;}
	.st129{fill:#916939;}
	.st130{fill:#264275;}
	.st131{fill:#253F65;}
	.st132{fill:#182A45;}
	.st133{fill:#162336;}
	.st134{fill:#93C7B7;}
	.st135{fill:#E6A4A4;}
	.st136{fill:#B06B1D;}
	.st137{fill:#484185;}
	.st138{fill:#DB6E6E;}
	.st139{fill:#6BBA9A;}
	.st140{fill:#CACCCC;}
	.st141{fill:#D4D4D4;}
	.st142{fill:#A98881;}
	.st143{fill:#213A62;}
	.st144{fill:#A2837D;}
	.st145{fill:#6FB8F4;}
	.st146{fill:#9B9E9E;}
	.st147{fill:#B2B3B3;}
	.st148{fill:#20385D;}
	.st149{fill:#335AA8;}
	.st150{fill:#BCE7FD;}
	.st151{fill:#3B2921;}
	.st152{fill:#AD3C3C;}
	.st153{fill:#9D3838;}
	.st154{fill:#603F33;}
	.st155{fill:#4D868B;}
	.st156{fill:#A2DDFD;}
	.st157{fill:#ECB6B6;}
	.st158{fill:#E8A346;}
	.st159{fill:#514C94;}
	.st160{fill:#D2F1E8;}
	.st161{fill:#BDD6CE;}
	.st162{fill:#B93B29;}
	.st163{fill:#E0AD70;}
	.st164{fill:#C57C21;}
	.st165{fill:#EDA34A;}
	.st166{fill:#2F538F;}
	.st167{fill:#2B4B78;}
	.st168{fill:#65AF91;}
	.st169{fill:#A7CEFC;}
	.st170{fill:#98BDE2;}
	.st171{fill:#CFE5F7;}
	.st172{fill:#5492CD;}
	.st173{fill:#97CCBC;}
	.st174{fill:#5491CA;}
	.st175{fill:#EDC563;}
	.st176{fill:#423C79;}
	.st177{fill:#D3B1A5;}
	.st178{fill:#BE988D;}
	.st179{fill:#A7E5D6;}
	.st180{fill:#F2FFF9;}
	.st181{fill:#D64545;}
	.st182{fill:#A73B3B;}
	.st183{fill:#15233A;}
	.st184{fill:none;stroke:#BE988D;stroke-width:10;stroke-linecap:round;stroke-miterlimit:10;}
	.st185{fill:#AF3A29;}
	.st186{fill:#FAF9FF;}
	.st187{fill:#CACACC;}
	.st188{fill:#372720;}
	.st189{fill:#3F2C26;}
	.st190{fill:#2D201C;}
	.st191{fill:#3D6D6F;}
	.st192{fill:#5B54A8;}
	.st193{fill:#325799;}
	.st194{fill:#E8C26E;}
	.st195{fill:#254784;}
	.st196{fill:#5696D4;}
	.st197{fill:#4F8AB6;}
	.st198{fill:#5FA4AC;}
	.st199{fill:#AA3524;}
	.st200{fill:#D15F4D;}
	.st201{fill:#2B294C;}
	.st202{fill:#A43A2A;}
	.st203{fill:#E7AE2D;}
	.st204{fill:#CD9729;}
	.st205{fill:none;stroke:#AA8253;stroke-width:10;stroke-linecap:round;stroke-miterlimit:10;}
	.st206{fill:none;stroke:#E18F23;stroke-width:10;stroke-linecap:round;stroke-linejoin:round;stroke-miterlimit:10;}
	.st207{fill:#CF9828;}
	.st208{fill:#B88926;}
	.st209{fill:#A17623;}
	.st210{fill:#96CCBC;}
	.st211{fill:#CF9A2A;}
	.st212{fill:#C57B20;}
	.st213{fill:#C7F1E6;}
	.st214{fill:#DC6363;}
	.st215{fill:#E89F9F;}
	.st216{fill:#C88C8C;}
	.st217{fill:#C16E6E;}
	.st218{fill:#A46060;}
	.st219{fill:#AA3626;}
	.st220{fill:#87EDC4;}
	.st221{fill:#D86552;}
	.st222{fill:#BC7620;}
	.st223{fill:#BA741E;}
	.st224{fill:#8F8CE3;}
	.st225{fill:#3A2820;}
	.st226{fill:#AC7060;}
	.st227{fill:#915F55;}
	.st228{fill:#49332A;}
	.st229{fill:#2D1F1B;}
	.st230{fill:#69B7BE;}
	.st231{fill:#D6D6D6;}
	.st232{fill:#B8B8B8;}
	.st233{fill:#CACACA;}
	.st234{fill:#467B80;}
	.st235{fill:#C2EDE2;}
	.st236{fill:#A9574F;}
	.st237{fill:#5595D2;}
	.st238{fill:#955949;}
	.st239{fill:#7E4B42;}
	.st240{fill:#89CCF1;}
	.st241{fill:#DD584A;}
	.st242{fill:#C18F26;}
	.st243{fill:#B33C2A;}
	.st244{fill:#D1A771;}
	.st245{fill:#B42A2A;}
	.st246{fill:#325797;}
	.st247{fill:#9F3529;}
	.st248{fill:#EDCE80;}
	.st249{fill:#F0DBAC;}
	.st250{fill:#CFB478;}
	.st251{fill:#D4C29B;}
	.st252{fill:#993939;}
	.st253{fill:#D1AFA3;}
	.st254{fill:#BC968B;}
	.st255{fill:none;stroke:#BC968B;stroke-width:10;stroke-linecap:round;stroke-miterlimit:10;}
	.st256{fill:#814C3C;}
	.st257{fill:#C0EBE0;}
	.st258{fill:#A5E3D4;}
	.st259{fill:#15243C;}
	.st260{fill:#443E79;}
	.st261{fill:#F0FFF7;}
	.st262{fill:#9A764B;}
	.st263{fill:#826443;}
	.st264{fill:#D9AA74;}
	.st265{fill:#5DA186;}
	.st266{fill:#68B596;}
	.st267{fill:#E5C6BE;}
	.st268{fill:#D3B6B1;}
	.st269{fill:none;stroke:#BAA09C;stroke-width:10;stroke-linecap:round;stroke-miterlimit:10;}
	.st270{fill:#F4D78F;}
	.st271{fill:#20385F;}
	.st272{fill:#BA8727;}
	.st273{fill:#5A9C82;}
	.st274{fill:none;stroke:#E39123;stroke-width:10;stroke-linecap:round;stroke-linejoin:round;stroke-miterlimit:10;}
	.st275{fill:#60392D;}
	.st276{fill:#CCCCCC;}
	.st277{fill:#844F3E;}
	.st278{fill:#F3FFFB;}
	.st279{fill:#365E60;}
	.st280{fill:#D84545;}
	.st281{fill:#A83B3B;}
	.st282{fill:#253F70;}
	.st283{fill:#EAADAD;}
	.st284{fill:#443E7C;}
	.st285{fill:#3D6B9F;}
	.st286{fill:#4274BC;}
	.st287{fill:#AF3827;}
	.st288{fill:#E59D9D;}
	.st289{fill:#C48989;}
	.st290{fill:none;stroke:#9B621A;stroke-width:10;stroke-linecap:round;stroke-linejoin:round;stroke-miterlimit:10;}
	.st291{fill:#213A5E;}
	.st292{fill:#2D507A;}
	.st293{fill:#528EC8;}
	.st294{fill:#EFD696;}
	.st295{fill:#D1BA87;}
	.st296{fill:#FDFCFC;}
	.st297{fill:#86CBFC;}
	.st298{fill:#7AB7DA;}
	.st299{fill:#192C4C;}
	.st300{fill:#BCBCBC;}
	.st301{fill:#A13838;}
	.st302{fill:#75BDF6;}
	.st303{fill:#D0B1AA;}
	.st304{fill:#142233;}
	.st305{fill:#E6C4BB;}
	.st306{fill:#BDBDBD;}
	.st307{fill:#E8A192;}
	.st308{fill:#A43939;}
	.st309{fill:#162640;}
	.st310{fill:#27457C;}
	.st311{fill:#EFBE5E;}
	.st312{fill:#87EDC5;}
	.st313{fill:#A03838;}
	.st314{fill:#833232;}
	.st315{fill:#47417F;}
	.st316{fill:none;stroke:#915F55;stroke-width:10;stroke-linecap:round;stroke-miterlimit:10;}
	.st317{fill:#BC8B25;}
	.st318{fill:#473129;}
	.st319{fill:#67B394;}
	.st320{fill:#599A80;}
	.st321{fill:#B13D3D;}
</style>
<g id="BULINE">
	<g>
		<circle id="XMLID_2709_" class="st4" cx="256" cy="256" r="256"/>
	</g>
</g>
<g id="Icons">
	<g id="XMLID_2194_">
		<path id="XMLID_3146_" class="st224" d="M512,256c0,37.3-8,72.7-22.3,104.7c-5.8,3.1-11.7,6.1-17.7,8.8
			c-11,4.9-22.4,9.1-34.1,12.5c-2.9,0.9-5.9,1.6-8.9,2.4c-13,3.3-26.5,5.5-40.2,6.7c-7.2,0.6-14.5,1-21.8,1c-0.3,0-0.7,0-1,0
			c-10.7,0-21.2-0.6-31.5-1.9c-6.3-0.8-12.6-1.8-18.8-3c-0.4-0.1-0.8-0.1-1.2-0.2c-1.1-0.2-2.2-0.4-3.3-0.7c-0.1,0-0.2,0-0.3-0.1
			c-8.8-1.9-17.5-4.3-26-7.1c-26-8.5-50.1-21-71.8-36.8c-5.2-3.8-10.4-7.9-15.3-12c-5.8-5-11.4-10.2-16.8-15.6
			c-4.1-4.1-8-8.3-11.7-12.7c-3.5-4.1-6.9-8.2-10.2-12.5c-1.1-1.4-2.2-2.9-3.2-4.3c-2.6-3.6-5.1-7.2-7.5-10.9
			c-0.1-0.2-0.2-0.4-0.4-0.5c-12.1-18.5-21.8-38.7-28.8-60c-8.3-25.3-12.9-52.3-13-80.4c0-0.3,0-0.7,0-1c0-0.4,0-0.8,0-1.2
			c0.1-33.4,6.6-65.3,18.2-94.6c3.6-9.1,7.7-18,12.3-26.5c12.8-4.6,26.7-7.2,41.1-7.2h0.2c8.8,0,17.3,0.9,25.6,2.7
			C220.5,1.9,238,0,256,0C397.4,0,512,114.6,512,256z"/>
		<path id="XMLID_2283_" class="st225" d="M298.8,158.7C298.8,158.7,298.8,158.7,298.8,158.7l0-35.3c0-57.9-40.8-106.4-95.2-118.1
			c-8.2-1.8-16.8-2.7-25.6-2.7h-0.2c-14.4,0-28.3,2.5-41.1,7.2c-5.3,1.9-10.4,4.2-15.3,6.8c0,0,0,0,0,0c-0.6,0.3-1.2,0.6-1.8,1
			c-1.2,0.6-2.4,1.3-3.5,2c-0.6,0.3-1.2,0.7-1.7,1c-1.5,0.9-3,1.9-4.4,2.9c-0.7,0.5-1.3,0.9-2,1.4c-1.4,1-2.7,2-4,3
			c-0.3,0.2-0.7,0.5-1,0.8c-0.6,0.4-1.1,0.9-1.7,1.3c-0.3,0.2-0.6,0.5-0.9,0.8c-0.4,0.3-0.8,0.7-1.3,1.1c-0.2,0.1-0.3,0.2-0.5,0.4
			c-0.7,0.6-1.3,1.2-1.9,1.7c-0.8,0.8-1.6,1.5-2.4,2.3c-0.6,0.5-1.1,1.1-1.6,1.6c-0.8,0.8-1.6,1.6-2.4,2.4c-0.6,0.6-1.2,1.3-1.8,1.9
			c-0.6,0.7-1.3,1.4-1.9,2.2c-0.6,0.7-1.2,1.4-1.8,2.1c-0.7,0.9-1.4,1.8-2.2,2.7c-0.5,0.6-1,1.3-1.5,1.9c0,0-0.1,0.1-0.1,0.1
			c-1.2,1.5-2.3,3.1-3.3,4.7c-0.5,0.8-1.1,1.6-1.6,2.4c-0.5,0.8-1,1.6-1.5,2.5c-0.5,0.8-0.9,1.6-1.4,2.4c-0.1,0.2-0.2,0.4-0.3,0.6
			c-0.4,0.7-0.8,1.4-1.2,2.1c-0.4,0.7-0.7,1.4-1.1,2.1c-0.2,0.3-0.4,0.7-0.5,1c0,0.1-0.1,0.1-0.1,0.2c-0.8,1.5-1.5,3.1-2.2,4.6
			c-0.8,1.8-1.6,3.6-2.3,5.4c-0.4,0.9-0.7,1.8-1.1,2.8c-0.8,2.3-1.6,4.6-2.3,7c-0.4,1.5-0.9,2.9-1.2,4.4c-0.5,1.9-0.9,3.9-1.4,5.8
			c-0.4,2-0.8,4-1.1,6c-0.1,1-0.3,2-0.4,3c-0.1,1-0.2,2-0.4,3c-0.3,3-0.5,6.1-0.6,9.2c0,1,0,2.1,0,3.1V158c0,0,0,0,0,0
			c-2,2.5-3.2,5.7-3.2,9.2v0v14.1v0c0,7.6,5.8,13.9,13.3,14.7c0.5,0.1,1,0.1,1.5,0.1h2.7v0c1,9.1,3.2,17.9,6.4,26.2
			c0,0,0,0.1,0.1,0.1c0,0,0,0,0,0c0,0,0,0.1,0,0.1c0.2,0.7,0.5,1.3,0.8,2c0,0.1,0.1,0.2,0.1,0.3c0.3,0.7,0.5,1.3,0.8,2
			c0,0.1,0.1,0.2,0.1,0.3c0.3,0.6,0.6,1.3,0.9,1.9c0.1,0.1,0.1,0.2,0.2,0.3c0.3,0.6,0.6,1.2,0.9,1.9c0.1,0.1,0.1,0.2,0.2,0.3
			c0.3,0.6,0.6,1.2,0.9,1.9c0.1,0.1,0.1,0.2,0.1,0.3c0.1,0.2,0.2,0.4,0.3,0.6c0,0,0,0,0,0c-5.8,5.5-11.6,12.1-17.2,19.5
			c-2.6,3.3-5.1,6.9-7.6,10.6c-11.7,17.2-22.6,38.1-31.5,61.3c-3.3,8.5-6.1,16.9-8.6,25.2c6.8,17.2,15.5,33.4,25.7,48.5
			c9,13.3,19.2,25.7,30.4,37c0.3,0.4,0.7,0.7,1.1,1.1c4.4,4.4,8.9,8.6,13.7,12.6c6.7-7.6,13.3-16.4,19.6-26.3
			c1.2-1.8,2.3-3.7,3.5-5.6c1-1.7,2-3.4,3-5.1c3.9-6.8,7.7-14,11.3-21.5c0,0,0,0,0,0c2.3-4.9,4.6-9.9,6.7-15.1
			c1.2-2.8,2.3-5.7,3.4-8.6c2.9-7.6,5.5-15.1,7.8-22.6c2.4-7.7,4.4-15.3,6-22.8c0-0.2,0.1-0.4,0.1-0.6c0,0,0,0,0,0
			c0.6-2.4,1.1-4.9,1.5-7.3c1.7-9,3-17.6,3.6-25.9c0.2,0,0.3,0.1,0.5,0.1c0.1,0,0.1,0,0.2,0c0.4,0.1,0.8,0.1,1.2,0.2
			c0.2,0,0.4,0.1,0.7,0.1c0.3,0,0.5,0.1,0.8,0.1c0.2,0,0.4,0.1,0.5,0.1c0.4,0.1,0.9,0.1,1.3,0.2c0.1,0,0.3,0,0.4,0.1
			c0.1,0,0.2,0,0.4,0.1c0.2,0,0.4,0.1,0.6,0.1c0.4,0.1,0.8,0.1,1.3,0.2c0.2,0,0.5,0.1,0.7,0.1c0.6,0.1,1.3,0.2,1.9,0.2
			c0.2,0,0.5,0.1,0.7,0.1c0.7,0.1,1.4,0.1,2,0.2c0.2,0,0.3,0,0.5,0c0,0,0.1,0,0.1,0c0.8,0.1,1.5,0.1,2.3,0.1c0.1,0,0.2,0,0.3,0
			c1.8,0.1,3.6,0.1,5.4,0.1c0,0,0,0,0,0h0h0c0.1,0,0.2,0,0.2,0c1.4,0,2.8,0,4.2-0.1c0.2,0,0.4,0,0.6,0c0.1,0,0.2,0,0.4,0
			c1.3-0.1,2.6-0.2,3.8-0.3c0.1,0,0.2,0,0.3,0c0.1,0,0.3,0,0.4,0c0.3,0,0.5-0.1,0.8-0.1c0.6-0.1,1.3-0.1,1.9-0.2c0,0,0,0,0,0
			c0.5-0.1,1-0.1,1.4-0.2c0.2,0,0.4-0.1,0.7-0.1c1.4-0.2,2.7-0.4,4.1-0.6c0.1,0,0.2,0,0.3-0.1c0,0,0,0,0,0
			c46.1-8.3,81.9-46.1,87.1-93.1h3.1c8.2,0,14.8-6.6,14.8-14.8v-14.1C301.6,164.1,300.5,161.1,298.8,158.7z M57.3,157.8
			c0.1-0.1,0.2-0.2,0.3-0.4c0,0,0,0,0,0c0.2-0.2,0.3-0.3,0.5-0.5C57.8,157.2,57.5,157.5,57.3,157.8z"/>
		<path id="XMLID_2955_" class="st226" d="M185.2,334.2h-15.1c-12.1,0-21.9-9.8-21.9-21.9v-36.1c0-12.1,9.8-21.9,21.9-21.9h15.1
			c12.1,0,21.9,9.8,21.9,21.9v36.1C207.1,324.4,197.3,334.2,185.2,334.2z"/>
		<path id="XMLID_2953_" class="st227" d="M188,334c-1,0.2-2.1,0.2-3.2,0.2h-15.1c-12.1,0-21.9-9.8-21.9-21.9v-36.1
			c0-12.1,9.8-21.9,21.9-21.9h15.1c1.1,0,2.1,0.1,3.2,0.2c-10.6,1.5-18.7,10.7-18.7,21.7v36.1C169.3,323.3,177.4,332.4,188,334z"/>
		<path id="XMLID_3024_" class="st228" d="M226.4,40.5c8.8,4.4,21.2,13.1,28.3,29.5c1.6,3.6-2.2,7.3-5.7,5.6l0,0
			c-2.3-1.1-4.7,1.3-3.7,3.6c1.5,3.4,3.3,7.7,4.9,12.1c1.6,4.5-4.2,7.8-7.3,4.2c-8.2-9.6-20.4-20.8-33.1-22.4
			c-1.4-0.2-2.2-1.8-1.4-3c1.8-2.9,5.4-7.3,11.1-8.9c5.1-1.4,8.4-6.5,7.3-11.6c-0.4-2-1.3-4.1-2.8-6.3
			C222.7,41.8,224.5,39.6,226.4,40.5z"/>
		<rect id="XMLID_2963_" x="351.5" y="306.8" class="st28" width="63.2" height="56.9"/>
		<ellipse id="XMLID_2961_" class="st0" cx="70.4" cy="229.8" rx="33.8" ry="37"/>
		<ellipse id="XMLID_2959_" class="st15" cx="70.4" cy="229.8" rx="22.3" ry="24.5"/>
		<ellipse id="XMLID_2958_" class="st0" cx="281.1" cy="229.8" rx="33.8" ry="37"/>
		<ellipse id="XMLID_2957_" class="st15" cx="281.1" cy="229.8" rx="22.3" ry="24.5"/>
		<path id="XMLID_3045_" class="st226" d="M311.1,361.5V506c-0.1,0-0.2,0.1-0.3,0.1c-8.6,1.9-17.4,3.3-26.4,4.3
			c-4.4,0.5-8.9,0.9-13.4,1.1h-30.1C183,508.2,130.3,485.6,89,450c-4.7-4-9.3-8.3-13.7-12.6c-0.4-0.4-0.7-0.7-1.1-1.1
			c-11.2-11.3-21.4-23.7-30.4-37v-37.8c0-25.9,21-46.9,46.9-46.9h173.5C290.1,314.6,311.1,335.6,311.1,361.5z"/>
		<path id="XMLID_2952_" class="st226" d="M298.8,158.7c-2.7-3.8-7.1-6.2-12-6.2h-2.5L193,103c-9.7-5.3-21.5-5.3-31.2,0l-91.2,49.5
			v0h0h-2c-4.7,0-8.8,2.2-11.5,5.6c-2,2.5-3.2,5.7-3.2,9.2v14.1c0,8.2,6.6,14.8,14.8,14.8h2.7c0,0,0,0,0,0c1,9.1,3.2,17.9,6.4,26.2
			c0,0.1,0,0.1,0.1,0.2c0.3,0.7,0.5,1.4,0.8,2.1c0,0.1,0.1,0.2,0.1,0.3c0.3,0.7,0.5,1.3,0.8,2c0,0.1,0.1,0.2,0.1,0.3
			c0.3,0.6,0.6,1.3,0.9,1.9c0.1,0.1,0.1,0.2,0.2,0.3c0.3,0.6,0.6,1.2,0.9,1.9c0.1,0.1,0.1,0.2,0.2,0.3c0.3,0.6,0.6,1.2,0.9,1.9
			c0,0.1,0.1,0.2,0.1,0.3c0.3,0.6,0.7,1.3,1,1.9c0,0.1,0.1,0.1,0.1,0.2c2.3,4.1,4.8,8,7.5,11.7c0.1,0.1,0.1,0.2,0.2,0.3
			c0.4,0.5,0.7,1,1.1,1.5c0.1,0.2,0.3,0.3,0.4,0.5c0.3,0.4,0.7,0.9,1.1,1.3c0.2,0.2,0.3,0.4,0.5,0.6c0.3,0.4,0.7,0.8,1,1.2
			c0.2,0.2,0.4,0.5,0.6,0.7c0.3,0.4,0.7,0.8,1,1.2c0.2,0.2,0.4,0.5,0.6,0.7c0.3,0.4,0.7,0.7,1,1.1c0.2,0.2,0.5,0.5,0.7,0.7
			c0.3,0.3,0.7,0.7,1,1c0.2,0.3,0.5,0.5,0.7,0.8c0.3,0.3,0.7,0.7,1,1c0.3,0.3,0.5,0.5,0.8,0.8c0.3,0.3,0.7,0.6,1,0.9
			c0.3,0.3,0.6,0.5,0.8,0.8c0.3,0.3,0.6,0.6,1,0.9c0.3,0.3,0.6,0.5,0.9,0.8c0.3,0.3,0.6,0.6,0.9,0.8c0.3,0.3,0.7,0.6,1,0.9
			c0.3,0.2,0.6,0.5,0.9,0.7c0.5,0.4,1.1,0.9,1.6,1.3c0.2,0.2,0.4,0.3,0.6,0.5c0.6,0.4,1.1,0.9,1.7,1.3c0.2,0.2,0.5,0.3,0.7,0.5
			c0.4,0.3,0.9,0.7,1.3,1c0.2,0.2,0.5,0.4,0.8,0.5c0.4,0.3,0.9,0.6,1.3,0.9c0.3,0.2,0.5,0.4,0.8,0.5c0.4,0.3,0.9,0.6,1.3,0.9
			c0.3,0.2,0.5,0.3,0.8,0.5c0.4,0.3,0.9,0.5,1.3,0.8c0.3,0.2,0.5,0.3,0.8,0.5c0.4,0.3,0.9,0.5,1.3,0.8c0.3,0.2,0.5,0.3,0.8,0.5
			c0.5,0.3,0.9,0.5,1.4,0.8c0.3,0.1,0.5,0.3,0.8,0.4c0.5,0.3,1,0.5,1.4,0.8c0.3,0.1,0.5,0.3,0.8,0.4c0.5,0.3,1,0.5,1.5,0.7
			c0.2,0.1,0.5,0.2,0.7,0.4c0.5,0.3,1.1,0.5,1.6,0.7c0.2,0.1,0.5,0.2,0.7,0.3c0.6,0.3,1.2,0.5,1.8,0.8c0.2,0.1,0.4,0.2,0.6,0.2
			c0.7,0.3,1.4,0.6,2.1,0.8c0.1,0,0.2,0.1,0.3,0.1c2.4,0.9,4.9,1.8,7.3,2.6c0.1,0,0.1,0,0.2,0.1c0.7,0.2,1.5,0.5,2.3,0.7
			c0.2,0,0.3,0.1,0.5,0.1c0.7,0.2,1.3,0.4,2,0.5c0.2,0.1,0.4,0.1,0.6,0.2c0.6,0.2,1.3,0.3,1.9,0.5c0.2,0.1,0.5,0.1,0.7,0.2
			c0.6,0.1,1.2,0.3,1.8,0.4c0.2,0.1,0.5,0.1,0.7,0.1c0.6,0.1,1.2,0.2,1.8,0.3c0.3,0,0.5,0.1,0.8,0.1c0.6,0.1,1.2,0.2,1.8,0.3
			c0.3,0,0.5,0.1,0.8,0.1c0.6,0.1,1.2,0.2,1.9,0.3c0.2,0,0.5,0.1,0.7,0.1c0.6,0.1,1.3,0.2,1.9,0.2c0.2,0,0.5,0,0.7,0.1
			c0.7,0.1,1.4,0.1,2.1,0.2c0.2,0,0.4,0,0.6,0c0.8,0.1,1.5,0.1,2.3,0.1c0.1,0,0.2,0,0.3,0c1.8,0.1,3.6,0.1,5.4,0.1
			c0.1,0,0.2,0,0.2,0c1.4,0,2.8,0,4.2-0.1c0.2,0,0.4,0,0.6,0c1.4-0.1,2.8-0.2,4.2-0.3c0.2,0,0.4,0,0.7-0.1c1.4-0.1,2.8-0.3,4.1-0.5
			c0.2,0,0.4-0.1,0.7-0.1c1.4-0.2,2.7-0.4,4.1-0.6c0.1,0,0.2,0,0.3-0.1c0,0,0,0,0,0c46.1-8.3,81.9-46.1,87.1-93.1h3.1
			c8.2,0,14.8-6.6,14.8-14.8v-14.1C301.6,164.1,300.5,161.1,298.8,158.7z"/>
		<path id="XMLID_3010_" class="st22" d="M310.8,361.5V506l0,0.1c-8.6,1.9-17.4,3.3-26.4,4.3c-4.4,0.5-8.9,0.9-13.4,1.1h-30.1
			C183,508.2,130.3,485.6,89,450c-4.7-4-9.3-8.3-13.7-12.6c11.6-3.8,22.7-8.4,33.3-13.7c1.5-0.8,3.1-1.5,4.6-2.3c1.9-1,3.8-2,5.7-3
			c6.2-3.4,12.2-7,18-10.7c5.5-3.5,10.8-7.2,16-10.9c8.8-6.4,16.9-12.9,24.5-19.5c14-12.2,26.1-24.3,35.7-35
			c10.5-11.6,18.3-21.5,23-27.6h27.9C289.8,314.6,310.8,335.6,310.8,361.5z"/>
		<path id="XMLID_3007_" class="st6" d="M311.1,445.2V506c-0.1,0-0.2,0.1-0.3,0.1c-8.6,1.9-17.4,3.3-26.4,4.3
			c-4.4,0.5-8.9,0.9-13.4,1.1h-30.1C183,508.2,130.3,485.6,89,450c-4.7-4-9.3-8.3-13.7-12.6c-0.4-0.4-0.7-0.7-1.1-1.1
			c-11.2-11.3-21.4-23.7-30.4-37v-37.8c0-25.9,21-46.9,46.9-46.9h27.9c0,0,0,0,0,0.1c5.1,6.7,13.8,17.7,25.7,30.6
			c9.2,9.9,20.2,20.9,33,32c28.2,24.4,64.7,48.9,107.1,61.7c8.6,2.6,17.3,4.7,26.4,6.2C310.9,445.2,311,445.2,311.1,445.2z"/>
		<path id="XMLID_2945_" class="st28" d="M310.9,431.3v13.9c-53.8-9.1-99.6-38.6-133.5-67.9c5.3-4.6,10.3-9.2,15.1-13.7
			C222.7,390.5,263.2,418.5,310.9,431.3z"/>
		<path id="XMLID_3008_" class="st26" d="M121.2,314.6c-0.8,0-1.7,0-2.5,0.1c-24.7,1.3-44.4,21.8-44.4,46.8v74.8
			c-11.2-11.3-21.4-23.7-30.4-37v-37.8c0-25.9,21-46.9,46.9-46.9H121.2z"/>
		<path id="XMLID_2941_" class="st26" d="M110.3,341.4c0,0,35.8,88.8,170.8,117.5C281.1,458.9,131.6,480.1,110.3,341.4z"/>
		<path id="XMLID_2939_" class="st26" d="M108,400.4c0,0,25.1,62.2,119.7,82.3C227.8,482.7,123,497.5,108,400.4z"/>
		<path id="XMLID_2937_" class="st227" d="M190.1,290.2c-0.9,0.1-1.8,0.2-2.7,0.3c-0.2,0-0.4,0-0.6,0.1c-1.4,0.1-2.8,0.2-4.2,0.3
			c-0.2,0-0.4,0-0.6,0c-1.4,0.1-2.8,0.1-4.2,0.1c-0.1,0-0.2,0-0.2,0c-1.8,0-3.6-0.1-5.4-0.1c-0.1,0-0.2,0-0.4,0
			c-0.8,0-1.5-0.1-2.3-0.1c-0.2,0-0.4,0-0.6,0c-0.7-0.1-1.4-0.1-2-0.2c-0.2,0-0.5-0.1-0.7-0.1c-0.6-0.1-1.3-0.1-1.9-0.2
			c-0.2,0-0.5-0.1-0.7-0.1c-0.6-0.1-1.2-0.2-1.9-0.3c-0.3,0-0.5-0.1-0.7-0.1c-0.6-0.1-1.2-0.2-1.8-0.3c-0.2,0-0.5-0.1-0.7-0.1
			c-0.6-0.1-1.2-0.2-1.8-0.3c-0.3-0.1-0.5-0.1-0.7-0.2c-0.6-0.1-1.2-0.3-1.8-0.4c-0.2-0.1-0.5-0.1-0.7-0.2c-0.6-0.1-1.2-0.3-1.9-0.5
			c-0.2-0.1-0.4-0.1-0.6-0.2c-0.7-0.2-1.3-0.4-2-0.5c-0.2,0-0.3-0.1-0.5-0.1c-0.7-0.2-1.5-0.4-2.3-0.7c-0.1,0-0.1,0-0.2-0.1
			c-2.5-0.8-4.9-1.6-7.3-2.6c-0.1,0-0.2-0.1-0.3-0.1c-0.7-0.3-1.4-0.6-2.1-0.8c-0.2-0.1-0.4-0.2-0.6-0.2c-0.6-0.2-1.2-0.5-1.8-0.8
			c-0.2-0.1-0.5-0.2-0.7-0.3c-0.5-0.2-1.1-0.5-1.6-0.7c-0.2-0.1-0.5-0.2-0.7-0.4c-0.5-0.2-1-0.5-1.5-0.7c-0.3-0.1-0.5-0.3-0.8-0.4
			c-0.5-0.2-1-0.5-1.4-0.8c-0.3-0.1-0.5-0.3-0.8-0.4c-0.5-0.3-0.9-0.5-1.4-0.8c-0.3-0.2-0.6-0.3-0.8-0.5c-0.4-0.3-0.9-0.5-1.3-0.8
			c-0.3-0.2-0.6-0.3-0.8-0.5c-0.4-0.3-0.9-0.6-1.3-0.8c-0.3-0.2-0.5-0.3-0.8-0.5c-0.4-0.3-0.9-0.6-1.3-0.9c-0.3-0.2-0.5-0.3-0.8-0.5
			c-0.4-0.3-0.9-0.6-1.3-0.9c-0.3-0.2-0.5-0.3-0.8-0.5c-0.5-0.3-0.9-0.6-1.3-1c-0.2-0.2-0.5-0.3-0.7-0.5c-0.6-0.4-1.1-0.9-1.7-1.3
			c-0.2-0.2-0.4-0.3-0.6-0.5c-0.5-0.4-1.1-0.9-1.6-1.3c-0.3-0.2-0.6-0.5-0.9-0.7c-0.3-0.3-0.7-0.6-1-0.9c-0.3-0.3-0.6-0.5-0.9-0.8
			c-0.3-0.3-0.6-0.5-0.9-0.8c-0.3-0.3-0.6-0.6-1-0.9c-0.3-0.3-0.6-0.5-0.8-0.8c-0.3-0.3-0.6-0.6-1-0.9c-0.3-0.3-0.5-0.5-0.8-0.8
			c-0.3-0.3-0.7-0.7-1-1c-0.2-0.3-0.5-0.5-0.7-0.8c-0.3-0.3-0.7-0.7-1-1c-0.2-0.2-0.5-0.5-0.7-0.7c-0.3-0.4-0.7-0.7-1-1.1
			c-0.2-0.2-0.4-0.5-0.6-0.7c-0.3-0.4-0.7-0.8-1-1.2c-0.2-0.2-0.4-0.5-0.6-0.7c-0.3-0.4-0.7-0.8-1-1.2c-0.2-0.2-0.3-0.4-0.5-0.6
			c-0.4-0.4-0.7-0.9-1.1-1.3c-0.1-0.2-0.3-0.3-0.4-0.5c-0.4-0.5-0.7-1-1.1-1.5c-0.1-0.1-0.1-0.2-0.2-0.3c-2.8-3.7-5.3-7.7-7.5-11.7
			c0-0.1-0.1-0.1-0.1-0.2c-0.3-0.6-0.7-1.2-1-1.9c-0.1-0.1-0.1-0.2-0.1-0.3c-0.3-0.6-0.6-1.2-0.9-1.9c-0.1-0.1-0.1-0.2-0.2-0.3
			c-0.3-0.6-0.6-1.2-0.9-1.9c-0.1-0.1-0.1-0.2-0.2-0.3c-0.3-0.6-0.6-1.3-0.9-1.9c0-0.1-0.1-0.2-0.1-0.3c-0.3-0.7-0.6-1.3-0.8-2
			c0-0.1-0.1-0.2-0.1-0.3c-0.3-0.7-0.6-1.4-0.8-2c0-0.1,0-0.1-0.1-0.2c-3.2-8.3-5.3-17-6.4-26.2v0h-2.7c-8.2,0-14.8-6.6-14.8-14.8
			v-14.1c0-3.5,1.2-6.7,3.2-9.2c2.7-3.4,6.9-5.6,11.5-5.6h2l35.7-19.4C112.8,201.2,145,259.2,190.1,290.2z"/>
		<path id="XMLID_2936_" class="st229" d="M105.1,107.6c0,8.6,0.4,17.2,1.2,25.5l-35.7,19.4h-2c-4.7,0-8.8,2.2-11.5,5.6v-34.6
			c0-46.3,26.1-86.6,64.4-106.8C111,44.1,105.1,74.9,105.1,107.6z"/>
		<circle id="XMLID_2935_" class="st23" cx="125" cy="167.1" r="14.7"/>
		<circle id="XMLID_2934_" class="st16" cx="128.7" cy="162.4" r="6.5"/>
		<circle id="XMLID_2933_" class="st23" cx="227.8" cy="167.1" r="14.7"/>
		<circle id="XMLID_2932_" class="st16" cx="231.5" cy="162.4" r="6.5"/>
		<path id="XMLID_2931_" class="st227" d="M183.8,200.8h-13.2c-4.4,0-7.9-3.5-7.9-7.9v0c0-4.4,3.5-7.9,7.9-7.9h13.2
			c4.4,0,7.9,3.5,7.9,7.9v0C191.7,197.3,188.1,200.8,183.8,200.8z"/>
		<path id="XMLID_2928_" class="st36" d="M206.1,218.8c1.5,0,2.8,1.3,2.8,2.8l0,0c0,2.9-0.4,5.7-1.1,8.3c-1.7,6.2-5.1,11.6-9.8,15.6
			c-5.6,4.9-12.9,7.8-20.8,7.8c-8,0-15.3-2.9-20.8-7.8c-4.7-4.1-8.1-9.5-9.8-15.6c-0.7-2.7-1.1-5.5-1.1-8.3l0,0
			c0-1.5,1.3-2.8,2.8-2.8H206.1z"/>
		<path id="XMLID_2927_" class="st26" d="M198,245.6c-5.6,4.9-12.9,7.8-20.8,7.8c-8,0-15.3-2.9-20.8-7.8c5.6-4.9,12.9-7.8,20.8-7.8
			C185.1,237.8,192.4,240.7,198,245.6z"/>
		<path id="XMLID_2926_" class="st16" d="M206.1,218.8c1.5,0,2.8,1.3,2.8,2.8l0,0c0,2.9-0.4,5.7-1.1,8.3h-61.3
			c-0.7-2.7-1.1-5.5-1.1-8.3l0,0c0-1.5,1.3-2.8,2.8-2.8H206.1z"/>
		<g id="XMLID_2751_">
			<g id="XMLID_2919_">
				<path id="XMLID_3037_" class="st15" d="M477.5,382.9v1.6c-8.7,15-18.9,29.1-30.5,42c-6.9,7.7-14.2,15-22,21.8
					c-11.2,9.9-23.3,18.8-36.1,26.6c-7.1,4.3-14.4,8.3-22,11.9c-10.4,5-21.1,9.3-32.2,12.9c-6.3,2-12.6,3.8-19.1,5.3
					c-0.9,0.2-1.9,0.5-2.8,0.7c-0.6,0.1-1.1,0.3-1.7,0.4c-0.1,0-0.2,0.1-0.3,0.1c-8.6,1.9-17.4,3.3-26.4,4.3V382.9
					c0-1.3,0.1-2.6,0.4-3.8c0.8-3.8,2.6-7.1,5.2-9.7c3.4-3.5,8.2-5.6,13.5-5.6h154.8c5.3,0,10.1,2.2,13.6,5.7
					C475.4,372.9,477.5,377.6,477.5,382.9z"/>
				<path id="XMLID_3018_" class="st14" d="M334.8,363.8c-10.6,0-19.1,8.6-19.1,19.1V505c-0.9,0.2-1.9,0.5-2.8,0.7
					c-0.6,0.1-1.1,0.3-1.7,0.4c-0.1,0-0.2,0.1-0.3,0.1c-8.6,1.9-17.4,3.3-26.4,4.3V382.9c0-1.3,0.1-2.6,0.4-3.8
					c0.8-3.8,2.6-7.1,5.2-9.7c3.5-3.5,8.2-5.6,13.5-5.6H334.8z"/>
				<path id="XMLID_3004_" class="st14" d="M447,392.7v33.7c-6.9,7.7-14.2,15-22,21.8v-55.5c0-3.4,1.5-6.4,4-8.4
					c1.9-1.6,4.3-2.5,7-2.5c0.6,0,1.3,0,1.9,0.2c2.3,0.4,4.3,1.5,5.9,3.1C445.8,386.9,447,389.7,447,392.7z"/>
				<path id="XMLID_3003_" class="st14" d="M388.9,392.7v82.1c-7.1,4.3-14.4,8.3-22,11.9v-94c0-0.2,0-0.5,0-0.7
					c0.4-5.7,5.1-10.2,11-10.2c3,0,5.8,1.2,7.8,3.2c1.6,1.6,2.7,3.7,3.1,6C388.9,391.6,388.9,392.1,388.9,392.7z"/>
				<path id="XMLID_3005_" class="st14" d="M334.8,392.7v107c-6.3,2-12.6,3.8-19.1,5.3c-0.9,0.2-1.9,0.5-2.8,0.7v-113
					c0-2.1,0.6-4.1,1.7-5.8c0.3-0.5,0.7-1.1,1.2-1.5c2-2.2,4.9-3.6,8.1-3.6c3,0,5.8,1.2,7.8,3.2c1.4,1.4,2.4,3.2,2.9,5.1
					C334.6,390.9,334.8,391.8,334.8,392.7z"/>
			</g>
			<path id="XMLID_2781_" class="st51" d="M360.2,349.6h-21.4c-3.2,0-5.8,2.6-5.8,5.8v8.4h32.9v-8.4
				C365.9,352.2,363.4,349.6,360.2,349.6z"/>
			<path id="XMLID_2779_" class="st36" d="M348.8,349.6c-3.2,0-5.7,2.6-5.7,5.8v8.4h-10v-8.4c0-3.2,2.6-5.8,5.8-5.8H348.8z"/>
			<path id="XMLID_2778_" class="st51" d="M420.7,349.6h-21.4c-3.2,0-5.8,2.6-5.8,5.8v8.4h32.9v-8.4
				C426.5,352.2,423.9,349.6,420.7,349.6z"/>
			<path id="XMLID_2776_" class="st36" d="M409.3,349.6c-3.2,0-5.7,2.6-5.7,5.8v8.4h-10v-8.4c0-3.2,2.6-5.8,5.8-5.8H409.3z"/>
			<rect id="XMLID_2773_" x="401.3" y="312.4" class="st16" width="17.4" height="37.2"/>
			<rect id="XMLID_2771_" x="340.8" y="312.4" class="st16" width="17.4" height="37.2"/>
			<path id="XMLID_2753_" class="st51" d="M426.2,290.8h-92.8c-3.1,0-5.6,2.5-5.6,5.6v10.5c0,3.1,2.5,5.6,5.6,5.6h92.8
				c3.1,0,5.6-2.5,5.6-5.6v-10.5C431.8,293.3,429.3,290.8,426.2,290.8z"/>
			<path id="XMLID_2752_" class="st36" d="M357,312.4h-23.6c-3.1,0-5.6-2.5-5.6-5.6v-10.5c0-3.1,2.5-5.6,5.6-5.6H357
				c-3.1,0-5.6,2.5-5.6,5.6v10.5C351.5,309.9,354,312.4,357,312.4z"/>
		</g>
		<path id="XMLID_2750_" class="st226" d="M379.4,328.2L379.4,328.2c-16.9,0-30.6-13.7-30.6-30.6v-13.7c0-6.4,5.2-11.7,11.7-11.7
			h37.9c6.4,0,11.7,5.2,11.7,11.7v13.7C410,314.5,396.3,328.2,379.4,328.2z"/>
		<path id="XMLID_2747_" class="st227" d="M389.3,326.6c-3.1,1.1-6.4,1.6-9.9,1.6c-16.9,0-30.6-13.7-30.6-30.6v-13.7
			c0-6.5,5.2-11.7,11.7-11.7h19.7c-6.4,0-11.7,5.2-11.7,11.7v13.7C368.5,311,377.2,322.5,389.3,326.6z"/>
	</g>
</g>
</svg>
