<?xml version="1.0" encoding="utf-8"?>
<!-- Generator: Adobe Illustrator 22.0.1, SVG Export Plug-In . SVG Version: 6.00 Build 0)  -->
<svg version="1.1" xmlns="http://www.w3.org/2000/svg" xmlns:xlink="http://www.w3.org/1999/xlink" x="0px" y="0px"
	 viewBox="0 0 512 512" style="enable-background:new 0 0 512 512;" xml:space="preserve">
<style type="text/css">
	.st0{fill:#E9B12D;}
	.st1{fill:#A9E7D8;}
	.st2{fill:#76CFB1;}
	.st3{fill:#AE6B5D;}
	.st4{fill:#7770D3;}
	.st5{fill:#5BA0F5;}
	.st6{fill:#DA4545;}
	.st7{fill:#89CCFC;}
	.st8{fill:#CD462A;}
	.st9{fill:#514896;}
	.st10{fill:#5493A0;}
	.st11{fill:#CC6B5C;}
	.st12{fill:#62AA8D;}
	.st13{fill:#8ABAAB;}
	.st14{fill:#C3791F;}
	.st15{fill:#E39123;}
	.st16{fill:#FFFFFF;}
	.st17{fill:none;stroke:#FFFFFF;stroke-width:10;stroke-linecap:round;stroke-miterlimit:10;}
	.st18{fill:none;stroke:#5F55AB;stroke-width:10;stroke-linecap:round;stroke-miterlimit:10;}
	.st19{fill:#A9671C;}
	.st20{fill:#D5B3A7;}
	.st21{fill:#C09A8F;}
	.st22{fill:#487F87;}
	.st23{fill:#1B305C;}
	.st24{fill:#172945;}
	.st25{fill:none;}
	.st26{fill:#B62A2A;}
	.st27{fill:#325859;}
	.st28{fill:#3F6E71;}
	.st29{fill:#284646;}
	.st30{fill:#8F2727;}
	.st31{fill:#29477C;}
	.st32{fill:#5B9BEE;}
	.st33{fill:#487FDE;}
	.st34{fill:#CD9829;}
	.st35{fill:#9F2A2A;}
	.st36{fill:#4C3328;}
	.st37{fill:#E8B94A;}
	.st38{fill:#DDF8F1;}
	.st39{fill:#3E2A22;}
	.st40{fill:#D3A971;}
	.st41{fill:#C79A5B;}
	.st42{fill:#233E76;}
	.st43{fill:#21395F;}
	.st44{fill:#487D82;}
	.st45{fill:none;stroke:#C79A5B;stroke-width:10;stroke-linecap:round;stroke-miterlimit:10;}
	.st46{fill:#5E3E31;}
	.st47{fill:#AC3939;}
	.st48{fill:#CA9628;}
	.st49{fill:#AF8F88;}
	.st50{fill:#815048;}
	.st51{fill:#6F4232;}
	.st52{fill:#5F55AB;}
	.st53{fill:#192A48;}
	.st54{fill:#152336;}
	.st55{fill:#192B49;}
	.st56{fill:#264173;}
	.st57{fill:#B06F1E;}
	.st58{fill:#4E88C0;}
	.st59{fill:#83C3F1;}
	.st60{fill:#CF9929;}
	.st61{fill:none;stroke:#FFFFFF;stroke-width:10;stroke-linecap:round;stroke-linejoin:round;stroke-miterlimit:10;}
	.st62{fill:#EAC262;}
	.st63{fill:#D6D5D4;}
	.st64{fill:#6BBA9B;}
	.st65{fill:#63AA8F;}
	.st66{fill:none;stroke:#3E2A22;stroke-width:10;stroke-linecap:round;stroke-miterlimit:10;}
	.st67{fill:#CA7D1F;}
	.st68{fill:#213B64;}
	.st69{fill:#CDF8EC;}
	.st70{fill:#C59125;}
	.st71{fill:none;stroke:#C09A8F;stroke-width:10;stroke-linecap:round;stroke-miterlimit:10;}
	.st72{fill:#32579B;}
	.st73{fill:#172843;}
	.st74{fill:#D66767;}
	.st75{fill:#A74949;}
	.st76{fill:#EBC76F;}
	.st77{fill:#7A4940;}
	.st78{fill:#182A48;}
	.st79{fill:none;stroke:#A0794A;stroke-width:10;stroke-linecap:round;stroke-miterlimit:10;}
	.st80{fill:#C37A20;}
	.st81{fill:#D26D5C;}
	.st82{fill:#A45752;}
	.st83{fill:#284579;}
	.st84{fill:#88C7F4;}
	.st85{fill:#6EB6F0;}
	.st86{fill:#32221E;}
	.st87{fill:#E7A6A6;}
	.st88{fill:#C59191;}
	.st89{fill:#AA3B3B;}
	.st90{fill:#B83E3E;}
	.st91{fill:none;stroke:#5F55A9;stroke-width:10;stroke-linecap:round;stroke-miterlimit:10;}
	.st92{fill:#963838;}
	.st93{fill:#402B25;}
	.st94{fill:#6B6ABA;}
	.st95{fill:#BABABA;}
	.st96{fill:#D1D1D1;}
	.st97{fill:#264377;}
	.st98{fill:#A19BF5;}
	.st99{fill:#3C2A21;}
	.st100{fill:none;stroke:#4C3328;stroke-width:10;stroke-linecap:round;stroke-miterlimit:10;}
	.st101{fill:#C1781F;}
	.st102{fill:#E3A147;}
	.st103{fill:#F2D2A1;}
	.st104{fill:#4F372D;}
	.st105{fill:none;stroke:#DA4545;stroke-width:10;stroke-linecap:round;stroke-miterlimit:10;}
	.st106{fill:#AA3928;}
	.st107{fill:#8C2C22;}
	.st108{fill:#BF4336;}
	.st109{fill:#5797D4;}
	.st110{fill:#CFCFCF;}
	.st111{fill:#613A2E;}
	.st112{fill:none;stroke:#B18653;stroke-width:10;stroke-linecap:round;stroke-miterlimit:10;}
	.st113{fill:#B13B3B;}
	.st114{fill:#16263A;}
	.st115{fill:none;stroke:#16263A;stroke-width:10;stroke-miterlimit:10;}
	.st116{fill:#C87D20;}
	.st117{fill:#E4F0FD;}
	.st118{fill:#AA3737;}
	.st119{fill:#BF771F;}
	.st120{fill:none;stroke:#CD462A;stroke-width:10;stroke-linejoin:round;stroke-miterlimit:10;}
	.st121{fill:#5696D2;}
	.st122{fill:#C0771E;}
	.st123{fill:#9B5F1B;}
	.st124{fill:#A83A29;}
	.st125{fill:#E7A74F;}
	.st126{fill:#C9924C;}
	.st127{fill:#C58E48;}
	.st128{fill:#BE8844;}
	.st129{fill:#916939;}
	.st130{fill:#264275;}
	.st131{fill:#253F65;}
	.st132{fill:#182A45;}
	.st133{fill:#162336;}
	.st134{fill:#93C7B7;}
	.st135{fill:#E6A4A4;}
	.st136{fill:#B06B1D;}
	.st137{fill:#484185;}
	.st138{fill:#DB6E6E;}
	.st139{fill:#6BBA9A;}
	.st140{fill:#CACCCC;}
	.st141{fill:#D4D4D4;}
	.st142{fill:#A98881;}
	.st143{fill:#213A62;}
	.st144{fill:#A2837D;}
	.st145{fill:#6FB8F4;}
	.st146{fill:#9B9E9E;}
	.st147{fill:#B2B3B3;}
	.st148{fill:#20385D;}
	.st149{fill:#335AA8;}
	.st150{fill:#BCE7FD;}
	.st151{fill:#3B2921;}
	.st152{fill:#AD3C3C;}
	.st153{fill:#9D3838;}
	.st154{fill:#603F33;}
	.st155{fill:#4D868B;}
	.st156{fill:#A2DDFD;}
	.st157{fill:#ECB6B6;}
	.st158{fill:#E8A346;}
	.st159{fill:#514C94;}
	.st160{fill:#D2F1E8;}
	.st161{fill:#BDD6CE;}
	.st162{fill:#B93B29;}
	.st163{fill:#E0AD70;}
	.st164{fill:#C57C21;}
	.st165{fill:#EDA34A;}
	.st166{fill:#2F538F;}
	.st167{fill:#2B4B78;}
	.st168{fill:#65AF91;}
	.st169{fill:#A7CEFC;}
	.st170{fill:#98BDE2;}
	.st171{fill:#CFE5F7;}
	.st172{fill:#5492CD;}
	.st173{fill:#97CCBC;}
	.st174{fill:#5491CA;}
	.st175{fill:#EDC563;}
	.st176{fill:#423C79;}
	.st177{fill:#D3B1A5;}
	.st178{fill:#BE988D;}
	.st179{fill:#A7E5D6;}
	.st180{fill:#F2FFF9;}
	.st181{fill:#D64545;}
	.st182{fill:#A73B3B;}
	.st183{fill:#15233A;}
	.st184{fill:none;stroke:#BE988D;stroke-width:10;stroke-linecap:round;stroke-miterlimit:10;}
	.st185{fill:#AF3A29;}
	.st186{fill:#FAF9FF;}
	.st187{fill:#CACACC;}
	.st188{fill:#372720;}
	.st189{fill:#3F2C26;}
	.st190{fill:#2D201C;}
	.st191{fill:#3D6D6F;}
	.st192{fill:#5B54A8;}
	.st193{fill:#325799;}
	.st194{fill:#E8C26E;}
	.st195{fill:#254784;}
	.st196{fill:#5696D4;}
	.st197{fill:#4F8AB6;}
	.st198{fill:#5FA4AC;}
	.st199{fill:#AA3524;}
	.st200{fill:#D15F4D;}
	.st201{fill:#2B294C;}
	.st202{fill:#A43A2A;}
	.st203{fill:#E7AE2D;}
	.st204{fill:#CD9729;}
	.st205{fill:none;stroke:#AA8253;stroke-width:10;stroke-linecap:round;stroke-miterlimit:10;}
	.st206{fill:none;stroke:#E18F23;stroke-width:10;stroke-linecap:round;stroke-linejoin:round;stroke-miterlimit:10;}
	.st207{fill:#CF9828;}
	.st208{fill:#B88926;}
	.st209{fill:#A17623;}
	.st210{fill:#96CCBC;}
	.st211{fill:#CF9A2A;}
	.st212{fill:#C57B20;}
	.st213{fill:#C7F1E6;}
	.st214{fill:#DC6363;}
	.st215{fill:#E89F9F;}
	.st216{fill:#C88C8C;}
	.st217{fill:#C16E6E;}
	.st218{fill:#A46060;}
	.st219{fill:#AA3626;}
	.st220{fill:#87EDC4;}
	.st221{fill:#D86552;}
	.st222{fill:#BC7620;}
	.st223{fill:#BA741E;}
	.st224{fill:#8F8CE3;}
	.st225{fill:#3A2820;}
	.st226{fill:#AC7060;}
	.st227{fill:#915F55;}
	.st228{fill:#49332A;}
	.st229{fill:#2D1F1B;}
	.st230{fill:#69B7BE;}
	.st231{fill:#D6D6D6;}
	.st232{fill:#B8B8B8;}
	.st233{fill:#CACACA;}
	.st234{fill:#467B80;}
	.st235{fill:#C2EDE2;}
	.st236{fill:#A9574F;}
	.st237{fill:#5595D2;}
	.st238{fill:#955949;}
	.st239{fill:#7E4B42;}
	.st240{fill:#89CCF1;}
	.st241{fill:#DD584A;}
	.st242{fill:#C18F26;}
	.st243{fill:#B33C2A;}
	.st244{fill:#D1A771;}
	.st245{fill:#B42A2A;}
	.st246{fill:#325797;}
	.st247{fill:#9F3529;}
	.st248{fill:#EDCE80;}
	.st249{fill:#F0DBAC;}
	.st250{fill:#CFB478;}
	.st251{fill:#D4C29B;}
	.st252{fill:#993939;}
	.st253{fill:#D1AFA3;}
	.st254{fill:#BC968B;}
	.st255{fill:none;stroke:#BC968B;stroke-width:10;stroke-linecap:round;stroke-miterlimit:10;}
	.st256{fill:#814C3C;}
	.st257{fill:#C0EBE0;}
	.st258{fill:#A5E3D4;}
	.st259{fill:#15243C;}
	.st260{fill:#443E79;}
	.st261{fill:#F0FFF7;}
	.st262{fill:#9A764B;}
	.st263{fill:#826443;}
	.st264{fill:#D9AA74;}
	.st265{fill:#5DA186;}
	.st266{fill:#68B596;}
	.st267{fill:#E5C6BE;}
	.st268{fill:#D3B6B1;}
	.st269{fill:none;stroke:#BAA09C;stroke-width:10;stroke-linecap:round;stroke-miterlimit:10;}
	.st270{fill:#F4D78F;}
	.st271{fill:#20385F;}
	.st272{fill:#BA8727;}
	.st273{fill:#5A9C82;}
	.st274{fill:none;stroke:#E39123;stroke-width:10;stroke-linecap:round;stroke-linejoin:round;stroke-miterlimit:10;}
	.st275{fill:#60392D;}
	.st276{fill:#CCCCCC;}
	.st277{fill:#844F3E;}
	.st278{fill:#F3FFFB;}
	.st279{fill:#365E60;}
	.st280{fill:#D84545;}
	.st281{fill:#A83B3B;}
	.st282{fill:#253F70;}
	.st283{fill:#EAADAD;}
	.st284{fill:#443E7C;}
	.st285{fill:#3D6B9F;}
	.st286{fill:#4274BC;}
	.st287{fill:#AF3827;}
	.st288{fill:#E59D9D;}
	.st289{fill:#C48989;}
	.st290{fill:none;stroke:#9B621A;stroke-width:10;stroke-linecap:round;stroke-linejoin:round;stroke-miterlimit:10;}
	.st291{fill:#213A5E;}
	.st292{fill:#2D507A;}
	.st293{fill:#528EC8;}
	.st294{fill:#EFD696;}
	.st295{fill:#D1BA87;}
	.st296{fill:#FDFCFC;}
	.st297{fill:#86CBFC;}
	.st298{fill:#7AB7DA;}
	.st299{fill:#192C4C;}
	.st300{fill:#BCBCBC;}
	.st301{fill:#A13838;}
	.st302{fill:#75BDF6;}
	.st303{fill:#D0B1AA;}
	.st304{fill:#142233;}
	.st305{fill:#E6C4BB;}
	.st306{fill:#BDBDBD;}
	.st307{fill:#E8A192;}
	.st308{fill:#A43939;}
	.st309{fill:#162640;}
	.st310{fill:#27457C;}
	.st311{fill:#EFBE5E;}
	.st312{fill:#87EDC5;}
	.st313{fill:#A03838;}
	.st314{fill:#833232;}
	.st315{fill:#47417F;}
	.st316{fill:none;stroke:#915F55;stroke-width:10;stroke-linecap:round;stroke-miterlimit:10;}
	.st317{fill:#BC8B25;}
	.st318{fill:#473129;}
	.st319{fill:#67B394;}
	.st320{fill:#599A80;}
	.st321{fill:#B13D3D;}
</style>
<g id="BULINE">
	<g>
		<circle id="XMLID_3369_" class="st11" cx="256" cy="256" r="256"/>
	</g>
</g>
<g id="Icons">
	<g id="XMLID_3370_">
		<path id="XMLID_3588_" class="st252" d="M506.6,308.4c-11,52.8-38.2,99.6-76.2,135c-7.1,6.6-14.6,12.9-22.5,18.6
			c-11.1,8.2-22.9,15.5-35.3,21.9v0.1h-0.1c-9.2,4.7-18.7,8.9-28.4,12.4c-5.2,1.9-10.6,3.7-16,5.3c-1.9,0.6-3.9,1.1-5.8,1.6
			c-1.6,0.4-3.1,0.8-4.7,1.2h0c-3.4,0.8-6.8,1.6-10.2,2.3c-6.6,1.3-13.2,2.4-19.9,3.2v-31.1H156.8v13.1c0,0-0.1,0-0.2-0.1
			c-2.5-1-4.9-2.1-7.3-3.2c-12.1-5.6-23.7-12-34.7-19.3c-0.1-0.1-0.3-0.2-0.4-0.3C46.2,423.9,1.2,347,0,259.5
			c0.8-0.1,1.6-0.2,2.4-0.2H29V196c0-5.6,4.5-10.1,10.1-10.1h65.1c5.6,0,10.1,4.5,10.1,10.1v63.3h25.5V237c0-4.3,1.7-8.2,4.4-11.1
			c2.9-3.1,7-5,11.6-5h138.4c0.2,0,0.4,0,0.6,0c0,0,0,0,0,0c3.6,0.1,6.9,1.5,9.5,3.6c0,0,0,0,0,0c3.6,2.9,5.8,7.4,5.8,12.4v18.8
			c0.5-0.1,1-0.1,1.6-0.1h65.1c5.6,0,10.1,4.5,10.1,10.1v42.7h17.3V177.4c0-5.6,4.5-10.1,10.1-10.1h65.1c5.6,0,10.1,4.5,10.1,10.1
			v131.1H506.6z"/>
		<g id="XMLID_3371_">
			<path id="XMLID_3487_" class="st253" d="M271.5,380.6h-20.5c-12.2,0-22.1-9.9-22.1-22.1v-30c0-12.2,9.9-22.1,22.1-22.1h20.5
				c12.2,0,22.1,9.9,22.1,22.1v30C293.7,370.7,283.8,380.6,271.5,380.6z"/>
			<path id="XMLID_3486_" class="st254" d="M272.6,380.4c-1.1,0.1-2.3,0.2-3.5,0.2h-16.6c-13.3,0-24.1-9.1-24.1-20.4v-33.5
				c0-11.2,10.8-20.4,24.1-20.4h16.6c1.2,0,2.3,0.1,3.5,0.2C261,308,252,316.5,252,326.7v33.5C252,370.5,261,379,272.6,380.4z"/>
			<path id="XMLID_3569_" class="st16" d="M408,409v53c-11.1,8.2-22.9,15.5-35.3,21.9v0.1h-0.1c-9.2,4.7-18.7,8.9-28.4,12.4
				c-5.2,1.9-10.6,3.7-16,5.3c-1.9,0.6-3.9,1.1-5.8,1.6c-1.6,0.4-3.1,0.8-4.7,1.2h0c-3.4,0.8-6.8,1.6-10.2,2.3
				c-6.6,1.3-13.2,2.4-19.9,3.2c-0.6,0.1-1.2,0.1-1.8,0.2c-3.6,0.4-7.2,0.8-10.9,1c-6.2,0.5-12.5,0.7-18.8,0.7
				c-13,0-25.7-1-38.2-2.8c-5-0.8-10-1.6-14.9-2.7c-2.7-0.6-5.4-1.2-8-1.8c-4.7-1.1-9.2-2.4-13.8-3.8c-4.2-1.3-8.3-2.7-12.4-4.2
				c-4-1.4-7.9-3-11.8-4.6c0,0-0.1,0-0.2-0.1c-2.5-1-4.9-2.1-7.3-3.2c-12.1-5.6-23.7-12-34.7-19.3c-0.1-0.1-0.3-0.2-0.4-0.3V409
				c0-16.1,7.4-30.4,18.9-39.9c4.8-3.9,10.2-7,16.2-9c2.5-0.9,5.2-1.5,7.9-2c2.8-0.5,5.6-0.7,8.6-0.7h190.7c0.9,0,1.8,0,2.7,0.1
				c0.3,0,0.7,0,1,0.1c0.2,0,0.5,0,0.7,0.1c0.4,0,0.8,0.1,1.2,0.1c0.3,0,0.6,0.1,0.9,0.1c0.6,0.1,1.1,0.2,1.7,0.2
				c0.4,0.1,0.7,0.1,1,0.2c0.4,0.1,0.8,0.1,1.3,0.2c0.3,0.1,0.7,0.1,1,0.2c0.1,0,0.2,0,0.3,0.1c0.4,0.1,0.8,0.2,1.2,0.3
				c0.2,0.1,0.4,0.1,0.6,0.2c0.4,0.1,0.8,0.2,1.2,0.3c0.2,0.1,0.4,0.1,0.5,0.2c0.9,0.3,1.8,0.6,2.6,0.9c0.4,0.1,0.7,0.2,1,0.4
				c0.8,0.3,1.6,0.7,2.5,1c0.3,0.1,0.6,0.3,0.9,0.4c0.1,0,0.2,0.1,0.3,0.2c0.6,0.3,1.2,0.6,1.9,1c0,0,0,0,0.1,0
				c0.1,0,0.2,0.1,0.3,0.2c0.1,0.1,0.2,0.1,0.3,0.2h0c0.2,0.1,0.3,0.2,0.5,0.3c0.8,0.4,1.5,0.9,2.3,1.4c0.7,0.4,1.4,0.9,2,1.4
				c0.6,0.5,1.3,1,1.9,1.4c0,0,0,0,0,0c0.1,0.1,0.2,0.2,0.3,0.3c0.2,0.2,0.4,0.3,0.6,0.5c0.4,0.3,0.7,0.6,1,0.9
				c0.2,0.2,0.4,0.3,0.6,0.5c0.4,0.4,0.8,0.7,1.1,1.1c0,0,0,0,0,0c0.2,0.2,0.4,0.4,0.6,0.6c0.5,0.5,1.1,1.1,1.6,1.7
				c0.5,0.6,1,1.1,1.5,1.7c0.5,0.6,1,1.2,1.5,1.8c0.5,0.6,0.9,1.2,1.4,1.9c0.5,0.6,0.9,1.3,1.3,1.9c0.4,0.6,0.8,1.3,1.2,2
				c0.2,0.4,0.5,0.8,0.7,1.2c0.1,0.3,0.3,0.6,0.4,0.8c0.1,0.1,0.1,0.2,0.2,0.3c0.2,0.5,0.5,0.9,0.7,1.4c0,0,0,0.1,0,0.1
				c0,0.1,0.1,0.2,0.2,0.4c0,0.1,0.1,0.2,0.1,0.3c0.2,0.5,0.5,1.1,0.7,1.6c0.1,0.2,0.2,0.5,0.3,0.7c0.2,0.4,0.3,0.8,0.5,1.2
				c0.2,0.6,0.5,1.3,0.7,2c0,0.1,0.1,0.2,0.1,0.4c0.1,0.2,0.1,0.4,0.2,0.6c0.1,0.3,0.2,0.6,0.2,0.9c0.1,0.3,0.2,0.6,0.3,1
				c0.1,0.4,0.2,0.8,0.3,1.2c0.1,0.3,0.2,0.7,0.2,1c0.2,0.8,0.3,1.6,0.4,2.4c0,0.3,0.1,0.5,0.1,0.8c0,0.3,0.1,0.5,0.1,0.8
				c0.1,0.7,0.1,1.4,0.2,2.1C407.9,406,408,407.5,408,409z"/>
			<path id="XMLID_3519_" class="st110" d="M208.2,357.5c-1.8,0-3.5,0.1-5.3,0.3c-2.8,0.3-5.5,0.8-8.1,1.5c-0.5,0.1-1,0.3-1.5,0.4
				c-4.3,1.3-8.5,3.2-12.2,5.5c-4.7,2.9-8.9,6.6-12.4,10.8c-4,4.8-7.1,10.2-9.2,16.2c-1,3-1.8,6.2-2.3,9.5c-0.3,2.4-0.5,4.8-0.5,7.3
				V492c-2.5-1-4.9-2.1-7.3-3.2c-12.1-5.6-23.7-12-34.7-19.3V409c0-16,7.3-30.3,18.7-39.7c4.7-3.9,10.1-7,16-9
				c2.5-0.9,5.2-1.6,7.9-2c2.9-0.5,5.9-0.8,8.9-0.8H208.2z"/>
			<path id="XMLID_3485_" class="st253" d="M217.8,321.8c-0.1,0-0.2-0.1-0.3-0.1C217.6,321.7,217.7,321.7,217.8,321.8z"/>
			<path id="XMLID_3484_" class="st253" d="M166.2,282c-3-4.1-5.8-8.4-8.3-12.9C160.4,273.6,163.2,277.9,166.2,282z"/>
			<path id="XMLID_3483_" class="st253" d="M202.9,314.6c-0.3-0.2-0.6-0.3-0.9-0.5C202.3,314.3,202.6,314.4,202.9,314.6z"/>
			<path id="XMLID_3482_" class="st253" d="M229.1,325.5c-0.2,0-0.4-0.1-0.5-0.1C228.7,325.4,228.9,325.5,229.1,325.5z"/>
			<path id="XMLID_3481_" class="st253" d="M215.2,320.7c-0.2-0.1-0.4-0.2-0.6-0.3C214.8,320.5,215,320.6,215.2,320.7z"/>
			<path id="XMLID_3480_" class="st253" d="M169.3,286c-0.4-0.5-0.8-1-1.2-1.5C168.5,285,168.9,285.5,169.3,286z"/>
			<path id="XMLID_3479_" class="st253" d="M167.7,284c-0.4-0.5-0.8-1.1-1.2-1.6C166.9,282.9,167.3,283.4,167.7,284z"/>
			<path id="XMLID_3478_" class="st253" d="M155.4,264.2c-0.3-0.7-0.7-1.4-1-2.1C154.7,262.8,155,263.5,155.4,264.2z"/>
			<path id="XMLID_3477_" class="st253" d="M188.6,305.1c-0.2-0.2-0.4-0.3-0.6-0.5C188.2,304.7,188.4,304.9,188.6,305.1z"/>
			<path id="XMLID_3476_" class="st253" d="M154.2,261.8c-0.3-0.7-0.6-1.4-0.9-2.1C153.6,260.4,153.9,261.1,154.2,261.8z"/>
			<path id="XMLID_3475_" class="st253" d="M226.1,324.7c-0.1,0-0.1,0-0.2-0.1C225.9,324.6,226,324.6,226.1,324.7z"/>
			<path id="XMLID_3474_" class="st253" d="M156.6,266.6c-0.4-0.7-0.7-1.4-1-2C155.9,265.2,156.2,265.9,156.6,266.6z"/>
			<path id="XMLID_3473_" class="st253" d="M157.9,269c-0.4-0.7-0.7-1.4-1.1-2.1C157.1,267.6,157.5,268.3,157.9,269z"/>
			<path id="XMLID_3472_" class="st253" d="M178.2,295.9c-0.4-0.4-0.7-0.7-1.1-1.1C177.5,295.2,177.8,295.5,178.2,295.9z"/>
			<path id="XMLID_3471_" class="st253" d="M176.3,294c-0.4-0.4-0.7-0.8-1.1-1.1C175.6,293.2,175.9,293.6,176.3,294z"/>
			<path id="XMLID_3470_" class="st253" d="M184.1,301.4c-0.3-0.3-0.7-0.6-1-0.9C183.4,300.8,183.8,301.1,184.1,301.4z"/>
			<path id="XMLID_3469_" class="st253" d="M207.7,317.2c-0.3-0.1-0.6-0.3-0.9-0.4C207.1,316.9,207.4,317.1,207.7,317.2z"/>
			<path id="XMLID_3468_" class="st253" d="M180.1,297.8c-0.4-0.3-0.7-0.7-1.1-1C179.4,297.1,179.8,297.4,180.1,297.8z"/>
			<path id="XMLID_3467_" class="st253" d="M205.3,315.9c-0.3-0.2-0.6-0.3-0.9-0.5C204.7,315.6,205,315.8,205.3,315.9z"/>
			<path id="XMLID_3466_" class="st253" d="M172.7,290c-0.4-0.4-0.7-0.8-1.1-1.3C171.9,289.2,172.3,289.6,172.7,290z"/>
			<path id="XMLID_3465_" class="st253" d="M212.7,319.6c-0.2-0.1-0.5-0.2-0.7-0.3C212.2,319.4,212.4,319.5,212.7,319.6z"/>
			<path id="XMLID_3464_" class="st253" d="M170.9,288c-0.4-0.4-0.8-0.9-1.1-1.3C170.2,287.1,170.6,287.6,170.9,288z"/>
			<path id="XMLID_3463_" class="st253" d="M210.2,318.4c-0.3-0.1-0.5-0.3-0.8-0.4C209.6,318.2,209.9,318.3,210.2,318.4z"/>
			<path id="XMLID_3462_" class="st253" d="M186.2,303.1c-0.3-0.3-0.6-0.5-0.9-0.8C185.6,302.6,185.9,302.9,186.2,303.1z"/>
			<path id="XMLID_3461_" class="st253" d="M174.5,292c-0.4-0.4-0.7-0.8-1.1-1.2C173.7,291.2,174.1,291.6,174.5,292z"/>
			<path id="XMLID_3460_" class="st253" d="M240.5,328.1c-0.3,0-0.6-0.1-0.8-0.1C239.9,328,240.2,328.1,240.5,328.1z"/>
			<path id="XMLID_3459_" class="st253" d="M193.5,308.7c-0.3-0.2-0.6-0.4-0.8-0.6C193,308.3,193.2,308.5,193.5,308.7z"/>
			<path id="XMLID_3458_" class="st253" d="M237.6,327.6c-0.3-0.1-0.5-0.1-0.8-0.2C237.1,327.5,237.4,327.5,237.6,327.6z"/>
			<path id="XMLID_3457_" class="st253" d="M195.8,310.3c-0.3-0.2-0.6-0.4-0.9-0.6C195.2,309.9,195.5,310.1,195.8,310.3z"/>
			<path id="XMLID_3456_" class="st253" d="M243.3,328.6c-0.3,0-0.6-0.1-0.8-0.1C242.8,328.5,243,328.5,243.3,328.6z"/>
			<path id="XMLID_3455_" class="st253" d="M200.5,313.2c-0.3-0.2-0.6-0.4-0.9-0.5C199.9,312.8,200.2,313,200.5,313.2z"/>
			<path id="XMLID_3454_" class="st253" d="M182.1,299.6c-0.4-0.3-0.7-0.7-1.1-1C181.4,298.9,181.8,299.3,182.1,299.6z"/>
			<path id="XMLID_3453_" class="st253" d="M198.1,311.8c-0.3-0.2-0.6-0.4-0.9-0.6C197.5,311.4,197.8,311.6,198.1,311.8z"/>
			<path id="XMLID_3451_" class="st253" d="M151.1,254.4c-3.5-9.1-5.9-18.7-7-28.8C145.2,235.7,147.6,245.3,151.1,254.4z"/>
			<path id="XMLID_3450_" class="st253" d="M232,326.3c-0.2-0.1-0.5-0.1-0.7-0.2C231.5,326.2,231.7,326.2,232,326.3z"/>
			<path id="XMLID_3449_" class="st253" d="M191.2,307c-0.2-0.2-0.5-0.4-0.7-0.5C190.7,306.7,191,306.8,191.2,307z"/>
			<path id="XMLID_3448_" class="st253" d="M152.1,256.9c-0.3-0.7-0.6-1.5-0.9-2.3C151.5,255.4,151.8,256.1,152.1,256.9z"/>
			<path id="XMLID_3447_" class="st253" d="M234.8,327c-0.3-0.1-0.5-0.1-0.8-0.2C234.3,326.9,234.6,326.9,234.8,327z"/>
			<path id="XMLID_3446_" class="st253" d="M153.1,259.3c-0.3-0.7-0.6-1.4-0.9-2.2C152.5,257.9,152.8,258.6,153.1,259.3z"/>
			<path id="XMLID_3445_" class="st253" d="M383.3,177.8c-0.8-0.1-1.5-0.2-2.3-0.2h-2.7v-18.3c0-38.7-18.7-73-47.6-94.4
				c-7.9,13.2-28.6,36.2-79.4,48.5c-5.9,1.4-10.9-4.6-8.4-10.2c4.6-10.3,9.7-25,9.4-38.1c-0.2-7.2-9.8-9.6-13.2-3.2
				c-4.8,8.9-12.5,19.6-24.1,26.5c-2.1,1.3-4.4,1.3-6.3,0.6c-14.7,19.6-23.4,43.9-23.4,70.3V206v6.4c0,57.7,41.6,105.7,96.5,115.6
				c50.6-9.1,90-50.7,95.8-102.4h3.4c9,0,16.2-7.3,16.2-16.2v-15.5C397.2,185.7,391.2,179,383.3,177.8z"/>
			<path id="XMLID_3444_" class="st254" d="M202,314.1c-0.5-0.3-1-0.6-1.5-0.9C201,313.5,201.5,313.8,202,314.1z"/>
			<path id="XMLID_3443_" class="st254" d="M199.6,312.7c-0.5-0.3-1-0.6-1.4-0.9C198.6,312.1,199.1,312.4,199.6,312.7z"/>
			<path id="XMLID_3442_" class="st254" d="M204.4,315.4c-0.5-0.3-1-0.6-1.5-0.8C203.4,314.9,203.9,315.2,204.4,315.4z"/>
			<path id="XMLID_3441_" class="st254" d="M234,326.8c-0.7-0.2-1.4-0.3-2.1-0.5C232.7,326.5,233.4,326.6,234,326.8z"/>
			<path id="XMLID_3440_" class="st254" d="M236.8,327.4c-0.7-0.1-1.3-0.3-2-0.4C235.5,327.1,236.2,327.3,236.8,327.4z"/>
			<path id="XMLID_3439_" class="st254" d="M231.3,326.1c-0.7-0.2-1.5-0.4-2.2-0.6C229.8,325.7,230.6,325.9,231.3,326.1z"/>
			<path id="XMLID_3438_" class="st254" d="M239.6,328c-0.7-0.1-1.3-0.3-2-0.4C238.3,327.7,239,327.8,239.6,328z"/>
			<path id="XMLID_3437_" class="st254" d="M245.4,328.9c-0.7-0.1-1.4-0.2-2.1-0.3C244,328.7,244.7,328.8,245.4,328.9z"/>
			<path id="XMLID_3436_" class="st254" d="M206.8,316.8c-0.5-0.3-1.1-0.5-1.6-0.8C205.8,316.2,206.3,316.5,206.8,316.8z"/>
			<path id="XMLID_3435_" class="st254" d="M228.6,325.4c-0.8-0.2-1.7-0.5-2.5-0.7C226.9,324.9,227.7,325.2,228.6,325.4z"/>
			<path id="XMLID_3434_" class="st254" d="M242.5,328.5c-0.7-0.1-1.3-0.2-2-0.3C241.1,328.2,241.8,328.3,242.5,328.5z"/>
			<path id="XMLID_3433_" class="st254" d="M225.9,324.6c-2.7-0.9-5.4-1.8-8.1-2.8C220.4,322.8,223.1,323.7,225.9,324.6z"/>
			<path id="XMLID_3432_" class="st254" d="M212,319.3c-0.6-0.3-1.2-0.5-1.8-0.8C210.8,318.7,211.4,319,212,319.3z"/>
			<path id="XMLID_3431_" class="st254" d="M209.4,318c-0.6-0.3-1.1-0.5-1.7-0.8C208.3,317.5,208.8,317.8,209.4,318z"/>
			<path id="XMLID_3430_" class="st254" d="M214.6,320.4c-0.6-0.3-1.3-0.6-1.9-0.8C213.3,319.9,214,320.2,214.6,320.4z"/>
			<path id="XMLID_3429_" class="st254" d="M217.5,321.6c-0.8-0.3-1.5-0.6-2.3-0.9C216,321,216.7,321.3,217.5,321.6z"/>
			<path id="XMLID_3428_" class="st254" d="M153.3,259.7c-0.1-0.1-0.1-0.2-0.2-0.4C153.2,259.4,153.2,259.5,153.3,259.7z"/>
			<path id="XMLID_3427_" class="st254" d="M197.2,311.2c-0.5-0.3-0.9-0.6-1.4-0.9C196.3,310.6,196.8,310.9,197.2,311.2z"/>
			<path id="XMLID_3426_" class="st254" d="M151.2,254.6c0-0.1,0-0.1-0.1-0.2C151.1,254.5,151.2,254.6,151.2,254.6z"/>
			<path id="XMLID_3425_" class="st254" d="M156.7,266.9c-0.1-0.1-0.1-0.2-0.2-0.3C156.6,266.7,156.7,266.8,156.7,266.9z"/>
			<path id="XMLID_3424_" class="st254" d="M154.4,262.1c-0.1-0.1-0.1-0.2-0.2-0.4C154.3,261.9,154.3,262,154.4,262.1z"/>
			<path id="XMLID_3423_" class="st254" d="M155.5,264.5c-0.1-0.1-0.1-0.2-0.2-0.4C155.4,264.3,155.5,264.4,155.5,264.5z"/>
			<path id="XMLID_3422_" class="st254" d="M158,269.1c0-0.1-0.1-0.1-0.1-0.2C157.9,269,157.9,269.1,158,269.1z"/>
			<path id="XMLID_3420_" class="st254" d="M152.2,257.2c0-0.1-0.1-0.2-0.1-0.3C152.1,257,152.2,257.1,152.2,257.2z"/>
			<path id="XMLID_3418_" class="st254" d="M185.3,302.3c-0.4-0.3-0.8-0.6-1.1-1C184.5,301.7,184.9,302,185.3,302.3z"/>
			<path id="XMLID_3417_" class="st254" d="M183.1,300.5c-0.3-0.3-0.7-0.6-1-0.9C182.4,299.9,182.8,300.2,183.1,300.5z"/>
			<path id="XMLID_3416_" class="st254" d="M188,304.6c-0.6-0.5-1.2-0.9-1.8-1.4C186.8,303.6,187.4,304.1,188,304.6z"/>
			<path id="XMLID_3415_" class="st254" d="M166.5,282.4c-0.1-0.1-0.2-0.2-0.2-0.3C166.3,282.1,166.4,282.2,166.5,282.4z"/>
			<path id="XMLID_3414_" class="st254" d="M181,298.6c-0.3-0.3-0.6-0.6-0.9-0.9C180.4,298,180.7,298.3,181,298.6z"/>
			<path id="XMLID_3413_" class="st254" d="M192.7,308.1c-0.5-0.4-1-0.7-1.5-1.1C191.7,307.4,192.2,307.8,192.7,308.1z"/>
			<path id="XMLID_3412_" class="st254" d="M190.5,306.5c-0.6-0.5-1.2-0.9-1.9-1.4C189.2,305.5,189.8,306,190.5,306.5z"/>
			<path id="XMLID_3411_" class="st254" d="M194.9,309.7c-0.5-0.3-1-0.7-1.4-1C194,309,194.5,309.3,194.9,309.7z"/>
			<path id="XMLID_3410_" class="st254" d="M169.8,286.7c-0.2-0.2-0.4-0.5-0.5-0.7C169.4,286.2,169.6,286.4,169.8,286.7z"/>
			<path id="XMLID_3409_" class="st254" d="M168.1,284.5c-0.1-0.2-0.3-0.4-0.4-0.6C167.8,284.2,168,284.3,168.1,284.5z"/>
			<path id="XMLID_3408_" class="st254" d="M179,296.7c-0.3-0.3-0.6-0.6-0.9-0.8C178.5,296.2,178.8,296.4,179,296.7z"/>
			<path id="XMLID_3407_" class="st254" d="M171.6,288.8c-0.2-0.2-0.4-0.5-0.6-0.7C171.1,288.3,171.3,288.5,171.6,288.8z"/>
			<path id="XMLID_3406_" class="st254" d="M177.1,294.8c-0.3-0.3-0.5-0.6-0.8-0.8C176.6,294.2,176.8,294.5,177.1,294.8z"/>
			<path id="XMLID_3405_" class="st254" d="M173.4,290.8c-0.2-0.3-0.5-0.5-0.7-0.8C172.9,290.3,173.1,290.5,173.4,290.8z"/>
			<path id="XMLID_3404_" class="st254" d="M175.2,292.8c-0.3-0.3-0.5-0.5-0.8-0.8C174.7,292.3,175,292.5,175.2,292.8z"/>
			<path id="XMLID_3403_" class="st254" d="M206,55.4L206,55.4c-37.3,19.7-62.7,58.8-62.7,103.9v0C143.4,114.3,168.8,75.1,206,55.4z
				"/>
			<path id="XMLID_3402_" class="st254" d="M185.3,212.4V206v-46.7c0-26.4,8.7-50.7,23.4-70.3c-3.2-1.2-5.5-4.7-4.6-8.6
				c2-8,3.5-17.9,1.9-25c-37.3,19.7-62.7,58.8-62.7,103.9v18.3h-2.2c-1.5,0-2.9,0.2-4.2,0.6c-6.9,1.9-12,8.2-12,15.7v15.5
				c0,9,7.3,16.2,16.2,16.2h3c0,0,0,0,0,0c1.1,10,3.5,19.7,7,28.8c0,0.1,0,0.1,0.1,0.2c0.3,0.8,0.6,1.5,0.9,2.3
				c0,0.1,0.1,0.2,0.1,0.3c0.3,0.7,0.6,1.4,0.9,2.2c0.1,0.1,0.1,0.2,0.2,0.4c0.3,0.7,0.6,1.4,0.9,2.1c0.1,0.1,0.1,0.2,0.2,0.4
				c0.3,0.7,0.6,1.4,1,2.1c0.1,0.1,0.1,0.2,0.2,0.4c0.3,0.7,0.7,1.4,1,2c0.1,0.1,0.1,0.2,0.2,0.3c0.4,0.7,0.7,1.4,1.1,2.1
				c0,0.1,0.1,0.1,0.1,0.2c2.5,4.5,5.2,8.8,8.3,12.9c0.1,0.1,0.2,0.2,0.2,0.3c0.4,0.5,0.8,1.1,1.2,1.6c0.1,0.2,0.3,0.4,0.4,0.6
				c0.4,0.5,0.8,1,1.2,1.5c0.2,0.2,0.4,0.5,0.5,0.7c0.4,0.5,0.7,0.9,1.1,1.3c0.2,0.2,0.4,0.5,0.6,0.7c0.4,0.4,0.7,0.8,1.1,1.3
				c0.2,0.3,0.5,0.5,0.7,0.8c0.4,0.4,0.7,0.8,1.1,1.2c0.3,0.3,0.5,0.5,0.8,0.8c0.4,0.4,0.7,0.8,1.1,1.1c0.3,0.3,0.5,0.6,0.8,0.8
				c0.4,0.4,0.7,0.7,1.1,1.1c0.3,0.3,0.6,0.6,0.9,0.8c0.4,0.3,0.7,0.7,1.1,1c0.3,0.3,0.6,0.6,0.9,0.9c0.4,0.3,0.7,0.7,1.1,1
				c0.3,0.3,0.7,0.6,1,0.9c0.3,0.3,0.7,0.6,1,0.9c0.4,0.3,0.8,0.6,1.1,1c0.3,0.3,0.6,0.5,0.9,0.8c0.6,0.5,1.2,0.9,1.8,1.4
				c0.2,0.2,0.4,0.3,0.6,0.5c0.6,0.5,1.2,1,1.9,1.4c0.2,0.2,0.5,0.4,0.7,0.5c0.5,0.4,1,0.7,1.5,1.1c0.3,0.2,0.6,0.4,0.8,0.6
				c0.5,0.3,0.9,0.7,1.4,1c0.3,0.2,0.6,0.4,0.9,0.6c0.5,0.3,0.9,0.6,1.4,0.9c0.3,0.2,0.6,0.4,0.9,0.6c0.5,0.3,1,0.6,1.4,0.9
				c0.3,0.2,0.6,0.4,0.9,0.5c0.5,0.3,1,0.6,1.5,0.9c0.3,0.2,0.6,0.3,0.9,0.5c0.5,0.3,1,0.6,1.5,0.8c0.3,0.2,0.6,0.3,0.9,0.5
				c0.5,0.3,1,0.6,1.6,0.8c0.3,0.1,0.6,0.3,0.9,0.4c0.5,0.3,1.1,0.6,1.7,0.8c0.3,0.1,0.5,0.3,0.8,0.4c0.6,0.3,1.2,0.6,1.8,0.8
				c0.2,0.1,0.5,0.2,0.7,0.3c0.6,0.3,1.3,0.6,1.9,0.8c0.2,0.1,0.4,0.2,0.6,0.3c0.7,0.3,1.5,0.6,2.3,0.9c0.1,0,0.2,0.1,0.3,0.1
				c2.6,1,5.3,2,8.1,2.8c0.1,0,0.1,0,0.2,0.1c0.8,0.3,1.6,0.5,2.5,0.7c0.2,0.1,0.4,0.1,0.5,0.1c0.7,0.2,1.5,0.4,2.2,0.6
				c0.2,0.1,0.5,0.1,0.7,0.2c0.7,0.2,1.4,0.3,2.1,0.5c0.3,0.1,0.5,0.1,0.8,0.2c0.7,0.2,1.3,0.3,2,0.4c0.3,0.1,0.5,0.1,0.8,0.2
				c0.7,0.1,1.3,0.3,2,0.4c0.3,0.1,0.6,0.1,0.8,0.1c0.7,0.1,1.3,0.2,2,0.3c0.3,0,0.6,0.1,0.8,0.1c0.7,0.1,1.4,0.2,2.1,0.3
				c0.3,0,0.5,0.1,0.8,0.1c0.7,0.1,1.4,0.2,2.1,0.2c0.2,0,0.5,0.1,0.7,0.1c0.8,0.1,1.5,0.1,2.3,0.2c0.2,0,0.4,0,0.6,0.1
				c0.8,0.1,1.7,0.1,2.5,0.2c0.1,0,0.3,0,0.4,0c2,0.1,4,0.2,6,0.2h0c0.1,0,0.2,0,0.3,0c1.6,0,3.1,0,4.6-0.1c0.2,0,0.4,0,0.6,0
				c1.6-0.1,3.1-0.2,4.6-0.3c0.2,0,0.5,0,0.7-0.1c1.5-0.1,3-0.3,4.5-0.5c0.2,0,0.5-0.1,0.7-0.1c1.5-0.2,3-0.4,4.5-0.7
				c0.1,0,0.2,0,0.3-0.1C226.9,318.1,185.3,270.1,185.3,212.4z"/>
			<line id="XMLID_3401_" class="st25" x1="206" y1="55.4" x2="206" y2="55.4"/>
			<path id="XMLID_3399_" class="st51" d="M293.4,12.1c-0.3,0-0.5-0.1-0.8-0.1c-0.1,0-0.2,0-0.4,0c-0.8-0.1-1.6-0.1-2.4-0.2
				c-1.7-0.1-3.4-0.1-5.2-0.1h-49c-1.7,0-3.5,0-5.2,0.1c-4.3,0.2-8.5,0.7-12.6,1.5c-2.2,0.4-4.4,0.9-6.5,1.5
				c-2.7,0.7-5.4,1.5-8.1,2.5c-1.2,0.4-2.5,0.9-3.7,1.4c-1.2,0.5-2.4,1-3.5,1.5c-1.2,0.5-2.3,1.1-3.4,1.6c-0.5,0.3-1.1,0.5-1.6,0.8
				c-1,0.6-2.1,1.1-3.1,1.7c-1,0.6-2,1.1-2.9,1.7c-1.4,0.9-2.8,1.8-4.1,2.7c-1.7,1.2-3.4,2.4-5.1,3.7c-0.4,0.3-0.8,0.6-1.1,0.9
				c-24.8,19.8-40.5,51.4-39.4,86.7l1.7,58.3c0,0,0,0,0.1,0c0.3-0.1,0.6-0.1,0.9-0.2c0,0,0.1,0,0.1,0c0,0,0,0,0,0c0,0,0.1,0,0.2,0
				c0.2,0,0.4-0.1,0.6-0.1c0,0,0.1,0,0.1,0c0,0,0.1,0,0.1,0c0.1,0,0.2,0,0.3,0c0.2,0,0.4-0.1,0.7-0.1h0.1c0,0,0.1,0,0.1,0
				c0,0,0.1,0,0.1,0h0.1c0.2,0,0.3,0,0.5,0h2.2v-18.3c0-0.9,0-1.9,0-2.8v-0.3c0-0.3,0-0.6,0-0.9c0-0.1,0-0.3,0-0.4v-0.2
				c0-0.5,0-0.9,0-1.4c0-0.3,0-0.7,0.1-1c0-0.3,0-0.7,0.1-1c0-0.2,0-0.3,0-0.5c0-0.1,0-0.1,0-0.2c0-0.5,0.1-1.1,0.1-1.6
				c0-0.1,0-0.2,0-0.3c0-0.6,0.1-1.2,0.2-1.9c0-0.1,0-0.1,0-0.2c0.1-0.7,0.1-1.4,0.2-2.1c0.1-0.8,0.2-1.6,0.3-2.3c0,0,0,0,0-0.1
				c0-0.1,0-0.1,0-0.2c0-0.3,0.1-0.7,0.2-1c0,0,0-0.1,0-0.1c0,0,0-0.1,0-0.1c0-0.1,0-0.2,0-0.3c0.1-0.7,0.2-1.4,0.3-2
				c0.1-0.6,0.2-1.1,0.3-1.7c0-0.1,0-0.2,0.1-0.3c0,0,0,0,0,0c0.1-0.7,0.3-1.3,0.4-2c0.1-0.4,0.2-0.8,0.3-1.2
				c0.1-0.2,0.1-0.5,0.2-0.8c0-0.2,0.1-0.3,0.1-0.5c0.1-0.4,0.2-0.8,0.3-1.2c0.1-0.4,0.2-0.8,0.3-1.2c0-0.1,0-0.1,0-0.1
				c0.1-0.3,0.2-0.6,0.2-0.9c0,0,0-0.1,0-0.1c0-0.2,0.1-0.3,0.1-0.5c0-0.2,0.1-0.3,0.1-0.5c0.1-0.4,0.2-0.7,0.3-1.1
				c0.1-0.4,0.2-0.7,0.3-1.1c0,0,0-0.1,0-0.2c0,0,0,0,0,0c0-0.1,0.1-0.2,0.1-0.4v0c0.2-0.7,0.4-1.4,0.6-2c0-0.2,0.1-0.3,0.2-0.5
				c0.1-0.2,0.1-0.4,0.2-0.6c0,0,0-0.1,0-0.1c0,0,0,0,0,0c0,0,0,0,0-0.1l0,0c0,0,0,0,0,0c0-0.1,0-0.1,0.1-0.2c0-0.1,0-0.1,0.1-0.2
				c0,0,0,0,0-0.1v0c0,0,0-0.1,0-0.1c0-0.1,0.1-0.1,0.1-0.2v0c0.1-0.2,0.1-0.4,0.2-0.6c0.1-0.2,0.1-0.4,0.2-0.6
				c0.2-0.4,0.3-0.9,0.5-1.3c0,0,0,0,0-0.1c0,0,0-0.1,0-0.1c0,0,0,0,0,0c0-0.1,0-0.1,0.1-0.2c0-0.1,0-0.1,0.1-0.2
				c0.1-0.1,0.1-0.3,0.2-0.5c0.1-0.3,0.2-0.5,0.3-0.8c0.1-0.4,0.3-0.7,0.4-1.1c0.1-0.2,0.1-0.4,0.2-0.6c0.1-0.2,0.2-0.4,0.2-0.6
				c0.1-0.3,0.2-0.5,0.3-0.8v0c0.1-0.1,0.1-0.2,0.2-0.4c0,0,0-0.1,0.1-0.2c0,0,0-0.1,0.1-0.2c0.1-0.1,0.1-0.3,0.2-0.4
				c0.1-0.1,0.1-0.3,0.2-0.4c0,0,0,0,0-0.1c0-0.1,0.1-0.2,0.1-0.3c0.1-0.1,0.1-0.3,0.2-0.5c0-0.1,0-0.1,0.1-0.2
				c0.1-0.3,0.3-0.6,0.4-0.9v0c0-0.1,0.1-0.1,0.1-0.2c0-0.1,0.1-0.1,0.1-0.2c0-0.1,0.1-0.2,0.1-0.2c0-0.1,0.1-0.1,0.1-0.2
				c0,0,0-0.1,0-0.1c0,0,0-0.1,0-0.1v0c0,0,0,0,0,0c0,0,0-0.1,0-0.1c0,0,0-0.1,0-0.1c0.1-0.1,0.1-0.3,0.2-0.4v0
				c0.1-0.3,0.2-0.5,0.4-0.8c0.1-0.1,0.1-0.3,0.2-0.4c0,0,0,0,0,0c0.2-0.4,0.5-0.9,0.7-1.3c0.2-0.3,0.3-0.6,0.5-0.9v0
				c0,0,0-0.1,0.1-0.1s0-0.1,0.1-0.1c0,0,0,0,0-0.1c0,0,0,0,0,0c0.1-0.1,0.1-0.2,0.2-0.3c0,0,0-0.1,0.1-0.1c0,0,0,0,0-0.1
				c0,0,0-0.1,0.1-0.1c0-0.1,0.1-0.2,0.2-0.3c0-0.1,0.1-0.1,0.1-0.2c0,0,0-0.1,0.1-0.1c0,0,0-0.1,0.1-0.1c0-0.1,0.1-0.1,0.1-0.2
				c0.1-0.1,0.1-0.2,0.2-0.4c0-0.1,0.1-0.1,0.1-0.2c0.1-0.1,0.1-0.3,0.2-0.4c0.1-0.2,0.2-0.4,0.3-0.6c0.1-0.1,0.1-0.2,0.2-0.3
				c0,0,0.1-0.1,0.1-0.1c0,0,0-0.1,0.1-0.1c0,0,0-0.1,0.1-0.1c0.1-0.1,0.2-0.2,0.2-0.4c0,0,0-0.1,0.1-0.1c0.2-0.3,0.4-0.6,0.5-0.9
				c0.2-0.3,0.3-0.5,0.5-0.8c0.1-0.1,0.2-0.3,0.2-0.4c0,0,0,0,0-0.1c0,0,0,0,0,0c0,0,0,0,0,0l0,0c0,0,0,0,0,0
				c0.1-0.1,0.1-0.2,0.2-0.4c0.3-0.4,0.5-0.9,0.8-1.3c0,0,0,0,0,0c0.1-0.2,0.3-0.4,0.4-0.6c0-0.1,0.1-0.2,0.2-0.2
				c0-0.1,0.1-0.1,0.1-0.2c0-0.1,0.1-0.1,0.1-0.2c0-0.1,0.1-0.1,0.1-0.2c0-0.1,0.1-0.1,0.1-0.2c0,0,0,0,0,0c0.3-0.4,0.5-0.8,0.8-1.1
				c0,0,0.1-0.1,0.1-0.1v0c0-0.1,0.1-0.1,0.1-0.2c0-0.1,0.1-0.1,0.1-0.2v0c0.4-0.5,0.7-1.1,1.1-1.6h0v0c0.4-0.5,0.8-1.1,1.1-1.6
				c0,0,0.1-0.1,0.1-0.1c0,0,0.1-0.1,0.1-0.1c0.1-0.1,0.2-0.2,0.3-0.4c0.1-0.1,0.1-0.2,0.2-0.2l0,0c0,0,0,0,0-0.1c0,0,0,0,0,0
				c0,0,0,0,0,0c0,0,0,0,0,0c0,0,0,0,0,0c0.1-0.2,0.3-0.4,0.4-0.5c0.2-0.3,0.5-0.6,0.7-1c0.1-0.2,0.3-0.4,0.5-0.6v0
				c0.2-0.2,0.4-0.4,0.6-0.7c0.1-0.2,0.3-0.3,0.4-0.5c0.1-0.1,0.2-0.2,0.2-0.3c0.1-0.1,0.1-0.1,0.2-0.2l0,0c0-0.1,0.1-0.1,0.1-0.2
				c0.1-0.1,0.1-0.2,0.2-0.3c0.1-0.1,0.2-0.2,0.3-0.3c0.2-0.2,0.3-0.4,0.5-0.6v0c0.1-0.1,0.1-0.2,0.2-0.2c0,0,0,0,0-0.1
				c0,0,0,0,0.1-0.1c0.2-0.2,0.4-0.5,0.6-0.8c0.1-0.1,0.1-0.2,0.2-0.2c0,0,0,0,0.1-0.1l0,0c0,0,0,0,0,0v0c0.3-0.3,0.5-0.6,0.8-0.9
				c0.1-0.1,0.2-0.2,0.3-0.3c0,0,0,0,0,0c0,0,0,0,0,0c0,0,0.1-0.1,0.1-0.1c0,0,0,0,0,0c0,0,0,0,0,0l0,0c0,0,0-0.1,0.1-0.1
				c0.2-0.2,0.4-0.4,0.6-0.6c0.2-0.3,0.5-0.5,0.7-0.8c0.2-0.2,0.3-0.4,0.5-0.5c0.2-0.2,0.4-0.4,0.6-0.6l0.1-0.1
				c0.4-0.4,0.8-0.8,1.2-1.2c0.1-0.1,0.2-0.2,0.3-0.3l0,0c0,0,0.1-0.1,0.1-0.1c0.2-0.2,0.4-0.4,0.6-0.6c0.2-0.2,0.3-0.3,0.5-0.5
				c0,0,0.1,0,0.1-0.1v0h0c0.5-0.5,0.9-0.9,1.4-1.3c0.1-0.1,0.2-0.2,0.4-0.3s0.2-0.2,0.4-0.3c0.2-0.1,0.3-0.3,0.5-0.5
				c0.1-0.1,0.1-0.1,0.2-0.2v0c0.4-0.4,0.8-0.7,1.2-1c0,0,0.1-0.1,0.1-0.1c0,0,0.1-0.1,0.1-0.1v0h0v0c0,0,0.1-0.1,0.1-0.1
				c0.1-0.1,0.2-0.2,0.3-0.2c0.1-0.1,0.2-0.1,0.2-0.2c0.2-0.2,0.5-0.4,0.7-0.6c0,0,0,0,0,0c0,0,0,0,0.1-0.1v0c0,0,0,0,0,0
				c0,0,0,0,0,0c0,0,0,0,0,0c0.1-0.1,0.2-0.2,0.3-0.3c0,0,0,0,0,0h0c0,0,0,0,0,0c0,0,0,0,0,0c0.1-0.1,0.2-0.1,0.3-0.2
				c0.1-0.1,0.2-0.2,0.3-0.3c0.2-0.1,0.3-0.3,0.5-0.4c0.2-0.2,0.4-0.4,0.7-0.5c0.1-0.1,0.1-0.1,0.2-0.2c0,0,0.1-0.1,0.1-0.1
				c0,0,0,0,0,0c0,0,0,0,0.1,0c0.1-0.1,0.1-0.1,0.2-0.2c0.1-0.1,0.3-0.2,0.4-0.3c0.3-0.2,0.7-0.5,1-0.8c0.2-0.2,0.5-0.4,0.8-0.6
				c0.1-0.1,0.2-0.2,0.3-0.2c0,0,0.1-0.1,0.1-0.1c0,0,0.1-0.1,0.1-0.1c0.1-0.1,0.1-0.1,0.2-0.1c0.2-0.1,0.3-0.2,0.4-0.3
				c0.5-0.4,1-0.7,1.5-1.1c0.5-0.4,1-0.7,1.5-1.1c0.3-0.2,0.6-0.4,0.9-0.6c0.3-0.2,0.6-0.4,0.9-0.6c0.5-0.4,1.1-0.7,1.6-1.1v0
				c0,0,0,0,0,0c0.3-0.2,0.5-0.4,0.8-0.5c0.3-0.2,0.5-0.4,0.8-0.5c0.3-0.2,0.6-0.3,0.9-0.5c0.1-0.1,0.2-0.1,0.3-0.2
				c0.1-0.1,0.1-0.1,0.2-0.1h0c0.1-0.1,0.2-0.1,0.3-0.2v0c0,0,0,0,0,0c0.1-0.1,0.3-0.2,0.4-0.2c0.1-0.1,0.3-0.2,0.4-0.2
				c0,0,0,0,0.1,0c0.2-0.1,0.3-0.2,0.5-0.3c0,0,0.1-0.1,0.2-0.1c0,0,0.1,0,0.1-0.1v0c0.2-0.1,0.4-0.2,0.6-0.3c0.1,0,0.2-0.1,0.3-0.2
				c0.3-0.2,0.6-0.3,0.9-0.5h0c0.4-0.2,0.8-0.5,1.2-0.7c0,0,0.1,0,0.1-0.1c0.1-0.1,0.2-0.1,0.4-0.2c0,0,0,0,0,0
				c0.1,0.2,0.1,0.5,0.2,0.8c0,0.2,0.1,0.5,0.1,0.7c0,0,0,0,0,0.1c0,0.2,0.1,0.4,0.1,0.6c0,0.1,0,0.3,0,0.4c0,0,0,0.1,0,0.1
				c0,0.2,0,0.3,0,0.5c0,0.3,0.1,0.5,0.1,0.8c0,0,0,0.1,0,0.1c0,0.1,0,0.1,0,0.2c0,0.2,0,0.4,0,0.6c0,0.3,0,0.6,0,0.9v0
				c0,0.3,0,0.7,0,1v0.2c0,0.2,0,0.4,0,0.6c0,0.2,0,0.4,0,0.6c0,0.3,0,0.6,0,1c0,0.1,0,0.1,0,0.2V65c0,0.2,0,0.5,0,0.8
				c-0.1,0.7-0.1,1.4-0.2,2.1v0c-0.1,0.8-0.2,1.5-0.3,2.3c0,0,0,0,0,0c-0.1,0.8-0.2,1.5-0.3,2.3v0c-0.1,0.8-0.3,1.5-0.4,2.3
				c0,0,0,0,0,0c-0.4,1.9-0.8,3.8-1.2,5.5c-0.1,0.3-0.1,0.6-0.2,0.9c0,0.1,0,0.3,0,0.4c0,0.2,0,0.3,0,0.4c0,0.4,0,0.8,0.1,1.1
				c0,0.2,0.1,0.4,0.1,0.5s0.1,0.4,0.2,0.5c0.1,0.2,0.1,0.4,0.2,0.5c0.1,0.1,0.1,0.3,0.2,0.4c0,0,0,0.1,0,0.1
				c0.1,0.1,0.2,0.3,0.2,0.4c0.1,0.1,0.1,0.2,0.2,0.2c0.1,0.1,0.1,0.2,0.2,0.2c0,0,0,0,0,0.1c0,0,0,0,0,0.1c0,0,0,0,0,0l0,0
				c0.1,0.1,0.2,0.2,0.3,0.3c0.1,0.1,0.2,0.2,0.2,0.3l0,0c0.1,0.1,0.1,0.1,0.2,0.2c0,0,0.1,0.1,0.1,0.1c0.1,0.1,0.2,0.2,0.2,0.2
				c0,0,0,0,0,0c0.1,0,0.1,0.1,0.2,0.2c0,0,0.1,0,0.1,0.1c0.2,0.1,0.3,0.2,0.5,0.4c0,0,0,0,0,0c0,0,0.1,0,0.1,0.1
				c0.1,0,0.1,0.1,0.2,0.1c0.1,0,0.2,0.1,0.2,0.1h0c0,0,0,0,0,0c0,0,0.1,0,0.1,0.1c0,0,0.1,0,0.1,0.1c0.2,0.1,0.3,0.1,0.5,0.2
				c0.2,0.1,0.4,0.2,0.6,0.2c0.2,0,0.3,0.1,0.5,0.1c0.1,0,0.2,0,0.3,0.1c0,0,0,0,0,0c0,0,0,0,0.1,0c0.1,0,0.2,0,0.3,0
				c0,0,0.1,0,0.2,0c0,0,0.1,0,0.1,0c0.2,0,0.4,0,0.6,0c0.2,0,0.4,0,0.5,0c0.1,0,0.2,0,0.4,0c0.1,0,0.2,0,0.3,0c0.1,0,0.1,0,0.2,0
				c0.1,0,0.2,0,0.3-0.1c0,0,0.1,0,0.1,0c0.1,0,0.3-0.1,0.5-0.1c0.2-0.1,0.3-0.1,0.5-0.2c0,0,0.1-0.1,0.1-0.1c0.1,0,0.1-0.1,0.2-0.1
				c0.1,0,0.1-0.1,0.2-0.1c0.1,0,0.2-0.1,0.3-0.2c0.4-0.2,0.7-0.4,1.1-0.6c0.4-0.2,0.7-0.4,1.1-0.7h0c0.4-0.3,0.9-0.6,1.3-0.9
				c0.3-0.2,0.6-0.4,1-0.7c0.4-0.3,0.7-0.5,1.1-0.8c0.2-0.2,0.4-0.3,0.6-0.5c0.2-0.1,0.3-0.3,0.5-0.4c0.2-0.1,0.3-0.2,0.5-0.4
				c0.2-0.2,0.4-0.3,0.6-0.5c0.1-0.1,0.2-0.2,0.3-0.2c0.2-0.2,0.4-0.4,0.6-0.6c0.7-0.6,1.4-1.3,2.1-1.9c0.3-0.3,0.6-0.6,0.9-0.9
				c0.2-0.2,0.4-0.4,0.6-0.6c0.1-0.1,0.1-0.1,0.2-0.2c0.3-0.3,0.5-0.6,0.8-0.9c0.1-0.1,0.3-0.3,0.4-0.4c0.1-0.1,0.2-0.2,0.3-0.3
				c0.3-0.3,0.6-0.7,0.9-1c0.1-0.1,0.1-0.1,0.2-0.2c0.1-0.1,0.1-0.1,0.2-0.2c0.1-0.1,0.2-0.2,0.3-0.4c0,0,0,0,0,0
				c0.3-0.3,0.5-0.6,0.8-0.9c0.4-0.4,0.7-0.9,1-1.3c0.3-0.4,0.7-0.9,1-1.3c0.2-0.3,0.4-0.6,0.6-0.9c0.2-0.3,0.4-0.6,0.6-0.9
				c0.3-0.4,0.6-0.9,0.9-1.3c0.2-0.3,0.4-0.7,0.6-1c0.1-0.1,0.2-0.2,0.2-0.4c1.1-1.8,2.1-3.5,3-5.2c3.5-6.4,13-4,13.2,3.2
				c0,0.4,0,0.8,0,1.2c0,0.3,0,0.6,0,0.9c0,0.1,0,0.3,0,0.5c0,0.2,0,0.3,0,0.5c0,0.5,0,0.9-0.1,1.4c0,0.3,0,0.6-0.1,0.9
				c0,0.5-0.1,1.1-0.1,1.6v0.1c-0.1,0.5-0.1,1-0.2,1.5c0,0.1,0,0.2,0,0.4c0,0.2,0,0.3-0.1,0.5c-0.1,0.6-0.2,1.3-0.3,1.9
				c-0.1,0.6-0.2,1.3-0.4,1.9c-0.2,1.3-0.5,2.6-0.8,3.8c0,0,0,0,0,0c-0.1,0.5-0.2,1-0.4,1.5c-0.3,1-0.5,2-0.8,3
				c-0.1,0.5-0.3,1-0.4,1.5c0,0.1-0.1,0.3-0.1,0.4c-0.2,0.6-0.4,1.3-0.6,1.9c-0.5,1.5-1,3.1-1.6,4.5c-0.1,0.4-0.3,0.7-0.4,1.1
				c-0.5,1.4-1.1,2.8-1.7,4.2c-0.3,0.7-0.5,1.3-0.8,2c-0.1,0.3-0.3,0.6-0.4,0.9c-0.1,0.2-0.2,0.5-0.3,0.8c0,0.1-0.1,0.2-0.1,0.3
				c0,0.1-0.1,0.2-0.1,0.3c-0.1,0.4-0.2,0.8-0.2,1.1c-0.1,1.2,0.1,2.3,0.5,3.4c0.2,0.4,0.4,0.9,0.7,1.2c0.3,0.5,0.7,0.9,1.1,1.3
				c0.1,0.1,0.2,0.2,0.3,0.3c0.1,0.1,0.2,0.2,0.4,0.3c0.1,0.1,0.2,0.1,0.3,0.2c0.2,0.1,0.3,0.2,0.5,0.3c0.1,0.1,0.3,0.2,0.5,0.2
				c0,0,0.1,0,0.1,0.1c0.1,0,0.1,0,0.2,0.1c0.1,0.1,0.3,0.1,0.4,0.2c0.1,0,0.1,0,0.2,0c0.1,0,0.1,0,0.2,0c0.1,0,0.2,0.1,0.3,0.1
				c0.1,0,0.2,0,0.3,0.1c0.2,0,0.4,0.1,0.6,0.1c0,0,0,0,0,0c0.2,0,0.5,0,0.7,0c0.6,0,1.1-0.1,1.7-0.2c0,0,0,0,0,0
				c0.9-0.2,1.7-0.4,2.6-0.6c0,0,0.1,0,0.1,0c0.7-0.2,1.3-0.4,2-0.5c0.8-0.2,1.5-0.4,2.3-0.6c0.6-0.2,1.1-0.3,1.7-0.5
				c0.2,0,0.4-0.1,0.5-0.2c1.5-0.4,3-0.9,4.5-1.3c0.3-0.1,0.7-0.2,1-0.3c0.2,0,0.3-0.1,0.5-0.2c0.2-0.1,0.3-0.1,0.5-0.2
				c0.7-0.2,1.4-0.5,2.1-0.7c0.2-0.1,0.4-0.1,0.6-0.2c0.1,0,0.1,0,0.2-0.1c0.4-0.1,0.8-0.3,1.3-0.4c0.7-0.2,1.3-0.5,2-0.7
				c1.3-0.5,2.6-0.9,3.8-1.4c0.6-0.2,1.3-0.5,1.9-0.7c0.5-0.2,1-0.4,1.5-0.6c0.5-0.2,1-0.4,1.4-0.6c0.4-0.2,0.8-0.3,1.2-0.5
				c0.6-0.3,1.2-0.5,1.8-0.8c0.4-0.2,0.7-0.3,1.1-0.5c0.6-0.3,1.1-0.5,1.7-0.8c0.2-0.1,0.4-0.2,0.6-0.3c0.7-0.4,1.4-0.7,2.1-1
				c0.2-0.1,0.3-0.2,0.5-0.2c0.4-0.2,0.8-0.4,1.2-0.6c1.1-0.6,2.2-1.2,3.3-1.8c0.5-0.3,1-0.6,1.5-0.8c0.5-0.3,1-0.5,1.4-0.8
				c0.3-0.2,0.6-0.4,0.9-0.5c0.3-0.2,0.6-0.4,0.9-0.5c1.1-0.7,2.2-1.4,3.3-2.1c0.5-0.3,1-0.7,1.6-1c0.8-0.6,1.6-1.1,2.4-1.7
				c0.3-0.2,0.7-0.5,1-0.7c0.3-0.2,0.6-0.5,1-0.7c0.5-0.4,1-0.7,1.5-1.1c0.5-0.4,1.1-0.8,1.6-1.2c0.3-0.2,0.5-0.4,0.8-0.6
				c0.1-0.1,0.3-0.2,0.4-0.3c0.1-0.1,0.2-0.2,0.4-0.3c0.2-0.2,0.4-0.3,0.6-0.5c0,0,0,0,0,0l0,0c0.4-0.4,0.8-0.7,1.3-1.1
				c0.3-0.3,0.6-0.5,0.9-0.8c0.2-0.2,0.4-0.4,0.6-0.6c0.1-0.1,0.2-0.1,0.2-0.2c0.1-0.1,0.3-0.3,0.4-0.4c0.1-0.1,0.3-0.3,0.4-0.4
				c0.3-0.3,0.6-0.5,0.8-0.8c0.3-0.3,0.5-0.5,0.8-0.8c1.1-1.1,2.1-2.1,3-3.2c0.2-0.3,0.5-0.5,0.7-0.8c0.7-0.8,1.3-1.5,1.9-2.3
				c0.2-0.2,0.4-0.5,0.6-0.7c0.2-0.3,0.4-0.5,0.6-0.8c0.3-0.5,0.7-0.9,1-1.4c1-1.4,1.9-2.8,2.7-4c0.1-0.2,0.3-0.4,0.4-0.6v0
				c0.5,0.3,0.9,0.7,1.3,1c0.5,0.4,1.1,0.8,1.6,1.2c0.3,0.2,0.6,0.5,0.9,0.7c2,1.6,4,3.3,5.9,5.1c0.4,0.4,0.8,0.8,1.2,1.2
				c0.3,0.3,0.6,0.6,0.9,0.9c0.3,0.3,0.6,0.6,0.9,0.9c0.7,0.6,1.3,1.3,1.9,2c0.5,0.6,1,1.1,1.6,1.7c0.8,0.8,1.5,1.7,2.2,2.5
				c0.6,0.7,1.2,1.4,1.8,2.1c0.1,0.1,0.2,0.3,0.4,0.4c0.5,0.6,1,1.2,1.5,1.9c0.5,0.7,1.1,1.4,1.6,2.1c0.7,0.9,1.3,1.8,2,2.7
				c0.9,1.2,1.7,2.4,2.5,3.6c0.7,1.1,1.5,2.2,2.2,3.4c0.9,1.4,1.7,2.9,2.5,4.4c0.5,1,1.1,2,1.6,3c0.2,0.4,0.4,0.8,0.6,1.3
				c0.1,0.2,0.2,0.4,0.3,0.6c0.2,0.4,0.4,0.8,0.6,1.2c0.5,1,1,2.1,1.4,3.1c0.2,0.5,0.5,1.1,0.7,1.6c0.2,0.5,0.5,1,0.7,1.6
				c0.2,0.4,0.4,0.9,0.5,1.3c0.2,0.4,0.3,0.8,0.5,1.3c0,0,0,0,0,0c0.3,0.7,0.5,1.5,0.8,2.2c0,0.1,0.1,0.2,0.1,0.3
				c0.2,0.4,0.3,0.9,0.4,1.3c0.3,0.9,0.6,1.7,0.9,2.6c0.3,0.9,0.5,1.8,0.8,2.6c0.1,0.4,0.3,0.9,0.4,1.3c0.3,1.1,0.6,2.2,0.9,3.4
				c0.1,0.4,0.2,0.8,0.3,1.2c0,0,0,0.1,0,0.1c0,0.2,0.1,0.4,0.1,0.6c0.1,0.5,0.2,1,0.3,1.5c0.1,0.6,0.2,1.1,0.4,1.7
				c0.1,0.6,0.2,1.1,0.3,1.7c0.1,0.6,0.2,1.1,0.3,1.7c0.1,0.6,0.2,1.2,0.3,1.7c0.1,0.6,0.2,1.1,0.2,1.7c0.1,0.6,0.2,1.2,0.2,1.8
				c0,0.4,0.1,0.8,0.1,1.2c0,0.2,0.1,0.5,0.1,0.8c0.1,0.5,0.1,1,0.2,1.5c0.1,0.6,0.1,1.2,0.2,1.8c0,0.6,0.1,1.2,0.1,1.8
				c0,0.4,0,0.8,0.1,1.2c0,0,0,0.1,0,0.2c0,0.5,0,1,0.1,1.5c0,0.5,0,1,0.1,1.5v0.1c0,0.2,0,0.4,0,0.5c0,0.7,0,1.3,0,2v0.1
				c0,0,0,0,0,0v18.3h2.7c0.8,0,1.6,0.1,2.3,0.2l1.7-57.9C386.6,63.8,345.9,16.8,293.4,12.1z"/>
			<path id="XMLID_3397_" class="st36" d="M292.6,12c-0.1,0-0.2,0-0.4,0c-0.8-0.1-1.6-0.1-2.4-0.2c-1.7-0.1-3.4-0.2-5.1-0.2h-49
				c-1.8,0-3.5,0-5.3,0.2c-4.3,0.2-8.5,0.7-12.6,1.5c-2.2,0.4-4.4,0.9-6.5,1.5c-2.7,0.7-5.4,1.5-8.1,2.5c-1.2,0.4-2.5,0.9-3.7,1.4
				c-1.2,0.5-2.4,1-3.5,1.5c-1.2,0.5-2.3,1.1-3.4,1.6c-0.5,0.3-1.1,0.5-1.6,0.8c-1,0.6-2.1,1.1-3.1,1.7c-1,0.6-2,1.1-2.9,1.7
				c-1.4,0.9-2.8,1.8-4.1,2.7c-1.7,1.2-3.4,2.4-5.1,3.7c-0.4,0.3-0.8,0.6-1.1,0.9c-24.7,19.9-40.4,51.5-39.4,86.7l1.7,58.3v0
				c0.9-0.2,1.8-0.4,2.8-0.5c0.1,0,0.2,0,0.4,0h0c0,0,0.1,0,0.1,0c0,0,0.1,0,0.1,0h0.1c0.2,0,0.3,0,0.5,0h2.3v-18.3
				c0-16.2,3.3-31.6,9.2-45.7c3.8-8.9,8.6-17.3,14.4-25c10.3-13.7,23.6-25.1,39-33.2c0,0,0,0,0.1,0c1.6,7.1,0.1,17-1.9,25
				c-0.6,2.5,0.1,4.9,1.6,6.6c11.4-40.6,45.8-71.2,87.5-74.9c0,0,0,0,0,0C293.2,12,292.9,12,292.6,12z"/>
			<path id="XMLID_3396_" class="st254" d="M269,230.8h-14.5c-4.8,0-8.7-3.9-8.7-8.7v0c0-4.8,3.9-8.7,8.7-8.7H269
				c4.8,0,8.7,3.9,8.7,8.7v0C277.6,226.9,273.8,230.8,269,230.8z"/>
			<path id="XMLID_3395_" class="st255" d="M239.1,243.1c0,12.5,10.1,22.6,22.6,22.6c12.5,0,22.6-10.1,22.6-22.6"/>
			<line id="XMLID_3394_" class="st255" x1="248.1" y1="283.8" x2="275.3" y2="283.8"/>
			<path id="XMLID_3393_" class="st256" d="M329.9,32.9c7.9,4.6,21.6,13.8,28.6,24.6c0.7,1.1-0.1,2.6-1.4,2.6h-7.5
				c-0.9,0-1.6,0.7-1.7,1.6l-0.2,7.8c0,1.4-1.6,2.1-2.7,1.3c-4.8-3.7-15.9-11.4-27.3-14.3c-1.6-0.4-1.7-2.6-0.2-3.2l10.6-4.1
				c0.7-0.2,1.1-0.9,1.1-1.6c0-2.4-0.3-8.2-1.8-12.7C327,33.5,328.5,32.2,329.9,32.9z"/>
			<g id="XMLID_3389_">
				<path id="XMLID_3392_" class="st23" d="M314.7,140.4c-20.9,0-38.3,15-42,34.9h-21.9c-3.7-19.8-21.1-34.9-42-34.9
					c-23.6,0-42.8,19.2-42.8,42.8c0,23.6,19.2,42.8,42.8,42.8c20.9,0,38.3-15,42-34.9h21.9c3.7,19.8,21.1,34.9,42,34.9
					c23.6,0,42.8-19.2,42.8-42.8C357.5,159.5,338.3,140.4,314.7,140.4z"/>
				<circle id="XMLID_3391_" class="st257" cx="208.7" cy="183.1" r="32.5"/>
				<circle id="XMLID_3390_" class="st257" cx="314.7" cy="183.1" r="32.5"/>
			</g>
			<path id="XMLID_3524_" class="st0" d="M202.9,357.5v148.9c-2.7-0.6-5.4-1.2-8-1.8c-4.7-1.1-9.2-2.4-13.8-3.8
				c-4.2-1.3-8.3-2.7-12.4-4.2c-4-1.4-7.9-3-11.8-4.6c0,0-0.1,0-0.2-0.1c-2.5-1-4.9-2.1-7.3-3.2c-12.1-5.6-23.7-12-34.7-19.3
				c-0.1-0.1-0.3-0.2-0.4-0.3V409c0-16.1,7.4-30.4,18.9-39.9c4.8-3.9,10.2-7,16.2-9c2.5-0.9,5.2-1.5,7.9-2c2.8-0.5,5.6-0.7,8.6-0.7
				H202.9z"/>
			<path id="XMLID_3530_" class="st15" d="M217.8,361.9v147.3c-5-0.8-10-1.6-14.9-2.7c-2.7-0.6-5.4-1.2-8-1.8
				c-4.7-1.1-9.2-2.4-13.8-3.8v-139c0-1.5,0.2-2.9,0.5-4.4c0,0,0,0,0,0c1.1-4.4,3.7-8.2,7.4-10.7c3-2.1,6.6-3.3,10.5-3.3
				c5.1,0,9.7,2.1,13,5.4c2.3,2.4,4,5.3,4.9,8.6C217.6,358.9,217.8,360.4,217.8,361.9z"/>
			<path id="XMLID_3508_" class="st0" d="M430.4,443.4c-7.1,6.6-14.6,12.9-22.5,18.6c-11.1,8.2-22.9,15.5-35.3,21.9v0.1h-0.1
				c-9.2,4.7-18.7,8.9-28.4,12.4c-5.2,1.9-10.6,3.7-16,5.3c-1.9,0.6-3.9,1.1-5.8,1.6V357.5h37.2c2.9,0,5.8,0.2,8.6,0.7
				c9,1.5,17.3,5.4,24,10.9c11.6,9.5,18.9,23.8,18.9,39.9v28.4C418.2,437.5,424.9,439.7,430.4,443.4z"/>
			<path id="XMLID_3511_" class="st15" d="M344.2,361.9v134.5c-5.2,1.9-10.6,3.7-16,5.3c-1.9,0.6-3.9,1.1-5.8,1.6
				c-1.6,0.4-3.1,0.8-4.7,1.2h0c-3.4,0.8-6.8,1.6-10.2,2.3v-145c0-1.5,0.2-3,0.5-4.4c0.8-3.3,2.5-6.3,4.9-8.6
				c3.3-3.3,7.9-5.4,13-5.4c8.6,0,15.9,6,17.8,14C344,358.9,344.2,360.4,344.2,361.9z"/>
			<circle id="XMLID_3384_" class="st23" cx="209.8" cy="182.1" r="15.2"/>
			<circle id="XMLID_3383_" class="st16" cx="213.6" cy="177.2" r="6.7"/>
			<circle id="XMLID_3382_" class="st23" cx="315.7" cy="182.1" r="15.2"/>
			<circle id="XMLID_3381_" class="st16" cx="319.6" cy="177.2" r="6.7"/>
			<path id="XMLID_3514_" class="st51" d="M194.8,360.5v144.2c-4.7-1.1-9.2-2.4-13.8-3.8c-4.2-1.3-8.3-2.7-12.4-4.2
				c-4-1.4-7.9-3-11.8-4.6c0,0-0.1,0-0.2-0.1c-2.5-1-4.9-2.1-7.3-3.2V360.2c0-1.6,0.2-3.2,0.6-4.7c0.1-0.5,0.3-1,0.5-1.5
				c0.2-0.5,0.4-1,0.6-1.5c0.2-0.5,0.5-0.9,0.7-1.4c0.5-0.9,1.1-1.7,1.7-2.5c0.6-0.8,1.3-1.4,2-2.1c0.4-0.3,0.7-0.6,1.1-0.8
				c0.2-0.1,0.4-0.2,0.6-0.4c0.4-0.2,0.8-0.4,1.2-0.6c1.5-0.6,3.1-1,4.8-1h18c0.2,0,0.4,0,0.6,0c2.7,0.1,5.2,1.2,7.2,3
				c2.9,2.5,5,6.3,5.7,10.7v0c0,0.2,0.1,0.4,0.1,0.6c0,0.2,0,0.3,0,0.4c0,0.2,0,0.5,0,0.7C194.8,359.7,194.8,360.1,194.8,360.5z"/>
			<path id="XMLID_3421_" class="st36" d="M181.7,343.8c-6.5,0.4-11.7,6.2-12.8,13.7v0c0,0.2-0.1,0.4-0.1,0.6c0,0,0,0,0,0
				c-0.1,0.8-0.1,1.5-0.1,2.3v136.2c-4-1.4-7.9-3-11.8-4.6c0,0-0.1,0-0.2-0.1c-2.5-1-4.9-2.1-7.3-3.2V360.2c0-1.6,0.2-3.2,0.6-4.7
				c0.1-0.5,0.3-1,0.5-1.5c0.2-0.5,0.4-1,0.6-1.5c0.2-0.5,0.5-0.9,0.7-1.4c0.5-0.9,1.1-1.7,1.7-2.5c0.6-0.8,1.3-1.4,2-2.1
				c0.4-0.3,0.7-0.6,1.1-0.8c0.2-0.1,0.4-0.2,0.6-0.4c0.4-0.2,0.8-0.4,1.2-0.6c1.5-0.6,3.1-1,4.8-1h18
				C181.3,343.8,181.5,343.8,181.7,343.8z"/>
			<path id="XMLID_3528_" class="st42" d="M328.6,381.3v117.2c0,1.1-0.1,2.1-0.4,3.1c-1.9,0.6-3.9,1.1-5.8,1.6
				c-1.6,0.4-3.1,0.8-4.7,1.2h0c-3.4,0.8-6.8,1.6-10.2,2.3c-6.6,1.3-13.2,2.4-19.9,3.2c-0.6,0.1-1.2,0.1-1.8,0.2
				c-3.6,0.4-7.2,0.8-10.9,1h-8.2c-7.1,0-12.8-5.7-12.8-12.8V381.3c0-0.2,0-0.5,0-0.7c0.2-3,1.3-5.7,3.2-7.8
				c2.3-2.6,5.7-4.3,9.5-4.3h49.2c2.4,0,4.6,0.7,6.5,1.8C326.1,372.5,328.6,376.6,328.6,381.3z"/>
			<path id="XMLID_3398_" class="st23" d="M285.8,510.3c-3.6,0.4-7.2,0.8-10.9,1h-8.2c-7.1,0-12.8-5.7-12.8-12.8V381.3
				c0-0.2,0-0.5,0-0.7c0.2-3,1.3-5.7,3.2-7.8c2.3-2.6,5.7-4.3,9.5-4.3h24.1c-6.5,0-11.8,4.8-12.6,11.1c-0.1,0.6-0.1,1.1-0.1,1.7
				v117.2C278,503.8,281.2,508.3,285.8,510.3z"/>
			<path id="XMLID_3376_" class="st23" d="M304.2,395.9h11.7c2.2,0,3.9-1.8,3.9-3.9v-11.7c0-2.2-1.8-3.9-3.9-3.9h-11.7
				c-2.2,0-3.9,1.8-3.9,3.9V392C300.2,394.2,302,395.9,304.2,395.9z"/>
			<path id="XMLID_3375_" class="st258" d="M306.4,392.2h7.1c1.3,0,2.4-1.1,2.4-2.4v-7.1c0-1.3-1.1-2.4-2.4-2.4h-7.1
				c-1.3,0-2.4,1.1-2.4,2.4v7.1C304,391.1,305.1,392.2,306.4,392.2z"/>
			<path id="XMLID_3505_" class="st253" d="M372.7,447v37h-0.1c-9.2,4.7-18.7,8.9-28.4,12.4c-5.2,1.9-10.6,3.7-16,5.3
				c-1.9,0.6-3.9,1.1-5.8,1.6c-1.6,0.4-3.1,0.8-4.7,1.2h0c-3.7-0.6-7.1-2-10.2-3.9v0c-0.2-0.1-0.3-0.2-0.5-0.3
				c-0.2-0.1-0.3-0.2-0.5-0.3c-1.5-1-3-2.2-4.3-3.5c-2-2-3.7-4.2-5-6.7c-0.7-1.2-1.3-2.5-1.7-3.9c-0.3-0.9-0.6-1.8-0.8-2.7
				c-0.6-2.3-0.9-4.8-0.9-7.2c0-0.5,0-1,0-1.5c0-0.4,0-0.9,0.1-1.3c0-0.4,0.1-0.9,0.2-1.3c0-0.3,0.1-0.6,0.1-0.9
				c0-0.3,0.1-0.6,0.1-0.8c0-0.1,0-0.1,0-0.2c0.1-0.3,0.1-0.7,0.2-1c0-0.2,0.1-0.5,0.2-0.7c0.1-0.2,0.1-0.5,0.2-0.7
				c0.1-0.2,0.1-0.5,0.2-0.7c0-0.1,0.1-0.2,0.1-0.3c0.1-0.4,0.3-0.8,0.4-1.1c1.5-3.8,3.7-7.2,6.5-10c1.6-1.6,3.4-3,5.3-4.2
				c4.3-2.7,9.5-4.3,14.9-4.3c0.1,0,0.2,0,0.3,0H372.7z"/>
			<path id="XMLID_3400_" class="st254" d="M372.6,484c-9.2,4.7-18.7,8.9-28.4,12.4c-5.2,1.9-10.6,3.7-16,5.3
				c-1.9,0.6-3.9,1.1-5.8,1.6c-1.6,0.4-3.1,0.8-4.7,1.2h0c-3.7-0.6-7.1-2-10.2-3.9c-0.2-0.1-0.3-0.2-0.5-0.3
				c-0.2-0.1-0.3-0.2-0.5-0.3c-1.5-1-3-2.2-4.3-3.5c-2-2-3.7-4.2-5-6.7c-0.7-1.2-1.3-2.5-1.7-3.9c-0.3-0.9-0.6-1.8-0.8-2.7
				c-0.6-2.3-0.9-4.8-0.9-7.2c0-0.5,0-1,0-1.5c0-0.4,0-0.9,0.1-1.3c0-0.4,0.1-0.9,0.2-1.3c0-0.3,0.1-0.6,0.1-0.9
				c0-0.3,0.1-0.6,0.1-0.8c0-0.1,0-0.1,0-0.2c0.1-0.3,0.1-0.7,0.2-1c0-0.2,0.1-0.5,0.2-0.7c0.1-0.2,0.1-0.5,0.2-0.7
				c0.1-0.2,0.1-0.5,0.2-0.7c0-0.1,0.1-0.2,0.1-0.3c0.1-0.4,0.3-0.8,0.4-1.1c2.3,5.9,6.5,10.9,11.8,14.2c4.3,2.7,9.4,4.2,14.9,4.3
				H372.6z"/>
		</g>
	</g>
</g>
</svg>
