<?xml version="1.0" encoding="utf-8"?>
<!-- Generator: Adobe Illustrator 22.0.1, SVG Export Plug-In . SVG Version: 6.00 Build 0)  -->
<svg version="1.1" xmlns="http://www.w3.org/2000/svg" xmlns:xlink="http://www.w3.org/1999/xlink" x="0px" y="0px"
	 viewBox="0 0 512 512" style="enable-background:new 0 0 512 512;" xml:space="preserve">
<style type="text/css">
	.st0{fill:#E9B12D;}
	.st1{fill:#A9E7D8;}
	.st2{fill:#76CFB1;}
	.st3{fill:#AE6B5D;}
	.st4{fill:#7770D3;}
	.st5{fill:#5BA0F5;}
	.st6{fill:#DA4545;}
	.st7{fill:#89CCFC;}
	.st8{fill:#CD462A;}
	.st9{fill:#514896;}
	.st10{fill:#5493A0;}
	.st11{fill:#CC6B5C;}
	.st12{fill:#62AA8D;}
	.st13{fill:#8ABAAB;}
	.st14{fill:#C3791F;}
	.st15{fill:#E39123;}
	.st16{fill:#FFFFFF;}
	.st17{fill:none;stroke:#FFFFFF;stroke-width:10;stroke-linecap:round;stroke-miterlimit:10;}
	.st18{fill:none;stroke:#5F55AB;stroke-width:10;stroke-linecap:round;stroke-miterlimit:10;}
	.st19{fill:#A9671C;}
	.st20{fill:#D5B3A7;}
	.st21{fill:#C09A8F;}
	.st22{fill:#487F87;}
	.st23{fill:#1B305C;}
	.st24{fill:#172945;}
	.st25{fill:none;}
	.st26{fill:#B62A2A;}
	.st27{fill:#325859;}
	.st28{fill:#3F6E71;}
	.st29{fill:#284646;}
	.st30{fill:#8F2727;}
	.st31{fill:#29477C;}
	.st32{fill:#5B9BEE;}
	.st33{fill:#487FDE;}
	.st34{fill:#CD9829;}
	.st35{fill:#9F2A2A;}
	.st36{fill:#4C3328;}
	.st37{fill:#E8B94A;}
	.st38{fill:#DDF8F1;}
	.st39{fill:#3E2A22;}
	.st40{fill:#D3A971;}
	.st41{fill:#C79A5B;}
	.st42{fill:#233E76;}
	.st43{fill:#21395F;}
	.st44{fill:#487D82;}
	.st45{fill:none;stroke:#C79A5B;stroke-width:10;stroke-linecap:round;stroke-miterlimit:10;}
	.st46{fill:#5E3E31;}
	.st47{fill:#AC3939;}
	.st48{fill:#CA9628;}
	.st49{fill:#AF8F88;}
	.st50{fill:#815048;}
	.st51{fill:#6F4232;}
	.st52{fill:#5F55AB;}
	.st53{fill:#192A48;}
	.st54{fill:#152336;}
	.st55{fill:#192B49;}
	.st56{fill:#264173;}
	.st57{fill:#B06F1E;}
	.st58{fill:#4E88C0;}
	.st59{fill:#83C3F1;}
	.st60{fill:#CF9929;}
	.st61{fill:none;stroke:#FFFFFF;stroke-width:10;stroke-linecap:round;stroke-linejoin:round;stroke-miterlimit:10;}
	.st62{fill:#EAC262;}
	.st63{fill:#D6D5D4;}
	.st64{fill:#6BBA9B;}
	.st65{fill:#63AA8F;}
	.st66{fill:none;stroke:#3E2A22;stroke-width:10;stroke-linecap:round;stroke-miterlimit:10;}
	.st67{fill:#CA7D1F;}
	.st68{fill:#213B64;}
	.st69{fill:#CDF8EC;}
	.st70{fill:#C59125;}
	.st71{fill:none;stroke:#C09A8F;stroke-width:10;stroke-linecap:round;stroke-miterlimit:10;}
	.st72{fill:#32579B;}
	.st73{fill:#172843;}
	.st74{fill:#D66767;}
	.st75{fill:#A74949;}
	.st76{fill:#EBC76F;}
	.st77{fill:#7A4940;}
	.st78{fill:#182A48;}
	.st79{fill:none;stroke:#A0794A;stroke-width:10;stroke-linecap:round;stroke-miterlimit:10;}
	.st80{fill:#C37A20;}
	.st81{fill:#D26D5C;}
	.st82{fill:#A45752;}
	.st83{fill:#284579;}
	.st84{fill:#88C7F4;}
	.st85{fill:#6EB6F0;}
	.st86{fill:#32221E;}
	.st87{fill:#E7A6A6;}
	.st88{fill:#C59191;}
	.st89{fill:#AA3B3B;}
	.st90{fill:#B83E3E;}
	.st91{fill:none;stroke:#5F55A9;stroke-width:10;stroke-linecap:round;stroke-miterlimit:10;}
	.st92{fill:#963838;}
	.st93{fill:#402B25;}
	.st94{fill:#6B6ABA;}
	.st95{fill:#BABABA;}
	.st96{fill:#D1D1D1;}
	.st97{fill:#264377;}
	.st98{fill:#A19BF5;}
	.st99{fill:#3C2A21;}
	.st100{fill:none;stroke:#4C3328;stroke-width:10;stroke-linecap:round;stroke-miterlimit:10;}
	.st101{fill:#C1781F;}
	.st102{fill:#E3A147;}
	.st103{fill:#F2D2A1;}
	.st104{fill:#4F372D;}
	.st105{fill:none;stroke:#DA4545;stroke-width:10;stroke-linecap:round;stroke-miterlimit:10;}
	.st106{fill:#AA3928;}
	.st107{fill:#8C2C22;}
	.st108{fill:#BF4336;}
	.st109{fill:#5797D4;}
	.st110{fill:#CFCFCF;}
	.st111{fill:#613A2E;}
	.st112{fill:none;stroke:#B18653;stroke-width:10;stroke-linecap:round;stroke-miterlimit:10;}
	.st113{fill:#B13B3B;}
	.st114{fill:#16263A;}
	.st115{fill:none;stroke:#16263A;stroke-width:10;stroke-miterlimit:10;}
	.st116{fill:#C87D20;}
	.st117{fill:#E4F0FD;}
	.st118{fill:#AA3737;}
	.st119{fill:#BF771F;}
	.st120{fill:none;stroke:#CD462A;stroke-width:10;stroke-linejoin:round;stroke-miterlimit:10;}
	.st121{fill:#5696D2;}
	.st122{fill:#C0771E;}
	.st123{fill:#9B5F1B;}
	.st124{fill:#A83A29;}
	.st125{fill:#E7A74F;}
	.st126{fill:#C9924C;}
	.st127{fill:#C58E48;}
	.st128{fill:#BE8844;}
	.st129{fill:#916939;}
	.st130{fill:#264275;}
	.st131{fill:#253F65;}
	.st132{fill:#182A45;}
	.st133{fill:#162336;}
	.st134{fill:#93C7B7;}
	.st135{fill:#E6A4A4;}
	.st136{fill:#B06B1D;}
	.st137{fill:#484185;}
	.st138{fill:#DB6E6E;}
	.st139{fill:#6BBA9A;}
	.st140{fill:#CACCCC;}
	.st141{fill:#D4D4D4;}
	.st142{fill:#A98881;}
	.st143{fill:#213A62;}
	.st144{fill:#A2837D;}
	.st145{fill:#6FB8F4;}
	.st146{fill:#9B9E9E;}
	.st147{fill:#B2B3B3;}
	.st148{fill:#20385D;}
	.st149{fill:#335AA8;}
	.st150{fill:#BCE7FD;}
	.st151{fill:#3B2921;}
	.st152{fill:#AD3C3C;}
	.st153{fill:#9D3838;}
	.st154{fill:#603F33;}
	.st155{fill:#4D868B;}
	.st156{fill:#A2DDFD;}
	.st157{fill:#ECB6B6;}
	.st158{fill:#E8A346;}
	.st159{fill:#514C94;}
	.st160{fill:#D2F1E8;}
	.st161{fill:#BDD6CE;}
	.st162{fill:#B93B29;}
	.st163{fill:#E0AD70;}
	.st164{fill:#C57C21;}
	.st165{fill:#EDA34A;}
	.st166{fill:#2F538F;}
	.st167{fill:#2B4B78;}
	.st168{fill:#65AF91;}
	.st169{fill:#A7CEFC;}
	.st170{fill:#98BDE2;}
	.st171{fill:#CFE5F7;}
	.st172{fill:#5492CD;}
	.st173{fill:#97CCBC;}
	.st174{fill:#5491CA;}
	.st175{fill:#EDC563;}
	.st176{fill:#423C79;}
	.st177{fill:#D3B1A5;}
	.st178{fill:#BE988D;}
	.st179{fill:#A7E5D6;}
	.st180{fill:#F2FFF9;}
	.st181{fill:#D64545;}
	.st182{fill:#A73B3B;}
	.st183{fill:#15233A;}
	.st184{fill:none;stroke:#BE988D;stroke-width:10;stroke-linecap:round;stroke-miterlimit:10;}
	.st185{fill:#AF3A29;}
	.st186{fill:#FAF9FF;}
	.st187{fill:#CACACC;}
	.st188{fill:#372720;}
	.st189{fill:#3F2C26;}
	.st190{fill:#2D201C;}
	.st191{fill:#3D6D6F;}
	.st192{fill:#5B54A8;}
	.st193{fill:#325799;}
	.st194{fill:#E8C26E;}
	.st195{fill:#254784;}
	.st196{fill:#5696D4;}
	.st197{fill:#4F8AB6;}
	.st198{fill:#5FA4AC;}
	.st199{fill:#AA3524;}
	.st200{fill:#D15F4D;}
	.st201{fill:#2B294C;}
	.st202{fill:#A43A2A;}
	.st203{fill:#E7AE2D;}
	.st204{fill:#CD9729;}
	.st205{fill:none;stroke:#AA8253;stroke-width:10;stroke-linecap:round;stroke-miterlimit:10;}
	.st206{fill:none;stroke:#E18F23;stroke-width:10;stroke-linecap:round;stroke-linejoin:round;stroke-miterlimit:10;}
	.st207{fill:#CF9828;}
	.st208{fill:#B88926;}
	.st209{fill:#A17623;}
	.st210{fill:#96CCBC;}
	.st211{fill:#CF9A2A;}
	.st212{fill:#C57B20;}
	.st213{fill:#C7F1E6;}
	.st214{fill:#DC6363;}
	.st215{fill:#E89F9F;}
	.st216{fill:#C88C8C;}
	.st217{fill:#C16E6E;}
	.st218{fill:#A46060;}
	.st219{fill:#AA3626;}
	.st220{fill:#87EDC4;}
	.st221{fill:#D86552;}
	.st222{fill:#BC7620;}
	.st223{fill:#BA741E;}
	.st224{fill:#8F8CE3;}
	.st225{fill:#3A2820;}
	.st226{fill:#AC7060;}
	.st227{fill:#915F55;}
	.st228{fill:#49332A;}
	.st229{fill:#2D1F1B;}
	.st230{fill:#69B7BE;}
	.st231{fill:#D6D6D6;}
	.st232{fill:#B8B8B8;}
	.st233{fill:#CACACA;}
	.st234{fill:#467B80;}
	.st235{fill:#C2EDE2;}
	.st236{fill:#A9574F;}
	.st237{fill:#5595D2;}
	.st238{fill:#955949;}
	.st239{fill:#7E4B42;}
	.st240{fill:#89CCF1;}
	.st241{fill:#DD584A;}
	.st242{fill:#C18F26;}
	.st243{fill:#B33C2A;}
	.st244{fill:#D1A771;}
	.st245{fill:#B42A2A;}
	.st246{fill:#325797;}
	.st247{fill:#9F3529;}
	.st248{fill:#EDCE80;}
	.st249{fill:#F0DBAC;}
	.st250{fill:#CFB478;}
	.st251{fill:#D4C29B;}
	.st252{fill:#993939;}
	.st253{fill:#D1AFA3;}
	.st254{fill:#BC968B;}
	.st255{fill:none;stroke:#BC968B;stroke-width:10;stroke-linecap:round;stroke-miterlimit:10;}
	.st256{fill:#814C3C;}
	.st257{fill:#C0EBE0;}
	.st258{fill:#A5E3D4;}
	.st259{fill:#15243C;}
	.st260{fill:#443E79;}
	.st261{fill:#F0FFF7;}
	.st262{fill:#9A764B;}
	.st263{fill:#826443;}
	.st264{fill:#D9AA74;}
	.st265{fill:#5DA186;}
	.st266{fill:#68B596;}
	.st267{fill:#E5C6BE;}
	.st268{fill:#D3B6B1;}
	.st269{fill:none;stroke:#BAA09C;stroke-width:10;stroke-linecap:round;stroke-miterlimit:10;}
	.st270{fill:#F4D78F;}
	.st271{fill:#20385F;}
	.st272{fill:#BA8727;}
	.st273{fill:#5A9C82;}
	.st274{fill:none;stroke:#E39123;stroke-width:10;stroke-linecap:round;stroke-linejoin:round;stroke-miterlimit:10;}
	.st275{fill:#60392D;}
	.st276{fill:#CCCCCC;}
	.st277{fill:#844F3E;}
	.st278{fill:#F3FFFB;}
	.st279{fill:#365E60;}
	.st280{fill:#D84545;}
	.st281{fill:#A83B3B;}
	.st282{fill:#253F70;}
	.st283{fill:#EAADAD;}
	.st284{fill:#443E7C;}
	.st285{fill:#3D6B9F;}
	.st286{fill:#4274BC;}
	.st287{fill:#AF3827;}
	.st288{fill:#E59D9D;}
	.st289{fill:#C48989;}
	.st290{fill:none;stroke:#9B621A;stroke-width:10;stroke-linecap:round;stroke-linejoin:round;stroke-miterlimit:10;}
	.st291{fill:#213A5E;}
	.st292{fill:#2D507A;}
	.st293{fill:#528EC8;}
	.st294{fill:#EFD696;}
	.st295{fill:#D1BA87;}
	.st296{fill:#FDFCFC;}
	.st297{fill:#86CBFC;}
	.st298{fill:#7AB7DA;}
	.st299{fill:#192C4C;}
	.st300{fill:#BCBCBC;}
	.st301{fill:#A13838;}
	.st302{fill:#75BDF6;}
	.st303{fill:#D0B1AA;}
	.st304{fill:#142233;}
	.st305{fill:#E6C4BB;}
	.st306{fill:#BDBDBD;}
	.st307{fill:#E8A192;}
	.st308{fill:#A43939;}
	.st309{fill:#162640;}
	.st310{fill:#27457C;}
	.st311{fill:#EFBE5E;}
	.st312{fill:#87EDC5;}
	.st313{fill:#A03838;}
	.st314{fill:#833232;}
	.st315{fill:#47417F;}
	.st316{fill:none;stroke:#915F55;stroke-width:10;stroke-linecap:round;stroke-miterlimit:10;}
	.st317{fill:#BC8B25;}
	.st318{fill:#473129;}
	.st319{fill:#67B394;}
	.st320{fill:#599A80;}
	.st321{fill:#B13D3D;}
</style>
<g id="BULINE">
	<circle id="XMLID_789_" class="st3" cx="256" cy="256" r="256"/>
	<g>
	</g>
</g>
<g id="Icons">
	<g id="XMLID_799_">
		<path id="XMLID_1686_" class="st77" d="M512,256c0,70-28.1,133.4-73.6,179.6c-14,14.2-29.6,26.8-46.5,37.4
			c-12.4,7.8-25.5,14.5-39.2,20.1c-17,7-35,12.1-53.6,15.3c-14,2.4-28.4,3.6-43.1,3.6c-2.6,0-5.3,0-7.9-0.1
			c-13.5-0.4-26.8-1.9-39.7-4.3c-11.5-2.2-22.6-5.1-33.5-8.7c-1.5-0.5-3-1-4.6-1.6c-3-1.1-6-2.2-9-3.4c-6.5-2.6-13-5.5-19.2-8.6
			c-3.5-1.8-7-3.6-10.5-5.5c-0.2-0.1-0.4-0.2-0.7-0.4c-21.8-12.2-41.7-27.6-59-45.4C27.6,388.1,0.2,325.7,0,256.9l27.3-31
			c2-2.2,5.5-2.2,7.4,0L46,238.6c2.1,2.4,5.8,2.2,7.7-0.3l9.4-12.6c1.6-2.2,4.8-2.7,7-1l3.3,2.5c2.6,1.9,6.3,0.9,7.5-2l24.4-58.1
			c1.6-3.7,6.7-4.1,8.8-0.7l9.2,15l0.1,0.1l25.2,41.1c1.5,2.5,4.8,3.1,7.1,1.4l3.9-2.8l0,0l2.5-1.9c1.7-1.2,4-1.3,5.8-0.1l37.3,26.1
			c0.3,0.2,0.5,0.3,0.8,0.5c1.6,0.7,3.5,0.5,5-0.5l42.3-31.9l18.6-14l0.3-0.2c2.6-2,6.3-0.9,7.6,2.1l6.4,16c1,2.5,3.9,3.7,6.4,2.8
			l13.7-5.3c1.9-0.7,4-0.2,5.4,1.3l36.1,39.2l6.7,7.2c2.3,2.5,6.3,2,7.9-0.9l31.1-55.1c0.9-1.6,2.5-2.4,4.1-2.5
			c1.9-0.1,3.8,0.8,4.7,2.8L415,233c1.9,3.9,7.5,3.7,9.1-0.4l24.7-63.7c1.6-4,7.2-4.2,9.1-0.3l15.9,33.5c1.5,3.2,5.8,3.8,8.2,1.1
			c1-1.2,2.4-1.7,3.7-1.7c2.3,0,4.5,1.6,4.9,4.2l5,33.3c0.5,3.5,4.4,5.3,7.5,3.5l8.3-5C511.8,243.6,512,249.8,512,256z"/>
		<path id="XMLID_4049_" class="st23" d="M444.9,353.5c0-15.1-9-28.1-22-33.8c5.6-5.3,9.1-12.8,9.1-21.2c0-10.8-5.9-20.3-14.7-25.3
			c1.5-3.2,2.4-6.8,2.4-10.7c0-12.5-9.2-22.9-21.2-24.7l-0.9-34.1l-2.1-80.3c-1.4-53.9-45.5-96.8-99.4-96.8h-71.7
			c-2.5,0-5,0.1-7.5,0.3c-0.8,0.1-1.7,0.1-2.5,0.2c-48.7,4.8-87.3,44.9-89.5,94.6c0,0.6,0,1.2-0.1,1.7l-0.8,31.8l-0.7,26.2
			l-1.5,56.2v0c-0.2,0-0.3,0-0.5,0c-0.2,0-0.5,0-0.7,0c-0.5,0-0.9,0-1.4,0c-13.2,0.7-23.7,11.6-23.7,25c0,5.6,1.8,10.7,4.9,14.8
			c-5.6,5.3-9.1,12.8-9.1,21.2c0,8.3,3.5,15.8,9.1,21.2c-13,5.8-22,18.7-22,33.8c0,15,8.9,27.9,21.7,33.7c-1.5,4.7-2.3,9.6-2.3,14.8
			c0,21.4,13.9,39.6,33.2,46c0.2,0.1,0.4,0.2,0.7,0.2c4.6,1.5,9.5,2.3,14.7,2.3c0.4,0,0.8,0,1.2,0h0.1c0.7,0,1.4,0,2.1-0.1
			c0.3,0,0.6,0,0.9-0.1c1.1-0.1,2.3-0.2,3.4-0.4c1.1-0.2,2.1-0.4,3.1-0.6c0.1,0,0.2,0,0.3-0.1c0.4-0.1,0.7-0.2,1-0.3
			c0.4-0.1,0.8-0.2,1.1-0.3c0.6-0.2,1.2-0.3,1.8-0.5c1.7-0.5,3.3-1.2,4.9-1.9c1.4-0.6,2.8-1.3,4.1-2.1c2.5-1.4,4.8-3,6.9-4.8
			c9.4-7.8,15.8-19.2,17.2-32c0.2-1.6,0.3-3.1,0.3-4.7c0-0.2,0-0.3,0-0.5c0-0.1,0-0.3,0-0.5h134.9c0,0.2,0,0.3,0,0.5
			c0,0.2,0,0.4,0,0.5c0,1.4,0.1,2.8,0.2,4.2c1.5,15.5,10.2,28.8,22.8,36.5c7.4,4.6,16.1,7.2,25.5,7.2c4.8,0,9.4-0.7,13.8-2
			c20.1-5.9,34.7-24.5,34.7-46.5c0-5.3-0.9-10.4-2.5-15.2C436.4,380.7,444.9,368.1,444.9,353.5z"/>
		<path id="XMLID_1276_" class="st40" d="M269,347h-14.7c-11.8,0-21.4-9.6-21.4-21.4v-35.2c0-11.8,9.6-21.4,21.4-21.4H269
			c11.8,0,21.4,9.6,21.4,21.4v35.2C290.4,337.4,280.8,347,269,347z"/>
		<path id="XMLID_1275_" class="st41" d="M271.7,346.8c-1,0.1-2,0.2-3.1,0.2h-14.7c-11.8,0-21.4-9.6-21.4-21.4v-35.2
			c0-11.8,9.6-21.4,21.4-21.4h14.7c1,0,2.1,0.1,3.1,0.2c-10.3,1.5-18.3,10.4-18.3,21.2v35.2C253.4,336.4,261.3,345.3,271.7,346.8z"
			/>
		<path id="XMLID_1685_" class="st77" d="M351.2,502.3c0.5,0,0.9-0.1,1.4-0.2v0.4C352.2,502.5,351.7,502.4,351.2,502.3z"/>
		<path id="XMLID_1278_" class="st78" d="M224.3,26.5c-2.5,0-5,0.1-7.5,0.3c-0.8,0.1-1.7,0.1-2.5,0.2c-48.7,4.8-87.2,44.9-89.4,94.6
			c0,0.6,0,1.2-0.1,1.7l-0.9,31.8l-0.7,26.3l-1.5,56.1h-0.1c-0.2,0-0.3,0-0.5,0c-0.2,0-0.5,0-0.7,0c-0.5,0-0.9,0-1.4,0
			c-13.2,0.7-23.6,11.6-23.6,25c0,5.6,1.8,10.7,4.9,14.8c-5.6,5.3-9.1,12.8-9.1,21.2c0,8.3,3.5,15.8,9.1,21.2
			c-13,5.8-22,18.7-22,33.8c0,15,8.9,27.9,21.7,33.7c-1.5,4.7-2.3,9.6-2.3,14.8c0,21.4,13.9,39.6,33.1,46c0.2,0.1,0.4,0.2,0.7,0.2
			c4.6,1.5,9.6,2.3,14.7,2.3c0.4,0,0.7,0,1.1,0h0.1c0.7,0,1.4,0,2.1-0.1c0.3,0,0.6,0,0.9-0.1c1.1-0.1,2.3-0.2,3.4-0.4
			c1.1-0.2,2.1-0.4,3.1-0.6c0.1,0,0.2,0,0.3-0.1c0.4-0.1,0.7-0.2,1-0.3c0.4-0.1,0.8-0.2,1.1-0.3c0.6-0.2,1.2-0.3,1.8-0.5
			c1.7-0.5,3.3-1.2,4.9-1.9c1.4-0.6,2.8-1.3,4.1-2.1c2.5-1.4,4.8-3,7-4.8c0,0,0,0,0,0c-2.5-2.1-4.9-4.5-6.9-7.1
			c-4.2-5.2-7.3-11.4-9-18.1c-1-3.9-1.5-8-1.5-12.1c0-4.2,0.5-8.2,1.5-12.1c0.2-0.9,0.5-1.8,0.8-2.7c-0.3-0.1-0.5-0.2-0.8-0.4
			c-12.4-6-21-18.6-21-33.3c0-2.7,0.3-5.3,0.8-7.9c0.1-0.4,0.2-0.8,0.3-1.1c2.8-11.1,10.6-20.2,20.9-24.8
			c-5.6-5.3-9.1-12.8-9.1-21.2c0-8.3,3.5-15.8,9.1-21.2c-3.1-4.1-4.9-9.3-4.9-14.8c0-8,3.8-15.2,9.7-19.8c0,0,0,0,0.1,0
			c-0.2-0.5-0.5-1-0.7-1.5c-0.1-0.1-0.1-0.2-0.2-0.3c-0.3-0.6-0.6-1.2-0.8-1.9c0-0.1-0.1-0.2-0.1-0.3c-0.3-0.6-0.5-1.3-0.8-1.9
			c0-0.1-0.1-0.2-0.1-0.3c-0.3-0.7-0.5-1.3-0.8-2c0,0,0-0.1-0.1-0.1c-1.7-4.3-3-8.8-4.1-13.3c-0.9-4-1.6-8.1-2.1-12.2v0h-2.7
			c-0.5,0-0.9,0-1.4-0.1c-7.3-0.7-12.9-6.9-12.9-14.3v-13.8c0-7.5,5.7-13.6,12.9-14.3c0.5,0,0.9-0.1,1.4-0.1h2l30.1-56l1.7-3.1
			c0-0.1,0-0.1,0-0.2c8.9-45.9,49.3-80.4,97.6-80.4H224.3z"/>
		<path id="XMLID_1621_" class="st40" d="M351.2,502.3c0.5,0,0.9-0.1,1.4-0.2v0.4C352.2,502.5,351.7,502.4,351.2,502.3z"/>
		<path id="XMLID_1622_" class="st40" d="M391.9,373.7V473c-12.4,7.8-25.5,14.5-39.2,20.1c-17,7-35,12.1-53.6,15.3
			c-14,2.4-28.4,3.6-43.1,3.6c-2.6,0-5.3,0-7.9-0.1c-13.5-0.4-26.8-1.9-39.7-4.3c-11.5-2.2-22.6-5.1-33.5-8.7c-1.5-0.5-3-1-4.6-1.6
			c-3-1.1-6-2.2-9-3.4c-6.5-2.6-13-5.5-19.2-8.6c-3.5-1.8-7-3.6-10.5-5.5c-0.2-0.1-0.4-0.2-0.7-0.4V373.7c0-11.1,4-21.3,10.5-29.2
			c8.4-10.1,21.1-16.6,35.2-16.6h169.4C371.4,327.9,391.9,348.4,391.9,373.7z"/>
		<path id="XMLID_1321_" class="st41" d="M207.1,327.9c-1.8,0-3.5,0.1-5.2,0.3c-3.6,0.4-7.1,1.2-10.4,2.4
			c-17.6,6.4-30.1,23.2-30.1,43v120.2c-6.5-2.6-13-5.5-19.2-8.6c-3.5-1.8-7-3.6-10.5-5.5V373.7c0-10.6,3.6-20.3,9.6-28
			c8.4-10.8,21.5-17.7,36.2-17.7H207.1z"/>
		<path id="XMLID_1272_" class="st40" d="M205.3,285.3c-0.3-0.2-0.5-0.3-0.8-0.5C204.8,284.9,205.1,285.1,205.3,285.3z"/>
		<path id="XMLID_1271_" class="st40" d="M203.3,283.9c-0.3-0.2-0.5-0.3-0.8-0.5C202.7,283.6,203,283.8,203.3,283.9z"/>
		<path id="XMLID_1270_" class="st40" d="M207.4,286.6c-0.3-0.2-0.5-0.3-0.8-0.5C206.9,286.2,207.1,286.4,207.4,286.6z"/>
		<path id="XMLID_1269_" class="st40" d="M201.2,282.5c-0.2-0.2-0.5-0.3-0.7-0.5C200.7,282.2,201,282.4,201.2,282.5z"/>
		<path id="XMLID_1268_" class="st40" d="M211.7,289c-0.3-0.1-0.5-0.3-0.8-0.4C211.1,288.7,211.4,288.8,211.7,289z"/>
		<path id="XMLID_1267_" class="st40" d="M213.8,290.1c-0.3-0.1-0.5-0.3-0.8-0.4C213.3,289.9,213.6,290,213.8,290.1z"/>
		<path id="XMLID_1266_" class="st40" d="M209.5,287.8c-0.3-0.2-0.5-0.3-0.8-0.5C209,287.5,209.3,287.6,209.5,287.8z"/>
		<path id="XMLID_1265_" class="st40" d="M199.2,281.1c-0.2-0.2-0.4-0.3-0.7-0.5C198.7,280.8,199,280.9,199.2,281.1z"/>
		<path id="XMLID_1264_" class="st40" d="M216,291.2c-0.2-0.1-0.5-0.2-0.7-0.4C215.5,291,215.8,291.1,216,291.2z"/>
		<path id="XMLID_1263_" class="st40" d="M196.9,279.3c-0.2-0.1-0.4-0.3-0.6-0.4C196.5,279,196.7,279.2,196.9,279.3z"/>
		<path id="XMLID_1262_" class="st40" d="M187.6,271.2c-0.3-0.3-0.6-0.6-1-1C187,270.5,187.3,270.9,187.6,271.2z"/>
		<path id="XMLID_1261_" class="st40" d="M185.9,269.5c-0.3-0.3-0.6-0.7-1-1C185.3,268.8,185.6,269.1,185.9,269.5z"/>
		<path id="XMLID_1260_" class="st40" d="M184.3,267.7c-0.3-0.4-0.6-0.7-1-1.1C183.6,267,184,267.4,184.3,267.7z"/>
		<path id="XMLID_1259_" class="st40" d="M189.3,272.8c-0.3-0.3-0.6-0.6-1-0.9C188.7,272.2,189,272.5,189.3,272.8z"/>
		<path id="XMLID_1258_" class="st40" d="M191.1,274.5c-0.3-0.3-0.6-0.6-0.9-0.9C190.5,273.9,190.8,274.2,191.1,274.5z"/>
		<path id="XMLID_1257_" class="st40" d="M194.7,277.6c-0.3-0.2-0.6-0.5-0.8-0.7C194.2,277.2,194.5,277.4,194.7,277.6z"/>
		<path id="XMLID_1256_" class="st40" d="M192.9,276.1c-0.3-0.3-0.6-0.5-0.9-0.8C192.3,275.5,192.6,275.8,192.9,276.1z"/>
		<path id="XMLID_1255_" class="st40" d="M222.8,294.2c-0.1,0-0.2-0.1-0.3-0.1C222.6,294.1,222.7,294.1,222.8,294.2z"/>
		<path id="XMLID_1254_" class="st40" d="M250.5,300.9c-0.2,0-0.4,0-0.7-0.1C250.1,300.8,250.3,300.8,250.5,300.9z"/>
		<path id="XMLID_1253_" class="st40" d="M253.1,301.1c-0.2,0-0.4,0-0.6,0C252.7,301,252.9,301.1,253.1,301.1z"/>
		<path id="XMLID_1252_" class="st40" d="M248,300.6c-0.2,0-0.5-0.1-0.7-0.1C247.5,300.5,247.7,300.5,248,300.6z"/>
		<path id="XMLID_1251_" class="st40" d="M245.4,300.2c-0.2,0-0.5-0.1-0.7-0.1C245,300.1,245.2,300.2,245.4,300.2z"/>
		<path id="XMLID_1250_" class="st40" d="M255.7,301.2c-0.1,0-0.2,0-0.3,0C255.5,301.2,255.6,301.2,255.7,301.2z"/>
		<path id="XMLID_1249_" class="st40" d="M279.3,299.8c-1.3,0.2-2.7,0.4-4,0.6C276.6,300.2,278,300,279.3,299.8z"/>
		<path id="XMLID_1248_" class="st40" d="M274.7,300.5c-1.3,0.2-2.7,0.3-4,0.5C272,300.8,273.3,300.7,274.7,300.5z"/>
		<path id="XMLID_1247_" class="st40" d="M265.4,301.3c-1.4,0.1-2.7,0.1-4.1,0.1C262.6,301.4,264,301.3,265.4,301.3z"/>
		<path id="XMLID_1246_" class="st40" d="M270,301c-1.4,0.1-2.7,0.2-4.1,0.3C267.3,301.2,268.6,301.1,270,301z"/>
		<path id="XMLID_1245_" class="st40" d="M235.4,298.2c-0.2-0.1-0.4-0.1-0.6-0.2C235,298.1,235.2,298.1,235.4,298.2z"/>
		<path id="XMLID_1244_" class="st40" d="M230.1,296.7c-0.1,0-0.1,0-0.2-0.1C230,296.7,230.1,296.7,230.1,296.7z"/>
		<path id="XMLID_1243_" class="st40" d="M182.7,266c-0.3-0.4-0.7-0.7-1-1.1C182,265.2,182.4,265.6,182.7,266z"/>
		<path id="XMLID_1242_" class="st40" d="M232.8,297.5c-0.2,0-0.3-0.1-0.5-0.1C232.5,297.4,232.7,297.5,232.8,297.5z"/>
		<path id="XMLID_1241_" class="st40" d="M220.5,293.2c-0.2-0.1-0.4-0.2-0.5-0.2C220.1,293.1,220.3,293.1,220.5,293.2z"/>
		<path id="XMLID_1240_" class="st40" d="M237.9,298.8c-0.2-0.1-0.5-0.1-0.7-0.2C237.4,298.7,237.7,298.7,237.9,298.8z"/>
		<path id="XMLID_1239_" class="st40" d="M218.3,292.2c-0.2-0.1-0.4-0.2-0.7-0.3C217.8,292,218,292.1,218.3,292.2z"/>
		<path id="XMLID_1238_" class="st40" d="M240.4,299.3c-0.2,0-0.5-0.1-0.7-0.1C239.9,299.2,240.2,299.3,240.4,299.3z"/>
		<path id="XMLID_1237_" class="st40" d="M242.9,299.8c-0.2,0-0.5-0.1-0.7-0.1C242.4,299.7,242.7,299.8,242.9,299.8z"/>
		<path id="XMLID_1236_" class="st40" d="M164.4,236.5c-0.3-0.7-0.5-1.3-0.8-2C163.9,235.2,164.2,235.9,164.4,236.5z"/>
		<path id="XMLID_1235_" class="st40" d="M177,258.9c-2.7-3.6-5.1-7.5-7.3-11.5C171.8,251.4,174.3,255.2,177,258.9z"/>
		<path id="XMLID_1234_" class="st40" d="M163.6,234.4c-3.1-8.1-5.2-16.6-6.2-25.5C158.4,217.7,160.5,226.3,163.6,234.4z"/>
		<path id="XMLID_1233_" class="st40" d="M167.3,243c-0.3-0.6-0.6-1.2-0.9-1.8C166.8,241.8,167,242.4,167.3,243z"/>
		<path id="XMLID_1232_" class="st40" d="M166.3,240.9c-0.3-0.6-0.6-1.2-0.8-1.9C165.8,239.6,166,240.3,166.3,240.9z"/>
		<path id="XMLID_1231_" class="st40" d="M168.4,245.2c-0.3-0.6-0.6-1.2-0.9-1.8C167.8,244,168.1,244.6,168.4,245.2z"/>
		<path id="XMLID_1230_" class="st40" d="M169.6,247.3c-0.3-0.6-0.7-1.2-1-1.8C168.9,246.1,169.2,246.7,169.6,247.3z"/>
		<path id="XMLID_1229_" class="st40" d="M178.3,260.6c-0.4-0.5-0.7-1-1.1-1.4C177.5,259.6,177.9,260.1,178.3,260.6z"/>
		<path id="XMLID_1228_" class="st40" d="M179.7,262.4c-0.3-0.4-0.7-0.9-1-1.3C179,261.5,179.3,262,179.7,262.4z"/>
		<path id="XMLID_1227_" class="st40" d="M367.7,166.2h-2.4c-34.1-3-70.9-36.7-87.3-53.4c-3-3.1-8.1-0.1-7,4c1.1,4.1,2.5,7.9,4,11.2
			c2.4,5.3-2.2,11.2-7.9,10c-27.9-6-47.5-28.4-57.6-42.9c-9.9,15.9-15.6,34.7-15.6,54.8v47.1c0,51.2,37,93.9,85.7,102.6
			c45-8.1,79.9-45,85-90.9h3.1c8,0,14.4-6.5,14.4-14.4v-13.8C382.1,172.6,375.7,166.2,367.7,166.2z"/>
		<path id="XMLID_1226_" class="st40" d="M165.3,238.7c-0.3-0.6-0.5-1.3-0.8-1.9C164.8,237.4,165.1,238.1,165.3,238.7z"/>
		<path id="XMLID_1225_" class="st40" d="M181.2,264.2c-0.3-0.4-0.7-0.8-1-1.2C180.5,263.4,180.8,263.8,181.2,264.2z"/>
		<path id="XMLID_1224_" class="st41" d="M181.7,264.8c-0.2-0.2-0.4-0.4-0.6-0.7C181.3,264.4,181.5,264.6,181.7,264.8z"/>
		<path id="XMLID_1222_" class="st41" d="M217.6,291.9c-0.5-0.2-1-0.5-1.6-0.7C216.5,291.5,217.1,291.7,217.6,291.9z"/>
		<path id="XMLID_1221_" class="st41" d="M234.8,298c-0.7-0.2-1.3-0.3-1.9-0.5C233.5,297.7,234.1,297.9,234.8,298z"/>
		<path id="XMLID_1220_" class="st41" d="M163.6,234.5c0-0.1,0-0.1-0.1-0.2C163.6,234.4,163.6,234.5,163.6,234.5z"/>
		<path id="XMLID_1219_" class="st41" d="M215.3,290.8c-0.5-0.2-1-0.5-1.5-0.7C214.3,290.4,214.8,290.6,215.3,290.8z"/>
		<path id="XMLID_1218_" class="st41" d="M164.5,236.8c0-0.1-0.1-0.2-0.1-0.3C164.5,236.6,164.5,236.7,164.5,236.8z"/>
		<path id="XMLID_1217_" class="st41" d="M222.5,294c-0.7-0.3-1.3-0.5-2-0.8C221.2,293.5,221.8,293.8,222.5,294z"/>
		<path id="XMLID_1216_" class="st41" d="M230,296.7c-2.4-0.8-4.8-1.6-7.2-2.5C225.1,295.1,227.5,295.9,230,296.7z"/>
		<path id="XMLID_1215_" class="st41" d="M220,293c-0.6-0.2-1.1-0.5-1.7-0.7C218.8,292.5,219.4,292.7,220,293z"/>
		<path id="XMLID_1214_" class="st41" d="M237.2,298.6c-0.6-0.1-1.2-0.3-1.8-0.4C236,298.4,236.6,298.5,237.2,298.6z"/>
		<path id="XMLID_1213_" class="st41" d="M270.6,300.9c-0.2,0-0.4,0-0.6,0.1C270.2,301,270.4,300.9,270.6,300.9z"/>
		<path id="XMLID_1212_" class="st41" d="M261,301.4c-1.8,0-3.6,0-5.3-0.1C257.4,301.3,259.2,301.4,261,301.4c0.1,0,0.2,0,0.2,0
			C261.2,301.4,261.1,301.4,261,301.4L261,301.4z"/>
		<path id="XMLID_1211_" class="st41" d="M265.9,301.3c-0.2,0-0.4,0-0.5,0C265.5,301.3,265.7,301.3,265.9,301.3z"/>
		<path id="XMLID_1210_" class="st41" d="M279.6,299.7C279.6,299.7,279.6,299.7,279.6,299.7c-0.1,0-0.2,0-0.3,0.1
			C279.4,299.7,279.5,299.7,279.6,299.7z"/>
		<path id="XMLID_1209_" class="st41" d="M239.7,299.2c-0.6-0.1-1.2-0.3-1.8-0.4C238.5,298.9,239.1,299.1,239.7,299.2z"/>
		<path id="XMLID_1208_" class="st41" d="M275.3,300.4c-0.2,0-0.4,0.1-0.6,0.1C274.9,300.4,275.1,300.4,275.3,300.4z"/>
		<path id="XMLID_1207_" class="st41" d="M244.7,300.1c-0.6-0.1-1.2-0.2-1.8-0.3C243.5,299.9,244.1,300,244.7,300.1z"/>
		<path id="XMLID_1206_" class="st41" d="M242.2,299.7c-0.6-0.1-1.2-0.2-1.8-0.3C241,299.5,241.6,299.6,242.2,299.7z"/>
		<path id="XMLID_1205_" class="st41" d="M247.3,300.5c-0.6-0.1-1.2-0.2-1.8-0.3C246.1,300.3,246.7,300.4,247.3,300.5z"/>
		<path id="XMLID_1204_" class="st41" d="M252.5,301c-0.7-0.1-1.3-0.1-2-0.2C251.2,300.9,251.9,301,252.5,301z"/>
		<path id="XMLID_1203_" class="st41" d="M249.9,300.8c-0.6-0.1-1.3-0.1-1.9-0.2C248.6,300.6,249.2,300.7,249.9,300.8z"/>
		<path id="XMLID_1202_" class="st41" d="M255.3,301.2c-0.7,0-1.5-0.1-2.2-0.1C253.9,301.1,254.6,301.2,255.3,301.2z"/>
		<path id="XMLID_1201_" class="st41" d="M232.3,297.4c-0.7-0.2-1.5-0.4-2.2-0.7C230.9,297,231.6,297.2,232.3,297.4z"/>
		<path id="XMLID_1199_" class="st41" d="M192,275.3c-0.3-0.3-0.6-0.5-0.9-0.8C191.4,274.7,191.7,275,192,275.3z"/>
		<path id="XMLID_1198_" class="st41" d="M193.9,276.9c-0.3-0.3-0.7-0.6-1-0.9C193.2,276.4,193.6,276.6,193.9,276.9z"/>
		<path id="XMLID_1194_" class="st41" d="M177.2,259.2c-0.1-0.1-0.1-0.2-0.2-0.3C177.1,259,177.1,259.1,177.2,259.2z"/>
		<path id="XMLID_1193_" class="st41" d="M190.1,273.6c-0.3-0.3-0.5-0.5-0.8-0.8C189.6,273.1,189.9,273.4,190.1,273.6z"/>
		<path id="XMLID_1192_" class="st41" d="M198.5,280.6c-0.6-0.4-1.1-0.8-1.7-1.3C197.4,279.8,198,280.2,198.5,280.6z"/>
		<path id="XMLID_1191_" class="st41" d="M196.3,278.9c-0.5-0.4-1-0.8-1.6-1.3C195.2,278,195.8,278.5,196.3,278.9z"/>
		<path id="XMLID_1190_" class="st41" d="M169.6,247.4c0-0.1-0.1-0.1-0.1-0.2C169.6,247.3,169.6,247.4,169.6,247.4z"/>
		<path id="XMLID_1189_" class="st41" d="M186.6,270.2c-0.2-0.2-0.5-0.5-0.7-0.7C186.2,269.7,186.4,270,186.6,270.2z"/>
		<path id="XMLID_1188_" class="st41" d="M188.4,271.9c-0.3-0.2-0.5-0.5-0.8-0.7C187.9,271.4,188.1,271.7,188.4,271.9z"/>
		<path id="XMLID_1187_" class="st41" d="M180.2,263c-0.2-0.2-0.3-0.4-0.5-0.6C179.8,262.6,180,262.8,180.2,263z"/>
		<path id="XMLID_1186_" class="st41" d="M183.3,266.7c-0.2-0.2-0.4-0.5-0.6-0.7C182.9,266.2,183.1,266.4,183.3,266.7z"/>
		<path id="XMLID_1185_" class="st41" d="M185,268.5c-0.2-0.2-0.4-0.5-0.7-0.7C184.5,268,184.7,268.2,185,268.5z"/>
		<path id="XMLID_1184_" class="st41" d="M178.7,261.1c-0.1-0.2-0.2-0.3-0.4-0.5C178.4,260.8,178.5,260.9,178.7,261.1z"/>
		<path id="XMLID_1183_" class="st41" d="M213.1,289.7c-0.5-0.2-0.9-0.5-1.4-0.7C212.1,289.2,212.6,289.5,213.1,289.7z"/>
		<path id="XMLID_1182_" class="st41" d="M168.6,245.4c0-0.1-0.1-0.2-0.1-0.3C168.5,245.3,168.5,245.3,168.6,245.4z"/>
		<path id="XMLID_1181_" class="st41" d="M166.5,241.2c-0.1-0.1-0.1-0.2-0.2-0.3C166.4,241,166.4,241.1,166.5,241.2z"/>
		<path id="XMLID_1180_" class="st41" d="M202.5,283.4c-0.4-0.3-0.8-0.6-1.3-0.9C201.6,282.8,202.1,283.1,202.5,283.4z"/>
		<path id="XMLID_1179_" class="st41" d="M206.6,286.1c-0.4-0.3-0.9-0.5-1.3-0.8C205.7,285.5,206.2,285.8,206.6,286.1z"/>
		<path id="XMLID_1178_" class="st41" d="M204.5,284.8c-0.4-0.3-0.8-0.6-1.3-0.8C203.7,284.2,204.1,284.5,204.5,284.8z"/>
		<path id="XMLID_1177_" class="st41" d="M167.5,243.3c-0.1-0.1-0.1-0.2-0.2-0.3C167.4,243.1,167.4,243.2,167.5,243.3z"/>
		<path id="XMLID_1176_" class="st41" d="M208.7,287.3c-0.4-0.3-0.9-0.5-1.3-0.8C207.8,286.8,208.3,287.1,208.7,287.3z"/>
		<path id="XMLID_1175_" class="st41" d="M165.5,239c0-0.1-0.1-0.2-0.1-0.3C165.4,238.8,165.4,238.9,165.5,239z"/>
		<path id="XMLID_1173_" class="st41" d="M200.5,282c-0.4-0.3-0.9-0.6-1.3-1C199.6,281.4,200,281.7,200.5,282z"/>
		<path id="XMLID_1172_" class="st41" d="M210.9,288.6c-0.5-0.2-0.9-0.5-1.3-0.8C210,288.1,210.4,288.3,210.9,288.6z"/>
		<path id="XMLID_1171_" class="st41" d="M193.9,197.1v-47.1c0-20.1,5.7-38.9,15.6-54.8c0,0,0,0-0.1-0.1c-3.8-5.4-11.9-4.9-15,0.9
			l-37.7,70.2h-2c-8,0-14.4,6.5-14.4,14.4v13.8c0,8,6.5,14.4,14.4,14.4h2.6c0,0,0,0,0,0c1,8.9,3.1,17.5,6.2,25.5
			c0,0.1,0,0.1,0.1,0.2c0.3,0.7,0.5,1.3,0.8,2c0,0.1,0.1,0.2,0.1,0.3c0.3,0.6,0.5,1.3,0.8,1.9c0,0.1,0.1,0.2,0.1,0.3
			c0.3,0.6,0.6,1.2,0.8,1.9c0.1,0.1,0.1,0.2,0.2,0.3c0.3,0.6,0.6,1.2,0.9,1.8c0.1,0.1,0.1,0.2,0.2,0.3c0.3,0.6,0.6,1.2,0.9,1.8
			c0,0.1,0.1,0.2,0.1,0.3c0.3,0.6,0.7,1.2,1,1.8c0,0.1,0.1,0.1,0.1,0.2c2.2,4,4.7,7.8,7.3,11.5c0.1,0.1,0.1,0.2,0.2,0.3
			c0.4,0.5,0.7,1,1.1,1.4c0.1,0.2,0.2,0.3,0.4,0.5c0.3,0.4,0.7,0.9,1,1.3c0.2,0.2,0.3,0.4,0.5,0.6c0.3,0.4,0.7,0.8,1,1.2
			c0.2,0.2,0.4,0.4,0.6,0.7c0.3,0.4,0.7,0.8,1,1.1c0.2,0.2,0.4,0.5,0.6,0.7c0.3,0.4,0.6,0.7,1,1.1c0.2,0.2,0.4,0.5,0.7,0.7
			c0.3,0.3,0.6,0.7,1,1c0.2,0.2,0.5,0.5,0.7,0.7c0.3,0.3,0.6,0.6,1,1c0.3,0.3,0.5,0.5,0.8,0.7c0.3,0.3,0.6,0.6,1,0.9
			c0.3,0.3,0.5,0.5,0.8,0.8c0.3,0.3,0.6,0.6,0.9,0.9c0.3,0.3,0.6,0.5,0.9,0.8c0.3,0.3,0.6,0.5,0.9,0.8c0.3,0.3,0.7,0.6,1,0.9
			c0.3,0.2,0.6,0.5,0.8,0.7c0.5,0.4,1,0.8,1.6,1.3c0.2,0.2,0.4,0.3,0.6,0.4c0.5,0.4,1.1,0.9,1.7,1.3c0.2,0.2,0.4,0.3,0.7,0.5
			c0.4,0.3,0.9,0.6,1.3,1c0.2,0.2,0.5,0.3,0.7,0.5c0.4,0.3,0.8,0.6,1.3,0.9c0.3,0.2,0.5,0.3,0.8,0.5c0.4,0.3,0.8,0.6,1.3,0.8
			c0.3,0.2,0.5,0.3,0.8,0.5c0.4,0.3,0.9,0.5,1.3,0.8c0.3,0.2,0.5,0.3,0.8,0.5c0.4,0.3,0.9,0.5,1.3,0.8c0.3,0.2,0.5,0.3,0.8,0.5
			c0.4,0.3,0.9,0.5,1.3,0.8c0.3,0.1,0.5,0.3,0.8,0.4c0.5,0.2,0.9,0.5,1.4,0.7c0.3,0.1,0.5,0.3,0.8,0.4c0.5,0.2,1,0.5,1.5,0.7
			c0.2,0.1,0.5,0.2,0.7,0.4c0.5,0.2,1,0.5,1.6,0.7c0.2,0.1,0.4,0.2,0.7,0.3c0.6,0.3,1.1,0.5,1.7,0.7c0.2,0.1,0.4,0.2,0.5,0.2
			c0.7,0.3,1.3,0.6,2,0.8c0.1,0,0.2,0.1,0.3,0.1c2.3,0.9,4.7,1.8,7.2,2.5c0.1,0,0.1,0,0.2,0.1c0.7,0.2,1.5,0.4,2.2,0.7
			c0.2,0,0.3,0.1,0.5,0.1c0.6,0.2,1.3,0.4,1.9,0.5c0.2,0.1,0.4,0.1,0.6,0.2c0.6,0.2,1.2,0.3,1.8,0.4c0.2,0.1,0.5,0.1,0.7,0.2
			c0.6,0.1,1.2,0.3,1.8,0.4c0.2,0,0.5,0.1,0.7,0.1c0.6,0.1,1.2,0.2,1.8,0.3c0.2,0,0.5,0.1,0.7,0.1c0.6,0.1,1.2,0.2,1.8,0.3
			c0.2,0,0.5,0.1,0.7,0.1c0.6,0.1,1.2,0.2,1.8,0.3c0.2,0,0.5,0.1,0.7,0.1c0.6,0.1,1.3,0.1,1.9,0.2c0.2,0,0.4,0,0.7,0.1
			c0.7,0.1,1.3,0.1,2,0.2c0.2,0,0.4,0,0.6,0c0.7,0.1,1.5,0.1,2.2,0.1c0.1,0,0.2,0,0.3,0c1.8,0.1,3.5,0.1,5.3,0.1h0
			c0.1,0,0.2,0,0.2,0c1.4,0,2.8,0,4.1-0.1c0.2,0,0.4,0,0.5,0c1.4-0.1,2.7-0.2,4.1-0.3c0.2,0,0.4,0,0.6-0.1c1.3-0.1,2.7-0.3,4-0.5
			c0.2,0,0.4-0.1,0.6-0.1c1.3-0.2,2.7-0.4,4-0.6c0.1,0,0.2,0,0.3-0.1C230.9,290.9,193.9,248.3,193.9,197.1z"/>
		<path id="XMLID_1506_" class="st26" d="M352.7,416.1v77c-17,7-35,12.1-53.6,15.3c-14,2.4-28.4,3.6-43.1,3.6c-2.6,0-5.3,0-7.9-0.1
			c-13.5-0.4-26.8-1.9-39.7-4.3c-11.5-2.2-22.6-5.1-33.5-8.7c-1.5-0.5-3-1-4.6-1.6v-81.2c0-7.5,6.1-13.6,13.6-13.6h41.3c0,0,0,0,0,0
			h79.3c0,0,0,0,0,0h34.5C346.6,402.5,352.7,408.6,352.7,416.1z"/>
		<path id="XMLID_1507_" class="st26" d="M351.2,502.3c0.5,0,0.9-0.1,1.4-0.2v0.4C352.2,502.5,351.7,502.4,351.2,502.3z"/>
		<path id="XMLID_1331_" class="st35" d="M222,402.5c-1.3,0-2.6,0.2-3.8,0.5c-2,0.6-3.8,1.6-5.3,3c0,0,0,0,0,0c-1.1,1-2,2.2-2.8,3.5
			c0,0,0,0,0,0c-0.6,1-1,2.1-1.3,3.3c-0.1,0.2-0.1,0.5-0.1,0.7c-0.2,0.8-0.2,1.7-0.2,2.6v91.5c-11.5-2.2-22.6-5.1-33.5-8.7
			c-1.5-0.5-3-1-4.6-1.6v-81.2c0-7.5,6.1-13.6,13.6-13.6H222z"/>
		<path id="XMLID_1165_" class="st16" d="M252.9,480c-2-3.7-6.4-5.3-10.2-3.9c-0.4,0.1-0.7,0.3-1.1,0.5c0,0,0,0,0,0
			c-3.2-2.2-6.9-2.9-9.8-1.4c-3,1.6-8.4,7.2-11.3,12.8c2.9-6.1,3.6-15.2,2.8-18.8c-0.8-3.2-3.7-5.4-7.5-6.3c0,0,0,0,0,0
			c-0.9-3.5-3.9-6-7.3-6.3c-0.9-0.1-1.9,0-2.8,0.2c-4.5,1.1-7.2,5.7-6.1,10.2c0,0,0,0,0,0c-3,2.6-4.5,6-3.7,9.1
			c0.9,3.5,5.5,10.7,10.7,14.8c-5.2-3.4-12.1-5.5-15.3-5.5c-3.3,0-6.2,2.3-8,5.8c0,0,0,0,0,0c-4.4,0-8,3.4-8.3,7.8
			c10.9,3.6,22.1,6.5,33.5,8.7c12.9,2.4,26.2,3.9,39.7,4.3c-0.3-3-1.6-5.6-3.9-7c-1.6-1-4.8-2-8.4-2.6c3.9-0.4,7.5-1.2,9.2-2.2
			c2.9-1.5,4.4-4.9,4.4-8.8c0,0,0,0,0,0c2.1-1.1,3.5-3,4.1-5.1c0,0,0,0,0,0C254.1,484.2,254,482,252.9,480z M220,489.1
			C220,489.1,220,489.1,220,489.1c0.1-0.3,0.3-0.6,0.4-0.9C220.2,488.5,220.1,488.8,220,489.1z"/>
		<path id="XMLID_1164_" class="st16" d="M290.5,435.9c-2.4,4-7.5,5.2-11.5,2.9c0,0,0,0,0,0c-3.4,2.1-7,2.5-9.8,0.8
			c-2.2-1.3-5.6-5-8.3-9.2c-0.4,5-1.7,9.8-3,12c-1.7,2.8-5.1,4.1-9,3.9c0,0,0,0,0,0c-2.4,4-7.5,5.2-11.5,2.9
			c-4-2.4-5.2-7.5-2.9-11.5c0,0,0,0,0,0c-2.1-3.3-2.5-7-0.8-9.8c1-1.6,3.3-4,6.2-6.2c-3.6,1.5-7,2.4-9,2.4c-3.3,0-6.2-2.2-8-5.7
			c0,0,0,0,0,0c-4.6,0-8.4-3.7-8.4-8.3c0-3.3,1.9-6.2,4.8-7.6h69.8c-0.1,3.7-1.6,6.7-4.4,8.2c-1.8,1-5.3,1.8-9.2,2.2
			c3.6,0.6,6.8,1.6,8.4,2.6c2.8,1.7,4.1,5.1,3.9,9c0,0,0,0,0,0C291.6,426.8,292.9,432,290.5,435.9z"/>
		<path id="XMLID_1307_" class="st16" d="M352.7,474.5v18.6c-17,7-35,12.1-53.6,15.3c-0.1-0.2-0.2-0.3-0.3-0.5c0,0,0,0,0,0
			c-4.6,0-8.4-3.7-8.4-8.3c0-4.6,3.7-8.4,8.3-8.4c0,0,0,0,0,0c1.8-3.5,4.7-5.8,8-5.8c3.2,0,10.2,2.1,15.3,5.5
			c-5.2-4.1-9.8-11.3-10.7-14.8c-0.8-3.2,0.7-6.5,3.6-9.1c0,0,0,0,0,0c-1.1-4.5,1.6-9,6.1-10.2c4.5-1.1,9,1.6,10.2,6.1c0,0,0,0,0,0
			c3.8,0.9,6.7,3.2,7.5,6.3c1,3.8,0.1,13.9-3.3,19.9c0,0,0,0,0.1,0c2.7-6,8.7-12.3,11.9-14C348.9,474.3,350.8,474.1,352.7,474.5z"/>
		<path id="XMLID_1162_" class="st41" d="M267.6,213.4h-12.9c-4.3,0-7.7-3.4-7.7-7.7v0c0-4.3,3.4-7.7,7.7-7.7h12.9
			c4.3,0,7.7,3.4,7.7,7.7v0C275.3,209.9,271.8,213.4,267.6,213.4z"/>
		<path id="XMLID_1161_" class="st36" d="M289.4,231c1.5,0,2.7,1.2,2.7,2.7v0c0,2.8-0.4,5.5-1.1,8.1c-1.6,6-5,11.3-9.6,15.3
			c-5.4,4.7-12.6,7.6-20.3,7.6s-14.9-2.9-20.3-7.6c-4.6-4-8-9.2-9.6-15.3c-0.7-2.6-1.1-5.3-1.1-8.1v0c0-1.5,1.2-2.7,2.7-2.7H289.4z"
			/>
		<path id="XMLID_1160_" class="st26" d="M281.5,257.1c-5.4,4.7-12.6,7.6-20.3,7.6s-14.9-2.9-20.3-7.6c5.4-4.8,12.6-7.6,20.3-7.6
			S276,252.3,281.5,257.1z"/>
		<path id="XMLID_1159_" class="st16" d="M289.4,231c1.5,0,2.7,1.2,2.7,2.7v0c0,2.8-0.4,5.5-1.1,8.1h-59.8c-0.7-2.6-1.1-5.3-1.1-8.1
			v0c0-1.5,1.2-2.7,2.7-2.7H289.4z"/>
		<path id="XMLID_1158_" class="st79" d="M321.2,179.7c0-6.9-5.6-12.5-12.5-12.5s-12.5,5.6-12.5,12.5"/>
		<path id="XMLID_1156_" class="st79" d="M226.9,179.7c0-6.9-5.6-12.5-12.5-12.5s-12.5,5.6-12.5,12.5"/>
		<g id="XMLID_1147_">
			<path id="XMLID_1155_" class="st35" d="M197.7,115.2c-2.6-4.8-8.6-6.7-13.4-4.1c0,0,0,0,0,0c-3.8-2.7-8.1-3.4-11.6-1.6
				c-5.7,3-19.2,18.7-14.9,26.8c1.4,2.7,4.5,4.2,8.3,5c-4.2,0.5-7.7,1.9-9.4,4.6c-0.2,0.3-0.3,0.5-0.4,0.8c-0.2-0.2-0.5-0.4-0.7-0.5
				c-2.7-1.6-6.4-1.2-10.3,0.3c2.9-2.5,4.9-5.3,4.9-8.3c0-3.2-2.3-6.2-5.6-8.7c2.7,1.7,5.4,2.5,7.9,1.9c9-2.3,11.6-22.7,10-29
				c-0.9-3.8-4.4-6.5-8.9-7.5c0,0,0,0,0,0c-1.3-5.3-6.7-8.6-12-7.2c-5.3,1.3-8.6,6.7-7.2,12c0,0,0,0,0,0c-3.5,3.1-5.3,7.1-4.3,10.9
				c1,4.1,6.5,12.7,12.7,17.6c-6.1-4-14.4-6.6-18.2-6.6c-3.9,0-7.3,2.7-9.5,6.9c0,0,0,0,0,0c-5.5,0-9.9,4.5-9.9,10
				c0,5.5,4.5,9.9,10,9.9c0,0,0,0,0,0c2.2,4.1,5.6,6.8,9.5,6.8c2.4,0,6.5-1,10.7-2.8c-3.4,2.6-6.2,5.4-7.3,7.4
				c-2,3.3-1.5,7.7,1,11.7c0,0,0,0,0,0c-2.8,4.7-1.3,10.8,3.4,13.6c4.7,2.8,10.8,1.3,13.6-3.4c0,0,0,0,0,0c4.7,0.3,8.7-1.3,10.7-4.6
				c1.5-2.6,3.1-8.3,3.6-14.2c3.2,5,7.3,9.3,9.9,10.9c3.3,2,7.7,1.5,11.7-1c0,0,0,0,0,0c4.7,2.8,10.8,1.3,13.6-3.4
				c2.8-4.7,1.3-10.8-3.4-13.6c0,0,0,0,0,0c0.3-4.7-1.3-8.7-4.6-10.7c-2-1.2-5.7-2.4-10-3.1c4.6-0.4,8.8-1.5,11-2.6
				c3.4-1.8,5.2-5.8,5.2-10.5c0,0,0,0,0,0C198.4,126.1,200.3,120.1,197.7,115.2z"/>
			<circle id="XMLID_1154_" class="st0" cx="154.3" cy="138.8" r="13.4"/>
			<path id="XMLID_1153_" class="st60" d="M161.6,150c-1.2,0.8-2.5,1.4-4,1.7c-7.2,1.8-14.5-2.6-16.3-9.8
				c-1.8-7.2,2.6-14.5,9.7-16.3c1.5-0.4,2.9-0.5,4.4-0.4c-4.7,3-7.2,8.8-5.7,14.5C151.1,145.6,156,149.6,161.6,150z"/>
		</g>
		<g id="XMLID_1142_">
			<path id="XMLID_1144_" class="st15" d="M183.3,363.8c0,2.2-2,4.7-1.4,6.7c0.7,2.1,3.8,2.9,5.1,4.6c1.3,1.7,1.1,5,2.8,6.2
				c1.7,1.2,4.7,0.1,6.8,0.7c2,0.6,3.7,3.4,5.9,3.4c2.2,0,3.9-2.7,5.9-3.4c2.1-0.7,5.1,0.5,6.8-0.7c1.7-1.3,1.5-4.5,2.8-6.2
				c1.2-1.7,4.4-2.5,5.1-4.6c0.6-2-1.4-4.5-1.4-6.7c0-2.2,2-4.7,1.4-6.7c-0.7-2.1-3.8-2.9-5.1-4.6c-1.3-1.7-1.1-5-2.8-6.2
				c-1.7-1.2-4.7-0.1-6.8-0.7c-2-0.6-3.7-3.4-5.9-3.4s-3.9,2.7-5.9,3.4c-2.1,0.7-5.1-0.5-6.8,0.7c-1.7,1.3-1.5,4.5-2.8,6.2
				c-1.2,1.7-4.4,2.5-5.1,4.6C181.2,359.1,183.3,361.6,183.3,363.8z"/>
			<path id="XMLID_1143_" class="st80" d="M207.8,382.1c0.1,0,0.2,0.1,0.3,0.1c-1.9,0.8-3.5,3.3-5.6,3.3c-2.2,0-3.9-2.7-5.9-3.4
				c-2.1-0.7-5.1,0.5-6.8-0.7c-1.7-1.3-1.5-4.5-2.8-6.2c-1.2-1.7-4.4-2.5-5.1-4.6c-0.6-2,1.4-4.5,1.4-6.7c0-2.2-2-4.7-1.4-6.7
				c0.7-2.1,3.8-2.9,5.1-4.6c1.3-1.7,1.1-5,2.8-6.2c1.7-1.2,4.7-0.1,6.8-0.7c2-0.6,3.7-3.4,5.9-3.4c2.1,0,3.8,2.4,5.6,3.3
				c-0.1,0.1-0.2,0.1-0.3,0.1c-2.1,0.7-5.1-0.5-6.8,0.7c-1.7,1.3-1.5,4.5-2.8,6.2c-1.2,1.7-4.4,2.5-5.1,4.6c-0.6,2,1.4,4.5,1.4,6.7
				c0,2.2-2,4.7-1.4,6.7c0.7,2.1,3.8,2.9,5.1,4.6c1.3,1.7,1.1,5,2.8,6.2C202.7,382.6,205.7,381.4,207.8,382.1z"/>
		</g>
		<g id="XMLID_1136_">
			<path id="XMLID_1139_" class="st26" d="M192.1,333.2c0,2.2-2,4.7-1.4,6.7c0.7,2.1,3.8,2.9,5.1,4.6c1.3,1.7,1.1,5,2.8,6.2
				c1.7,1.2,4.7,0.1,6.8,0.7c2,0.6,3.7,3.4,5.9,3.4s3.9-2.7,5.9-3.4c2.1-0.7,5.1,0.5,6.8-0.7c1.7-1.3,1.5-4.5,2.8-6.2
				c1.2-1.7,4.4-2.5,5.1-4.6c0.6-2-1.4-4.5-1.4-6.7c0-2.2,2-4.7,1.4-6.7c-0.7-2.1-3.8-2.9-5.1-4.6c-1.3-1.7-1.1-5-2.8-6.2
				c-1.7-1.2-4.7-0.1-6.8-0.7c-2-0.6-3.7-3.4-5.9-3.4s-3.9,2.7-5.9,3.4c-2.1,0.7-5.1-0.5-6.8,0.7c-1.7,1.3-1.5,4.5-2.8,6.2
				c-1.2,1.7-4.4,2.5-5.1,4.6C190,328.5,192.1,331,192.1,333.2z"/>
			<path id="XMLID_1137_" class="st35" d="M216.5,351.4c0.1,0,0.2,0.1,0.3,0.1c-1.9,0.8-3.5,3.3-5.6,3.3c-2.2,0-3.9-2.7-5.9-3.4
				c-2.1-0.7-5.1,0.5-6.8-0.7c-1.7-1.3-1.5-4.5-2.8-6.2c-1.2-1.7-4.4-2.5-5.1-4.6c-0.6-2,1.4-4.5,1.4-6.7s-2-4.7-1.4-6.7
				c0.7-2.1,3.8-2.9,5.1-4.6c1.3-1.7,1.1-5,2.8-6.2c1.7-1.2,4.7-0.1,6.8-0.7c2-0.6,3.7-3.4,5.9-3.4c2.1,0,3.8,2.4,5.6,3.3
				c-0.1,0.1-0.2,0.1-0.3,0.1c-2.1,0.7-5.1-0.5-6.8,0.7c-1.7,1.3-1.5,4.5-2.8,6.2c-1.2,1.7-4.4,2.5-5.1,4.6c-0.6,2,1.4,4.5,1.4,6.7
				s-2,4.7-1.4,6.7c0.7,2.1,3.8,2.9,5.1,4.6c1.3,1.7,1.1,5,2.8,6.2C211.5,351.9,214.5,350.8,216.5,351.4z"/>
		</g>
		<g id="XMLID_1130_">
			<path id="XMLID_1132_" class="st26" d="M289.5,333.2c0,2.2-2,4.7-1.4,6.7c0.7,2.1,3.8,2.9,5.1,4.6c1.3,1.7,1.1,5,2.8,6.2
				c1.7,1.2,4.7,0.1,6.8,0.7c2,0.6,3.7,3.4,5.9,3.4c2.2,0,3.9-2.7,5.9-3.4c2.1-0.7,5.1,0.5,6.8-0.7c1.7-1.3,1.5-4.5,2.8-6.2
				c1.2-1.7,4.4-2.5,5.1-4.6c0.6-2-1.4-4.5-1.4-6.7c0-2.2,2-4.7,1.4-6.7c-0.7-2.1-3.8-2.9-5.1-4.6c-1.3-1.7-1.1-5-2.8-6.2
				c-1.7-1.2-4.7-0.1-6.8-0.7c-2-0.6-3.7-3.4-5.9-3.4c-2.2,0-3.9,2.7-5.9,3.4c-2.1,0.7-5.1-0.5-6.8,0.7c-1.7,1.3-1.5,4.5-2.8,6.2
				c-1.2,1.7-4.4,2.5-5.1,4.6C287.5,328.5,289.5,331,289.5,333.2z"/>
			<path id="XMLID_1131_" class="st35" d="M314,351.4c0.1,0,0.2,0.1,0.3,0.1c-1.9,0.8-3.5,3.3-5.6,3.3c-2.2,0-3.9-2.7-5.9-3.4
				c-2.1-0.7-5.1,0.5-6.8-0.7c-1.7-1.3-1.5-4.5-2.8-6.2c-1.2-1.7-4.4-2.5-5.1-4.6c-0.6-2,1.4-4.5,1.4-6.7s-2-4.7-1.4-6.7
				c0.7-2.1,3.8-2.9,5.1-4.6c1.3-1.7,1.1-5,2.8-6.2c1.7-1.2,4.7-0.1,6.8-0.7c2-0.6,3.7-3.4,5.9-3.4c2.1,0,3.8,2.4,5.6,3.3
				c-0.1,0.1-0.2,0.1-0.3,0.1c-2.1,0.7-5.1-0.5-6.8,0.7c-1.7,1.3-1.5,4.5-2.8,6.2c-1.2,1.7-4.4,2.5-5.1,4.6c-0.6,2,1.4,4.5,1.4,6.7
				s-2,4.7-1.4,6.7c0.7,2.1,3.8,2.9,5.1,4.6c1.3,1.7,1.1,5,2.8,6.2C308.9,351.9,311.9,350.8,314,351.4z"/>
		</g>
		<g id="XMLID_1123_">
			<path id="XMLID_1128_" class="st0" d="M190.7,395.8c0,2.2-2,4.7-1.4,6.7c0.7,2.1,3.8,2.9,5.1,4.6c1.3,1.7,1.1,5,2.8,6.2
				c1.7,1.2,4.7,0.1,6.8,0.7c2,0.6,3.7,3.4,5.9,3.4s3.9-2.7,5.9-3.4c2.1-0.7,5.1,0.5,6.8-0.7c1.7-1.3,1.5-4.5,2.8-6.2
				c1.2-1.7,4.4-2.5,5.1-4.6c0.6-2-1.4-4.5-1.4-6.7c0-2.2,2-4.7,1.4-6.7c-0.7-2.1-3.8-2.9-5.1-4.6c-1.3-1.7-1.1-5-2.8-6.2
				c-1.7-1.2-4.7-0.1-6.8-0.7c-2-0.6-3.7-3.4-5.9-3.4s-3.9,2.7-5.9,3.4c-2.1,0.7-5.1-0.5-6.8,0.7c-1.7,1.3-1.5,4.5-2.8,6.2
				c-1.2,1.7-4.4,2.5-5.1,4.6C188.7,391.1,190.7,393.6,190.7,395.8z"/>
			<path id="XMLID_1125_" class="st60" d="M215.2,414.1c0.1,0,0.2,0.1,0.3,0.1c-1.9,0.8-3.5,3.3-5.6,3.3c-2.2,0-3.9-2.7-5.9-3.4
				c-2.1-0.7-5.1,0.5-6.8-0.7c-1.7-1.3-1.5-4.5-2.8-6.2c-1.2-1.7-4.4-2.5-5.1-4.6c-0.6-2,1.4-4.5,1.4-6.7c0-2.2-2-4.7-1.4-6.7
				c0.7-2.1,3.8-2.9,5.1-4.6c1.3-1.7,1.1-5,2.8-6.2c1.7-1.2,4.7-0.1,6.8-0.7c2-0.6,3.7-3.4,5.9-3.4c2.1,0,3.8,2.4,5.6,3.3
				c-0.1,0.1-0.2,0.1-0.3,0.1c-2.1,0.7-5.1-0.5-6.8,0.7c-1.7,1.3-1.5,4.5-2.8,6.2c-1.2,1.7-4.4,2.5-5.1,4.6c-0.6,2,1.4,4.5,1.4,6.7
				c0,2.2-2,4.7-1.4,6.7c0.7,2.1,3.8,2.9,5.1,4.6c1.3,1.7,1.1,5,2.8,6.2C210.1,414.6,213.2,413.4,215.2,414.1z"/>
		</g>
		<g id="XMLID_1119_">
			<path id="XMLID_1122_" class="st15" d="M302.3,363.8c0,2.2-2,4.7-1.4,6.7c0.7,2.1,3.8,2.9,5.1,4.6c1.3,1.7,1.1,5,2.8,6.2
				c1.7,1.2,4.7,0.1,6.8,0.7c2,0.6,3.7,3.4,5.9,3.4c2.2,0,3.9-2.7,5.9-3.4c2.1-0.7,5.1,0.5,6.8-0.7c1.7-1.3,1.5-4.5,2.8-6.2
				c1.2-1.7,4.4-2.5,5.1-4.6c0.6-2-1.4-4.5-1.4-6.7c0-2.2,2-4.7,1.4-6.7c-0.7-2.1-3.8-2.9-5.1-4.6c-1.3-1.7-1.1-5-2.8-6.2
				c-1.7-1.2-4.7-0.1-6.8-0.7c-2-0.6-3.7-3.4-5.9-3.4c-2.2,0-3.9,2.7-5.9,3.4c-2.1,0.7-5.1-0.5-6.8,0.7c-1.7,1.3-1.5,4.5-2.8,6.2
				c-1.2,1.7-4.4,2.5-5.1,4.6C300.2,359.1,302.3,361.6,302.3,363.8z"/>
			<path id="XMLID_1121_" class="st80" d="M326.8,382.1c0.1,0,0.2,0.1,0.3,0.1c-1.9,0.8-3.5,3.3-5.6,3.3c-2.2,0-3.9-2.7-5.9-3.4
				c-2.1-0.7-5.1,0.5-6.8-0.7c-1.7-1.3-1.5-4.5-2.8-6.2c-1.2-1.7-4.4-2.5-5.1-4.6c-0.6-2,1.4-4.5,1.4-6.7c0-2.2-2-4.7-1.4-6.7
				c0.7-2.1,3.8-2.9,5.1-4.6c1.3-1.7,1.1-5,2.8-6.2c1.7-1.2,4.7-0.1,6.8-0.7c2-0.6,3.7-3.4,5.9-3.4c2.1,0,3.8,2.4,5.6,3.3
				c-0.1,0.1-0.2,0.1-0.3,0.1c-2.1,0.7-5.1-0.5-6.8,0.7c-1.7,1.3-1.5,4.5-2.8,6.2c-1.2,1.7-4.4,2.5-5.1,4.6c-0.6,2,1.4,4.5,1.4,6.7
				c0,2.2-2,4.7-1.4,6.7c0.7,2.1,3.8,2.9,5.1,4.6c1.3,1.7,1.1,5,2.8,6.2C321.7,382.6,324.7,381.4,326.8,382.1z"/>
		</g>
		<g id="XMLID_1114_">
			<path id="XMLID_1118_" class="st0" d="M294.7,395.8c0,2.2-2,4.7-1.4,6.7c0.7,2.1,3.8,2.9,5.1,4.6c1.3,1.7,1.1,5,2.8,6.2
				c1.7,1.2,4.7,0.1,6.8,0.7c2,0.6,3.7,3.4,5.9,3.4c2.2,0,3.9-2.7,5.9-3.4c2.1-0.7,5.1,0.5,6.8-0.7c1.7-1.3,1.5-4.5,2.8-6.2
				c1.2-1.7,4.4-2.5,5.1-4.6c0.6-2-1.4-4.5-1.4-6.7c0-2.2,2-4.7,1.4-6.7c-0.7-2.1-3.8-2.9-5.1-4.6c-1.3-1.7-1.1-5-2.8-6.2
				c-1.7-1.2-4.7-0.1-6.8-0.7c-2-0.6-3.7-3.4-5.9-3.4c-2.2,0-3.9,2.7-5.9,3.4c-2.1,0.7-5.1-0.5-6.8,0.7c-1.7,1.3-1.5,4.5-2.8,6.2
				c-1.2,1.7-4.4,2.5-5.1,4.6C292.7,391.1,294.7,393.6,294.7,395.8z"/>
			<path id="XMLID_1117_" class="st60" d="M319.2,414.1c0.1,0,0.2,0.1,0.3,0.1c-1.9,0.8-3.5,3.3-5.6,3.3c-2.2,0-3.9-2.7-5.9-3.4
				c-2.1-0.7-5.1,0.5-6.8-0.7c-1.7-1.3-1.5-4.5-2.8-6.2c-1.2-1.7-4.4-2.5-5.1-4.6c-0.6-2,1.4-4.5,1.4-6.7c0-2.2-2-4.7-1.4-6.7
				c0.7-2.1,3.8-2.9,5.1-4.6c1.3-1.7,1.1-5,2.8-6.2c1.7-1.2,4.7-0.1,6.8-0.7c2-0.6,3.7-3.4,5.9-3.4c2.1,0,3.8,2.4,5.6,3.3
				c-0.1,0.1-0.2,0.1-0.3,0.1c-2.1,0.7-5.1-0.5-6.8,0.7c-1.7,1.3-1.5,4.5-2.8,6.2c-1.2,1.7-4.4,2.5-5.1,4.6c-0.6,2,1.4,4.5,1.4,6.7
				c0,2.2-2,4.7-1.4,6.7c0.7,2.1,3.8,2.9,5.1,4.6c1.3,1.7,1.1,5,2.8,6.2C314.1,414.6,317.1,413.4,319.2,414.1z"/>
		</g>
		<g id="XMLID_1111_">
			<path id="XMLID_1113_" class="st52" d="M284.6,424c0,2.2-2,4.7-1.4,6.7c0.7,2.1,3.8,2.9,5.1,4.6c1.3,1.7,1.1,5,2.8,6.2
				c1.7,1.2,4.7,0.1,6.8,0.7c2,0.6,3.7,3.4,5.9,3.4c2.2,0,3.9-2.7,5.9-3.4c2.1-0.7,5.1,0.5,6.8-0.7c1.7-1.3,1.5-4.5,2.8-6.2
				c1.2-1.7,4.4-2.5,5.1-4.6c0.6-2-1.4-4.5-1.4-6.7c0-2.2,2-4.7,1.4-6.7c-0.7-2.1-3.8-2.9-5.1-4.6c-1.3-1.7-1.1-5-2.8-6.2
				c-1.7-1.2-4.7-0.1-6.8-0.7c-2-0.6-3.7-3.4-5.9-3.4s-3.9,2.7-5.9,3.4c-2.1,0.7-5.1-0.5-6.8,0.7c-1.7,1.3-1.5,4.5-2.8,6.2
				c-1.2,1.7-4.4,2.5-5.1,4.6C282.5,419.3,284.6,421.8,284.6,424z"/>
			<path id="XMLID_1112_" class="st9" d="M309,442.3c0.1,0,0.2,0.1,0.3,0.1c-1.9,0.8-3.5,3.3-5.6,3.3c-2.2,0-3.9-2.7-5.9-3.4
				c-2.1-0.7-5.1,0.5-6.8-0.7c-1.7-1.3-1.5-4.5-2.8-6.2c-1.2-1.7-4.4-2.5-5.1-4.6c-0.6-2,1.4-4.5,1.4-6.7c0-2.2-2-4.7-1.4-6.7
				c0.7-2.1,3.8-2.9,5.1-4.6c1.3-1.7,1.1-5,2.8-6.2c1.7-1.2,4.7-0.1,6.8-0.7c2-0.6,3.7-3.4,5.9-3.4c2.1,0,3.8,2.4,5.6,3.3
				c-0.1,0.1-0.2,0.1-0.3,0.1c-2.1,0.7-5.1-0.5-6.8,0.7c-1.7,1.3-1.5,4.5-2.8,6.2c-1.2,1.7-4.4,2.5-5.1,4.6c-0.6,2,1.4,4.5,1.4,6.7
				c0,2.2-2,4.7-1.4,6.7c0.7,2.1,3.8,2.9,5.1,4.6c1.3,1.7,1.1,5,2.8,6.2C304,442.8,307,441.6,309,442.3z"/>
		</g>
		<g id="XMLID_1069_">
			<path id="XMLID_1110_" class="st52" d="M205.2,424c0,2.2-2,4.7-1.4,6.7c0.7,2.1,3.8,2.9,5.1,4.6c1.3,1.7,1.1,5,2.8,6.2
				c1.7,1.2,4.7,0.1,6.8,0.7c2,0.6,3.7,3.4,5.9,3.4s3.9-2.7,5.9-3.4c2.1-0.7,5.1,0.5,6.8-0.7c1.7-1.3,1.5-4.5,2.8-6.2
				c1.2-1.7,4.4-2.5,5.1-4.6c0.6-2-1.4-4.5-1.4-6.7c0-2.2,2-4.7,1.4-6.7c-0.7-2.1-3.8-2.9-5.1-4.6c-1.3-1.7-1.1-5-2.8-6.2
				c-1.7-1.2-4.7-0.1-6.8-0.7c-2-0.6-3.7-3.4-5.9-3.4s-3.9,2.7-5.9,3.4c-2.1,0.7-5.1-0.5-6.8,0.7c-1.7,1.3-1.5,4.5-2.8,6.2
				c-1.2,1.7-4.4,2.5-5.1,4.6C203.2,419.3,205.2,421.8,205.2,424z"/>
			<path id="XMLID_1109_" class="st9" d="M229.7,442.3c0.1,0,0.2,0.1,0.3,0.1c-1.9,0.8-3.5,3.3-5.6,3.3c-2.2,0-3.9-2.7-5.9-3.4
				c-2.1-0.7-5.1,0.5-6.8-0.7c-1.7-1.3-1.5-4.5-2.8-6.2c-1.2-1.7-4.4-2.5-5.1-4.6c-0.6-2,1.4-4.5,1.4-6.7c0-2.2-2-4.7-1.4-6.7
				c0.7-2.1,3.8-2.9,5.1-4.6c1.3-1.7,1.1-5,2.8-6.2c1.7-1.2,4.7-0.1,6.8-0.7c2-0.6,3.7-3.4,5.9-3.4c2.1,0,3.8,2.4,5.6,3.3
				c-0.1,0.1-0.2,0.1-0.3,0.1c-2.1,0.7-5.1-0.5-6.8,0.7c-1.7,1.3-1.5,4.5-2.8,6.2c-1.2,1.7-4.4,2.5-5.1,4.6c-0.6,2,1.4,4.5,1.4,6.7
				c0,2.2-2,4.7-1.4,6.7c0.7,2.1,3.8,2.9,5.1,4.6c1.3,1.7,1.1,5,2.8,6.2C224.6,442.8,227.7,441.6,229.7,442.3z"/>
		</g>
		<g id="XMLID_838_">
			<path id="XMLID_854_" class="st5" d="M218.7,450.4c0,2.2-2,4.7-1.4,6.7c0.7,2.1,3.8,2.9,5.1,4.6c1.3,1.7,1.1,5,2.8,6.2
				c1.7,1.2,4.7,0.1,6.8,0.7c2,0.6,3.7,3.4,5.9,3.4s3.9-2.7,5.9-3.4c2.1-0.7,5.1,0.5,6.8-0.7c1.7-1.3,1.5-4.5,2.8-6.2
				c1.2-1.7,4.4-2.5,5.1-4.6c0.6-2-1.4-4.5-1.4-6.7s2-4.7,1.4-6.7c-0.7-2.1-3.8-2.9-5.1-4.6c-1.3-1.7-1.1-5-2.8-6.2
				c-1.7-1.2-4.7-0.1-6.8-0.7c-2-0.6-3.7-3.4-5.9-3.4s-3.9,2.7-5.9,3.4c-2.1,0.7-5.1-0.5-6.8,0.7c-1.7,1.3-1.5,4.5-2.8,6.2
				c-1.2,1.7-4.4,2.5-5.1,4.6C216.6,445.7,218.7,448.2,218.7,450.4z"/>
			<path id="XMLID_852_" class="st33" d="M243.2,468.7c0.1,0,0.2,0.1,0.3,0.1c-1.9,0.8-3.5,3.3-5.6,3.3c-2.2,0-3.9-2.7-5.9-3.4
				c-2.1-0.7-5.1,0.5-6.8-0.7c-1.7-1.3-1.5-4.5-2.8-6.2c-1.2-1.7-4.4-2.5-5.1-4.6c-0.6-2,1.4-4.5,1.4-6.7c0-2.2-2-4.7-1.4-6.7
				c0.7-2.1,3.8-2.9,5.1-4.6c1.3-1.7,1.1-5,2.8-6.2c1.7-1.2,4.7-0.1,6.8-0.7c2-0.6,3.7-3.4,5.9-3.4c2.1,0,3.8,2.4,5.6,3.3
				c-0.1,0.1-0.2,0.1-0.3,0.1c-2.1,0.7-5.1-0.5-6.8,0.7c-1.7,1.3-1.5,4.5-2.8,6.2c-1.2,1.7-4.4,2.5-5.1,4.6c-0.6,2,1.4,4.5,1.4,6.7
				c0,2.2-2,4.7-1.4,6.7c0.7,2.1,3.8,2.9,5.1,4.6c1.3,1.7,1.1,5,2.8,6.2C238.1,469.2,241.1,468.1,243.2,468.7z"/>
		</g>
		<g id="XMLID_826_">
			<path id="XMLID_836_" class="st5" d="M274,450.4c0,2.2-2,4.7-1.4,6.7c0.7,2.1,3.8,2.9,5.1,4.6c1.3,1.7,1.1,5,2.8,6.2
				c1.7,1.2,4.7,0.1,6.8,0.7c2,0.6,3.7,3.4,5.9,3.4c2.2,0,3.9-2.7,5.9-3.4c2.1-0.7,5.1,0.5,6.8-0.7c1.7-1.3,1.5-4.5,2.8-6.2
				c1.2-1.7,4.4-2.5,5.1-4.6c0.6-2-1.4-4.5-1.4-6.7s2-4.7,1.4-6.7c-0.7-2.1-3.8-2.9-5.1-4.6c-1.3-1.7-1.1-5-2.8-6.2
				c-1.7-1.2-4.7-0.1-6.8-0.7c-2-0.6-3.7-3.4-5.9-3.4c-2.2,0-3.9,2.7-5.9,3.4c-2.1,0.7-5.1-0.5-6.8,0.7c-1.7,1.3-1.5,4.5-2.8,6.2
				c-1.2,1.7-4.4,2.5-5.1,4.6C271.9,445.7,274,448.2,274,450.4z"/>
			<path id="XMLID_830_" class="st33" d="M298.5,468.7c0.1,0,0.2,0.1,0.3,0.1c-1.9,0.8-3.5,3.3-5.6,3.3c-2.2,0-3.9-2.7-5.9-3.4
				c-2.1-0.7-5.1,0.5-6.8-0.7c-1.7-1.3-1.5-4.5-2.8-6.2c-1.2-1.7-4.4-2.5-5.1-4.6c-0.6-2,1.4-4.5,1.4-6.7c0-2.2-2-4.7-1.4-6.7
				c0.7-2.1,3.8-2.9,5.1-4.6c1.3-1.7,1.1-5,2.8-6.2c1.7-1.2,4.7-0.1,6.8-0.7c2-0.6,3.7-3.4,5.9-3.4c2.1,0,3.8,2.4,5.6,3.3
				c-0.1,0.1-0.2,0.1-0.3,0.1c-2.1,0.7-5.1-0.5-6.8,0.7c-1.7,1.3-1.5,4.5-2.8,6.2c-1.2,1.7-4.4,2.5-5.1,4.6c-0.6,2,1.4,4.5,1.4,6.7
				c0,2.2-2,4.7-1.4,6.7c0.7,2.1,3.8,2.9,5.1,4.6c1.3,1.7,1.1,5,2.8,6.2C293.4,469.2,296.4,468.1,298.5,468.7z"/>
		</g>
		<g id="XMLID_824_">
			<path id="XMLID_1076_" class="st81" d="M243.3,468.1c0,2.2-2,4.7-1.4,6.7c0.7,2.1,3.8,2.9,5.1,4.6c1.3,1.7,1.1,5,2.8,6.2
				c1.7,1.2,4.7,0.1,6.8,0.7c2,0.6,3.7,3.4,5.9,3.4c2.2,0,3.9-2.7,5.9-3.4c2.1-0.7,5.1,0.5,6.8-0.7c1.7-1.3,1.5-4.5,2.8-6.2
				c1.2-1.7,4.4-2.5,5.1-4.6c0.6-2-1.4-4.5-1.4-6.7c0-2.2,2-4.7,1.4-6.7c-0.7-2.1-3.8-2.9-5.1-4.6c-1.3-1.7-1.1-5-2.8-6.2
				c-1.7-1.2-4.7-0.1-6.8-0.7c-2-0.6-3.7-3.4-5.9-3.4c-2.2,0-3.9,2.7-5.9,3.4c-2.1,0.7-5.1-0.5-6.8,0.7c-1.7,1.3-1.5,4.5-2.8,6.2
				c-1.2,1.7-4.4,2.5-5.1,4.6C241.3,463.4,243.3,465.9,243.3,468.1z"/>
			<path id="XMLID_1091_" class="st82" d="M267.8,486.4c0.1,0,0.2,0.1,0.3,0.1c-1.9,0.8-3.5,3.3-5.6,3.3c-2.2,0-3.9-2.7-5.9-3.4
				c-2.1-0.7-5.1,0.5-6.8-0.7c-1.7-1.3-1.5-4.5-2.8-6.2c-1.2-1.7-4.4-2.5-5.1-4.6c-0.6-2,1.4-4.5,1.4-6.7s-2-4.7-1.4-6.7
				c0.7-2.1,3.8-2.9,5.1-4.6c1.3-1.7,1.1-5,2.8-6.2c1.7-1.2,4.7-0.1,6.8-0.7c2-0.6,3.7-3.4,5.9-3.4c2.1,0,3.8,2.4,5.6,3.3
				c-0.1,0.1-0.2,0.1-0.3,0.1c-2.1,0.7-5.1-0.5-6.8,0.7c-1.7,1.3-1.5,4.5-2.8,6.2c-1.2,1.7-4.4,2.5-5.1,4.6c-0.6,2,1.4,4.5,1.4,6.7
				s-2,4.7-1.4,6.7c0.7,2.1,3.8,2.9,5.1,4.6c1.3,1.7,1.1,5,2.8,6.2C262.7,486.9,265.7,485.7,267.8,486.4z"/>
		</g>
		<path id="XMLID_1092_" class="st83" d="M331.7,60.1c11.4,5.3,33.6,18.3,44.8,43.1c1.4,3.1-0.6,6.7-4,7l-9,0.9
			c-2.9,0.3-5,3-4.4,5.9l0.9,4.7c0.9,4.6-4.6,7.8-8.1,4.7c-10.5-9.3-27-21.8-42.5-25.6c-3.8-0.9-5-5.6-2.3-8.4
			c3.3-3.2,7.9-6.5,13.4-7.5c2.4-0.4,4.1-2.4,4.1-4.8V64.6C324.7,60.9,328.4,58.5,331.7,60.1z"/>
	</g>
</g>
</svg>
