<?xml version="1.0" encoding="utf-8"?>
<!-- Generator: Adobe Illustrator 22.0.1, SVG Export Plug-In . SVG Version: 6.00 Build 0)  -->
<svg version="1.1" xmlns="http://www.w3.org/2000/svg" xmlns:xlink="http://www.w3.org/1999/xlink" x="0px" y="0px"
	 viewBox="0 0 512 512" style="enable-background:new 0 0 512 512;" xml:space="preserve">
<style type="text/css">
	.st0{fill:#E9B12D;}
	.st1{fill:#A9E7D8;}
	.st2{fill:#76CFB1;}
	.st3{fill:#AE6B5D;}
	.st4{fill:#7770D3;}
	.st5{fill:#5BA0F5;}
	.st6{fill:#DA4545;}
	.st7{fill:#89CCFC;}
	.st8{fill:#CD462A;}
	.st9{fill:#514896;}
	.st10{fill:#5493A0;}
	.st11{fill:#CC6B5C;}
	.st12{fill:#62AA8D;}
	.st13{fill:#8ABAAB;}
	.st14{fill:#C3791F;}
	.st15{fill:#E39123;}
	.st16{fill:#FFFFFF;}
	.st17{fill:none;stroke:#FFFFFF;stroke-width:10;stroke-linecap:round;stroke-miterlimit:10;}
	.st18{fill:none;stroke:#5F55AB;stroke-width:10;stroke-linecap:round;stroke-miterlimit:10;}
	.st19{fill:#A9671C;}
	.st20{fill:#D5B3A7;}
	.st21{fill:#C09A8F;}
	.st22{fill:#487F87;}
	.st23{fill:#1B305C;}
	.st24{fill:#172945;}
	.st25{fill:none;}
	.st26{fill:#B62A2A;}
	.st27{fill:#325859;}
	.st28{fill:#3F6E71;}
	.st29{fill:#284646;}
	.st30{fill:#8F2727;}
	.st31{fill:#29477C;}
	.st32{fill:#5B9BEE;}
	.st33{fill:#487FDE;}
	.st34{fill:#CD9829;}
	.st35{fill:#9F2A2A;}
	.st36{fill:#4C3328;}
	.st37{fill:#E8B94A;}
	.st38{fill:#DDF8F1;}
	.st39{fill:#3E2A22;}
	.st40{fill:#D3A971;}
	.st41{fill:#C79A5B;}
	.st42{fill:#233E76;}
	.st43{fill:#21395F;}
	.st44{fill:#487D82;}
	.st45{fill:none;stroke:#C79A5B;stroke-width:10;stroke-linecap:round;stroke-miterlimit:10;}
	.st46{fill:#5E3E31;}
	.st47{fill:#AC3939;}
	.st48{fill:#CA9628;}
	.st49{fill:#AF8F88;}
	.st50{fill:#815048;}
	.st51{fill:#6F4232;}
	.st52{fill:#5F55AB;}
	.st53{fill:#192A48;}
	.st54{fill:#152336;}
	.st55{fill:#192B49;}
	.st56{fill:#264173;}
	.st57{fill:#B06F1E;}
	.st58{fill:#4E88C0;}
	.st59{fill:#83C3F1;}
	.st60{fill:#CF9929;}
	.st61{fill:none;stroke:#FFFFFF;stroke-width:10;stroke-linecap:round;stroke-linejoin:round;stroke-miterlimit:10;}
	.st62{fill:#EAC262;}
	.st63{fill:#D6D5D4;}
	.st64{fill:#6BBA9B;}
	.st65{fill:#63AA8F;}
	.st66{fill:none;stroke:#3E2A22;stroke-width:10;stroke-linecap:round;stroke-miterlimit:10;}
	.st67{fill:#CA7D1F;}
	.st68{fill:#213B64;}
	.st69{fill:#CDF8EC;}
	.st70{fill:#C59125;}
	.st71{fill:none;stroke:#C09A8F;stroke-width:10;stroke-linecap:round;stroke-miterlimit:10;}
	.st72{fill:#32579B;}
	.st73{fill:#172843;}
	.st74{fill:#D66767;}
	.st75{fill:#A74949;}
	.st76{fill:#EBC76F;}
	.st77{fill:#7A4940;}
	.st78{fill:#182A48;}
	.st79{fill:none;stroke:#A0794A;stroke-width:10;stroke-linecap:round;stroke-miterlimit:10;}
	.st80{fill:#C37A20;}
	.st81{fill:#D26D5C;}
	.st82{fill:#A45752;}
	.st83{fill:#284579;}
	.st84{fill:#88C7F4;}
	.st85{fill:#6EB6F0;}
	.st86{fill:#32221E;}
	.st87{fill:#E7A6A6;}
	.st88{fill:#C59191;}
	.st89{fill:#AA3B3B;}
	.st90{fill:#B83E3E;}
	.st91{fill:none;stroke:#5F55A9;stroke-width:10;stroke-linecap:round;stroke-miterlimit:10;}
	.st92{fill:#963838;}
	.st93{fill:#402B25;}
	.st94{fill:#6B6ABA;}
	.st95{fill:#BABABA;}
	.st96{fill:#D1D1D1;}
	.st97{fill:#264377;}
	.st98{fill:#A19BF5;}
	.st99{fill:#3C2A21;}
	.st100{fill:none;stroke:#4C3328;stroke-width:10;stroke-linecap:round;stroke-miterlimit:10;}
	.st101{fill:#C1781F;}
	.st102{fill:#E3A147;}
	.st103{fill:#F2D2A1;}
	.st104{fill:#4F372D;}
	.st105{fill:none;stroke:#DA4545;stroke-width:10;stroke-linecap:round;stroke-miterlimit:10;}
	.st106{fill:#AA3928;}
	.st107{fill:#8C2C22;}
	.st108{fill:#BF4336;}
	.st109{fill:#5797D4;}
	.st110{fill:#CFCFCF;}
	.st111{fill:#613A2E;}
	.st112{fill:none;stroke:#B18653;stroke-width:10;stroke-linecap:round;stroke-miterlimit:10;}
	.st113{fill:#B13B3B;}
	.st114{fill:#16263A;}
	.st115{fill:none;stroke:#16263A;stroke-width:10;stroke-miterlimit:10;}
	.st116{fill:#C87D20;}
	.st117{fill:#E4F0FD;}
	.st118{fill:#AA3737;}
	.st119{fill:#BF771F;}
	.st120{fill:none;stroke:#CD462A;stroke-width:10;stroke-linejoin:round;stroke-miterlimit:10;}
	.st121{fill:#5696D2;}
	.st122{fill:#C0771E;}
	.st123{fill:#9B5F1B;}
	.st124{fill:#A83A29;}
	.st125{fill:#E7A74F;}
	.st126{fill:#C9924C;}
	.st127{fill:#C58E48;}
	.st128{fill:#BE8844;}
	.st129{fill:#916939;}
	.st130{fill:#264275;}
	.st131{fill:#253F65;}
	.st132{fill:#182A45;}
	.st133{fill:#162336;}
	.st134{fill:#93C7B7;}
	.st135{fill:#E6A4A4;}
	.st136{fill:#B06B1D;}
	.st137{fill:#484185;}
	.st138{fill:#DB6E6E;}
	.st139{fill:#6BBA9A;}
	.st140{fill:#CACCCC;}
	.st141{fill:#D4D4D4;}
	.st142{fill:#A98881;}
	.st143{fill:#213A62;}
	.st144{fill:#A2837D;}
	.st145{fill:#6FB8F4;}
	.st146{fill:#9B9E9E;}
	.st147{fill:#B2B3B3;}
	.st148{fill:#20385D;}
	.st149{fill:#335AA8;}
	.st150{fill:#BCE7FD;}
	.st151{fill:#3B2921;}
	.st152{fill:#AD3C3C;}
	.st153{fill:#9D3838;}
	.st154{fill:#603F33;}
	.st155{fill:#4D868B;}
	.st156{fill:#A2DDFD;}
	.st157{fill:#ECB6B6;}
	.st158{fill:#E8A346;}
	.st159{fill:#514C94;}
	.st160{fill:#D2F1E8;}
	.st161{fill:#BDD6CE;}
	.st162{fill:#B93B29;}
	.st163{fill:#E0AD70;}
	.st164{fill:#C57C21;}
	.st165{fill:#EDA34A;}
	.st166{fill:#2F538F;}
	.st167{fill:#2B4B78;}
	.st168{fill:#65AF91;}
	.st169{fill:#A7CEFC;}
	.st170{fill:#98BDE2;}
	.st171{fill:#CFE5F7;}
	.st172{fill:#5492CD;}
	.st173{fill:#97CCBC;}
	.st174{fill:#5491CA;}
	.st175{fill:#EDC563;}
	.st176{fill:#423C79;}
	.st177{fill:#D3B1A5;}
	.st178{fill:#BE988D;}
	.st179{fill:#A7E5D6;}
	.st180{fill:#F2FFF9;}
	.st181{fill:#D64545;}
	.st182{fill:#A73B3B;}
	.st183{fill:#15233A;}
	.st184{fill:none;stroke:#BE988D;stroke-width:10;stroke-linecap:round;stroke-miterlimit:10;}
	.st185{fill:#AF3A29;}
	.st186{fill:#FAF9FF;}
	.st187{fill:#CACACC;}
	.st188{fill:#372720;}
	.st189{fill:#3F2C26;}
	.st190{fill:#2D201C;}
	.st191{fill:#3D6D6F;}
	.st192{fill:#5B54A8;}
	.st193{fill:#325799;}
	.st194{fill:#E8C26E;}
	.st195{fill:#254784;}
	.st196{fill:#5696D4;}
	.st197{fill:#4F8AB6;}
	.st198{fill:#5FA4AC;}
	.st199{fill:#AA3524;}
	.st200{fill:#D15F4D;}
	.st201{fill:#2B294C;}
	.st202{fill:#A43A2A;}
	.st203{fill:#E7AE2D;}
	.st204{fill:#CD9729;}
	.st205{fill:none;stroke:#AA8253;stroke-width:10;stroke-linecap:round;stroke-miterlimit:10;}
	.st206{fill:none;stroke:#E18F23;stroke-width:10;stroke-linecap:round;stroke-linejoin:round;stroke-miterlimit:10;}
	.st207{fill:#CF9828;}
	.st208{fill:#B88926;}
	.st209{fill:#A17623;}
	.st210{fill:#96CCBC;}
	.st211{fill:#CF9A2A;}
	.st212{fill:#C57B20;}
	.st213{fill:#C7F1E6;}
	.st214{fill:#DC6363;}
	.st215{fill:#E89F9F;}
	.st216{fill:#C88C8C;}
	.st217{fill:#C16E6E;}
	.st218{fill:#A46060;}
	.st219{fill:#AA3626;}
	.st220{fill:#87EDC4;}
	.st221{fill:#D86552;}
	.st222{fill:#BC7620;}
	.st223{fill:#BA741E;}
	.st224{fill:#8F8CE3;}
	.st225{fill:#3A2820;}
	.st226{fill:#AC7060;}
	.st227{fill:#915F55;}
	.st228{fill:#49332A;}
	.st229{fill:#2D1F1B;}
	.st230{fill:#69B7BE;}
	.st231{fill:#D6D6D6;}
	.st232{fill:#B8B8B8;}
	.st233{fill:#CACACA;}
	.st234{fill:#467B80;}
	.st235{fill:#C2EDE2;}
	.st236{fill:#A9574F;}
	.st237{fill:#5595D2;}
	.st238{fill:#955949;}
	.st239{fill:#7E4B42;}
	.st240{fill:#89CCF1;}
	.st241{fill:#DD584A;}
	.st242{fill:#C18F26;}
	.st243{fill:#B33C2A;}
	.st244{fill:#D1A771;}
	.st245{fill:#B42A2A;}
	.st246{fill:#325797;}
	.st247{fill:#9F3529;}
	.st248{fill:#EDCE80;}
	.st249{fill:#F0DBAC;}
	.st250{fill:#CFB478;}
	.st251{fill:#D4C29B;}
	.st252{fill:#993939;}
	.st253{fill:#D1AFA3;}
	.st254{fill:#BC968B;}
	.st255{fill:none;stroke:#BC968B;stroke-width:10;stroke-linecap:round;stroke-miterlimit:10;}
	.st256{fill:#814C3C;}
	.st257{fill:#C0EBE0;}
	.st258{fill:#A5E3D4;}
	.st259{fill:#15243C;}
	.st260{fill:#443E79;}
	.st261{fill:#F0FFF7;}
	.st262{fill:#9A764B;}
	.st263{fill:#826443;}
	.st264{fill:#D9AA74;}
	.st265{fill:#5DA186;}
	.st266{fill:#68B596;}
	.st267{fill:#E5C6BE;}
	.st268{fill:#D3B6B1;}
	.st269{fill:none;stroke:#BAA09C;stroke-width:10;stroke-linecap:round;stroke-miterlimit:10;}
	.st270{fill:#F4D78F;}
	.st271{fill:#20385F;}
	.st272{fill:#BA8727;}
	.st273{fill:#5A9C82;}
	.st274{fill:none;stroke:#E39123;stroke-width:10;stroke-linecap:round;stroke-linejoin:round;stroke-miterlimit:10;}
	.st275{fill:#60392D;}
	.st276{fill:#CCCCCC;}
	.st277{fill:#844F3E;}
	.st278{fill:#F3FFFB;}
	.st279{fill:#365E60;}
	.st280{fill:#D84545;}
	.st281{fill:#A83B3B;}
	.st282{fill:#253F70;}
	.st283{fill:#EAADAD;}
	.st284{fill:#443E7C;}
	.st285{fill:#3D6B9F;}
	.st286{fill:#4274BC;}
	.st287{fill:#AF3827;}
	.st288{fill:#E59D9D;}
	.st289{fill:#C48989;}
	.st290{fill:none;stroke:#9B621A;stroke-width:10;stroke-linecap:round;stroke-linejoin:round;stroke-miterlimit:10;}
	.st291{fill:#213A5E;}
	.st292{fill:#2D507A;}
	.st293{fill:#528EC8;}
	.st294{fill:#EFD696;}
	.st295{fill:#D1BA87;}
	.st296{fill:#FDFCFC;}
	.st297{fill:#86CBFC;}
	.st298{fill:#7AB7DA;}
	.st299{fill:#192C4C;}
	.st300{fill:#BCBCBC;}
	.st301{fill:#A13838;}
	.st302{fill:#75BDF6;}
	.st303{fill:#D0B1AA;}
	.st304{fill:#142233;}
	.st305{fill:#E6C4BB;}
	.st306{fill:#BDBDBD;}
	.st307{fill:#E8A192;}
	.st308{fill:#A43939;}
	.st309{fill:#162640;}
	.st310{fill:#27457C;}
	.st311{fill:#EFBE5E;}
	.st312{fill:#87EDC5;}
	.st313{fill:#A03838;}
	.st314{fill:#833232;}
	.st315{fill:#47417F;}
	.st316{fill:none;stroke:#915F55;stroke-width:10;stroke-linecap:round;stroke-miterlimit:10;}
	.st317{fill:#BC8B25;}
	.st318{fill:#473129;}
	.st319{fill:#67B394;}
	.st320{fill:#599A80;}
	.st321{fill:#B13D3D;}
</style>
<g id="BULINE">
	<g>
		<circle id="XMLID_1030_" class="st1" cx="256" cy="256" r="256"/>
	</g>
</g>
<g id="Icons">
	<g id="XMLID_1031_">
		<path id="XMLID_1170_" class="st5" d="M507.6,303.5c-4.4,23.5-12,45.8-22.3,66.5c-21.4,42.9-54.4,78.9-95,104
			c-4.9,3-9.8,5.8-14.9,8.5H136.6c-2.2-1.2-4.4-2.4-6.6-3.6c-0.2-0.1-0.4-0.2-0.7-0.4c-6.8-3.9-13.5-8.1-19.9-12.6
			c-7.8-5.4-15.2-11.2-22.3-17.5h0C62.3,426.6,41.7,400,26.7,370c-10.3-20.7-17.9-43-22.3-66.5H507.6z"/>
		<path id="XMLID_1094_" class="st50" d="M269.1,343H251c-10.9,0-19.7-8.8-19.7-19.7v-26.6c0-10.9,8.8-19.7,19.7-19.7h18.2
			c10.9,0,19.7,8.8,19.7,19.7v26.6C288.8,334.2,280,343,269.1,343z"/>
		<path id="XMLID_1093_" class="st51" d="M270.1,342.8c-1,0.1-2,0.2-3.1,0.2h-14.7c-11.8,0-21.4-8.1-21.4-18.1v-29.8
			c0-10,9.6-18.1,21.4-18.1H267c1,0,2.1,0.1,3.1,0.2c-10.3,1.3-18.3,8.8-18.3,17.9v29.8C251.8,334,259.8,341.5,270.1,342.8z"/>
		<path id="XMLID_1101_" class="st38" d="M131,168.9c0-10.5-8.5-19-19-19c-1.8,0-3.5,0.3-5.1,0.7c-3.2-10.7-13.1-18.5-24.9-18.5
			c-11.8,0-21.7,7.9-24.9,18.6c-1.8-0.6-3.7-0.9-5.7-0.9c-10.5,0-19,8.5-19,19c0,10.5,8.5,19,19,19h65.2v-0.6
			C124.9,185.3,131,177.8,131,168.9z"/>
		<path id="XMLID_1140_" class="st40" d="M485.3,370c-21.4,42.9-54.4,78.9-95,104c-4.9,3-9.8,5.8-14.9,8.5
			c-9.8,5.2-20,9.7-30.5,13.6c-4.2,1.6-8.5,3-12.8,4.4c-24,7.5-49.6,11.5-76,11.5c-25.4,0-49.9-3.7-73-10.6
			c-4.3-1.3-8.6-2.7-12.8-4.2c-3.5-1.2-7-2.6-10.4-4c-2.9-1.2-5.8-2.4-8.7-3.7c-4.9-2.2-9.7-4.5-14.4-7c-2.2-1.2-4.4-2.4-6.6-3.6
			c-0.2-0.1-0.4-0.2-0.7-0.4c-6.8-3.9-13.5-8.1-19.9-12.6c-7.8-5.4-15.2-11.2-22.3-17.5h0C62.3,426.6,41.7,400,26.7,370H485.3z"/>
		<g id="XMLID_1096_">
			<path id="XMLID_1098_" class="st64" d="M120.3,213.8v-29.6h-0.3c2.8,0,5.1-2.3,5.1-5.1v0c0-2.8-2.3-5.1-5.1-5.1H96.7
				c-2.8,0-5.1,2.3-5.1,5.1l0,0c0,2.8,2.3,5.1,5.1,5.1h-0.3v29.6c-9.9,4.5-16.7,14.5-16.7,26.1v94.1c0,5.7,4.6,10.2,10.2,10.2h36.9
				c5.7,0,10.2-4.6,10.2-10.2v-94.1C137.1,228.3,130.2,218.3,120.3,213.8z"/>
			<path id="XMLID_1097_" class="st65" d="M113.3,182.7c0.9,0.9,2.2,1.5,3.6,1.5h-0.2v29.6c-9.9,4.5-16.7,14.5-16.7,26.1v94.1
				c0,5.7,4.6,10.2,10.2,10.2H90c-5.6,0-10.2-4.6-10.2-10.2v-94.1c0-11.6,6.9-21.5,16.7-26.1v-29.6h0.2c-1.4,0-2.7-0.6-3.6-1.5
				c-0.9-0.9-1.5-2.2-1.5-3.6c0-2.8,2.3-5.1,5.1-5.1h20.2c-2.8,0-5.1,2.3-5.1,5.1C111.8,180.4,112.4,181.7,113.3,182.7z"/>
		</g>
		<path id="XMLID_1141_" class="st50" d="M390.3,368.2V474c-4.9,3-9.8,5.8-14.9,8.5c-9.8,5.2-20,9.7-30.5,13.6
			c-4.2,1.6-8.5,3-12.8,4.4c-24,7.5-49.6,11.5-76,11.5c-25.4,0-49.9-3.7-73-10.6c-4.3-1.3-8.6-2.7-12.8-4.2c-3.5-1.2-7-2.6-10.4-4
			c-2.9-1.2-5.8-2.4-8.7-3.7c-4.9-2.2-9.7-4.5-14.4-7c-2.2-1.2-4.4-2.4-6.6-3.6c-0.2-0.1-0.4-0.2-0.7-0.4V368.2
			c0-25.3,20.5-45.8,45.8-45.8h169.4C369.8,322.5,390.3,343,390.3,368.2z"/>
		<path id="XMLID_1120_" class="st51" d="M205.5,322.5c-25.3,0-45.8,20.5-45.8,45.8v125c-2.9-1.2-5.8-2.4-8.7-3.7
			c-4.9-2.2-9.7-4.5-14.4-7c-2.2-1.2-4.4-2.4-6.6-3.6V368.2c0-25.3,20.5-45.8,45.8-45.8H205.5z"/>
		<path id="XMLID_1127_" class="st51" d="M183,420.1v81.4c-4.3-1.3-8.6-2.7-12.8-4.2v-77.2c0-3.6,2.9-6.4,6.4-6.4
			c1.8,0,3.4,0.7,4.5,1.9C182.3,416.7,183,418.3,183,420.1z"/>
		<path id="XMLID_1126_" class="st51" d="M344.9,420.1v76.1c-4.2,1.6-8.5,3-12.8,4.4v-80.4c0-3.6,2.9-6.4,6.4-6.4
			c1.8,0,3.4,0.7,4.5,1.9C344.1,416.7,344.9,418.3,344.9,420.1z"/>
		<path id="XMLID_1087_" class="st50" d="M366.3,162.8h-2.4v-16.3c0-57.6-46.7-104.3-104.3-104.3h0c-57.6,0-104.3,46.7-104.3,104.3
			v47.1c0,57.6,46.7,104.3,104.3,104.3h0c53.6,0,97.8-40.5,103.6-92.6h3.1c8,0,14.4-6.5,14.4-14.4v-13.8
			C380.7,169.2,374.3,162.8,366.3,162.8z"/>
		<path id="XMLID_1085_" class="st51" d="M192.5,193.6v-47.1c0-51.2,37-93.9,85.7-102.7c-6-1.1-12.3-1.7-18.6-1.7
			c-57.6,0-104.3,46.7-104.3,104.3v16.3h-2c-8,0-14.4,6.5-14.4,14.4V191c0,8,6.5,14.4,14.4,14.4h2.6c5.8,52.1,50,92.6,103.6,92.6
			c6.4,0,12.6-0.6,18.6-1.7C229.5,287.5,192.5,244.9,192.5,193.6z"/>
		<path id="XMLID_1084_" class="st51" d="M266,209.9h-12.9c-4.3,0-7.7-3.4-7.7-7.7v0c0-4.3,3.4-7.7,7.7-7.7H266
			c4.3,0,7.7,3.4,7.7,7.7v0C273.7,206.5,270.2,209.9,266,209.9z"/>
		<path id="XMLID_1083_" class="st36" d="M287.8,227.5c1.5,0,2.7,1.2,2.7,2.7l0,0c0,2.8-0.4,5.5-1.1,8.1c-1.6,6-5,11.3-9.6,15.3
			c-5.4,4.7-12.6,7.6-20.3,7.6s-14.9-2.9-20.3-7.6c-4.6-4-8-9.2-9.6-15.3c-0.7-2.6-1.1-5.3-1.1-8.1l0,0c0-1.5,1.2-2.7,2.7-2.7H287.8
			z"/>
		<path id="XMLID_1082_" class="st26" d="M279.9,253.7c-5.4,4.7-12.6,7.6-20.3,7.6s-14.9-2.9-20.3-7.6c5.4-4.8,12.6-7.6,20.3-7.6
			S274.4,248.9,279.9,253.7z"/>
		<path id="XMLID_1079_" class="st16" d="M287.8,227.5c1.5,0,2.7,1.2,2.7,2.7l0,0c0,2.8-0.4,5.5-1.1,8.1h-59.8
			c-0.7-2.6-1.1-5.3-1.1-8.1l0,0c0-1.5,1.2-2.7,2.7-2.7H287.8z"/>
		<path id="XMLID_1078_" class="st38" d="M485.7,211.9c0-10.5-8.5-19-19-19c-1.8,0-3.5,0.3-5.1,0.7c-3.2-10.7-13.1-18.5-24.9-18.5
			c-11.8,0-21.7,7.9-24.9,18.6c-1.8-0.6-3.7-0.9-5.7-0.9c-10.5,0-19,8.5-19,19c0,10.5,8.5,19,19,19h65.2v-0.6
			C479.6,228.3,485.7,220.8,485.7,211.9z"/>
		<path id="XMLID_1077_" class="st66" d="M225.7,182.2c0-6.7-5.4-12.2-12.2-12.2c-6.7,0-12.2,5.4-12.2,12.2"/>
		<path id="XMLID_1062_" class="st66" d="M314.8,182.2c0-6.7-5.4-12.2-12.2-12.2s-12.2,5.4-12.2,12.2"/>
		<path id="XMLID_1061_" class="st15" d="M432.2,121.6c0,13.5-77.8,24.5-173.7,24.5c-95.9,0-173.7-11-173.7-24.5
			c0-7.8,25.9-14.8,66.3-19.3c0.9-7.2,2.7-14.1,5.3-20.6c12.1-30.1,41.5-51.3,75.9-51.3h52.4c34.5,0,64,21.3,76,51.5
			c2.6,6.4,4.3,13.3,5.2,20.4C406.3,106.8,432.2,113.8,432.2,121.6z"/>
		<path id="XMLID_1059_" class="st67" d="M283.2,145.8c-8.1,0.2-16.3,0.2-24.7,0.2c-95.9,0-173.7-11-173.7-24.5
			c0-7.8,25.9-14.8,66.3-19.3c0.9-7.2,2.7-14.1,5.3-20.6c12.1-30.1,41.5-51.3,75.9-51.3h49.3c-34.4,0-63.8,21.2-75.9,51.3
			c-0.4,1-0.8,2-1.1,3h0c-2,5.6-3.4,11.5-4.2,17.6c-40.4,4.5-66.3,11.5-66.3,19.3C134.2,133.9,199,144.1,283.2,145.8z"/>
		<path id="XMLID_1057_" class="st42" d="M366,102.3H151.2c0.9-7.2,2.7-14.1,5.3-20.6c28,2.2,126.3,8.9,204.3,0.2
			C363.3,88.4,365.1,95.2,366,102.3z"/>
		<path id="XMLID_1053_" class="st68" d="M204.6,84.7c-2,5.6-3.4,11.5-4.2,17.6h-49.3c0.9-7.2,2.7-14.1,5.3-20.6
			C165.8,82.5,183,83.7,204.6,84.7z"/>
		<path id="XMLID_1145_" class="st50" d="M151.1,489.6c-4.9-2.2-9.7-4.5-14.4-7c-2.2-1.2-4.4-2.4-6.6-3.6c-0.2-0.1-0.4-0.2-0.7-0.4
			c-6.8-3.9-13.5-8.1-19.9-12.6c-7.8-5.4-15.2-11.2-22.3-17.5h0L70,382.6c-0.4-1.6-0.8-3.3-1.2-4.9c-0.2-0.7-0.3-1.5-0.5-2.2
			c-0.3-1.6-0.6-3.2-0.9-4.8c0-0.2-0.1-0.5-0.1-0.7c-1.5-8.6-2.2-17.3-2.2-26v-56.6c0-4.3,3.4-7.7,7.7-7.7h31.6
			c13.3,0,24.6,10.6,25.1,23.8c0,0.3,0,0.6,0,1c0,0.4,0,0.9,0,1.3c0,0,0,0,0,0c-0.6,9.6-6.8,17.7-15.3,21.2v23.8l0.6-0.1l5.1,19.4
			l9.7,36.8l0.7,2.5l19.2,73.2L151.1,489.6z"/>
		<path id="XMLID_1133_" class="st51" d="M109.5,466c-7.8-5.4-15.2-11.2-22.3-17.5h0L70,382.6c-0.6-2.4-1.2-4.7-1.7-7.1
			c-0.3-1.6-0.6-3.2-0.9-4.8c0-0.2-0.1-0.5-0.1-0.7c-1.5-8.6-2.2-17.3-2.2-26v-56.6c0-4.3,3.4-7.7,7.7-7.7h17.7
			c-4.2,0-7.7,3.5-7.7,7.7V344c0,8.7,0.8,17.4,2.2,26c0.7,4.2,1.6,8.4,2.7,12.6L109.5,466z"/>
		<path id="XMLID_1032_" class="st51" d="M129.4,307.3c0,13.5-11,24.5-24.5,24.5H65v-14.1h39.8c11.1,0,20.5-7.4,23.5-17.5
			C129,302.5,129.4,304.8,129.4,307.3z"/>
	</g>
</g>
</svg>
