<?xml version="1.0" encoding="utf-8"?>
<!-- Generator: Adobe Illustrator 22.0.1, SVG Export Plug-In . SVG Version: 6.00 Build 0)  -->
<svg version="1.1" xmlns="http://www.w3.org/2000/svg" xmlns:xlink="http://www.w3.org/1999/xlink" x="0px" y="0px"
	 viewBox="0 0 512 512" style="enable-background:new 0 0 512 512;" xml:space="preserve">
<style type="text/css">
	.st0{fill:#E9B12D;}
	.st1{fill:#A9E7D8;}
	.st2{fill:#76CFB1;}
	.st3{fill:#AE6B5D;}
	.st4{fill:#7770D3;}
	.st5{fill:#5BA0F5;}
	.st6{fill:#DA4545;}
	.st7{fill:#89CCFC;}
	.st8{fill:#CD462A;}
	.st9{fill:#514896;}
	.st10{fill:#5493A0;}
	.st11{fill:#CC6B5C;}
	.st12{fill:#62AA8D;}
	.st13{fill:#8ABAAB;}
	.st14{fill:#C3791F;}
	.st15{fill:#E39123;}
	.st16{fill:#FFFFFF;}
	.st17{fill:none;stroke:#FFFFFF;stroke-width:10;stroke-linecap:round;stroke-miterlimit:10;}
	.st18{fill:none;stroke:#5F55AB;stroke-width:10;stroke-linecap:round;stroke-miterlimit:10;}
	.st19{fill:#A9671C;}
	.st20{fill:#D5B3A7;}
	.st21{fill:#C09A8F;}
	.st22{fill:#487F87;}
	.st23{fill:#1B305C;}
	.st24{fill:#172945;}
	.st25{fill:none;}
	.st26{fill:#B62A2A;}
	.st27{fill:#325859;}
	.st28{fill:#3F6E71;}
	.st29{fill:#284646;}
	.st30{fill:#8F2727;}
	.st31{fill:#29477C;}
	.st32{fill:#5B9BEE;}
	.st33{fill:#487FDE;}
	.st34{fill:#CD9829;}
	.st35{fill:#9F2A2A;}
	.st36{fill:#4C3328;}
	.st37{fill:#E8B94A;}
	.st38{fill:#DDF8F1;}
	.st39{fill:#3E2A22;}
	.st40{fill:#D3A971;}
	.st41{fill:#C79A5B;}
	.st42{fill:#233E76;}
	.st43{fill:#21395F;}
	.st44{fill:#487D82;}
	.st45{fill:none;stroke:#C79A5B;stroke-width:10;stroke-linecap:round;stroke-miterlimit:10;}
	.st46{fill:#5E3E31;}
	.st47{fill:#AC3939;}
	.st48{fill:#CA9628;}
	.st49{fill:#AF8F88;}
	.st50{fill:#815048;}
	.st51{fill:#6F4232;}
	.st52{fill:#5F55AB;}
	.st53{fill:#192A48;}
	.st54{fill:#152336;}
	.st55{fill:#192B49;}
	.st56{fill:#264173;}
	.st57{fill:#B06F1E;}
	.st58{fill:#4E88C0;}
	.st59{fill:#83C3F1;}
	.st60{fill:#CF9929;}
	.st61{fill:none;stroke:#FFFFFF;stroke-width:10;stroke-linecap:round;stroke-linejoin:round;stroke-miterlimit:10;}
	.st62{fill:#EAC262;}
	.st63{fill:#D6D5D4;}
	.st64{fill:#6BBA9B;}
	.st65{fill:#63AA8F;}
	.st66{fill:none;stroke:#3E2A22;stroke-width:10;stroke-linecap:round;stroke-miterlimit:10;}
	.st67{fill:#CA7D1F;}
	.st68{fill:#213B64;}
	.st69{fill:#CDF8EC;}
	.st70{fill:#C59125;}
	.st71{fill:none;stroke:#C09A8F;stroke-width:10;stroke-linecap:round;stroke-miterlimit:10;}
	.st72{fill:#32579B;}
	.st73{fill:#172843;}
	.st74{fill:#D66767;}
	.st75{fill:#A74949;}
	.st76{fill:#EBC76F;}
	.st77{fill:#7A4940;}
	.st78{fill:#182A48;}
	.st79{fill:none;stroke:#A0794A;stroke-width:10;stroke-linecap:round;stroke-miterlimit:10;}
	.st80{fill:#C37A20;}
	.st81{fill:#D26D5C;}
	.st82{fill:#A45752;}
	.st83{fill:#284579;}
	.st84{fill:#88C7F4;}
	.st85{fill:#6EB6F0;}
	.st86{fill:#32221E;}
	.st87{fill:#E7A6A6;}
	.st88{fill:#C59191;}
	.st89{fill:#AA3B3B;}
	.st90{fill:#B83E3E;}
	.st91{fill:none;stroke:#5F55A9;stroke-width:10;stroke-linecap:round;stroke-miterlimit:10;}
	.st92{fill:#963838;}
	.st93{fill:#402B25;}
	.st94{fill:#6B6ABA;}
	.st95{fill:#BABABA;}
	.st96{fill:#D1D1D1;}
	.st97{fill:#264377;}
	.st98{fill:#A19BF5;}
	.st99{fill:#3C2A21;}
	.st100{fill:none;stroke:#4C3328;stroke-width:10;stroke-linecap:round;stroke-miterlimit:10;}
	.st101{fill:#C1781F;}
	.st102{fill:#E3A147;}
	.st103{fill:#F2D2A1;}
	.st104{fill:#4F372D;}
	.st105{fill:none;stroke:#DA4545;stroke-width:10;stroke-linecap:round;stroke-miterlimit:10;}
	.st106{fill:#AA3928;}
	.st107{fill:#8C2C22;}
	.st108{fill:#BF4336;}
	.st109{fill:#5797D4;}
	.st110{fill:#CFCFCF;}
	.st111{fill:#613A2E;}
	.st112{fill:none;stroke:#B18653;stroke-width:10;stroke-linecap:round;stroke-miterlimit:10;}
	.st113{fill:#B13B3B;}
	.st114{fill:#16263A;}
	.st115{fill:none;stroke:#16263A;stroke-width:10;stroke-miterlimit:10;}
	.st116{fill:#C87D20;}
	.st117{fill:#E4F0FD;}
	.st118{fill:#AA3737;}
	.st119{fill:#BF771F;}
	.st120{fill:none;stroke:#CD462A;stroke-width:10;stroke-linejoin:round;stroke-miterlimit:10;}
	.st121{fill:#5696D2;}
	.st122{fill:#C0771E;}
	.st123{fill:#9B5F1B;}
	.st124{fill:#A83A29;}
	.st125{fill:#E7A74F;}
	.st126{fill:#C9924C;}
	.st127{fill:#C58E48;}
	.st128{fill:#BE8844;}
	.st129{fill:#916939;}
	.st130{fill:#264275;}
	.st131{fill:#253F65;}
	.st132{fill:#182A45;}
	.st133{fill:#162336;}
	.st134{fill:#93C7B7;}
	.st135{fill:#E6A4A4;}
	.st136{fill:#B06B1D;}
	.st137{fill:#484185;}
	.st138{fill:#DB6E6E;}
	.st139{fill:#6BBA9A;}
	.st140{fill:#CACCCC;}
	.st141{fill:#D4D4D4;}
	.st142{fill:#A98881;}
	.st143{fill:#213A62;}
	.st144{fill:#A2837D;}
	.st145{fill:#6FB8F4;}
	.st146{fill:#9B9E9E;}
	.st147{fill:#B2B3B3;}
	.st148{fill:#20385D;}
	.st149{fill:#335AA8;}
	.st150{fill:#BCE7FD;}
	.st151{fill:#3B2921;}
	.st152{fill:#AD3C3C;}
	.st153{fill:#9D3838;}
	.st154{fill:#603F33;}
	.st155{fill:#4D868B;}
	.st156{fill:#A2DDFD;}
	.st157{fill:#ECB6B6;}
	.st158{fill:#E8A346;}
	.st159{fill:#514C94;}
	.st160{fill:#D2F1E8;}
	.st161{fill:#BDD6CE;}
	.st162{fill:#B93B29;}
	.st163{fill:#E0AD70;}
	.st164{fill:#C57C21;}
	.st165{fill:#EDA34A;}
	.st166{fill:#2F538F;}
	.st167{fill:#2B4B78;}
	.st168{fill:#65AF91;}
	.st169{fill:#A7CEFC;}
	.st170{fill:#98BDE2;}
	.st171{fill:#CFE5F7;}
	.st172{fill:#5492CD;}
	.st173{fill:#97CCBC;}
	.st174{fill:#5491CA;}
	.st175{fill:#EDC563;}
	.st176{fill:#423C79;}
	.st177{fill:#D3B1A5;}
	.st178{fill:#BE988D;}
	.st179{fill:#A7E5D6;}
	.st180{fill:#F2FFF9;}
	.st181{fill:#D64545;}
	.st182{fill:#A73B3B;}
	.st183{fill:#15233A;}
	.st184{fill:none;stroke:#BE988D;stroke-width:10;stroke-linecap:round;stroke-miterlimit:10;}
	.st185{fill:#AF3A29;}
	.st186{fill:#FAF9FF;}
	.st187{fill:#CACACC;}
	.st188{fill:#372720;}
	.st189{fill:#3F2C26;}
	.st190{fill:#2D201C;}
	.st191{fill:#3D6D6F;}
	.st192{fill:#5B54A8;}
	.st193{fill:#325799;}
	.st194{fill:#E8C26E;}
	.st195{fill:#254784;}
	.st196{fill:#5696D4;}
	.st197{fill:#4F8AB6;}
	.st198{fill:#5FA4AC;}
	.st199{fill:#AA3524;}
	.st200{fill:#D15F4D;}
	.st201{fill:#2B294C;}
	.st202{fill:#A43A2A;}
	.st203{fill:#E7AE2D;}
	.st204{fill:#CD9729;}
	.st205{fill:none;stroke:#AA8253;stroke-width:10;stroke-linecap:round;stroke-miterlimit:10;}
	.st206{fill:none;stroke:#E18F23;stroke-width:10;stroke-linecap:round;stroke-linejoin:round;stroke-miterlimit:10;}
	.st207{fill:#CF9828;}
	.st208{fill:#B88926;}
	.st209{fill:#A17623;}
	.st210{fill:#96CCBC;}
	.st211{fill:#CF9A2A;}
	.st212{fill:#C57B20;}
	.st213{fill:#C7F1E6;}
	.st214{fill:#DC6363;}
	.st215{fill:#E89F9F;}
	.st216{fill:#C88C8C;}
	.st217{fill:#C16E6E;}
	.st218{fill:#A46060;}
	.st219{fill:#AA3626;}
	.st220{fill:#87EDC4;}
	.st221{fill:#D86552;}
	.st222{fill:#BC7620;}
	.st223{fill:#BA741E;}
	.st224{fill:#8F8CE3;}
	.st225{fill:#3A2820;}
	.st226{fill:#AC7060;}
	.st227{fill:#915F55;}
	.st228{fill:#49332A;}
	.st229{fill:#2D1F1B;}
	.st230{fill:#69B7BE;}
	.st231{fill:#D6D6D6;}
	.st232{fill:#B8B8B8;}
	.st233{fill:#CACACA;}
	.st234{fill:#467B80;}
	.st235{fill:#C2EDE2;}
	.st236{fill:#A9574F;}
	.st237{fill:#5595D2;}
	.st238{fill:#955949;}
	.st239{fill:#7E4B42;}
	.st240{fill:#89CCF1;}
	.st241{fill:#DD584A;}
	.st242{fill:#C18F26;}
	.st243{fill:#B33C2A;}
	.st244{fill:#D1A771;}
	.st245{fill:#B42A2A;}
	.st246{fill:#325797;}
	.st247{fill:#9F3529;}
	.st248{fill:#EDCE80;}
	.st249{fill:#F0DBAC;}
	.st250{fill:#CFB478;}
	.st251{fill:#D4C29B;}
	.st252{fill:#993939;}
	.st253{fill:#D1AFA3;}
	.st254{fill:#BC968B;}
	.st255{fill:none;stroke:#BC968B;stroke-width:10;stroke-linecap:round;stroke-miterlimit:10;}
	.st256{fill:#814C3C;}
	.st257{fill:#C0EBE0;}
	.st258{fill:#A5E3D4;}
	.st259{fill:#15243C;}
	.st260{fill:#443E79;}
	.st261{fill:#F0FFF7;}
	.st262{fill:#9A764B;}
	.st263{fill:#826443;}
	.st264{fill:#D9AA74;}
	.st265{fill:#5DA186;}
	.st266{fill:#68B596;}
	.st267{fill:#E5C6BE;}
	.st268{fill:#D3B6B1;}
	.st269{fill:none;stroke:#BAA09C;stroke-width:10;stroke-linecap:round;stroke-miterlimit:10;}
	.st270{fill:#F4D78F;}
	.st271{fill:#20385F;}
	.st272{fill:#BA8727;}
	.st273{fill:#5A9C82;}
	.st274{fill:none;stroke:#E39123;stroke-width:10;stroke-linecap:round;stroke-linejoin:round;stroke-miterlimit:10;}
	.st275{fill:#60392D;}
	.st276{fill:#CCCCCC;}
	.st277{fill:#844F3E;}
	.st278{fill:#F3FFFB;}
	.st279{fill:#365E60;}
	.st280{fill:#D84545;}
	.st281{fill:#A83B3B;}
	.st282{fill:#253F70;}
	.st283{fill:#EAADAD;}
	.st284{fill:#443E7C;}
	.st285{fill:#3D6B9F;}
	.st286{fill:#4274BC;}
	.st287{fill:#AF3827;}
	.st288{fill:#E59D9D;}
	.st289{fill:#C48989;}
	.st290{fill:none;stroke:#9B621A;stroke-width:10;stroke-linecap:round;stroke-linejoin:round;stroke-miterlimit:10;}
	.st291{fill:#213A5E;}
	.st292{fill:#2D507A;}
	.st293{fill:#528EC8;}
	.st294{fill:#EFD696;}
	.st295{fill:#D1BA87;}
	.st296{fill:#FDFCFC;}
	.st297{fill:#86CBFC;}
	.st298{fill:#7AB7DA;}
	.st299{fill:#192C4C;}
	.st300{fill:#BCBCBC;}
	.st301{fill:#A13838;}
	.st302{fill:#75BDF6;}
	.st303{fill:#D0B1AA;}
	.st304{fill:#142233;}
	.st305{fill:#E6C4BB;}
	.st306{fill:#BDBDBD;}
	.st307{fill:#E8A192;}
	.st308{fill:#A43939;}
	.st309{fill:#162640;}
	.st310{fill:#27457C;}
	.st311{fill:#EFBE5E;}
	.st312{fill:#87EDC5;}
	.st313{fill:#A03838;}
	.st314{fill:#833232;}
	.st315{fill:#47417F;}
	.st316{fill:none;stroke:#915F55;stroke-width:10;stroke-linecap:round;stroke-miterlimit:10;}
	.st317{fill:#BC8B25;}
	.st318{fill:#473129;}
	.st319{fill:#67B394;}
	.st320{fill:#599A80;}
	.st321{fill:#B13D3D;}
</style>
<g id="BULINE">
	<circle id="XMLID_1292_" class="st5" cx="256" cy="256" r="256"/>
	<g>
	</g>
</g>
<g id="Icons">
	<g id="XMLID_1369_">
		<path id="XMLID_2072_" class="st121" d="M483.5,373.5c-18.1,35-44.1,65.3-75.6,88.6c-4.9,3.6-10,7.1-15.2,10.4
			c-3.8,2.4-7.8,4.8-11.8,7c-4.8,2.7-9.7,5.2-14.6,7.6c-5.9,2.8-11.9,5.4-18,7.8c-4.9,1.9-10,3.7-15,5.3c-17.9,5.7-36.6,9.4-56,11
			c-7,0.6-14.2,0.9-21.3,0.9h-0.2c-3.4,0-6.7-0.1-10-0.2c-6.2-0.2-12.4-0.7-18.5-1.4c-19.4-2.2-38.2-6.5-56-12.8
			c-0.5-0.2-1-0.3-1.5-0.5c-4.2-1.5-8.4-3.1-12.6-4.9c-2.3-1-4.6-1.9-6.8-3c-5.1-2.3-10.2-4.8-15.1-7.4c-5-2.7-9.8-5.5-14.6-8.5
			c-0.2-0.1-0.4-0.3-0.6-0.4c-2-1.2-3.9-2.5-5.8-3.8c-5.1-3.4-10.2-7-15-10.8C38.9,411.6,0,338.3,0,256c0-63.4,23-121.4,61.2-166.1
			c5.9,13.7,16.5,36.7,32.1,62.9c1.1,1.8,2.2,3.6,3.3,5.5c8.4,13.8,18.2,28.3,29.3,42.7c4.4,5.7,9,11.3,13.8,16.9
			c2.3,2.7,4.7,5.4,7.1,8l0,0c1.2,1.3,2.5,2.7,3.7,4c7.1,7.6,14.7,15,22.6,22c14.7,13,30.9,24.9,48.5,34.6c0.1,0.1,0.3,0.1,0.4,0.2
			c6.6,3.7,13.4,7,20.4,10c5.7,2.4,11.5,4.6,17.4,6.6c6.4,2.1,12.9,3.9,19.6,5.4c11.1,2.5,22.7,4.1,34.7,4.6
			c3.3,0.2,6.6,0.2,9.9,0.2c0,0,38.4,5.3,80,18.8C432.9,341.7,463.3,355.1,483.5,373.5z"/>
		<path id="XMLID_1697_" class="st22" d="M331,387.7c41.9,4.2,69.1-20.6,80.8-34.5c3.5-4.2,1.8-10.6-3.3-12.4h0
			c-6.4-2.3-6.1-11.5,0.5-13.3l17.3-4.8c19.7-12,34.7-33.8,43.1-48c3.2-5.4-1.5-12-7.6-10.8l-13.9,2.7c-5.1,1-8.3-5.4-4.3-8.8
			l30.8-26.4c15.2-29.3,2.4-86-0.7-98.3l0,0c0,0,0.8-0.2,0,0c-0.2-0.8,0,0,0,0l-1.2,0.4c-12,3.8-66,21.9-83.1,50.2l-6.5,40
			c-0.8,5.2-8,5.8-9.8,0.9l-4.9-13.3c-2.2-5.9-10.2-6.4-13.2-0.9c-7.8,14.5-18.6,38.8-18.6,61.8l4.9,17.2c1.9,6.6-5.8,11.6-11.1,7.3
			l0,0c-4.2-3.4-10.6-1.6-12.3,3.6c-5.8,17.2-12.8,53.3,12.6,86.9L331,387.7z"/>
		<path id="XMLID_1696_" class="st22" d="M179.4,384.1c25.8-33.3,19.1-69.5,13.6-86.8c-1.7-5.2-8-7.1-12.3-3.8l0,0
			c-5.3,4.2-13-0.9-11-7.5l5.1-17.2c0.3-23-10.2-47.4-17.8-62c-2.9-5.5-11-5.1-13.2,0.8l-5.1,13.3c-1.9,4.9-9,4.1-9.8-1.1l-6-40.1
			c-16.7-28.5-71.7-47.6-83.7-51.5l0,0c0,0,0.2-0.8,0,0c-0.8-0.3,0,0,0,0l-0.3,1.2c-3.2,12.2-16.4,67.6-1.5,97.1l30.5,26.8
			c3.9,3.4,0.7,9.9-4.4,8.8l-13.9-2.9c-6.1-1.3-10.9,5.3-7.8,10.7c8.2,14.3,23,36.3,42.5,48.5l17.2,5c6.5,1.9,6.8,11.1,0.3,13.3l0,0
			c-5.2,1.8-7,8.2-3.5,12.4c11.5,14,38.4,39.2,80.3,35.5L179.4,384.1z"/>
		<g id="XMLID_1551_">
			<path id="XMLID_1692_" class="st20" d="M258.1,345h-14.7c-11.8,0-21.4-9.6-21.4-21.4v-35.2c0-11.8,9.6-21.4,21.4-21.4h14.7
				c11.8,0,21.4,9.6,21.4,21.4v35.2C279.5,335.4,269.9,345,258.1,345z"/>
			<path id="XMLID_1691_" class="st21" d="M260.8,344.8c-1,0.1-2,0.2-3.1,0.2H243c-11.8,0-21.4-9.6-21.4-21.4v-35.2
				c0-11.8,9.6-21.4,21.4-21.4h14.7c1,0,2.1,0.1,3.1,0.2c-10.3,1.5-18.3,10.4-18.3,21.2v35.2C242.5,334.4,250.5,343.3,260.8,344.8z"
				/>
			<path id="XMLID_1695_" class="st122" d="M366.7,225.9h-233c-17.6,0-32.4-15.9-34.3-36.8l-4.1-45.3c-1.4-15.5,8.8-29,21.8-29
				h266.2c13,0,23.2,13.5,21.8,29l-4.1,45.3C399.1,210,384.3,225.9,366.7,225.9z"/>
			<path id="XMLID_1694_" class="st123" d="M217.9,225.9h-84.1c-17.6,0-32.5-15.9-34.3-36.8l-4.1-45.3c-1.4-15.5,8.8-29,21.8-29
				h84.1c-13,0-23.2,13.5-21.8,29l4.1,45.3C185.4,210,200.2,225.9,217.9,225.9z"/>
			<path id="XMLID_2046_" class="st51" d="M381,371.7v107.8c-4.8,2.7-9.7,5.2-14.6,7.6c-5.9,2.8-11.9,5.4-18,7.8
				c-4.9,1.9-10,3.7-15,5.3c-17.9,5.7-36.6,9.4-56,11c-7,0.6-14.2,0.9-21.3,0.9h-0.2c-3.4,0-6.7-0.1-10-0.2
				c-6.2-0.2-12.4-0.7-18.5-1.4c-19.4-2.2-38.2-6.5-56-12.8c-0.5-0.2-1-0.3-1.5-0.5c-4.2-1.5-8.4-3.1-12.6-4.9c-2.3-1-4.6-1.9-6.8-3
				c-5.1-2.3-10.2-4.8-15.1-7.4c-5-2.7-9.8-5.5-14.6-8.5c-0.2-0.1-0.4-0.3-0.6-0.4V371.7c0-0.8,0-1.6,0.1-2.4
				c1.2-24.2,21.2-43.4,45.7-43.4h169.4C360.5,325.9,381,346.4,381,371.7z"/>
			<path id="XMLID_1784_" class="st36" d="M196.2,325.9c-11.7,0-22.3,4.4-30.4,11.5c-7.6,6.7-12.9,16-14.7,26.4
				c-0.4,2.5-0.7,5.1-0.7,7.8v117.6c-5.1-2.3-10.2-4.8-15.1-7.4c-5-2.7-9.8-5.5-14.6-8.5V371.7c0-0.6,0-1.3,0-1.9
				c1-24.4,21.1-43.8,45.7-43.8H196.2z"/>
			<path id="XMLID_1653_" class="st20" d="M366.2,171.8c-2.5-2.1-5.7-3.3-9.2-3.3h-2.4v-16.3c0-5-0.4-10-1-14.8
				c-9.8,5.8-21.3,9.2-33.6,9.2c-24.2,0-45.3-13-56.8-32.3c-12.8,27.6-40.7,46.8-73.2,46.8c-2.3,0-4.5-0.1-6.7-0.3v35.9v2.7
				c0,51.2,37,93.9,85.7,102.6c45-8.1,79.9-45,85-90.9h3.1c8,0,14.4-6.5,14.4-14.4v-13.8C371.4,178.4,369.4,174.4,366.2,171.8z"/>
			<path id="XMLID_1652_" class="st21" d="M183.2,199.4v-2.7v-35.9c-13.6-1.1-26.3-5.6-37.2-12.7c-0.1,1.4-0.1,2.7-0.1,4.1v16.3h-2
				c-3.8,0-7.3,1.5-9.8,3.9c-2.8,2.6-4.6,6.4-4.6,10.5v13.8c0,8,6.5,14.4,14.4,14.4h2.6c0,0,0,0,0,0c1,8.9,3.1,17.5,6.2,25.5
				c0,0.1,0,0.1,0.1,0.2c0.3,0.7,0.5,1.3,0.8,2c0,0.1,0.1,0.2,0.1,0.3c0.3,0.6,0.5,1.3,0.8,1.9c0,0.1,0.1,0.2,0.1,0.3
				c0.3,0.6,0.6,1.2,0.8,1.9c0.1,0.1,0.1,0.2,0.2,0.3c0.3,0.6,0.6,1.2,0.9,1.8c0.1,0.1,0.1,0.2,0.2,0.3c0.3,0.6,0.6,1.2,0.9,1.8
				c0,0.1,0.1,0.2,0.1,0.3c0.3,0.6,0.7,1.2,1,1.8c0,0.1,0.1,0.1,0.1,0.2c2.2,4,4.7,7.8,7.3,11.5c0.1,0.1,0.1,0.2,0.2,0.3
				c0.4,0.5,0.7,1,1.1,1.4c0.1,0.2,0.2,0.3,0.4,0.5c0.3,0.4,0.7,0.9,1,1.3c0.2,0.2,0.3,0.4,0.5,0.6c0.3,0.4,0.7,0.8,1,1.2
				c0.2,0.2,0.4,0.4,0.6,0.7c0.3,0.4,0.7,0.8,1,1.1c0.2,0.2,0.4,0.5,0.6,0.7c0.3,0.4,0.6,0.7,1,1.1c0.2,0.2,0.4,0.5,0.7,0.7
				c0.3,0.3,0.6,0.7,1,1c0.2,0.2,0.5,0.5,0.7,0.7c0.3,0.3,0.6,0.6,1,1c0.3,0.3,0.5,0.5,0.8,0.7c0.3,0.3,0.6,0.6,1,0.9
				c0.3,0.3,0.5,0.5,0.8,0.8c0.3,0.3,0.6,0.6,0.9,0.9c0.3,0.3,0.6,0.5,0.9,0.8c0.3,0.3,0.6,0.5,0.9,0.8c0.3,0.3,0.7,0.6,1,0.9
				c0.3,0.2,0.6,0.5,0.8,0.7c0.5,0.4,1,0.8,1.6,1.3c0.2,0.2,0.4,0.3,0.6,0.4c0.5,0.4,1.1,0.9,1.7,1.3c0.2,0.2,0.4,0.3,0.7,0.5
				c0.4,0.3,0.9,0.6,1.3,1c0.2,0.2,0.5,0.3,0.7,0.5c0.4,0.3,0.8,0.6,1.3,0.9c0.3,0.2,0.5,0.3,0.8,0.5c0.4,0.3,0.8,0.6,1.3,0.8
				c0.3,0.2,0.5,0.3,0.8,0.5c0.4,0.3,0.9,0.5,1.3,0.8c0.3,0.2,0.5,0.3,0.8,0.5c0.4,0.3,0.9,0.5,1.3,0.8c0.3,0.2,0.5,0.3,0.8,0.5
				c0.4,0.3,0.9,0.5,1.3,0.8c0.3,0.1,0.5,0.3,0.8,0.4c0.5,0.2,0.9,0.5,1.4,0.7c0.3,0.1,0.5,0.3,0.8,0.4c0.5,0.2,1,0.5,1.5,0.7
				c0.2,0.1,0.5,0.2,0.7,0.4c0.5,0.2,1,0.5,1.6,0.7c0.2,0.1,0.4,0.2,0.7,0.3c0.6,0.3,1.1,0.5,1.7,0.7c0.2,0.1,0.4,0.2,0.5,0.2
				c0.7,0.3,1.3,0.6,2,0.8c0.1,0,0.2,0.1,0.3,0.1c2.3,0.9,4.7,1.8,7.2,2.5c0.1,0,0.1,0,0.2,0.1c0.7,0.2,1.5,0.4,2.2,0.7
				c0.2,0,0.3,0.1,0.5,0.1c0.6,0.2,1.3,0.4,1.9,0.5c0.2,0.1,0.4,0.1,0.6,0.2c0.6,0.2,1.2,0.3,1.8,0.4c0.2,0.1,0.5,0.1,0.7,0.2
				c0.6,0.1,1.2,0.3,1.8,0.4c0.2,0,0.5,0.1,0.7,0.1c0.6,0.1,1.2,0.2,1.8,0.3c0.2,0,0.5,0.1,0.7,0.1c0.6,0.1,1.2,0.2,1.8,0.3
				c0.2,0,0.5,0.1,0.7,0.1c0.6,0.1,1.2,0.2,1.8,0.3c0.2,0,0.5,0.1,0.7,0.1c0.6,0.1,1.3,0.1,1.9,0.2c0.2,0,0.4,0,0.7,0.1
				c0.7,0.1,1.3,0.1,2,0.2c0.2,0,0.4,0,0.6,0c0.7,0.1,1.5,0.1,2.2,0.1c0.1,0,0.2,0,0.3,0c1.8,0.1,3.5,0.1,5.3,0.1h0
				c0.1,0,0.2,0,0.2,0c1.4,0,2.8,0,4.1-0.1c0.2,0,0.4,0,0.5,0c1.4-0.1,2.7-0.2,4.1-0.3c0.2,0,0.4,0,0.6-0.1c1.3-0.1,2.7-0.3,4-0.5
				c0.2,0,0.4-0.1,0.6-0.1c1.3-0.2,2.7-0.4,4-0.6c0.1,0,0.2,0,0.3-0.1C220.2,293.2,183.2,250.6,183.2,199.4z"/>
			<path id="XMLID_1650_" class="st8" d="M365.7,116.4c-0.1-0.5-0.1-1.1-0.2-1.6c-1-7.7-3-15-5.9-21.9
				c-13.1-31.6-44.2-53.8-80.5-53.8h-57.9c-7.7,0-15.2,1-22.3,2.9c-26.4,7-47.9,26-58.2,50.9c-2.9,6.9-4.9,14.3-5.9,21.9
				c-0.1,0.5-0.1,1.1-0.2,1.6c0,0.1,0,0.2,0,0.3c-0.3,3.1-0.5,6.3-0.5,9.5v46.2c0.6-0.6,1.3-1.2,2.1-1.6c1.3-0.8,2.8-1.5,4.3-1.9
				c1.1-0.3,2.3-0.4,3.4-0.4h2v-16.3c0-0.7,0-1.4,0-2c0-0.7,0-1.4,0.1-2.1v0c2.7,1.8,5.5,3.4,8.5,4.8c8.1,4,17,6.6,26.4,7.7
				c0.8,0.1,1.5,0.2,2.3,0.2h0c1.1,0.1,2.2,0.2,3.3,0.2c0.9,0,1.9,0.1,2.8,0.1c0.2,0,0.4,0,0.6,0c0.5,0,1,0,1.6,0
				c10.3-0.2,20.2-2.3,29.2-6.1c6.9-2.8,13.3-6.6,19-11.2c9.8-7.7,17.8-17.7,23.1-29.1c0.1-0.2,0.2-0.3,0.2-0.5
				c0.1,0.2,0.2,0.3,0.3,0.5c8.4,13.8,21.8,24.3,37.6,29.1c6,1.8,12.3,2.8,18.9,2.8c12.3,0,23.8-3.4,33.6-9.2c0.7,4.8,1,9.8,1,14.8
				v16.3h2.4c3.5,0,6.7,1.2,9.2,3.3v-45.6C366.2,122.9,366,119.6,365.7,116.4z"/>
			<path id="XMLID_1648_" class="st124" d="M221.3,39.1c-7.7,0-15.2,1-22.3,2.9c-26.4,7-47.9,26-58.2,50.9
				c-2.9,6.9-4.9,14.3-5.9,21.9c-0.1,0.5-0.1,1.1-0.2,1.6c0,0.1,0,0.2,0,0.3c-0.3,3.1-0.5,6.3-0.5,9.5v46.2c0.6-0.6,1.3-1.2,2.1-1.6
				c1.3-0.8,2.8-1.5,4.3-1.9c1.1-0.3,2.3-0.4,3.4-0.4h2v-16.3c0-0.7,0-1.3,0-2c0-0.7,0-1.4,0.1-2.1c2.7,1.8,5.5,3.4,8.5,4.8
				c8.1,4,17,6.6,26.4,7.7c0.8,0.1,1.5,0.2,2.3,0.2h0c1.1,0.1,2.2,0.2,3.3,0.2c0.9,0,1.9,0.1,2.8,0.1c0.2,0,0.4,0,0.6,0
				c0.5,0,1,0,1.6,0v-34.9c0-3,0.1-6,0.4-8.9c0.1-0.8,0.2-1.6,0.3-2.4c1-7.7,3-15,5.9-21.9c13.1-31.6,44.2-53.8,80.5-53.8H221.3z"/>
			<circle id="XMLID_1647_" class="st23" cx="199.6" cy="182.8" r="14.3"/>
			<circle id="XMLID_1646_" class="st16" cx="203.3" cy="178.1" r="6.3"/>
			<circle id="XMLID_1645_" class="st23" cx="299.9" cy="182.8" r="14.3"/>
			<circle id="XMLID_1644_" class="st16" cx="303.6" cy="178.1" r="6.3"/>
			<path id="XMLID_1643_" class="st21" d="M256,215.7h-12.9c-4.3,0-7.7-3.4-7.7-7.7v0c0-4.3,3.4-7.7,7.7-7.7H256
				c4.3,0,7.7,3.4,7.7,7.7v0C263.7,212.2,260.2,215.7,256,215.7z"/>
			<path id="XMLID_1642_" class="st71" d="M238.2,243.8c6.2,6.2,16.4,6.2,22.6,0"/>
			<line id="XMLID_1604_" class="st71" x1="238.7" y1="264.2" x2="260.4" y2="264.2"/>
			<path id="XMLID_1603_" class="st15" d="M366.2,114.8h-232l3.5-21.9l6.7-41.9c2.8-17.3,17.7-30,35.2-30h141.1
				c17.5,0,32.5,12.7,35.2,30l6.7,41.9L366.2,114.8z"/>
			<path id="XMLID_1602_" class="st125" d="M330.2,143.9h-160c-15.6,0-29.4-9.9-34.5-24.6l-1.5-4.5h232l-1.5,4.5
				C359.6,134,345.8,143.9,330.2,143.9z"/>
			<path id="XMLID_1601_" class="st119" d="M231.5,20.9c-17.5,0-32.5,12.7-35.2,30l-10.2,63.8h-52L144.3,51
				c2.8-17.3,17.7-30,35.2-30H231.5z"/>
			<path id="XMLID_1600_" class="st126" d="M222.1,143.9h-52c-15.6,0-29.4-9.9-34.5-24.6l-1.5-4.5h52l1.5,4.5
				C192.7,134,206.5,143.9,222.1,143.9z"/>
			<polygon id="XMLID_1599_" class="st51" points="366.2,114.8 134.2,114.8 137.7,92.9 362.7,92.9 			"/>
			<path id="XMLID_1976_" class="st125" d="M366.3,441.7v45.3c-5.9,2.8-11.9,5.4-18,7.8c-4.9,1.9-10,3.7-15,5.3
				c-17.9,5.7-36.6,9.4-56,11c-7,0.6-14.2,0.9-21.3,0.9h-0.2c-3.4,0-6.7-0.1-10-0.2c-6.2-0.2-12.4-0.7-18.5-1.4
				c-19.4-2.2-38.2-6.5-56-12.8c-0.5-0.2-1-0.3-1.5-0.5c-4.2-1.5-8.4-3.1-12.6-4.9c-2.3-1-4.6-1.9-6.8-3c-5.1-2.3-10.2-4.8-15.1-7.4
				v-40.1c0-6.6,3.9-12.5,10-15.1l5.1-2.2l3.1-1.3l5.4-2.3c2.7-1.1,4.8-3.3,5.9-5.8c0.6-1.4,1-2.9,1-4.5v-80.1
				c0-1.6,0.5-3.2,1.3-4.5c1.5-2.4,4.2-4,7.2-4h33c0.2,0,0.5,0,0.7,0c2.7,0.2,5.1,1.7,6.5,4c0.5,0.7,0.8,1.5,1,2.4l11.1,43.2
				l7.3,28.1l0.9,3.6l1.9,7.2l1.4,5.4c0.3,1.4,1,2.6,1.9,3.7l5.8,6.6l5,5.8l5-5.8l5.8-6.6c0.9-1.1,1.6-2.3,1.9-3.7l1.4-5.4l1.3-5.1
				l0,0l1.5-5.7l7.5-29.2v0l10.8-42.1c0.2-0.9,0.6-1.6,1-2.4c1.5-2.5,4.2-4,7.2-4h33c3.1,0,5.7,1.6,7.2,4c0.8,1.3,1.3,2.8,1.3,4.5
				v80.1c0,1.5,0.3,2.9,0.8,4.2c0.5,1.2,1.2,2.4,2.1,3.4c1.1,1.1,2.4,2.1,3.9,2.7l5.2,2.2l8.5,3.6
				C362.4,429.2,366.3,435.1,366.3,441.7z"/>
			<path id="XMLID_1826_" class="st127" d="M208.1,321.9c-2.7,0.2-5.1,1.8-6.5,4c-0.8,1.3-1.3,2.8-1.3,4.5v80.1c0,1-0.1,2-0.4,3
				c-0.5,1.8-1.5,3.5-2.8,4.9c-1,1-2.2,1.9-3.6,2.5l-6,2.6h0l-4.5,1.9l-3.1,1.3c-6,2.6-10,8.5-10,15.1v55.4
				c-4.2-1.5-8.4-3.1-12.6-4.9c-2.3-1-4.6-1.9-6.8-3c-5.1-2.3-10.2-4.8-15.1-7.4v-40.1c0-6.6,3.9-12.5,10-15.1l5.1-2.2l3.1-1.3
				l5.4-2.3c2.7-1.1,4.8-3.3,5.9-5.8c0.6-1.4,1-2.9,1-4.5v-80.1c0-1.6,0.5-3.2,1.3-4.5c1.5-2.4,4.2-4,7.2-4h33
				C207.6,321.9,207.8,321.9,208.1,321.9z"/>
			<path id="XMLID_1736_" class="st128" d="M255.8,426.1V512c-3.4,0-6.7-0.1-10-0.2v-85.7c1.3,1.5,3.2,2.3,5,2.3
				C252.7,428.4,254.5,427.6,255.8,426.1z"/>
			<path id="XMLID_1734_" class="st128" d="M227.3,483.9v26.5c-19.4-2.2-38.2-6.5-56-12.8v-13.8H227.3z"/>
			<path id="XMLID_1593_" class="st129" d="M171.3,470.1v13.8l24.9,9.3c2,0.8,4.2,0.8,6.2,0l24.9-9.3v-13.8c0-2.9-2.4-5.2-5.2-5.2
				h-45.5C173.7,464.9,171.3,467.2,171.3,470.1z"/>
			<path id="XMLID_1733_" class="st128" d="M333.3,483.9v16.2c-17.9,5.7-36.6,9.4-56,11v-27.2H333.3z"/>
			<path id="XMLID_1552_" class="st129" d="M277.3,470.1v13.8l24.9,9.3c2,0.8,4.2,0.8,6.2,0l24.9-9.3v-13.8c0-2.9-2.4-5.2-5.2-5.2
				h-45.5C279.7,464.9,277.3,467.2,277.3,470.1z"/>
		</g>
		<path id="XMLID_1788_" class="st20" d="M168.8,399.6l-0.1,0.9l-0.7,5.4l-1.2,9.8l-1.2,9.6l-2.5,20.3l-2.4,19.3l-3.4,27.3
			c-2.3-1-4.6-1.9-6.8-3c-5.1-2.3-10.2-4.8-15.1-7.4c-5-2.7-9.8-5.5-14.6-8.5c-0.2-0.1-0.4-0.3-0.6-0.4c-2-1.2-3.9-2.5-5.8-3.8
			c-5.1-3.4-10.2-7-15-10.8l20.8-41.1l0.6-1.3l8.9-17.6l20.8,0.6l15.4,0.4l0.9,0L168.8,399.6z"/>
		<path id="XMLID_1745_" class="st20" d="M407.9,462.1c-4.9,3.6-10,7.1-15.2,10.4c-3.8,2.4-7.8,4.8-11.8,7
			c-4.8,2.7-9.7,5.2-14.6,7.6c-5.9,2.8-11.9,5.4-18,7.8l-4.3-34l-5.3-42.7l-0.5-4l-0.6-4.9l-0.4-3.2l-0.7-5.4l-0.1-0.9l39.2-1.1h0
			l5.3,10.4v0L407.9,462.1z"/>
		<g id="XMLID_1424_">
			<rect id="XMLID_1537_" x="224.7" y="399.6" class="st130" width="48.3" height="10.8"/>
			<path id="XMLID_1534_" class="st130" d="M296,362.5L296,362.5c12.4,0,23.6,7.3,28.6,18.6l16.2,32.1l-68.5,25.5l-7.2-39.1
				C261.7,380.2,276.4,362.5,296,362.5z"/>
			<path id="XMLID_1533_" class="st131" d="M283.2,399.5l6,32.8l-16.8,6.3l-7.2-39.1c-3.5-19.3,11.2-37,30.8-37c3.1,0,6.1,0.5,9,1.3
				C290.2,368.2,280.2,383.3,283.2,399.5z"/>
			<path id="XMLID_1532_" class="st130" d="M204.7,362.5L204.7,362.5c-12.4,0-23.6,7.3-28.6,18.6l-16.2,32.1l68.5,25.5l7.2-39.1
				C239.1,380.2,224.3,362.5,204.7,362.5z"/>
			<path id="XMLID_1531_" class="st131" d="M229.9,430.5l-1.5,8.1l-68.5-25.5l16.2-32.1c5-11.3,16.3-18.6,28.6-18.6
				c4.1,0,8.1,0.8,11.6,2.2c-7.5,3-13.6,8.7-17,16.3l-16.2,32.1L229.9,430.5z"/>
			<rect id="XMLID_1530_" x="209.4" y="410.4" class="st132" width="81.3" height="43"/>
			<circle id="XMLID_1529_" class="st23" cx="189.4" cy="438.6" r="39"/>
			<path id="XMLID_1515_" class="st133" d="M244.8,438.7c0,5.3-1,10.3-2.9,14.9h-16.2c1.9-4.6,2.9-9.6,2.9-14.9
				c0-11.1-4.6-21.1-12-28.2h16.2C240.2,417.7,244.8,427.7,244.8,438.7z"/>
			<circle id="XMLID_1511_" class="st1" cx="189.4" cy="438.6" r="27.2"/>
			<path id="XMLID_1509_" class="st134" d="M198.1,464.4c-2.7,0.9-5.6,1.4-8.7,1.4c-15,0-27.2-12.2-27.2-27.2s12.2-27.2,27.2-27.2
				c3,0,5.9,0.5,8.7,1.4c-10.8,3.6-18.6,13.8-18.6,25.8S187.3,460.8,198.1,464.4z"/>
			<circle id="XMLID_1508_" class="st16" cx="201.4" cy="431.9" r="8"/>
			<circle id="XMLID_1505_" class="st23" cx="312.1" cy="438.6" r="39"/>
			<circle id="XMLID_1501_" class="st1" cx="312.1" cy="438.6" r="27.2"/>
			<path id="XMLID_1447_" class="st134" d="M320.7,464.4c-2.7,0.9-5.6,1.4-8.7,1.4c-15,0-27.2-12.2-27.2-27.2s12.2-27.2,27.2-27.2
				c3,0,5.9,0.5,8.7,1.4c-10.8,3.6-18.6,13.8-18.6,25.8S309.9,460.8,320.7,464.4z"/>
			<circle id="XMLID_1444_" class="st16" cx="324.1" cy="431.9" r="8"/>
		</g>
		<path id="XMLID_1518_" class="st20" d="M309.3,400.5h66.4v-7.4c0-16.9-13.7-30.6-30.6-30.6h-25.5c-12.3,0-22.3,10-22.3,22.3v3.7
			C297.3,395.1,302.7,400.5,309.3,400.5z"/>
		<path id="XMLID_1744_" class="st21" d="M407.9,462.1c-4.9,3.6-10,7.1-15.2,10.4L381,449.3l-24.7-48.8h-46.9
			c-1.2,0-2.3-0.2-3.3-0.5c-5-1.4-8.7-6.1-8.7-11.6v-3.7c0-0.4,0-0.8,0-1.1c0-0.4,0-0.8,0.1-1.1v0c0-0.3,0.1-0.7,0.1-1.1
			c0-0.2,0.1-0.5,0.1-0.7c0-0.2,0.1-0.3,0.1-0.5c0.1-0.5,0.2-1,0.4-1.4c1.8,4.5,6.1,7.7,11.2,7.7H375c0.1,0.3,0.1,0.5,0.2,0.8
			c0.2,0.8,0.3,1.6,0.4,2.5c0,0.3,0,0.6,0.1,0.8c0.1,0.8,0.1,1.7,0.1,2.5v5.4l0,0l5.3,10.4v0L407.9,462.1z"/>
		<path id="XMLID_1520_" class="st20" d="M196,400.5h-66.4v-7.4c0-16.9,13.7-30.6,30.6-30.6h25.5c12.3,0,22.3,10,22.3,22.3v3.7
			C208.1,395.1,202.7,400.5,196,400.5z"/>
		<path id="XMLID_1782_" class="st21" d="M208.1,384.8v3.7c0,5.1-3.2,9.5-7.7,11.3c-0.9,0.3-1.9,0.6-2.8,0.7v0
			c-0.5,0.1-1,0.1-1.5,0.1h-46.9l-28.4,55.9l-0.6,1.3l-5.8,11.5c-5.1-3.4-10.2-7-15-10.8l20.8-41.1l0.6-1.3l8.9-17.6v-5.4
			c0-0.8,0-1.6,0.1-2.3c0-0.3,0-0.5,0.1-0.8c0-0.3,0.1-0.5,0.1-0.8c0-0.1,0-0.2,0-0.4c0-0.2,0-0.4,0.1-0.6c0-0.2,0.1-0.3,0.1-0.5
			c0-0.2,0.1-0.5,0.1-0.8c0-0.2,0.1-0.3,0.1-0.5H196c0.2,0,0.4,0,0.6,0c1.3-0.1,2.6-0.3,3.7-0.8c3.2-1.2,5.7-3.7,6.9-6.9
			c0.1,0.5,0.2,1,0.3,1.4c0,0.2,0.1,0.3,0.1,0.5c0,0.2,0.1,0.5,0.1,0.7c0,0.2,0.1,0.5,0.1,0.7c0,0.1,0,0.2,0,0.3c0,0.1,0,0.2,0,0.3
			c0,0.3,0.1,0.5,0.1,0.8C208.1,384,208.1,384.4,208.1,384.8z"/>
	</g>
</g>
</svg>
