<?xml version="1.0" encoding="utf-8"?>
<!-- Generator: Adobe Illustrator 22.0.1, SVG Export Plug-In . SVG Version: 6.00 Build 0)  -->
<svg version="1.1" xmlns="http://www.w3.org/2000/svg" xmlns:xlink="http://www.w3.org/1999/xlink" x="0px" y="0px"
	 viewBox="0 0 512 512" style="enable-background:new 0 0 512 512;" xml:space="preserve">
<style type="text/css">
	.st0{fill:#E9B12D;}
	.st1{fill:#A9E7D8;}
	.st2{fill:#76CFB1;}
	.st3{fill:#AE6B5D;}
	.st4{fill:#7770D3;}
	.st5{fill:#5BA0F5;}
	.st6{fill:#DA4545;}
	.st7{fill:#89CCFC;}
	.st8{fill:#CD462A;}
	.st9{fill:#514896;}
	.st10{fill:#5493A0;}
	.st11{fill:#CC6B5C;}
	.st12{fill:#62AA8D;}
	.st13{fill:#8ABAAB;}
	.st14{fill:#C3791F;}
	.st15{fill:#E39123;}
	.st16{fill:#FFFFFF;}
	.st17{fill:none;stroke:#FFFFFF;stroke-width:10;stroke-linecap:round;stroke-miterlimit:10;}
	.st18{fill:none;stroke:#5F55AB;stroke-width:10;stroke-linecap:round;stroke-miterlimit:10;}
	.st19{fill:#A9671C;}
	.st20{fill:#D5B3A7;}
	.st21{fill:#C09A8F;}
	.st22{fill:#487F87;}
	.st23{fill:#1B305C;}
	.st24{fill:#172945;}
	.st25{fill:none;}
	.st26{fill:#B62A2A;}
	.st27{fill:#325859;}
	.st28{fill:#3F6E71;}
	.st29{fill:#284646;}
	.st30{fill:#8F2727;}
	.st31{fill:#29477C;}
	.st32{fill:#5B9BEE;}
	.st33{fill:#487FDE;}
	.st34{fill:#CD9829;}
	.st35{fill:#9F2A2A;}
	.st36{fill:#4C3328;}
	.st37{fill:#E8B94A;}
	.st38{fill:#DDF8F1;}
	.st39{fill:#3E2A22;}
	.st40{fill:#D3A971;}
	.st41{fill:#C79A5B;}
	.st42{fill:#233E76;}
	.st43{fill:#21395F;}
	.st44{fill:#487D82;}
	.st45{fill:none;stroke:#C79A5B;stroke-width:10;stroke-linecap:round;stroke-miterlimit:10;}
	.st46{fill:#5E3E31;}
	.st47{fill:#AC3939;}
	.st48{fill:#CA9628;}
	.st49{fill:#AF8F88;}
	.st50{fill:#815048;}
	.st51{fill:#6F4232;}
	.st52{fill:#5F55AB;}
	.st53{fill:#192A48;}
	.st54{fill:#152336;}
	.st55{fill:#192B49;}
	.st56{fill:#264173;}
	.st57{fill:#B06F1E;}
	.st58{fill:#4E88C0;}
	.st59{fill:#83C3F1;}
	.st60{fill:#CF9929;}
	.st61{fill:none;stroke:#FFFFFF;stroke-width:10;stroke-linecap:round;stroke-linejoin:round;stroke-miterlimit:10;}
	.st62{fill:#EAC262;}
	.st63{fill:#D6D5D4;}
	.st64{fill:#6BBA9B;}
	.st65{fill:#63AA8F;}
	.st66{fill:none;stroke:#3E2A22;stroke-width:10;stroke-linecap:round;stroke-miterlimit:10;}
	.st67{fill:#CA7D1F;}
	.st68{fill:#213B64;}
	.st69{fill:#CDF8EC;}
	.st70{fill:#C59125;}
	.st71{fill:none;stroke:#C09A8F;stroke-width:10;stroke-linecap:round;stroke-miterlimit:10;}
	.st72{fill:#32579B;}
	.st73{fill:#172843;}
	.st74{fill:#D66767;}
	.st75{fill:#A74949;}
	.st76{fill:#EBC76F;}
	.st77{fill:#7A4940;}
	.st78{fill:#182A48;}
	.st79{fill:none;stroke:#A0794A;stroke-width:10;stroke-linecap:round;stroke-miterlimit:10;}
	.st80{fill:#C37A20;}
	.st81{fill:#D26D5C;}
	.st82{fill:#A45752;}
	.st83{fill:#284579;}
	.st84{fill:#88C7F4;}
	.st85{fill:#6EB6F0;}
	.st86{fill:#32221E;}
	.st87{fill:#E7A6A6;}
	.st88{fill:#C59191;}
	.st89{fill:#AA3B3B;}
	.st90{fill:#B83E3E;}
	.st91{fill:none;stroke:#5F55A9;stroke-width:10;stroke-linecap:round;stroke-miterlimit:10;}
	.st92{fill:#963838;}
	.st93{fill:#402B25;}
	.st94{fill:#6B6ABA;}
	.st95{fill:#BABABA;}
	.st96{fill:#D1D1D1;}
	.st97{fill:#264377;}
	.st98{fill:#A19BF5;}
	.st99{fill:#3C2A21;}
	.st100{fill:none;stroke:#4C3328;stroke-width:10;stroke-linecap:round;stroke-miterlimit:10;}
	.st101{fill:#C1781F;}
	.st102{fill:#E3A147;}
	.st103{fill:#F2D2A1;}
	.st104{fill:#4F372D;}
	.st105{fill:none;stroke:#DA4545;stroke-width:10;stroke-linecap:round;stroke-miterlimit:10;}
	.st106{fill:#AA3928;}
	.st107{fill:#8C2C22;}
	.st108{fill:#BF4336;}
	.st109{fill:#5797D4;}
	.st110{fill:#CFCFCF;}
	.st111{fill:#613A2E;}
	.st112{fill:none;stroke:#B18653;stroke-width:10;stroke-linecap:round;stroke-miterlimit:10;}
	.st113{fill:#B13B3B;}
	.st114{fill:#16263A;}
	.st115{fill:none;stroke:#16263A;stroke-width:10;stroke-miterlimit:10;}
	.st116{fill:#C87D20;}
	.st117{fill:#E4F0FD;}
	.st118{fill:#AA3737;}
	.st119{fill:#BF771F;}
	.st120{fill:none;stroke:#CD462A;stroke-width:10;stroke-linejoin:round;stroke-miterlimit:10;}
	.st121{fill:#5696D2;}
	.st122{fill:#C0771E;}
	.st123{fill:#9B5F1B;}
	.st124{fill:#A83A29;}
	.st125{fill:#E7A74F;}
	.st126{fill:#C9924C;}
	.st127{fill:#C58E48;}
	.st128{fill:#BE8844;}
	.st129{fill:#916939;}
	.st130{fill:#264275;}
	.st131{fill:#253F65;}
	.st132{fill:#182A45;}
	.st133{fill:#162336;}
	.st134{fill:#93C7B7;}
	.st135{fill:#E6A4A4;}
	.st136{fill:#B06B1D;}
	.st137{fill:#484185;}
	.st138{fill:#DB6E6E;}
	.st139{fill:#6BBA9A;}
	.st140{fill:#CACCCC;}
	.st141{fill:#D4D4D4;}
	.st142{fill:#A98881;}
	.st143{fill:#213A62;}
	.st144{fill:#A2837D;}
	.st145{fill:#6FB8F4;}
	.st146{fill:#9B9E9E;}
	.st147{fill:#B2B3B3;}
	.st148{fill:#20385D;}
	.st149{fill:#335AA8;}
	.st150{fill:#BCE7FD;}
	.st151{fill:#3B2921;}
	.st152{fill:#AD3C3C;}
	.st153{fill:#9D3838;}
	.st154{fill:#603F33;}
	.st155{fill:#4D868B;}
	.st156{fill:#A2DDFD;}
	.st157{fill:#ECB6B6;}
	.st158{fill:#E8A346;}
	.st159{fill:#514C94;}
	.st160{fill:#D2F1E8;}
	.st161{fill:#BDD6CE;}
	.st162{fill:#B93B29;}
	.st163{fill:#E0AD70;}
	.st164{fill:#C57C21;}
	.st165{fill:#EDA34A;}
	.st166{fill:#2F538F;}
	.st167{fill:#2B4B78;}
	.st168{fill:#65AF91;}
	.st169{fill:#A7CEFC;}
	.st170{fill:#98BDE2;}
	.st171{fill:#CFE5F7;}
	.st172{fill:#5492CD;}
	.st173{fill:#97CCBC;}
	.st174{fill:#5491CA;}
	.st175{fill:#EDC563;}
	.st176{fill:#423C79;}
	.st177{fill:#D3B1A5;}
	.st178{fill:#BE988D;}
	.st179{fill:#A7E5D6;}
	.st180{fill:#F2FFF9;}
	.st181{fill:#D64545;}
	.st182{fill:#A73B3B;}
	.st183{fill:#15233A;}
	.st184{fill:none;stroke:#BE988D;stroke-width:10;stroke-linecap:round;stroke-miterlimit:10;}
	.st185{fill:#AF3A29;}
	.st186{fill:#FAF9FF;}
	.st187{fill:#CACACC;}
	.st188{fill:#372720;}
	.st189{fill:#3F2C26;}
	.st190{fill:#2D201C;}
	.st191{fill:#3D6D6F;}
	.st192{fill:#5B54A8;}
	.st193{fill:#325799;}
	.st194{fill:#E8C26E;}
	.st195{fill:#254784;}
	.st196{fill:#5696D4;}
	.st197{fill:#4F8AB6;}
	.st198{fill:#5FA4AC;}
	.st199{fill:#AA3524;}
	.st200{fill:#D15F4D;}
	.st201{fill:#2B294C;}
	.st202{fill:#A43A2A;}
	.st203{fill:#E7AE2D;}
	.st204{fill:#CD9729;}
	.st205{fill:none;stroke:#AA8253;stroke-width:10;stroke-linecap:round;stroke-miterlimit:10;}
	.st206{fill:none;stroke:#E18F23;stroke-width:10;stroke-linecap:round;stroke-linejoin:round;stroke-miterlimit:10;}
	.st207{fill:#CF9828;}
	.st208{fill:#B88926;}
	.st209{fill:#A17623;}
	.st210{fill:#96CCBC;}
	.st211{fill:#CF9A2A;}
	.st212{fill:#C57B20;}
	.st213{fill:#C7F1E6;}
	.st214{fill:#DC6363;}
	.st215{fill:#E89F9F;}
	.st216{fill:#C88C8C;}
	.st217{fill:#C16E6E;}
	.st218{fill:#A46060;}
	.st219{fill:#AA3626;}
	.st220{fill:#87EDC4;}
	.st221{fill:#D86552;}
	.st222{fill:#BC7620;}
	.st223{fill:#BA741E;}
	.st224{fill:#8F8CE3;}
	.st225{fill:#3A2820;}
	.st226{fill:#AC7060;}
	.st227{fill:#915F55;}
	.st228{fill:#49332A;}
	.st229{fill:#2D1F1B;}
	.st230{fill:#69B7BE;}
	.st231{fill:#D6D6D6;}
	.st232{fill:#B8B8B8;}
	.st233{fill:#CACACA;}
	.st234{fill:#467B80;}
	.st235{fill:#C2EDE2;}
	.st236{fill:#A9574F;}
	.st237{fill:#5595D2;}
	.st238{fill:#955949;}
	.st239{fill:#7E4B42;}
	.st240{fill:#89CCF1;}
	.st241{fill:#DD584A;}
	.st242{fill:#C18F26;}
	.st243{fill:#B33C2A;}
	.st244{fill:#D1A771;}
	.st245{fill:#B42A2A;}
	.st246{fill:#325797;}
	.st247{fill:#9F3529;}
	.st248{fill:#EDCE80;}
	.st249{fill:#F0DBAC;}
	.st250{fill:#CFB478;}
	.st251{fill:#D4C29B;}
	.st252{fill:#993939;}
	.st253{fill:#D1AFA3;}
	.st254{fill:#BC968B;}
	.st255{fill:none;stroke:#BC968B;stroke-width:10;stroke-linecap:round;stroke-miterlimit:10;}
	.st256{fill:#814C3C;}
	.st257{fill:#C0EBE0;}
	.st258{fill:#A5E3D4;}
	.st259{fill:#15243C;}
	.st260{fill:#443E79;}
	.st261{fill:#F0FFF7;}
	.st262{fill:#9A764B;}
	.st263{fill:#826443;}
	.st264{fill:#D9AA74;}
	.st265{fill:#5DA186;}
	.st266{fill:#68B596;}
	.st267{fill:#E5C6BE;}
	.st268{fill:#D3B6B1;}
	.st269{fill:none;stroke:#BAA09C;stroke-width:10;stroke-linecap:round;stroke-miterlimit:10;}
	.st270{fill:#F4D78F;}
	.st271{fill:#20385F;}
	.st272{fill:#BA8727;}
	.st273{fill:#5A9C82;}
	.st274{fill:none;stroke:#E39123;stroke-width:10;stroke-linecap:round;stroke-linejoin:round;stroke-miterlimit:10;}
	.st275{fill:#60392D;}
	.st276{fill:#CCCCCC;}
	.st277{fill:#844F3E;}
	.st278{fill:#F3FFFB;}
	.st279{fill:#365E60;}
	.st280{fill:#D84545;}
	.st281{fill:#A83B3B;}
	.st282{fill:#253F70;}
	.st283{fill:#EAADAD;}
	.st284{fill:#443E7C;}
	.st285{fill:#3D6B9F;}
	.st286{fill:#4274BC;}
	.st287{fill:#AF3827;}
	.st288{fill:#E59D9D;}
	.st289{fill:#C48989;}
	.st290{fill:none;stroke:#9B621A;stroke-width:10;stroke-linecap:round;stroke-linejoin:round;stroke-miterlimit:10;}
	.st291{fill:#213A5E;}
	.st292{fill:#2D507A;}
	.st293{fill:#528EC8;}
	.st294{fill:#EFD696;}
	.st295{fill:#D1BA87;}
	.st296{fill:#FDFCFC;}
	.st297{fill:#86CBFC;}
	.st298{fill:#7AB7DA;}
	.st299{fill:#192C4C;}
	.st300{fill:#BCBCBC;}
	.st301{fill:#A13838;}
	.st302{fill:#75BDF6;}
	.st303{fill:#D0B1AA;}
	.st304{fill:#142233;}
	.st305{fill:#E6C4BB;}
	.st306{fill:#BDBDBD;}
	.st307{fill:#E8A192;}
	.st308{fill:#A43939;}
	.st309{fill:#162640;}
	.st310{fill:#27457C;}
	.st311{fill:#EFBE5E;}
	.st312{fill:#87EDC5;}
	.st313{fill:#A03838;}
	.st314{fill:#833232;}
	.st315{fill:#47417F;}
	.st316{fill:none;stroke:#915F55;stroke-width:10;stroke-linecap:round;stroke-miterlimit:10;}
	.st317{fill:#BC8B25;}
	.st318{fill:#473129;}
	.st319{fill:#67B394;}
	.st320{fill:#599A80;}
	.st321{fill:#B13D3D;}
</style>
<g id="BULINE">
	<circle id="XMLID_5_" class="st1" cx="256" cy="256" r="256"/>
	<g>
	</g>
</g>
<g id="Icons">
	<g id="XMLID_26_">
		<path id="XMLID_498_" class="st13" d="M173.3,306.4v-78.5h23c1.2,0,2.3-0.1,3.4-0.4c0.1,0,0.2-0.1,0.3-0.1
			c3.6-0.9,6.6-3.1,8.7-6.1c1.2-1.9,2.1-4,2.4-6.4l6-46.5l0.7-5.3c0.9-7-4.6-13.2-11.7-13.2h-77.5V82.3c4.2-2.2,7-6.6,7-11.6
			c0-7.3-5.9-13.2-13.2-13.2s-13.2,5.9-13.2,13.2c0,5,2.8,9.4,7,11.6v67.6H39c-7.1,0-12.6,6.2-11.7,13.2l6.6,51.8
			c1,7.4,7.3,13,14.8,13h23.5v78.5H5c9.8,49,33.6,93,67,127.6c4.9,5,10,9.9,15.2,14.5c3.4,3,6.9,5.9,10.4,8.7
			c4.5,3.5,9,6.9,13.7,10.1c9.7,6.7,20,12.7,30.6,18h0c9.8,4.9,20,9.2,30.5,12.8c5.7,2,11.5,3.7,17.3,5.3c0.2,0.1,0.4,0.1,0.6,0.2
			c8.2,2.2,16.6,4,25.1,5.3c1.5,0.2,3,0.5,4.6,0.7c5.9,0.8,11.8,1.4,17.8,1.9c0,0,0.1,0,0.1,0c3.4,0.2,6.9,0.4,10.3,0.5
			c1.6,0,3.2,0.1,4.7,0.1c1,0,1.9,0,2.9,0c7.7,0,15.2-0.3,22.7-1c29.5-2.6,57.6-10.2,83.3-22c0,0,0.1,0,0.1,0
			c2.4-1.1,4.9-2.3,7.2-3.5c2.6-1.3,5.2-2.6,7.8-4c5.1-2.7,10-5.6,14.8-8.6c3.7-2.3,7.2-4.7,10.7-7.1c9.8-6.9,19.1-14.4,27.9-22.6
			c4.5-4.2,8.8-8.5,12.9-13c2.4-2.6,4.8-5.3,7.1-8c27.8-32.6,47.7-72.2,56.4-115.8H173.3z M156.8,178.2c0-4.8,3.9-8.7,8.7-8.7h20.5
			c1.2,0,2.3,0.2,3.3,0.7c0.1,0,0.3,0.1,0.4,0.2c1.8,0.8,3.2,2.2,4.1,3.9c0.6,1.2,0.9,2.5,0.9,4v17.5c0,2.6-1.1,5-3,6.6
			c-0.1,0.1-0.2,0.2-0.3,0.3c-0.5,0.4-1.1,0.8-1.7,1c-1.1,0.5-2.4,0.8-3.7,0.8h-20.5c-4.8,0-8.7-3.9-8.7-8.7V178.2z M103.3,178.2
			c0-4.8,3.9-8.7,8.7-8.7h20.5c4.8,0,8.7,3.9,8.7,8.7v17.5c0,4.8-3.9,8.7-8.7,8.7h-20.5c-4.8,0-8.7-3.9-8.7-8.7V178.2z M56.9,204.4
			c-4.8,0-8.7-3.9-8.7-8.7v-17.5c0-4.8,3.9-8.7,8.7-8.7h20.5c4.8,0,8.7,3.9,8.7,8.7v17.5c0,4.8-3.9,8.7-8.7,8.7H56.9z"/>
		<g id="XMLID_483_">
			<path id="XMLID_497_" class="st14" d="M170.9,380l-63.3,21.8c-4.4,1.5-9.2-0.8-10.7-5.2L48.7,256.5c-1.5-4.4,0.8-9.2,5.2-10.7
				l63.3-21.8c4.4-1.5,9.2,0.8,10.7,5.2l48.2,140.1C177.6,373.7,175.3,378.5,170.9,380z"/>
			<g id="XMLID_486_">
				<path id="XMLID_496_" class="st0" d="M179.8,395.4h-67c-4.6,0-8.4-3.8-8.4-8.4V238.8c0-4.6,3.8-8.4,8.4-8.4h67
					c4.6,0,8.4,3.8,8.4,8.4v148.1C188.2,391.6,184.4,395.4,179.8,395.4z"/>
				<path id="XMLID_495_" class="st15" d="M180.9,321.7v60.7c0,2.8-2.3,5.1-5.1,5.1h-59c-2.8,0-5.1-2.3-5.1-5.1v-60.7H180.9z"/>
				<path id="XMLID_494_" class="st16" d="M139.2,256.5v5.2l-14.6,19.9c-0.6,0.8-0.9,1.7-0.9,2.7v2.7c0,4.2,5.1,6.2,7.9,3.2l7.6-8
					v11.6l-7.9,5.3c-0.3,0.2-0.5,0.6-0.5,1v2.3c0,0.7,0.5,1.2,1.2,1.2h7.2h7c4.5,0,8.2-3.7,8.2-8.2v-8.7l7.5,7.9
					c2.9,3,7.9,1,7.9-3.2v-2.7c0-1-0.3-1.9-0.9-2.7l-14.5-19.8v-20.3c0-1.3-1.1-2.4-2.4-2.4h0C144.9,243.7,139.2,249.4,139.2,256.5z
					"/>
				<line id="XMLID_493_" class="st17" x1="112.4" y1="321.7" x2="125" y2="321.7"/>
				<line id="XMLID_491_" class="st17" x1="140.1" y1="321.7" x2="152.7" y2="321.7"/>
				<line id="XMLID_490_" class="st17" x1="167.2" y1="321.7" x2="179.8" y2="321.7"/>
				<line id="XMLID_489_" class="st18" x1="124.5" y1="373.8" x2="124.5" y2="338.8"/>
				<line id="XMLID_488_" class="st18" x1="168.5" y1="373.8" x2="168.5" y2="338.8"/>
				<line id="XMLID_487_" class="st18" x1="145.6" y1="367.3" x2="145.6" y2="345.3"/>
			</g>
			<path id="XMLID_484_" class="st19" d="M104.4,238.8v148.1c0,4.6,3.8,8.4,8.4,8.4h-8.4c-4.7,0-8.4-3.8-8.4-8.4V238.8
				c0-4.7,3.8-8.4,8.4-8.4h8.4C108.2,230.4,104.4,234.2,104.4,238.8z"/>
		</g>
		<path id="XMLID_482_" class="st20" d="M176.5,436.2l-47.3,8.6l-8.5-46.5c-2.4-13.1,6.3-25.6,19.3-27.9h0
			c13.1-2.4,25.6,6.3,27.9,19.3L176.5,436.2z"/>
		<path id="XMLID_481_" class="st21" d="M135.8,398.3l8,43.9l-14.5,2.6l-8.5-46.5c-2.4-13.1,6.3-25.6,19.3-28
			c1.5-0.3,2.9-0.4,4.3-0.4c2.6,0,5.1,0.4,7.5,1.2C140.7,374.9,133.7,386.4,135.8,398.3z"/>
		<path id="XMLID_478_" class="st20" d="M328,366.1h-14.7c-11.8,0-21.4-9.6-21.4-21.4v-35.2c0-11.8,9.6-21.4,21.4-21.4H328
			c11.8,0,21.4,9.6,21.4,21.4v35.2C349.4,356.5,339.8,366.1,328,366.1z"/>
		<path id="XMLID_477_" class="st21" d="M330.7,365.8c-1,0.1-2,0.2-3.1,0.2h-14.7c-11.8,0-21.4-9.6-21.4-21.4v-35.2
			c0-11.8,9.6-21.4,21.4-21.4h14.7c1,0,2.1,0.1,3.1,0.2c-10.3,1.5-18.3,10.4-18.3,21.2v35.2C312.5,355.4,320.4,364.3,330.7,365.8z"
			/>
		<path id="XMLID_798_" class="st22" d="M450.7,380.7v41.5c-2.3,2.7-4.7,5.4-7.1,8c-4.2,4.5-8.5,8.8-12.9,13
			c-8.7,8.2-18,15.7-27.9,22.6c-3.5,2.5-7.1,4.8-10.7,7.1c-4.8,3-9.8,5.9-14.8,8.6c-2.6,1.4-5.2,2.7-7.8,4c-2.4,1.2-4.8,2.3-7.2,3.5
			c0,0-0.1,0-0.1,0c-25.8,11.8-53.8,19.3-83.3,22c-7.5,0.6-15.1,1-22.7,1c-1,0-1.9,0-2.9,0c-1.6,0-3.2,0-4.7-0.1
			c-3.5-0.1-6.9-0.3-10.3-0.5c0,0-0.1,0-0.1,0c-6-0.4-11.9-1-17.8-1.9c-1.5-0.2-3-0.4-4.6-0.7c-8.5-1.4-16.9-3.1-25.1-5.3
			c-0.2-0.1-0.4-0.1-0.6-0.2V380.7c0-25.3,20.5-45.8,45.8-45.8h169.4C430.2,335,450.7,355.4,450.7,380.7z"/>
		<path id="XMLID_476_" class="st23" d="M342.7,15.9h-44.5c-60.1,0-108.8,48.7-108.8,108.8v56.7c0,60.1,48.7,108.8,108.8,108.8h44.5
			c60.1,0,108.8-48.7,108.8-108.8v-56.7C451.5,64.6,402.8,15.9,342.7,15.9z"/>
		<path id="XMLID_475_" class="st24" d="M359.9,288.9c-5.5,0.9-11.1,1.3-16.8,1.3h-44.5c-60.1,0-108.8-48.7-108.8-108.8v-56.7
			c0-60.1,48.7-108.8,108.8-108.8h44.5c5.7,0,11.3,0.4,16.8,1.3c-52.1,8.1-92,53.1-92,107.5v56.7
			C267.8,235.7,307.8,280.8,359.9,288.9z"/>
		<path id="XMLID_473_" class="st20" d="M292.5,312.6c-0.2-0.1-0.4-0.1-0.7-0.2C292,312.5,292.2,312.5,292.5,312.6z"/>
		<path id="XMLID_472_" class="st20" d="M232.1,273.8c-0.4-0.5-0.7-0.9-1.1-1.4C231.3,272.8,231.7,273.3,232.1,273.8z"/>
		<path id="XMLID_470_" class="st20" d="M266.8,302.6c-0.3-0.2-0.6-0.3-0.9-0.5C266.2,302.3,266.5,302.4,266.8,302.6z"/>
		<path id="XMLID_469_" class="st20" d="M253.2,294c-0.2-0.2-0.5-0.3-0.7-0.5C252.7,293.7,253,293.9,253.2,294z"/>
		<path id="XMLID_468_" class="st20" d="M235.4,277.7c-0.4-0.4-0.7-0.8-1.1-1.2C234.7,276.8,235,277.3,235.4,277.7z"/>
		<path id="XMLID_467_" class="st20" d="M233.7,275.7c-0.4-0.4-0.7-0.9-1.1-1.3C233,274.9,233.3,275.3,233.7,275.7z"/>
		<path id="XMLID_466_" class="st20" d="M221.1,257.4c-0.4-0.7-0.7-1.3-1.1-2C220.4,256.1,220.8,256.7,221.1,257.4z"/>
		<path id="XMLID_464_" class="st20" d="M219.9,255.1c-0.3-0.7-0.7-1.3-1-2C219.2,253.8,219.5,254.4,219.9,255.1z"/>
		<path id="XMLID_463_" class="st20" d="M229.2,270c-2.9-4-5.6-8.1-8-12.4C223.6,261.9,226.3,266,229.2,270z"/>
		<path id="XMLID_462_" class="st20" d="M230.6,271.8c-0.4-0.5-0.8-1-1.2-1.6C229.8,270.8,230.2,271.3,230.6,271.8z"/>
		<path id="XMLID_461_" class="st20" d="M295.2,313.2c-0.2-0.1-0.5-0.1-0.7-0.2C294.7,313.1,294.9,313.2,295.2,313.2z"/>
		<path id="XMLID_460_" class="st20" d="M297.9,313.8c-0.3-0.1-0.5-0.1-0.8-0.2C297.4,313.7,297.7,313.8,297.9,313.8z"/>
		<path id="XMLID_459_" class="st20" d="M244.5,286.9c-0.3-0.3-0.7-0.6-1-0.9C243.8,286.2,244.1,286.6,244.5,286.9z"/>
		<path id="XMLID_458_" class="st20" d="M278.8,308.2c-0.1,0-0.2-0.1-0.3-0.1C278.6,308.1,278.7,308.2,278.8,308.2z"/>
		<path id="XMLID_455_" class="st20" d="M248.4,290.3c-0.3-0.2-0.6-0.5-0.9-0.8C247.8,289.8,248.1,290,248.4,290.3z"/>
		<path id="XMLID_454_" class="st20" d="M250.7,292.1c-0.2-0.2-0.4-0.3-0.6-0.5C250.3,291.8,250.5,292,250.7,292.1z"/>
		<path id="XMLID_453_" class="st20" d="M246.4,288.6c-0.3-0.3-0.7-0.6-1-0.9C245.8,288,246.1,288.3,246.4,288.6z"/>
		<path id="XMLID_452_" class="st20" d="M276.4,307.2c-0.2-0.1-0.4-0.2-0.6-0.3C276,307,276.2,307.1,276.4,307.2z"/>
		<path id="XMLID_451_" class="st20" d="M255.4,295.6c-0.3-0.2-0.5-0.4-0.8-0.6C254.9,295.3,255.2,295.4,255.4,295.6z"/>
		<path id="XMLID_450_" class="st20" d="M289.7,311.9c-0.2,0-0.3-0.1-0.5-0.1C289.4,311.8,289.5,311.8,289.7,311.9z"/>
		<path id="XMLID_449_" class="st20" d="M273.9,306.1c-0.2-0.1-0.5-0.2-0.7-0.3C273.4,305.9,273.7,306,273.9,306.1z"/>
		<path id="XMLID_448_" class="st20" d="M237.1,279.6c-0.4-0.4-0.7-0.8-1.1-1.2C236.4,278.8,236.7,279.2,237.1,279.6z"/>
		<path id="XMLID_447_" class="st20" d="M238.9,281.5c-0.4-0.4-0.7-0.7-1-1.1C238.2,280.7,238.5,281.1,238.9,281.5z"/>
		<path id="XMLID_446_" class="st20" d="M286.8,311c-0.1,0-0.1,0-0.2-0.1C286.7,311,286.7,311,286.8,311z"/>
		<path id="XMLID_445_" class="st20" d="M240.7,283.3c-0.3-0.3-0.7-0.7-1-1C240,282.6,240.3,283,240.7,283.3z"/>
		<path id="XMLID_444_" class="st20" d="M242.6,285.1c-0.3-0.3-0.7-0.7-1-1C241.9,284.4,242.2,284.8,242.6,285.1z"/>
		<path id="XMLID_443_" class="st20" d="M330,315.6c-1.5,0.1-3,0.2-4.5,0.3C327,315.8,328.5,315.7,330,315.6z"/>
		<path id="XMLID_441_" class="st20" d="M325,315.9c-1.5,0.1-3,0.1-4.5,0.1C322,316,323.5,316,325,315.9z"/>
		<path id="XMLID_440_" class="st20" d="M269.1,303.8c-0.3-0.1-0.6-0.3-0.8-0.4C268.6,303.5,268.8,303.7,269.1,303.8z"/>
		<path id="XMLID_439_" class="st20" d="M314.5,315.9c-0.1,0-0.2,0-0.4,0C314.2,315.9,314.4,315.9,314.5,315.9z"/>
		<path id="XMLID_352_" class="st20" d="M218.7,252.8c-0.3-0.7-0.6-1.3-0.9-2C218.1,251.5,218.4,252.1,218.7,252.8z"/>
		<path id="XMLID_351_" class="st20" d="M311.7,315.7c-0.2,0-0.4,0-0.6-0.1C311.3,315.7,311.5,315.7,311.7,315.7z"/>
		<path id="XMLID_350_" class="st20" d="M259.9,298.6c-0.3-0.2-0.6-0.4-0.9-0.5C259.3,298.2,259.6,298.4,259.9,298.6z"/>
		<path id="XMLID_348_" class="st20" d="M264.4,301.3c-0.3-0.2-0.6-0.3-0.9-0.5C263.9,301,264.1,301.2,264.4,301.3z"/>
		<path id="XMLID_341_" class="st20" d="M435.9,169.5h-2.6h0l0,0c-32.5-3.8-61.7-37-78-59.4c-1.6-2.2-5.1-1.3-5.4,1.5
			c-0.9,10.7-4,28.9-13.6,40.6c-3.2,3.9-9.5,1.9-9.7-3.1c-0.2-4.3-1.1-9.5-3.5-14.6c-1.1-2.3-4.3-2.4-5.5-0.2
			c-3.3,6.1-9.5,16.4-18,23.3c-3.8,3.1-9.4,0-8.9-4.8l0.9-8.8c-13.8,7.2-28.7,13.5-44.7,18.1v41c0,55.6,40.2,101.7,93.1,111.3
			c48.9-8.8,86.8-48.8,92.4-98.5h3.3c8.7,0,15.7-7,15.7-15.6v-15C451.5,176.5,444.5,169.5,435.9,169.5z"/>
		<path id="XMLID_340_" class="st20" d="M262.2,300c-0.3-0.2-0.6-0.3-0.9-0.5C261.6,299.6,261.9,299.8,262.2,300z"/>
		<path id="XMLID_338_" class="st20" d="M340.1,314.3c-1.4,0.3-2.9,0.5-4.3,0.7C337.2,314.8,338.6,314.5,340.1,314.3z"/>
		<path id="XMLID_337_" class="st20" d="M335.1,315.1c-1.4,0.2-2.9,0.4-4.4,0.5C332.2,315.4,333.6,315.2,335.1,315.1z"/>
		<path id="XMLID_334_" class="st20" d="M308.9,315.5c-0.2,0-0.5-0.1-0.7-0.1C308.4,315.4,308.7,315.4,308.9,315.5z"/>
		<path id="XMLID_333_" class="st20" d="M271.5,305c-0.3-0.1-0.5-0.3-0.8-0.4C271,304.8,271.2,304.9,271.5,305z"/>
		<path id="XMLID_312_" class="st20" d="M303.4,314.8c-0.3,0-0.5-0.1-0.8-0.1C302.9,314.7,303.1,314.7,303.4,314.8z"/>
		<path id="XMLID_311_" class="st20" d="M216.5,248.1c-0.3-0.7-0.6-1.4-0.9-2.1C216,246.7,216.2,247.4,216.5,248.1z"/>
		<path id="XMLID_309_" class="st20" d="M300.6,314.3c-0.3,0-0.5-0.1-0.8-0.1C300.1,314.2,300.4,314.3,300.6,314.3z"/>
		<path id="XMLID_308_" class="st20" d="M217.6,250.4c-0.3-0.7-0.6-1.3-0.9-2C217,249.1,217.3,249.8,217.6,250.4z"/>
		<path id="XMLID_307_" class="st20" d="M306.1,315.2c-0.3,0-0.5-0.1-0.8-0.1C305.6,315.1,305.9,315.1,306.1,315.2z"/>
		<path id="XMLID_245_" class="st20" d="M214.6,243.4c-3.4-8.8-5.7-18-6.7-27.7C209,225.4,211.3,234.7,214.6,243.4z"/>
		<path id="XMLID_244_" class="st20" d="M215.6,245.7c-0.3-0.7-0.6-1.4-0.9-2.2C215,244.3,215.3,245,215.6,245.7z"/>
		<path id="XMLID_243_" class="st20" d="M257.7,297.1c-0.3-0.2-0.6-0.4-0.8-0.6C257.1,296.8,257.4,297,257.7,297.1z"/>
		<path id="XMLID_242_" class="st21" d="M275.8,306.9c-0.6-0.3-1.2-0.5-1.9-0.8C274.5,306.4,275.1,306.7,275.8,306.9z"/>
		<path id="XMLID_241_" class="st21" d="M268.3,303.4c-0.5-0.3-1-0.5-1.5-0.8C267.3,302.9,267.8,303.1,268.3,303.4z"/>
		<path id="XMLID_240_" class="st21" d="M273.2,305.8c-0.6-0.3-1.1-0.5-1.7-0.8C272.1,305.3,272.6,305.5,273.2,305.8z"/>
		<path id="XMLID_239_" class="st21" d="M270.7,304.6c-0.5-0.3-1.1-0.5-1.6-0.8C269.6,304.1,270.2,304.4,270.7,304.6z"/>
		<path id="XMLID_238_" class="st21" d="M291.8,312.4c-0.7-0.2-1.4-0.4-2.1-0.6C290.4,312,291.1,312.2,291.8,312.4z"/>
		<path id="XMLID_237_" class="st21" d="M325.6,315.9c-0.2,0-0.4,0-0.6,0C325.2,315.9,325.4,315.9,325.6,315.9z"/>
		<path id="XMLID_236_" class="st21" d="M305.4,315.1c-0.7-0.1-1.3-0.2-2-0.3C304,314.9,304.7,315,305.4,315.1z"/>
		<path id="XMLID_235_" class="st21" d="M308.2,315.4c-0.7-0.1-1.4-0.1-2-0.2C306.8,315.2,307.5,315.3,308.2,315.4z"/>
		<path id="XMLID_233_" class="st21" d="M311.1,315.7c-0.7-0.1-1.5-0.1-2.2-0.2C309.6,315.5,310.4,315.6,311.1,315.7z"/>
		<path id="XMLID_232_" class="st21" d="M340.4,314.2C340.4,314.2,340.4,314.2,340.4,314.2c-0.1,0-0.2,0-0.3,0.1
			C340.2,314.3,340.3,314.3,340.4,314.2z"/>
		<path id="XMLID_231_" class="st21" d="M330.7,315.6c-0.2,0-0.5,0-0.7,0.1C330.2,315.6,330.5,315.6,330.7,315.6z"/>
		<path id="XMLID_230_" class="st21" d="M335.8,315c-0.2,0-0.5,0.1-0.7,0.1C335.3,315,335.5,315,335.8,315z"/>
		<path id="XMLID_229_" class="st21" d="M297.1,313.7c-0.6-0.1-1.3-0.3-1.9-0.4C295.8,313.4,296.5,313.5,297.1,313.7z"/>
		<path id="XMLID_228_" class="st21" d="M289.2,311.7c-0.8-0.2-1.6-0.5-2.4-0.7C287.6,311.2,288.4,311.5,289.2,311.7z"/>
		<path id="XMLID_227_" class="st21" d="M302.6,314.7c-0.7-0.1-1.3-0.2-1.9-0.3C301.3,314.4,301.9,314.6,302.6,314.7z"/>
		<path id="XMLID_226_" class="st21" d="M286.6,310.9c-2.6-0.8-5.2-1.7-7.8-2.7C281.4,309.2,284,310.1,286.6,310.9z"/>
		<path id="XMLID_225_" class="st21" d="M294.5,313.1c-0.7-0.2-1.3-0.3-2-0.5C293.1,312.8,293.8,312.9,294.5,313.1z"/>
		<path id="XMLID_224_" class="st21" d="M278.5,308.1c-0.7-0.3-1.5-0.6-2.2-0.9C277.1,307.5,277.8,307.8,278.5,308.1z"/>
		<path id="XMLID_223_" class="st21" d="M299.8,314.2c-0.6-0.1-1.3-0.2-1.9-0.4C298.6,313.9,299.2,314.1,299.8,314.2z"/>
		<path id="XMLID_222_" class="st21" d="M314.1,315.9c-0.8,0-1.6-0.1-2.4-0.2C312.5,315.8,313.3,315.8,314.1,315.9z"/>
		<path id="XMLID_221_" class="st21" d="M220,255.4c-0.1-0.1-0.1-0.2-0.2-0.3C219.9,255.2,220,255.3,220,255.4z"/>
		<path id="XMLID_197_" class="st21" d="M221.2,257.6c0-0.1-0.1-0.1-0.1-0.2C221.1,257.4,221.2,257.5,221.2,257.6z"/>
		<path id="XMLID_169_" class="st21" d="M218.9,253.1c-0.1-0.1-0.1-0.2-0.2-0.3C218.8,252.9,218.8,253,218.9,253.1z"/>
		<path id="XMLID_110_" class="st21" d="M231,272.4c-0.1-0.2-0.3-0.4-0.4-0.5C230.7,272,230.8,272.2,231,272.4z"/>
		<path id="XMLID_109_" class="st21" d="M229.4,270.3c-0.1-0.1-0.1-0.2-0.2-0.3C229.2,270.1,229.3,270.2,229.4,270.3z"/>
		<path id="XMLID_108_" class="st21" d="M234.3,276.4c-0.2-0.2-0.4-0.5-0.6-0.7C233.9,276,234.1,276.2,234.3,276.4z"/>
		<path id="XMLID_107_" class="st21" d="M217.8,250.8c-0.1-0.1-0.1-0.2-0.2-0.4C217.7,250.6,217.7,250.7,217.8,250.8z"/>
		<path id="XMLID_106_" class="st21" d="M232.6,274.4c-0.2-0.2-0.4-0.4-0.5-0.7C232.3,274,232.4,274.2,232.6,274.4z"/>
		<path id="XMLID_105_" class="st21" d="M265.9,302.1c-0.5-0.3-1-0.5-1.5-0.8C264.9,301.6,265.4,301.9,265.9,302.1z"/>
		<path id="XMLID_104_" class="st21" d="M320.2,316c-1.9,0-3.8,0-5.8-0.1C316.4,316,318.3,316,320.2,316c0.1,0,0.2,0,0.2,0
			C320.4,316,320.3,316,320.2,316L320.2,316z"/>
		<path id="XMLID_103_" class="st21" d="M214.7,243.6c0-0.1,0-0.1-0.1-0.2C214.7,243.5,214.7,243.5,214.7,243.6z"/>
		<path id="XMLID_102_" class="st21" d="M216.7,248.4c0-0.1-0.1-0.2-0.1-0.3C216.6,248.2,216.6,248.3,216.7,248.4z"/>
		<path id="XMLID_93_" class="st21" d="M215.7,246c0-0.1-0.1-0.2-0.1-0.3C215.6,245.8,215.6,245.9,215.7,246z"/>
		<path id="XMLID_92_" class="st21" d="M252.5,293.5c-0.6-0.5-1.2-0.9-1.8-1.4C251.3,292.6,251.9,293.1,252.5,293.5z"/>
		<path id="XMLID_138_" class="st21" d="M256.8,296.6c-0.5-0.3-0.9-0.6-1.4-1C255.9,295.9,256.4,296.3,256.8,296.6z"/>
		<path id="XMLID_91_" class="st21" d="M254.6,295.1c-0.5-0.3-0.9-0.7-1.4-1C253.7,294.4,254.2,294.7,254.6,295.1z"/>
		<path id="XMLID_90_" class="st21" d="M236,278.4c-0.2-0.3-0.4-0.5-0.7-0.8C235.6,277.9,235.8,278.2,236,278.4z"/>
		<path id="XMLID_89_" class="st21" d="M261.3,299.5c-0.5-0.3-0.9-0.6-1.4-0.9C260.4,298.9,260.8,299.2,261.3,299.5z"/>
		<path id="XMLID_88_" class="st21" d="M263.6,300.8c-0.5-0.3-0.9-0.6-1.4-0.8C262.6,300.3,263.1,300.5,263.6,300.8z"/>
		<path id="XMLID_87_" class="st21" d="M250.1,291.6c-0.6-0.4-1.1-0.9-1.7-1.4C249,290.7,249.5,291.2,250.1,291.6z"/>
		<path id="XMLID_86_" class="st21" d="M259,298c-0.5-0.3-0.9-0.6-1.4-0.9C258.1,297.4,258.6,297.7,259,298z"/>
		<path id="XMLID_85_" class="st21" d="M241.5,284.1c-0.3-0.3-0.6-0.5-0.8-0.8C241,283.6,241.2,283.8,241.5,284.1z"/>
		<path id="XMLID_71_" class="st21" d="M247.5,289.5c-0.4-0.3-0.7-0.6-1.1-0.9C246.8,288.9,247.1,289.2,247.5,289.5z"/>
		<path id="XMLID_29_" class="st21" d="M239.6,282.3c-0.3-0.3-0.5-0.5-0.8-0.8C239.1,281.7,239.4,282,239.6,282.3z"/>
		<path id="XMLID_27_" class="st21" d="M243.4,285.9c-0.3-0.3-0.6-0.5-0.9-0.8C242.8,285.4,243.1,285.7,243.4,285.9z"/>
		<path id="XMLID_25_" class="st21" d="M245.4,287.7c-0.3-0.3-0.6-0.6-1-0.9C244.8,287.2,245.1,287.4,245.4,287.7z"/>
		<path id="XMLID_24_" class="st21" d="M237.8,280.4c-0.2-0.3-0.5-0.5-0.7-0.8C237.3,279.8,237.6,280.1,237.8,280.4z"/>
		<path id="XMLID_23_" class="st21" d="M247.5,203v-41c-12.8,3.7-26.3,6.3-40.4,7.5l0,0v0H205c-8.6,0-15.6,7-15.6,15.6v15
			c0,8.6,7,15.6,15.6,15.6h2.8c0,0,0,0,0,0c1.1,9.6,3.4,18.9,6.7,27.7c0,0.1,0,0.1,0.1,0.2c0.3,0.7,0.6,1.5,0.9,2.2
			c0,0.1,0.1,0.2,0.1,0.3c0.3,0.7,0.6,1.4,0.9,2.1c0,0.1,0.1,0.2,0.1,0.3c0.3,0.7,0.6,1.3,0.9,2c0.1,0.1,0.1,0.2,0.2,0.4
			c0.3,0.7,0.6,1.3,0.9,2c0.1,0.1,0.1,0.2,0.2,0.3c0.3,0.7,0.7,1.3,1,2c0.1,0.1,0.1,0.2,0.2,0.3c0.4,0.7,0.7,1.3,1.1,2
			c0,0.1,0.1,0.1,0.1,0.2c2.4,4.3,5,8.5,8,12.4c0.1,0.1,0.1,0.2,0.2,0.3c0.4,0.5,0.8,1,1.2,1.6c0.1,0.2,0.3,0.4,0.4,0.5
			c0.4,0.5,0.7,0.9,1.1,1.4c0.2,0.2,0.3,0.4,0.5,0.7c0.4,0.4,0.7,0.9,1.1,1.3c0.2,0.2,0.4,0.5,0.6,0.7c0.4,0.4,0.7,0.8,1.1,1.2
			c0.2,0.3,0.4,0.5,0.7,0.8c0.3,0.4,0.7,0.8,1.1,1.2c0.2,0.3,0.5,0.5,0.7,0.8c0.3,0.4,0.7,0.7,1,1.1c0.3,0.3,0.5,0.5,0.8,0.8
			c0.3,0.4,0.7,0.7,1,1c0.3,0.3,0.6,0.5,0.8,0.8c0.3,0.3,0.7,0.7,1,1c0.3,0.3,0.6,0.6,0.9,0.8c0.3,0.3,0.7,0.6,1,0.9
			c0.3,0.3,0.6,0.6,1,0.9c0.3,0.3,0.7,0.6,1,0.9c0.4,0.3,0.7,0.6,1.1,0.9c0.3,0.3,0.6,0.5,0.9,0.8c0.6,0.5,1.1,0.9,1.7,1.4
			c0.2,0.2,0.4,0.3,0.6,0.5c0.6,0.5,1.2,0.9,1.8,1.4c0.2,0.2,0.5,0.3,0.7,0.5c0.5,0.3,0.9,0.7,1.4,1c0.3,0.2,0.5,0.4,0.8,0.6
			c0.5,0.3,0.9,0.6,1.4,1c0.3,0.2,0.6,0.4,0.8,0.6c0.5,0.3,0.9,0.6,1.4,0.9c0.3,0.2,0.6,0.4,0.9,0.5c0.5,0.3,0.9,0.6,1.4,0.9
			c0.3,0.2,0.6,0.4,0.9,0.5c0.5,0.3,0.9,0.6,1.4,0.8c0.3,0.2,0.6,0.3,0.9,0.5c0.5,0.3,1,0.5,1.5,0.8c0.3,0.2,0.6,0.3,0.9,0.5
			c0.5,0.3,1,0.5,1.5,0.8c0.3,0.1,0.6,0.3,0.8,0.4c0.5,0.3,1.1,0.5,1.6,0.8c0.3,0.1,0.5,0.3,0.8,0.4c0.6,0.3,1.1,0.5,1.7,0.8
			c0.2,0.1,0.5,0.2,0.7,0.3c0.6,0.3,1.2,0.5,1.9,0.8c0.2,0.1,0.4,0.2,0.6,0.3c0.7,0.3,1.4,0.6,2.2,0.9c0.1,0,0.2,0.1,0.3,0.1
			c2.5,1,5.1,1.9,7.8,2.7c0.1,0,0.1,0,0.2,0.1c0.8,0.2,1.6,0.5,2.4,0.7c0.2,0,0.3,0.1,0.5,0.1c0.7,0.2,1.4,0.4,2.1,0.6
			c0.2,0.1,0.4,0.1,0.7,0.2c0.7,0.2,1.3,0.3,2,0.5c0.2,0.1,0.5,0.1,0.7,0.2c0.6,0.1,1.3,0.3,1.9,0.4c0.3,0.1,0.5,0.1,0.8,0.2
			c0.6,0.1,1.3,0.3,1.9,0.4c0.3,0,0.5,0.1,0.8,0.1c0.6,0.1,1.3,0.2,1.9,0.3c0.3,0,0.5,0.1,0.8,0.1c0.7,0.1,1.3,0.2,2,0.3
			c0.3,0,0.5,0.1,0.8,0.1c0.7,0.1,1.4,0.2,2,0.2c0.2,0,0.5,0.1,0.7,0.1c0.7,0.1,1.4,0.1,2.2,0.2c0.2,0,0.4,0,0.6,0.1
			c0.8,0.1,1.6,0.1,2.4,0.2c0.1,0,0.2,0,0.4,0c1.9,0.1,3.8,0.1,5.8,0.1h0c0.1,0,0.2,0,0.2,0c1.5,0,3,0,4.5-0.1c0.2,0,0.4,0,0.6,0
			c1.5-0.1,3-0.2,4.5-0.3c0.2,0,0.5,0,0.7-0.1c1.5-0.1,2.9-0.3,4.4-0.5c0.2,0,0.5-0.1,0.7-0.1c1.5-0.2,2.9-0.4,4.3-0.7
			c0.1,0,0.2,0,0.3-0.1C287.6,304.7,247.5,258.5,247.5,203z"/>
		<circle id="XMLID_22_" class="st23" cx="264.9" cy="185" r="15.6"/>
		<circle id="XMLID_28_" class="st16" cx="268.9" cy="179.9" r="6.9"/>
		<circle id="XMLID_31_" class="st23" cx="373.7" cy="185" r="15.6"/>
		<circle id="XMLID_30_" class="st16" cx="377.7" cy="179.9" r="6.9"/>
		<g id="XMLID_18_">
			<path id="XMLID_21_" class="st24" d="M350.9,241.6c1.6,0,3,1.3,3,3v0c0,3-0.4,6-1.2,8.8c-1.8,6.5-5.4,12.2-10.4,16.5
				c-5.9,5.1-13.6,8.2-22.1,8.2s-16.2-3.1-22.1-8.2c-4.9-4.3-8.6-10-10.4-16.5c-0.8-2.8-1.2-5.8-1.2-8.8v0c0-1.6,1.3-3,3-3H350.9z"
				/>
			<path id="XMLID_20_" class="st26" d="M342.3,269.9c-5.9,5.1-13.6,8.2-22.1,8.2s-16.2-3.1-22.1-8.2c5.9-5.1,13.6-8.3,22.1-8.3
				S336.4,264.8,342.3,269.9z"/>
			<path id="XMLID_19_" class="st16" d="M350.9,241.6c1.6,0,3,1.3,3,3v0c0,3-0.4,6-1.2,8.8h-64.9c-0.8-2.8-1.2-5.8-1.2-8.8v0
				c0-1.6,1.3-3,3-3H350.9z"/>
		</g>
		<path id="XMLID_525_" class="st27" d="M248.4,429.3v82.6c-3.5-0.1-6.9-0.3-10.3-0.5c0,0-0.1,0-0.1,0c-6-0.4-11.9-1-17.8-1.9
			c-1.5-0.2-3-0.4-4.6-0.7c-8.5-1.4-16.9-3.1-25.1-5.3c-0.2-0.1-0.4-0.1-0.6-0.2v-83.8h48.9C244,419.5,248.4,423.9,248.4,429.3z"/>
		<path id="XMLID_512_" class="st28" d="M265.9,335c-4.4,0-8.7,0.6-12.8,1.8c-5.5,1.6-10.6,4.2-15,7.6c0,0-0.1,0-0.1,0.1
			c-10.8,8.4-17.8,21.5-17.8,36.2v128.8c-1.5-0.2-3-0.4-4.6-0.7c-8.5-1.4-16.9-3.1-25.1-5.3V380.7c0-25.3,20.5-45.8,45.8-45.8H265.9
			z"/>
		<path id="XMLID_479_" class="st29" d="M220.1,419.5v90c-1.5-0.2-3-0.4-4.6-0.7c-8.5-1.4-16.9-3.1-25.1-5.3v-84H220.1z"/>
		<path id="XMLID_518_" class="st27" d="M215.6,508.8c-8.5-1.4-16.9-3.1-25.1-5.3c-0.2-0.1-0.4-0.1-0.6-0.2
			c-5.9-1.6-11.6-3.3-17.3-5.3c-10.5-3.6-20.7-7.9-30.5-12.8h0l-19.1-45.2c-0.7-1.6-0.6-3.4,0.1-4.9c0.1-0.3,0.3-0.5,0.4-0.8
			c0.2-0.2,0.3-0.5,0.5-0.7c0.1-0.1,0.2-0.2,0.3-0.3c0.1-0.1,0.2-0.2,0.3-0.3c0.2-0.2,0.5-0.4,0.7-0.5s0.5-0.3,0.8-0.4l0.8-0.4
			l0.1,0l13.9-5.9v0l28-11.8c1.2-0.5,2.4-0.6,3.5-0.4c1.9,0.4,3.6,1.7,4.4,3.6l1.4,3.4l11.6,27.3l0.6,1.5L215.6,508.8z"/>
		<path id="XMLID_506_" class="st29" d="M147.9,440.1l0.5,1.3l24,56.7c-10.5-3.6-20.7-7.9-30.5-12.8h0l-19.1-45.2
			c-0.7-1.6-0.6-3.4,0.1-4.9c0.1-0.3,0.3-0.5,0.4-0.8c0.2-0.2,0.3-0.5,0.5-0.7c0.1-0.1,0.2-0.2,0.3-0.3c0.1-0.1,0.2-0.2,0.3-0.3
			c0.2-0.2,0.5-0.4,0.7-0.5s0.5-0.3,0.8-0.4l0.8-0.4l0.1,0l13.9-5.9v0l28-11.8c1.2-0.5,2.4-0.6,3.5-0.4c1.9,0.4,3.6,1.7,4.4,3.6
			l1.4,3.4l-4.2,1.8l-22.9,9.7C148,433.4,146.6,437,147.9,440.1z"/>
		<path id="XMLID_17_" class="st27" d="M450.7,418.8v3.5c-2.3,2.7-4.7,5.4-7.1,8c-4.2,4.5-8.5,8.8-12.9,13
			c-8.7,8.2-18,15.7-27.9,22.6c-3.5,2.5-7.1,4.8-10.7,7.1v-44.3c0-5.4,4.4-9.8,9.8-9.8H450.7z"/>
		<path id="XMLID_508_" class="st26" d="M278.7,336v175c-7.5,0.6-15.1,1-22.7,1c-1,0-1.9,0-2.9,0c-1.6,0-3.2,0-4.7-0.1
			c-3.5-0.1-6.9-0.3-10.3-0.5V336c0-0.4,0-0.7,0-1.1c0.5-5.8,5.2-10.3,11-10.6c0.2,0,0.3,0,0.5,0H267c6.1,0,11.1,4.7,11.6,10.6
			C278.7,335.3,278.7,335.7,278.7,336z"/>
		<path id="XMLID_511_" class="st30" d="M264.8,324.3c-6.1,0-11.1,4.7-11.6,10.6c0,0.4,0,0.7,0,1.1v176c-1.6,0-3.2,0-4.7-0.1
			c-3.5-0.1-6.9-0.3-10.3-0.5c0,0-0.1,0-0.1,0V336c0-0.4,0-0.7,0.1-1.1c0.5-5.8,5.3-10.4,11.2-10.6c0.2,0,0.3,0,0.5,0H264.8z"/>
		<path id="XMLID_503_" class="st26" d="M402.8,336v129.7c-3.5,2.5-7.1,4.8-10.7,7.1c-4.8,3-9.8,5.9-14.8,8.6
			c-2.6,1.4-5.2,2.7-7.8,4c-2.4,1.2-4.8,2.3-7.2,3.5V336c0-0.4,0-0.7,0-1.1c0.5-5.8,5.2-10.3,11-10.6c0.2,0,0.3,0,0.5,0h17.4
			c6.1,0,11.1,4.7,11.6,10.6C402.8,335.3,402.8,335.7,402.8,336z"/>
		<path id="XMLID_502_" class="st30" d="M388.9,324.3c-6.1,0-11.1,4.7-11.6,10.6c0,0.4-0.1,0.7-0.1,1.1v145.5
			c-2.6,1.4-5.2,2.7-7.8,4c-2.4,1.2-4.8,2.3-7.2,3.5c0,0-0.1,0-0.1,0V336c0-0.4,0-0.7,0-1.1c0.5-5.8,5.3-10.4,11.2-10.6
			c0.2,0,0.3,0,0.5,0H388.9z"/>
		<ellipse id="XMLID_10_" class="st21" cx="320.4" cy="214.2" rx="13.8" ry="9.8"/>
		<path id="XMLID_11_" class="st31" d="M390.5,50.5c11.1,5.5,26.8,16.6,35.8,37.4c2,4.6-2.7,9.2-7.2,7.1l0,0
			c-2.9-1.4-5.9,1.6-4.6,4.5c1.9,4.3,4.2,9.8,6.1,15.3c2,5.6-5.3,9.9-9.2,5.3C401,108,385.6,93.7,369.5,91.8
			c-1.8-0.2-2.8-2.2-1.8-3.8c2.3-3.7,6.9-9.3,14.1-11.2c6.5-1.7,10.6-8.2,9.3-14.7c-0.5-2.5-1.6-5.2-3.6-7.9
			C385.9,52.1,388.2,49.3,390.5,50.5z"/>
	</g>
</g>
</svg>
