<?xml version="1.0" encoding="utf-8"?>
<!-- Generator: Adobe Illustrator 22.0.1, SVG Export Plug-In . SVG Version: 6.00 Build 0)  -->
<svg version="1.1" xmlns="http://www.w3.org/2000/svg" xmlns:xlink="http://www.w3.org/1999/xlink" x="0px" y="0px"
	 viewBox="0 0 512 512" style="enable-background:new 0 0 512 512;" xml:space="preserve">
<style type="text/css">
	.st0{fill:#E9B12D;}
	.st1{fill:#A9E7D8;}
	.st2{fill:#76CFB1;}
	.st3{fill:#AE6B5D;}
	.st4{fill:#7770D3;}
	.st5{fill:#5BA0F5;}
	.st6{fill:#DA4545;}
	.st7{fill:#89CCFC;}
	.st8{fill:#CD462A;}
	.st9{fill:#514896;}
	.st10{fill:#5493A0;}
	.st11{fill:#CC6B5C;}
	.st12{fill:#62AA8D;}
	.st13{fill:#8ABAAB;}
	.st14{fill:#C3791F;}
	.st15{fill:#E39123;}
	.st16{fill:#FFFFFF;}
	.st17{fill:none;stroke:#FFFFFF;stroke-width:10;stroke-linecap:round;stroke-miterlimit:10;}
	.st18{fill:none;stroke:#5F55AB;stroke-width:10;stroke-linecap:round;stroke-miterlimit:10;}
	.st19{fill:#A9671C;}
	.st20{fill:#D5B3A7;}
	.st21{fill:#C09A8F;}
	.st22{fill:#487F87;}
	.st23{fill:#1B305C;}
	.st24{fill:#172945;}
	.st25{fill:none;}
	.st26{fill:#B62A2A;}
	.st27{fill:#325859;}
	.st28{fill:#3F6E71;}
	.st29{fill:#284646;}
	.st30{fill:#8F2727;}
	.st31{fill:#29477C;}
	.st32{fill:#5B9BEE;}
	.st33{fill:#487FDE;}
	.st34{fill:#CD9829;}
	.st35{fill:#9F2A2A;}
	.st36{fill:#4C3328;}
	.st37{fill:#E8B94A;}
	.st38{fill:#DDF8F1;}
	.st39{fill:#3E2A22;}
	.st40{fill:#D3A971;}
	.st41{fill:#C79A5B;}
	.st42{fill:#233E76;}
	.st43{fill:#21395F;}
	.st44{fill:#487D82;}
	.st45{fill:none;stroke:#C79A5B;stroke-width:10;stroke-linecap:round;stroke-miterlimit:10;}
	.st46{fill:#5E3E31;}
	.st47{fill:#AC3939;}
	.st48{fill:#CA9628;}
	.st49{fill:#AF8F88;}
	.st50{fill:#815048;}
	.st51{fill:#6F4232;}
	.st52{fill:#5F55AB;}
	.st53{fill:#192A48;}
	.st54{fill:#152336;}
	.st55{fill:#192B49;}
	.st56{fill:#264173;}
	.st57{fill:#B06F1E;}
	.st58{fill:#4E88C0;}
	.st59{fill:#83C3F1;}
	.st60{fill:#CF9929;}
	.st61{fill:none;stroke:#FFFFFF;stroke-width:10;stroke-linecap:round;stroke-linejoin:round;stroke-miterlimit:10;}
	.st62{fill:#EAC262;}
	.st63{fill:#D6D5D4;}
	.st64{fill:#6BBA9B;}
	.st65{fill:#63AA8F;}
	.st66{fill:none;stroke:#3E2A22;stroke-width:10;stroke-linecap:round;stroke-miterlimit:10;}
	.st67{fill:#CA7D1F;}
	.st68{fill:#213B64;}
	.st69{fill:#CDF8EC;}
	.st70{fill:#C59125;}
	.st71{fill:none;stroke:#C09A8F;stroke-width:10;stroke-linecap:round;stroke-miterlimit:10;}
	.st72{fill:#32579B;}
	.st73{fill:#172843;}
	.st74{fill:#D66767;}
	.st75{fill:#A74949;}
	.st76{fill:#EBC76F;}
	.st77{fill:#7A4940;}
	.st78{fill:#182A48;}
	.st79{fill:none;stroke:#A0794A;stroke-width:10;stroke-linecap:round;stroke-miterlimit:10;}
	.st80{fill:#C37A20;}
	.st81{fill:#D26D5C;}
	.st82{fill:#A45752;}
	.st83{fill:#284579;}
	.st84{fill:#88C7F4;}
	.st85{fill:#6EB6F0;}
	.st86{fill:#32221E;}
	.st87{fill:#E7A6A6;}
	.st88{fill:#C59191;}
	.st89{fill:#AA3B3B;}
	.st90{fill:#B83E3E;}
	.st91{fill:none;stroke:#5F55A9;stroke-width:10;stroke-linecap:round;stroke-miterlimit:10;}
	.st92{fill:#963838;}
	.st93{fill:#402B25;}
	.st94{fill:#6B6ABA;}
	.st95{fill:#BABABA;}
	.st96{fill:#D1D1D1;}
	.st97{fill:#264377;}
	.st98{fill:#A19BF5;}
	.st99{fill:#3C2A21;}
	.st100{fill:none;stroke:#4C3328;stroke-width:10;stroke-linecap:round;stroke-miterlimit:10;}
	.st101{fill:#C1781F;}
	.st102{fill:#E3A147;}
	.st103{fill:#F2D2A1;}
	.st104{fill:#4F372D;}
	.st105{fill:none;stroke:#DA4545;stroke-width:10;stroke-linecap:round;stroke-miterlimit:10;}
	.st106{fill:#AA3928;}
	.st107{fill:#8C2C22;}
	.st108{fill:#BF4336;}
	.st109{fill:#5797D4;}
	.st110{fill:#CFCFCF;}
	.st111{fill:#613A2E;}
	.st112{fill:none;stroke:#B18653;stroke-width:10;stroke-linecap:round;stroke-miterlimit:10;}
	.st113{fill:#B13B3B;}
	.st114{fill:#16263A;}
	.st115{fill:none;stroke:#16263A;stroke-width:10;stroke-miterlimit:10;}
	.st116{fill:#C87D20;}
	.st117{fill:#E4F0FD;}
	.st118{fill:#AA3737;}
	.st119{fill:#BF771F;}
	.st120{fill:none;stroke:#CD462A;stroke-width:10;stroke-linejoin:round;stroke-miterlimit:10;}
	.st121{fill:#5696D2;}
	.st122{fill:#C0771E;}
	.st123{fill:#9B5F1B;}
	.st124{fill:#A83A29;}
	.st125{fill:#E7A74F;}
	.st126{fill:#C9924C;}
	.st127{fill:#C58E48;}
	.st128{fill:#BE8844;}
	.st129{fill:#916939;}
	.st130{fill:#264275;}
	.st131{fill:#253F65;}
	.st132{fill:#182A45;}
	.st133{fill:#162336;}
	.st134{fill:#93C7B7;}
	.st135{fill:#E6A4A4;}
	.st136{fill:#B06B1D;}
	.st137{fill:#484185;}
	.st138{fill:#DB6E6E;}
	.st139{fill:#6BBA9A;}
	.st140{fill:#CACCCC;}
	.st141{fill:#D4D4D4;}
	.st142{fill:#A98881;}
	.st143{fill:#213A62;}
	.st144{fill:#A2837D;}
	.st145{fill:#6FB8F4;}
	.st146{fill:#9B9E9E;}
	.st147{fill:#B2B3B3;}
	.st148{fill:#20385D;}
	.st149{fill:#335AA8;}
	.st150{fill:#BCE7FD;}
	.st151{fill:#3B2921;}
	.st152{fill:#AD3C3C;}
	.st153{fill:#9D3838;}
	.st154{fill:#603F33;}
	.st155{fill:#4D868B;}
	.st156{fill:#A2DDFD;}
	.st157{fill:#ECB6B6;}
	.st158{fill:#E8A346;}
	.st159{fill:#514C94;}
	.st160{fill:#D2F1E8;}
	.st161{fill:#BDD6CE;}
	.st162{fill:#B93B29;}
	.st163{fill:#E0AD70;}
	.st164{fill:#C57C21;}
	.st165{fill:#EDA34A;}
	.st166{fill:#2F538F;}
	.st167{fill:#2B4B78;}
	.st168{fill:#65AF91;}
	.st169{fill:#A7CEFC;}
	.st170{fill:#98BDE2;}
	.st171{fill:#CFE5F7;}
	.st172{fill:#5492CD;}
	.st173{fill:#97CCBC;}
	.st174{fill:#5491CA;}
	.st175{fill:#EDC563;}
	.st176{fill:#423C79;}
	.st177{fill:#D3B1A5;}
	.st178{fill:#BE988D;}
	.st179{fill:#A7E5D6;}
	.st180{fill:#F2FFF9;}
	.st181{fill:#D64545;}
	.st182{fill:#A73B3B;}
	.st183{fill:#15233A;}
	.st184{fill:none;stroke:#BE988D;stroke-width:10;stroke-linecap:round;stroke-miterlimit:10;}
	.st185{fill:#AF3A29;}
	.st186{fill:#FAF9FF;}
	.st187{fill:#CACACC;}
	.st188{fill:#372720;}
	.st189{fill:#3F2C26;}
	.st190{fill:#2D201C;}
	.st191{fill:#3D6D6F;}
	.st192{fill:#5B54A8;}
	.st193{fill:#325799;}
	.st194{fill:#E8C26E;}
	.st195{fill:#254784;}
	.st196{fill:#5696D4;}
	.st197{fill:#4F8AB6;}
	.st198{fill:#5FA4AC;}
	.st199{fill:#AA3524;}
	.st200{fill:#D15F4D;}
	.st201{fill:#2B294C;}
	.st202{fill:#A43A2A;}
	.st203{fill:#E7AE2D;}
	.st204{fill:#CD9729;}
	.st205{fill:none;stroke:#AA8253;stroke-width:10;stroke-linecap:round;stroke-miterlimit:10;}
	.st206{fill:none;stroke:#E18F23;stroke-width:10;stroke-linecap:round;stroke-linejoin:round;stroke-miterlimit:10;}
	.st207{fill:#CF9828;}
	.st208{fill:#B88926;}
	.st209{fill:#A17623;}
	.st210{fill:#96CCBC;}
	.st211{fill:#CF9A2A;}
	.st212{fill:#C57B20;}
	.st213{fill:#C7F1E6;}
	.st214{fill:#DC6363;}
	.st215{fill:#E89F9F;}
	.st216{fill:#C88C8C;}
	.st217{fill:#C16E6E;}
	.st218{fill:#A46060;}
	.st219{fill:#AA3626;}
	.st220{fill:#87EDC4;}
	.st221{fill:#D86552;}
	.st222{fill:#BC7620;}
	.st223{fill:#BA741E;}
	.st224{fill:#8F8CE3;}
	.st225{fill:#3A2820;}
	.st226{fill:#AC7060;}
	.st227{fill:#915F55;}
	.st228{fill:#49332A;}
	.st229{fill:#2D1F1B;}
	.st230{fill:#69B7BE;}
	.st231{fill:#D6D6D6;}
	.st232{fill:#B8B8B8;}
	.st233{fill:#CACACA;}
	.st234{fill:#467B80;}
	.st235{fill:#C2EDE2;}
	.st236{fill:#A9574F;}
	.st237{fill:#5595D2;}
	.st238{fill:#955949;}
	.st239{fill:#7E4B42;}
	.st240{fill:#89CCF1;}
	.st241{fill:#DD584A;}
	.st242{fill:#C18F26;}
	.st243{fill:#B33C2A;}
	.st244{fill:#D1A771;}
	.st245{fill:#B42A2A;}
	.st246{fill:#325797;}
	.st247{fill:#9F3529;}
	.st248{fill:#EDCE80;}
	.st249{fill:#F0DBAC;}
	.st250{fill:#CFB478;}
	.st251{fill:#D4C29B;}
	.st252{fill:#993939;}
	.st253{fill:#D1AFA3;}
	.st254{fill:#BC968B;}
	.st255{fill:none;stroke:#BC968B;stroke-width:10;stroke-linecap:round;stroke-miterlimit:10;}
	.st256{fill:#814C3C;}
	.st257{fill:#C0EBE0;}
	.st258{fill:#A5E3D4;}
	.st259{fill:#15243C;}
	.st260{fill:#443E79;}
	.st261{fill:#F0FFF7;}
	.st262{fill:#9A764B;}
	.st263{fill:#826443;}
	.st264{fill:#D9AA74;}
	.st265{fill:#5DA186;}
	.st266{fill:#68B596;}
	.st267{fill:#E5C6BE;}
	.st268{fill:#D3B6B1;}
	.st269{fill:none;stroke:#BAA09C;stroke-width:10;stroke-linecap:round;stroke-miterlimit:10;}
	.st270{fill:#F4D78F;}
	.st271{fill:#20385F;}
	.st272{fill:#BA8727;}
	.st273{fill:#5A9C82;}
	.st274{fill:none;stroke:#E39123;stroke-width:10;stroke-linecap:round;stroke-linejoin:round;stroke-miterlimit:10;}
	.st275{fill:#60392D;}
	.st276{fill:#CCCCCC;}
	.st277{fill:#844F3E;}
	.st278{fill:#F3FFFB;}
	.st279{fill:#365E60;}
	.st280{fill:#D84545;}
	.st281{fill:#A83B3B;}
	.st282{fill:#253F70;}
	.st283{fill:#EAADAD;}
	.st284{fill:#443E7C;}
	.st285{fill:#3D6B9F;}
	.st286{fill:#4274BC;}
	.st287{fill:#AF3827;}
	.st288{fill:#E59D9D;}
	.st289{fill:#C48989;}
	.st290{fill:none;stroke:#9B621A;stroke-width:10;stroke-linecap:round;stroke-linejoin:round;stroke-miterlimit:10;}
	.st291{fill:#213A5E;}
	.st292{fill:#2D507A;}
	.st293{fill:#528EC8;}
	.st294{fill:#EFD696;}
	.st295{fill:#D1BA87;}
	.st296{fill:#FDFCFC;}
	.st297{fill:#86CBFC;}
	.st298{fill:#7AB7DA;}
	.st299{fill:#192C4C;}
	.st300{fill:#BCBCBC;}
	.st301{fill:#A13838;}
	.st302{fill:#75BDF6;}
	.st303{fill:#D0B1AA;}
	.st304{fill:#142233;}
	.st305{fill:#E6C4BB;}
	.st306{fill:#BDBDBD;}
	.st307{fill:#E8A192;}
	.st308{fill:#A43939;}
	.st309{fill:#162640;}
	.st310{fill:#27457C;}
	.st311{fill:#EFBE5E;}
	.st312{fill:#87EDC5;}
	.st313{fill:#A03838;}
	.st314{fill:#833232;}
	.st315{fill:#47417F;}
	.st316{fill:none;stroke:#915F55;stroke-width:10;stroke-linecap:round;stroke-miterlimit:10;}
	.st317{fill:#BC8B25;}
	.st318{fill:#473129;}
	.st319{fill:#67B394;}
	.st320{fill:#599A80;}
	.st321{fill:#B13D3D;}
</style>
<g id="BULINE">
	<circle id="XMLID_2023_" class="st8" cx="256" cy="256" r="256"/>
	<g>
	</g>
</g>
<g id="Icons">
	<g id="XMLID_14_">
		<path id="XMLID_2539_" class="st185" d="M511.8,265.9c-1.6,41.7-13.2,80.9-32.4,115.2c-15.9,28.3-37.1,53.3-62.1,73.7
			c-6.3,5.1-12.8,9.9-19.5,14.4c-5.5,3.6-11.1,7.1-16.8,10.3C344,500.2,301.4,512,256,512c-1.3,0-2.5,0-3.8,0
			c-13-0.2-25.8-1.3-38.3-3.4c-8.2-1.4-16.3-3.1-24.2-5.2c-0.1,0-0.2-0.1-0.4-0.1c-14.6-3.9-28.7-9.1-42.1-15.4
			c-11.2-5.2-22-11.3-32.2-18.1c-0.1,0-0.1-0.1-0.2-0.1C48.1,425.4,3.3,350.8,0.2,265.5h82.5v-53c0-10.5,8.5-18.9,18.9-18.9h80.7
			c8.4,0,15.5,5.5,18,13.1c5-5.9,12.4-9.7,20.8-9.7h190.4c0.5,0,1,0,1.5,0v-46.4c0-6.1,4.9-11,11-11h50.6c6.1,0,11,4.9,11,11v115.4
			H511.8z"/>
		<path id="XMLID_2443_" class="st186" d="M397.7,396.1v73.1c-5.5,3.6-11.1,7.1-16.8,10.3C344,500.2,301.4,512,256,512
			c-1.3,0-2.5,0-3.8,0c-13-0.2-25.8-1.3-38.3-3.4c-8.2-1.4-16.3-3.1-24.2-5.2c-0.1,0-0.2-0.1-0.4-0.1c-14.6-3.9-28.7-9.1-42.1-15.4
			c-11.2-5.2-22-11.3-32.2-18.1c-0.1,0-0.1-0.1-0.2-0.1v-73.5c0-26.9,21.4-48.8,48-49.6c0.2,0,0.3,0,0.5,0c0.4,0,0.7,0,1.1,0h183.7
			c5.6,0,10.9,0.9,16,2.6c9.7,3.3,18,9.5,24,17.6C394.1,375,397.7,385.1,397.7,396.1z"/>
		<path id="XMLID_2427_" class="st187" d="M196.9,346.5c-1.8,0-3.6,0.1-5.4,0.3c-2.2,0.2-4.4,0.6-6.5,1.1
			c-8.5,2.1-16.1,6.3-22.2,12.1c-9.6,9-15.5,21.8-15.5,36v91.7c-11.2-5.2-22-11.3-32.2-18.1v-73.6c0-26.8,21.2-48.6,47.8-49.6
			c0.5,0,1.1,0,1.6,0H196.9z"/>
		<path id="XMLID_2362_" class="st50" d="M264.5,367.2h-16c-12.8,0-23.2-10.4-23.2-23.2v-38.2c0-12.8,10.4-23.2,23.2-23.2h16
			c12.8,0,23.2,10.4,23.2,23.2v38.2C287.7,356.9,277.3,367.2,264.5,367.2z"/>
		<path id="XMLID_2361_" class="st51" d="M267.4,367c-1.1,0.2-2.2,0.2-3.3,0.2h-16c-12.8,0-23.2-10.4-23.2-23.2v-38.2
			c0-12.8,10.4-23.2,23.2-23.2h16c1.1,0,2.2,0.1,3.3,0.2c-11.2,1.6-19.8,11.3-19.8,22.9v38.2C247.6,355.7,256.2,365.4,267.4,367z"/>
		<path id="XMLID_4194_" class="st188" d="M406.7,101.4c0-11.9-7.4-22.1-17.9-26.2c0.9-2.8,1.4-5.7,1.4-8.8c0-3.9-0.8-7.7-2.3-11.1
			c-4.3-10-14.3-17.1-25.9-17.1c-1.2,0-2.3,0.1-3.5,0.2c-3.1-12.2-14.1-21.2-27.3-21.2c-5.7,0-11,1.7-15.4,4.6
			c-14.8-10.1-36.2-16.4-60-16.4c-21.1,0-40.3,5-54.7,13.2c-2.7-0.9-5.6-1.3-8.5-1.3c-13.4,0-24.7,9.4-27.5,22c-2.4-0.7-4.9-1-7.6-1
			c-10,0-18.7,5.2-23.7,13c-2.8,4.4-4.4,9.6-4.4,15.2c0,2.4,0.3,4.8,0.9,7c-14.1,1.6-25,13.5-25,28c0,10.8,6.1,20.1,14.9,24.9
			c-3.4,4.6-5.4,10.3-5.4,16.5c0,8.5,3.8,16.1,9.7,21.2c2.1-1,4.5-1.6,7-1.6h2.3h242.3h2.8c3,0,5.8,0.8,8.2,2.2
			c6.3-5.2,10.4-13,10.4-21.8c0-6.2-2-12-5.4-16.7C400.8,121.4,406.7,112.1,406.7,101.4z"/>
		<path id="XMLID_4220_" class="st189" d="M276.2,24.4c8.8,4.4,21.2,13.1,28.3,29.5c1.6,3.6-2.2,7.3-5.7,5.6v0
			c-2.3-1.1-4.7,1.3-3.7,3.6c1.5,3.4,3.3,7.7,4.9,12.1c1.6,4.5-4.2,7.8-7.3,4.2c-8.2-9.6-20.4-20.8-33.1-22.4
			c-1.4-0.2-2.2-1.8-1.4-3c1.8-2.9,5.4-7.3,11.1-8.9c5.1-1.4,8.4-6.5,7.3-11.6c-0.4-2-1.3-4.1-2.8-6.3
			C272.5,25.7,274.3,23.5,276.2,24.4z"/>
		<path id="XMLID_2367_" class="st50" d="M266.8,396.4h-19.3c-18.7,0-33.9-15.2-33.9-33.9v-16h87v16
			C300.7,381.2,285.5,396.4,266.8,396.4z"/>
		<path id="XMLID_2430_" class="st186" d="M479.4,381.1c-15.9,28.3-37.1,53.3-62.1,73.7c-6.3,5.1-12.8,9.9-19.5,14.4
			c-5.5,3.6-11.1,7.1-16.8,10.3l16.8-55.6l16.7-55c0.8-2.6,3-4.5,5.6-5c1.1-0.2,2.3-0.2,3.5,0.2l19.5,5.9l6.3,1.9l25.8,7.8h0
			l0.5,0.1l2.5,0.8C478.5,380.7,479,380.9,479.4,381.1z"/>
		<path id="XMLID_2425_" class="st187" d="M443,369.9l-4.2,13.9l0,0l-21.5,71c-6.3,5.1-12.8,9.9-19.5,14.4
			c-5.5,3.6-11.1,7.1-16.8,10.3l16.8-55.6l16.7-55c0.8-2.6,3-4.5,5.6-5c1.1-0.2,2.3-0.2,3.5,0.2L443,369.9z"/>
		<path id="XMLID_2431_" class="st23" d="M388.1,366.7c-0.6,1.3-1.5,2.6-2.6,3.7l-81.9,87l-33.4,35.4l-18,19.1
			c-13-0.2-25.8-1.3-38.3-3.4c-8.2-1.4-16.3-3.1-24.2-5.2l43.3-45.9l34.5-36.7l69.9-74.2l10.7-11.3c2.8-3,6.6-4.6,10.4-4.6
			c3.7-0.1,7.4,1.2,10.3,4l16.1,15.2C389.7,354.2,390.8,361.1,388.1,366.7z"/>
		<path id="XMLID_2422_" class="st78" d="M373.4,339.3l-9.3,9.9l-81.4,86.4L248,472.4l-34.1,36.1c-8.2-1.4-16.3-3.1-24.2-5.2
			c-0.1,0-0.2-0.1-0.4-0.1l43.4-46.1l34.5-36.6l69.7-74l10.7-11.3c2.9-3.1,6.9-4.7,10.9-4.6c3.5,0,7.1,1.4,9.8,4L373.4,339.3z"/>
		<path id="XMLID_2353_" class="st26" d="M265.6,490l-32.1-32.1c-4.5-4.5-4.5-11.7,0-16.1l19.6-19.6c4.5-4.5,11.7-4.5,16.1,0
			l32.1,32.1c4.5,4.5,4.5,11.7,0,16.1L281.7,490C277.3,494.5,270,494.5,265.6,490z"/>
		<path id="XMLID_2324_" class="st50" d="M388.3,164.6c-2.4-1.4-5.2-2.2-8.2-2.2h-2.8v-18.9c0-35.3-15.1-67.1-39.3-89.3
			c0,0.4,0,0.7,0,1.1c0,6.4-2,12.5-5.5,18.2c-11.8,18.6-41.1,31.8-75.5,31.8c-31.8,0-59.3-11.3-72.5-27.7
			c-5.4-6.7-8.5-14.3-8.5-22.3c0-0.9,0.1-1.9,0.1-2.8c-25.2,22.2-41.2,54.7-41.2,91v0v18.9h-2.3c-2.5,0-4.9,0.6-7,1.6
			c-5.7,2.7-9.7,8.4-9.7,15.2v16c0,9.2,7.5,16.7,16.7,16.7h3.1c0,0,0,0,0,0c1.2,10.3,3.6,20.3,7.2,29.7c0,0.1,0,0.1,0.1,0.2
			c0.3,0.8,0.6,1.6,0.9,2.3c0,0.1,0.1,0.2,0.1,0.3c0.3,0.7,0.6,1.5,0.9,2.2c0.1,0.1,0.1,0.2,0.2,0.4c0.3,0.7,0.6,1.4,1,2.2
			c0.1,0.1,0.1,0.3,0.2,0.4c0.3,0.7,0.7,1.4,1,2.1c0.1,0.1,0.1,0.2,0.2,0.4c0.4,0.7,0.7,1.4,1.1,2.1c0.1,0.1,0.1,0.2,0.2,0.3
			c0.4,0.7,0.8,1.4,1.2,2.1c0,0.1,0.1,0.1,0.1,0.2c2.6,4.6,5.4,9.1,8.5,13.3c0.1,0.1,0.1,0.2,0.2,0.3c0.4,0.6,0.8,1.1,1.3,1.7
			c0.1,0.2,0.3,0.4,0.4,0.6c0.4,0.5,0.8,1,1.2,1.5c0.2,0.2,0.4,0.5,0.6,0.7c0.4,0.5,0.8,0.9,1.2,1.4c0.2,0.3,0.4,0.5,0.6,0.8
			c0.4,0.4,0.8,0.9,1.1,1.3c0.2,0.3,0.5,0.5,0.7,0.8c0.4,0.4,0.7,0.8,1.1,1.2c0.3,0.3,0.5,0.6,0.8,0.8c0.4,0.4,0.7,0.8,1.1,1.2
			c0.3,0.3,0.6,0.6,0.8,0.9c0.4,0.4,0.7,0.7,1.1,1.1c0.3,0.3,0.6,0.6,0.9,0.9c0.4,0.4,0.7,0.7,1.1,1.1c0.3,0.3,0.6,0.6,1,0.9
			c0.4,0.3,0.7,0.7,1.1,1c0.3,0.3,0.7,0.6,1,0.9c0.4,0.3,0.7,0.6,1.1,0.9c0.4,0.3,0.8,0.7,1.2,1c0.3,0.3,0.6,0.5,1,0.8
			c0.6,0.5,1.2,1,1.8,1.5c0.2,0.2,0.4,0.4,0.7,0.5c0.6,0.5,1.3,1,1.9,1.5c0.2,0.2,0.5,0.4,0.8,0.6c0.5,0.4,1,0.7,1.5,1.1
			c0.3,0.2,0.6,0.4,0.9,0.6c0.5,0.3,1,0.7,1.5,1c0.3,0.2,0.6,0.4,0.9,0.6c0.5,0.3,1,0.6,1.5,1c0.3,0.2,0.6,0.4,0.9,0.6
			c0.5,0.3,1,0.6,1.5,0.9c0.3,0.2,0.6,0.4,0.9,0.6c0.5,0.3,1,0.6,1.5,0.9c0.3,0.2,0.6,0.4,0.9,0.5c0.5,0.3,1,0.6,1.6,0.9
			c0.3,0.2,0.6,0.3,0.9,0.5c0.5,0.3,1.1,0.6,1.6,0.9c0.3,0.2,0.6,0.3,0.9,0.5c0.6,0.3,1.1,0.6,1.7,0.8c0.3,0.1,0.6,0.3,0.8,0.4
			c0.6,0.3,1.2,0.6,1.8,0.8c0.3,0.1,0.5,0.2,0.8,0.4c0.7,0.3,1.3,0.6,2,0.9c0.2,0.1,0.4,0.2,0.6,0.3c0.8,0.3,1.6,0.6,2.3,1
			c0.1,0,0.2,0.1,0.3,0.1c2.7,1.1,5.5,2.1,8.3,2.9c0.1,0,0.1,0,0.2,0.1c0.8,0.3,1.7,0.5,2.6,0.8c0.2,0.1,0.4,0.1,0.5,0.1
			c0.8,0.2,1.5,0.4,2.3,0.6c0.2,0.1,0.5,0.1,0.7,0.2c0.7,0.2,1.4,0.4,2.1,0.5c0.3,0.1,0.5,0.1,0.8,0.2c0.7,0.2,1.4,0.3,2.1,0.5
			c0.3,0.1,0.6,0.1,0.8,0.2c0.7,0.1,1.4,0.3,2.1,0.4c0.3,0.1,0.6,0.1,0.9,0.2c0.7,0.1,1.4,0.2,2.1,0.3c0.3,0,0.6,0.1,0.8,0.1
			c0.7,0.1,1.4,0.2,2.1,0.3c0.3,0,0.5,0.1,0.8,0.1c0.7,0.1,1.5,0.2,2.2,0.3c0.3,0,0.5,0.1,0.8,0.1c0.8,0.1,1.6,0.1,2.3,0.2
			c0.2,0,0.4,0,0.6,0.1c0.9,0.1,1.7,0.1,2.6,0.2c0.1,0,0.3,0,0.4,0c2,0.1,4.1,0.2,6.2,0.2c1.9,0,3.9,0,5.8-0.1c0,0,0.1,0,0.1,0
			c0.9,0,1.8-0.1,2.7-0.2c0.2,0,0.4,0,0.5,0c0.7-0.1,1.5-0.1,2.2-0.2c0.3,0,0.5-0.1,0.8-0.1c0.6-0.1,1.3-0.1,1.9-0.2
			c0.3,0,0.7-0.1,1-0.1c0.6-0.1,1.2-0.1,1.7-0.2c0.4-0.1,0.8-0.1,1.1-0.2c0.5-0.1,1-0.2,1.5-0.2c0.4-0.1,0.8-0.1,1.3-0.2
			c0.3,0,0.6-0.1,0.8-0.1c0,0,0,0,0,0c52.2-9.4,92.8-52.2,98.8-105.6h3.6c9.2,0,16.7-7.5,16.7-16.7v-16
			C396.8,173,393.4,167.5,388.3,164.6z"/>
		<path id="XMLID_2313_" class="st51" d="M278.1,317.5C278.1,317.5,278.1,317.5,278.1,317.5c-0.3,0.1-0.5,0.1-0.8,0.1
			c-0.4,0.1-0.8,0.1-1.3,0.2c-0.5,0.1-1,0.2-1.5,0.2c-0.4,0.1-0.8,0.1-1.1,0.2c-0.6,0.1-1.2,0.2-1.7,0.2c-0.3,0-0.7,0.1-1,0.1
			c-0.6,0.1-1.3,0.1-1.9,0.2c-0.3,0-0.5,0.1-0.8,0.1c-0.7,0.1-1.5,0.1-2.2,0.2c-0.2,0-0.4,0-0.5,0c-0.9,0.1-1.8,0.1-2.7,0.2
			c0,0-0.1,0-0.2,0c-1.9,0.1-3.8,0.1-5.8,0.1c-2.1,0-4.1,0-6.2-0.2c-0.1,0-0.3,0-0.4,0c-0.9,0-1.8-0.1-2.6-0.2c-0.2,0-0.4,0-0.6,0
			c-0.8-0.1-1.6-0.1-2.3-0.2c-0.3,0-0.5-0.1-0.8-0.1c-0.7-0.1-1.5-0.2-2.2-0.3c-0.3,0-0.5-0.1-0.8-0.1c-0.7-0.1-1.4-0.2-2.1-0.3
			c-0.3,0-0.6-0.1-0.8-0.1c-0.7-0.1-1.4-0.2-2.1-0.3c-0.3,0-0.6-0.1-0.8-0.2c-0.7-0.1-1.4-0.3-2.1-0.4c-0.3,0-0.5-0.1-0.8-0.2
			c-0.7-0.1-1.4-0.3-2.1-0.5c-0.3-0.1-0.5-0.1-0.8-0.2c-0.7-0.2-1.4-0.3-2.1-0.5c-0.2-0.1-0.5-0.1-0.7-0.2c-0.8-0.2-1.5-0.4-2.3-0.6
			c-0.2,0-0.4-0.1-0.5-0.1c-0.8-0.2-1.7-0.5-2.5-0.8c-0.1,0-0.1,0-0.2-0.1c-2.8-0.9-5.6-1.9-8.3-2.9c-0.1,0-0.2-0.1-0.3-0.1
			c-0.8-0.3-1.6-0.6-2.4-1c-0.2-0.1-0.4-0.2-0.6-0.3c-0.7-0.3-1.3-0.6-2-0.9c-0.3-0.1-0.5-0.2-0.8-0.4c-0.6-0.3-1.2-0.6-1.8-0.8
			c-0.3-0.1-0.6-0.3-0.8-0.4c-0.6-0.3-1.2-0.6-1.7-0.8c-0.3-0.2-0.6-0.3-0.9-0.5c-0.6-0.3-1.1-0.6-1.6-0.8c-0.3-0.2-0.6-0.3-0.9-0.5
			c-0.5-0.3-1-0.6-1.6-0.9c-0.3-0.2-0.6-0.3-0.9-0.5c-0.5-0.3-1-0.6-1.5-0.9l-0.9-0.6c-0.5-0.3-1-0.6-1.5-0.9
			c-0.3-0.2-0.6-0.4-0.9-0.6c-0.5-0.3-1-0.6-1.5-1c-0.3-0.2-0.6-0.4-0.9-0.6c-0.5-0.3-1-0.7-1.5-1c-0.3-0.2-0.6-0.4-0.9-0.6
			c-0.5-0.4-1-0.8-1.5-1.1c-0.2-0.2-0.5-0.4-0.8-0.5c-0.7-0.5-1.3-1-1.9-1.5c-0.2-0.2-0.5-0.3-0.7-0.5c-0.6-0.5-1.2-1-1.8-1.5
			c-0.3-0.3-0.6-0.5-1-0.8c-0.4-0.3-0.8-0.7-1.2-1c-0.3-0.3-0.7-0.6-1-0.9c-0.3-0.3-0.7-0.6-1-0.9c-0.4-0.3-0.7-0.7-1.1-1
			c-0.3-0.3-0.6-0.6-1-0.9c-0.4-0.4-0.7-0.7-1.1-1.1c-0.3-0.3-0.6-0.6-0.9-0.9c-0.4-0.4-0.8-0.8-1.1-1.1c-0.3-0.3-0.6-0.6-0.8-0.9
			c-0.4-0.4-0.7-0.8-1.1-1.2c-0.3-0.3-0.5-0.6-0.8-0.8c-0.4-0.4-0.8-0.8-1.1-1.2c-0.2-0.3-0.5-0.5-0.7-0.8c-0.4-0.4-0.8-0.9-1.1-1.3
			c-0.2-0.3-0.4-0.5-0.7-0.8c-0.4-0.5-0.8-0.9-1.1-1.4c-0.2-0.2-0.4-0.5-0.6-0.7c-0.4-0.5-0.8-1-1.2-1.5c-0.2-0.2-0.3-0.4-0.4-0.6
			c-0.4-0.6-0.8-1.1-1.3-1.7c-0.1-0.1-0.1-0.2-0.2-0.3c-3.1-4.2-6-8.7-8.5-13.3c0-0.1-0.1-0.1-0.1-0.2c-0.4-0.7-0.8-1.4-1.2-2.2
			c-0.1-0.1-0.1-0.2-0.2-0.3c-0.4-0.7-0.7-1.4-1.1-2.1c-0.1-0.1-0.1-0.2-0.2-0.4c-0.3-0.7-0.7-1.4-1-2.1c-0.1-0.1-0.1-0.3-0.2-0.4
			c-0.3-0.7-0.6-1.4-1-2.2c0-0.1-0.1-0.2-0.2-0.4c-0.3-0.7-0.6-1.5-0.9-2.2c0-0.1-0.1-0.2-0.1-0.3c-0.3-0.8-0.6-1.5-0.9-2.3
			c0-0.1,0-0.1-0.1-0.2c-3.6-9.4-6.1-19.3-7.2-29.7c0,0,0,0,0,0h-3c-9.2,0-16.7-7.5-16.7-16.7v-16c0-6.7,4-12.5,9.7-15.2
			c2.2-1,4.5-1.6,7.1-1.6h2.3v-18.9c0-36.3,15.9-68.8,41.2-91c-0.1,0.9-0.1,1.9-0.1,2.8c0,8,3.1,15.6,8.5,22.3
			c2.9,3.6,6.5,7,10.7,10c-10.6,22.2-16.6,47.9-16.6,75.2c0,78,49.2,142.3,112.6,151.4C287.1,315.6,282.6,316.7,278.1,317.5z"/>
		<path id="XMLID_2310_" class="st190" d="M289.6,9.6c-8.2,2.2-15.8,5.3-22.3,9c-2.7-0.8-5.6-1.3-8.5-1.3c-13.4,0-24.7,9.4-27.5,22
			c-2.8-0.8-5.8-1.1-8.9-1c-12.7,0.6-23.6,9.8-26.2,22.3c0,0.1,0,0.2-0.1,0.3c-1.4,6.9-5.5,12.9-11.5,16.7l-0.1,0.1
			c-5.4-6.7-8.4-14.2-8.4-22.2c0-0.9,0.1-1.9,0.1-2.8c-25.2,22.2-41.2,54.7-41.2,91v18.9h-2.3c-2.5,0-4.9,0.6-7.1,1.6
			c-5.9-5.2-9.7-12.8-9.7-21.2c0-6.2,2-11.9,5.4-16.5c-8.9-4.7-14.9-14.1-14.9-24.9c0-14.5,10.9-26.4,25-28c-1-4-1.2-8.4-0.3-12.8
			c2.6-12.5,13.5-21.7,26.2-22.3c3.1-0.1,6.1,0.2,8.9,1c2.8-12.6,14-22,27.5-22c3,0,5.8,0.5,8.5,1.3c14.4-8.2,33.6-13.1,54.7-13.1
			C268.7,5.4,279.7,6.9,289.6,9.6z"/>
		<circle id="XMLID_2304_" class="st23" cx="197" cy="179.1" r="16.7"/>
		<circle id="XMLID_2303_" class="st16" cx="201.3" cy="173.7" r="7.4"/>
		<circle id="XMLID_2302_" class="st23" cx="313.5" cy="179.1" r="16.7"/>
		<circle id="XMLID_2280_" class="st16" cx="317.8" cy="173.7" r="7.4"/>
		<path id="XMLID_2279_" class="st51" d="M263.6,217.3h-15c-4.9,0-8.9-4-8.9-8.9v0c0-4.9,4-8.9,8.9-8.9h15c4.9,0,8.9,4,8.9,8.9v0
			C272.6,213.3,268.6,217.3,263.6,217.3z"/>
		<path id="XMLID_2273_" class="st36" d="M289,237.7c1.8,0,3.2,1.4,3.2,3.2l0,0c0,3.3-0.4,6.4-1.3,9.4c-1.9,7-5.8,13.1-11.1,17.7
			c-6.3,5.5-14.6,8.8-23.6,8.8c-9,0-17.3-3.3-23.6-8.8c-5.3-4.6-9.2-10.7-11.1-17.7c-0.8-3-1.3-6.2-1.3-9.4l0,0
			c0-1.8,1.4-3.2,3.2-3.2H289z"/>
		<path id="XMLID_2272_" class="st26" d="M279.8,268c-6.3,5.5-14.6,8.8-23.6,8.8c-9,0-17.3-3.3-23.6-8.8c6.3-5.5,14.6-8.8,23.6-8.8
			C265.2,259.2,273.5,262.5,279.8,268z"/>
		<path id="XMLID_2096_" class="st16" d="M289,237.7c1.8,0,3.2,1.4,3.2,3.2l0,0c0,3.3-0.4,6.4-1.3,9.4h-69.5c-0.8-3-1.3-6.2-1.3-9.4
			l0,0c0-1.8,1.4-3.2,3.2-3.2H289z"/>
		<g id="XMLID_2086_">
			<path id="XMLID_2095_" class="st22" d="M421.3,233.3h-17.1l-3.3-9.6c-1.3-3.7-4.8-6.3-8.7-6.3h-43.3c-4,0-7.5,2.5-8.7,6.3
				l-3.3,9.6h-17.1c-6.1,0-11,4.9-11,11v53.1c0,6.1,4.9,11,11,11h101.5c6.1,0,11-4.9,11-11v-53.1
				C432.4,238.3,427.4,233.3,421.3,233.3z"/>
			<path id="XMLID_2094_" class="st191" d="M377.1,217.4c-4,0-7.5,2.5-8.8,6.3l-3.3,9.6H348c-6.1,0-11,4.9-11,11v53.1
				c0,6.1,4.9,11,11,11h-28.2c-6.1,0-11-4.9-11-11v-53.1c0-6.1,4.9-11,11-11h17.1l3.3-9.6c1.3-3.7,4.8-6.3,8.8-6.3H377.1z"/>
			<path id="XMLID_2093_" class="st26" d="M330.5,223.9h-7.1c-2,0-3.6,1.6-3.6,3.6v5.8h14.3v-5.8
				C334.1,225.5,332.5,223.9,330.5,223.9z"/>
			<circle id="XMLID_2092_" class="st42" cx="370.6" cy="274.2" r="26"/>
			<circle id="XMLID_2091_" class="st1" cx="370.6" cy="274.2" r="18.9"/>
			<path id="XMLID_2090_" class="st173" d="M375.1,292.6c-1.4,0.3-2.9,0.5-4.5,0.5c-10.5,0-18.9-8.5-18.9-18.9
				c0-10.5,8.5-18.9,18.9-18.9c1.5,0,3,0.2,4.5,0.5c-8.3,2-14.5,9.5-14.5,18.4C360.6,283.1,366.7,290.6,375.1,292.6z"/>
			<circle id="XMLID_2089_" class="st16" cx="379.8" cy="271.4" r="6"/>
		</g>
		<path id="XMLID_2085_" class="st16" d="M422,229.5c0-3-7.6-5.6-17.9-6.3c-0.7-10.3-3.3-17.9-6.3-17.9s-5.6,7.6-6.3,17.9
			c-10.3,0.7-17.9,3.3-17.9,6.3s7.6,5.6,17.9,6.3c0.7,10.3,3.3,17.9,6.3,17.9s5.6-7.6,6.3-17.9C414.4,235,422,232.5,422,229.5z"/>
		<path id="XMLID_2084_" class="st50" d="M426.6,272.3c-12.7-7.4-29-3-36.4,9.7l-0.9,1.6c-7.4,12.7-3,29,9.7,36.4l20.9,12.1v51.8
			h55.1v-57.7c0-15.4-8.1-29.7-21.4-37.7L426.6,272.3z"/>
		<path id="XMLID_2082_" class="st51" d="M449.2,332.1v51.8H420v-51.8L399.1,320c-12.7-7.4-17.1-23.7-9.7-36.4l0.9-1.6
			c7.4-12.7,23.7-17.1,36.4-9.7l1.3,0.8c-3.4,2.2-6.3,5.2-8.4,8.9l-0.9,1.6c-7.4,12.7-3,29,9.7,36.4L449.2,332.1z"/>
	</g>
</g>
</svg>
