<?xml version="1.0" encoding="utf-8"?>
<!-- Generator: Adobe Illustrator 22.0.1, SVG Export Plug-In . SVG Version: 6.00 Build 0)  -->
<svg version="1.1" xmlns="http://www.w3.org/2000/svg" xmlns:xlink="http://www.w3.org/1999/xlink" x="0px" y="0px"
	 viewBox="0 0 512 512" style="enable-background:new 0 0 512 512;" xml:space="preserve">
<style type="text/css">
	.st0{fill:#E9B12D;}
	.st1{fill:#A9E7D8;}
	.st2{fill:#76CFB1;}
	.st3{fill:#AE6B5D;}
	.st4{fill:#7770D3;}
	.st5{fill:#5BA0F5;}
	.st6{fill:#DA4545;}
	.st7{fill:#89CCFC;}
	.st8{fill:#CD462A;}
	.st9{fill:#514896;}
	.st10{fill:#5493A0;}
	.st11{fill:#CC6B5C;}
	.st12{fill:#62AA8D;}
	.st13{fill:#8ABAAB;}
	.st14{fill:#C3791F;}
	.st15{fill:#E39123;}
	.st16{fill:#FFFFFF;}
	.st17{fill:none;stroke:#FFFFFF;stroke-width:10;stroke-linecap:round;stroke-miterlimit:10;}
	.st18{fill:none;stroke:#5F55AB;stroke-width:10;stroke-linecap:round;stroke-miterlimit:10;}
	.st19{fill:#A9671C;}
	.st20{fill:#D5B3A7;}
	.st21{fill:#C09A8F;}
	.st22{fill:#487F87;}
	.st23{fill:#1B305C;}
	.st24{fill:#172945;}
	.st25{fill:none;}
	.st26{fill:#B62A2A;}
	.st27{fill:#325859;}
	.st28{fill:#3F6E71;}
	.st29{fill:#284646;}
	.st30{fill:#8F2727;}
	.st31{fill:#29477C;}
	.st32{fill:#5B9BEE;}
	.st33{fill:#487FDE;}
	.st34{fill:#CD9829;}
	.st35{fill:#9F2A2A;}
	.st36{fill:#4C3328;}
	.st37{fill:#E8B94A;}
	.st38{fill:#DDF8F1;}
	.st39{fill:#3E2A22;}
	.st40{fill:#D3A971;}
	.st41{fill:#C79A5B;}
	.st42{fill:#233E76;}
	.st43{fill:#21395F;}
	.st44{fill:#487D82;}
	.st45{fill:none;stroke:#C79A5B;stroke-width:10;stroke-linecap:round;stroke-miterlimit:10;}
	.st46{fill:#5E3E31;}
	.st47{fill:#AC3939;}
	.st48{fill:#CA9628;}
	.st49{fill:#AF8F88;}
	.st50{fill:#815048;}
	.st51{fill:#6F4232;}
	.st52{fill:#5F55AB;}
	.st53{fill:#192A48;}
	.st54{fill:#152336;}
	.st55{fill:#192B49;}
	.st56{fill:#264173;}
	.st57{fill:#B06F1E;}
	.st58{fill:#4E88C0;}
	.st59{fill:#83C3F1;}
	.st60{fill:#CF9929;}
	.st61{fill:none;stroke:#FFFFFF;stroke-width:10;stroke-linecap:round;stroke-linejoin:round;stroke-miterlimit:10;}
	.st62{fill:#EAC262;}
	.st63{fill:#D6D5D4;}
	.st64{fill:#6BBA9B;}
	.st65{fill:#63AA8F;}
	.st66{fill:none;stroke:#3E2A22;stroke-width:10;stroke-linecap:round;stroke-miterlimit:10;}
	.st67{fill:#CA7D1F;}
	.st68{fill:#213B64;}
	.st69{fill:#CDF8EC;}
	.st70{fill:#C59125;}
	.st71{fill:none;stroke:#C09A8F;stroke-width:10;stroke-linecap:round;stroke-miterlimit:10;}
	.st72{fill:#32579B;}
	.st73{fill:#172843;}
	.st74{fill:#D66767;}
	.st75{fill:#A74949;}
	.st76{fill:#EBC76F;}
	.st77{fill:#7A4940;}
	.st78{fill:#182A48;}
	.st79{fill:none;stroke:#A0794A;stroke-width:10;stroke-linecap:round;stroke-miterlimit:10;}
	.st80{fill:#C37A20;}
	.st81{fill:#D26D5C;}
	.st82{fill:#A45752;}
	.st83{fill:#284579;}
	.st84{fill:#88C7F4;}
	.st85{fill:#6EB6F0;}
	.st86{fill:#32221E;}
	.st87{fill:#E7A6A6;}
	.st88{fill:#C59191;}
	.st89{fill:#AA3B3B;}
	.st90{fill:#B83E3E;}
	.st91{fill:none;stroke:#5F55A9;stroke-width:10;stroke-linecap:round;stroke-miterlimit:10;}
	.st92{fill:#963838;}
	.st93{fill:#402B25;}
	.st94{fill:#6B6ABA;}
	.st95{fill:#BABABA;}
	.st96{fill:#D1D1D1;}
	.st97{fill:#264377;}
	.st98{fill:#A19BF5;}
	.st99{fill:#3C2A21;}
	.st100{fill:none;stroke:#4C3328;stroke-width:10;stroke-linecap:round;stroke-miterlimit:10;}
	.st101{fill:#C1781F;}
	.st102{fill:#E3A147;}
	.st103{fill:#F2D2A1;}
	.st104{fill:#4F372D;}
	.st105{fill:none;stroke:#DA4545;stroke-width:10;stroke-linecap:round;stroke-miterlimit:10;}
	.st106{fill:#AA3928;}
	.st107{fill:#8C2C22;}
	.st108{fill:#BF4336;}
	.st109{fill:#5797D4;}
	.st110{fill:#CFCFCF;}
	.st111{fill:#613A2E;}
	.st112{fill:none;stroke:#B18653;stroke-width:10;stroke-linecap:round;stroke-miterlimit:10;}
	.st113{fill:#B13B3B;}
	.st114{fill:#16263A;}
	.st115{fill:none;stroke:#16263A;stroke-width:10;stroke-miterlimit:10;}
	.st116{fill:#C87D20;}
	.st117{fill:#E4F0FD;}
	.st118{fill:#AA3737;}
	.st119{fill:#BF771F;}
	.st120{fill:none;stroke:#CD462A;stroke-width:10;stroke-linejoin:round;stroke-miterlimit:10;}
	.st121{fill:#5696D2;}
	.st122{fill:#C0771E;}
	.st123{fill:#9B5F1B;}
	.st124{fill:#A83A29;}
	.st125{fill:#E7A74F;}
	.st126{fill:#C9924C;}
	.st127{fill:#C58E48;}
	.st128{fill:#BE8844;}
	.st129{fill:#916939;}
	.st130{fill:#264275;}
	.st131{fill:#253F65;}
	.st132{fill:#182A45;}
	.st133{fill:#162336;}
	.st134{fill:#93C7B7;}
	.st135{fill:#E6A4A4;}
	.st136{fill:#B06B1D;}
	.st137{fill:#484185;}
	.st138{fill:#DB6E6E;}
	.st139{fill:#6BBA9A;}
	.st140{fill:#CACCCC;}
	.st141{fill:#D4D4D4;}
	.st142{fill:#A98881;}
	.st143{fill:#213A62;}
	.st144{fill:#A2837D;}
	.st145{fill:#6FB8F4;}
	.st146{fill:#9B9E9E;}
	.st147{fill:#B2B3B3;}
	.st148{fill:#20385D;}
	.st149{fill:#335AA8;}
	.st150{fill:#BCE7FD;}
	.st151{fill:#3B2921;}
	.st152{fill:#AD3C3C;}
	.st153{fill:#9D3838;}
	.st154{fill:#603F33;}
	.st155{fill:#4D868B;}
	.st156{fill:#A2DDFD;}
	.st157{fill:#ECB6B6;}
	.st158{fill:#E8A346;}
	.st159{fill:#514C94;}
	.st160{fill:#D2F1E8;}
	.st161{fill:#BDD6CE;}
	.st162{fill:#B93B29;}
	.st163{fill:#E0AD70;}
	.st164{fill:#C57C21;}
	.st165{fill:#EDA34A;}
	.st166{fill:#2F538F;}
	.st167{fill:#2B4B78;}
	.st168{fill:#65AF91;}
	.st169{fill:#A7CEFC;}
	.st170{fill:#98BDE2;}
	.st171{fill:#CFE5F7;}
	.st172{fill:#5492CD;}
	.st173{fill:#97CCBC;}
	.st174{fill:#5491CA;}
	.st175{fill:#EDC563;}
	.st176{fill:#423C79;}
	.st177{fill:#D3B1A5;}
	.st178{fill:#BE988D;}
	.st179{fill:#A7E5D6;}
	.st180{fill:#F2FFF9;}
	.st181{fill:#D64545;}
	.st182{fill:#A73B3B;}
	.st183{fill:#15233A;}
	.st184{fill:none;stroke:#BE988D;stroke-width:10;stroke-linecap:round;stroke-miterlimit:10;}
	.st185{fill:#AF3A29;}
	.st186{fill:#FAF9FF;}
	.st187{fill:#CACACC;}
	.st188{fill:#372720;}
	.st189{fill:#3F2C26;}
	.st190{fill:#2D201C;}
	.st191{fill:#3D6D6F;}
	.st192{fill:#5B54A8;}
	.st193{fill:#325799;}
	.st194{fill:#E8C26E;}
	.st195{fill:#254784;}
	.st196{fill:#5696D4;}
	.st197{fill:#4F8AB6;}
	.st198{fill:#5FA4AC;}
	.st199{fill:#AA3524;}
	.st200{fill:#D15F4D;}
	.st201{fill:#2B294C;}
	.st202{fill:#A43A2A;}
	.st203{fill:#E7AE2D;}
	.st204{fill:#CD9729;}
	.st205{fill:none;stroke:#AA8253;stroke-width:10;stroke-linecap:round;stroke-miterlimit:10;}
	.st206{fill:none;stroke:#E18F23;stroke-width:10;stroke-linecap:round;stroke-linejoin:round;stroke-miterlimit:10;}
	.st207{fill:#CF9828;}
	.st208{fill:#B88926;}
	.st209{fill:#A17623;}
	.st210{fill:#96CCBC;}
	.st211{fill:#CF9A2A;}
	.st212{fill:#C57B20;}
	.st213{fill:#C7F1E6;}
	.st214{fill:#DC6363;}
	.st215{fill:#E89F9F;}
	.st216{fill:#C88C8C;}
	.st217{fill:#C16E6E;}
	.st218{fill:#A46060;}
	.st219{fill:#AA3626;}
	.st220{fill:#87EDC4;}
	.st221{fill:#D86552;}
	.st222{fill:#BC7620;}
	.st223{fill:#BA741E;}
	.st224{fill:#8F8CE3;}
	.st225{fill:#3A2820;}
	.st226{fill:#AC7060;}
	.st227{fill:#915F55;}
	.st228{fill:#49332A;}
	.st229{fill:#2D1F1B;}
	.st230{fill:#69B7BE;}
	.st231{fill:#D6D6D6;}
	.st232{fill:#B8B8B8;}
	.st233{fill:#CACACA;}
	.st234{fill:#467B80;}
	.st235{fill:#C2EDE2;}
	.st236{fill:#A9574F;}
	.st237{fill:#5595D2;}
	.st238{fill:#955949;}
	.st239{fill:#7E4B42;}
	.st240{fill:#89CCF1;}
	.st241{fill:#DD584A;}
	.st242{fill:#C18F26;}
	.st243{fill:#B33C2A;}
	.st244{fill:#D1A771;}
	.st245{fill:#B42A2A;}
	.st246{fill:#325797;}
	.st247{fill:#9F3529;}
	.st248{fill:#EDCE80;}
	.st249{fill:#F0DBAC;}
	.st250{fill:#CFB478;}
	.st251{fill:#D4C29B;}
	.st252{fill:#993939;}
	.st253{fill:#D1AFA3;}
	.st254{fill:#BC968B;}
	.st255{fill:none;stroke:#BC968B;stroke-width:10;stroke-linecap:round;stroke-miterlimit:10;}
	.st256{fill:#814C3C;}
	.st257{fill:#C0EBE0;}
	.st258{fill:#A5E3D4;}
	.st259{fill:#15243C;}
	.st260{fill:#443E79;}
	.st261{fill:#F0FFF7;}
	.st262{fill:#9A764B;}
	.st263{fill:#826443;}
	.st264{fill:#D9AA74;}
	.st265{fill:#5DA186;}
	.st266{fill:#68B596;}
	.st267{fill:#E5C6BE;}
	.st268{fill:#D3B6B1;}
	.st269{fill:none;stroke:#BAA09C;stroke-width:10;stroke-linecap:round;stroke-miterlimit:10;}
	.st270{fill:#F4D78F;}
	.st271{fill:#20385F;}
	.st272{fill:#BA8727;}
	.st273{fill:#5A9C82;}
	.st274{fill:none;stroke:#E39123;stroke-width:10;stroke-linecap:round;stroke-linejoin:round;stroke-miterlimit:10;}
	.st275{fill:#60392D;}
	.st276{fill:#CCCCCC;}
	.st277{fill:#844F3E;}
	.st278{fill:#F3FFFB;}
	.st279{fill:#365E60;}
	.st280{fill:#D84545;}
	.st281{fill:#A83B3B;}
	.st282{fill:#253F70;}
	.st283{fill:#EAADAD;}
	.st284{fill:#443E7C;}
	.st285{fill:#3D6B9F;}
	.st286{fill:#4274BC;}
	.st287{fill:#AF3827;}
	.st288{fill:#E59D9D;}
	.st289{fill:#C48989;}
	.st290{fill:none;stroke:#9B621A;stroke-width:10;stroke-linecap:round;stroke-linejoin:round;stroke-miterlimit:10;}
	.st291{fill:#213A5E;}
	.st292{fill:#2D507A;}
	.st293{fill:#528EC8;}
	.st294{fill:#EFD696;}
	.st295{fill:#D1BA87;}
	.st296{fill:#FDFCFC;}
	.st297{fill:#86CBFC;}
	.st298{fill:#7AB7DA;}
	.st299{fill:#192C4C;}
	.st300{fill:#BCBCBC;}
	.st301{fill:#A13838;}
	.st302{fill:#75BDF6;}
	.st303{fill:#D0B1AA;}
	.st304{fill:#142233;}
	.st305{fill:#E6C4BB;}
	.st306{fill:#BDBDBD;}
	.st307{fill:#E8A192;}
	.st308{fill:#A43939;}
	.st309{fill:#162640;}
	.st310{fill:#27457C;}
	.st311{fill:#EFBE5E;}
	.st312{fill:#87EDC5;}
	.st313{fill:#A03838;}
	.st314{fill:#833232;}
	.st315{fill:#47417F;}
	.st316{fill:none;stroke:#915F55;stroke-width:10;stroke-linecap:round;stroke-miterlimit:10;}
	.st317{fill:#BC8B25;}
	.st318{fill:#473129;}
	.st319{fill:#67B394;}
	.st320{fill:#599A80;}
	.st321{fill:#B13D3D;}
</style>
<g id="BULINE">
	<circle id="XMLID_783_" class="st1" cx="256" cy="256" r="256"/>
	<g>
	</g>
</g>
<g id="Icons">
	<g id="XMLID_790_">
		<path id="XMLID_1223_" class="st69" d="M473.6,121.9c0,96.7-63,178.7-150.3,207.1c-3.5,1.2-7.1,2.2-10.7,3.2
			c-7.1,1.9-14.3,3.5-21.6,4.6c-2,0.3-3.9,0.6-5.9,0.9c-1.4,0.2-2.8,0.4-4.2,0.5c-8.2,0.9-16.6,1.4-25,1.4c-1.8,0-3.5,0-5.3-0.1
			c-6.3-0.2-12.5-0.6-18.7-1.2c-1-0.1-2-0.2-3-0.4c-0.3,0-0.5-0.1-0.8-0.1c-1.2-0.2-2.5-0.3-3.7-0.5c-8.3-1.2-16.4-2.8-24.3-5
			c-3-0.8-5.9-1.6-8.8-2.5c-1-0.3-1.9-0.6-2.9-0.9C101.2,300.6,38.2,218.6,38.2,121.9v-0.4C83.3,48.6,164,0,256,0
			c91.9,0,172.5,48.4,217.6,121.1C473.6,121.4,473.6,121.7,473.6,121.9z"/>
		<path id="XMLID_1072_" class="st38" d="M117.2,318.8c0-10.5-8.5-19-19-19c-1.8,0-3.5,0.3-5.1,0.7C89.8,289.8,79.9,282,68.1,282
			c-11.8,0-21.7,7.9-24.9,18.6c-1.8-0.6-3.7-0.9-5.7-0.9c-10.5,0-19,8.5-19,19c0,10.5,8.5,19,19,19h65.2v-0.6
			C111,335.2,117.2,327.7,117.2,318.8z"/>
		<path id="XMLID_1071_" class="st38" d="M491.4,318.8c0-10.5-8.5-19-19-19c-1.8,0-3.5,0.3-5.1,0.7c-3.2-10.7-13.1-18.5-24.9-18.5
			c-11.8,0-21.7,7.9-24.9,18.6c-1.8-0.6-3.7-0.9-5.7-0.9c-10.5,0-19,8.5-19,19c0,10.5,8.5,19,19,19H477v-0.6
			C485.3,335.2,491.4,327.7,491.4,318.8z"/>
		<g id="XMLID_791_">
			<path id="XMLID_1068_" class="st20" d="M266.3,350.2h-18.8c-11.2,0-20.3-9.1-20.3-20.3v-27.5c0-11.2,9.1-20.3,20.3-20.3h18.8
				c11.2,0,20.3,9.1,20.3,20.3v27.5C286.7,341.1,277.6,350.2,266.3,350.2z"/>
			<path id="XMLID_1067_" class="st21" d="M267.3,350c-1,0.1-2.1,0.2-3.2,0.2h-15.2c-12.2,0-22.1-8.4-22.1-18.7v-30.8
				c0-10.3,9.9-18.7,22.1-18.7h15.2c1.1,0,2.1,0.1,3.2,0.2c-10.7,1.3-18.9,9.1-18.9,18.5v30.8C248.5,340.9,256.7,348.7,267.3,350z"
				/>
			<path id="XMLID_1200_" class="st20" d="M391.6,376.3v97c-1.8,1.1-3.7,2.2-5.5,3.3c-1.5,0.9-3.1,1.8-4.6,2.6
				c-4,2.3-8.1,4.4-12.2,6.4c-8,4-16.2,7.5-24.7,10.6c-4.4,1.6-8.8,3.1-13.3,4.5c-2.9,0.9-5.8,1.7-8.8,2.5c-0.8,0.2-1.5,0.4-2.3,0.6
				c-4.4,1.1-8.8,2.2-13.3,3.1c-1.2,0.2-2.5,0.5-3.8,0.7c-15.3,2.9-31.1,4.4-47.2,4.4c-14.9,0-29.6-1.3-43.8-3.7
				c-2.7-0.5-5.5-1-8.2-1.5c-9.1-1.9-18-4.2-26.7-7c-4.5-1.4-8.9-3-13.3-4.7c-1.4-0.5-2.7-1-4.1-1.6l0,0c-2.2-0.9-4.5-1.8-6.7-2.8
				c-6.9-3-13.7-6.3-20.2-10c0,0,0,0,0,0c-3.5-1.9-7-4-10.5-6.1c-0.2-0.1-0.5-0.3-0.7-0.4v-97.9c0-26.1,21.2-47.3,47.3-47.3h175
				c0.8,0,1.6,0,2.4,0.1c0.3,0,0.6,0,0.9,0.1c0.2,0,0.4,0,0.6,0c0.4,0,0.7,0.1,1.1,0.1c0.3,0,0.5,0.1,0.8,0.1c0.5,0.1,1,0.1,1.5,0.2
				c0.3,0,0.6,0.1,0.9,0.2c0.4,0.1,0.8,0.1,1.2,0.2c0.3,0.1,0.6,0.1,0.9,0.2c0.1,0,0.2,0,0.2,0c0.4,0.1,0.8,0.2,1.1,0.3
				c0.2,0,0.4,0.1,0.6,0.1c0.4,0.1,0.7,0.2,1.1,0.3c0.2,0.1,0.3,0.1,0.5,0.2c0.8,0.2,1.6,0.5,2.4,0.8c0.3,0.1,0.6,0.2,1,0.4
				c0.8,0.3,1.5,0.6,2.2,1c0.3,0.1,0.5,0.2,0.8,0.4c0.1,0,0.2,0.1,0.3,0.1c0.6,0.3,1.2,0.6,1.7,0.9c0,0,0,0,0.1,0
				c0.1,0,0.2,0.1,0.3,0.1c0.1,0,0.2,0.1,0.3,0.2h0c0.1,0.1,0.3,0.1,0.4,0.2c0.7,0.4,1.4,0.8,2.1,1.3c0.6,0.4,1.2,0.8,1.9,1.2
				c0.6,0.4,1.2,0.9,1.8,1.3c0,0,0,0,0,0c0.3,0.2,0.6,0.5,0.9,0.7c0.3,0.3,0.6,0.5,1,0.8c0.2,0.1,0.4,0.3,0.5,0.5
				c0.3,0.3,0.7,0.7,1,1c0,0,0,0,0,0c0.2,0.2,0.4,0.4,0.6,0.6c0.5,0.5,1,1,1.5,1.5c0.5,0.5,0.9,1,1.4,1.6c0.5,0.5,0.9,1.1,1.3,1.7
				c0.4,0.6,0.9,1.1,1.3,1.7c0.4,0.6,0.8,1.2,1.2,1.8c0.4,0.6,0.8,1.2,1.1,1.8c0.2,0.4,0.4,0.7,0.6,1.1c0.1,0.2,0.3,0.5,0.4,0.8
				c0,0.1,0.1,0.2,0.1,0.2c0.2,0.4,0.4,0.8,0.6,1.3c0,0,0,0.1,0,0.1c0.1,0.1,0.1,0.2,0.1,0.3c0.1,0.1,0.1,0.2,0.1,0.3
				c0.2,0.5,0.4,1,0.6,1.5c0.1,0.2,0.2,0.4,0.3,0.6c0.1,0.4,0.3,0.7,0.4,1.1c0.2,0.6,0.4,1.2,0.6,1.8c0,0.1,0.1,0.2,0.1,0.3
				c0.1,0.2,0.1,0.4,0.2,0.6c0.1,0.3,0.2,0.5,0.2,0.8c0.1,0.3,0.2,0.6,0.2,0.9c0.1,0.4,0.2,0.8,0.3,1.1c0.1,0.3,0.1,0.6,0.2,1
				c0.2,0.7,0.3,1.5,0.4,2.2c0,0.2,0.1,0.5,0.1,0.7c0,0.2,0.1,0.5,0.1,0.7c0.1,0.6,0.2,1.3,0.2,1.9
				C391.5,373.5,391.6,374.9,391.6,376.3z"/>
			<path id="XMLID_1066_" class="st20" d="M217,296.2c-0.1,0-0.2-0.1-0.3-0.1C216.9,296.1,217,296.2,217,296.2z"/>
			<path id="XMLID_1065_" class="st20" d="M169.7,259.8c-2.8-3.8-5.3-7.7-7.6-11.8C164.4,252,166.9,256,169.7,259.8z"/>
			<path id="XMLID_1064_" class="st20" d="M203.3,289.6c-0.3-0.2-0.6-0.3-0.8-0.5C202.8,289.3,203.1,289.5,203.3,289.6z"/>
			<path id="XMLID_1063_" class="st20" d="M227.4,299.7c-0.2,0-0.3-0.1-0.5-0.1C227.1,299.6,227.2,299.6,227.4,299.7z"/>
			<path id="XMLID_1051_" class="st20" d="M214.7,295.2c-0.2-0.1-0.4-0.2-0.6-0.2C214.3,295.1,214.5,295.2,214.7,295.2z"/>
			<path id="XMLID_1033_" class="st20" d="M172.5,263.4c-0.4-0.4-0.7-0.9-1.1-1.3C171.8,262.5,172.1,262.9,172.5,263.4z"/>
			<path id="XMLID_1025_" class="st20" d="M171.1,261.5c-0.4-0.5-0.8-1-1.1-1.5C170.3,260.5,170.7,261,171.1,261.5z"/>
			<path id="XMLID_1024_" class="st20" d="M159.8,243.4c-0.3-0.6-0.6-1.3-0.9-1.9C159.1,242.1,159.4,242.7,159.8,243.4z"/>
			<path id="XMLID_1023_" class="st20" d="M190.3,280.9c-0.2-0.2-0.4-0.3-0.6-0.5C189.9,280.6,190.1,280.7,190.3,280.9z"/>
			<path id="XMLID_1022_" class="st20" d="M158.7,241.1c-0.3-0.6-0.6-1.3-0.9-1.9C158.1,239.9,158.4,240.5,158.7,241.1z"/>
			<path id="XMLID_1021_" class="st20" d="M224.7,298.9c-0.1,0-0.1,0-0.2-0.1C224.5,298.8,224.6,298.8,224.7,298.9z"/>
			<path id="XMLID_1019_" class="st20" d="M160.9,245.6c-0.3-0.6-0.6-1.2-1-1.9C160.2,244.3,160.5,245,160.9,245.6z"/>
			<path id="XMLID_1018_" class="st20" d="M162,247.8c-0.3-0.6-0.7-1.3-1-1.9C161.4,246.5,161.7,247.1,162,247.8z"/>
			<path id="XMLID_1017_" class="st20" d="M180.7,272.5c-0.3-0.3-0.7-0.7-1-1C180,271.8,180.4,272.1,180.7,272.5z"/>
			<path id="XMLID_1016_" class="st20" d="M179,270.7c-0.3-0.3-0.7-0.7-1-1C178.3,270,178.6,270.3,179,270.7z"/>
			<path id="XMLID_1015_" class="st20" d="M186.2,277.5c-0.3-0.3-0.6-0.6-0.9-0.8C185.5,277,185.8,277.2,186.2,277.5z"/>
			<path id="XMLID_1014_" class="st20" d="M207.8,292c-0.3-0.1-0.5-0.3-0.8-0.4C207.3,291.8,207.5,291.9,207.8,292z"/>
			<path id="XMLID_1013_" class="st20" d="M182.5,274.2c-0.3-0.3-0.7-0.6-1-1C181.8,273.5,182.1,273.9,182.5,274.2z"/>
			<path id="XMLID_1012_" class="st20" d="M205.5,290.9c-0.3-0.1-0.5-0.3-0.8-0.4C205,290.6,205.3,290.7,205.5,290.9z"/>
			<path id="XMLID_1011_" class="st20" d="M175.6,267.1c-0.3-0.4-0.7-0.8-1-1.2C174.9,266.3,175.3,266.7,175.6,267.1z"/>
			<path id="XMLID_1010_" class="st20" d="M212.4,294.2c-0.2-0.1-0.5-0.2-0.7-0.3C211.9,294,212.1,294.1,212.4,294.2z"/>
			<path id="XMLID_1009_" class="st20" d="M174,265.2c-0.3-0.4-0.7-0.8-1-1.2C173.3,264.4,173.7,264.8,174,265.2z"/>
			<path id="XMLID_1008_" class="st20" d="M210.1,293.1c-0.3-0.1-0.5-0.2-0.8-0.4C209.6,292.9,209.8,293,210.1,293.1z"/>
			<path id="XMLID_1006_" class="st20" d="M188.1,279.1c-0.3-0.2-0.6-0.5-0.9-0.7C187.5,278.6,187.8,278.9,188.1,279.1z"/>
			<path id="XMLID_1005_" class="st20" d="M177.3,268.9c-0.3-0.4-0.7-0.7-1-1.1C176.6,268.2,176.9,268.5,177.3,268.9z"/>
			<path id="XMLID_1003_" class="st20" d="M237.8,302c-0.3,0-0.5-0.1-0.8-0.1C237.3,301.9,237.6,302,237.8,302z"/>
			<path id="XMLID_1002_" class="st20" d="M194.8,284.2c-0.3-0.2-0.5-0.4-0.8-0.5C194.3,283.9,194.5,284,194.8,284.2z"/>
			<path id="XMLID_1000_" class="st20" d="M235.2,301.6c-0.2,0-0.5-0.1-0.7-0.2C234.7,301.5,235,301.5,235.2,301.6z"/>
			<path id="XMLID_999_" class="st20" d="M196.9,285.6c-0.3-0.2-0.5-0.4-0.8-0.5C196.3,285.3,196.6,285.5,196.9,285.6z"/>
			<path id="XMLID_996_" class="st20" d="M240.5,302.5c-0.3,0-0.5-0.1-0.8-0.1C240,302.4,240.2,302.4,240.5,302.5z"/>
			<path id="XMLID_995_" class="st20" d="M201.2,288.4c-0.3-0.2-0.6-0.3-0.8-0.5C200.6,288,200.9,288.2,201.2,288.4z"/>
			<path id="XMLID_994_" class="st20" d="M184.3,275.9c-0.3-0.3-0.7-0.6-1-0.9C183.6,275.3,184,275.6,184.3,275.9z"/>
			<path id="XMLID_993_" class="st20" d="M199,287c-0.3-0.2-0.5-0.3-0.8-0.5C198.5,286.7,198.7,286.9,199,287z"/>
			<path id="XMLID_992_" class="st20" d="M155.9,234.4c-3.2-8.3-5.4-17.2-6.4-26.4C150.5,217.2,152.7,226.1,155.9,234.4z"/>
			<path id="XMLID_991_" class="st20" d="M230,300.4c-0.2-0.1-0.4-0.1-0.6-0.2C229.6,300.3,229.8,300.3,230,300.4z"/>
			<path id="XMLID_990_" class="st20" d="M192.6,282.7c-0.2-0.2-0.5-0.3-0.7-0.5C192.2,282.4,192.4,282.5,192.6,282.7z"/>
			<path id="XMLID_989_" class="st20" d="M156.7,236.7c-0.3-0.7-0.6-1.4-0.8-2.1C156.2,235.3,156.5,236,156.7,236.7z"/>
			<path id="XMLID_988_" class="st20" d="M232.6,301c-0.2-0.1-0.5-0.1-0.7-0.2C232.2,300.9,232.4,300.9,232.6,301z"/>
			<path id="XMLID_987_" class="st20" d="M157.7,238.9c-0.3-0.7-0.6-1.3-0.8-2C157.1,237.6,157.4,238.2,157.7,238.9z"/>
			<path id="XMLID_986_" class="st20" d="M368.9,164.1c-0.7-0.1-1.4-0.2-2.1-0.2h-2.5v-16.8c0-35.5-17.2-67-43.6-86.6
				c-7.3,12.1-26.2,33.2-72.9,44.5c-5.4,1.3-10-4.2-7.7-9.3c4.2-9.5,8.9-22.9,8.6-34.9c-0.2-6.6-9-8.8-12.1-2.9
				c-4.4,8.2-11.5,18-22.1,24.3c-1.9,1.1-4,1.2-5.8,0.5c-13.5,18-21.5,40.3-21.5,64.5V190v5.9c0,53,38.2,97,88.5,106.1
				c46.5-8.4,82.6-46.5,87.9-93.9h3.2c8.2,0,14.9-6.7,14.9-14.9v-14.3C381.7,171.4,376.1,165.2,368.9,164.1z"/>
			<path id="XMLID_985_" class="st21" d="M202.5,289.2c-0.5-0.3-0.9-0.5-1.4-0.8C201.6,288.6,202.1,288.9,202.5,289.2z"/>
			<path id="XMLID_984_" class="st21" d="M200.3,287.9c-0.4-0.3-0.9-0.5-1.3-0.8C199.4,287.3,199.9,287.6,200.3,287.9z"/>
			<path id="XMLID_983_" class="st21" d="M204.7,290.4c-0.5-0.3-0.9-0.5-1.4-0.8C203.8,289.9,204.3,290.2,204.7,290.4z"/>
			<path id="XMLID_981_" class="st21" d="M231.9,300.8c-0.6-0.1-1.3-0.3-1.9-0.5C230.7,300.5,231.3,300.7,231.9,300.8z"/>
			<path id="XMLID_978_" class="st21" d="M234.5,301.4c-0.6-0.1-1.2-0.3-1.9-0.4C233.3,301.1,233.9,301.3,234.5,301.4z"/>
			<path id="XMLID_977_" class="st21" d="M229.4,300.2c-0.7-0.2-1.3-0.4-2-0.5C228.1,299.9,228.7,300,229.4,300.2z"/>
			<path id="XMLID_976_" class="st21" d="M237.1,301.9c-0.6-0.1-1.2-0.2-1.8-0.4C235.9,301.7,236.5,301.8,237.1,301.9z"/>
			<path id="XMLID_974_" class="st21" d="M242.3,302.7c-0.6-0.1-1.3-0.2-1.9-0.3C241.1,302.6,241.7,302.6,242.3,302.7z"/>
			<path id="XMLID_973_" class="st21" d="M207,291.6c-0.5-0.3-1-0.5-1.4-0.8C206,291.1,206.5,291.4,207,291.6z"/>
			<path id="XMLID_972_" class="st21" d="M226.9,299.5c-0.8-0.2-1.5-0.4-2.3-0.7C225.4,299.1,226.2,299.3,226.9,299.5z"/>
			<path id="XMLID_971_" class="st21" d="M239.7,302.3c-0.6-0.1-1.2-0.2-1.9-0.3C238.5,302.1,239.1,302.2,239.7,302.3z"/>
			<path id="XMLID_970_" class="st21" d="M224.5,298.8c-2.5-0.8-5-1.7-7.4-2.6C219.5,297.2,221.9,298,224.5,298.8z"/>
			<path id="XMLID_968_" class="st21" d="M211.7,293.9c-0.5-0.2-1.1-0.5-1.6-0.8C210.6,293.4,211.1,293.7,211.7,293.9z"/>
			<path id="XMLID_966_" class="st21" d="M209.3,292.8c-0.5-0.2-1-0.5-1.5-0.8C208.3,292.3,208.8,292.5,209.3,292.8z"/>
			<path id="XMLID_948_" class="st21" d="M214.1,295c-0.6-0.3-1.2-0.5-1.8-0.8C212.9,294.5,213.5,294.7,214.1,295z"/>
			<path id="XMLID_938_" class="st21" d="M216.8,296.1c-0.7-0.3-1.4-0.6-2.1-0.8C215.4,295.5,216.1,295.8,216.8,296.1z"/>
			<path id="XMLID_937_" class="st21" d="M157.8,239.2c0-0.1-0.1-0.2-0.1-0.3C157.7,239,157.8,239.1,157.8,239.2z"/>
			<path id="XMLID_936_" class="st21" d="M198.2,286.5c-0.4-0.3-0.9-0.6-1.3-0.9C197.3,285.9,197.7,286.2,198.2,286.5z"/>
			<path id="XMLID_935_" class="st21" d="M155.9,234.6c0-0.1,0-0.1-0.1-0.2C155.9,234.5,155.9,234.5,155.9,234.6z"/>
			<path id="XMLID_933_" class="st21" d="M161,245.9c0-0.1-0.1-0.2-0.1-0.3C160.9,245.7,161,245.8,161,245.9z"/>
			<path id="XMLID_932_" class="st21" d="M158.8,241.5c-0.1-0.1-0.1-0.2-0.2-0.3C158.7,241.3,158.8,241.4,158.8,241.5z"/>
			<path id="XMLID_931_" class="st21" d="M159.9,243.7c-0.1-0.1-0.1-0.2-0.2-0.3C159.8,243.5,159.9,243.6,159.9,243.7z"/>
			<path id="XMLID_930_" class="st21" d="M162.1,247.9c0-0.1-0.1-0.1-0.1-0.2C162.1,247.8,162.1,247.9,162.1,247.9z"/>
			<path id="XMLID_929_" class="st21" d="M156.8,236.9c0-0.1-0.1-0.2-0.1-0.3C156.8,236.7,156.8,236.8,156.8,236.9z"/>
			<path id="XMLID_928_" class="st21" d="M187.2,278.4c-0.3-0.3-0.7-0.6-1-0.9C186.5,277.8,186.8,278.1,187.2,278.4z"/>
			<path id="XMLID_927_" class="st21" d="M185.2,276.7c-0.3-0.3-0.6-0.5-0.9-0.8C184.6,276.1,184.9,276.4,185.2,276.7z"/>
			<path id="XMLID_926_" class="st21" d="M189.7,280.4c-0.5-0.4-1.1-0.9-1.6-1.3C188.6,279.6,189.1,280,189.7,280.4z"/>
			<path id="XMLID_925_" class="st21" d="M169.9,260c-0.1-0.1-0.1-0.2-0.2-0.3C169.8,259.9,169.9,259.9,169.9,260z"/>
			<path id="XMLID_921_" class="st21" d="M183.3,275c-0.3-0.3-0.6-0.5-0.8-0.8C182.8,274.4,183,274.7,183.3,275z"/>
			<path id="XMLID_896_" class="st21" d="M194,283.7c-0.5-0.3-0.9-0.7-1.4-1C193.1,283,193.5,283.4,194,283.7z"/>
			<path id="XMLID_876_" class="st21" d="M192,282.2c-0.6-0.4-1.1-0.9-1.7-1.3C190.8,281.3,191.4,281.8,192,282.2z"/>
			<path id="XMLID_869_" class="st21" d="M196.1,285.1c-0.4-0.3-0.9-0.6-1.3-0.9C195.2,284.5,195.6,284.8,196.1,285.1z"/>
			<path id="XMLID_866_" class="st21" d="M173,264c-0.2-0.2-0.3-0.4-0.5-0.6C172.7,263.6,172.8,263.8,173,264z"/>
			<path id="XMLID_865_" class="st21" d="M171.4,262c-0.1-0.2-0.3-0.3-0.4-0.5C171.2,261.7,171.3,261.9,171.4,262z"/>
			<path id="XMLID_864_" class="st21" d="M181.5,273.2c-0.3-0.3-0.5-0.5-0.8-0.8C181,272.7,181.2,273,181.5,273.2z"/>
			<path id="XMLID_862_" class="st21" d="M174.6,265.9c-0.2-0.2-0.4-0.5-0.6-0.7C174.2,265.5,174.4,265.7,174.6,265.9z"/>
			<path id="XMLID_861_" class="st21" d="M179.7,271.5c-0.2-0.3-0.5-0.5-0.7-0.8C179.2,271,179.5,271.2,179.7,271.5z"/>
			<path id="XMLID_860_" class="st21" d="M176.3,267.8c-0.2-0.2-0.4-0.5-0.6-0.7C175.8,267.3,176,267.6,176.3,267.8z"/>
			<path id="XMLID_859_" class="st21" d="M178,269.6c-0.2-0.2-0.5-0.5-0.7-0.7C177.5,269.2,177.7,269.4,178,269.6z"/>
			<path id="XMLID_858_" class="st21" d="M206.2,51.8C206.2,51.8,206.2,51.8,206.2,51.8c-34.2,18.1-57.5,54-57.5,95.3v0
				C148.7,105.8,172,69.9,206.2,51.8z"/>
			<path id="XMLID_857_" class="st21" d="M187.2,195.9V190v-42.8c0-24.2,8-46.5,21.5-64.5c-2.9-1.1-5.1-4.3-4.2-7.9
				c1.8-7.4,3.2-16.4,1.7-22.9c-34.2,18.1-57.5,54-57.5,95.4V164h-2c-1.3,0-2.6,0.2-3.8,0.5c-6.4,1.7-11,7.5-11,14.4v14.3
				c0,8.2,6.7,14.9,14.9,14.9h2.7c0,0,0,0,0,0c1,9.2,3.2,18,6.4,26.4c0,0.1,0,0.1,0.1,0.2c0.3,0.7,0.5,1.4,0.8,2.1
				c0,0.1,0.1,0.2,0.1,0.3c0.3,0.7,0.6,1.3,0.8,2c0,0.1,0.1,0.2,0.1,0.3c0.3,0.6,0.6,1.3,0.9,1.9c0.1,0.1,0.1,0.2,0.2,0.3
				c0.3,0.6,0.6,1.3,0.9,1.9c0.1,0.1,0.1,0.2,0.2,0.3c0.3,0.6,0.6,1.3,1,1.9c0,0.1,0.1,0.2,0.1,0.3c0.3,0.6,0.7,1.3,1,1.9
				c0,0.1,0.1,0.1,0.1,0.2c2.3,4.1,4.8,8.1,7.6,11.8c0.1,0.1,0.1,0.2,0.2,0.3c0.4,0.5,0.7,1,1.1,1.5c0.1,0.2,0.3,0.3,0.4,0.5
				c0.4,0.4,0.7,0.9,1.1,1.3c0.2,0.2,0.3,0.4,0.5,0.6c0.3,0.4,0.7,0.8,1,1.2c0.2,0.2,0.4,0.5,0.6,0.7c0.3,0.4,0.7,0.8,1,1.2
				c0.2,0.2,0.4,0.5,0.6,0.7c0.3,0.4,0.7,0.7,1,1.1c0.2,0.2,0.5,0.5,0.7,0.7c0.3,0.4,0.7,0.7,1,1c0.2,0.3,0.5,0.5,0.7,0.8
				c0.3,0.3,0.7,0.7,1,1c0.3,0.3,0.5,0.5,0.8,0.8c0.3,0.3,0.7,0.6,1,1c0.3,0.3,0.6,0.5,0.8,0.8c0.3,0.3,0.6,0.6,1,0.9
				c0.3,0.3,0.6,0.5,0.9,0.8c0.3,0.3,0.6,0.6,0.9,0.8c0.3,0.3,0.7,0.6,1,0.9c0.3,0.2,0.6,0.5,0.9,0.7c0.5,0.4,1.1,0.9,1.6,1.3
				c0.2,0.2,0.4,0.3,0.6,0.5c0.6,0.4,1.1,0.9,1.7,1.3c0.2,0.2,0.5,0.3,0.7,0.5c0.4,0.3,0.9,0.7,1.4,1c0.3,0.2,0.5,0.4,0.8,0.5
				c0.4,0.3,0.9,0.6,1.3,0.9c0.3,0.2,0.5,0.4,0.8,0.5c0.4,0.3,0.9,0.6,1.3,0.9c0.3,0.2,0.5,0.3,0.8,0.5c0.4,0.3,0.9,0.6,1.3,0.8
				c0.3,0.2,0.6,0.3,0.8,0.5c0.4,0.3,0.9,0.5,1.4,0.8c0.3,0.2,0.6,0.3,0.8,0.5c0.5,0.3,0.9,0.5,1.4,0.8c0.3,0.2,0.5,0.3,0.8,0.4
				c0.5,0.3,1,0.5,1.4,0.8c0.3,0.1,0.5,0.3,0.8,0.4c0.5,0.3,1,0.5,1.5,0.8c0.3,0.1,0.5,0.2,0.8,0.4c0.5,0.3,1.1,0.5,1.6,0.8
				c0.2,0.1,0.5,0.2,0.7,0.3c0.6,0.3,1.2,0.5,1.8,0.8c0.2,0.1,0.4,0.2,0.6,0.2c0.7,0.3,1.4,0.6,2.1,0.8c0.1,0,0.2,0.1,0.3,0.1
				c2.4,1,4.9,1.8,7.4,2.6c0.1,0,0.1,0,0.2,0.1c0.8,0.2,1.5,0.5,2.3,0.7c0.2,0,0.3,0.1,0.5,0.1c0.7,0.2,1.3,0.4,2,0.5
				c0.2,0.1,0.4,0.1,0.6,0.2c0.6,0.2,1.3,0.3,1.9,0.5c0.2,0.1,0.5,0.1,0.7,0.2c0.6,0.1,1.2,0.3,1.9,0.4c0.2,0.1,0.5,0.1,0.7,0.2
				c0.6,0.1,1.2,0.2,1.8,0.4c0.3,0,0.5,0.1,0.8,0.1c0.6,0.1,1.2,0.2,1.9,0.3c0.3,0,0.5,0.1,0.8,0.1c0.6,0.1,1.3,0.2,1.9,0.3
				c0.2,0,0.5,0.1,0.7,0.1c0.6,0.1,1.3,0.2,2,0.2c0.2,0,0.5,0.1,0.7,0.1c0.7,0.1,1.4,0.1,2.1,0.2c0.2,0,0.4,0,0.6,0
				c0.8,0.1,1.5,0.1,2.3,0.1c0.1,0,0.2,0,0.4,0c1.8,0.1,3.6,0.1,5.5,0.1h0c0.1,0,0.2,0,0.2,0c1.4,0,2.9,0,4.3-0.1c0.2,0,0.4,0,0.6,0
				c1.4-0.1,2.8-0.2,4.2-0.3c0.2,0,0.4,0,0.7-0.1c1.4-0.1,2.8-0.3,4.2-0.5c0.2,0,0.4-0.1,0.7-0.1c1.4-0.2,2.8-0.4,4.1-0.7
				c0.1,0,0.2,0,0.3-0.1C225.4,292.9,187.2,248.8,187.2,195.9z"/>
			<line id="XMLID_855_" class="st25" x1="206.2" y1="51.8" x2="206.2" y2="51.8"/>
			<path id="XMLID_853_" class="st0" d="M286.4,12c-0.2,0-0.5,0-0.7-0.1c-0.1,0-0.2,0-0.3,0c-0.7-0.1-1.5-0.1-2.2-0.1
				c-1.6-0.1-3.2-0.1-4.8-0.1h-45c-1.6,0-3.2,0-4.8,0.1c-3.9,0.2-7.8,0.7-11.5,1.4c-2,0.4-4,0.8-6,1.3c-2.5,0.7-5,1.4-7.4,2.3
				c-1.1,0.4-2.3,0.8-3.4,1.3c-35.4,14.3-60.2,50.8-59,93l1.5,53.5c0,0,0,0,0.1,0c1.2-0.3,2.5-0.5,3.8-0.5h2v-16.8
				c0-0.9,0-1.7,0-2.6c0-0.5,0-1,0-1.4c0-0.5,0-0.9,0-1.4c0-0.6,0.1-1.2,0.1-1.8c0.1-0.8,0.1-1.6,0.2-2.4c0.1-1.3,0.2-2.5,0.4-3.8
				c0.1-0.7,0.2-1.4,0.3-2.1c0,0,0,0,0,0c0-0.4,0.1-0.9,0.2-1.3c0.1-0.7,0.2-1.4,0.3-2.1c0.2-1.2,0.5-2.5,0.7-3.7
				c0.2-0.8,0.3-1.5,0.5-2.3c0.2-0.8,0.4-1.5,0.6-2.2c0.2-0.6,0.3-1.3,0.5-1.9c0.4-1.4,0.8-2.9,1.3-4.3c0.1-0.4,0.2-0.7,0.4-1.1
				c0-0.1,0-0.2,0.1-0.2c0.1-0.2,0.2-0.5,0.2-0.7c0.1-0.3,0.2-0.7,0.4-1c0.2-0.6,0.4-1.1,0.6-1.7c0.3-0.7,0.6-1.4,0.8-2.1
				c0.3-0.7,0.6-1.5,0.9-2.2c0.1-0.1,0.1-0.2,0.1-0.3c0.2-0.6,0.5-1.1,0.7-1.7c0.3-0.7,0.6-1.4,1-2.1c0.6-1.2,1.2-2.5,1.8-3.7
				c0.1-0.2,0.2-0.4,0.3-0.5c0,0,0-0.1,0.1-0.1c0.3-0.6,0.6-1.2,0.9-1.7c0.3-0.6,0.7-1.2,1-1.8c0.1-0.2,0.2-0.4,0.3-0.6
				c0.3-0.5,0.6-1,0.9-1.5c0.4-0.7,0.9-1.4,1.3-2.1c0.4-0.7,0.9-1.3,1.3-2c0,0,0-0.1,0.1-0.1c0.4-0.6,0.8-1.2,1.3-1.8
				c0.9-1.3,1.9-2.5,2.8-3.8c0.5-0.6,1-1.2,1.5-1.9s1-1.2,1.5-1.8c0.3-0.3,0.5-0.6,0.8-0.9c0.4-0.5,0.9-1,1.3-1.5
				c0.6-0.6,1.1-1.2,1.7-1.8c0.6-0.6,1.1-1.2,1.7-1.8c0.5-0.5,1-1,1.5-1.5c0.7-0.7,1.4-1.3,2.1-1.9c0.6-0.6,1.2-1.1,1.8-1.6
				c0.6-0.5,1.2-1.1,1.9-1.6c0,0,0,0,0.1,0c0.6-0.5,1.2-1,1.9-1.5c0.3-0.3,0.7-0.5,1-0.8c0.3-0.3,0.6-0.5,1-0.8
				c0.9-0.7,1.9-1.5,2.9-2.1c2-1.4,4-2.7,6-4c0.5-0.3,1-0.6,1.6-0.9c0.5-0.3,1-0.6,1.5-0.9c0.5-0.3,1-0.6,1.6-0.9
				c0.5-0.3,1.1-0.6,1.6-0.9c0,0,0,0,0,0c0.1,0.2,0.1,0.5,0.1,0.7c0.1,0.4,0.2,0.9,0.2,1.3c0,0.1,0,0.2,0.1,0.4c0,0,0,0.1,0,0.1
				c0.1,0.4,0.1,0.8,0.1,1.2c0,0,0,0.1,0,0.1c0,0.1,0,0.1,0,0.2c0,0.5,0.1,0.9,0.1,1.4c0.1,5.6-1,12-2.3,17.5
				c-0.9,3.6,1.2,6.8,4.2,7.9c1.8,0.7,3.9,0.6,5.8-0.5c10.6-6.3,17.7-16.1,22.1-24.3c3.2-5.9,12-3.7,12.1,2.9
				c0.3,12-4.4,25.5-8.6,34.9c-2.3,5.1,2.3,10.6,7.7,9.3c46.6-11.3,65.6-32.4,72.9-44.5c26.5,19.6,43.6,51.1,43.6,86.6V164h2.5
				c0.7,0,1.4,0.1,2.1,0.2l1.5-53.1C372,59.5,334.6,16.3,286.4,12z"/>
			<path id="XMLID_851_" class="st70" d="M285.7,12c-0.1,0-0.2,0-0.3,0c-0.7-0.1-1.5-0.1-2.2-0.1c-1.5-0.1-3.1-0.1-4.7-0.1h-44.9
				c-1.6,0-3.2,0-4.8,0.1c-3.9,0.2-7.8,0.7-11.5,1.4c-2,0.4-4,0.8-6,1.3c-2.5,0.7-5,1.4-7.4,2.3c-1.1,0.4-2.3,0.8-3.4,1.3
				c-35.4,14.3-60.2,50.8-59,93l1.5,53.5v0c1.2-0.3,2.5-0.5,3.8-0.5h2.1v-16.8c0-41.3,23.3-77.2,57.4-95.3c0,0,0,0,0.1,0
				c1.5,6.5,0,15.6-1.7,22.9c-0.6,2.3,0.1,4.5,1.5,6c10.5-37.3,42-65.3,80.3-68.8c0,0,0,0,0,0C286.2,12,285.9,12,285.7,12z"/>
			<path id="XMLID_850_" class="st21" d="M264,212.7h-13.3c-4.4,0-8-3.6-8-8v0c0-4.4,3.6-8,8-8H264c4.4,0,8,3.6,8,8v0
				C272,209.1,268.4,212.7,264,212.7z"/>
			<path id="XMLID_849_" class="st71" d="M236.6,224.1c0,11.4,9.3,20.7,20.7,20.7c11.4,0,20.7-9.3,20.7-20.7"/>
			<line id="XMLID_847_" class="st71" x1="244.8" y1="261.4" x2="269.8" y2="261.4"/>
			<g id="XMLID_827_">
				<g id="XMLID_843_">
					<path id="XMLID_846_" class="st23" d="M246.1,154.6v9.7c0,19.9-16.1,36-36,36h-10.3c-3.1,0-6-0.5-8.8-1.4
						c-3.2-1-6.1-2.6-8.7-4.7c-3.7-2.9-6.6-6.6-8.5-10.9c-1.5-3.5-2.4-7.3-2.4-11.4v-17.4c0-6.6,5.4-12,12-12h50.7
						c3.6,0,6.9,1.6,9.1,4.1C245,148.9,246.1,151.6,246.1,154.6z"/>
					<path id="XMLID_845_" class="st72" d="M233.9,142.7l-51.6,51.6c-3.7-2.9-6.6-6.6-8.5-10.9l40.7-40.7H233.9z"/>
					<path id="XMLID_844_" class="st72" d="M246.1,154.6v8.7l-37,37h-9.3c-3.1,0-6-0.5-8.8-1.4l52.2-52.2
						C245,148.9,246.1,151.6,246.1,154.6z"/>
				</g>
				<g id="XMLID_839_">
					<path id="XMLID_842_" class="st23" d="M269.8,154.6v9.7c0,19.9,16.1,36,36,36h10.3c3.1,0,6-0.5,8.8-1.4c3.2-1,6.1-2.6,8.7-4.7
						c3.7-2.9,6.6-6.6,8.5-10.9c1.5-3.5,2.4-7.3,2.4-11.4v-17.4c0-6.6-5.4-12-12-12h-50.7c-3.6,0-6.9,1.6-9.1,4.1
						C270.9,148.9,269.8,151.6,269.8,154.6z"/>
					<path id="XMLID_841_" class="st72" d="M282,142.7l51.6,51.6c3.7-2.9,6.6-6.6,8.5-10.9l-40.7-40.7H282z"/>
					<path id="XMLID_840_" class="st72" d="M269.8,154.6v8.7l37,37h9.3c3.1,0,6-0.5,8.8-1.4l-52.2-52.2
						C270.9,148.9,269.8,151.6,269.8,154.6z"/>
				</g>
				<path id="XMLID_828_" class="st73" d="M331.2,140.1h-50.7c-2.9,0-5.7,0.9-8.1,2.5c-9.9-4.7-19.6-4.8-29.6-0.5
					c-2.2-1.3-4.7-2-7.3-2h-50.7c-8,0-14.6,6.5-14.6,14.6V172c0,4.3,0.9,8.5,2.6,12.4c2.1,4.7,5.3,8.8,9.3,11.9
					c1.6,1.3,3.4,2.4,5.2,3.3c1.4,0.7,2.8,1.3,4.3,1.8c3.1,1,6.3,1.5,9.6,1.5h10.3c1.3,0,2.5-0.1,3.8-0.2h0
					c17.4-1.7,31.4-15,34.2-32c0.4-2.1,0.5-4.2,0.5-6.4v-7.2h15.9v7.2c0,1.4,0.1,2.7,0.2,4c2,19.4,18.5,34.5,38.4,34.5h10.3
					c0.2,0,0.3,0,0.5,0c3.1,0,6.2-0.5,9.1-1.5c3.5-1.1,6.7-2.8,9.5-5.1c4-3.1,7.2-7.2,9.3-11.9c1.7-3.9,2.6-8.1,2.6-12.4v-17.4
					C345.7,146.6,339.2,140.1,331.2,140.1z M338.4,182.4c-1.6,3.7-4.1,7-7.2,9.5h0c-0.2,0.2-0.3,0.3-0.5,0.4c-2.4,1.9-5,3.3-7.9,4.2
					c-0.1,0-0.2,0.1-0.2,0.1c-2.5,0.8-5.1,1.2-7.7,1.2h-10.5c-16.9-0.1-30.8-12.7-32.9-29c-0.2-1.4-0.3-2.8-0.3-4.2v-9.9
					c0-2.2,0.8-4.4,2.3-6.1c0.2-0.2,0.3-0.4,0.5-0.5c1.8-1.7,4.1-2.7,6.6-2.7h50.7c5.2,0,9.4,4.2,9.4,9.4V172c0,2.9-0.5,5.7-1.4,8.4
					C338.9,181.1,338.7,181.7,338.4,182.4z M243.7,172.9L243.7,172.9c-3.2,12.3-13.4,21.9-26,24.3c-2,0.4-4,0.6-6.1,0.6h-10.5
					c-2.6,0-5.2-0.4-7.7-1.2c-0.1,0-0.2,0-0.2-0.1c-2.1-0.7-4.1-1.6-5.9-2.8c-0.7-0.4-1.3-0.9-2-1.4c-0.2-0.1-0.3-0.3-0.5-0.4
					c-3.1-2.5-5.6-5.8-7.2-9.5c-0.3-0.6-0.5-1.3-0.7-1.9c-0.9-2.7-1.4-5.5-1.4-8.4v-17.4c0-5.2,4.2-9.4,9.4-9.4h50.7
					c1.9,0,3.6,0.5,5.2,1.5l0.9,1.6c0.1,0,0.1-0.1,0.2-0.1c0.2-0.1,0.3-0.2,0.5-0.2c0.1,0.1,0.3,0.3,0.4,0.4
					c1.5,1.7,2.3,3.9,2.3,6.1v9.9C244.8,167.4,244.4,170.2,243.7,172.9z M249.8,152c-0.4-2.2-1.3-4.3-2.7-6.1
					c7.2-2.6,14.2-2.4,21.3,0.6c-1.1,1.7-1.9,3.5-2.3,5.5H249.8z"/>
			</g>
			<path id="XMLID_1129_" class="st21" d="M322.6,503.3c-0.8,0.2-1.5,0.4-2.3,0.6c-4.4,1.1-8.8,2.2-13.3,3.1
				c-1.2,0.2-2.5,0.5-3.8,0.7c-15.3,2.9-31.1,4.4-47.2,4.4c-14.9,0-29.6-1.3-43.8-3.7c-2.7-0.5-5.5-1-8.2-1.5l1.6-21.5l1.2-16.7
				l1-13.9h9.1c0,0,0.2,0.2,0.5,0.5c4.2,4.8,36.8,39.3,80-0.5H312l5.2,23.9l2.4,11.1L322.6,503.3z"/>
			<path id="XMLID_1135_" class="st74" d="M224.4,329v53.8l-0.5,4.7l-6.6,67.7l-0.5,5.6l-1.5,15.6l-0.2,1.9l-1.5,15.2l-1.5,14.9
				c-2.7-0.5-5.5-1-8.2-1.5c-9.1-1.9-18-4.2-26.7-7c-4.5-1.4-8.9-3-13.3-4.7c-1.4-0.5-2.7-1-4.1-1.6l0,0c-2.2-0.9-4.5-1.8-6.7-2.8
				c-6.9-3-13.7-6.3-20.2-10c0,0,0,0,0,0c-3.5-1.9-7-4-10.5-6.1c-0.2-0.1-0.5-0.3-0.7-0.4v-97.9c0-26.1,21.2-47.3,47.3-47.3H224.4z"
				/>
			<path id="XMLID_1150_" class="st74" d="M391.6,376.3v97c-1.8,1.1-3.7,2.2-5.5,3.3c-1.5,0.9-3.1,1.8-4.6,2.6
				c-4,2.3-8.1,4.4-12.2,6.4c-8,4-16.2,7.5-24.7,10.6c-4.4,1.6-8.8,3.1-13.3,4.5c-2.9,0.9-5.8,1.7-8.8,2.5c-0.8,0.2-1.5,0.4-2.3,0.6
				c-4.4,1.1-8.8,2.2-13.3,3.1c-1.2,0.2-2.5,0.5-3.8,0.7l-0.5-5.4l-2.1-21.8l-2.5-25.9l-6.5-67l-0.5-4.9V329h53.2
				c0.8,0,1.6,0,2.4,0.1c0.3,0,0.6,0,0.9,0.1c0.2,0,0.4,0,0.6,0c0.4,0,0.7,0.1,1.1,0.1c0.3,0,0.5,0.1,0.8,0.1c0.5,0.1,1,0.1,1.5,0.2
				c0.3,0,0.6,0.1,0.9,0.2c0.4,0.1,0.8,0.1,1.2,0.2c0.3,0.1,0.6,0.1,0.9,0.2c0.1,0,0.2,0,0.2,0.1c0.4,0.1,0.8,0.2,1.1,0.3
				c0.2,0.1,0.5,0.1,0.7,0.2c0.3,0.1,0.6,0.1,0.8,0.2c0.4,0.1,0.9,0.3,1.3,0.4c0.6,0.2,1.2,0.4,1.8,0.6c0.3,0.1,0.6,0.2,1,0.4
				c0.8,0.3,1.5,0.6,2.2,1c0.3,0.1,0.5,0.2,0.8,0.4c0.1,0,0.2,0.1,0.3,0.1c0.6,0.3,1.2,0.6,1.7,0.9c0,0,0,0,0.1,0
				c0.2,0.1,0.4,0.2,0.6,0.3c0.1,0.1,0.3,0.2,0.4,0.3c0.7,0.4,1.4,0.8,2.1,1.3c0.6,0.4,1.2,0.8,1.9,1.2c0.6,0.4,1.2,0.9,1.8,1.3
				c0,0,0,0,0,0c0.3,0.2,0.6,0.5,0.9,0.7c0,0,0,0,0,0c0.9,0.7,1.7,1.5,2.5,2.2h0v0c0.2,0.2,0.4,0.4,0.6,0.6c0.5,0.5,1,1,1.5,1.5
				c0.5,0.5,0.9,1,1.4,1.6c0.5,0.5,0.9,1.1,1.3,1.7c0.4,0.6,0.9,1.1,1.3,1.7c0.4,0.6,0.8,1.2,1.2,1.8c0.4,0.6,0.8,1.2,1.1,1.8
				c0.6,1.1,1.2,2.3,1.8,3.5c0,0.1,0.1,0.2,0.2,0.3c0,0.1,0.1,0.2,0.1,0.3c0.2,0.5,0.4,1,0.6,1.5c0.1,0.2,0.2,0.4,0.3,0.6
				c0.1,0.4,0.3,0.7,0.4,1.1c0.2,0.6,0.4,1.2,0.6,1.8c0,0.1,0.1,0.2,0.1,0.3c0.1,0.2,0.1,0.4,0.2,0.6c0.1,0.3,0.2,0.5,0.2,0.8
				c0.1,0.3,0.2,0.6,0.2,0.9c0.1,0.4,0.2,0.8,0.3,1.1c0.1,0.3,0.1,0.6,0.2,1c0.2,0.7,0.3,1.5,0.4,2.2c0,0.2,0.1,0.5,0.1,0.7
				c0,0.2,0.1,0.5,0.1,0.7c0.1,0.6,0.2,1.3,0.2,1.9C391.5,373.5,391.6,374.9,391.6,376.3z"/>
			<path id="XMLID_803_" class="st16" d="M231,329l-9.3-8.6c-2.6-2.4-6.7-2.4-9.3,0.1l-11.2,10.6c-1.5,1.4-2.2,3.3-2.1,5.3
				c0.5,8.7,3.6,33,20.8,50.3c2,2,5.5,1.1,6-1.7C228.6,372.1,234.2,341.8,231,329z"/>
			<path id="XMLID_802_" class="st16" d="M281.9,329l9.3-8.6c2.6-2.4,6.7-2.4,9.3,0.1l11.2,10.6c1.5,1.4,2.2,3.3,2.1,5.3
				c-0.5,8.7-3.6,33-20.8,50.3c-2,2-5.5,1.1-6-1.7C284.3,372.1,278.7,341.8,281.9,329z"/>
			<path id="XMLID_1073_" class="st75" d="M344.6,429.9v66.4c-4.4,1.6-8.8,3.1-13.3,4.5v-70.9c0-3.7,3-6.6,6.6-6.6
				c1.8,0,3.5,0.7,4.7,1.9C343.9,426.4,344.6,428,344.6,429.9z"/>
			<path id="XMLID_1124_" class="st75" d="M200.6,329c-3.2,0-6.3,0.3-9.3,0.9c0,0,0,0,0,0c-21.7,4.3-38,23.4-38,46.4v114.3
				c-6.9-3-13.7-6.3-20.2-10c0,0,0,0,0,0c-3.5-1.9-7-4-10.5-6.1v-98.3c0-1.8,0.1-3.6,0.3-5.4c0.5-4.5,1.7-8.9,3.4-13
				c0,0,0-0.1,0-0.1c1.7-4,3.9-7.7,6.6-11c8.7-10.9,22-17.8,37-17.8H200.6z"/>
			<path id="XMLID_797_" class="st16" d="M200.3,386.1c-2.1,0-6.8,1-10.5,2.5c1.5-3.6,2.5-8.4,2.5-10.5c0-3.6-3-6.6-6.6-6.6
				s-6.6,3-6.6,6.6c0,2.1,1,6.8,2.5,10.5c-3.6-1.5-8.4-2.5-10.5-2.5c-3.6,0-6.6,3-6.6,6.6c0,3.6,3,6.6,6.6,6.6c2.1,0,6.8-1,10.5-2.5
				c-1.5,3.6-2.5,8.4-2.5,10.5c0,3.6,3,6.6,6.6,6.6s6.6-3,6.6-6.6c0-2.1-1-6.8-2.5-10.5c3.6,1.5,8.4,2.5,10.5,2.5
				c3.6,0,6.6-3,6.6-6.6C206.9,389,203.9,386.1,200.3,386.1z"/>
			<path id="XMLID_834_" class="st16" d="M169.7,487.2c0,3.3-2.4,6.1-5.6,6.5c-0.3,0.1-0.6,0.1-1,0.1c-0.8,0-1.8-0.1-3.1-0.4l0,0
				c-2.2-0.9-4.5-1.8-6.7-2.8c-6.9-3-13.7-6.3-20.2-10c0.3,0,0.6-0.1,0.8-0.1c2.1,0,6.9,1,10.5,2.5c-1.5-3.7-2.5-8.4-2.5-10.5
				c0-3.6,3-6.6,6.6-6.6c1.9,0,3.6,0.8,4.8,2.1c1.1,1.2,1.8,2.8,1.8,4.5c0,1.8-0.7,5.3-1.8,8.6c-0.2,0.7-0.5,1.3-0.7,1.9
				c0.2-0.1,0.5-0.2,0.7-0.3c3.5-1.4,7.8-2.2,9.8-2.2c0.3,0,0.7,0,1,0.1C167.3,481.1,169.7,483.9,169.7,487.2z"/>
			<path id="XMLID_819_" class="st16" d="M391.6,464.1v9.1c-1.8,1.1-3.7,2.2-5.5,3.3c-2-0.4-4.2-1.1-6.1-1.9c0.6,1.4,1.1,3,1.5,4.5
				c-4,2.3-8.1,4.4-12.2,6.4c0-0.1,0-0.3,0-0.5c0-2.1,1-6.9,2.5-10.5c-3.7,1.5-8.4,2.5-10.5,2.5c-3.7,0-6.6-3-6.6-6.6
				c0-3.7,3-6.6,6.6-6.6c2.1,0,6.8,1,10.5,2.5c-1.5-3.6-2.5-8.4-2.5-10.5c0-3.6,3-6.6,6.6-6.6c3.7,0,6.6,3,6.6,6.6
				c0,2.1-1,6.9-2.5,10.5c3.7-1.5,8.4-2.5,10.5-2.5C390.8,464,391.2,464.1,391.6,464.1z"/>
			<path id="XMLID_794_" class="st16" d="M147.8,360.4c-1.9,0.8-6.7,1.8-10.6,1.9c2.9,2.7,5.7,6.7,6.5,8.6c1.4,3.3-0.1,7.2-3.4,8.7
				c-3.3,1.5-7.2-0.1-8.7-3.4c-0.8-1.9-1.8-6.7-1.9-10.6c-2,2.1-4.7,4.2-6.8,5.5c0.5-4.5,1.7-8.9,3.4-13h0.1c0,0-0.1-0.1-0.1-0.1
				c1.7-4,3.9-7.7,6.6-11c0.5,2.3,1,5.2,1,7.9c2.7-2.9,6.7-5.6,8.6-6.5c3.3-1.5,7.2,0.1,8.7,3.4C152.7,355,151.2,358.9,147.8,360.4z
				"/>
			<path id="XMLID_793_" class="st16" d="M327,381.7c-1.6,1.4-4.5,5.3-6.2,8.8c-1.3-3.7-3.7-8-5.1-9.5c-2.4-2.7-6.6-3-9.3-0.6
				c-2.7,2.4-3,6.6-0.6,9.3c1.4,1.6,5.3,4.5,8.8,6.2c-3.7,1.3-8,3.7-9.5,5.1c-2.7,2.4-3,6.6-0.6,9.3c2.4,2.7,6.6,3,9.3,0.6
				c1.6-1.4,4.5-5.3,6.2-8.8c1.3,3.7,3.7,8,5.1,9.5c2.4,2.7,6.6,3,9.3,0.6c2.7-2.4,3-6.6,0.6-9.3c-1.4-1.6-5.3-4.5-8.8-6.2
				c3.7-1.3,8-3.7,9.5-5.1c2.7-2.4,3-6.6,0.6-9.3C333.9,379.6,329.8,379.3,327,381.7z"/>
			<path id="XMLID_792_" class="st16" d="M387.2,356.6c-2.2,1.9-5.4,2.2-8,0.6c-1.8-1.2-5.2-4.6-7.4-7.9c-0.7,3.9-2.5,8.4-3.7,10.2
				c-2,3-6.1,3.9-9.1,1.9c-3-2-3.9-6.1-1.9-9.1c1.1-1.8,4.6-5.2,7.9-7.4c-3.9-0.7-8.4-2.5-10.1-3.7c-3-2-3.9-6.1-1.9-9.1
				c0.5-0.7,1.1-1.3,1.7-1.8c4.5,1,8.7,2.6,12.6,4.8c0.8,1,1.6,2,2.3,3c0.1-0.5,0.2-0.9,0.3-1.4c2.5,1.6,4.9,3.5,7,5.5
				c-0.2,0.1-0.3,0.2-0.5,0.4c0.4,0.1,0.7,0.1,1.1,0.2C381.5,346.6,384.8,351.3,387.2,356.6z"/>
			<path id="XMLID_1108_" class="st16" d="M318.8,501c0.8,0.9,1.3,1.9,1.5,2.9c-4.4,1.1-8.8,2.2-13.3,3.1c-1.2-1.9-2.4-4.5-3.2-6.8
				c-0.3,0.7-0.7,1.4-1.1,2.1l-2.1-21.8c1.3,2,3,5.2,4,8.1c1.7-3.6,4.6-7.4,6.2-8.8c1.8-1.6,4.3-2,6.4-1.3c1.1,0.3,2.1,1,2.9,1.9
				c2.4,2.7,2.2,6.8-0.5,9.2c0,0-0.1,0.1-0.1,0.1c-1.6,1.4-5.8,3.8-9.5,5C313.5,496.5,317.4,499.4,318.8,501z"/>
			<path id="XMLID_795_" class="st16" d="M215.3,476.4c-0.7,0.3-1.4,0.6-2.1,0.8c0.7,0.3,1.3,0.7,2,1.1l-1.5,15.2
				c-0.6-0.3-1.1-0.8-1.6-1.3c-1.4-1.6-3.8-5.8-5.1-9.5c-1.7,3.6-4.6,7.4-6.2,8.8c-2.7,2.4-6.9,2.1-9.3-0.6
				c-2.4-2.7-2.1-6.9,0.6-9.3c1.6-1.4,5.8-3.8,9.5-5c-3.6-1.7-7.4-4.6-8.8-6.2c-2.4-2.7-2.1-6.9,0.6-9.3c2.7-2.4,6.9-2.1,9.3,0.6
				c1.4,1.6,3.8,5.8,5.1,9.5c1.7-3.6,4.6-7.4,6.2-8.8c0.8-0.7,1.8-1.2,2.8-1.5L215.3,476.4z"/>
			<path id="XMLID_1107_" class="st75" d="M177.3,429.9v69.9c-4.5-1.4-8.9-3-13.3-4.7v-65.2c0-3.7,3-6.6,6.6-6.6
				c1.8,0,3.5,0.7,4.7,1.9C176.6,426.4,177.3,428,177.3,429.9z"/>
			<path id="XMLID_796_" class="st76" d="M319.9,31.2c7.2,4.3,19.8,12.6,26.3,22.5c0.7,1-0.1,2.3-1.3,2.3H338
				c-0.8,0-1.5,0.7-1.5,1.5l-0.2,7.2c0,1.2-1.5,1.9-2.5,1.2c-4.4-3.4-14.6-10.4-25.1-13.1c-1.4-0.4-1.6-2.4-0.2-2.9l9.8-3.7
				c0.6-0.2,1-0.8,1-1.4c0-2.2-0.2-7.5-1.6-11.7C317.2,31.7,318.6,30.5,319.9,31.2z"/>
		</g>
	</g>
</g>
</svg>
