<?xml version="1.0" encoding="utf-8"?>
<!-- Generator: Adobe Illustrator 22.0.1, SVG Export Plug-In . SVG Version: 6.00 Build 0)  -->
<svg version="1.1" xmlns="http://www.w3.org/2000/svg" xmlns:xlink="http://www.w3.org/1999/xlink" x="0px" y="0px"
	 viewBox="0 0 512 512" style="enable-background:new 0 0 512 512;" xml:space="preserve">
<style type="text/css">
	.st0{fill:#E9B12D;}
	.st1{fill:#A9E7D8;}
	.st2{fill:#76CFB1;}
	.st3{fill:#AE6B5D;}
	.st4{fill:#7770D3;}
	.st5{fill:#5BA0F5;}
	.st6{fill:#DA4545;}
	.st7{fill:#89CCFC;}
	.st8{fill:#CD462A;}
	.st9{fill:#514896;}
	.st10{fill:#5493A0;}
	.st11{fill:#CC6B5C;}
	.st12{fill:#62AA8D;}
	.st13{fill:#8ABAAB;}
	.st14{fill:#C3791F;}
	.st15{fill:#E39123;}
	.st16{fill:#FFFFFF;}
	.st17{fill:none;stroke:#FFFFFF;stroke-width:10;stroke-linecap:round;stroke-miterlimit:10;}
	.st18{fill:none;stroke:#5F55AB;stroke-width:10;stroke-linecap:round;stroke-miterlimit:10;}
	.st19{fill:#A9671C;}
	.st20{fill:#D5B3A7;}
	.st21{fill:#C09A8F;}
	.st22{fill:#487F87;}
	.st23{fill:#1B305C;}
	.st24{fill:#172945;}
	.st25{fill:none;}
	.st26{fill:#B62A2A;}
	.st27{fill:#325859;}
	.st28{fill:#3F6E71;}
	.st29{fill:#284646;}
	.st30{fill:#8F2727;}
	.st31{fill:#29477C;}
	.st32{fill:#5B9BEE;}
	.st33{fill:#487FDE;}
	.st34{fill:#CD9829;}
	.st35{fill:#9F2A2A;}
	.st36{fill:#4C3328;}
	.st37{fill:#E8B94A;}
	.st38{fill:#DDF8F1;}
	.st39{fill:#3E2A22;}
	.st40{fill:#D3A971;}
	.st41{fill:#C79A5B;}
	.st42{fill:#233E76;}
	.st43{fill:#21395F;}
	.st44{fill:#487D82;}
	.st45{fill:none;stroke:#C79A5B;stroke-width:10;stroke-linecap:round;stroke-miterlimit:10;}
	.st46{fill:#5E3E31;}
	.st47{fill:#AC3939;}
	.st48{fill:#CA9628;}
	.st49{fill:#AF8F88;}
	.st50{fill:#815048;}
	.st51{fill:#6F4232;}
	.st52{fill:#5F55AB;}
	.st53{fill:#192A48;}
	.st54{fill:#152336;}
	.st55{fill:#192B49;}
	.st56{fill:#264173;}
	.st57{fill:#B06F1E;}
	.st58{fill:#4E88C0;}
	.st59{fill:#83C3F1;}
	.st60{fill:#CF9929;}
	.st61{fill:none;stroke:#FFFFFF;stroke-width:10;stroke-linecap:round;stroke-linejoin:round;stroke-miterlimit:10;}
	.st62{fill:#EAC262;}
	.st63{fill:#D6D5D4;}
	.st64{fill:#6BBA9B;}
	.st65{fill:#63AA8F;}
	.st66{fill:none;stroke:#3E2A22;stroke-width:10;stroke-linecap:round;stroke-miterlimit:10;}
	.st67{fill:#CA7D1F;}
	.st68{fill:#213B64;}
	.st69{fill:#CDF8EC;}
	.st70{fill:#C59125;}
	.st71{fill:none;stroke:#C09A8F;stroke-width:10;stroke-linecap:round;stroke-miterlimit:10;}
	.st72{fill:#32579B;}
	.st73{fill:#172843;}
	.st74{fill:#D66767;}
	.st75{fill:#A74949;}
	.st76{fill:#EBC76F;}
	.st77{fill:#7A4940;}
	.st78{fill:#182A48;}
	.st79{fill:none;stroke:#A0794A;stroke-width:10;stroke-linecap:round;stroke-miterlimit:10;}
	.st80{fill:#C37A20;}
	.st81{fill:#D26D5C;}
	.st82{fill:#A45752;}
	.st83{fill:#284579;}
	.st84{fill:#88C7F4;}
	.st85{fill:#6EB6F0;}
	.st86{fill:#32221E;}
	.st87{fill:#E7A6A6;}
	.st88{fill:#C59191;}
	.st89{fill:#AA3B3B;}
	.st90{fill:#B83E3E;}
	.st91{fill:none;stroke:#5F55A9;stroke-width:10;stroke-linecap:round;stroke-miterlimit:10;}
	.st92{fill:#963838;}
	.st93{fill:#402B25;}
	.st94{fill:#6B6ABA;}
	.st95{fill:#BABABA;}
	.st96{fill:#D1D1D1;}
	.st97{fill:#264377;}
	.st98{fill:#A19BF5;}
	.st99{fill:#3C2A21;}
	.st100{fill:none;stroke:#4C3328;stroke-width:10;stroke-linecap:round;stroke-miterlimit:10;}
	.st101{fill:#C1781F;}
	.st102{fill:#E3A147;}
	.st103{fill:#F2D2A1;}
	.st104{fill:#4F372D;}
	.st105{fill:none;stroke:#DA4545;stroke-width:10;stroke-linecap:round;stroke-miterlimit:10;}
	.st106{fill:#AA3928;}
	.st107{fill:#8C2C22;}
	.st108{fill:#BF4336;}
	.st109{fill:#5797D4;}
	.st110{fill:#CFCFCF;}
	.st111{fill:#613A2E;}
	.st112{fill:none;stroke:#B18653;stroke-width:10;stroke-linecap:round;stroke-miterlimit:10;}
	.st113{fill:#B13B3B;}
	.st114{fill:#16263A;}
	.st115{fill:none;stroke:#16263A;stroke-width:10;stroke-miterlimit:10;}
	.st116{fill:#C87D20;}
	.st117{fill:#E4F0FD;}
	.st118{fill:#AA3737;}
	.st119{fill:#BF771F;}
	.st120{fill:none;stroke:#CD462A;stroke-width:10;stroke-linejoin:round;stroke-miterlimit:10;}
	.st121{fill:#5696D2;}
	.st122{fill:#C0771E;}
	.st123{fill:#9B5F1B;}
	.st124{fill:#A83A29;}
	.st125{fill:#E7A74F;}
	.st126{fill:#C9924C;}
	.st127{fill:#C58E48;}
	.st128{fill:#BE8844;}
	.st129{fill:#916939;}
	.st130{fill:#264275;}
	.st131{fill:#253F65;}
	.st132{fill:#182A45;}
	.st133{fill:#162336;}
	.st134{fill:#93C7B7;}
	.st135{fill:#E6A4A4;}
	.st136{fill:#B06B1D;}
	.st137{fill:#484185;}
	.st138{fill:#DB6E6E;}
	.st139{fill:#6BBA9A;}
	.st140{fill:#CACCCC;}
	.st141{fill:#D4D4D4;}
	.st142{fill:#A98881;}
	.st143{fill:#213A62;}
	.st144{fill:#A2837D;}
	.st145{fill:#6FB8F4;}
	.st146{fill:#9B9E9E;}
	.st147{fill:#B2B3B3;}
	.st148{fill:#20385D;}
	.st149{fill:#335AA8;}
	.st150{fill:#BCE7FD;}
	.st151{fill:#3B2921;}
	.st152{fill:#AD3C3C;}
	.st153{fill:#9D3838;}
	.st154{fill:#603F33;}
	.st155{fill:#4D868B;}
	.st156{fill:#A2DDFD;}
	.st157{fill:#ECB6B6;}
	.st158{fill:#E8A346;}
	.st159{fill:#514C94;}
	.st160{fill:#D2F1E8;}
	.st161{fill:#BDD6CE;}
	.st162{fill:#B93B29;}
	.st163{fill:#E0AD70;}
	.st164{fill:#C57C21;}
	.st165{fill:#EDA34A;}
	.st166{fill:#2F538F;}
	.st167{fill:#2B4B78;}
	.st168{fill:#65AF91;}
	.st169{fill:#A7CEFC;}
	.st170{fill:#98BDE2;}
	.st171{fill:#CFE5F7;}
	.st172{fill:#5492CD;}
	.st173{fill:#97CCBC;}
	.st174{fill:#5491CA;}
	.st175{fill:#EDC563;}
	.st176{fill:#423C79;}
	.st177{fill:#D3B1A5;}
	.st178{fill:#BE988D;}
	.st179{fill:#A7E5D6;}
	.st180{fill:#F2FFF9;}
	.st181{fill:#D64545;}
	.st182{fill:#A73B3B;}
	.st183{fill:#15233A;}
	.st184{fill:none;stroke:#BE988D;stroke-width:10;stroke-linecap:round;stroke-miterlimit:10;}
	.st185{fill:#AF3A29;}
	.st186{fill:#FAF9FF;}
	.st187{fill:#CACACC;}
	.st188{fill:#372720;}
	.st189{fill:#3F2C26;}
	.st190{fill:#2D201C;}
	.st191{fill:#3D6D6F;}
	.st192{fill:#5B54A8;}
	.st193{fill:#325799;}
	.st194{fill:#E8C26E;}
	.st195{fill:#254784;}
	.st196{fill:#5696D4;}
	.st197{fill:#4F8AB6;}
	.st198{fill:#5FA4AC;}
	.st199{fill:#AA3524;}
	.st200{fill:#D15F4D;}
	.st201{fill:#2B294C;}
	.st202{fill:#A43A2A;}
	.st203{fill:#E7AE2D;}
	.st204{fill:#CD9729;}
	.st205{fill:none;stroke:#AA8253;stroke-width:10;stroke-linecap:round;stroke-miterlimit:10;}
	.st206{fill:none;stroke:#E18F23;stroke-width:10;stroke-linecap:round;stroke-linejoin:round;stroke-miterlimit:10;}
	.st207{fill:#CF9828;}
	.st208{fill:#B88926;}
	.st209{fill:#A17623;}
	.st210{fill:#96CCBC;}
	.st211{fill:#CF9A2A;}
	.st212{fill:#C57B20;}
	.st213{fill:#C7F1E6;}
	.st214{fill:#DC6363;}
	.st215{fill:#E89F9F;}
	.st216{fill:#C88C8C;}
	.st217{fill:#C16E6E;}
	.st218{fill:#A46060;}
	.st219{fill:#AA3626;}
	.st220{fill:#87EDC4;}
	.st221{fill:#D86552;}
	.st222{fill:#BC7620;}
	.st223{fill:#BA741E;}
	.st224{fill:#8F8CE3;}
	.st225{fill:#3A2820;}
	.st226{fill:#AC7060;}
	.st227{fill:#915F55;}
	.st228{fill:#49332A;}
	.st229{fill:#2D1F1B;}
	.st230{fill:#69B7BE;}
	.st231{fill:#D6D6D6;}
	.st232{fill:#B8B8B8;}
	.st233{fill:#CACACA;}
	.st234{fill:#467B80;}
	.st235{fill:#C2EDE2;}
	.st236{fill:#A9574F;}
	.st237{fill:#5595D2;}
	.st238{fill:#955949;}
	.st239{fill:#7E4B42;}
	.st240{fill:#89CCF1;}
	.st241{fill:#DD584A;}
	.st242{fill:#C18F26;}
	.st243{fill:#B33C2A;}
	.st244{fill:#D1A771;}
	.st245{fill:#B42A2A;}
	.st246{fill:#325797;}
	.st247{fill:#9F3529;}
	.st248{fill:#EDCE80;}
	.st249{fill:#F0DBAC;}
	.st250{fill:#CFB478;}
	.st251{fill:#D4C29B;}
	.st252{fill:#993939;}
	.st253{fill:#D1AFA3;}
	.st254{fill:#BC968B;}
	.st255{fill:none;stroke:#BC968B;stroke-width:10;stroke-linecap:round;stroke-miterlimit:10;}
	.st256{fill:#814C3C;}
	.st257{fill:#C0EBE0;}
	.st258{fill:#A5E3D4;}
	.st259{fill:#15243C;}
	.st260{fill:#443E79;}
	.st261{fill:#F0FFF7;}
	.st262{fill:#9A764B;}
	.st263{fill:#826443;}
	.st264{fill:#D9AA74;}
	.st265{fill:#5DA186;}
	.st266{fill:#68B596;}
	.st267{fill:#E5C6BE;}
	.st268{fill:#D3B6B1;}
	.st269{fill:none;stroke:#BAA09C;stroke-width:10;stroke-linecap:round;stroke-miterlimit:10;}
	.st270{fill:#F4D78F;}
	.st271{fill:#20385F;}
	.st272{fill:#BA8727;}
	.st273{fill:#5A9C82;}
	.st274{fill:none;stroke:#E39123;stroke-width:10;stroke-linecap:round;stroke-linejoin:round;stroke-miterlimit:10;}
	.st275{fill:#60392D;}
	.st276{fill:#CCCCCC;}
	.st277{fill:#844F3E;}
	.st278{fill:#F3FFFB;}
	.st279{fill:#365E60;}
	.st280{fill:#D84545;}
	.st281{fill:#A83B3B;}
	.st282{fill:#253F70;}
	.st283{fill:#EAADAD;}
	.st284{fill:#443E7C;}
	.st285{fill:#3D6B9F;}
	.st286{fill:#4274BC;}
	.st287{fill:#AF3827;}
	.st288{fill:#E59D9D;}
	.st289{fill:#C48989;}
	.st290{fill:none;stroke:#9B621A;stroke-width:10;stroke-linecap:round;stroke-linejoin:round;stroke-miterlimit:10;}
	.st291{fill:#213A5E;}
	.st292{fill:#2D507A;}
	.st293{fill:#528EC8;}
	.st294{fill:#EFD696;}
	.st295{fill:#D1BA87;}
	.st296{fill:#FDFCFC;}
	.st297{fill:#86CBFC;}
	.st298{fill:#7AB7DA;}
	.st299{fill:#192C4C;}
	.st300{fill:#BCBCBC;}
	.st301{fill:#A13838;}
	.st302{fill:#75BDF6;}
	.st303{fill:#D0B1AA;}
	.st304{fill:#142233;}
	.st305{fill:#E6C4BB;}
	.st306{fill:#BDBDBD;}
	.st307{fill:#E8A192;}
	.st308{fill:#A43939;}
	.st309{fill:#162640;}
	.st310{fill:#27457C;}
	.st311{fill:#EFBE5E;}
	.st312{fill:#87EDC5;}
	.st313{fill:#A03838;}
	.st314{fill:#833232;}
	.st315{fill:#47417F;}
	.st316{fill:none;stroke:#915F55;stroke-width:10;stroke-linecap:round;stroke-miterlimit:10;}
	.st317{fill:#BC8B25;}
	.st318{fill:#473129;}
	.st319{fill:#67B394;}
	.st320{fill:#599A80;}
	.st321{fill:#B13D3D;}
</style>
<g id="BULINE">
	<g>
		<circle id="XMLID_1543_" class="st4" cx="256" cy="256" r="256"/>
	</g>
</g>
<g id="Icons">
	<g id="XMLID_4129_">
		<g id="XMLID_1547_">
			<path id="XMLID_1756_" class="st94" d="M358.7,246.3c0,29-5.5,56.8-15.5,82.3c-32.9,84.1-114.8,143.7-210.5,143.7
				c-4.8,0-9.6-0.2-14.4-0.5c-7.9-5-15.5-10.5-22.7-16.3c-10.6-8.6-20.6-18-29.7-28.1c-0.2-0.2-0.4-0.5-0.7-0.7
				C24.7,381.4,0,321.6,0,256C0,151,63.2,60.8,153.7,21.3c21.4,2,41.9,6.9,61.1,14.4c0.1,0,0.1,0,0.2,0.1c0.9,0.3,1.7,0.7,2.6,1
				c24.5,9.9,46.9,24.1,66.3,41.5C329.8,119.6,358.7,179.6,358.7,246.3z"/>
			<g id="XMLID_1555_">
				<circle id="XMLID_1590_" class="st23" cx="111" cy="268.4" r="54"/>
				<path id="XMLID_1589_" class="st24" d="M130,319c-5.9,2.2-12.3,3.4-19,3.4c-29.8,0-54-24.2-54-54c0-29.8,24.2-54,54-54
					c6.7,0,13.1,1.2,19,3.4c-20.5,7.7-35,27.4-35,50.6C95,291.5,109.5,311.3,130,319z"/>
				<path id="XMLID_1587_" class="st6" d="M396.8,97.8l73.8,31.1c8.9,3.7,9,16.3,0.2,20.2l-74,32.7V97.8z"/>
				<path id="XMLID_1585_" class="st16" d="M396.8,263.8L396.8,263.8c-4.4,0-7.9-3.5-7.9-7.9V93.7c0-4.4,3.5-7.9,7.9-7.9h0
					c4.4,0,7.9,3.5,7.9,7.9v162.2C404.7,260.2,401.1,263.8,396.8,263.8z"/>
				<path id="XMLID_1584_" class="st20" d="M403.9,215.4c-14.6,0-26.5,11.9-26.5,26.5v20.8v83.2h-29.8v53h29.8h37.2
					c8.7,0,15.8-7.1,15.8-15.8V262.8v-20.8C430.4,227.3,418.5,215.4,403.9,215.4z"/>
				<rect id="XMLID_1583_" x="347.6" y="345.9" class="st21" width="24.7" height="53"/>
				<path id="XMLID_1582_" class="st21" d="M416.2,218.5c-8.4,4.4-14.2,13.3-14.2,23.5v104h-24.7v-104c0-14.6,11.9-26.5,26.5-26.5
					C408.3,215.4,412.5,216.5,416.2,218.5z"/>
				<path id="XMLID_1674_" class="st6" d="M358.7,341.7v58.2c0,7.6-6.4,13.5-13.9,13.1l-18.7-1.2v90.6c-22.3,6.3-45.8,9.7-70.1,9.7
					c-11.3,0-22.4-0.7-33.2-2.1c-17.4-2.2-34.2-6.2-50.3-11.8c-2.7-0.9-5.4-1.9-8-2.9h0l-11.2-4.6c-9-3.9-17.7-8.4-26.1-13.3h0
					c-3-1.7-5.9-3.5-8.8-5.4c-7.9-5-15.5-10.5-22.7-16.3c-10.6-8.6-20.6-18-29.7-28.1c-0.2-0.2-0.4-0.5-0.7-0.7v-52.3
					c0-25.3,20.5-45.8,45.8-45.8h234.6C352.8,328.6,358.7,334.4,358.7,341.7z"/>
				<path id="XMLID_1614_" class="st26" d="M141.3,328.6c-7.4,0-14.4,1.8-20.6,4.9c-14.9,7.5-25.1,23-25.1,40.9v81.2
					c-10.6-8.6-20.6-18-29.7-28.1v-53.1c0-25.3,20.5-45.8,45.8-45.8H141.3z"/>
				<ellipse id="XMLID_1579_" class="st16" cx="195.9" cy="335.4" rx="75.2" ry="37"/>
				<ellipse id="XMLID_1578_" class="st95" cx="195.9" cy="335.4" rx="42.4" ry="20.8"/>
				<path id="XMLID_1577_" class="st20" d="M203.3,347.7h-14.7c-11.8,0-21.4-9.6-21.4-21.4v-35.2c0-11.8,9.6-21.4,21.4-21.4h14.7
					c11.8,0,21.4,9.6,21.4,21.4v35.2C224.6,338.1,215,347.7,203.3,347.7z"/>
				<path id="XMLID_1576_" class="st21" d="M205.9,347.5c-1,0.1-2,0.2-3.1,0.2h-14.7c-11.8,0-21.4-9.6-21.4-21.4v-35.2
					c0-11.8,9.6-21.4,21.4-21.4h14.7c1,0,2.1,0.1,3.1,0.2c-10.3,1.5-18.3,10.4-18.3,21.2v35.2C187.7,337.1,195.6,346,205.9,347.5z"
					/>
				<path id="XMLID_1575_" class="st16" d="M183.5,405.1c-13.9,13.9-33.6,18.2-44.1,19.6c-3.9,0.5-7.1-2.8-6.6-6.6
					c1.4-10.5,5.7-30.2,19.6-44.1c9-9,20.4-14,30.2-16.7c10.8-3.1,20.7,6.9,17.7,17.7C197.4,384.7,192.5,396.1,183.5,405.1z"/>
				<path id="XMLID_1574_" class="st96" d="M149.3,418c-0.2,1.5,0.2,2.8,0.9,4c-5.1,1.4-9.7,2.2-13.2,2.7c-3.9,0.5-7.1-2.8-6.6-6.6
					c1.4-10.5,5.7-30.2,19.6-44.1c9-9,20.4-14,30.2-16.7c4.5-1.3,9-0.2,12.3,2.2c-8,3-16.5,7.6-23.5,14.5
					C155.1,387.8,150.7,407.5,149.3,418z"/>
				<path id="XMLID_1573_" class="st16" d="M209.8,405.1c13.9,13.9,33.6,18.2,44.1,19.6c3.9,0.5,7.1-2.8,6.6-6.6
					c-1.4-10.5-5.7-30.2-19.6-44.1c-9-9-20.4-14-30.2-16.7c-10.8-3.1-20.7,6.9-17.7,17.7C195.9,384.7,200.9,396.1,209.8,405.1z"/>
				<path id="XMLID_1572_" class="st96" d="M257.9,422.6c-1.2,1.5-3.2,2.3-5.3,2c-10.5-1.4-30.2-5.7-44.1-19.6
					c-9-9-14-20.4-16.7-30.2c-3-10.8,6.9-20.7,17.7-17.7c1.6,0.4,3.2,1,4.9,1.5c-5.2,3.2-8.3,9.5-6.4,16.2
					c2.8,9.8,7.8,21.2,16.7,30.2C234.7,415,247.6,420,257.9,422.6z"/>
				<circle id="XMLID_1571_" class="st96" cx="195.9" cy="360.3" r="11.7"/>
				<path id="XMLID_1570_" class="st95" d="M200.9,370.9c-1.5,0.7-3.2,1.1-5,1.1c-6.5,0-11.7-5.2-11.7-11.7s5.2-11.7,11.7-11.7
					c1.8,0,3.5,0.4,5,1.1c-4,1.9-6.8,5.9-6.8,10.6S196.9,369,200.9,370.9z"/>
				<path id="XMLID_1569_" class="st20" d="M304.1,172.2c-0.6-0.1-1.1-0.1-1.7-0.1H300v-1.6c-8.5-5.6-37.4-25.3-51.1-44.3
					c-4.7-6.5-13.6-8.3-20.5-4.4c-21,11.9-62.3,33.6-99.7,44.1v37c0,1.1,0,2.2,0.1,3.3c1.5,49.8,37.9,90.8,85.6,99.3
					c45-8.1,79.9-45,85-90.9h3.1c8,0,14.4-6.5,14.4-14.4v-13.8C316.8,179.2,311.2,173.1,304.1,172.2z"/>
				<path id="XMLID_1568_" class="st21" d="M128.7,206.3c0-1.1-0.1-2.2-0.1-3.3v-37c-13.3,3.7-26,6.1-37.2,6.1h-2
					c-2.6,0-5,0.7-7.1,1.9c-4.4,2.5-7.3,7.2-7.3,12.5v13.8c0,8,6.5,14.4,14.4,14.4H92c0,0,0,0,0,0c1,8.9,3.1,17.5,6.2,25.5
					c0,0.1,0,0.1,0.1,0.2c0.3,0.7,0.5,1.3,0.8,2c0,0.1,0.1,0.2,0.1,0.3c0.3,0.6,0.5,1.3,0.8,1.9c0,0.1,0.1,0.2,0.1,0.3
					c0.3,0.6,0.6,1.2,0.8,1.9c0.1,0.1,0.1,0.2,0.2,0.3c0.3,0.6,0.6,1.2,0.9,1.8c0.1,0.1,0.1,0.2,0.2,0.3c0.3,0.6,0.6,1.2,0.9,1.8
					c0,0.1,0.1,0.2,0.1,0.3c0.3,0.6,0.7,1.2,1,1.8c0,0.1,0.1,0.1,0.1,0.2c2.2,4,4.7,7.8,7.3,11.5c0.1,0.1,0.1,0.2,0.2,0.3
					c0.4,0.5,0.7,1,1.1,1.4c0.1,0.2,0.2,0.3,0.4,0.5c0.3,0.4,0.7,0.9,1,1.3c0.2,0.2,0.3,0.4,0.5,0.6c0.3,0.4,0.7,0.8,1,1.2
					c0.2,0.2,0.4,0.4,0.6,0.7c0.3,0.4,0.7,0.8,1,1.1c0.2,0.2,0.4,0.5,0.6,0.7c0.3,0.4,0.6,0.7,1,1.1c0.2,0.2,0.4,0.5,0.7,0.7
					c0.3,0.3,0.6,0.7,1,1c0.2,0.2,0.5,0.5,0.7,0.7c0.3,0.3,0.6,0.6,1,1c0.3,0.3,0.5,0.5,0.8,0.7c0.3,0.3,0.6,0.6,1,0.9
					c0.3,0.3,0.5,0.5,0.8,0.8c0.3,0.3,0.6,0.6,0.9,0.9c0.3,0.3,0.6,0.5,0.9,0.8c0.3,0.3,0.6,0.5,0.9,0.8c0.3,0.3,0.7,0.6,1,0.9
					c0.3,0.2,0.6,0.5,0.8,0.7c0.5,0.4,1,0.8,1.6,1.3c0.2,0.2,0.4,0.3,0.6,0.4c0.5,0.4,1.1,0.9,1.7,1.3c0.2,0.2,0.4,0.3,0.7,0.5
					c0.4,0.3,0.9,0.6,1.3,1c0.2,0.2,0.5,0.3,0.7,0.5c0.4,0.3,0.8,0.6,1.3,0.9c0.3,0.2,0.5,0.3,0.8,0.5c0.4,0.3,0.8,0.6,1.3,0.8
					c0.3,0.2,0.5,0.3,0.8,0.5c0.4,0.3,0.9,0.5,1.3,0.8c0.3,0.2,0.5,0.3,0.8,0.5c0.4,0.3,0.9,0.5,1.3,0.8c0.3,0.2,0.5,0.3,0.8,0.5
					c0.4,0.3,0.9,0.5,1.3,0.8c0.3,0.1,0.5,0.3,0.8,0.4c0.5,0.2,0.9,0.5,1.4,0.7c0.3,0.1,0.5,0.3,0.8,0.4c0.5,0.2,1,0.5,1.5,0.7
					c0.2,0.1,0.5,0.2,0.7,0.4c0.5,0.2,1,0.5,1.6,0.7c0.2,0.1,0.4,0.2,0.7,0.3c0.6,0.3,1.1,0.5,1.7,0.7c0.2,0.1,0.4,0.2,0.5,0.2
					c0.7,0.3,1.3,0.6,2,0.8c0.1,0,0.2,0.1,0.3,0.1c2.3,0.9,4.7,1.8,7.2,2.5c0.1,0,0.1,0,0.2,0.1c0.7,0.2,1.5,0.4,2.2,0.7
					c0.2,0,0.3,0.1,0.5,0.1c0.6,0.2,1.3,0.4,1.9,0.5c0.2,0.1,0.4,0.1,0.6,0.2c0.6,0.2,1.2,0.3,1.8,0.4c0.2,0.1,0.5,0.1,0.7,0.2
					c0.6,0.1,1.2,0.3,1.8,0.4c0.2,0,0.5,0.1,0.7,0.1c0.6,0.1,1.2,0.2,1.8,0.3c0.2,0,0.5,0.1,0.7,0.1c0.6,0.1,1.2,0.2,1.8,0.3
					c0.2,0,0.5,0.1,0.7,0.1c0.6,0.1,1.2,0.2,1.8,0.3c0.2,0,0.5,0.1,0.7,0.1c0.6,0.1,1.3,0.1,1.9,0.2c0.2,0,0.4,0,0.7,0.1
					c0.7,0.1,1.3,0.1,2,0.2c0.2,0,0.4,0,0.6,0c0.7,0.1,1.5,0.1,2.2,0.1c0.1,0,0.2,0,0.3,0c1.8,0.1,3.5,0.1,5.3,0.1h0
					c0.1,0,0.2,0,0.2,0c1.4,0,2.8,0,4.1-0.1c0.2,0,0.4,0,0.5,0c1.4-0.1,2.7-0.2,4.1-0.3c0.2,0,0.4,0,0.6-0.1c1.3-0.1,2.7-0.3,4-0.5
					c0.2,0,0.4-0.1,0.6-0.1c1.3-0.2,2.7-0.4,4-0.6c0.1,0,0.2,0,0.3-0.1C166.6,297.1,130.2,256.1,128.7,206.3z"/>
				<path id="XMLID_1566_" class="st23" d="M283.9,78.3c-16.1-22.3-40.7-38-69-42.6c-5.6-0.9-11.3-1.4-17.1-1.4h-9.2
					c-0.8,0-1.7,0-2.5,0c-57.2,1.4-103.1,48-103.6,105.4c0,0,0,0.1,0,0.1c0,0.3,0,0.6,0,0.9V174c2.1-1.2,4.5-1.9,7.1-1.9h1.7
					c0.7,0,1.4,0,2.1,0c10.8-0.2,22.8-2.5,35.4-6c37.4-10.6,78.7-32.2,99.7-44.1c7-3.9,15.8-2.1,20.5,4.4
					c13.7,18.9,42.6,38.7,51.1,44.3c1.5,1,2.4,1.5,2.4,1.5c0.6,0,1.2,0,1.7,0.1v-31.5C304.1,117.4,296.6,95.8,283.9,78.3z"/>
				<path id="XMLID_1564_" class="st24" d="M215,35.8c-5.6-0.9-11.4-1.4-17.3-1.5h-9.2c-0.8,0-1.7,0-2.5,0
					C128.7,35.6,82.6,82.2,82.1,139.7v0.1c0,0.3,0,0.6,0,0.9V174c0.1,0,0.1-0.1,0.2-0.1c2-1.1,4.4-1.8,6.9-1.8h2c0.7,0,1.4,0,2.1,0
					c10.7-0.3,22.7-2.5,35.1-6c1.9-0.5,3.8-1.1,5.7-1.7v-23.6c0-0.3,0-0.6,0-0.9v-0.1c0.5-50.5,36.1-92.6,83.5-102.9
					c0.5-0.1,0.9-0.2,1.4-0.3C217.7,36.2,216.3,36,215,35.8z"/>
				<circle id="XMLID_1563_" class="st23" cx="144.6" cy="186.4" r="14.3"/>
				<circle id="XMLID_1562_" class="st16" cx="148.3" cy="181.8" r="6.3"/>
				<circle id="XMLID_1561_" class="st23" cx="245" cy="186.4" r="14.3"/>
				<circle id="XMLID_1560_" class="st16" cx="248.6" cy="181.8" r="6.3"/>
				<path id="XMLID_1559_" class="st21" d="M202,219.3h-12.9c-4.3,0-7.7-3.4-7.7-7.7v0c0-4.3,3.4-7.7,7.7-7.7H202
					c4.3,0,7.7,3.4,7.7,7.7v0C209.7,215.8,206.3,219.3,202,219.3z"/>
				<path id="XMLID_1558_" class="st36" d="M223.8,236.9c1.5,0,2.7,1.2,2.7,2.7l0,0c0,2.8-0.4,5.5-1.1,8.1c-1.6,6-5,11.3-9.6,15.3
					c-5.4,4.7-12.6,7.6-20.3,7.6s-14.9-2.9-20.3-7.6c-4.6-4-8-9.3-9.6-15.3c-0.7-2.6-1.1-5.3-1.1-8.1l0,0c0-1.5,1.2-2.7,2.7-2.7
					H223.8z"/>
				<path id="XMLID_1557_" class="st26" d="M215.9,263c-5.4,4.7-12.6,7.6-20.3,7.6s-14.9-2.9-20.3-7.6c5.4-4.8,12.6-7.6,20.3-7.6
					S210.5,258.3,215.9,263z"/>
				<path id="XMLID_1556_" class="st16" d="M223.8,236.9c1.5,0,2.7,1.2,2.7,2.7l0,0c0,2.8-0.4,5.5-1.1,8.1h-59.8
					c-0.7-2.6-1.1-5.3-1.1-8.1l0,0c0-1.5,1.2-2.7,2.7-2.7H223.8z"/>
			</g>
		</g>
		<path id="XMLID_1640_" class="st97" d="M249.8,57.6c8.8,4.4,21.2,13.1,28.3,29.5c1.6,3.6-2.2,7.3-5.7,5.6l0,0
			c-2.3-1.1-4.7,1.3-3.7,3.6c1.5,3.4,3.3,7.7,4.9,12.1c1.6,4.5-4.2,7.8-7.3,4.2c-8.2-9.6-20.4-20.8-33.1-22.4
			c-1.4-0.2-2.2-1.8-1.4-3c1.8-2.9,5.4-7.3,11.1-8.9c5.1-1.4,8.4-6.5,7.3-11.6c-0.4-2-1.3-4.1-2.8-6.3
			C246.2,58.9,248,56.7,249.8,57.6z"/>
	</g>
</g>
</svg>
