<?xml version="1.0" encoding="utf-8"?>
<!-- Generator: Adobe Illustrator 22.0.1, SVG Export Plug-In . SVG Version: 6.00 Build 0)  -->
<svg version="1.1" xmlns="http://www.w3.org/2000/svg" xmlns:xlink="http://www.w3.org/1999/xlink" x="0px" y="0px"
	 viewBox="0 0 512 512" style="enable-background:new 0 0 512 512;" xml:space="preserve">
<style type="text/css">
	.st0{fill:#E9B12D;}
	.st1{fill:#A9E7D8;}
	.st2{fill:#76CFB1;}
	.st3{fill:#AE6B5D;}
	.st4{fill:#7770D3;}
	.st5{fill:#5BA0F5;}
	.st6{fill:#DA4545;}
	.st7{fill:#89CCFC;}
	.st8{fill:#CD462A;}
	.st9{fill:#514896;}
	.st10{fill:#5493A0;}
	.st11{fill:#CC6B5C;}
	.st12{fill:#62AA8D;}
	.st13{fill:#8ABAAB;}
	.st14{fill:#C3791F;}
	.st15{fill:#E39123;}
	.st16{fill:#FFFFFF;}
	.st17{fill:none;stroke:#FFFFFF;stroke-width:10;stroke-linecap:round;stroke-miterlimit:10;}
	.st18{fill:none;stroke:#5F55AB;stroke-width:10;stroke-linecap:round;stroke-miterlimit:10;}
	.st19{fill:#A9671C;}
	.st20{fill:#D5B3A7;}
	.st21{fill:#C09A8F;}
	.st22{fill:#487F87;}
	.st23{fill:#1B305C;}
	.st24{fill:#172945;}
	.st25{fill:none;}
	.st26{fill:#B62A2A;}
	.st27{fill:#325859;}
	.st28{fill:#3F6E71;}
	.st29{fill:#284646;}
	.st30{fill:#8F2727;}
	.st31{fill:#29477C;}
	.st32{fill:#5B9BEE;}
	.st33{fill:#487FDE;}
	.st34{fill:#CD9829;}
	.st35{fill:#9F2A2A;}
	.st36{fill:#4C3328;}
	.st37{fill:#E8B94A;}
	.st38{fill:#DDF8F1;}
	.st39{fill:#3E2A22;}
	.st40{fill:#D3A971;}
	.st41{fill:#C79A5B;}
	.st42{fill:#233E76;}
	.st43{fill:#21395F;}
	.st44{fill:#487D82;}
	.st45{fill:none;stroke:#C79A5B;stroke-width:10;stroke-linecap:round;stroke-miterlimit:10;}
	.st46{fill:#5E3E31;}
	.st47{fill:#AC3939;}
	.st48{fill:#CA9628;}
	.st49{fill:#AF8F88;}
	.st50{fill:#815048;}
	.st51{fill:#6F4232;}
	.st52{fill:#5F55AB;}
	.st53{fill:#192A48;}
	.st54{fill:#152336;}
	.st55{fill:#192B49;}
	.st56{fill:#264173;}
	.st57{fill:#B06F1E;}
	.st58{fill:#4E88C0;}
	.st59{fill:#83C3F1;}
	.st60{fill:#CF9929;}
	.st61{fill:none;stroke:#FFFFFF;stroke-width:10;stroke-linecap:round;stroke-linejoin:round;stroke-miterlimit:10;}
	.st62{fill:#EAC262;}
	.st63{fill:#D6D5D4;}
	.st64{fill:#6BBA9B;}
	.st65{fill:#63AA8F;}
	.st66{fill:none;stroke:#3E2A22;stroke-width:10;stroke-linecap:round;stroke-miterlimit:10;}
	.st67{fill:#CA7D1F;}
	.st68{fill:#213B64;}
	.st69{fill:#CDF8EC;}
	.st70{fill:#C59125;}
	.st71{fill:none;stroke:#C09A8F;stroke-width:10;stroke-linecap:round;stroke-miterlimit:10;}
	.st72{fill:#32579B;}
	.st73{fill:#172843;}
	.st74{fill:#D66767;}
	.st75{fill:#A74949;}
	.st76{fill:#EBC76F;}
	.st77{fill:#7A4940;}
	.st78{fill:#182A48;}
	.st79{fill:none;stroke:#A0794A;stroke-width:10;stroke-linecap:round;stroke-miterlimit:10;}
	.st80{fill:#C37A20;}
	.st81{fill:#D26D5C;}
	.st82{fill:#A45752;}
	.st83{fill:#284579;}
	.st84{fill:#88C7F4;}
	.st85{fill:#6EB6F0;}
	.st86{fill:#32221E;}
	.st87{fill:#E7A6A6;}
	.st88{fill:#C59191;}
	.st89{fill:#AA3B3B;}
	.st90{fill:#B83E3E;}
	.st91{fill:none;stroke:#5F55A9;stroke-width:10;stroke-linecap:round;stroke-miterlimit:10;}
	.st92{fill:#963838;}
	.st93{fill:#402B25;}
	.st94{fill:#6B6ABA;}
	.st95{fill:#BABABA;}
	.st96{fill:#D1D1D1;}
	.st97{fill:#264377;}
	.st98{fill:#A19BF5;}
	.st99{fill:#3C2A21;}
	.st100{fill:none;stroke:#4C3328;stroke-width:10;stroke-linecap:round;stroke-miterlimit:10;}
	.st101{fill:#C1781F;}
	.st102{fill:#E3A147;}
	.st103{fill:#F2D2A1;}
	.st104{fill:#4F372D;}
	.st105{fill:none;stroke:#DA4545;stroke-width:10;stroke-linecap:round;stroke-miterlimit:10;}
	.st106{fill:#AA3928;}
	.st107{fill:#8C2C22;}
	.st108{fill:#BF4336;}
	.st109{fill:#5797D4;}
	.st110{fill:#CFCFCF;}
	.st111{fill:#613A2E;}
	.st112{fill:none;stroke:#B18653;stroke-width:10;stroke-linecap:round;stroke-miterlimit:10;}
	.st113{fill:#B13B3B;}
	.st114{fill:#16263A;}
	.st115{fill:none;stroke:#16263A;stroke-width:10;stroke-miterlimit:10;}
	.st116{fill:#C87D20;}
	.st117{fill:#E4F0FD;}
	.st118{fill:#AA3737;}
	.st119{fill:#BF771F;}
	.st120{fill:none;stroke:#CD462A;stroke-width:10;stroke-linejoin:round;stroke-miterlimit:10;}
	.st121{fill:#5696D2;}
	.st122{fill:#C0771E;}
	.st123{fill:#9B5F1B;}
	.st124{fill:#A83A29;}
	.st125{fill:#E7A74F;}
	.st126{fill:#C9924C;}
	.st127{fill:#C58E48;}
	.st128{fill:#BE8844;}
	.st129{fill:#916939;}
	.st130{fill:#264275;}
	.st131{fill:#253F65;}
	.st132{fill:#182A45;}
	.st133{fill:#162336;}
	.st134{fill:#93C7B7;}
	.st135{fill:#E6A4A4;}
	.st136{fill:#B06B1D;}
	.st137{fill:#484185;}
	.st138{fill:#DB6E6E;}
	.st139{fill:#6BBA9A;}
	.st140{fill:#CACCCC;}
	.st141{fill:#D4D4D4;}
	.st142{fill:#A98881;}
	.st143{fill:#213A62;}
	.st144{fill:#A2837D;}
	.st145{fill:#6FB8F4;}
	.st146{fill:#9B9E9E;}
	.st147{fill:#B2B3B3;}
	.st148{fill:#20385D;}
	.st149{fill:#335AA8;}
	.st150{fill:#BCE7FD;}
	.st151{fill:#3B2921;}
	.st152{fill:#AD3C3C;}
	.st153{fill:#9D3838;}
	.st154{fill:#603F33;}
	.st155{fill:#4D868B;}
	.st156{fill:#A2DDFD;}
	.st157{fill:#ECB6B6;}
	.st158{fill:#E8A346;}
	.st159{fill:#514C94;}
	.st160{fill:#D2F1E8;}
	.st161{fill:#BDD6CE;}
	.st162{fill:#B93B29;}
	.st163{fill:#E0AD70;}
	.st164{fill:#C57C21;}
	.st165{fill:#EDA34A;}
	.st166{fill:#2F538F;}
	.st167{fill:#2B4B78;}
	.st168{fill:#65AF91;}
	.st169{fill:#A7CEFC;}
	.st170{fill:#98BDE2;}
	.st171{fill:#CFE5F7;}
	.st172{fill:#5492CD;}
	.st173{fill:#97CCBC;}
	.st174{fill:#5491CA;}
	.st175{fill:#EDC563;}
	.st176{fill:#423C79;}
	.st177{fill:#D3B1A5;}
	.st178{fill:#BE988D;}
	.st179{fill:#A7E5D6;}
	.st180{fill:#F2FFF9;}
	.st181{fill:#D64545;}
	.st182{fill:#A73B3B;}
	.st183{fill:#15233A;}
	.st184{fill:none;stroke:#BE988D;stroke-width:10;stroke-linecap:round;stroke-miterlimit:10;}
	.st185{fill:#AF3A29;}
	.st186{fill:#FAF9FF;}
	.st187{fill:#CACACC;}
	.st188{fill:#372720;}
	.st189{fill:#3F2C26;}
	.st190{fill:#2D201C;}
	.st191{fill:#3D6D6F;}
	.st192{fill:#5B54A8;}
	.st193{fill:#325799;}
	.st194{fill:#E8C26E;}
	.st195{fill:#254784;}
	.st196{fill:#5696D4;}
	.st197{fill:#4F8AB6;}
	.st198{fill:#5FA4AC;}
	.st199{fill:#AA3524;}
	.st200{fill:#D15F4D;}
	.st201{fill:#2B294C;}
	.st202{fill:#A43A2A;}
	.st203{fill:#E7AE2D;}
	.st204{fill:#CD9729;}
	.st205{fill:none;stroke:#AA8253;stroke-width:10;stroke-linecap:round;stroke-miterlimit:10;}
	.st206{fill:none;stroke:#E18F23;stroke-width:10;stroke-linecap:round;stroke-linejoin:round;stroke-miterlimit:10;}
	.st207{fill:#CF9828;}
	.st208{fill:#B88926;}
	.st209{fill:#A17623;}
	.st210{fill:#96CCBC;}
	.st211{fill:#CF9A2A;}
	.st212{fill:#C57B20;}
	.st213{fill:#C7F1E6;}
	.st214{fill:#DC6363;}
	.st215{fill:#E89F9F;}
	.st216{fill:#C88C8C;}
	.st217{fill:#C16E6E;}
	.st218{fill:#A46060;}
	.st219{fill:#AA3626;}
	.st220{fill:#87EDC4;}
	.st221{fill:#D86552;}
	.st222{fill:#BC7620;}
	.st223{fill:#BA741E;}
	.st224{fill:#8F8CE3;}
	.st225{fill:#3A2820;}
	.st226{fill:#AC7060;}
	.st227{fill:#915F55;}
	.st228{fill:#49332A;}
	.st229{fill:#2D1F1B;}
	.st230{fill:#69B7BE;}
	.st231{fill:#D6D6D6;}
	.st232{fill:#B8B8B8;}
	.st233{fill:#CACACA;}
	.st234{fill:#467B80;}
	.st235{fill:#C2EDE2;}
	.st236{fill:#A9574F;}
	.st237{fill:#5595D2;}
	.st238{fill:#955949;}
	.st239{fill:#7E4B42;}
	.st240{fill:#89CCF1;}
	.st241{fill:#DD584A;}
	.st242{fill:#C18F26;}
	.st243{fill:#B33C2A;}
	.st244{fill:#D1A771;}
	.st245{fill:#B42A2A;}
	.st246{fill:#325797;}
	.st247{fill:#9F3529;}
	.st248{fill:#EDCE80;}
	.st249{fill:#F0DBAC;}
	.st250{fill:#CFB478;}
	.st251{fill:#D4C29B;}
	.st252{fill:#993939;}
	.st253{fill:#D1AFA3;}
	.st254{fill:#BC968B;}
	.st255{fill:none;stroke:#BC968B;stroke-width:10;stroke-linecap:round;stroke-miterlimit:10;}
	.st256{fill:#814C3C;}
	.st257{fill:#C0EBE0;}
	.st258{fill:#A5E3D4;}
	.st259{fill:#15243C;}
	.st260{fill:#443E79;}
	.st261{fill:#F0FFF7;}
	.st262{fill:#9A764B;}
	.st263{fill:#826443;}
	.st264{fill:#D9AA74;}
	.st265{fill:#5DA186;}
	.st266{fill:#68B596;}
	.st267{fill:#E5C6BE;}
	.st268{fill:#D3B6B1;}
	.st269{fill:none;stroke:#BAA09C;stroke-width:10;stroke-linecap:round;stroke-miterlimit:10;}
	.st270{fill:#F4D78F;}
	.st271{fill:#20385F;}
	.st272{fill:#BA8727;}
	.st273{fill:#5A9C82;}
	.st274{fill:none;stroke:#E39123;stroke-width:10;stroke-linecap:round;stroke-linejoin:round;stroke-miterlimit:10;}
	.st275{fill:#60392D;}
	.st276{fill:#CCCCCC;}
	.st277{fill:#844F3E;}
	.st278{fill:#F3FFFB;}
	.st279{fill:#365E60;}
	.st280{fill:#D84545;}
	.st281{fill:#A83B3B;}
	.st282{fill:#253F70;}
	.st283{fill:#EAADAD;}
	.st284{fill:#443E7C;}
	.st285{fill:#3D6B9F;}
	.st286{fill:#4274BC;}
	.st287{fill:#AF3827;}
	.st288{fill:#E59D9D;}
	.st289{fill:#C48989;}
	.st290{fill:none;stroke:#9B621A;stroke-width:10;stroke-linecap:round;stroke-linejoin:round;stroke-miterlimit:10;}
	.st291{fill:#213A5E;}
	.st292{fill:#2D507A;}
	.st293{fill:#528EC8;}
	.st294{fill:#EFD696;}
	.st295{fill:#D1BA87;}
	.st296{fill:#FDFCFC;}
	.st297{fill:#86CBFC;}
	.st298{fill:#7AB7DA;}
	.st299{fill:#192C4C;}
	.st300{fill:#BCBCBC;}
	.st301{fill:#A13838;}
	.st302{fill:#75BDF6;}
	.st303{fill:#D0B1AA;}
	.st304{fill:#142233;}
	.st305{fill:#E6C4BB;}
	.st306{fill:#BDBDBD;}
	.st307{fill:#E8A192;}
	.st308{fill:#A43939;}
	.st309{fill:#162640;}
	.st310{fill:#27457C;}
	.st311{fill:#EFBE5E;}
	.st312{fill:#87EDC5;}
	.st313{fill:#A03838;}
	.st314{fill:#833232;}
	.st315{fill:#47417F;}
	.st316{fill:none;stroke:#915F55;stroke-width:10;stroke-linecap:round;stroke-miterlimit:10;}
	.st317{fill:#BC8B25;}
	.st318{fill:#473129;}
	.st319{fill:#67B394;}
	.st320{fill:#599A80;}
	.st321{fill:#B13D3D;}
</style>
<g id="BULINE">
	<circle id="XMLID_1519_" class="st7" cx="256" cy="256" r="256"/>
	<g>
	</g>
</g>
<g id="Icons">
	<g id="XMLID_1526_">
		<path id="XMLID_2239_" class="st5" d="M508.6,297.6c-4.3,26.2-12.5,51.1-24.1,74c-10.8,21.4-24.6,41.1-40.8,58.5l-2.2,2.4
			c-11.9,12.5-25,23.7-39.1,33.6c-9.7,6.8-20,12.9-30.6,18.3c-3.8,1.9-7.6,3.7-11.4,5.4c-19.9-0.6-38.3-6.1-53-15.3
			c-16.4-10.3-28-25.4-31.8-43.6c-2.3-10.9-1.5-22,1.9-32.5c3.5-10.8,9.6-21,18-30.2c8.4-9.1,18.9-17.1,31.1-23.4
			c0.8-4.1,2-8.2,3.5-12.2c2.6-6.8,6.4-13.3,11-19.5c-4.8-4.7-8.1-10.4-9.5-17c-3.4-16.3,6.4-33,23.4-42.8
			c5.8-3.4,12.4-5.9,19.5-7.4c6.3-1.3,12.4-1.7,18.3-1.2c3.1,0.2,6.1,0.7,9,1.4c14.2,3.3,25.6,11.7,30.3,23.2
			C463.3,268.4,491.5,279.1,508.6,297.6z"/>
		<path id="XMLID_2146_" class="st15" d="M413.9,137.4c0,39.6-89.3,71.7-199.4,71.7S15.1,177.1,15.1,137.4c0-6.4,2.3-12.6,6.7-18.5
			c8.1-11,23.3-20.9,43.6-29.2c5.6-2.3,11.7-4.4,18-6.4c35-11,80.9-17.7,131.1-17.7c59.3,0,112.6,9.3,149.1,24.1
			C394.9,102.4,413.9,119.1,413.9,137.4z"/>
		<path id="XMLID_2145_" class="st80" d="M255.9,207.6c-13.4,1-27.2,1.6-41.4,1.6c-110.1,0-199.4-32.1-199.4-71.7
			c0-6.4,2.3-12.6,6.7-18.5c8.1-11,23.3-20.9,43.6-29.2c5.6-2.3,11.7-4.4,18-6.4c35-11,80.9-17.7,131.1-17.7
			c14.2,0,28.1,0.5,41.4,1.6c-33.8,2.6-64.5,8.2-89.6,16.1c-6.4,2-12.4,4.2-18,6.4c-20.4,8.2-35.5,18.2-43.6,29.2
			c-4.4,5.9-6.7,12.1-6.7,18.5C98,171.9,165.7,200.8,255.9,207.6z"/>
		<path id="XMLID_2210_" class="st5" d="M228.4,419.1c-0.2,1.1-0.4,2.3-0.7,3.4c-5.8,23.7-25,41.5-50.4,50.1c-14.9,5-32,6.9-49.7,5
			c-1.5-0.8-2.9-1.7-4.3-2.6c-4.1-2.5-8.1-5.1-12.1-7.8c-10.7-7.3-20.7-15.4-30.1-24.2c-0.1-0.1-0.2-0.1-0.2-0.2
			c-3.6-3.3-7-6.8-10.4-10.3c-0.7-0.8-1.5-1.6-2.2-2.4c-8.4-9-16.1-18.7-23.2-28.9c0,0-0.1-0.1-0.1-0.1C20.7,365.7,5,324,1,278.9
			c7-2.8,14.6-4.9,22.6-6.2c6.9-12.7,21.2-23.1,39.1-26.8c4.3-0.9,8.6-1.3,12.8-1.4h0c23.1-0.2,42.7,11.9,46.5,30.4
			c1.5,7.5,0.3,15.1-3.1,22.1c7,5.4,13,11.4,18.1,17.9c1.5,1.9,2.9,3.9,4.2,5.9c0.7,0.1,1.3,0.2,2,0.4c1.7,0.3,3.3,0.7,5,1.1
			c0.4,0.1,0.9,0.2,1.3,0.3c0.6,0.2,1.2,0.3,1.8,0.5c3.9,1.1,7.7,2.3,11.3,3.7c36.3,13.5,61.7,41.6,66.1,71.7
			C229.8,405.3,229.7,412.2,228.4,419.1z"/>
		<path id="XMLID_4062_" class="st23" d="M358.9,318.8L347.7,132c-2.3-37.9-31.4-68-68.2-72.5c-13.2-10.1-28.7-17.1-45.7-20.2
			c0,0,0,0,0,0c0,0,0,0,0,0c-1.4-0.2-2.8-0.5-4.2-0.7c-0.2,0-0.5-0.1-0.7-0.1c-1.3-0.2-2.7-0.3-4-0.5c-0.3,0-0.6-0.1-0.9-0.1
			c-1.3-0.1-2.7-0.2-4-0.3c-0.3,0-0.6,0-0.8,0c-1.3-0.1-2.7-0.1-4.1-0.1c-0.1,0-0.2,0-0.2,0c-24.4,0-46.9,8.2-64.8,22
			c-36.5,4.7-65.4,34.8-67.6,72.5L71.1,318.8c-2.6,43.2,31.7,79.6,75,79.6h137.9C327.2,398.4,361.5,362,358.9,318.8z"/>
		<path id="XMLID_2140_" class="st20" d="M222.3,342.2h-15.1c-12.1,0-21.8-9.8-21.8-21.8v-36c0-12.1,9.8-21.8,21.8-21.8h15.1
			c12.1,0,21.8,9.8,21.8,21.8v36C244.1,332.4,234.3,342.2,222.3,342.2z"/>
		<path id="XMLID_2139_" class="st21" d="M225,342c-1,0.2-2.1,0.2-3.2,0.2h-15.1c-12.1,0-21.9-9.8-21.9-21.9v-36
			c0-12.1,9.8-21.9,21.9-21.9h15.1c1.1,0,2.1,0.1,3.2,0.2c-10.6,1.5-18.7,10.6-18.7,21.6v36C206.3,331.3,214.5,340.4,225,342z"/>
		<path id="XMLID_2143_" class="st78" d="M218.3,398.4h-72.3c-43.3,0-77.6-36.5-75-79.7L82.3,132c2.3-37.7,31.1-67.8,67.6-72.5
			c-12.8,9.8-23.3,22.5-30.6,37.1c13.1-1.1,32.2-2.3,46.9-1.1c-6.7,10.7-10.9,23.1-11.7,36.5l-0.9,15.6
			c-11.2,7.9-26.1,13.5-45.5,13.3h-2c-8.1,0-14.7,6.6-14.7,14.7v14.1c0,8.1,6.6,14.7,14.7,14.7h2.7v0c1,9.1,3.2,17.9,6.4,26.1
			c0,0.1,0,0.1,0.1,0.2c0.3,0.7,0.5,1.4,0.8,2c0,0.1,0.1,0.2,0.1,0.3c0.3,0.7,0.6,1.3,0.8,2c0,0.1,0.1,0.2,0.1,0.3
			c0.3,0.6,0.6,1.3,0.9,1.9c0.1,0.1,0.1,0.2,0.2,0.3c0.3,0.6,0.6,1.2,0.9,1.9c0.1,0.1,0.1,0.2,0.2,0.3c0.3,0.6,0.6,1.2,0.9,1.9
			c0.1,0.1,0.1,0.2,0.1,0.3c0.3,0.6,0.7,1.3,1,1.9c0,0.1,0.1,0.1,0.1,0.2c2.2,4.1,4.8,8,7.5,11.7c0.1,0.1,0.1,0.2,0.2,0.3
			c0.4,0.5,0.7,1,1.1,1.5c0.1,0.2,0.3,0.3,0.4,0.5c0.3,0.4,0.7,0.9,1.1,1.3c0.2,0.2,0.3,0.4,0.5,0.6c0.3,0.4,0.7,0.8,1,1.2
			c0.2,0.2,0.4,0.4,0.6,0.7c0.3,0.4,0.7,0.8,1,1.2c0.2,0.2,0.4,0.5,0.6,0.7c0.3,0.4,0.7,0.7,1,1.1c0.2,0.2,0.4,0.5,0.7,0.7
			c0.3,0.3,0.7,0.7,1,1c0.2,0.3,0.5,0.5,0.7,0.8c0.3,0.3,0.7,0.7,1,1c0.3,0.3,0.5,0.5,0.8,0.8c0.3,0.3,0.6,0.6,1,0.9
			c0.3,0.3,0.6,0.5,0.8,0.8c0.3,0.3,0.6,0.6,1,0.9c0.3,0.3,0.6,0.5,0.9,0.8c0.3,0.3,0.6,0.6,0.9,0.8c0.3,0.3,0.6,0.5,0.9,0.8
			l-2.7,44.7C140.7,362,175,398.4,218.3,398.4z"/>
		<path id="XMLID_2242_" class="st20" d="M439.3,374l-5.8,14.5L402.4,466c-9.7,6.8-20,12.9-30.6,18.3c-3.8,1.9-7.6,3.7-11.4,5.4
			c-16.8,7.5-34.5,13.3-53,17c-16.6,3.4-33.8,5.2-51.4,5.2c-27.4,0-53.9-4.3-78.7-12.3c-12.8-4.1-25.2-9.3-37.1-15.3
			c-4.3-2.2-8.5-4.4-12.6-6.8c-1.5-0.8-2.9-1.7-4.3-2.6c-4.1-2.5-8.1-5.1-12.1-7.8c-10.7-7.3-20.7-15.4-30.1-24.2v-73.5
			c0-2.5,0.2-4.9,0.6-7.3v0c3.5-22,22.2-38.9,45-39.4c0.3,0,0.6,0,1,0h173.5c10.9,0,21,3.8,29,10c9.4,7.4,15.8,18.2,17.4,30.7
			c0.3,2,0.4,4,0.4,6.1v81.9l23.4-58.2v0l5.5-13.7v0l9.7-24.1l0.8-2.1l3.4,1.4h0l7.1,2.9h0l17.7,7.1l5.9,2.4l1.7,0.7L439.3,374z"/>
		<path id="XMLID_2185_" class="st21" d="M158.1,322.6c-2.3,0-4.5,0.2-6.7,0.5c-2.8,0.4-5.5,1.1-8.1,1.9c-3.2,1.1-6.3,2.5-9.1,4.2
			c-13.7,8.2-22.8,23.1-22.8,40.2v97.7c-10.7-7.3-20.7-15.4-30.1-24.2c-0.1-0.1-0.2-0.1-0.2-0.2v-73.3c0-2.6,0.2-5.2,0.6-7.7
			c3.6-21.9,22.4-38.7,45.2-39.1c0.3,0,0.6,0,1,0H158.1z"/>
		<path id="XMLID_2137_" class="st156" d="M495.9,186.3c0-10.5-8.5-19-19-19c-1.8,0-3.5,0.3-5.1,0.7c-3.2-10.7-13.1-18.5-24.9-18.5
			c-11.8,0-21.7,7.9-24.9,18.6c-1.8-0.6-3.7-0.9-5.7-0.9c-10.5,0-19,8.5-19,19c0,10.5,8.5,19,19,19h65.2v-0.6
			C489.8,202.7,495.9,195.2,495.9,186.3z"/>
		<path id="XMLID_2115_" class="st20" d="M323.9,160.9h-2.5v-16.6c0-34.6-16.5-65.3-41.9-84.8c-13.2-10.1-28.7-17.1-45.7-20.2
			c0,0,0,0,0,0c0,0,0,0,0,0c-1.4-0.2-2.8-0.5-4.2-0.7c-0.2,0-0.5-0.1-0.7-0.1c-1.3-0.2-2.7-0.3-4-0.5c-0.3,0-0.6-0.1-0.9-0.1
			c-1.3-0.1-2.7-0.2-4-0.3c-0.3,0-0.6,0-0.8,0c-1.3-0.1-2.7-0.1-4.1-0.1c-0.1,0-0.2,0-0.2,0c-24.4,0-46.9,8.2-64.8,22
			c-12.8,9.8-23.3,22.5-30.6,37.1c21.1-1.8,57.9-3.7,66.6,4.2c0,0-14.8,60.8-77.9,60.1h-2c-8.1,0-14.7,6.6-14.7,14.7v14.1
			c0,8.1,6.6,14.7,14.7,14.7h2.7c0,0,0,0,0,0c1,9.1,3.2,17.9,6.4,26.1c0,0.1,0,0.1,0.1,0.2c0.3,0.7,0.5,1.4,0.8,2
			c0,0.1,0.1,0.2,0.1,0.3c0.3,0.7,0.5,1.3,0.8,2c0,0.1,0.1,0.2,0.1,0.3c0.3,0.6,0.6,1.3,0.9,1.9c0.1,0.1,0.1,0.2,0.2,0.3
			c0.3,0.6,0.6,1.2,0.9,1.9c0.1,0.1,0.1,0.2,0.2,0.3c0.3,0.6,0.6,1.2,0.9,1.9c0,0.1,0.1,0.2,0.1,0.3c0.3,0.6,0.7,1.3,1,1.9
			c0,0.1,0.1,0.1,0.1,0.2c2.3,4.1,4.8,8,7.5,11.7c0.1,0.1,0.1,0.2,0.2,0.3c0.4,0.5,0.7,1,1.1,1.5c0.1,0.2,0.3,0.3,0.4,0.5
			c0.3,0.4,0.7,0.9,1.1,1.3c0.2,0.2,0.3,0.4,0.5,0.6c0.3,0.4,0.7,0.8,1,1.2c0.2,0.2,0.4,0.5,0.6,0.7c0.3,0.4,0.7,0.8,1,1.2
			c0.2,0.2,0.4,0.5,0.6,0.7c0.3,0.4,0.7,0.7,1,1.1c0.2,0.2,0.5,0.5,0.7,0.7c0.3,0.3,0.7,0.7,1,1c0.2,0.3,0.5,0.5,0.7,0.8
			c0.3,0.3,0.7,0.7,1,1c0.3,0.3,0.5,0.5,0.8,0.8c0.3,0.3,0.6,0.6,1,0.9c0.3,0.3,0.6,0.5,0.8,0.8c0.3,0.3,0.6,0.6,1,0.9
			c0.3,0.3,0.6,0.5,0.9,0.8c0.3,0.3,0.6,0.6,0.9,0.8c0.3,0.3,0.7,0.6,1,0.9c0.3,0.2,0.6,0.5,0.9,0.7c0.5,0.4,1.1,0.9,1.6,1.3
			c0.2,0.2,0.4,0.3,0.6,0.5c0.6,0.4,1.1,0.9,1.7,1.3c0.2,0.2,0.5,0.3,0.7,0.5c0.4,0.3,0.9,0.7,1.3,1c0.2,0.2,0.5,0.3,0.8,0.5
			c0.4,0.3,0.9,0.6,1.3,0.9c0.3,0.2,0.5,0.4,0.8,0.5c0.4,0.3,0.9,0.6,1.3,0.8c0.3,0.2,0.5,0.3,0.8,0.5c0.4,0.3,0.9,0.5,1.3,0.8
			c0.3,0.2,0.5,0.3,0.8,0.5c0.4,0.3,0.9,0.5,1.3,0.8c0.3,0.2,0.5,0.3,0.8,0.5c0.5,0.3,0.9,0.5,1.4,0.8c0.3,0.1,0.5,0.3,0.8,0.4
			c0.5,0.3,1,0.5,1.4,0.8c0.3,0.1,0.5,0.3,0.8,0.4c0.5,0.3,1,0.5,1.5,0.7c0.2,0.1,0.5,0.2,0.7,0.4c0.5,0.3,1.1,0.5,1.6,0.7
			c0.2,0.1,0.5,0.2,0.7,0.3c0.6,0.3,1.2,0.5,1.8,0.8c0.2,0.1,0.4,0.2,0.6,0.2c0.7,0.3,1.4,0.6,2.1,0.8c0.1,0,0.2,0.1,0.3,0.1
			c2.4,0.9,4.8,1.8,7.3,2.6c0.1,0,0.1,0,0.2,0.1c0.7,0.2,1.5,0.5,2.2,0.7c0.2,0,0.3,0.1,0.5,0.1c0.7,0.2,1.3,0.4,2,0.5
			c0.2,0.1,0.4,0.1,0.6,0.2c0.6,0.2,1.2,0.3,1.9,0.5c0.2,0.1,0.5,0.1,0.7,0.2c0.6,0.1,1.2,0.3,1.8,0.4c0.2,0.1,0.5,0.1,0.7,0.1
			c0.6,0.1,1.2,0.2,1.8,0.3c0.3,0,0.5,0.1,0.8,0.1c0.6,0.1,1.2,0.2,1.8,0.3c0.3,0,0.5,0.1,0.8,0.1c0.6,0.1,1.2,0.2,1.9,0.3
			c0.2,0,0.5,0.1,0.7,0.1c0.6,0.1,1.3,0.2,1.9,0.2c0.2,0,0.5,0,0.7,0.1c0.7,0.1,1.4,0.1,2.1,0.2c0.2,0,0.4,0,0.6,0
			c0.8,0.1,1.5,0.1,2.3,0.1c0.1,0,0.2,0,0.3,0c1.8,0.1,3.6,0.1,5.4,0.1c0.1,0,0.2,0,0.2,0c1.4,0,2.8,0,4.2-0.1c0.2,0,0.4,0,0.6,0
			c1.4-0.1,2.8-0.2,4.2-0.3c0.2,0,0.4,0,0.7-0.1c1.4-0.1,2.8-0.3,4.1-0.5c0.2,0,0.4-0.1,0.7-0.1c1.4-0.2,2.7-0.4,4.1-0.6
			c0.1,0,0.2,0,0.3-0.1c0,0,0,0,0,0c46-8.3,81.7-46,87-93h3.1c8.1,0,14.7-6.6,14.7-14.7v-14.1C338.6,167.5,332,160.9,323.9,160.9z"
			/>
		<path id="XMLID_2114_" class="st21" d="M233.8,297.5C233.8,297.5,233.8,297.5,233.8,297.5c-0.1,0-0.2,0-0.3,0.1
			c-1.3,0.2-2.7,0.4-4.1,0.6c-0.2,0-0.4,0.1-0.7,0.1c-1.4,0.2-2.7,0.3-4.1,0.5c-0.2,0-0.4,0-0.7,0.1c-1.4,0.1-2.8,0.2-4.2,0.3
			c-0.2,0-0.4,0-0.6,0c-1.4,0.1-2.8,0.1-4.2,0.1c-0.1,0-0.2,0-0.2,0c-1.8,0-3.6-0.1-5.4-0.1c-0.1,0-0.2,0-0.3,0
			c-0.8,0-1.5-0.1-2.3-0.1c-0.2,0-0.4,0-0.6-0.1c-0.7-0.1-1.4-0.1-2.1-0.2c-0.2,0-0.4,0-0.7-0.1c-0.6-0.1-1.3-0.1-1.9-0.2
			c-0.2,0-0.5-0.1-0.7-0.1c-0.6-0.1-1.2-0.2-1.9-0.3c-0.3,0-0.5-0.1-0.8-0.1c-0.6-0.1-1.2-0.2-1.8-0.3c-0.3-0.1-0.5-0.1-0.8-0.1
			c-0.6-0.1-1.2-0.2-1.8-0.4c-0.2,0-0.5-0.1-0.7-0.1c-0.6-0.1-1.2-0.3-1.8-0.4c-0.2-0.1-0.5-0.1-0.7-0.2c-0.6-0.2-1.3-0.3-1.9-0.5
			c-0.2-0.1-0.4-0.1-0.6-0.2c-0.7-0.2-1.3-0.3-2-0.5c-0.2-0.1-0.3-0.1-0.5-0.1c-0.8-0.2-1.5-0.4-2.2-0.7c-0.1,0-0.1,0-0.2-0.1
			c-2.5-0.8-4.9-1.6-7.3-2.6c-0.1,0-0.2-0.1-0.3-0.1c-0.7-0.3-1.4-0.6-2.1-0.8c-0.2-0.1-0.4-0.2-0.6-0.2c-0.6-0.3-1.2-0.5-1.7-0.8
			c-0.2-0.1-0.5-0.2-0.7-0.3c-0.5-0.2-1.1-0.5-1.6-0.7c-0.3-0.1-0.5-0.2-0.7-0.4c-0.5-0.2-1-0.5-1.5-0.7c-0.3-0.1-0.5-0.3-0.8-0.4
			c-0.5-0.2-1-0.5-1.4-0.7c-0.3-0.2-0.5-0.3-0.8-0.4c-0.5-0.2-0.9-0.5-1.4-0.8c-0.3-0.2-0.5-0.3-0.8-0.5c-0.4-0.3-0.9-0.5-1.3-0.8
			c-0.3-0.2-0.6-0.3-0.8-0.5c-0.4-0.3-0.9-0.5-1.3-0.8c-0.3-0.2-0.5-0.3-0.8-0.5c-0.4-0.3-0.9-0.6-1.3-0.8c-0.3-0.2-0.5-0.4-0.8-0.5
			c-0.4-0.3-0.9-0.6-1.3-0.9c-0.2-0.2-0.5-0.3-0.7-0.5c-0.4-0.3-0.9-0.7-1.3-1c-0.2-0.2-0.4-0.3-0.7-0.5c-0.6-0.4-1.1-0.9-1.7-1.3
			c-0.2-0.2-0.4-0.3-0.6-0.5c-0.5-0.4-1.1-0.8-1.6-1.3c-0.3-0.2-0.6-0.5-0.8-0.7c-0.3-0.3-0.7-0.6-1-0.9c-0.3-0.3-0.6-0.6-0.9-0.8
			c-0.3-0.3-0.6-0.5-0.9-0.8c-0.3-0.3-0.6-0.6-1-0.9c-0.3-0.3-0.6-0.5-0.8-0.8c-0.3-0.3-0.7-0.6-1-0.9c-0.3-0.3-0.5-0.5-0.8-0.8
			c-0.3-0.3-0.7-0.7-1-1c-0.2-0.2-0.5-0.5-0.7-0.8c-0.3-0.3-0.7-0.7-1-1c-0.2-0.2-0.5-0.5-0.7-0.7c-0.3-0.4-0.7-0.7-1-1.1
			c-0.2-0.2-0.4-0.5-0.6-0.7c-0.3-0.4-0.7-0.8-1-1.2c-0.2-0.2-0.4-0.4-0.6-0.7c-0.3-0.4-0.7-0.8-1-1.2c-0.2-0.2-0.3-0.4-0.5-0.6
			c-0.3-0.4-0.7-0.9-1.1-1.3c-0.1-0.2-0.2-0.3-0.4-0.5c-0.4-0.5-0.7-1-1.1-1.5c-0.1-0.1-0.1-0.2-0.2-0.3c-2.8-3.7-5.3-7.6-7.5-11.7
			c0-0.1-0.1-0.1-0.1-0.2c-0.3-0.6-0.7-1.3-1-1.9c-0.1-0.1-0.1-0.2-0.1-0.3c-0.3-0.6-0.6-1.2-1-1.9c-0.1-0.1-0.1-0.2-0.2-0.3
			c-0.3-0.6-0.6-1.2-0.9-1.9c-0.1-0.1-0.1-0.2-0.2-0.3c-0.3-0.6-0.6-1.3-0.9-1.9c-0.1-0.1-0.1-0.2-0.1-0.3c-0.3-0.6-0.6-1.3-0.8-2
			c0-0.1-0.1-0.2-0.1-0.3c-0.3-0.7-0.6-1.4-0.8-2c0-0.1,0-0.1-0.1-0.2c-3.2-8.3-5.3-17-6.4-26.1c0,0,0,0,0,0h-2.7
			c-8.1,0-14.7-6.6-14.7-14.7v-14.1c0-8.1,6.6-14.7,14.7-14.7h2c12.5,0.2,23.2-2.1,32.2-5.9c-0.1,2.1-0.1,4.3-0.1,6.4
			c0,66,43,121.1,100.3,134.6C238.3,296.6,236,297.1,233.8,297.5z"/>
		<path id="XMLID_2108_" class="st21" d="M221.6,209.2h-13.2c-4.3,0-7.9-3.5-7.9-7.9v0c0-4.3,3.5-7.9,7.9-7.9h13.2
			c4.3,0,7.9,3.5,7.9,7.9v0C229.5,205.6,225.9,209.2,221.6,209.2z"/>
		<path id="XMLID_2105_" class="st71" d="M200,229.4c0,8.3,6.7,15,15,15s15-6.7,15-15"/>
		<path id="XMLID_2104_" class="st71" d="M155.1,171.8c0,6.2,5,11.2,11.2,11.2s11.2-5,11.2-11.2"/>
		<path id="XMLID_2103_" class="st71" d="M255.6,171.8c0,6.2,5,11.2,11.2,11.2s11.2-5,11.2-11.2"/>
		<line id="XMLID_2069_" class="st71" x1="204.2" y1="260.7" x2="225.8" y2="260.7"/>
		<ellipse id="XMLID_1725_" class="st157" cx="166.2" cy="209.2" rx="19.3" ry="11.1"/>
		<ellipse id="XMLID_1724_" class="st157" cx="266.8" cy="209.2" rx="19.3" ry="11.1"/>
		<path id="XMLID_1723_" class="st15" d="M338.2,78.6v9.3H90.9v-9.3c0-10.4,2.3-20.3,6.5-29.1c11-23.4,34.7-39.6,62.3-39.6h109.8
			c27.6,0,51.4,16.3,62.4,39.8C335.9,58.4,338.2,68.2,338.2,78.6z"/>
		<path id="XMLID_1721_" class="st80" d="M219.3,9.8c-38,0-68.7,30.8-68.7,68.7v9.3H90.8v-9.3c0-38,30.8-68.7,68.7-68.7H219.3z"/>
		<path id="XMLID_1717_" class="st26" d="M338.2,78.6v8c-82.4-14.9-164.8-15-247.3-0.5v-7.5c0-10.4,2.3-20.3,6.5-29.1
			c78.1-5.9,156.3-5.8,234.4,0.2C335.9,58.4,338.2,68.2,338.2,78.6z"/>
		<path id="XMLID_1716_" class="st158" d="M363.6,89.8C363.6,89.8,363.6,89.8,363.6,89.8c-1.3-0.5-2.7-1.1-4.1-1.6
			c-0.3-0.1-0.5-0.2-0.8-0.3c-1.1-0.4-2.2-0.8-3.4-1.2c-0.3-0.1-0.7-0.2-1-0.4c-1.2-0.4-2.3-0.8-3.5-1.2c-0.3-0.1-0.5-0.2-0.8-0.3
			c-35.6-11.9-83.2-19.1-135.5-19.1c-52.3,0-99.8,7.2-135.4,19.1c-0.4,0.1-0.8,0.3-1.1,0.4c-1,0.4-2.1,0.7-3.1,1.1
			c-0.5,0.2-0.9,0.3-1.4,0.5c-1,0.4-2,0.7-2.9,1.1c-0.4,0.2-0.8,0.3-1.2,0.4c-1.3,0.5-2.7,1-4,1.6C45.1,98,29.9,108,21.8,118.9
			c0,0,0,0,0,0c47.3-23.9,69.1-12.5,69.1-12.5l0,0c30.2,14.8,74.4,24.2,123.6,24.2c49.2,0,93.4-9.4,123.6-24.2l0,0
			c0,0,21.8-11.4,69.1,12.5c0,0,0,0,0,0C399.1,108,384,98,363.6,89.8z"/>
		<path id="XMLID_2197_" class="st52" d="M307.4,431.7v75.2c-16.6,3.4-33.8,5.2-51.4,5.2c-27.4,0-53.9-4.3-78.7-12.3
			c-12.8-4.1-25.2-9.3-37.1-15.3c-4.3-2.2-8.5-4.4-12.6-6.8c-1.5-0.8-2.9-1.7-4.3-2.6v-43.3c0-1.5,0.3-2.9,0.8-4.2
			c0.1-0.3,0.3-0.6,0.5-0.9c0.1-0.2,0.2-0.3,0.3-0.5c0.1-0.2,0.2-0.4,0.3-0.5c0.4-0.5,0.8-1,1.2-1.5c0.1-0.1,0.2-0.2,0.4-0.4
			c0.2-0.2,0.5-0.4,0.8-0.6c0.5-0.4,1.1-0.8,1.8-1.1c0.7-0.3,1.5-0.6,2.2-0.8c0.8-0.2,1.6-0.3,2.4-0.3v-99.7c0-2.5,1.1-4.8,2.9-6.3
			c1.4-1.2,3.2-1.9,5.2-1.9h12.3c4.5,0,8.2,3.7,8.2,8.2v47.6c0,1.8,0.1,3.5,0.3,5.2c0.6,5.7,2.1,11.2,4.3,16.2
			c1,2.3,2.2,4.5,3.6,6.6c0.2,0.4,0.5,0.7,0.7,1.1c0.1,0.2,0.2,0.3,0.3,0.4c0.1,0.1,0.2,0.2,0.2,0.3c0.3,0.4,0.6,0.8,0.9,1.2
			c0.8,1,1.5,2,2.3,2.9c0.8,0.9,1.7,1.9,2.6,2.7c1.3,1.3,2.6,2.5,4,3.6c0.5,0.4,0.9,0.7,1.4,1.1c0.2,0.2,0.4,0.3,0.6,0.5
			c0.6,0.4,1.1,0.8,1.7,1.2c0.7,0.5,1.4,0.9,2.1,1.3c0.1,0.1,0.2,0.1,0.3,0.2c7.8,4.7,16.9,7.4,26.7,7.4c4.7,0,9.3-0.6,13.6-1.8
			c12-3.3,22.3-10.7,29.2-20.7c5.8-8.4,9.2-18.6,9.2-29.6v-47.6c0-4.5,3.7-8.2,8.2-8.2h12.3c4.5,0,8.2,3.7,8.2,8.2v99.7h1.2
			C302.6,420.9,307.4,425.8,307.4,431.7z"/>
		<path id="XMLID_2186_" class="st159" d="M188.1,413.6c0,3.6-1.9,6.9-5,8.6c-1,0.5-1.8,1.2-2.6,1.9c-1.9,1.9-3.1,4.6-3.1,7.6v68
			c-12.8-4.1-25.2-9.3-37.1-15.3c-4.3-2.2-8.5-4.4-12.6-6.8c-1.5-0.8-2.9-1.7-4.3-2.6v-43.3c0-1.5,0.3-2.9,0.8-4.2
			c0.1-0.3,0.3-0.6,0.5-0.9c0.1-0.2,0.2-0.3,0.3-0.5c0.1-0.2,0.2-0.4,0.3-0.5c0.4-0.5,0.8-1,1.2-1.5h0c0.1-0.1,0.2-0.2,0.4-0.4
			c0.2-0.2,0.5-0.4,0.8-0.6c0.5-0.4,1.1-0.8,1.8-1.1c0.7-0.3,1.5-0.6,2.2-0.8c0.8-0.2,1.6-0.3,2.4-0.3v-99.7c0-2.5,1.1-4.8,2.9-6.3
			c1.4-1.2,3.2-1.9,5.2-1.9h12.3c4.5,0,8.2,3.7,8.2,8.2v47.6c0,1.8,0.1,3.5,0.3,5.2c0.6,5.7,2.1,11.2,4.3,16.2
			c1,2.3,2.2,4.5,3.6,6.6c0.2,0.4,0.5,0.7,0.7,1.1c0.1,0.2,0.2,0.3,0.3,0.4c0.1,0.1,0.2,0.2,0.2,0.3c0.3,0.4,0.6,0.8,0.9,1.2
			c0.8,1,1.5,2,2.3,2.9c0.8,0.9,1.7,1.9,2.5,2.8c1.3,1.3,2.6,2.4,4,3.6c0.5,0.4,0.9,0.7,1.4,1.1c0.2,0.2,0.4,0.3,0.6,0.5
			c0.6,0.4,1.1,0.8,1.7,1.2c0.7,0.5,1.4,0.9,2.1,1.3C187.9,413.5,188,413.5,188.1,413.6z"/>
		<g id="XMLID_1528_">
			<path id="XMLID_1702_" class="st160" d="M410.6,398.4h-29.3c-6.5,0-11.8-5.2-12-11.7l-3.1-108.6c-0.1-3.9,3-7.1,6.9-7.1h45.9
				c3.9,0,7,3.2,6.9,7.1l-3.1,108.6C422.4,393.3,417.1,398.4,410.6,398.4z"/>
			<path id="XMLID_1701_" class="st161" d="M399.4,398.4h-18.1c-6.5,0-11.8-5.2-12-11.7l-3.1-108.6c-0.1-3.9,3-7.1,6.9-7.1h18.1
				c-3.9,0-7,3.2-6.9,7.1l0.7,22.9l2.5,85.6c0,0.3,0,0.7,0.1,1C388.1,393.8,393.2,398.4,399.4,398.4z"/>
			<path id="XMLID_1700_" class="st9" d="M397.3,327.7L397.3,327.7c-2.5,0-4.5-2-4.5-4.5V222.4c0-2.5,2-4.5,4.5-4.5l0,0
				c2.5,0,4.5,2,4.5,4.5v100.8C401.8,325.7,399.8,327.7,397.3,327.7z"/>
			<path id="XMLID_1699_" class="st8" d="M406.4,387.8h-21c-4.7,0-8.5-3.5-8.6-7.9l-2.2-73.9c-0.1-2.6,2.1-4.8,4.9-4.8h32.9
				c2.8,0,5,2.2,4.9,4.8l-2.2,73.9C414.9,384.3,411.1,387.8,406.4,387.8z"/>
			<path id="XMLID_1715_" class="st162" d="M387.5,387.8h-2c-4.6,0-8.5-3.5-8.6-7.9l-2.3-73.9c-0.1-2.6,2.2-4.8,4.9-4.8h5.4
				l2.5,85.6C387.4,387.1,387.4,387.5,387.5,387.8z"/>
		</g>
		<path id="XMLID_1814_" class="st20" d="M443.9,388.6h-24.7c-16,0-29-13-29-29v0c0-16,13-29,29-29h24.7c10.9,0,19.7,8.8,19.7,19.7
			v18.7C463.6,379.8,454.8,388.6,443.9,388.6z"/>
		<path id="XMLID_1815_" class="st21" d="M463.6,350.2v18.7c0,10.9-8.8,19.7-19.7,19.7h-24.7c-16,0-29-13-29-29
			c0-3.8,0.8-7.5,2.1-10.9c4.3,10.6,14.7,18.1,26.9,18.1h24.7c10.3,0,18.8-8,19.6-18.1C463.5,349.2,463.6,349.7,463.6,350.2z"/>
	</g>
</g>
</svg>
