<?xml version="1.0" encoding="utf-8"?>
<!-- Generator: Adobe Illustrator 22.0.1, SVG Export Plug-In . SVG Version: 6.00 Build 0)  -->
<svg version="1.1" xmlns="http://www.w3.org/2000/svg" xmlns:xlink="http://www.w3.org/1999/xlink" x="0px" y="0px"
	 viewBox="0 0 512 512" style="enable-background:new 0 0 512 512;" xml:space="preserve">
<style type="text/css">
	.st0{fill:#E9B12D;}
	.st1{fill:#A9E7D8;}
	.st2{fill:#76CFB1;}
	.st3{fill:#AE6B5D;}
	.st4{fill:#7770D3;}
	.st5{fill:#5BA0F5;}
	.st6{fill:#DA4545;}
	.st7{fill:#89CCFC;}
	.st8{fill:#CD462A;}
	.st9{fill:#514896;}
	.st10{fill:#5493A0;}
	.st11{fill:#CC6B5C;}
	.st12{fill:#62AA8D;}
	.st13{fill:#8ABAAB;}
	.st14{fill:#C3791F;}
	.st15{fill:#E39123;}
	.st16{fill:#FFFFFF;}
	.st17{fill:none;stroke:#FFFFFF;stroke-width:10;stroke-linecap:round;stroke-miterlimit:10;}
	.st18{fill:none;stroke:#5F55AB;stroke-width:10;stroke-linecap:round;stroke-miterlimit:10;}
	.st19{fill:#A9671C;}
	.st20{fill:#D5B3A7;}
	.st21{fill:#C09A8F;}
	.st22{fill:#487F87;}
	.st23{fill:#1B305C;}
	.st24{fill:#172945;}
	.st25{fill:none;}
	.st26{fill:#B62A2A;}
	.st27{fill:#325859;}
	.st28{fill:#3F6E71;}
	.st29{fill:#284646;}
	.st30{fill:#8F2727;}
	.st31{fill:#29477C;}
	.st32{fill:#5B9BEE;}
	.st33{fill:#487FDE;}
	.st34{fill:#CD9829;}
	.st35{fill:#9F2A2A;}
	.st36{fill:#4C3328;}
	.st37{fill:#E8B94A;}
	.st38{fill:#DDF8F1;}
	.st39{fill:#3E2A22;}
	.st40{fill:#D3A971;}
	.st41{fill:#C79A5B;}
	.st42{fill:#233E76;}
	.st43{fill:#21395F;}
	.st44{fill:#487D82;}
	.st45{fill:none;stroke:#C79A5B;stroke-width:10;stroke-linecap:round;stroke-miterlimit:10;}
	.st46{fill:#5E3E31;}
	.st47{fill:#AC3939;}
	.st48{fill:#CA9628;}
	.st49{fill:#AF8F88;}
	.st50{fill:#815048;}
	.st51{fill:#6F4232;}
	.st52{fill:#5F55AB;}
	.st53{fill:#192A48;}
	.st54{fill:#152336;}
	.st55{fill:#192B49;}
	.st56{fill:#264173;}
	.st57{fill:#B06F1E;}
	.st58{fill:#4E88C0;}
	.st59{fill:#83C3F1;}
	.st60{fill:#CF9929;}
	.st61{fill:none;stroke:#FFFFFF;stroke-width:10;stroke-linecap:round;stroke-linejoin:round;stroke-miterlimit:10;}
	.st62{fill:#EAC262;}
	.st63{fill:#D6D5D4;}
	.st64{fill:#6BBA9B;}
	.st65{fill:#63AA8F;}
	.st66{fill:none;stroke:#3E2A22;stroke-width:10;stroke-linecap:round;stroke-miterlimit:10;}
	.st67{fill:#CA7D1F;}
	.st68{fill:#213B64;}
	.st69{fill:#CDF8EC;}
	.st70{fill:#C59125;}
	.st71{fill:none;stroke:#C09A8F;stroke-width:10;stroke-linecap:round;stroke-miterlimit:10;}
	.st72{fill:#32579B;}
	.st73{fill:#172843;}
	.st74{fill:#D66767;}
	.st75{fill:#A74949;}
	.st76{fill:#EBC76F;}
	.st77{fill:#7A4940;}
	.st78{fill:#182A48;}
	.st79{fill:none;stroke:#A0794A;stroke-width:10;stroke-linecap:round;stroke-miterlimit:10;}
	.st80{fill:#C37A20;}
	.st81{fill:#D26D5C;}
	.st82{fill:#A45752;}
	.st83{fill:#284579;}
	.st84{fill:#88C7F4;}
	.st85{fill:#6EB6F0;}
	.st86{fill:#32221E;}
	.st87{fill:#E7A6A6;}
	.st88{fill:#C59191;}
	.st89{fill:#AA3B3B;}
	.st90{fill:#B83E3E;}
	.st91{fill:none;stroke:#5F55A9;stroke-width:10;stroke-linecap:round;stroke-miterlimit:10;}
	.st92{fill:#963838;}
	.st93{fill:#402B25;}
	.st94{fill:#6B6ABA;}
	.st95{fill:#BABABA;}
	.st96{fill:#D1D1D1;}
	.st97{fill:#264377;}
	.st98{fill:#A19BF5;}
	.st99{fill:#3C2A21;}
	.st100{fill:none;stroke:#4C3328;stroke-width:10;stroke-linecap:round;stroke-miterlimit:10;}
	.st101{fill:#C1781F;}
	.st102{fill:#E3A147;}
	.st103{fill:#F2D2A1;}
	.st104{fill:#4F372D;}
	.st105{fill:none;stroke:#DA4545;stroke-width:10;stroke-linecap:round;stroke-miterlimit:10;}
	.st106{fill:#AA3928;}
	.st107{fill:#8C2C22;}
	.st108{fill:#BF4336;}
	.st109{fill:#5797D4;}
	.st110{fill:#CFCFCF;}
	.st111{fill:#613A2E;}
	.st112{fill:none;stroke:#B18653;stroke-width:10;stroke-linecap:round;stroke-miterlimit:10;}
	.st113{fill:#B13B3B;}
	.st114{fill:#16263A;}
	.st115{fill:none;stroke:#16263A;stroke-width:10;stroke-miterlimit:10;}
	.st116{fill:#C87D20;}
	.st117{fill:#E4F0FD;}
	.st118{fill:#AA3737;}
	.st119{fill:#BF771F;}
	.st120{fill:none;stroke:#CD462A;stroke-width:10;stroke-linejoin:round;stroke-miterlimit:10;}
	.st121{fill:#5696D2;}
	.st122{fill:#C0771E;}
	.st123{fill:#9B5F1B;}
	.st124{fill:#A83A29;}
	.st125{fill:#E7A74F;}
	.st126{fill:#C9924C;}
	.st127{fill:#C58E48;}
	.st128{fill:#BE8844;}
	.st129{fill:#916939;}
	.st130{fill:#264275;}
	.st131{fill:#253F65;}
	.st132{fill:#182A45;}
	.st133{fill:#162336;}
	.st134{fill:#93C7B7;}
	.st135{fill:#E6A4A4;}
	.st136{fill:#B06B1D;}
	.st137{fill:#484185;}
	.st138{fill:#DB6E6E;}
	.st139{fill:#6BBA9A;}
	.st140{fill:#CACCCC;}
	.st141{fill:#D4D4D4;}
	.st142{fill:#A98881;}
	.st143{fill:#213A62;}
	.st144{fill:#A2837D;}
	.st145{fill:#6FB8F4;}
	.st146{fill:#9B9E9E;}
	.st147{fill:#B2B3B3;}
	.st148{fill:#20385D;}
	.st149{fill:#335AA8;}
	.st150{fill:#BCE7FD;}
	.st151{fill:#3B2921;}
	.st152{fill:#AD3C3C;}
	.st153{fill:#9D3838;}
	.st154{fill:#603F33;}
	.st155{fill:#4D868B;}
	.st156{fill:#A2DDFD;}
	.st157{fill:#ECB6B6;}
	.st158{fill:#E8A346;}
	.st159{fill:#514C94;}
	.st160{fill:#D2F1E8;}
	.st161{fill:#BDD6CE;}
	.st162{fill:#B93B29;}
	.st163{fill:#E0AD70;}
	.st164{fill:#C57C21;}
	.st165{fill:#EDA34A;}
	.st166{fill:#2F538F;}
	.st167{fill:#2B4B78;}
	.st168{fill:#65AF91;}
	.st169{fill:#A7CEFC;}
	.st170{fill:#98BDE2;}
	.st171{fill:#CFE5F7;}
	.st172{fill:#5492CD;}
	.st173{fill:#97CCBC;}
	.st174{fill:#5491CA;}
	.st175{fill:#EDC563;}
	.st176{fill:#423C79;}
	.st177{fill:#D3B1A5;}
	.st178{fill:#BE988D;}
	.st179{fill:#A7E5D6;}
	.st180{fill:#F2FFF9;}
	.st181{fill:#D64545;}
	.st182{fill:#A73B3B;}
	.st183{fill:#15233A;}
	.st184{fill:none;stroke:#BE988D;stroke-width:10;stroke-linecap:round;stroke-miterlimit:10;}
	.st185{fill:#AF3A29;}
	.st186{fill:#FAF9FF;}
	.st187{fill:#CACACC;}
	.st188{fill:#372720;}
	.st189{fill:#3F2C26;}
	.st190{fill:#2D201C;}
	.st191{fill:#3D6D6F;}
	.st192{fill:#5B54A8;}
	.st193{fill:#325799;}
	.st194{fill:#E8C26E;}
	.st195{fill:#254784;}
	.st196{fill:#5696D4;}
	.st197{fill:#4F8AB6;}
	.st198{fill:#5FA4AC;}
	.st199{fill:#AA3524;}
	.st200{fill:#D15F4D;}
	.st201{fill:#2B294C;}
	.st202{fill:#A43A2A;}
	.st203{fill:#E7AE2D;}
	.st204{fill:#CD9729;}
	.st205{fill:none;stroke:#AA8253;stroke-width:10;stroke-linecap:round;stroke-miterlimit:10;}
	.st206{fill:none;stroke:#E18F23;stroke-width:10;stroke-linecap:round;stroke-linejoin:round;stroke-miterlimit:10;}
	.st207{fill:#CF9828;}
	.st208{fill:#B88926;}
	.st209{fill:#A17623;}
	.st210{fill:#96CCBC;}
	.st211{fill:#CF9A2A;}
	.st212{fill:#C57B20;}
	.st213{fill:#C7F1E6;}
	.st214{fill:#DC6363;}
	.st215{fill:#E89F9F;}
	.st216{fill:#C88C8C;}
	.st217{fill:#C16E6E;}
	.st218{fill:#A46060;}
	.st219{fill:#AA3626;}
	.st220{fill:#87EDC4;}
	.st221{fill:#D86552;}
	.st222{fill:#BC7620;}
	.st223{fill:#BA741E;}
	.st224{fill:#8F8CE3;}
	.st225{fill:#3A2820;}
	.st226{fill:#AC7060;}
	.st227{fill:#915F55;}
	.st228{fill:#49332A;}
	.st229{fill:#2D1F1B;}
	.st230{fill:#69B7BE;}
	.st231{fill:#D6D6D6;}
	.st232{fill:#B8B8B8;}
	.st233{fill:#CACACA;}
	.st234{fill:#467B80;}
	.st235{fill:#C2EDE2;}
	.st236{fill:#A9574F;}
	.st237{fill:#5595D2;}
	.st238{fill:#955949;}
	.st239{fill:#7E4B42;}
	.st240{fill:#89CCF1;}
	.st241{fill:#DD584A;}
	.st242{fill:#C18F26;}
	.st243{fill:#B33C2A;}
	.st244{fill:#D1A771;}
	.st245{fill:#B42A2A;}
	.st246{fill:#325797;}
	.st247{fill:#9F3529;}
	.st248{fill:#EDCE80;}
	.st249{fill:#F0DBAC;}
	.st250{fill:#CFB478;}
	.st251{fill:#D4C29B;}
	.st252{fill:#993939;}
	.st253{fill:#D1AFA3;}
	.st254{fill:#BC968B;}
	.st255{fill:none;stroke:#BC968B;stroke-width:10;stroke-linecap:round;stroke-miterlimit:10;}
	.st256{fill:#814C3C;}
	.st257{fill:#C0EBE0;}
	.st258{fill:#A5E3D4;}
	.st259{fill:#15243C;}
	.st260{fill:#443E79;}
	.st261{fill:#F0FFF7;}
	.st262{fill:#9A764B;}
	.st263{fill:#826443;}
	.st264{fill:#D9AA74;}
	.st265{fill:#5DA186;}
	.st266{fill:#68B596;}
	.st267{fill:#E5C6BE;}
	.st268{fill:#D3B6B1;}
	.st269{fill:none;stroke:#BAA09C;stroke-width:10;stroke-linecap:round;stroke-miterlimit:10;}
	.st270{fill:#F4D78F;}
	.st271{fill:#20385F;}
	.st272{fill:#BA8727;}
	.st273{fill:#5A9C82;}
	.st274{fill:none;stroke:#E39123;stroke-width:10;stroke-linecap:round;stroke-linejoin:round;stroke-miterlimit:10;}
	.st275{fill:#60392D;}
	.st276{fill:#CCCCCC;}
	.st277{fill:#844F3E;}
	.st278{fill:#F3FFFB;}
	.st279{fill:#365E60;}
	.st280{fill:#D84545;}
	.st281{fill:#A83B3B;}
	.st282{fill:#253F70;}
	.st283{fill:#EAADAD;}
	.st284{fill:#443E7C;}
	.st285{fill:#3D6B9F;}
	.st286{fill:#4274BC;}
	.st287{fill:#AF3827;}
	.st288{fill:#E59D9D;}
	.st289{fill:#C48989;}
	.st290{fill:none;stroke:#9B621A;stroke-width:10;stroke-linecap:round;stroke-linejoin:round;stroke-miterlimit:10;}
	.st291{fill:#213A5E;}
	.st292{fill:#2D507A;}
	.st293{fill:#528EC8;}
	.st294{fill:#EFD696;}
	.st295{fill:#D1BA87;}
	.st296{fill:#FDFCFC;}
	.st297{fill:#86CBFC;}
	.st298{fill:#7AB7DA;}
	.st299{fill:#192C4C;}
	.st300{fill:#BCBCBC;}
	.st301{fill:#A13838;}
	.st302{fill:#75BDF6;}
	.st303{fill:#D0B1AA;}
	.st304{fill:#142233;}
	.st305{fill:#E6C4BB;}
	.st306{fill:#BDBDBD;}
	.st307{fill:#E8A192;}
	.st308{fill:#A43939;}
	.st309{fill:#162640;}
	.st310{fill:#27457C;}
	.st311{fill:#EFBE5E;}
	.st312{fill:#87EDC5;}
	.st313{fill:#A03838;}
	.st314{fill:#833232;}
	.st315{fill:#47417F;}
	.st316{fill:none;stroke:#915F55;stroke-width:10;stroke-linecap:round;stroke-miterlimit:10;}
	.st317{fill:#BC8B25;}
	.st318{fill:#473129;}
	.st319{fill:#67B394;}
	.st320{fill:#599A80;}
	.st321{fill:#B13D3D;}
</style>
<g id="BULINE">
	<g>
		<circle id="XMLID_1345_" class="st12" cx="256" cy="256" r="256"/>
	</g>
</g>
<g id="Icons">
	<g id="XMLID_1521_">
		<path id="XMLID_2088_" class="st2" d="M498.9,174.9c-5.2,84.4-54.2,156.9-124.6,195.1c-8.1,4.4-16.5,8.4-25.2,11.9
			c-6.2,2.5-12.5,4.7-18.9,6.6c-5.3,1.6-10.7,3.1-16.1,4.3c-1.3,0.3-2.6,0.6-3.9,0.9c-8.6,1.8-17.4,3.2-26.3,4
			c-4.1,0.4-8.1,0.7-12.3,0.9c-3.7,0.2-7.4,0.3-11.2,0.3c-7.6,0-15.1-0.4-22.6-1.1c-9-0.8-17.8-2.2-26.5-4c-3.1-0.7-6.2-1.4-9.3-2.2
			h0c-10.4-2.6-20.5-5.9-30.3-9.8c-1.9-0.8-3.8-1.5-5.6-2.3c-9.3-4-18.2-8.5-26.8-13.6c-0.2-0.1-0.4-0.2-0.6-0.4
			C68.5,323.9,21.5,247.4,21.5,159.9c0-2.3,0-4.6,0.1-6.9C61.2,62.9,151.3,0,256,0C369,0,464.9,73.2,498.9,174.9z"/>
		<path id="XMLID_3759_" class="st23" d="M361.2,182.2v-32v-30.5c0-57.7-46.8-104.4-104.4-104.4S152.3,62,152.3,119.7v30v33.1
			c0,0,0,0,0,0v184.8h208.9L361.2,182.2C361.2,182.2,361.2,182.2,361.2,182.2z"/>
		<path id="XMLID_1797_" class="st20" d="M263.3,312.3H250c-10.7,0-19.3-8.6-19.3-19.3v-31.8c0-10.7,8.6-19.3,19.3-19.3h13.3
			c10.7,0,19.3,8.6,19.3,19.3V293C282.6,303.7,274,312.3,263.3,312.3z"/>
		<path id="XMLID_1796_" class="st21" d="M265.7,312.1c-0.9,0.1-1.8,0.2-2.8,0.2h-13.3c-10.7,0-19.3-8.6-19.3-19.3v-31.8
			c0-10.7,8.6-19.3,19.3-19.3h13.3c0.9,0,1.9,0.1,2.8,0.2c-9.3,1.4-16.5,9.4-16.5,19.1V293C249.2,302.7,256.4,310.8,265.7,312.1z"/>
		<path id="XMLID_4130_" class="st97" d="M317,77c8.8,4.4,21.2,13.1,28.3,29.5c1.6,3.6-2.2,7.3-5.7,5.6v0c-2.3-1.1-4.7,1.3-3.7,3.6
			c1.5,3.4,3.3,7.7,4.9,12.1c1.6,4.5-4.2,7.8-7.3,4.2c-8.2-9.6-20.4-20.8-33.1-22.4c-1.4-0.2-2.2-1.8-1.4-3
			c1.8-2.9,5.4-7.3,11.1-8.9c5.1-1.4,8.4-6.5,7.3-11.6c-0.4-2-1.3-4.1-2.8-6.3C313.3,78.2,315.1,76,317,77z"/>
		<g id="XMLID_1807_">
			<path id="XMLID_1809_" class="st24" d="M282.6,18.3c-45.6,11.2-79.3,52.4-79.3,101.4v15.8c-13.5,6.8-27.4,11.5-40.5,11.5H161
				c-3,0-5.7,1-7.9,2.7v-30c0-57.7,46.8-104.4,104.4-104.4C266.2,15.2,274.6,16.3,282.6,18.3z"/>
			<path id="XMLID_1808_" class="st24" d="M203.3,252.2v115.3h-50.2V182.7c2.2,1.7,4.9,2.7,7.9,2.7h2.4c0,0,0,0,0,0
				c0.9,8,2.8,15.8,5.6,23.1c0,0,0,0.1,0.1,0.1c0.2,0.6,0.5,1.2,0.7,1.8c0,0.1,0.1,0.2,0.1,0.2c0.2,0.6,0.5,1.1,0.7,1.7
				c0,0.1,0.1,0.2,0.1,0.3c0.2,0.6,0.5,1.1,0.8,1.7c0,0.1,0.1,0.2,0.1,0.3c0.3,0.6,0.5,1.1,0.8,1.6c0.1,0.1,0.1,0.2,0.1,0.3
				c0.3,0.6,0.6,1.1,0.8,1.6c0,0.1,0.1,0.2,0.1,0.2c0.3,0.6,0.6,1.1,0.9,1.7c0,0.1,0,0.1,0.1,0.1c2,3.6,4.2,7.1,6.6,10.3
				c0.1,0.1,0.1,0.2,0.2,0.3c0.3,0.4,0.7,0.9,1,1.3c0.1,0.1,0.2,0.3,0.3,0.4c0.3,0.4,0.6,0.8,0.9,1.2c0.1,0.2,0.3,0.4,0.4,0.5
				c0.3,0.4,0.6,0.7,0.9,1.1c0.2,0.2,0.3,0.4,0.5,0.6c0.3,0.3,0.6,0.7,0.9,1c0.2,0.2,0.4,0.4,0.6,0.6c0.3,0.3,0.6,0.6,0.9,1
				c0.2,0.2,0.4,0.4,0.6,0.7c0.3,0.3,0.6,0.6,0.9,0.9c0.2,0.2,0.4,0.4,0.7,0.7c0.3,0.3,0.6,0.6,0.9,0.9c0.2,0.2,0.5,0.5,0.7,0.7
				c0.3,0.3,0.6,0.6,0.9,0.8c0.2,0.2,0.5,0.5,0.7,0.7c0.3,0.3,0.6,0.5,0.8,0.8c0.3,0.2,0.5,0.5,0.8,0.7c0.3,0.2,0.5,0.5,0.8,0.7
				c0.3,0.3,0.6,0.5,0.9,0.8c0.3,0.2,0.5,0.4,0.7,0.6c0.5,0.4,0.9,0.8,1.4,1.1c0.2,0.1,0.3,0.3,0.5,0.4c0.5,0.4,1,0.8,1.5,1.1
				c0.2,0.1,0.4,0.3,0.6,0.4c0.4,0.3,0.8,0.6,1.2,0.9c0.2,0.2,0.4,0.3,0.7,0.5C203.1,252.1,203.2,252.1,203.3,252.2z"/>
		</g>
		<path id="XMLID_1805_" class="st6" d="M374.3,336.4v132.3H138.6V336.4c0-8.2,2.4-15.8,6.5-22.3c7.4-11.5,20.2-19.1,34.8-19.1h153
			c14.6,0,27.5,7.6,34.8,19.1C371.9,320.5,374.3,328.2,374.3,336.4z"/>
		<path id="XMLID_1804_" class="st26" d="M207.4,295.1c-22.8,0-41.3,18.5-41.3,41.3v132.3h-26.8V336.4c0-22.8,18.5-41.3,41.3-41.3
			H207.4z"/>
		<rect id="XMLID_1803_" x="138.6" y="443.6" class="st16" width="235.7" height="25.1"/>
		<rect id="XMLID_1801_" x="138.6" y="400.9" class="st16" width="235.7" height="25"/>
		<rect id="XMLID_1800_" x="138.6" y="356.7" class="st16" width="235.7" height="25.1"/>
		<path id="XMLID_1799_" class="st16" d="M374.3,336.4v2.8H138.6v-2.8c0-8.2,2.4-15.8,6.5-22.3h222.6
			C371.9,320.5,374.3,328.2,374.3,336.4z"/>
		<path id="XMLID_1798_" class="st20" d="M292.9,374.2h-75c-8.5,0-15.6-6.4-16.6-14.8l-7.3-64.4h122.8l-7.3,64.4
			C308.5,367.9,301.4,374.2,292.9,374.2z"/>
		<path id="XMLID_1795_" class="st20" d="M361.5,150.2c-2.3-2-5.3-3.3-8.6-3.3h-2.2c0,0-48.1-3-72.7-54.4c-2.5-5.3-9.5-6.5-13.7-2.5
			c-18.9,18-64.2,56.9-102.1,56.9h-1.8c-3,0-5.7,1-7.9,2.7c-3.1,2.4-5.1,6.1-5.1,10.3v12.5c0,4.2,2,7.9,5.1,10.3
			c2.2,1.7,4.9,2.7,7.9,2.7h2.4c0,0,0,0,0,0c0.9,8,2.8,15.8,5.6,23.1c0,0,0,0.1,0.1,0.1c0.2,0.6,0.5,1.2,0.7,1.8
			c0,0.1,0.1,0.2,0.1,0.2c0.2,0.6,0.5,1.2,0.7,1.7c0,0.1,0.1,0.2,0.1,0.3c0.2,0.6,0.5,1.1,0.8,1.7c0,0.1,0.1,0.2,0.1,0.3
			c0.3,0.6,0.5,1.1,0.8,1.6c0,0.1,0.1,0.2,0.1,0.3c0.3,0.6,0.5,1.1,0.8,1.6c0,0.1,0.1,0.2,0.1,0.2c0.3,0.6,0.6,1.1,0.9,1.7
			c0,0,0.1,0.1,0.1,0.1c2,3.6,4.2,7.1,6.6,10.3c0.1,0.1,0.1,0.2,0.2,0.3c0.3,0.4,0.7,0.9,1,1.3c0.1,0.1,0.2,0.3,0.3,0.4
			c0.3,0.4,0.6,0.8,0.9,1.2c0.1,0.2,0.3,0.4,0.4,0.5c0.3,0.4,0.6,0.7,0.9,1.1c0.2,0.2,0.3,0.4,0.5,0.6c0.3,0.3,0.6,0.7,0.9,1
			c0.2,0.2,0.4,0.4,0.6,0.6c0.3,0.3,0.6,0.6,0.9,1c0.2,0.2,0.4,0.4,0.6,0.6c0.3,0.3,0.6,0.6,0.9,0.9c0.2,0.2,0.4,0.4,0.7,0.7
			c0.3,0.3,0.6,0.6,0.9,0.9c0.2,0.2,0.5,0.5,0.7,0.7c0.3,0.3,0.6,0.6,0.9,0.8c0.2,0.2,0.5,0.5,0.7,0.7c0.3,0.3,0.6,0.5,0.9,0.8
			c0.3,0.2,0.5,0.5,0.8,0.7c0.3,0.2,0.6,0.5,0.8,0.7c0.3,0.3,0.6,0.5,0.9,0.8c0.3,0.2,0.5,0.4,0.8,0.6c0.5,0.4,0.9,0.8,1.4,1.1
			c0.2,0.1,0.3,0.3,0.5,0.4c0.5,0.4,1,0.8,1.5,1.1c0.2,0.1,0.4,0.3,0.6,0.4c0.4,0.3,0.8,0.6,1.2,0.9c0.2,0.2,0.4,0.3,0.7,0.5
			c0.4,0.3,0.8,0.5,1.1,0.8c0.2,0.2,0.5,0.3,0.7,0.5c0.4,0.3,0.8,0.5,1.1,0.8c0.2,0.2,0.5,0.3,0.7,0.5c0.4,0.2,0.8,0.5,1.2,0.7
			c0.2,0.1,0.5,0.3,0.7,0.4c0.4,0.2,0.8,0.5,1.2,0.7c0.2,0.1,0.5,0.3,0.7,0.4c0.4,0.2,0.8,0.5,1.2,0.7c0.2,0.1,0.5,0.3,0.7,0.4
			c0.4,0.2,0.8,0.4,1.3,0.7c0.2,0.1,0.5,0.2,0.7,0.4c0.4,0.2,0.9,0.4,1.3,0.7c0.2,0.1,0.4,0.2,0.7,0.3c0.5,0.2,0.9,0.4,1.4,0.7
			c0.2,0.1,0.4,0.2,0.6,0.3c0.5,0.2,1,0.5,1.5,0.7c0.2,0.1,0.3,0.1,0.5,0.2c0.6,0.3,1.2,0.5,1.8,0.7c0.1,0,0.2,0.1,0.2,0.1
			c2.1,0.8,4.3,1.6,6.5,2.3c0.1,0,0.1,0,0.2,0.1c0.7,0.2,1.3,0.4,2,0.6c0.1,0,0.3,0.1,0.4,0.1c0.6,0.2,1.2,0.3,1.8,0.5
			c0.2,0,0.4,0.1,0.6,0.1c0.6,0.1,1.1,0.3,1.7,0.4c0.2,0,0.4,0.1,0.6,0.1c0.5,0.1,1.1,0.2,1.6,0.4c0.2,0,0.4,0.1,0.7,0.1
			c0.5,0.1,1.1,0.2,1.6,0.3c0.2,0,0.4,0.1,0.7,0.1c0.5,0.1,1.1,0.2,1.6,0.3c0.2,0,0.4,0.1,0.7,0.1c0.5,0.1,1.1,0.2,1.6,0.2
			c0.2,0,0.4,0.1,0.6,0.1c0.6,0.1,1.1,0.1,1.7,0.2c0.2,0,0.4,0,0.6,0.1c0.6,0.1,1.2,0.1,1.8,0.2c0.2,0,0.3,0,0.5,0
			c0.7,0.1,1.3,0.1,2,0.1c0.1,0,0.2,0,0.3,0c1.6,0.1,3.2,0.1,4.8,0.1c0.1,0,0.1,0,0.2,0c1.2,0,2.5,0,3.7-0.1c0.2,0,0.3,0,0.5,0
			c1.2-0.1,2.5-0.1,3.7-0.2c0.2,0,0.4,0,0.6,0c1.2-0.1,2.4-0.3,3.6-0.4c0.2,0,0.4,0,0.6-0.1c1.2-0.2,2.4-0.4,3.6-0.6
			c0.1,0,0.2,0,0.3,0c0,0,0,0,0,0c40.6-7.3,72.2-40.6,76.8-82.1h2.8c3.3,0,6.3-1.2,8.6-3.3c2.7-2.4,4.4-5.9,4.4-9.8v-12.5
			C366,156,364.2,152.5,361.5,150.2z"/>
		<path id="XMLID_1794_" class="st21" d="M273.7,267.5c-0.1,0-0.2,0-0.3,0.1c-0.1,0-0.2,0-0.3,0c-1.2,0.2-2.4,0.4-3.6,0.6
			c-0.2,0-0.4,0-0.6,0.1c-1.2,0.2-2.4,0.3-3.6,0.4c-0.2,0-0.4,0-0.6,0.1c-1.2,0.1-2.5,0.2-3.7,0.2c-0.2,0-0.3,0-0.5,0
			c-1.2,0.1-2.5,0.1-3.7,0.1c-0.1,0-0.1,0-0.2,0c-1.6,0-3.2,0-4.8-0.1c-0.1,0-0.2,0-0.3,0c-0.7,0-1.3-0.1-2-0.1c-0.2,0-0.3,0-0.5,0
			c-0.6-0.1-1.2-0.1-1.8-0.2c-0.2,0-0.4,0-0.6-0.1c-0.6-0.1-1.1-0.1-1.7-0.2c-0.2,0-0.4-0.1-0.6-0.1c-0.6-0.1-1.1-0.2-1.7-0.2
			c-0.2,0-0.4-0.1-0.7-0.1c-0.5-0.1-1.1-0.2-1.6-0.3c-0.2,0-0.4-0.1-0.7-0.1c-0.5-0.1-1.1-0.2-1.6-0.3l-0.7-0.1
			c-0.5-0.1-1.1-0.2-1.6-0.4c-0.2,0-0.4-0.1-0.6-0.1c-0.6-0.1-1.1-0.3-1.7-0.4c-0.2,0-0.4-0.1-0.6-0.1c-0.6-0.2-1.2-0.3-1.8-0.5
			c-0.1,0-0.3-0.1-0.4-0.1c-0.7-0.2-1.3-0.4-2-0.6c-0.1,0-0.1,0-0.2-0.1c-2.2-0.7-4.4-1.4-6.5-2.3c-0.1,0-0.2-0.1-0.2-0.1
			c-0.6-0.2-1.2-0.5-1.8-0.7c-0.2-0.1-0.3-0.1-0.5-0.2c-0.5-0.2-1-0.4-1.5-0.7c-0.2-0.1-0.4-0.2-0.6-0.3c-0.5-0.2-0.9-0.4-1.4-0.7
			c-0.2-0.1-0.4-0.2-0.7-0.3c-0.4-0.2-0.9-0.4-1.3-0.7c-0.2-0.1-0.5-0.2-0.7-0.4c-0.4-0.2-0.8-0.4-1.3-0.7c-0.2-0.1-0.5-0.3-0.7-0.4
			c-0.4-0.2-0.8-0.5-1.2-0.7c-0.2-0.1-0.5-0.3-0.7-0.4c-0.4-0.2-0.8-0.5-1.2-0.7c-0.2-0.1-0.5-0.3-0.7-0.4c-0.4-0.2-0.8-0.5-1.2-0.7
			c-0.2-0.2-0.5-0.3-0.7-0.5c-0.4-0.2-0.8-0.5-1.1-0.7c-0.2-0.2-0.5-0.3-0.7-0.5c-0.4-0.3-0.8-0.5-1.1-0.8c-0.2-0.2-0.4-0.3-0.7-0.5
			c-0.4-0.3-0.8-0.6-1.2-0.9c-0.2-0.1-0.4-0.3-0.6-0.4c-0.5-0.4-1-0.8-1.5-1.1c-0.2-0.1-0.3-0.3-0.5-0.4c-0.5-0.4-0.9-0.7-1.4-1.1
			c-0.3-0.2-0.5-0.4-0.7-0.6c-0.3-0.3-0.6-0.5-0.9-0.8c-0.3-0.2-0.6-0.5-0.8-0.7c-0.3-0.2-0.5-0.5-0.8-0.7c-0.3-0.3-0.6-0.5-0.9-0.8
			c-0.2-0.2-0.5-0.5-0.7-0.7c-0.3-0.3-0.6-0.6-0.9-0.8c-0.2-0.2-0.5-0.5-0.7-0.7l-0.9-0.9c-0.2-0.2-0.4-0.4-0.7-0.7
			c-0.3-0.3-0.6-0.6-0.9-0.9c-0.2-0.2-0.4-0.4-0.6-0.7c-0.3-0.3-0.6-0.6-0.9-1c-0.2-0.2-0.4-0.4-0.6-0.6c-0.3-0.3-0.6-0.7-0.9-1
			c-0.2-0.2-0.3-0.4-0.5-0.6c-0.3-0.4-0.6-0.7-0.9-1.1c-0.1-0.2-0.3-0.4-0.4-0.5c-0.3-0.4-0.6-0.8-0.9-1.2c-0.1-0.1-0.2-0.3-0.3-0.4
			c-0.3-0.4-0.7-0.9-1-1.3c-0.1-0.1-0.1-0.2-0.2-0.3c-2.4-3.3-4.6-6.7-6.6-10.3c0,0-0.1-0.1-0.1-0.1c-0.3-0.6-0.6-1.1-0.9-1.7
			c0-0.1-0.1-0.2-0.1-0.2c-0.3-0.6-0.6-1.1-0.8-1.6c-0.1-0.1-0.1-0.2-0.1-0.3c-0.3-0.5-0.5-1.1-0.8-1.6c0-0.1-0.1-0.2-0.1-0.3
			c-0.3-0.6-0.5-1.1-0.8-1.7c0-0.1-0.1-0.2-0.1-0.3c-0.3-0.6-0.5-1.1-0.7-1.7c0-0.1-0.1-0.2-0.1-0.2c-0.2-0.6-0.5-1.2-0.7-1.8
			c0,0,0-0.1-0.1-0.1c-2.8-7.3-4.7-15-5.6-23.1v0h-2.4c-3,0-5.7-1-7.9-2.7c-3.1-2.4-5.1-6.1-5.1-10.3v-12.5c0-4.2,2-7.9,5.1-10.3
			c2.2-1.7,4.9-2.7,7.9-2.7h1.8c9.3,0,19-2.3,28.7-6.1c-1.3,6.9-2,14-2,21.2C189,214.9,225.6,258.8,273.7,267.5z"/>
		<path id="XMLID_1791_" class="st21" d="M262.3,189.5h-11.7c-3.8,0-7-3.1-7-7v0c0-3.8,3.1-7,7-7h11.7c3.8,0,7,3.1,7,7v0
			C269.3,186.4,266.2,189.5,262.3,189.5z"/>
		<path id="XMLID_1790_" class="st71" d="M224.7,171.2c0-6.2-5.1-11.3-11.3-11.3s-11.3,5.1-11.3,11.3"/>
		<path id="XMLID_1789_" class="st71" d="M310.6,171.2c0-6.2-5.1-11.3-11.3-11.3c-6.2,0-11.3,5.1-11.3,11.3"/>
		<path id="XMLID_1787_" class="st71" d="M245.5,211.2c0,6.2,5.1,11.3,11.3,11.3c6.2,0,11.3-5.1,11.3-11.3"/>
		<ellipse id="XMLID_1786_" class="st135" cx="212.6" cy="198.9" rx="12" ry="9.3"/>
		<ellipse id="XMLID_1785_" class="st135" cx="298.6" cy="198.9" rx="12" ry="9.3"/>
		<g id="XMLID_1752_">
			<path id="XMLID_1783_" class="st6" d="M347.1,77.4L232.5,36c-6.7-2.4-9.7-10.1-6.6-16.4l0.7-1.4c6.2-12.4,20.7-18.3,33.8-13.5
				l85.2,30.8c13.1,4.7,20.5,18.5,17.3,32l-0.4,1.5C361,75.9,353.8,79.8,347.1,77.4z"/>
			<path id="XMLID_1780_" class="st26" d="M268.2,48.9L232.5,36c-6.7-2.4-9.7-10.1-6.6-16.4l0.7-1.4c6.2-12.4,20.7-18.3,33.8-13.5
				l35.7,12.9c-13.1-4.7-27.6,1.1-33.8,13.5l-0.7,1.4C258.5,38.8,261.5,46.5,268.2,48.9z"/>
			<path id="XMLID_1755_" class="st26" d="M313.9,14.3l-15.6-5.6c-3-1.1-6.3,0.5-7.3,3.4l-1.1,3.1l26.3,9.5l1.1-3.1
				C318.4,18.7,316.9,15.4,313.9,14.3z"/>
		</g>
		<rect id="XMLID_1751_" x="230.3" y="275.1" class="st6" width="52.3" height="20"/>
		<rect id="XMLID_1750_" x="230.3" y="275.1" class="st26" width="12.9" height="20"/>
		<g id="XMLID_1746_">
			<path id="XMLID_1749_" class="st6" d="M310.1,283.6c-9.4,4.4-19,3.7-21.4-1.5c-2.4-5.2,3.2-13,12.6-17.3c6.8-3.2,15.1-0.9,19,0.5
				c1.4,0.5,2.1,2,1.6,3.4C320.5,272.6,317,280.4,310.1,283.6z"/>
			<path id="XMLID_1748_" class="st26" d="M290.9,284.6c-0.9-0.7-1.7-1.5-2.1-2.5c-2.4-5.2,3.2-13,12.6-17.3
				c6.8-3.2,15.1-0.9,19,0.5c1.4,0.5,2.1,2,1.6,3.4c-0.2,0.5-0.4,1.1-0.7,1.7c-4.3-1.4-11.3-2.7-17.3,0.1
				C296.4,274,291.3,279.8,290.9,284.6z"/>
		</g>
		<g id="XMLID_1741_">
			<path id="XMLID_1743_" class="st6" d="M299.7,305c-8.4-6.1-12.4-14.8-9-19.5c3.4-4.6,12.9-3.4,21.3,2.7
				c6.1,4.5,8.1,12.8,8.7,16.9c0.2,1.4-0.8,2.8-2.2,3C314.4,308.8,305.8,309.4,299.7,305z"/>
			<path id="XMLID_1742_" class="st26" d="M289.6,288.6c0.1-1.2,0.5-2.2,1.2-3.1c3.4-4.6,12.9-3.4,21.3,2.7
				c6.1,4.5,8.1,12.8,8.7,16.9c0.2,1.4-0.8,2.8-2.2,3c-0.5,0.1-1.2,0.2-1.8,0.2c-0.9-4.4-3.1-11.2-8.4-15.1
				C301.5,288.4,294,286.6,289.6,288.6z"/>
		</g>
		<circle id="XMLID_1739_" class="st6" cx="285.4" cy="285.1" r="8.6"/>
		<path id="XMLID_1738_" class="st26" d="M288.2,293.3c-0.8,0.3-1.7,0.4-2.6,0.4c-4.7,0-8.6-3.8-8.6-8.6c0-4.7,3.8-8.6,8.6-8.6
			c0.9,0,1.8,0.1,2.6,0.4c-3.5,1.1-6,4.4-6,8.2C282.2,288.9,284.7,292.2,288.2,293.3z"/>
		<path id="XMLID_1737_" class="st26" d="M330.2,389.3v79.4h-16.2v-79.4c0-4.1,3.6-7.4,8.1-7.4c2.2,0,4.2,0.8,5.7,2.2
			C329.3,385.4,330.2,387.2,330.2,389.3z"/>
		<rect id="XMLID_1735_" x="314.1" y="400.9" class="st96" width="16.2" height="25"/>
		<g id="XMLID_1595_">
			<g id="XMLID_1727_">
				<path id="XMLID_1934_" class="st15" d="M374.2,431.9v51.3c-11.9,6.2-24.3,11.5-37.2,15.8c-8.8,2.9-17.7,5.4-26.8,7.3
					c-14.3,3.1-29.1,5-44.2,5.6c-3.3,0.1-6.6,0.2-10,0.2c-5.7,0-11.3-0.2-16.9-0.6c-13.4-0.9-26.6-2.8-39.4-5.7
					c-7.9-1.8-15.7-3.9-23.4-6.4c-1.2-0.4-2.3-0.8-3.5-1.2c-12-4.1-23.5-9.1-34.6-14.9v-51.5c0-0.4,0-0.8,0-1.2
					c0.1-1.1,0.2-2.2,0.4-3.2c0.1-0.5,0.2-0.9,0.3-1.4c0.1-0.3,0.2-0.6,0.3-0.9c2.9-9.6,11.8-16.5,22.4-16.5h189.2
					c10.9,0,20,7.4,22.6,17.5c0.4,1.5,0.6,3,0.7,4.5C374.2,430.9,374.2,431.4,374.2,431.9z"/>
				<path id="XMLID_1884_" class="st67" d="M199.7,408.5c-10.9,0-20,7.4-22.6,17.5c-0.5,1.8-0.7,3.8-0.8,5.7v67.7
					c-1.2-0.4-2.3-0.8-3.5-1.2c-12-4.1-23.5-9.1-34.6-14.9v-51.5c0-0.4,0-0.8,0-1.2c0.1-1.1,0.2-2.2,0.4-3.2
					c0.1-0.5,0.2-0.9,0.3-1.4c0.1-0.3,0.2-0.6,0.3-0.9c2.9-9.6,11.8-16.5,22.4-16.5H199.7z"/>
				<path id="XMLID_1876_" class="st136" d="M337,443.9v55.1c-8.8,2.9-17.7,5.4-26.8,7.3v-62.4c0-0.1,0-0.2,0-0.2
					c0.1-3.6,1.5-6.9,3.9-9.2c2.4-2.4,5.8-3.9,9.5-3.9c2.4,0,4.7,0.6,6.7,1.8c1,0.6,2,1.3,2.8,2.2c0,0,0,0,0,0
					c2.4,2.4,3.8,5.6,3.9,9.2C337,443.7,337,443.8,337,443.9z"/>
				<path id="XMLID_1857_" class="st136" d="M266,443.9v67.9c-3.3,0.1-6.6,0.2-10,0.2c-5.7,0-11.3-0.2-16.9-0.6v-67.6
					c0-0.1,0-0.2,0-0.2c0.1-7.3,6.1-13.2,13.4-13.2c3.7,0,7.1,1.5,9.5,3.9c2.4,2.4,3.9,5.6,3.9,9.2C266,443.7,266,443.8,266,443.9z"
					/>
				<path id="XMLID_1873_" class="st136" d="M199.7,443.9v61.9c-7.9-1.8-15.7-3.9-23.4-6.4c-1.2-0.4-2.3-0.8-3.5-1.2v-54.3
					c0-0.1,0-0.2,0-0.2c0-3.4,1.3-6.4,3.5-8.8c0.8-0.8,1.6-1.6,2.5-2.2c2.1-1.4,4.7-2.2,7.4-2.2c3.7,0,7.1,1.5,9.5,3.9
					c2.4,2.4,3.9,5.6,3.9,9.2C199.7,443.7,199.7,443.8,199.7,443.9z"/>
			</g>
			<path id="XMLID_1726_" class="st9" d="M230.8,391.1h-26.2c-3.9,0-7,3.2-7,7v10.3h40.3v-10.3C237.9,394.3,234.7,391.1,230.8,391.1
				z"/>
			<path id="XMLID_1698_" class="st137" d="M216.9,391.1c-3.9,0-7,3.2-7,7v10.3h-12.2v-10.3c0-3.9,3.2-7,7-7H216.9z"/>
			<path id="XMLID_1693_" class="st9" d="M304.8,391.1h-26.2c-3.9,0-7,3.2-7,7v10.3h40.3v-10.3C311.8,394.3,308.7,391.1,304.8,391.1
				z"/>
			<path id="XMLID_1654_" class="st137" d="M290.9,391.1c-3.9,0-7,3.2-7,7v10.3h-12.2v-10.3c0-3.9,3.2-7,7-7H290.9z"/>
			<rect id="XMLID_1651_" x="281.1" y="345.7" class="st0" width="21.3" height="45.5"/>
			<rect id="XMLID_1649_" x="207.1" y="345.7" class="st0" width="21.3" height="45.5"/>
			<path id="XMLID_1598_" class="st9" d="M311.5,319.3H198.1c-3.8,0-6.8,3-6.8,6.8v12.8c0,3.8,3,6.8,6.8,6.8h113.5
				c3.8,0,6.8-3,6.8-6.8v-12.8C318.3,322.3,315.3,319.3,311.5,319.3z"/>
			<path id="XMLID_1597_" class="st137" d="M226.9,345.7H198c-3.8,0-6.8-3-6.8-6.8v-12.8c0-3.8,3-6.8,6.8-6.8h28.9
				c-3.8,0-6.8,3-6.8,6.8v12.8C220.2,342.6,223.2,345.7,226.9,345.7z"/>
		</g>
		<path id="XMLID_1594_" class="st20" d="M169.1,474.8h-29c-6.6,0-12-5.4-12-12v-20.5c0-6.6,5.4-12,12-12h29
			c12.2,0,22.1,9.9,22.1,22.1v0.1C191.3,464.9,181.3,474.8,169.1,474.8z"/>
		<path id="XMLID_1553_" class="st21" d="M191.3,452.6v0.1c0,12.2-9.9,22.1-22.1,22.1h-29c-6.6,0-12-5.4-12-12v-13.5
			c0,6.6,5.4,12,12,12h29c9.9,0,18.2-6.5,21.1-15.4C190.9,448,191.3,450.2,191.3,452.6z"/>
		<path id="XMLID_1550_" class="st20" d="M345.7,474.8l29,0c6.6,0,12-5.4,12-12v-20.5c0-6.6-5.4-12-12-12h-29
			c-12.2,0-22.1,9.9-22.1,22.1v0.1C323.5,464.9,333.4,474.8,345.7,474.8z"/>
		<path id="XMLID_1539_" class="st21" d="M323.5,452.6v0.1c0,12.2,9.9,22.1,22.1,22.1l29,0c6.6,0,12-5.4,12-12v-13.5
			c0,6.6-5.4,12-12,12l-29,0c-9.9,0-18.2-6.5-21.1-15.4C323.9,448,323.5,450.2,323.5,452.6z"/>
	</g>
</g>
</svg>
