<?xml version="1.0" encoding="utf-8"?>
<!-- Generator: Adobe Illustrator 22.0.1, SVG Export Plug-In . SVG Version: 6.00 Build 0)  -->
<svg version="1.1" xmlns="http://www.w3.org/2000/svg" xmlns:xlink="http://www.w3.org/1999/xlink" x="0px" y="0px"
	 viewBox="0 0 512 512" style="enable-background:new 0 0 512 512;" xml:space="preserve">
<style type="text/css">
	.st0{fill:#E9B12D;}
	.st1{fill:#A9E7D8;}
	.st2{fill:#76CFB1;}
	.st3{fill:#AE6B5D;}
	.st4{fill:#7770D3;}
	.st5{fill:#5BA0F5;}
	.st6{fill:#DA4545;}
	.st7{fill:#89CCFC;}
	.st8{fill:#CD462A;}
	.st9{fill:#514896;}
	.st10{fill:#5493A0;}
	.st11{fill:#CC6B5C;}
	.st12{fill:#62AA8D;}
	.st13{fill:#8ABAAB;}
	.st14{fill:#C3791F;}
	.st15{fill:#E39123;}
	.st16{fill:#FFFFFF;}
	.st17{fill:none;stroke:#FFFFFF;stroke-width:10;stroke-linecap:round;stroke-miterlimit:10;}
	.st18{fill:none;stroke:#5F55AB;stroke-width:10;stroke-linecap:round;stroke-miterlimit:10;}
	.st19{fill:#A9671C;}
	.st20{fill:#D5B3A7;}
	.st21{fill:#C09A8F;}
	.st22{fill:#487F87;}
	.st23{fill:#1B305C;}
	.st24{fill:#172945;}
	.st25{fill:none;}
	.st26{fill:#B62A2A;}
	.st27{fill:#325859;}
	.st28{fill:#3F6E71;}
	.st29{fill:#284646;}
	.st30{fill:#8F2727;}
	.st31{fill:#29477C;}
	.st32{fill:#5B9BEE;}
	.st33{fill:#487FDE;}
	.st34{fill:#CD9829;}
	.st35{fill:#9F2A2A;}
	.st36{fill:#4C3328;}
	.st37{fill:#E8B94A;}
	.st38{fill:#DDF8F1;}
	.st39{fill:#3E2A22;}
	.st40{fill:#D3A971;}
	.st41{fill:#C79A5B;}
	.st42{fill:#233E76;}
	.st43{fill:#21395F;}
	.st44{fill:#487D82;}
	.st45{fill:none;stroke:#C79A5B;stroke-width:10;stroke-linecap:round;stroke-miterlimit:10;}
	.st46{fill:#5E3E31;}
	.st47{fill:#AC3939;}
	.st48{fill:#CA9628;}
	.st49{fill:#AF8F88;}
	.st50{fill:#815048;}
	.st51{fill:#6F4232;}
	.st52{fill:#5F55AB;}
	.st53{fill:#192A48;}
	.st54{fill:#152336;}
	.st55{fill:#192B49;}
	.st56{fill:#264173;}
	.st57{fill:#B06F1E;}
	.st58{fill:#4E88C0;}
	.st59{fill:#83C3F1;}
	.st60{fill:#CF9929;}
	.st61{fill:none;stroke:#FFFFFF;stroke-width:10;stroke-linecap:round;stroke-linejoin:round;stroke-miterlimit:10;}
	.st62{fill:#EAC262;}
	.st63{fill:#D6D5D4;}
	.st64{fill:#6BBA9B;}
	.st65{fill:#63AA8F;}
	.st66{fill:none;stroke:#3E2A22;stroke-width:10;stroke-linecap:round;stroke-miterlimit:10;}
	.st67{fill:#CA7D1F;}
	.st68{fill:#213B64;}
	.st69{fill:#CDF8EC;}
	.st70{fill:#C59125;}
	.st71{fill:none;stroke:#C09A8F;stroke-width:10;stroke-linecap:round;stroke-miterlimit:10;}
	.st72{fill:#32579B;}
	.st73{fill:#172843;}
	.st74{fill:#D66767;}
	.st75{fill:#A74949;}
	.st76{fill:#EBC76F;}
	.st77{fill:#7A4940;}
	.st78{fill:#182A48;}
	.st79{fill:none;stroke:#A0794A;stroke-width:10;stroke-linecap:round;stroke-miterlimit:10;}
	.st80{fill:#C37A20;}
	.st81{fill:#D26D5C;}
	.st82{fill:#A45752;}
	.st83{fill:#284579;}
	.st84{fill:#88C7F4;}
	.st85{fill:#6EB6F0;}
	.st86{fill:#32221E;}
	.st87{fill:#E7A6A6;}
	.st88{fill:#C59191;}
	.st89{fill:#AA3B3B;}
	.st90{fill:#B83E3E;}
	.st91{fill:none;stroke:#5F55A9;stroke-width:10;stroke-linecap:round;stroke-miterlimit:10;}
	.st92{fill:#963838;}
	.st93{fill:#402B25;}
	.st94{fill:#6B6ABA;}
	.st95{fill:#BABABA;}
	.st96{fill:#D1D1D1;}
	.st97{fill:#264377;}
	.st98{fill:#A19BF5;}
	.st99{fill:#3C2A21;}
	.st100{fill:none;stroke:#4C3328;stroke-width:10;stroke-linecap:round;stroke-miterlimit:10;}
	.st101{fill:#C1781F;}
	.st102{fill:#E3A147;}
	.st103{fill:#F2D2A1;}
	.st104{fill:#4F372D;}
	.st105{fill:none;stroke:#DA4545;stroke-width:10;stroke-linecap:round;stroke-miterlimit:10;}
	.st106{fill:#AA3928;}
	.st107{fill:#8C2C22;}
	.st108{fill:#BF4336;}
	.st109{fill:#5797D4;}
	.st110{fill:#CFCFCF;}
	.st111{fill:#613A2E;}
	.st112{fill:none;stroke:#B18653;stroke-width:10;stroke-linecap:round;stroke-miterlimit:10;}
	.st113{fill:#B13B3B;}
	.st114{fill:#16263A;}
	.st115{fill:none;stroke:#16263A;stroke-width:10;stroke-miterlimit:10;}
	.st116{fill:#C87D20;}
	.st117{fill:#E4F0FD;}
	.st118{fill:#AA3737;}
	.st119{fill:#BF771F;}
	.st120{fill:none;stroke:#CD462A;stroke-width:10;stroke-linejoin:round;stroke-miterlimit:10;}
	.st121{fill:#5696D2;}
	.st122{fill:#C0771E;}
	.st123{fill:#9B5F1B;}
	.st124{fill:#A83A29;}
	.st125{fill:#E7A74F;}
	.st126{fill:#C9924C;}
	.st127{fill:#C58E48;}
	.st128{fill:#BE8844;}
	.st129{fill:#916939;}
	.st130{fill:#264275;}
	.st131{fill:#253F65;}
	.st132{fill:#182A45;}
	.st133{fill:#162336;}
	.st134{fill:#93C7B7;}
	.st135{fill:#E6A4A4;}
	.st136{fill:#B06B1D;}
	.st137{fill:#484185;}
	.st138{fill:#DB6E6E;}
	.st139{fill:#6BBA9A;}
	.st140{fill:#CACCCC;}
	.st141{fill:#D4D4D4;}
	.st142{fill:#A98881;}
	.st143{fill:#213A62;}
	.st144{fill:#A2837D;}
	.st145{fill:#6FB8F4;}
	.st146{fill:#9B9E9E;}
	.st147{fill:#B2B3B3;}
	.st148{fill:#20385D;}
	.st149{fill:#335AA8;}
	.st150{fill:#BCE7FD;}
	.st151{fill:#3B2921;}
	.st152{fill:#AD3C3C;}
	.st153{fill:#9D3838;}
	.st154{fill:#603F33;}
	.st155{fill:#4D868B;}
	.st156{fill:#A2DDFD;}
	.st157{fill:#ECB6B6;}
	.st158{fill:#E8A346;}
	.st159{fill:#514C94;}
	.st160{fill:#D2F1E8;}
	.st161{fill:#BDD6CE;}
	.st162{fill:#B93B29;}
	.st163{fill:#E0AD70;}
	.st164{fill:#C57C21;}
	.st165{fill:#EDA34A;}
	.st166{fill:#2F538F;}
	.st167{fill:#2B4B78;}
	.st168{fill:#65AF91;}
	.st169{fill:#A7CEFC;}
	.st170{fill:#98BDE2;}
	.st171{fill:#CFE5F7;}
	.st172{fill:#5492CD;}
	.st173{fill:#97CCBC;}
	.st174{fill:#5491CA;}
	.st175{fill:#EDC563;}
	.st176{fill:#423C79;}
	.st177{fill:#D3B1A5;}
	.st178{fill:#BE988D;}
	.st179{fill:#A7E5D6;}
	.st180{fill:#F2FFF9;}
	.st181{fill:#D64545;}
	.st182{fill:#A73B3B;}
	.st183{fill:#15233A;}
	.st184{fill:none;stroke:#BE988D;stroke-width:10;stroke-linecap:round;stroke-miterlimit:10;}
	.st185{fill:#AF3A29;}
	.st186{fill:#FAF9FF;}
	.st187{fill:#CACACC;}
	.st188{fill:#372720;}
	.st189{fill:#3F2C26;}
	.st190{fill:#2D201C;}
	.st191{fill:#3D6D6F;}
	.st192{fill:#5B54A8;}
	.st193{fill:#325799;}
	.st194{fill:#E8C26E;}
	.st195{fill:#254784;}
	.st196{fill:#5696D4;}
	.st197{fill:#4F8AB6;}
	.st198{fill:#5FA4AC;}
	.st199{fill:#AA3524;}
	.st200{fill:#D15F4D;}
	.st201{fill:#2B294C;}
	.st202{fill:#A43A2A;}
	.st203{fill:#E7AE2D;}
	.st204{fill:#CD9729;}
	.st205{fill:none;stroke:#AA8253;stroke-width:10;stroke-linecap:round;stroke-miterlimit:10;}
	.st206{fill:none;stroke:#E18F23;stroke-width:10;stroke-linecap:round;stroke-linejoin:round;stroke-miterlimit:10;}
	.st207{fill:#CF9828;}
	.st208{fill:#B88926;}
	.st209{fill:#A17623;}
	.st210{fill:#96CCBC;}
	.st211{fill:#CF9A2A;}
	.st212{fill:#C57B20;}
	.st213{fill:#C7F1E6;}
	.st214{fill:#DC6363;}
	.st215{fill:#E89F9F;}
	.st216{fill:#C88C8C;}
	.st217{fill:#C16E6E;}
	.st218{fill:#A46060;}
	.st219{fill:#AA3626;}
	.st220{fill:#87EDC4;}
	.st221{fill:#D86552;}
	.st222{fill:#BC7620;}
	.st223{fill:#BA741E;}
	.st224{fill:#8F8CE3;}
	.st225{fill:#3A2820;}
	.st226{fill:#AC7060;}
	.st227{fill:#915F55;}
	.st228{fill:#49332A;}
	.st229{fill:#2D1F1B;}
	.st230{fill:#69B7BE;}
	.st231{fill:#D6D6D6;}
	.st232{fill:#B8B8B8;}
	.st233{fill:#CACACA;}
	.st234{fill:#467B80;}
	.st235{fill:#C2EDE2;}
	.st236{fill:#A9574F;}
	.st237{fill:#5595D2;}
	.st238{fill:#955949;}
	.st239{fill:#7E4B42;}
	.st240{fill:#89CCF1;}
	.st241{fill:#DD584A;}
	.st242{fill:#C18F26;}
	.st243{fill:#B33C2A;}
	.st244{fill:#D1A771;}
	.st245{fill:#B42A2A;}
	.st246{fill:#325797;}
	.st247{fill:#9F3529;}
	.st248{fill:#EDCE80;}
	.st249{fill:#F0DBAC;}
	.st250{fill:#CFB478;}
	.st251{fill:#D4C29B;}
	.st252{fill:#993939;}
	.st253{fill:#D1AFA3;}
	.st254{fill:#BC968B;}
	.st255{fill:none;stroke:#BC968B;stroke-width:10;stroke-linecap:round;stroke-miterlimit:10;}
	.st256{fill:#814C3C;}
	.st257{fill:#C0EBE0;}
	.st258{fill:#A5E3D4;}
	.st259{fill:#15243C;}
	.st260{fill:#443E79;}
	.st261{fill:#F0FFF7;}
	.st262{fill:#9A764B;}
	.st263{fill:#826443;}
	.st264{fill:#D9AA74;}
	.st265{fill:#5DA186;}
	.st266{fill:#68B596;}
	.st267{fill:#E5C6BE;}
	.st268{fill:#D3B6B1;}
	.st269{fill:none;stroke:#BAA09C;stroke-width:10;stroke-linecap:round;stroke-miterlimit:10;}
	.st270{fill:#F4D78F;}
	.st271{fill:#20385F;}
	.st272{fill:#BA8727;}
	.st273{fill:#5A9C82;}
	.st274{fill:none;stroke:#E39123;stroke-width:10;stroke-linecap:round;stroke-linejoin:round;stroke-miterlimit:10;}
	.st275{fill:#60392D;}
	.st276{fill:#CCCCCC;}
	.st277{fill:#844F3E;}
	.st278{fill:#F3FFFB;}
	.st279{fill:#365E60;}
	.st280{fill:#D84545;}
	.st281{fill:#A83B3B;}
	.st282{fill:#253F70;}
	.st283{fill:#EAADAD;}
	.st284{fill:#443E7C;}
	.st285{fill:#3D6B9F;}
	.st286{fill:#4274BC;}
	.st287{fill:#AF3827;}
	.st288{fill:#E59D9D;}
	.st289{fill:#C48989;}
	.st290{fill:none;stroke:#9B621A;stroke-width:10;stroke-linecap:round;stroke-linejoin:round;stroke-miterlimit:10;}
	.st291{fill:#213A5E;}
	.st292{fill:#2D507A;}
	.st293{fill:#528EC8;}
	.st294{fill:#EFD696;}
	.st295{fill:#D1BA87;}
	.st296{fill:#FDFCFC;}
	.st297{fill:#86CBFC;}
	.st298{fill:#7AB7DA;}
	.st299{fill:#192C4C;}
	.st300{fill:#BCBCBC;}
	.st301{fill:#A13838;}
	.st302{fill:#75BDF6;}
	.st303{fill:#D0B1AA;}
	.st304{fill:#142233;}
	.st305{fill:#E6C4BB;}
	.st306{fill:#BDBDBD;}
	.st307{fill:#E8A192;}
	.st308{fill:#A43939;}
	.st309{fill:#162640;}
	.st310{fill:#27457C;}
	.st311{fill:#EFBE5E;}
	.st312{fill:#87EDC5;}
	.st313{fill:#A03838;}
	.st314{fill:#833232;}
	.st315{fill:#47417F;}
	.st316{fill:none;stroke:#915F55;stroke-width:10;stroke-linecap:round;stroke-miterlimit:10;}
	.st317{fill:#BC8B25;}
	.st318{fill:#473129;}
	.st319{fill:#67B394;}
	.st320{fill:#599A80;}
	.st321{fill:#B13D3D;}
</style>
<g id="BULINE">
	<circle id="XMLID_1075_" class="st4" cx="256" cy="256" r="256"/>
	<g>
	</g>
</g>
<g id="Icons">
	<g id="XMLID_1095_">
		<path id="XMLID_1860_" class="st98" d="M472.1,393.4c-6.2,9.8-13.1,19.1-20.6,28l-0.1,0.1c-0.7,0.8-1.4,1.6-2.1,2.4
			c-10.3,11.9-21.7,22.8-34,32.6c-0.3,0.2-0.5,0.4-0.8,0.6c-1.7,1.3-3.4,2.6-5.1,3.9c-6.8,5.1-13.9,9.9-21.3,14.3
			c-6.9,4.2-14,8-21.3,11.5c-10.7,5.2-21.8,9.6-33.3,13.2c-6.5,2.1-13.1,3.9-19.8,5.4c-0.1,0-0.2,0.1-0.2,0.1
			c-6.3,1.5-12.8,2.7-19.3,3.6c-3.7,0.6-7.4,1-11.1,1.4c-5.7,0.6-11.5,1-17.4,1.2c-0.2,0-0.4,0-0.6,0c-3,0.1-6,0.2-9,0.2
			c-2.3,0-4.5,0-6.8-0.1c-8.6-0.2-17.1-0.9-25.4-1.9c-15.6-2-30.7-5.3-45.3-9.9c-24-7.6-46.5-18.7-66.8-32.6
			c-4.8-3.3-9.6-6.8-14.1-10.4l-0.8-0.6c-1.5-1.2-3.1-2.5-4.6-3.7c-9.1-7.6-17.6-15.8-25.6-24.5c-1-1.1-2-2.2-2.9-3.3
			c-0.2-0.2-0.4-0.5-0.6-0.7c-0.1-0.1-0.2-0.2-0.3-0.4c-3.9-4.5-7.6-9.1-11.2-13.8c-7.7-10.2-14.6-21-20.8-32.3
			c13.1-44.6,39.4-83.6,74.4-112.2c8.2-6.7,16.9-12.9,26-18.4c1-0.6,1.9-1.2,2.9-1.8h0c14.3-8.4,29.5-15.3,45.6-20.4
			c7.2-2.3,14.7-4.3,22.2-5.9h0c15.3-3.3,31.2-5,47.6-5c3.7,0,7.5,0.1,11.2,0.3c12.6,0.6,25,2.2,37.1,4.8c0,0,0,0,0,0
			c13.2,2.8,25.9,6.8,38.1,11.8c10.8,4.4,21.2,9.7,31.1,15.6c6.7,4,13.1,8.4,19.4,13.1c0.6,0.5,1.3,1,1.9,1.4
			c7.5,5.7,14.6,11.9,21.3,18.5C440.3,310.1,462.5,349.3,472.1,393.4z"/>
		<path id="XMLID_1713_" class="st117" d="M501.4,106.6l-12.5-15.4c-1.2-1.4-2.7-2.2-4.3-2.2H382.8v47.2h101.8
			c1.7,0,3.3-0.8,4.4-2.3l12.5-16.1C503.9,114.6,503.9,109.6,501.4,106.6z"/>
		<path id="XMLID_1712_" class="st117" d="M501.4,201.6l-12.5-15.4c-1.2-1.4-2.7-2.2-4.3-2.2H382.8v47.2h101.8
			c1.7,0,3.3-0.8,4.4-2.3l12.5-16.1C503.9,209.7,503.9,204.7,501.4,201.6z"/>
		<path id="XMLID_1711_" class="st117" d="M267.5,260.4l12.5,15.4c1.2,1.4,2.7,2.2,4.3,2.2h101.8v-47.2H284.4
			c-1.7,0-3.3,0.8-4.4,2.3l-12.5,16.1C265,252.4,265,257.4,267.5,260.4z"/>
		<path id="XMLID_1710_" class="st117" d="M267.5,167.3l12.5,15.4c1.2,1.4,2.7,2.2,4.3,2.2h101.8v-47.2H284.4
			c-1.7,0-3.3,0.8-4.4,2.3l-12.5,16.1C265,159.3,265,164.2,267.5,167.3z"/>
		<g id="XMLID_1099_">
			<path id="XMLID_1709_" class="st26" d="M205.1,27h-29.3c-6,0-10.9,4.9-10.9,10.9v0H216v0C216,31.9,211.1,27,205.1,27z"/>
			<g id="XMLID_1106_">
				<path id="XMLID_1708_" class="st36" d="M267.2,112.5H109.9c-20.7,0-37.4,16.7-37.4,37.4V203h232.1v-53.1
					C304.6,129.2,287.8,112.5,267.2,112.5z"/>
				<path id="XMLID_1793_" class="st42" d="M313.4,375.1v130.4c-6.3,1.5-12.8,2.7-19.3,3.6c-3.7,0.6-7.4,1-11.1,1.4
					c-5.7,0.6-11.5,1-17.4,1.2c-0.2,0-0.4,0-0.6,0c-3,0.1-6,0.2-9,0.2c-2.3,0-4.5,0-6.8-0.1c-8.6-0.2-17.1-0.9-25.4-1.9
					c-15.6-2-30.7-5.3-45.3-9.9c-24-7.6-46.5-18.7-66.8-32.6c-4.8-3.3-9.6-6.8-14.1-10.4l-0.8-0.6c-1.5-1.2-3.1-2.5-4.6-3.7
					c-9.1-7.6-17.6-15.8-25.6-24.5c-1-1.1-2-2.2-2.9-3.3c-0.2-0.2-0.4-0.5-0.6-0.7v-49.1c0-19.6,12.8-36.2,30.6-41.9
					c4.2-1.3,8.7-2.1,13.3-2.1h162.6C293.8,331.2,313.4,350.8,313.4,375.1z"/>
				<path id="XMLID_1714_" class="st23" d="M136.1,331.2c-6.6,0-12.9,1.5-18.5,4.1c-6.8,3.2-12.7,8-17.1,14.1l0,0
					c-5.3,7.2-8.4,16.2-8.4,25.8v77.6c-9.1-7.6-17.6-15.8-25.6-24.5c-1-1.1-2-2.2-2.9-3.3v-49.8c0-19.4,12.5-35.8,30-41.7
					c4.4-1.5,9.1-2.3,14-2.3H136.1z"/>
				<path id="XMLID_1705_" class="st40" d="M189.7,391.7L189.7,391.7c-27.3,0-49.4-22.1-49.4-49.4v-11.1h98.9v11.1
					C239.2,369.6,217,391.7,189.7,391.7z"/>
				<path id="XMLID_1704_" class="st40" d="M195.5,349.5h-14.1c-11.3,0-20.5-9.2-20.5-20.5v-33.8c0-11.3,9.2-20.5,20.5-20.5h14.1
					c11.3,0,20.5,9.2,20.5,20.5V329C216,340.3,206.8,349.5,195.5,349.5z"/>
				<path id="XMLID_1690_" class="st41" d="M198.1,349.3c-1,0.1-1.9,0.2-3,0.2H181c-11.3,0-20.5-9.2-20.5-20.5v-33.8
					c0-11.3,9.2-20.5,20.5-20.5h14.1c1,0,2,0.1,3,0.2c-9.9,1.4-17.5,10-17.5,20.3V329C180.5,339.3,188.2,347.9,198.1,349.3z"/>
				<path id="XMLID_1684_" class="st40" d="M290.8,180.1h-2.3v-15.6c0-55.3-44.8-100.1-100.1-100.1h0
					c-55.3,0-100.1,44.8-100.1,100.1v45.2c0,55.3,44.8,100.1,100.1,100.1h0c51.5,0,93.9-38.9,99.5-88.9h2.9
					c7.6,0,13.8-6.2,13.8-13.8v-13.2C304.6,186.2,298.4,180.1,290.8,180.1z"/>
				<path id="XMLID_1658_" class="st41" d="M123.9,209.7v-45.3c0-49.2,35.5-90.1,82.3-98.5c-5.8-1-11.8-1.6-17.9-1.6
					c-55.3,0-100.1,44.8-100.1,100.1v15.6h-1.9c-7.6,0-13.8,6.2-13.8,13.8v13.2c0,7.6,6.2,13.8,13.8,13.8h2.5
					c5.6,50,48,88.9,99.5,88.9c6.1,0,12.1-0.5,17.9-1.6C159.4,299.8,123.9,258.9,123.9,209.7z"/>
				<circle id="XMLID_1656_" class="st23" cx="139.3" cy="193.8" r="13.8"/>
				<circle id="XMLID_1633_" class="st16" cx="142.8" cy="189.3" r="6.1"/>
				<circle id="XMLID_1608_" class="st23" cx="235.7" cy="193.8" r="13.8"/>
				<circle id="XMLID_1297_" class="st16" cx="239.2" cy="189.3" r="6.1"/>
				<path id="XMLID_1296_" class="st41" d="M194.6,225.3h-12.4c-4.1,0-7.4-3.3-7.4-7.4v0c0-4.1,3.3-7.4,7.4-7.4h12.4
					c4.1,0,7.4,3.3,7.4,7.4v0C201.9,222,198.6,225.3,194.6,225.3z"/>
				<path id="XMLID_1295_" class="st112" d="M176.6,248.4c6.5,6.5,17.1,6.5,23.6,0"/>
				<line id="XMLID_1294_" class="st112" x1="179.8" y1="269" x2="196.9" y2="269"/>
				<path id="XMLID_1766_" class="st40" d="M111.7,428.2v39.3c-4.8-3.3-9.6-6.8-14.1-10.4l-0.8-0.6c-1.5-1.2-3.1-2.5-4.6-3.7
					c-9.1-7.6-17.6-15.8-25.6-24.5H111.7z"/>
				<path id="XMLID_1763_" class="st41" d="M92.1,428.2v24.5c-9.1-7.6-17.6-15.8-25.6-24.5H92.1z"/>
				<path id="XMLID_1757_" class="st40" d="M313.7,428.2v77.3c-0.1,0-0.2,0.1-0.2,0.1c-6.3,1.5-12.8,2.7-19.3,3.6
					c-3.7,0.6-7.4,1-11.1,1.4c-5.7,0.6-11.5,1-17.4,1.2c-0.2,0-0.4,0-0.6,0v-83.7H313.7z"/>
				<path id="XMLID_1764_" class="st41" d="M294.2,428.2v81c-3.7,0.6-7.4,1-11.1,1.4c-5.7,0.6-11.5,1-17.4,1.2v-83.6H294.2z"/>
				<path id="XMLID_1289_" class="st6" d="M147.6,37.9h85.4c42.8,0,77.4,34.7,77.4,77.4v30.4H70.1v-30.4
					C70.1,72.6,104.8,37.9,147.6,37.9z"/>
				<path id="XMLID_1288_" class="st118" d="M177.6,37.9h25.3c33.4,0,60.4,27,60.4,60.4v47.4H117.2V98.3
					C117.2,65,144.3,37.9,177.6,37.9z"/>
				<path id="XMLID_1287_" class="st26" d="M301.2,145.7H18.4c-6.1,0-11.1-5-11.1-11.1V132c0-6.1,5-11.1,11.1-11.1h291.8v15.8
					C310.3,141.7,306.2,145.7,301.2,145.7z"/>
				<path id="XMLID_1771_" class="st15" d="M283,510.6c-5.7,0.6-11.5,1-17.4,1.2c-0.2,0-0.4,0-0.6,0c-3,0.1-6,0.2-9,0.2
					c-2.3,0-4.5,0-6.8-0.1c-8.6-0.2-17.1-0.9-25.4-1.9l-42.5-55.4v0l-25.1-32.7h0l-55.7-72.6l-3-3.9v0c-2.7-3.6-4-7.8-3.9-11.9
					c0-0.1,0-0.1,0-0.2c0.1-4.8,2.1-9.5,5.7-13.1c0.3-0.3,0.5-0.5,0.8-0.8c0.3-0.2,0.6-0.5,0.9-0.7l6.8-5.2
					c3.7-2.8,8.1-4.1,12.4-3.9c0.2,0,0.3,0,0.5,0c0.2,0,0.4,0,0.6,0.1c0.1,0,0.2,0,0.2,0c0.3,0,0.7,0.1,1,0.1h0
					c0.3,0.1,0.7,0.1,1,0.2c0.2,0,0.5,0.1,0.7,0.2c0.2,0,0.3,0.1,0.5,0.1c0.3,0.1,0.6,0.2,0.9,0.3c0.3,0.1,0.5,0.2,0.8,0.3
					c0.2,0.1,0.3,0.1,0.5,0.2c0.2,0.1,0.4,0.2,0.5,0.2c1,0.5,2,1.1,3,1.8c0.3,0.2,0.5,0.4,0.8,0.6c0.1,0,0.1,0.1,0.1,0.1
					c1.1,0.9,2.2,2,3.1,3.2l10.9,14.2l46.4,60.5l0.7,0.9l25.1,32.7l47.5,61.9l0.6,0.8L283,510.6z"/>
				<path id="XMLID_1776_" class="st119" d="M249.2,511.9c-8.6-0.2-17.1-0.9-25.4-1.9l-42.5-55.4l-25.1-32.7l-55.7-72.6l-3-3.9v0
					c-2.7-3.6-4-7.8-3.9-11.9c0-0.1,0-0.1,0-0.2c0.1-4.8,2.1-9.5,5.7-13.1c0.5-0.5,1.1-1,1.7-1.5l6.8-5.2c3.7-2.8,8.1-4.1,12.4-3.9
					c0.2,0,0.3,0,0.5,0c0.2,0,0.4,0,0.6,0.1c0.1,0,0.2,0,0.2,0c0.3,0,0.7,0.1,1,0.1h0c0.3,0.1,0.7,0.1,1,0.2c0.2,0,0.5,0.1,0.7,0.2
					c0.2,0,0.3,0.1,0.5,0.1c0.3,0.1,0.6,0.2,0.9,0.3c0.3,0.1,0.5,0.2,0.8,0.3c0.2,0.1,0.3,0.1,0.5,0.2c0.2,0.1,0.4,0.2,0.5,0.2
					c1,0.5,2,1.1,3,1.8c0.3,0.2,0.5,0.4,0.8,0.6c0.1,0,0.1,0.1,0.1,0.1l-6.4,4.9c-4.1,3.2-6.6,7.7-7.2,12.5
					c-0.2,1.3-0.2,2.7-0.1,4.1c0.3,3.6,1.5,7.1,3.9,10.1l49.5,64.6l25.1,32.7L249.2,511.9z"/>
				
					<rect id="XMLID_1284_" x="154.8" y="402.9" transform="matrix(0.7776 -0.6288 0.6288 0.7776 -224.6556 211.804)" class="st120" width="64.6" height="41.2"/>
				<path id="XMLID_1285_" class="st36" d="M247.5,145.7c0,0-125.3,35.4-164.5,34.3l3.5-34.3H247.5z"/>
			</g>
		</g>
		<path id="XMLID_1781_" class="st42" d="M409.3,80.3V461c-6.8,5.1-13.9,9.9-21.3,14.3c-6.9,4.2-14,8-21.3,11.5V80.3
			c0-10.9,8.2-19.9,18.8-21.1c0.5-0.1,0.9-0.1,1.4-0.1c0.4,0,0.7,0,1.1,0c0.4,0,0.7,0,1.1,0h0c0.2,0,0.4,0,0.6,0
			c0.4,0,0.8,0.1,1.2,0.2c4.7,0.6,8.9,2.8,12.1,6C406.9,69.1,409.3,74.4,409.3,80.3z"/>
		<path id="XMLID_1775_" class="st23" d="M398.7,62.2c-6.3,4.1-10.6,11.9-10.6,20.8v392.3c-6.9,4.2-14,8-21.3,11.5V83.1
			c0-12.9,8.9-23.4,20.2-24c0.4,0,0.7,0,1.1,0c0.4,0,0.7,0,1.1,0h0c0.2,0,0.4,0,0.6,0C393,59.4,396,60.5,398.7,62.2z"/>
	</g>
</g>
</svg>
