<?xml version="1.0" encoding="utf-8"?>
<!-- Generator: Adobe Illustrator 22.0.1, SVG Export Plug-In . SVG Version: 6.00 Build 0)  -->
<svg version="1.1" xmlns="http://www.w3.org/2000/svg" xmlns:xlink="http://www.w3.org/1999/xlink" x="0px" y="0px"
	 viewBox="0 0 512 512" style="enable-background:new 0 0 512 512;" xml:space="preserve">
<style type="text/css">
	.st0{fill:#E9B12D;}
	.st1{fill:#A9E7D8;}
	.st2{fill:#76CFB1;}
	.st3{fill:#AE6B5D;}
	.st4{fill:#7770D3;}
	.st5{fill:#5BA0F5;}
	.st6{fill:#DA4545;}
	.st7{fill:#89CCFC;}
	.st8{fill:#CD462A;}
	.st9{fill:#514896;}
	.st10{fill:#5493A0;}
	.st11{fill:#CC6B5C;}
	.st12{fill:#62AA8D;}
	.st13{fill:#8ABAAB;}
	.st14{fill:#C3791F;}
	.st15{fill:#E39123;}
	.st16{fill:#FFFFFF;}
	.st17{fill:none;stroke:#FFFFFF;stroke-width:10;stroke-linecap:round;stroke-miterlimit:10;}
	.st18{fill:none;stroke:#5F55AB;stroke-width:10;stroke-linecap:round;stroke-miterlimit:10;}
	.st19{fill:#A9671C;}
	.st20{fill:#D5B3A7;}
	.st21{fill:#C09A8F;}
	.st22{fill:#487F87;}
	.st23{fill:#1B305C;}
	.st24{fill:#172945;}
	.st25{fill:none;}
	.st26{fill:#B62A2A;}
	.st27{fill:#325859;}
	.st28{fill:#3F6E71;}
	.st29{fill:#284646;}
	.st30{fill:#8F2727;}
	.st31{fill:#29477C;}
	.st32{fill:#5B9BEE;}
	.st33{fill:#487FDE;}
	.st34{fill:#CD9829;}
	.st35{fill:#9F2A2A;}
	.st36{fill:#4C3328;}
	.st37{fill:#E8B94A;}
	.st38{fill:#DDF8F1;}
	.st39{fill:#3E2A22;}
	.st40{fill:#D3A971;}
	.st41{fill:#C79A5B;}
	.st42{fill:#233E76;}
	.st43{fill:#21395F;}
	.st44{fill:#487D82;}
	.st45{fill:none;stroke:#C79A5B;stroke-width:10;stroke-linecap:round;stroke-miterlimit:10;}
	.st46{fill:#5E3E31;}
	.st47{fill:#AC3939;}
	.st48{fill:#CA9628;}
	.st49{fill:#AF8F88;}
	.st50{fill:#815048;}
	.st51{fill:#6F4232;}
	.st52{fill:#5F55AB;}
	.st53{fill:#192A48;}
	.st54{fill:#152336;}
	.st55{fill:#192B49;}
	.st56{fill:#264173;}
	.st57{fill:#B06F1E;}
	.st58{fill:#4E88C0;}
	.st59{fill:#83C3F1;}
	.st60{fill:#CF9929;}
	.st61{fill:none;stroke:#FFFFFF;stroke-width:10;stroke-linecap:round;stroke-linejoin:round;stroke-miterlimit:10;}
	.st62{fill:#EAC262;}
	.st63{fill:#D6D5D4;}
	.st64{fill:#6BBA9B;}
	.st65{fill:#63AA8F;}
	.st66{fill:none;stroke:#3E2A22;stroke-width:10;stroke-linecap:round;stroke-miterlimit:10;}
	.st67{fill:#CA7D1F;}
	.st68{fill:#213B64;}
	.st69{fill:#CDF8EC;}
	.st70{fill:#C59125;}
	.st71{fill:none;stroke:#C09A8F;stroke-width:10;stroke-linecap:round;stroke-miterlimit:10;}
	.st72{fill:#32579B;}
	.st73{fill:#172843;}
	.st74{fill:#D66767;}
	.st75{fill:#A74949;}
	.st76{fill:#EBC76F;}
	.st77{fill:#7A4940;}
	.st78{fill:#182A48;}
	.st79{fill:none;stroke:#A0794A;stroke-width:10;stroke-linecap:round;stroke-miterlimit:10;}
	.st80{fill:#C37A20;}
	.st81{fill:#D26D5C;}
	.st82{fill:#A45752;}
	.st83{fill:#284579;}
	.st84{fill:#88C7F4;}
	.st85{fill:#6EB6F0;}
	.st86{fill:#32221E;}
	.st87{fill:#E7A6A6;}
	.st88{fill:#C59191;}
	.st89{fill:#AA3B3B;}
	.st90{fill:#B83E3E;}
	.st91{fill:none;stroke:#5F55A9;stroke-width:10;stroke-linecap:round;stroke-miterlimit:10;}
	.st92{fill:#963838;}
	.st93{fill:#402B25;}
	.st94{fill:#6B6ABA;}
	.st95{fill:#BABABA;}
	.st96{fill:#D1D1D1;}
	.st97{fill:#264377;}
	.st98{fill:#A19BF5;}
	.st99{fill:#3C2A21;}
	.st100{fill:none;stroke:#4C3328;stroke-width:10;stroke-linecap:round;stroke-miterlimit:10;}
	.st101{fill:#C1781F;}
	.st102{fill:#E3A147;}
	.st103{fill:#F2D2A1;}
	.st104{fill:#4F372D;}
	.st105{fill:none;stroke:#DA4545;stroke-width:10;stroke-linecap:round;stroke-miterlimit:10;}
	.st106{fill:#AA3928;}
	.st107{fill:#8C2C22;}
	.st108{fill:#BF4336;}
	.st109{fill:#5797D4;}
	.st110{fill:#CFCFCF;}
	.st111{fill:#613A2E;}
	.st112{fill:none;stroke:#B18653;stroke-width:10;stroke-linecap:round;stroke-miterlimit:10;}
	.st113{fill:#B13B3B;}
	.st114{fill:#16263A;}
	.st115{fill:none;stroke:#16263A;stroke-width:10;stroke-miterlimit:10;}
	.st116{fill:#C87D20;}
	.st117{fill:#E4F0FD;}
	.st118{fill:#AA3737;}
	.st119{fill:#BF771F;}
	.st120{fill:none;stroke:#CD462A;stroke-width:10;stroke-linejoin:round;stroke-miterlimit:10;}
	.st121{fill:#5696D2;}
	.st122{fill:#C0771E;}
	.st123{fill:#9B5F1B;}
	.st124{fill:#A83A29;}
	.st125{fill:#E7A74F;}
	.st126{fill:#C9924C;}
	.st127{fill:#C58E48;}
	.st128{fill:#BE8844;}
	.st129{fill:#916939;}
	.st130{fill:#264275;}
	.st131{fill:#253F65;}
	.st132{fill:#182A45;}
	.st133{fill:#162336;}
	.st134{fill:#93C7B7;}
	.st135{fill:#E6A4A4;}
	.st136{fill:#B06B1D;}
	.st137{fill:#484185;}
	.st138{fill:#DB6E6E;}
	.st139{fill:#6BBA9A;}
	.st140{fill:#CACCCC;}
	.st141{fill:#D4D4D4;}
	.st142{fill:#A98881;}
	.st143{fill:#213A62;}
	.st144{fill:#A2837D;}
	.st145{fill:#6FB8F4;}
	.st146{fill:#9B9E9E;}
	.st147{fill:#B2B3B3;}
	.st148{fill:#20385D;}
	.st149{fill:#335AA8;}
	.st150{fill:#BCE7FD;}
	.st151{fill:#3B2921;}
	.st152{fill:#AD3C3C;}
	.st153{fill:#9D3838;}
	.st154{fill:#603F33;}
	.st155{fill:#4D868B;}
	.st156{fill:#A2DDFD;}
	.st157{fill:#ECB6B6;}
	.st158{fill:#E8A346;}
	.st159{fill:#514C94;}
	.st160{fill:#D2F1E8;}
	.st161{fill:#BDD6CE;}
	.st162{fill:#B93B29;}
	.st163{fill:#E0AD70;}
	.st164{fill:#C57C21;}
	.st165{fill:#EDA34A;}
	.st166{fill:#2F538F;}
	.st167{fill:#2B4B78;}
	.st168{fill:#65AF91;}
	.st169{fill:#A7CEFC;}
	.st170{fill:#98BDE2;}
	.st171{fill:#CFE5F7;}
	.st172{fill:#5492CD;}
	.st173{fill:#97CCBC;}
	.st174{fill:#5491CA;}
	.st175{fill:#EDC563;}
	.st176{fill:#423C79;}
	.st177{fill:#D3B1A5;}
	.st178{fill:#BE988D;}
	.st179{fill:#A7E5D6;}
	.st180{fill:#F2FFF9;}
	.st181{fill:#D64545;}
	.st182{fill:#A73B3B;}
	.st183{fill:#15233A;}
	.st184{fill:none;stroke:#BE988D;stroke-width:10;stroke-linecap:round;stroke-miterlimit:10;}
	.st185{fill:#AF3A29;}
	.st186{fill:#FAF9FF;}
	.st187{fill:#CACACC;}
	.st188{fill:#372720;}
	.st189{fill:#3F2C26;}
	.st190{fill:#2D201C;}
	.st191{fill:#3D6D6F;}
	.st192{fill:#5B54A8;}
	.st193{fill:#325799;}
	.st194{fill:#E8C26E;}
	.st195{fill:#254784;}
	.st196{fill:#5696D4;}
	.st197{fill:#4F8AB6;}
	.st198{fill:#5FA4AC;}
	.st199{fill:#AA3524;}
	.st200{fill:#D15F4D;}
	.st201{fill:#2B294C;}
	.st202{fill:#A43A2A;}
	.st203{fill:#E7AE2D;}
	.st204{fill:#CD9729;}
	.st205{fill:none;stroke:#AA8253;stroke-width:10;stroke-linecap:round;stroke-miterlimit:10;}
	.st206{fill:none;stroke:#E18F23;stroke-width:10;stroke-linecap:round;stroke-linejoin:round;stroke-miterlimit:10;}
	.st207{fill:#CF9828;}
	.st208{fill:#B88926;}
	.st209{fill:#A17623;}
	.st210{fill:#96CCBC;}
	.st211{fill:#CF9A2A;}
	.st212{fill:#C57B20;}
	.st213{fill:#C7F1E6;}
	.st214{fill:#DC6363;}
	.st215{fill:#E89F9F;}
	.st216{fill:#C88C8C;}
	.st217{fill:#C16E6E;}
	.st218{fill:#A46060;}
	.st219{fill:#AA3626;}
	.st220{fill:#87EDC4;}
	.st221{fill:#D86552;}
	.st222{fill:#BC7620;}
	.st223{fill:#BA741E;}
	.st224{fill:#8F8CE3;}
	.st225{fill:#3A2820;}
	.st226{fill:#AC7060;}
	.st227{fill:#915F55;}
	.st228{fill:#49332A;}
	.st229{fill:#2D1F1B;}
	.st230{fill:#69B7BE;}
	.st231{fill:#D6D6D6;}
	.st232{fill:#B8B8B8;}
	.st233{fill:#CACACA;}
	.st234{fill:#467B80;}
	.st235{fill:#C2EDE2;}
	.st236{fill:#A9574F;}
	.st237{fill:#5595D2;}
	.st238{fill:#955949;}
	.st239{fill:#7E4B42;}
	.st240{fill:#89CCF1;}
	.st241{fill:#DD584A;}
	.st242{fill:#C18F26;}
	.st243{fill:#B33C2A;}
	.st244{fill:#D1A771;}
	.st245{fill:#B42A2A;}
	.st246{fill:#325797;}
	.st247{fill:#9F3529;}
	.st248{fill:#EDCE80;}
	.st249{fill:#F0DBAC;}
	.st250{fill:#CFB478;}
	.st251{fill:#D4C29B;}
	.st252{fill:#993939;}
	.st253{fill:#D1AFA3;}
	.st254{fill:#BC968B;}
	.st255{fill:none;stroke:#BC968B;stroke-width:10;stroke-linecap:round;stroke-miterlimit:10;}
	.st256{fill:#814C3C;}
	.st257{fill:#C0EBE0;}
	.st258{fill:#A5E3D4;}
	.st259{fill:#15243C;}
	.st260{fill:#443E79;}
	.st261{fill:#F0FFF7;}
	.st262{fill:#9A764B;}
	.st263{fill:#826443;}
	.st264{fill:#D9AA74;}
	.st265{fill:#5DA186;}
	.st266{fill:#68B596;}
	.st267{fill:#E5C6BE;}
	.st268{fill:#D3B6B1;}
	.st269{fill:none;stroke:#BAA09C;stroke-width:10;stroke-linecap:round;stroke-miterlimit:10;}
	.st270{fill:#F4D78F;}
	.st271{fill:#20385F;}
	.st272{fill:#BA8727;}
	.st273{fill:#5A9C82;}
	.st274{fill:none;stroke:#E39123;stroke-width:10;stroke-linecap:round;stroke-linejoin:round;stroke-miterlimit:10;}
	.st275{fill:#60392D;}
	.st276{fill:#CCCCCC;}
	.st277{fill:#844F3E;}
	.st278{fill:#F3FFFB;}
	.st279{fill:#365E60;}
	.st280{fill:#D84545;}
	.st281{fill:#A83B3B;}
	.st282{fill:#253F70;}
	.st283{fill:#EAADAD;}
	.st284{fill:#443E7C;}
	.st285{fill:#3D6B9F;}
	.st286{fill:#4274BC;}
	.st287{fill:#AF3827;}
	.st288{fill:#E59D9D;}
	.st289{fill:#C48989;}
	.st290{fill:none;stroke:#9B621A;stroke-width:10;stroke-linecap:round;stroke-linejoin:round;stroke-miterlimit:10;}
	.st291{fill:#213A5E;}
	.st292{fill:#2D507A;}
	.st293{fill:#528EC8;}
	.st294{fill:#EFD696;}
	.st295{fill:#D1BA87;}
	.st296{fill:#FDFCFC;}
	.st297{fill:#86CBFC;}
	.st298{fill:#7AB7DA;}
	.st299{fill:#192C4C;}
	.st300{fill:#BCBCBC;}
	.st301{fill:#A13838;}
	.st302{fill:#75BDF6;}
	.st303{fill:#D0B1AA;}
	.st304{fill:#142233;}
	.st305{fill:#E6C4BB;}
	.st306{fill:#BDBDBD;}
	.st307{fill:#E8A192;}
	.st308{fill:#A43939;}
	.st309{fill:#162640;}
	.st310{fill:#27457C;}
	.st311{fill:#EFBE5E;}
	.st312{fill:#87EDC5;}
	.st313{fill:#A03838;}
	.st314{fill:#833232;}
	.st315{fill:#47417F;}
	.st316{fill:none;stroke:#915F55;stroke-width:10;stroke-linecap:round;stroke-miterlimit:10;}
	.st317{fill:#BC8B25;}
	.st318{fill:#473129;}
	.st319{fill:#67B394;}
	.st320{fill:#599A80;}
	.st321{fill:#B13D3D;}
</style>
<g id="BULINE">
	<circle id="XMLID_1088_" class="st10" cx="256" cy="256" r="256"/>
	<g>
	</g>
</g>
<g id="Icons">
	<g id="XMLID_2923_">
		<path id="XMLID_3266_" class="st230" d="M512,256c0,21-2.5,41.3-7.3,60.8c-19,17.8-40.7,32.7-64.5,43.9
			c-19.7,9.3-40.8,16.1-62.9,20c-4.9,0.9-9.9,1.6-14.9,2.1c-9.4,1.1-18.9,1.6-28.6,1.6c-2.5,0-4.9,0-7.4-0.1
			c-6-0.2-11.9-0.6-17.7-1.1c-0.2,0-0.4,0-0.7-0.1c-3-0.3-6-0.7-9-1.1c-7.3-1-14.4-2.3-21.5-4c-29.3-6.7-56.5-18.6-80.9-34.7
			c-2.9-1.9-5.8-3.9-8.6-5.9c-4-2.9-7.9-5.8-11.7-8.9c-2.6-2.1-5.2-4.3-7.7-6.5c-2.8-2.5-5.6-5-8.2-7.6
			c-5.8-5.6-11.3-11.5-16.5-17.6c-1.3-1.6-2.7-3.1-4-4.8c-0.1-0.2-0.3-0.3-0.4-0.5c-22.4-27.7-38.9-60.2-47.9-95.8
			C88.3,182.1,86,167.7,85,153c0,0,0-0.1,0-0.2c-0.4-5.4-0.6-10.9-0.6-16.4c0-0.1,0-0.1,0-0.2c0-0.5,0-0.9,0-1.4
			c0-11.1,0.7-22,2.1-32.7c0.1-0.8,0.2-1.7,0.3-2.5c0,0,0-0.1,0-0.1c1-6.8,2.2-13.6,3.7-20.2c1.9-8.3,4.2-16.5,6.9-24.4
			c3.7-10.9,8.1-21.5,13.2-31.6c0,0,0-0.1,0-0.1c18.6-5.9,37.2-9,55.8-9.3c1.6,0,3.1,0,4.7,0c0.3,0,0.6,0,0.9,0
			C198.4,5,226.6,0,256,0C397.4,0,512,114.6,512,256z"/>
		<g id="XMLID_2948_">
			<rect id="XMLID_3105_" x="341.6" y="302.2" class="st6" width="61.5" height="63.5"/>
			<g id="XMLID_3072_">
				<path id="XMLID_3156_" class="st6" d="M299.1,367.9v140.5c-7.1,1.2-14.3,2.1-21.6,2.7c-7.1,0.6-14.3,0.9-21.5,0.9
					c-27.5,0-54-4.3-78.8-12.4c-0.2-0.1-0.5-0.2-0.7-0.2c-5.5-1.8-10.9-3.8-16.3-5.9c-1.4-0.6-2.9-1.2-4.3-1.8
					c-10.7-4.5-20.9-9.8-30.8-15.6c-7.8-4.6-15.4-9.7-22.6-15.2c-12.2-9.1-23.5-19.4-33.9-30.5c-11.1-11.9-21-24.9-29.7-38.7
					c-0.2-0.4-0.4-0.7-0.7-1.1v-22.7c0-13.2,5.6-25,14.4-33.3c3.8-3.6,8.3-6.6,13.2-8.7c5.6-2.4,11.7-3.7,18.1-3.7h169.4
					c22.8,0,41.8,16.7,45.2,38.6C298.9,363.1,299.1,365.5,299.1,367.9z"/>
				<path id="XMLID_3103_" class="st226" d="M176.2,341.2h-14.7c-11.8,0-21.4-9.6-21.4-21.4v-35.2c0-11.8,9.6-21.4,21.4-21.4h14.7
					c11.8,0,21.4,9.6,21.4,21.4v35.2C197.6,331.7,188,341.2,176.2,341.2z"/>
				<path id="XMLID_3102_" class="st227" d="M178.9,341c-1,0.1-2,0.2-3.1,0.2h-14.7c-11.8,0-21.4-9.6-21.4-21.4v-35.2
					c0-11.8,9.6-21.4,21.4-21.4h14.7c1,0,2.1,0.1,3.1,0.2c-10.3,1.5-18.3,10.4-18.3,21.2v35.2C160.6,330.6,168.6,339.5,178.9,341z"
					/>
				<path id="XMLID_3139_" class="st26" d="M114.3,322.1c-2.6,0-5.1,0.2-7.6,0.6c-5.5,0.9-10.7,2.8-15.3,5.5
					c-7.4,4.3-13.5,10.6-17.5,18.1c-3.4,6.4-5.3,13.7-5.3,21.5v62.5c-11.1-11.9-21-24.9-29.7-38.7v-23.7c0-12.9,5.3-24.6,14-32.9
					c3.8-3.7,8.2-6.7,13.1-8.9c5.7-2.6,12.1-4,18.7-4H114.3z"/>
				<g id="XMLID_3088_">
					<path id="XMLID_3100_" class="st226" d="M289.9,179.1v13.8c0,8-6.5,14.4-14.4,14.4h-3.1c-2.9,26-15.4,49.2-33.9,65.8
						c-14.1,12.7-31.7,21.6-51.2,25.1c-0.8,0.2-1.7,0.3-2.6,0.4c-0.6,0.1-1.2,0.2-1.8,0.3c-0.3,0-0.6,0.1-0.9,0.1
						c-0.5,0.1-1,0.1-1.4,0.2c-0.7,0.1-1.4,0.2-2.2,0.2c-0.4,0-0.8,0.1-1.1,0.1c-0.5,0.1-1,0.1-1.6,0.1c-2.3,0.2-4.7,0.2-7.1,0.2
						c-0.8,0-1.7,0-2.5,0c-0.5,0-1,0-1.5,0c-0.5,0-1.1,0-1.6-0.1c-0.7,0-1.4-0.1-2.1-0.1c-0.5,0-1-0.1-1.5-0.1c-0.3,0-0.6,0-0.9-0.1
						c-0.5-0.1-1-0.1-1.5-0.2c-0.4,0-0.8-0.1-1.2-0.1c-0.3,0-0.7-0.1-1-0.1c-0.5-0.1-1-0.1-1.5-0.2c-0.6-0.1-1.1-0.2-1.7-0.3
						c-0.1,0-0.2,0-0.4-0.1c-0.6-0.1-1.1-0.2-1.7-0.3c-0.5-0.1-1-0.2-1.5-0.3l-0.8-0.1c-0.6-0.1-1.2-0.2-1.8-0.4
						c-0.2,0-0.4-0.1-0.7-0.2c-0.5-0.1-1-0.2-1.5-0.4c-0.4-0.1-0.8-0.2-1.2-0.3c-5.9-1.6-11.7-3.6-17.1-6.2
						c-0.5-0.2-0.9-0.4-1.3-0.6c-0.7-0.3-1.3-0.6-1.9-0.9c-0.6-0.3-1.2-0.6-1.8-0.9c0,0-0.1,0-0.1-0.1c-0.5-0.3-1-0.5-1.5-0.8
						c-0.3-0.2-0.6-0.3-0.9-0.5c-0.5-0.3-1-0.6-1.5-0.9c0,0-0.1-0.1-0.1-0.1c-0.6-0.4-1.2-0.7-1.9-1.1c-0.1-0.1-0.2-0.1-0.3-0.2
						c-0.5-0.3-1.1-0.7-1.6-1c-0.6-0.4-1.2-0.8-1.8-1.2c-0.5-0.3-1-0.7-1.5-1c-2.2-1.5-4.3-3.1-6.3-4.8c-0.6-0.5-1.2-1-1.8-1.5
						c-0.6-0.5-1.2-1-1.8-1.5c-1.2-1-2.3-2.1-3.4-3.2c-0.6-0.5-1.1-1.1-1.7-1.7c-0.5-0.5-1.1-1.1-1.6-1.7c-0.5-0.6-1-1.1-1.6-1.7
						c-0.5-0.6-1-1.1-1.5-1.7c0,0,0-0.1-0.1-0.1c-0.5-0.6-1-1.2-1.5-1.7c-0.5-0.6-1-1.2-1.4-1.8c-1-1.2-1.9-2.5-2.8-3.8
						c-0.9-1.3-1.8-2.6-2.7-3.9c-0.8-1.3-1.6-2.6-2.4-3.9c-1.1-2-2.2-4-3.2-6c-0.1-0.2-0.2-0.4-0.3-0.5c-0.2-0.4-0.4-0.8-0.6-1.3
						c-0.1-0.3-0.3-0.6-0.5-1c-0.2-0.4-0.4-0.9-0.6-1.3c-0.1-0.2-0.2-0.5-0.3-0.7c-0.3-0.6-0.5-1.2-0.8-1.8c-0.3-0.7-0.6-1.4-0.8-2
						c0-0.1-0.1-0.3-0.2-0.4c-0.2-0.7-0.5-1.3-0.7-2c0,0,0,0,0,0c-0.5-1.5-1-3-1.5-4.5c-0.2-0.8-0.5-1.5-0.7-2.3
						c-0.9-3.1-1.6-6.2-2.2-9.4c-0.2-0.8-0.3-1.6-0.4-2.4c-0.1-0.7-0.2-1.5-0.3-2.2c0-0.1,0-0.2,0-0.3c-0.1-0.7-0.2-1.4-0.2-2
						c0-0.1,0-0.2,0-0.3c-0.4-3.9-0.7-7.8-0.7-11.7v-47.1c0-57.6,46.7-104.3,104.3-104.3c0.8,0,1.6,0,2.4,0c0.6,0,1.2,0,1.8,0.1
						c1,0,2.1,0.1,3.1,0.2c0.5,0,1.1,0.1,1.6,0.1c0.4,0,0.7,0.1,1.1,0.1c0.5,0,0.9,0.1,1.4,0.2c0.3,0,0.6,0,0.9,0.1
						c0.5,0,0.9,0.1,1.4,0.2c0.3,0,0.7,0.1,1,0.1c0.5,0.1,1.1,0.2,1.6,0.2c0.8,0.1,1.5,0.2,2.3,0.4c48.7,8.8,85.7,51.4,85.7,102.7
						v16.3h2.4C283.4,164.7,289.9,171.2,289.9,179.1z"/>
					<path id="XMLID_3099_" class="st227" d="M187.3,298.3c-0.8,0.2-1.7,0.3-2.6,0.4c-0.6,0.1-1.2,0.2-1.8,0.3
						c-0.3,0-0.6,0.1-0.9,0.1c-0.5,0.1-1,0.1-1.4,0.2c-0.7,0.1-1.4,0.2-2.2,0.2c-0.4,0-0.8,0.1-1.1,0.1c-0.5,0.1-1,0.1-1.6,0.1
						c-2.3,0.2-4.7,0.2-7.1,0.2c-0.8,0-1.7,0-2.5,0c-0.5,0-1,0-1.5,0c-0.5,0-1.1,0-1.6-0.1c-0.7,0-1.4-0.1-2.1-0.1
						c-0.5,0-1-0.1-1.5-0.1c-0.3,0-0.6,0-0.9-0.1c-0.5-0.1-1-0.1-1.5-0.2c-0.4,0-0.8-0.1-1.2-0.1c-0.3,0-0.7-0.1-1-0.1
						c-0.5-0.1-1-0.1-1.5-0.2c-0.6-0.1-1.1-0.2-1.7-0.3c-0.1,0-0.2,0-0.4-0.1c-0.6-0.1-1.1-0.2-1.7-0.3c-0.5-0.1-1-0.2-1.5-0.3
						l-0.8-0.1c-0.6-0.1-1.2-0.2-1.8-0.4c-0.2,0-0.4-0.1-0.7-0.2c-0.5-0.1-1-0.2-1.5-0.4c-0.4-0.1-0.8-0.2-1.2-0.3
						c-5.9-1.6-11.7-3.6-17.1-6.2c-0.5-0.2-0.9-0.4-1.3-0.6c-0.7-0.3-1.3-0.6-1.9-0.9c-0.6-0.3-1.2-0.6-1.8-0.9c0,0-0.1,0-0.1-0.1
						c-0.5-0.3-1-0.5-1.5-0.8c-0.3-0.2-0.6-0.3-0.9-0.5c-0.5-0.3-1-0.6-1.5-0.9c0,0-0.1-0.1-0.1-0.1c-0.6-0.4-1.2-0.7-1.9-1.1
						c-0.1-0.1-0.2-0.1-0.3-0.2c-0.5-0.3-1.1-0.7-1.6-1c-0.6-0.4-1.2-0.8-1.8-1.2c-0.5-0.3-1-0.7-1.5-1c-2.2-1.5-4.3-3.1-6.3-4.8
						c-0.6-0.5-1.2-1-1.8-1.5c-0.6-0.5-1.2-1-1.8-1.5c-1.2-1-2.3-2.1-3.4-3.2c-0.6-0.5-1.1-1.1-1.7-1.7c-0.5-0.5-1.1-1.1-1.6-1.7
						c-0.5-0.6-1-1.1-1.6-1.7c-0.5-0.6-1-1.1-1.5-1.7c0,0,0-0.1-0.1-0.1c-0.5-0.6-1-1.2-1.5-1.7c-0.5-0.6-1-1.2-1.4-1.8
						c-1-1.2-1.9-2.5-2.8-3.8c-0.9-1.3-1.8-2.6-2.7-3.9c-0.8-1.3-1.6-2.6-2.4-3.9c-1.1-2-2.2-4-3.2-6c-0.1-0.2-0.2-0.4-0.3-0.5
						c-0.2-0.4-0.4-0.8-0.6-1.3c-0.1-0.3-0.3-0.6-0.5-1c-0.2-0.4-0.4-0.9-0.6-1.3c-0.1-0.2-0.2-0.5-0.3-0.7
						c-0.3-0.6-0.5-1.2-0.8-1.8c-0.3-0.7-0.6-1.4-0.8-2c0-0.1-0.1-0.3-0.2-0.4c-0.2-0.7-0.5-1.3-0.7-2c0,0,0,0,0,0
						c-0.5-1.5-1-3-1.5-4.5c-0.2-0.8-0.5-1.5-0.7-2.3c-0.9-3.1-1.6-6.2-2.2-9.4c-0.2-0.8-0.3-1.6-0.4-2.4c-0.1-0.7-0.2-1.5-0.3-2.2
						c0-0.1,0-0.2,0-0.3c-0.1-0.7-0.2-1.4-0.2-2c0-0.1,0-0.2,0-0.3h-2.6c-8,0-14.4-6.5-14.4-14.4v-13.8c0-8,6.5-14.4,14.4-14.4h2
						v-16.3c0-57.6,46.7-104.3,104.3-104.3c0.8,0,1.6,0,2.4,0c0.6,0,1.2,0,1.8,0.1c1,0,2.1,0.1,3.1,0.2c0.5,0,1.1,0.1,1.6,0.1
						c0.4,0,0.7,0.1,1.1,0.1c0.5,0,0.9,0.1,1.4,0.2c0.3,0,0.6,0,0.9,0.1c0.5,0,0.9,0.1,1.4,0.2c0.3,0,0.7,0.1,1,0.1
						c0.5,0.1,1.1,0.2,1.6,0.2c0.8,0.1,1.5,0.2,2.3,0.4c-47,8.5-83.1,48.5-85.5,97.4c-0.1,1.8-0.1,3.5-0.1,5.3v47.1
						C101.7,246.8,138.6,289.5,187.3,298.3z"/>
					<circle id="XMLID_3098_" class="st23" cx="117.7" cy="179" r="14.3"/>
					<circle id="XMLID_3097_" class="st16" cx="121.4" cy="174.4" r="6.3"/>
					<circle id="XMLID_3094_" class="st23" cx="218.1" cy="179" r="14.3"/>
					<circle id="XMLID_3093_" class="st16" cx="221.7" cy="174.4" r="6.3"/>
					<path id="XMLID_3092_" class="st227" d="M175.1,211.9h-12.9c-4.3,0-7.7-3.4-7.7-7.7v0c0-4.3,3.4-7.7,7.7-7.7h12.9
						c4.3,0,7.7,3.4,7.7,7.7v0C182.8,208.4,179.4,211.9,175.1,211.9z"/>
					<path id="XMLID_3091_" class="st36" d="M196.9,229.5c1.5,0,2.7,1.2,2.7,2.7l0,0c0,2.8-0.4,5.5-1.1,8.1c-1.6,6-5,11.3-9.6,15.3
						c-5.4,4.7-12.6,7.6-20.3,7.6s-14.9-2.9-20.3-7.6c-4.6-4-8-9.2-9.6-15.3c-0.7-2.6-1.1-5.3-1.1-8.1l0,0c0-1.5,1.2-2.7,2.7-2.7
						H196.9z"/>
					<path id="XMLID_3090_" class="st26" d="M189,255.6c-5.4,4.7-12.6,7.6-20.3,7.6s-14.9-2.9-20.3-7.6c5.4-4.8,12.6-7.6,20.3-7.6
						S183.6,250.9,189,255.6z"/>
					<path id="XMLID_3089_" class="st16" d="M196.9,229.5c1.5,0,2.7,1.2,2.7,2.7l0,0c0,2.8-0.4,5.5-1.1,8.1h-59.8
						c-0.7-2.6-1.1-5.3-1.1-8.1l0,0c0-1.5,1.2-2.7,2.7-2.7H196.9z"/>
				</g>
				<path id="XMLID_3128_" class="st26" d="M219.6,322.1l-22.8,21.3l-19.6,18.3v137.9c-0.2-0.1-0.5-0.2-0.7-0.2
					c-5.5-1.8-10.9-3.8-16.3-5.9V361.8l-42.4-39.6l22-15.1l0.4,0.4l14.3,14.7l10,10.3c0.2,0.2,0.4,0.4,0.7,0.6c0,0,0,0,0,0
					c2.3,1.7,5.6,1.5,7.7-0.6l3.7-3.8l6.3-6.5l14.7-15.1L219.6,322.1z"/>
				<path id="XMLID_3125_" class="st0" d="M176.4,499.4c-5.5-1.8-10.9-3.8-16.3-5.9c-1.4-0.6-2.9-1.2-4.3-1.8
					c-10.7-4.5-20.9-9.8-30.8-15.6c-7.8-4.6-15.4-9.7-22.6-15.2L68.6,375L52.8,335l-0.2-0.5l-0.2-0.6c-2.2-5.6,0.5-11.9,6.1-14.1
					l4.7-1.9l20.4-8l5.5-2.2c5.6-2.2,11.9,0.5,14.1,6.1l3.3,8.3l0.2,0.6l53.4,135.3L176.4,499.4z"/>
				<path id="XMLID_3137_" class="st15" d="M155.9,491.7c-10.7-4.5-20.9-9.8-30.8-15.6L73.9,346.4l-8-20.3l-0.1-0.2l-2-5.2
					c-0.4-0.9-0.5-1.8-0.6-2.7c-0.1-3.2,1.8-6.3,5-7.6l6.5-2.6c3.2-1.3,6.7-0.3,8.8,2.1c0.6,0.7,1.1,1.5,1.5,2.4l3.9,9.9l2.4,6.1
					L155.9,491.7z"/>
				<path id="XMLID_3082_" class="st16" d="M273.1,148.5v16.3l-28.3-16.3l-14.7-8.4l-61.5-35.3L107.3,140l-5.5,3.2l-9.2,5.3
					l-28.2,16.3v-16.3c0-57.6,46.7-104.3,104.3-104.3c0.8,0,1.6,0,2.4,0c0.6,0,1.2,0,1.8,0.1c1,0,2.1,0.1,3.1,0.2
					c0.5,0,1.1,0.1,1.6,0.1c0.4,0,0.7,0.1,1.1,0.1c0.5,0,0.9,0.1,1.4,0.2c0.3,0,0.6,0,0.9,0.1c0.5,0,0.9,0.1,1.4,0.2
					c0.3,0,0.7,0.1,1,0.1c0.5,0.1,1.1,0.2,1.6,0.2c0.8,0.1,1.5,0.2,2.3,0.4C236.1,54.6,273.1,97.2,273.1,148.5z"/>
				<path id="XMLID_3194_" class="st16" d="M291.5,135c-0.9,1.7-1.8,3.4-2.9,5l-15.6,24.8l-28.3-16.3l-14.7-8.4l-53-30.5l-0.9-0.5
					c-4.1-2.4-9-2.6-13.3-0.8c-0.5,0.2-1.1,0.5-1.6,0.8c0,0-0.1,0-0.1,0l-0.9,0.5h0L107.3,140l-1.8,1.1l-3.7,2.1l-9.2,5.3l-7.7,4.4
					l-18.2,10.5l-2.1,1.2l-0.2,0.1l-7-11.3l-8.5-13.8c-4.2-6.7-7.1-13.9-8.9-21.2c-0.2-1-0.5-1.9-0.7-2.9
					c-6-30.3,7.6-62.5,36.5-77.9c0.6-0.3,1.3-0.7,1.9-1c10.9-5.4,21.8-9.9,32.8-13.3c18.6-5.9,37.2-9,55.8-9.3c1.6,0,3.1,0,4.7,0
					c0.3,0,0.6,0,0.9,0c0.4,0,0.8,0,1.2,0c3.4,0.1,6.8,0.2,10.2,0.5c4.4,0.4,8.9,0.9,13.3,1.5c21,3.2,42,10,63,20.3
					c0.6,0.3,1.3,0.6,1.9,1c20.2,10.7,33,29.6,36.8,50.4C301.5,103.4,299.3,120,291.5,135z"/>
				<circle id="XMLID_3079_" class="st15" cx="168.6" cy="91" r="20.3"/>
				<circle id="XMLID_3078_" class="st6" cx="169" cy="91" r="11.7"/>
				<path id="XMLID_3077_" class="st110" d="M169,59c-1,1.1-55.7,63.6-111.6,94.4l-8.5-13.8c-4.7-7.6-7.8-15.8-9.5-24.1
					C77.1,103.8,147.7,80,169,59z"/>
				<path id="XMLID_3171_" class="st231" d="M197.1,16.1c-0.1,0-0.1,0-0.2,0c-3.1,0.5-6.2,1-9.3,1.6c-3.9,0.8-7.8,1.7-11.8,2.8
					c-14.1,3.8-28.2,9.1-42.3,16.1c-0.6,0.3-1.3,0.6-1.9,1c-13.8,7.3-24.1,18.4-30.4,31.4c-4.3,8.8-6.8,18.3-7.3,28.1
					c0,0,0,0.1,0,0.1c0,0.1,0,0.1,0,0.2c-0.3,6,0.1,12.1,1.3,18.1c0.7,3.6,1.7,7.1,3,10.6c0,0.1,0,0.1,0.1,0.2
					c1.2,3.3,2.6,6.5,4.3,9.6c0.7,1.3,1.4,2.5,2.2,3.7l0.9,1.5l0.1,0.1l-3.5,2l-0.3,0.2l-8.9,5.1l-8,4.6l-18.2,10.5l-2.1,1.2
					l-0.1-0.1l-0.2-0.4l-6.7-10.9l-0.1-0.1l-8.4-13.6c-4.2-6.9-7.2-14.1-8.9-21.6c-0.2-0.9-0.4-1.7-0.6-2.6c0,0,0-0.1,0-0.1
					c-6-30.3,7.7-62.5,36.5-77.8c0.6-0.3,1.3-0.7,1.9-1c10.8-5.4,21.6-9.8,32.4-13.2c18.6-6,37.3-9.1,55.9-9.4c1.6,0,3.1,0,4.7,0
					c0.3,0,0.6,0,0.9,0c0.5,0,1,0,1.5,0c3.4,0.1,6.8,0.2,10.2,0.5C188.3,15,192.7,15.5,197.1,16.1z"/>
				<path id="XMLID_3074_" class="st232" d="M98.1,126.2c-12.8,10.1-26.6,19.6-40.4,27.2l-8.5-13.8c-4.7-7.6-7.9-15.8-9.5-24.1
					C54.4,111,74,104.6,93.8,97.2c-0.3,6.1,0.1,12.2,1.3,18.2C95.8,119.1,96.8,122.7,98.1,126.2z"/>
				<path id="XMLID_3073_" class="st110" d="M291.5,135c-77-28.3-107.9-92.4-118.1-120.9c3.4,0.1,6.8,0.2,10.2,0.5
					c27,21.8,82.1,54.4,115,73.2C301.5,103.4,299.3,120,291.5,135z"/>
			</g>
			<g id="XMLID_3000_">
				<g id="XMLID_3065_">
					<path id="XMLID_3150_" class="st52" d="M470.6,379.9v15.8c-8.9,13.7-19.2,26.5-30.5,38.2c-6.9,7.1-14.2,13.9-22,20.2
						c-11.3,9.2-23.4,17.5-36.1,24.8c-7.1,4-14.4,7.7-22,11.1c-10.4,4.6-21.2,8.6-32.2,11.8c-6.3,1.8-12.7,3.4-19.1,4.8
						c-0.9,0.2-1.9,0.4-2.8,0.6c-2.3,0.4-4.5,0.9-6.8,1.2c-7.1,1.2-14.3,2.1-21.6,2.7V379.9c0-0.6,0-1.2,0.1-1.8
						c0.9-9.7,9.1-17.4,19-17.4h154.8C462,360.7,470.6,369.3,470.6,379.9z"/>
					<path id="XMLID_3138_" class="st9" d="M327.8,360.7c-10.6,0-19.1,8.6-19.1,19.1v126.7c-0.9,0.2-1.9,0.4-2.8,0.6
						c-2.3,0.4-4.5,0.9-6.8,1.2c-7.1,1.2-14.3,2.1-21.6,2.7V379.9c0-0.6,0-1.2,0.1-1.8c0.9-9.7,9.1-17.4,19-17.4H327.8z"/>
					<path id="XMLID_3129_" class="st9" d="M440.1,389.7v44.2c-6.9,7.1-14.2,13.9-22,20.2v-64.4c0-6.1,4.9-11,11-11
						c3,0,5.8,1.2,7.8,3.2C438.9,383.9,440.1,386.7,440.1,389.7z"/>
					<path id="XMLID_3130_" class="st9" d="M382,389.7v89.2c-7.1,4-14.4,7.7-22,11.1V389.7c0-2.6,0.9-5,2.4-6.9
						c2-2.5,5.1-4.1,8.6-4.1c2.3,0,4.5,0.7,6.3,2c0.5,0.4,1,0.8,1.5,1.2C380.8,383.9,382,386.7,382,389.7z"/>
					<path id="XMLID_3132_" class="st9" d="M327.8,389.7v112.1c-6.3,1.8-12.7,3.4-19.1,4.8c-0.9,0.2-1.9,0.4-2.8,0.6V389.7
						c0-2.5,0.8-4.7,2.2-6.5c0.2-0.3,0.4-0.6,0.7-0.8c2-2.2,4.9-3.6,8.2-3.6c3,0,5.8,1.2,7.8,3.2c0.7,0.7,1.3,1.5,1.8,2.4
						C327.3,386,327.8,387.8,327.8,389.7z"/>
				</g>
				<path id="XMLID_3064_" class="st0" d="M353.3,346.6h-21.4c-3.2,0-5.8,2.6-5.8,5.8v8.4H359v-8.4
					C359,349.1,356.5,346.6,353.3,346.6z"/>
				<path id="XMLID_3059_" class="st15" d="M341.9,346.6c-3.2,0-5.7,2.6-5.7,5.8v8.4h-10v-8.4c0-3.2,2.6-5.8,5.8-5.8H341.9z"/>
				<path id="XMLID_3058_" class="st0" d="M413.8,346.6h-21.4c-3.2,0-5.8,2.6-5.8,5.8v8.4h32.9v-8.4
					C419.6,349.1,417,346.6,413.8,346.6z"/>
				<path id="XMLID_3057_" class="st15" d="M402.4,346.6c-3.2,0-5.7,2.6-5.7,5.8v8.4h-10v-8.4c0-3.2,2.6-5.8,5.8-5.8H402.4z"/>
				<rect id="XMLID_3026_" x="394.4" y="309.4" class="st16" width="17.4" height="37.2"/>
				<rect id="XMLID_3022_" x="333.9" y="309.4" class="st16" width="17.4" height="37.2"/>
				<path id="XMLID_3021_" class="st0" d="M419.3,287.8h-92.8c-3.1,0-5.6,2.5-5.6,5.6v10.5c0,3.1,2.5,5.6,5.6,5.6h92.8
					c3.1,0,5.6-2.5,5.6-5.6v-10.5C424.9,290.3,422.4,287.8,419.3,287.8z"/>
				<path id="XMLID_3020_" class="st15" d="M350.1,309.4h-23.6c-3.1,0-5.6-2.5-5.6-5.6v-10.5c0-3.1,2.5-5.6,5.6-5.6h23.6
					c-3.1,0-5.6,2.5-5.6,5.6v10.5C344.6,306.9,347.1,309.4,350.1,309.4z"/>
			</g>
			<path id="XMLID_2998_" class="st226" d="M371,331.6L371,331.6c-16.3,0-29.4-13.2-29.4-29.4v-16.3c0-7.1,5.8-12.9,12.9-12.9h33
				c7.1,0,12.9,5.8,12.9,12.9v16.3C400.5,318.4,387.3,331.6,371,331.6z"/>
			<path id="XMLID_2949_" class="st227" d="M378.6,330.6c-2.5,0.7-5,1-7.7,1c-16.2,0-29.4-13.2-29.4-29.4v-16.3
				c0-7.2,5.8-12.9,12.9-12.9h15.3c-7.1,0-12.9,5.8-12.9,12.9v16.3C356.8,315.8,366.1,327.2,378.6,330.6z"/>
		</g>
	</g>
</g>
</svg>
