<?xml version="1.0" encoding="utf-8"?>
<!-- Generator: Adobe Illustrator 22.0.1, SVG Export Plug-In . SVG Version: 6.00 Build 0)  -->
<svg version="1.1" xmlns="http://www.w3.org/2000/svg" xmlns:xlink="http://www.w3.org/1999/xlink" x="0px" y="0px"
	 viewBox="0 0 512 512" style="enable-background:new 0 0 512 512;" xml:space="preserve">
<style type="text/css">
	.st0{fill:#E9B12D;}
	.st1{fill:#A9E7D8;}
	.st2{fill:#76CFB1;}
	.st3{fill:#AE6B5D;}
	.st4{fill:#7770D3;}
	.st5{fill:#5BA0F5;}
	.st6{fill:#DA4545;}
	.st7{fill:#89CCFC;}
	.st8{fill:#CD462A;}
	.st9{fill:#514896;}
	.st10{fill:#5493A0;}
	.st11{fill:#CC6B5C;}
	.st12{fill:#62AA8D;}
	.st13{fill:#8ABAAB;}
	.st14{fill:#C3791F;}
	.st15{fill:#E39123;}
	.st16{fill:#FFFFFF;}
	.st17{fill:none;stroke:#FFFFFF;stroke-width:10;stroke-linecap:round;stroke-miterlimit:10;}
	.st18{fill:none;stroke:#5F55AB;stroke-width:10;stroke-linecap:round;stroke-miterlimit:10;}
	.st19{fill:#A9671C;}
	.st20{fill:#D5B3A7;}
	.st21{fill:#C09A8F;}
	.st22{fill:#487F87;}
	.st23{fill:#1B305C;}
	.st24{fill:#172945;}
	.st25{fill:none;}
	.st26{fill:#B62A2A;}
	.st27{fill:#325859;}
	.st28{fill:#3F6E71;}
	.st29{fill:#284646;}
	.st30{fill:#8F2727;}
	.st31{fill:#29477C;}
	.st32{fill:#5B9BEE;}
	.st33{fill:#487FDE;}
	.st34{fill:#CD9829;}
	.st35{fill:#9F2A2A;}
	.st36{fill:#4C3328;}
	.st37{fill:#E8B94A;}
	.st38{fill:#DDF8F1;}
	.st39{fill:#3E2A22;}
	.st40{fill:#D3A971;}
	.st41{fill:#C79A5B;}
	.st42{fill:#233E76;}
	.st43{fill:#21395F;}
	.st44{fill:#487D82;}
	.st45{fill:none;stroke:#C79A5B;stroke-width:10;stroke-linecap:round;stroke-miterlimit:10;}
	.st46{fill:#5E3E31;}
	.st47{fill:#AC3939;}
	.st48{fill:#CA9628;}
	.st49{fill:#AF8F88;}
	.st50{fill:#815048;}
	.st51{fill:#6F4232;}
	.st52{fill:#5F55AB;}
	.st53{fill:#192A48;}
	.st54{fill:#152336;}
	.st55{fill:#192B49;}
	.st56{fill:#264173;}
	.st57{fill:#B06F1E;}
	.st58{fill:#4E88C0;}
	.st59{fill:#83C3F1;}
	.st60{fill:#CF9929;}
	.st61{fill:none;stroke:#FFFFFF;stroke-width:10;stroke-linecap:round;stroke-linejoin:round;stroke-miterlimit:10;}
	.st62{fill:#EAC262;}
	.st63{fill:#D6D5D4;}
	.st64{fill:#6BBA9B;}
	.st65{fill:#63AA8F;}
	.st66{fill:none;stroke:#3E2A22;stroke-width:10;stroke-linecap:round;stroke-miterlimit:10;}
	.st67{fill:#CA7D1F;}
	.st68{fill:#213B64;}
	.st69{fill:#CDF8EC;}
	.st70{fill:#C59125;}
	.st71{fill:none;stroke:#C09A8F;stroke-width:10;stroke-linecap:round;stroke-miterlimit:10;}
	.st72{fill:#32579B;}
	.st73{fill:#172843;}
	.st74{fill:#D66767;}
	.st75{fill:#A74949;}
	.st76{fill:#EBC76F;}
	.st77{fill:#7A4940;}
	.st78{fill:#182A48;}
	.st79{fill:none;stroke:#A0794A;stroke-width:10;stroke-linecap:round;stroke-miterlimit:10;}
	.st80{fill:#C37A20;}
	.st81{fill:#D26D5C;}
	.st82{fill:#A45752;}
	.st83{fill:#284579;}
	.st84{fill:#88C7F4;}
	.st85{fill:#6EB6F0;}
	.st86{fill:#32221E;}
	.st87{fill:#E7A6A6;}
	.st88{fill:#C59191;}
	.st89{fill:#AA3B3B;}
	.st90{fill:#B83E3E;}
	.st91{fill:none;stroke:#5F55A9;stroke-width:10;stroke-linecap:round;stroke-miterlimit:10;}
	.st92{fill:#963838;}
	.st93{fill:#402B25;}
	.st94{fill:#6B6ABA;}
	.st95{fill:#BABABA;}
	.st96{fill:#D1D1D1;}
	.st97{fill:#264377;}
	.st98{fill:#A19BF5;}
	.st99{fill:#3C2A21;}
	.st100{fill:none;stroke:#4C3328;stroke-width:10;stroke-linecap:round;stroke-miterlimit:10;}
	.st101{fill:#C1781F;}
	.st102{fill:#E3A147;}
	.st103{fill:#F2D2A1;}
	.st104{fill:#4F372D;}
	.st105{fill:none;stroke:#DA4545;stroke-width:10;stroke-linecap:round;stroke-miterlimit:10;}
	.st106{fill:#AA3928;}
	.st107{fill:#8C2C22;}
	.st108{fill:#BF4336;}
	.st109{fill:#5797D4;}
	.st110{fill:#CFCFCF;}
	.st111{fill:#613A2E;}
	.st112{fill:none;stroke:#B18653;stroke-width:10;stroke-linecap:round;stroke-miterlimit:10;}
	.st113{fill:#B13B3B;}
	.st114{fill:#16263A;}
	.st115{fill:none;stroke:#16263A;stroke-width:10;stroke-miterlimit:10;}
	.st116{fill:#C87D20;}
	.st117{fill:#E4F0FD;}
	.st118{fill:#AA3737;}
	.st119{fill:#BF771F;}
	.st120{fill:none;stroke:#CD462A;stroke-width:10;stroke-linejoin:round;stroke-miterlimit:10;}
	.st121{fill:#5696D2;}
	.st122{fill:#C0771E;}
	.st123{fill:#9B5F1B;}
	.st124{fill:#A83A29;}
	.st125{fill:#E7A74F;}
	.st126{fill:#C9924C;}
	.st127{fill:#C58E48;}
	.st128{fill:#BE8844;}
	.st129{fill:#916939;}
	.st130{fill:#264275;}
	.st131{fill:#253F65;}
	.st132{fill:#182A45;}
	.st133{fill:#162336;}
	.st134{fill:#93C7B7;}
	.st135{fill:#E6A4A4;}
	.st136{fill:#B06B1D;}
	.st137{fill:#484185;}
	.st138{fill:#DB6E6E;}
	.st139{fill:#6BBA9A;}
	.st140{fill:#CACCCC;}
	.st141{fill:#D4D4D4;}
	.st142{fill:#A98881;}
	.st143{fill:#213A62;}
	.st144{fill:#A2837D;}
	.st145{fill:#6FB8F4;}
	.st146{fill:#9B9E9E;}
	.st147{fill:#B2B3B3;}
	.st148{fill:#20385D;}
	.st149{fill:#335AA8;}
	.st150{fill:#BCE7FD;}
	.st151{fill:#3B2921;}
	.st152{fill:#AD3C3C;}
	.st153{fill:#9D3838;}
	.st154{fill:#603F33;}
	.st155{fill:#4D868B;}
	.st156{fill:#A2DDFD;}
	.st157{fill:#ECB6B6;}
	.st158{fill:#E8A346;}
	.st159{fill:#514C94;}
	.st160{fill:#D2F1E8;}
	.st161{fill:#BDD6CE;}
	.st162{fill:#B93B29;}
	.st163{fill:#E0AD70;}
	.st164{fill:#C57C21;}
	.st165{fill:#EDA34A;}
	.st166{fill:#2F538F;}
	.st167{fill:#2B4B78;}
	.st168{fill:#65AF91;}
	.st169{fill:#A7CEFC;}
	.st170{fill:#98BDE2;}
	.st171{fill:#CFE5F7;}
	.st172{fill:#5492CD;}
	.st173{fill:#97CCBC;}
	.st174{fill:#5491CA;}
	.st175{fill:#EDC563;}
	.st176{fill:#423C79;}
	.st177{fill:#D3B1A5;}
	.st178{fill:#BE988D;}
	.st179{fill:#A7E5D6;}
	.st180{fill:#F2FFF9;}
	.st181{fill:#D64545;}
	.st182{fill:#A73B3B;}
	.st183{fill:#15233A;}
	.st184{fill:none;stroke:#BE988D;stroke-width:10;stroke-linecap:round;stroke-miterlimit:10;}
	.st185{fill:#AF3A29;}
	.st186{fill:#FAF9FF;}
	.st187{fill:#CACACC;}
	.st188{fill:#372720;}
	.st189{fill:#3F2C26;}
	.st190{fill:#2D201C;}
	.st191{fill:#3D6D6F;}
	.st192{fill:#5B54A8;}
	.st193{fill:#325799;}
	.st194{fill:#E8C26E;}
	.st195{fill:#254784;}
	.st196{fill:#5696D4;}
	.st197{fill:#4F8AB6;}
	.st198{fill:#5FA4AC;}
	.st199{fill:#AA3524;}
	.st200{fill:#D15F4D;}
	.st201{fill:#2B294C;}
	.st202{fill:#A43A2A;}
	.st203{fill:#E7AE2D;}
	.st204{fill:#CD9729;}
	.st205{fill:none;stroke:#AA8253;stroke-width:10;stroke-linecap:round;stroke-miterlimit:10;}
	.st206{fill:none;stroke:#E18F23;stroke-width:10;stroke-linecap:round;stroke-linejoin:round;stroke-miterlimit:10;}
	.st207{fill:#CF9828;}
	.st208{fill:#B88926;}
	.st209{fill:#A17623;}
	.st210{fill:#96CCBC;}
	.st211{fill:#CF9A2A;}
	.st212{fill:#C57B20;}
	.st213{fill:#C7F1E6;}
	.st214{fill:#DC6363;}
	.st215{fill:#E89F9F;}
	.st216{fill:#C88C8C;}
	.st217{fill:#C16E6E;}
	.st218{fill:#A46060;}
	.st219{fill:#AA3626;}
	.st220{fill:#87EDC4;}
	.st221{fill:#D86552;}
	.st222{fill:#BC7620;}
	.st223{fill:#BA741E;}
	.st224{fill:#8F8CE3;}
	.st225{fill:#3A2820;}
	.st226{fill:#AC7060;}
	.st227{fill:#915F55;}
	.st228{fill:#49332A;}
	.st229{fill:#2D1F1B;}
	.st230{fill:#69B7BE;}
	.st231{fill:#D6D6D6;}
	.st232{fill:#B8B8B8;}
	.st233{fill:#CACACA;}
	.st234{fill:#467B80;}
	.st235{fill:#C2EDE2;}
	.st236{fill:#A9574F;}
	.st237{fill:#5595D2;}
	.st238{fill:#955949;}
	.st239{fill:#7E4B42;}
	.st240{fill:#89CCF1;}
	.st241{fill:#DD584A;}
	.st242{fill:#C18F26;}
	.st243{fill:#B33C2A;}
	.st244{fill:#D1A771;}
	.st245{fill:#B42A2A;}
	.st246{fill:#325797;}
	.st247{fill:#9F3529;}
	.st248{fill:#EDCE80;}
	.st249{fill:#F0DBAC;}
	.st250{fill:#CFB478;}
	.st251{fill:#D4C29B;}
	.st252{fill:#993939;}
	.st253{fill:#D1AFA3;}
	.st254{fill:#BC968B;}
	.st255{fill:none;stroke:#BC968B;stroke-width:10;stroke-linecap:round;stroke-miterlimit:10;}
	.st256{fill:#814C3C;}
	.st257{fill:#C0EBE0;}
	.st258{fill:#A5E3D4;}
	.st259{fill:#15243C;}
	.st260{fill:#443E79;}
	.st261{fill:#F0FFF7;}
	.st262{fill:#9A764B;}
	.st263{fill:#826443;}
	.st264{fill:#D9AA74;}
	.st265{fill:#5DA186;}
	.st266{fill:#68B596;}
	.st267{fill:#E5C6BE;}
	.st268{fill:#D3B6B1;}
	.st269{fill:none;stroke:#BAA09C;stroke-width:10;stroke-linecap:round;stroke-miterlimit:10;}
	.st270{fill:#F4D78F;}
	.st271{fill:#20385F;}
	.st272{fill:#BA8727;}
	.st273{fill:#5A9C82;}
	.st274{fill:none;stroke:#E39123;stroke-width:10;stroke-linecap:round;stroke-linejoin:round;stroke-miterlimit:10;}
	.st275{fill:#60392D;}
	.st276{fill:#CCCCCC;}
	.st277{fill:#844F3E;}
	.st278{fill:#F3FFFB;}
	.st279{fill:#365E60;}
	.st280{fill:#D84545;}
	.st281{fill:#A83B3B;}
	.st282{fill:#253F70;}
	.st283{fill:#EAADAD;}
	.st284{fill:#443E7C;}
	.st285{fill:#3D6B9F;}
	.st286{fill:#4274BC;}
	.st287{fill:#AF3827;}
	.st288{fill:#E59D9D;}
	.st289{fill:#C48989;}
	.st290{fill:none;stroke:#9B621A;stroke-width:10;stroke-linecap:round;stroke-linejoin:round;stroke-miterlimit:10;}
	.st291{fill:#213A5E;}
	.st292{fill:#2D507A;}
	.st293{fill:#528EC8;}
	.st294{fill:#EFD696;}
	.st295{fill:#D1BA87;}
	.st296{fill:#FDFCFC;}
	.st297{fill:#86CBFC;}
	.st298{fill:#7AB7DA;}
	.st299{fill:#192C4C;}
	.st300{fill:#BCBCBC;}
	.st301{fill:#A13838;}
	.st302{fill:#75BDF6;}
	.st303{fill:#D0B1AA;}
	.st304{fill:#142233;}
	.st305{fill:#E6C4BB;}
	.st306{fill:#BDBDBD;}
	.st307{fill:#E8A192;}
	.st308{fill:#A43939;}
	.st309{fill:#162640;}
	.st310{fill:#27457C;}
	.st311{fill:#EFBE5E;}
	.st312{fill:#87EDC5;}
	.st313{fill:#A03838;}
	.st314{fill:#833232;}
	.st315{fill:#47417F;}
	.st316{fill:none;stroke:#915F55;stroke-width:10;stroke-linecap:round;stroke-miterlimit:10;}
	.st317{fill:#BC8B25;}
	.st318{fill:#473129;}
	.st319{fill:#67B394;}
	.st320{fill:#599A80;}
	.st321{fill:#B13D3D;}
</style>
<g id="BULINE">
	<g>
		<circle id="XMLID_12_" class="st2" cx="256" cy="256" r="256"/>
	</g>
</g>
<g id="Icons">
	<g id="XMLID_786_">
		<path id="XMLID_3546_" class="st36" d="M377.3,173.1c-0.2-12.2-1.9-23.9-4.3-34.7c-3.1-25.7-13.5-49.1-28.9-68.3c0,0,0,0,0,0
			s0,0,0,0c-24.8-30.6-62.7-50.2-105.1-50.2h-0.4c-28.3,0.1-54.5,8.8-76.1,23.8c-21.8,15-38.9,36.2-48.9,61
			C80.6,174.3,90,243.2,83.1,250.1c-0.7,0.7-1.2,1.4-1.9,2.1c-4.6,5-24.6,8.9-34.3,10.5c-2.7,0.5-3.7,3.7-1.8,5.6
			c5.6,5.5,13.5,7.7,19.6,8.5c3.4,0.5,4.2,5.1,1.1,6.6c-8.7,4.3-21.4,7.7-30,9.7c-3.2,0.7-3.5,5.1-0.4,6.3
			c9.4,3.6,19.2,4.5,26.6,4.5h0.5c0.5,0,0.9,0,1.4,0c0.2,0,0.4,0,0.6,0c3.4-0.1,4.9,4.3,2.2,6.3c-14.6,10.9-38.2,19.2-50.4,23.1
			c-2.9,0.9-3.1,5-0.3,6.2c8,3.4,16.4,4.6,24.2,4.6c7.9,0.1,15.1-1.1,20.7-2.3c0.1,0,0.2,0,0.4-0.1c3.5-0.4,5.5,4.2,2.4,6.4
			c-6.6,4.7-16,9.2-24.1,12.6c-3.2,1.4-2.3,6,0.9,6.3c0,0,0,0,0,0c0.2,0,0.3,0,0.5,0c22.4-1,37.6-6,45.7-9.5c0.3-0.1,0.6-0.2,1-0.3
			c2.6-0.3,4.9,2.5,3.6,5.1c-2.7,5.4-7.2,9.7-11,12.6c-2.4,1.9-1.2,5.8,1.9,5.9c0.8,0,1.6,0.1,2.4,0.1c0.5,0,1.1,0,1.6,0
			c5.3,0.1,10.9-0.4,16.4-1.1c0.2,0,0.4-0.1,0.7-0.1c10.1-1.4,20.3-3.8,29.7-6.6c8.8-2.6,16.9-5.5,23.4-8.1c0.3-0.1,0.6-0.2,0.8-0.3
			c9.5-3.8,15.6-6.7,15.6-6.7c4.3-1.1,8.5-2.2,12.5-3.3c0.3-0.1,0.6-0.2,0.8-0.2c11.8-3.3,23-6.8,33.5-10.4c0,0,0,0,0,0
			c0.1,0,0.1,0,0.2-0.1c4.2-1.5,8.3-3,12.4-4.5c9.7-3.7,18.8-7.5,27.4-11.5c0.7-0.3,1.4-0.6,2-0.9c18.7-8.8,34.5-18.2,48-28.1
			C363,259.7,378,213.6,377.3,173.1z"/>
		<path id="XMLID_835_" class="st39" d="M238.9,19.8H238c-28.4,0-54.8,8.8-76.5,23.8c-21.8,15-38.9,36.2-48.9,61
			c-33,69.7-23.5,138.6-30.4,145.5c-0.6,0.7-1.2,1.4-1.9,2.1c-4.6,5-24.6,8.9-34.4,10.5c-2.7,0.5-3.7,3.7-1.8,5.6
			c5.6,5.5,13.4,7.7,19.6,8.5c3.4,0.5,4.2,5.1,1.1,6.6c-8.7,4.3-21.4,7.7-30,9.7c-3.2,0.7-3.5,5.2-0.5,6.3c9.8,3.7,20,4.6,27.5,4.5
			h0.5c0.4,0,0.7,0,1.1,0c0.1,0,0.2,0,0.3,0c3.2,0.2,4.5,4.3,1.9,6.3c-14.6,10.9-38.2,19.2-50.4,23.1c-1.8,0.6-2.6,2.3-2.2,3.9
			c0,0.2,0.1,0.5,0.2,0.7c0.3,0.7,0.9,1.3,1.7,1.6c8.3,3.5,17,4.7,25.1,4.6c7.5,0,14.4-1.1,19.8-2.3c0.4-0.1,0.9-0.1,1.3-0.1
			c2.9,0.4,4.3,4.4,1.6,6.4c-6.6,4.7-16,9.2-24.1,12.6c-3.4,1.5-2.2,6.5,1.5,6.3c0.1,0,0.2,0,0.3,0c0,0,0,0,0,0
			c22.2-1.1,37.3-6,45.4-9.5c0.6-0.3,1.3-0.3,1.9-0.3c2.2,0.3,3.9,2.8,2.7,5.1c-2.8,5.4-7.2,9.7-11.1,12.6c-2.4,1.9-1.2,5.8,1.9,5.9
			c1.1,0.1,2.2,0.1,3.3,0.1c0.5,0,1.1,0,1.6,0c5.4,0,10.9-0.4,16.4-1.2c0.2,0,0.4-0.1,0.7-0.1c10.1-1.4,20.3-4,29.7-6.8
			c7.6-2.3,14.7-4.8,20.6-7.1c0.8-1.1,1.5-2.3,2.1-3.5c1.5-2.9-1.5-6.1-4.6-4.8c-4,1.7-9.6,3.8-16.9,5.6c-7.7,1.9-17.3,3.5-28.8,4
			c-0.6,0-1.1-0.1-1.6-0.3c-0.2-0.1-0.4-0.2-0.6-0.4c-1.8-1.4-1.9-4.6,0.7-5.7c0.2-0.1,0.4-0.2,0.7-0.3c0.2-0.1,0.5-0.2,0.7-0.3
			c7.7-3.3,16.4-7.6,22.7-12c3.1-2.2,0.9-7.1-2.8-6.3c-3.1,0.7-6.7,1.3-10.6,1.8c-0.2,0-0.5,0.1-0.7,0.1
			c-10.1,1.1-22.3,0.7-33.7-4.1c-2.9-1.2-2.7-5.3,0.3-6.2c12.1-3.8,35.8-12.2,50.4-23.1c2.7-2.1,1.2-6.5-2.2-6.4
			c-7.6,0.2-18.5-0.4-29.1-4.4c-3-1.1-2.7-5.6,0.5-6.3c8.6-2,21.2-5.4,30-9.7c3.1-1.5,2.4-6.2-1.1-6.6c-6.2-0.8-14-3-19.6-8.5
			c-1.9-1.9-0.9-5.1,1.8-5.6c9.1-1.5,26.8-5,33.1-9.4c-2-3-3.9-6.2-5.6-9.5c0,0,0-0.1-0.1-0.1c-0.7-1.4-1.4-2.8-2.1-4.2
			c0,0,0-0.1-0.1-0.2c-0.7-1.4-1.3-2.8-1.9-4.3c0-0.1,0-0.1-0.1-0.1c-3.6-8.9-6.1-18.4-7.2-28.3c0,0,0,0,0,0h-2.7
			c-8.1,0-14.7-6.6-14.7-14.7v-14c0-8.1,6.6-14.7,14.7-14.7h2c16.1-5,23.4-22.1,26.2-30.6c0.4-1.1,1.5-1.6,2.4-1.4
			c0.6,0.1,1.2,0.5,1.5,1.3c2.1,5.1,2.2,10.3,1.9,14.1c-0.2,1.9,1.1,3.5,2.8,3.9c0-0.1,0.1-0.2,0.1-0.3c3.8-14.7,9-30.1,16.3-45.6
			c10-24.8,27.1-46,48.9-61c13.1-9,28-15.8,43.9-19.8C260.5,21.3,249.8,19.9,238.9,19.8z"/>
		<path id="XMLID_833_" class="st40" d="M240.7,344.8H226c-11.8,0-21.3-9.5-21.3-21.3v-35.1c0-11.8,9.5-21.3,21.3-21.3h14.7
			c11.8,0,21.3,9.5,21.3,21.3v46.9C262,347,252.5,344.8,240.7,344.8z"/>
		<path id="XMLID_832_" class="st41" d="M243.4,344.6c-1,0.1-2,0.2-3.1,0.2h-14.7c-11.8,0-21.3-0.7-21.3-12.5v-44
			c0-11.8,9.5-21.3,21.3-21.3h14.7c1,0,2.1,0.1,3.1,0.2c-10.3,1.5-18.2,10.4-18.2,21.1v35.1C225.1,334.2,233.1,343.1,243.4,344.6z"
			/>
		<path id="XMLID_975_" class="st40" d="M363.1,373.6v114.9c-4.3,2-8.6,3.8-13,5.6c-8.1,3.2-16.3,6-24.8,8.4c-4,1.1-7.9,2.1-12,3
			c-0.8,0.2-1.6,0.4-2.3,0.5c0,0,0,0,0,0c-17.7,3.9-36.1,5.9-55,5.9c-31.2,0-61.1-5.6-88.7-15.8c-4.3-1.6-8.5-3.3-12.7-5.1
			c-3.8-1.6-7.4-3.3-11.1-5.1h0l0,0c-0.3-0.1-0.6-0.3-0.9-0.4c-0.3-0.1-0.5-0.3-0.8-0.4c-3-1.5-5.9-3-8.8-4.6
			c-10.3-5.7-20.2-12-29.7-19c-0.2-0.2-0.4-0.3-0.7-0.5v-87.4c0-2.5,0.2-4.9,0.6-7.2c0.3-2.1,0.8-4.1,1.4-6c1.9-6.3,5.1-12,9.3-16.8
			c8.4-9.6,20.7-15.6,34.4-15.6h169c11,0,21.1,3.9,29,10.4c1.5,1.2,2.9,2.5,4.2,3.9C358.3,350.5,363.1,361.5,363.1,373.6z"/>
		<path id="XMLID_867_" class="st41" d="M178.7,328c-7.7,0-15,1.9-21.4,5.3c-0.3,0.2-0.6,0.3-0.8,0.5c-11,6.2-19.2,16.7-22.2,29.3
			c-0.8,3.2-1.2,6.4-1.2,9.8c0,0.1,0,0.2,0,0.3v107.4c-10.3-5.7-20.2-12-29.7-19v-87.9c0-2.3,0.2-4.6,0.5-6.9
			c0.3-2.3,0.8-4.5,1.5-6.7c1.9-6.2,5.1-11.8,9.3-16.6c8.4-9.5,20.7-15.5,34.3-15.5H178.7z"/>
		<path id="XMLID_871_" class="st41" d="M325.3,407.8v94.7c-4,1.1-7.9,2.1-12,3v-97.8c0-0.4,0-0.8,0.1-1.2c0.2-1.1,0.8-2.2,1.6-3
			c1.1-1.1,2.6-1.8,4.2-1.8C322.6,401.8,325.3,404.5,325.3,407.8z"/>
		<path id="XMLID_831_" class="st41" d="M154.7,407.8v83.4c-3.8-1.6-7.4-3.3-11.1-5.1h0l0,0c-0.3-0.1-0.6-0.3-0.9-0.4v-77.8
			c0-1.6,0.7-3.1,1.8-4.2c1.1-1.1,2.6-1.8,4.2-1.8c2.7,0,5,1.8,5.7,4.2c0.1,0.2,0.1,0.4,0.2,0.6
			C154.6,406.9,154.7,407.3,154.7,407.8z"/>
		<path id="XMLID_922_" class="st42" d="M325.3,415.8v72.4c0,0.1,0,0.3,0,0.4c-0.2,4.2-3.7,7.6-8,7.6h-150
			c-4.3-1.6-8.5-3.3-12.7-5.1c-3.8-1.6-7.4-3.3-11.1-5.1h0l0,0c-0.3-0.1-0.6-0.3-0.9-0.4c-0.3-0.1-0.5-0.3-0.8-0.4v-69.4
			c0-1.3,0.3-2.5,0.8-3.5c0.4-0.8,0.9-1.5,1.5-2.1c1.5-1.5,3.5-2.4,5.7-2.4c1.7,0,3.3-0.7,4.5-1.8c1.3-1.2,2.1-2.9,2.1-4.8v-72
			c0-0.4,0.1-0.8,0.2-1.2c0.5-2,2.4-3.5,4.6-3.5h19.5c2.2,0,4,1.5,4.6,3.5c0.1,0.4,0.2,0.8,0.2,1.2v43.2c0,12.7,6.7,23.8,16.7,30.1
			c5.4,3.4,11.8,5.3,18.7,5.3h25.5c3.6,0,7.1-0.5,10.4-1.6c10.3-3.2,18.7-11,22.6-21c1.6-4,2.4-8.3,2.4-12.8v-43.2
			c0-0.4,0.1-0.8,0.2-1.2c0.5-2,2.4-3.5,4.6-3.5H306c2.2,0,4,1.5,4.6,3.5c0.1,0.4,0.2,0.8,0.2,1.2v72c0,1.8,0.7,3.5,1.9,4.7
			c0.2,0.3,0.5,0.5,0.8,0.7c1.1,0.8,2.4,1.2,3.9,1.2c4.3,0,7.8,3.4,8,7.6C325.3,415.5,325.3,415.6,325.3,415.8z"/>
		<path id="XMLID_856_" class="st43" d="M202.2,401.9c0,0.2,0,0.3-0.1,0.5c-0.6,3-3.3,5.3-6.5,5.3c-2.2,0-4.2,0.9-5.7,2.4
			c-1.4,1.4-2.3,3.4-2.3,5.7v72.4c0,4.4,3.6,8,8,8h-28.3c-4.3-1.6-8.5-3.3-12.7-5.1c-3.8-1.6-7.4-3.3-11.1-5.1h0l0,0
			c-0.3-0.1-0.6-0.3-0.9-0.4v-69.8c0-2.2,0.9-4.2,2.4-5.7c1.4-1.5,3.4-2.4,5.7-2.4c1.4,0,2.8-0.4,3.8-1.2c1.7-1.2,2.8-3.2,2.8-5.4
			v-72c0-0.4,0.1-0.8,0.2-1.2c0.5-2,2.4-3.5,4.6-3.5h19.5c2.2,0,4,1.5,4.6,3.5c0.1,0.4,0.2,0.8,0.2,1.2v43.2
			C186.2,384.7,192.6,395.6,202.2,401.9z"/>
		<path id="XMLID_887_" class="st10" d="M310.7,353.9V398c-3.9,5.4-8.3,10.7-13,16.1c0,0,0,0,0,0c0,0,0,0,0,0
			c-27.5,31.1-66.6,61-97,82.1h-33.3c-4.3-1.6-8.5-3.3-12.7-5.1c-3.8-1.6-7.4-3.3-11.1-5.1c1.5-0.6,3-1.2,4.5-1.9
			c0.8-0.4,1.6-0.7,2.4-1.1c0.3-0.2,0.7-0.3,1-0.5c0.6-0.3,1.2-0.5,1.7-0.8c0.5-0.2,1-0.5,1.5-0.7v0c0.6-0.3,1.2-0.6,1.7-0.9
			c0.9-0.4,1.8-0.9,2.7-1.4c0.1,0,0.1-0.1,0.2-0.1c0.8-0.4,1.7-0.9,2.6-1.4c0.9-0.5,1.9-1,2.8-1.5c0.9-0.5,1.9-1.1,2.8-1.6
			c0.9-0.5,1.8-1,2.6-1.5c0.1,0,0.1-0.1,0.2-0.1c0.9-0.6,1.9-1.1,2.9-1.7c1.4-0.9,2.8-1.7,4.2-2.6c1.2-0.8,2.5-1.5,3.7-2.4
			c0.6-0.4,1.2-0.8,1.8-1.2c1.2-0.8,2.5-1.6,3.7-2.5c0.3-0.2,0.6-0.4,0.9-0.6c23.8-16.1,48.1-36.3,69.2-55.3
			c10.3-3.2,18.7-11,22.6-21c7.4-7.1,14-13.6,19.6-19.3c0,0,0,0,0,0C303.6,361.2,307.5,357.2,310.7,353.9z"/>
		<path id="XMLID_829_" class="st44" d="M195.6,496.2h-28.3c-4.3-1.6-8.5-3.3-12.7-5.1c-3.8-1.6-7.4-3.3-11.1-5.1h0l0,0
			c0.7-0.3,1.5-0.6,2.2-0.9s1.5-0.7,2.3-1c0.8-0.4,1.6-0.7,2.4-1.1c0.3-0.2,0.7-0.3,1-0.5c0.6-0.3,1.2-0.5,1.7-0.8
			c0.5-0.2,1-0.5,1.5-0.7v0c0.6-0.3,1.2-0.6,1.7-0.9c0.9-0.4,1.8-0.9,2.7-1.4c0.1,0,0.1-0.1,0.2-0.1c0.8-0.4,1.7-0.9,2.6-1.4
			c0.9-0.5,1.9-1,2.8-1.5c0.9-0.5,1.9-1.1,2.8-1.6c0.9-0.5,1.8-1,2.6-1.5c0.1,0,0.1-0.1,0.2-0.1c0.9-0.6,1.9-1.1,2.9-1.7
			c1.4-0.9,2.8-1.7,4.2-2.6c1.2-0.8,2.5-1.5,3.7-2.4c0.6-0.4,1.2-0.8,1.8-1.2c1.2-0.8,2.5-1.6,3.7-2.5c0.3-0.2,0.6-0.4,0.9-0.6v26.7
			C187.6,492.6,191.2,496.2,195.6,496.2z"/>
		<path id="XMLID_823_" class="st40" d="M139.5,243.7c-0.7-1.4-1.4-2.8-2.1-4.2C138.1,240.9,138.8,242.3,139.5,243.7z"/>
		<path id="XMLID_822_" class="st40" d="M149.8,259.6c-3.8-4.9-7.2-10.2-10.2-15.8C142.5,249.4,145.9,254.7,149.8,259.6z"/>
		<path id="XMLID_821_" class="st40" d="M137.4,239.3c-0.7-1.4-1.3-2.8-1.9-4.3C136.1,236.5,136.8,237.9,137.4,239.3z"/>
		<path id="XMLID_820_" class="st40" d="M342.5,163.2H340c0,0-17.8-9-24.8-29.5c-0.9-2.5-3.9-3.4-5.9-1.8c-2.9,2.3-6.6,5.9-8.8,10.5
			c-1.3,2.8-5.3,2.5-6.5-0.3c-2.9-7.5-6.2-18.5-6.4-30.4c0-2.8-2.9-4.5-5.4-3.4c-3.4,1.6-7.5,4.2-10.3,8.7c-1.5,2.3-5,2-6.2-0.5
			c-2.9-6.2-6.6-17.3-7.2-34.1c-0.1-3-4.1-3.9-5.5-1.3c-6.7,12.2-19.9,30.6-41.8,40.7c-2.5,1.2-5.3-0.9-5-3.6
			c0.4-3.1,0.6-7.1,0.1-11.1c-0.2-2.1-3-2.6-4-0.8c-5.7,10.4-19.9,33.8-36.9,43.4v45c0,52.2,37.6,95.6,87.2,104.5
			c45.8-8.2,81.4-45.8,86.6-92.6h3.1c8.1,0,14.7-6.6,14.7-14.7v-14C357.1,169.8,350.6,163.2,342.5,163.2z"/>
		<path id="XMLID_818_" class="st40" d="M135.5,234.9c-3.6-8.9-6.1-18.4-7.2-28.3C129.4,216.5,131.8,226,135.5,234.9z"/>
		<path id="XMLID_817_" class="st41" d="M137.5,239.5c0-0.1-0.1-0.1-0.1-0.2C137.4,239.4,137.5,239.4,137.5,239.5z"/>
		<path id="XMLID_816_" class="st41" d="M139.6,243.8c0,0,0-0.1-0.1-0.1C139.6,243.7,139.6,243.7,139.6,243.8z"/>
		<path id="XMLID_815_" class="st41" d="M135.5,235.1c0,0,0-0.1-0.1-0.1C135.5,235,135.5,235,135.5,235.1z"/>
		<path id="XMLID_813_" class="st41" d="M165.5,194.7v-45c-0.3,0.1-0.5,0.3-0.8,0.4c-2.5,1.3-5.4-0.7-5.2-3.6
			c0.4-3.8,0.3-8.9-1.9-14.1c-0.7-1.8-3.4-1.7-4,0.1c-2.7,8.5-10.1,25.6-26.2,30.6h-2c-8.1,0-14.7,6.6-14.7,14.7v14
			c0,8.1,6.6,14.7,14.7,14.7h2.7c0,0,0,0,0,0c1.1,9.9,3.6,19.4,7.2,28.3c0,0,0,0.1,0.1,0.1c0.6,1.4,1.2,2.9,1.9,4.3
			c0,0.1,0.1,0.1,0.1,0.2c0.7,1.4,1.3,2.8,2.1,4.2c0,0,0,0.1,0.1,0.1c2.9,5.6,6.3,10.9,10.2,15.8c0.1,0.1,0.1,0.1,0.2,0.2
			c0.9,1.2,1.8,2.3,2.8,3.4c0.1,0.1,0.2,0.2,0.3,0.3c0.9,1.1,1.9,2.2,2.9,3.2c0.1,0.1,0.2,0.2,0.3,0.4c1,1,2,2.1,3,3.1
			c0.1,0.1,0.2,0.2,0.4,0.3c1,1,2.1,2,3.1,3c0.1,0.1,0.2,0.2,0.3,0.3c1.1,1,2.2,2,3.4,2.9c0,0,0.1,0.1,0.1,0.1
			c1.2,0.9,2.3,1.9,3.5,2.8c0.1,0,0.1,0.1,0.2,0.1c1.2,0.9,2.3,1.7,3.5,2.5c0.1,0.1,0.3,0.2,0.4,0.3c1.1,0.8,2.3,1.5,3.5,2.3
			c0.2,0.1,0.4,0.3,0.6,0.4c1.2,0.7,2.3,1.4,3.5,2.1c0.2,0.1,0.5,0.3,0.7,0.4c1.2,0.7,2.4,1.3,3.6,1.9c0.2,0.1,0.5,0.2,0.7,0.4
			c1.2,0.6,2.5,1.2,3.7,1.8c0.2,0.1,0.4,0.2,0.7,0.3c1.3,0.6,2.6,1.1,3.9,1.6c0.2,0.1,0.3,0.1,0.5,0.2c1.3,0.5,2.6,1,3.9,1.4
			c0.1,0,0.2,0.1,0.4,0.1c1.4,0.5,2.7,0.9,4.1,1.3c0.2,0.1,0.4,0.1,0.6,0.2c1.3,0.4,2.7,0.7,4,1.1c0.3,0.1,0.5,0.1,0.8,0.2
			c1.3,0.3,2.7,0.6,4,0.9c0.3,0.1,0.6,0.1,0.9,0.2c1.3,0.2,2.7,0.5,4.1,0.7c0.3,0,0.6,0.1,0.9,0.1c1.4,0.2,2.8,0.4,4.2,0.5
			c0.3,0,0.6,0,0.8,0.1c1.4,0.1,2.9,0.2,4.3,0.3c0.2,0,0.4,0,0.7,0c1.5,0.1,2.9,0.1,4.4,0.1c0.1,0,0.2,0,0.2,0h0c1.7,0,3.4,0,5-0.1
			c0.3,0,0.7,0,1-0.1c1.3-0.1,2.6-0.2,3.9-0.3c0.6-0.1,1.1-0.1,1.7-0.2c1-0.1,2.1-0.2,3.1-0.4c0.7-0.1,1.3-0.2,2-0.3
			c0.7-0.1,1.5-0.2,2.2-0.4C203.1,290.2,165.5,246.8,165.5,194.7z"/>
		<circle id="XMLID_812_" class="st23" cx="181.4" cy="177.8" r="14.6"/>
		<circle id="XMLID_811_" class="st16" cx="185.1" cy="173" r="6.4"/>
		<circle id="XMLID_810_" class="st23" cx="283.6" cy="177.8" r="14.6"/>
		<circle id="XMLID_809_" class="st16" cx="287.3" cy="173" r="6.4"/>
		<path id="XMLID_808_" class="st41" d="M240.1,215.2h-13.7c-4.5,0-8.2-3.7-8.2-8.2v0c0-4.5,3.7-8.2,8.2-8.2h13.7
			c4.5,0,8.2,3.7,8.2,8.2v0C248.3,211.6,244.6,215.2,240.1,215.2z"/>
		<path id="XMLID_807_" class="st45" d="M217.8,240.6c8.5,8.5,22.3,8.5,30.8,0"/>
		<line id="XMLID_806_" class="st45" x1="223.5" y1="262.5" x2="243" y2="262.5"/>
		<path id="XMLID_805_" class="st46" d="M307.5,58.8c11.6,7.6,31.2,23.1,40.2,45.6c0.7,1.8-0.9,3.7-2.7,3.2l-9-2.1
			c-1.9-0.4-3.5,1.4-2.7,3.2c2.2,5.2,5.3,14.2,4.6,21.4c-0.2,2.1-2.9,2.9-4.2,1.2c-7.8-10-29.8-36.6-47.4-42.1
			c-1.9-0.6-2.3-3.2-0.6-4.3c4.1-2.6,10.3-5.9,15.4-5.6c1.1,0.1,2.1-0.5,2.5-1.5c1.2-3,3.1-9.5,0.6-16.3
			C303.1,59.4,305.5,57.5,307.5,58.8z"/>
		<g id="XMLID_787_">
			<path id="XMLID_913_" class="st6" d="M489.7,349.2c-0.3,3.5-0.7,7.1-1.2,10.6c-0.2,1.6-0.4,3.2-0.7,4.8
				c-4,8.5-8.4,16.8-13.3,24.8c-2.6,4.2-5.3,8.4-8.1,12.4c-26,37.4-61.6,67.6-103.4,86.8c-4.3,2-8.6,3.8-13,5.6
				c-8.1,3.2-16.3,6-24.8,8.4c-4,1.1-7.9,2.1-12,3c-0.8,0.2-1.6,0.4-2.3,0.5c-0.1-0.2-0.1-0.3-0.2-0.5c-0.3-1-0.6-2.1-0.9-3.1
				c-0.3-1-0.6-2.1-0.9-3.2c-0.3-1-0.6-2-0.8-3c0,0,0,0,0-0.1c-0.1-0.2-0.1-0.5-0.2-0.7c-0.2-0.7-0.4-1.4-0.6-2.2
				c-0.3-1.3-0.6-2.6-0.9-3.9c-0.2-0.9-0.4-1.8-0.6-2.8c-0.6-2.7-1.2-5.5-1.7-8.3c-0.2-0.9-0.4-1.9-0.5-2.8
				c-0.2-1.2-0.4-2.4-0.6-3.6c-0.1-0.9-0.3-1.8-0.4-2.7c-0.5-2.8-0.9-5.6-1.3-8.4c-0.2-1.2-0.3-2.5-0.5-3.8
				c-0.1-0.9-0.2-1.8-0.3-2.7c-0.1-0.8-0.2-1.5-0.3-2.3c-0.1-0.4-0.1-0.9-0.2-1.3c-0.1-0.8-0.2-1.6-0.2-2.3c-0.1-1-0.2-2-0.3-3
				c0-0.1,0-0.3,0-0.4v0c0,0,0-0.1,0-0.1c0-0.3-0.1-0.6-0.1-1c-0.1-1-0.2-2-0.3-3c-0.1-0.7-0.1-1.4-0.2-2.1
				c-0.1-0.9-0.2-1.8-0.2-2.7c-0.1-0.9-0.1-1.8-0.2-2.7c-0.1-1.4-0.2-2.7-0.2-4.1s-0.1-2.8-0.2-4.1c-0.1-1.4-0.1-2.8-0.2-4.2
				c0-0.8-0.1-1.7-0.1-2.5c0-0.2,0-0.4,0-0.6c0-1-0.1-2-0.1-3c0-0.2,0-0.5,0-0.7c0,0,0,0,0,0c0-1.7-0.1-3.5-0.1-5.3
				c0-1.6,0-3.1,0-4.7v-0.3c0-1.4,0-2.8,0-4.2c0-0.7,0-1.4,0-2.1c0-0.1,0-0.2,0-0.3l0-2.1c0-0.1,0-0.2,0-0.3c0-0.9,0-1.8,0-2.7
				c0-0.1,0-0.2,0-0.3c0-1.3,0.1-2.6,0.1-3.8c0-1.7,0.1-3.4,0.2-5.2v-0.1c0,0,0-0.1,0-0.1c0.1-1.4,0.1-2.7,0.2-4.1
				c0.1-1,0.1-2.1,0.2-3.2c0-0.8,0.1-1.6,0.1-2.4c0.1-0.9,0.1-1.8,0.2-2.7c0.1-0.7,0.1-1.5,0.2-2.2c0-0.7,0.1-1.5,0.2-2.2
				c0-0.3,0-0.5,0.1-0.8c0.1-1.3,0.2-2.6,0.3-3.9c0.1-1.2,0.2-2.5,0.3-3.7c0-0.4,0.1-0.8,0.1-1.2c0.1-1.1,0.2-2.3,0.3-3.5
				c0-0.2,0-0.5,0.1-0.7c0.2-1.6,0.3-3.3,0.5-4.9c0.2-1.4,0.3-2.9,0.5-4.3c0.1-0.9,0.2-1.9,0.3-2.8c0.2-1.6,0.4-3.3,0.6-4.9
				c0.3-2.4,0.7-4.8,1.1-7.2c0.2-1.2,0.4-2.3,0.6-3.5c1.5-8.7,3.5-17.2,5.8-25.6c4.9-17.4,11.4-33.9,18.7-49.3
				c3.9-8.1,8-15.9,12.3-23.4c11.7-20.3,24.5-38.1,36.6-53c10.1-12.4,19.6-22.8,27.4-30.8c10.3-10.5,27.7-8.2,34.9,4.6
				c1.2,2.1,2.4,4.3,3.7,6.6c11.6,21.5,26.2,52.9,36.1,90c4.7,17.4,8.3,36.1,10.1,55.5C491,315.3,491.2,332.1,489.7,349.2z"/>
			<path id="XMLID_893_" class="st47" d="M341.4,412.5c0.2,30.1,3.2,57.8,8.7,81.6c-8.1,3.2-16.3,6-24.8,8.4c-4,1.1-7.9,2.1-12,3
				c-0.8,0.2-1.6,0.4-2.3,0.5c-0.1-0.2-0.1-0.3-0.2-0.5c-0.3-1-0.6-2.1-0.9-3.1c-0.3-1-0.6-2.1-0.9-3.2c-0.3-1-0.6-2-0.8-3
				c0,0,0,0,0-0.1c-0.1-0.2-0.1-0.5-0.2-0.7c-0.2-0.7-0.4-1.4-0.6-2.2c-0.3-1.3-0.6-2.6-0.9-3.9c-0.2-0.9-0.4-1.8-0.6-2.8
				c-0.6-2.7-1.2-5.5-1.7-8.3c-0.2-0.9-0.4-1.9-0.5-2.8c-0.2-1.2-0.4-2.4-0.6-3.6c-0.1-0.9-0.3-1.8-0.4-2.7
				c-0.5-2.8-0.9-5.6-1.3-8.4c-0.2-1.2-0.3-2.5-0.5-3.8c-0.1-0.9-0.2-1.8-0.3-2.7c-0.1-0.8-0.2-1.5-0.3-2.3
				c-0.1-0.4-0.1-0.9-0.2-1.3c-0.1-0.8-0.2-1.6-0.2-2.3c-0.1-1-0.2-2-0.3-3c0-0.2,0-0.3,0-0.5c0,0,0-0.1,0-0.1v0
				c0-0.3-0.1-0.6-0.1-0.9c-0.1-1-0.2-2-0.3-3c-0.1-0.7-0.1-1.4-0.2-2.1c-0.1-0.9-0.2-1.8-0.2-2.7c-0.1-0.9-0.1-1.8-0.2-2.7
				c-0.1-1.4-0.2-2.7-0.2-4.1s-0.1-2.8-0.2-4.1c-0.1-1.4-0.1-2.8-0.2-4.2c0-0.8-0.1-1.7-0.1-2.5c0-0.2,0-0.4,0-0.6c0-1-0.1-2-0.1-3
				c0-0.2,0-0.5,0-0.7c0,0,0,0,0,0c0-1.7-0.1-3.5-0.1-5.3c0-1.6,0-3.1,0-4.7v-0.3c0-1.4,0-2.8,0-4.2c0-0.7,0-1.4,0-2.1
				c0-0.1,0-0.2,0-0.3l0-2.1c0-0.1,0-0.2,0-0.3c0-0.9,0-1.8,0-2.7c0-0.1,0-0.2,0-0.3c0-1.3,0.1-2.6,0.1-3.8c0-1.7,0.1-3.4,0.2-5.2
				c0,0,0-0.1,0-0.1v-0.1c0.1-1.4,0.1-2.7,0.2-4.1c0.1-1,0.1-2.1,0.2-3.2c0-0.8,0.1-1.6,0.1-2.4c0.1-0.9,0.1-1.8,0.2-2.7
				c0.1-0.7,0.1-1.5,0.2-2.2c0-0.7,0.1-1.5,0.1-2.2c0-0.3,0.1-0.6,0.1-0.8c0.1-1.3,0.2-2.6,0.3-3.9c0.1-1.2,0.2-2.5,0.3-3.7
				c0-0.4,0.1-0.8,0.1-1.2c0.1-1.1,0.2-2.3,0.3-3.5c0-0.2,0-0.5,0.1-0.7c0.2-1.6,0.3-3.3,0.5-4.9c0.2-1.4,0.3-2.9,0.5-4.3
				c0.1-0.9,0.2-1.9,0.3-2.8c0.2-1.6,0.4-3.3,0.6-4.9c0.3-2.4,0.7-4.8,1.1-7.2c0.2-1.2,0.4-2.3,0.6-3.5c1.5-8.7,3.5-17.2,5.8-25.6
				c4.9-17.4,11.4-33.9,18.7-49.3c3.9-8.1,8-15.9,12.3-23.4c11.7-20.3,24.5-38.1,36.6-53c10.1-12.4,19.6-22.8,27.4-30.8
				c10.3-10.5,27.7-8.2,34.9,4.6c1.2,2.1,2.4,4.3,3.7,6.6c-32.3,34.1-85,101.1-96.9,184.8c-0.1,0.9-0.2,1.7-0.4,2.6
				c-0.2,1.8-0.5,3.6-0.7,5.3v0c-0.2,1.3-0.3,2.7-0.5,4c-0.2,1.3-0.3,2.7-0.4,4c-0.5,4.8-1,9.5-1.3,14.2
				C341.9,383.6,341.3,398.3,341.4,412.5z"/>
			<path id="XMLID_801_" class="st0" d="M489.5,299.1L299.4,444.7c-1.8-19.4-2.3-40.3-1.4-62.2l181.4-139
				C484.1,261,487.7,279.7,489.5,299.1z"/>
			<path id="XMLID_788_" class="st48" d="M341.4,412.7c-0.1-21.1,1.1-43.3,4-66.2L298,382.7c0,0.2,0,0.3,0,0.5
				c-0.1,2.5-0.2,5.1-0.3,7.6c0,0,0,0.1,0,0.1c-0.1,2.6-0.1,5.1-0.1,7.7c0,0.3,0,0.6,0,0.9c0,2.4,0,4.7,0,7c0,0.2,0,0.4,0,0.5
				c0,2.5,0.1,4.9,0.1,7.3c0,0.3,0,0.7,0,1c0.1,2.2,0.1,4.3,0.2,6.5c0,0.3,0,0.6,0,0.9c0.1,2.3,0.2,4.7,0.3,7c0,0.4,0,0.7,0.1,1.1
				c0.1,2.1,0.3,4.1,0.4,6.2c0,0.3,0,0.6,0.1,0.9c0.2,2.3,0.4,4.5,0.6,6.8c0,0.1,0,0.2,0,0.3L341.4,412.7z"/>
		</g>
		<path id="XMLID_868_" class="st40" d="M493.6,351.5c-1.8,4.4-3.7,8.8-5.7,13c-4,8.5-8.4,16.8-13.3,24.8c-2.6,4.2-5.3,8.4-8.1,12.4
			h-1.8c-8.8,0-16.6-4.2-21.5-10.8c-0.8-1-1.5-2.1-2.1-3.3c-0.4-0.8-0.8-1.5-1.1-2.3c-0.3-0.8-0.6-1.6-0.9-2.5
			c-0.4-1.3-0.7-2.6-0.9-3.9c-0.2-1.3-0.3-2.7-0.3-4.1c0-0.4,0-0.7,0-1.1c0-0.2,0-0.4,0-0.5c0-0.1,0-0.1,0-0.2c0-0.3,0-0.6,0.1-0.9
			c0.1-0.6,0.1-1.1,0.2-1.7c0-0.2,0.1-0.4,0.1-0.6c0.1-0.4,0.2-0.8,0.3-1.2c1.2-4.9,3.7-9.3,7.1-12.8c4.9-4.9,11.6-7.9,19-7.9H484
			c2,0,3.9,0.4,5.7,1.1C491.1,349.8,492.4,350.6,493.6,351.5z"/>
		<path id="XMLID_863_" class="st41" d="M474.6,389.4c-2.6,4.2-5.3,8.4-8.1,12.4h-1.8c-8.8,0-16.6-4.2-21.5-10.8
			c-0.8-1-1.5-2.1-2.1-3.3c-0.4-0.8-0.8-1.5-1.1-2.3c-0.3-0.8-0.6-1.6-0.9-2.5c-0.4-1.3-0.7-2.6-0.9-3.9c-0.2-1.3-0.3-2.7-0.3-4.1
			c0-0.4,0-0.7,0-1.1c0-0.2,0-0.4,0-0.5c0-0.1,0-0.1,0-0.2c0-0.3,0-0.6,0.1-0.9c0.1-0.6,0.1-1.1,0.2-1.7c0-0.2,0.1-0.4,0.1-0.6
			c0.1-0.4,0.2-0.8,0.3-1.2c2.8,11.8,13.4,20.6,26.1,20.6H474.6z"/>
	</g>
</g>
</svg>
