<?xml version="1.0" encoding="utf-8"?>
<!-- Generator: Adobe Illustrator 22.0.1, SVG Export Plug-In . SVG Version: 6.00 Build 0)  -->
<svg version="1.1" xmlns="http://www.w3.org/2000/svg" xmlns:xlink="http://www.w3.org/1999/xlink" x="0px" y="0px"
	 viewBox="0 0 512 512" style="enable-background:new 0 0 512 512;" xml:space="preserve">
<style type="text/css">
	.st0{fill:#E9B12D;}
	.st1{fill:#A9E7D8;}
	.st2{fill:#76CFB1;}
	.st3{fill:#AE6B5D;}
	.st4{fill:#7770D3;}
	.st5{fill:#5BA0F5;}
	.st6{fill:#DA4545;}
	.st7{fill:#89CCFC;}
	.st8{fill:#CD462A;}
	.st9{fill:#514896;}
	.st10{fill:#5493A0;}
	.st11{fill:#CC6B5C;}
	.st12{fill:#62AA8D;}
	.st13{fill:#8ABAAB;}
	.st14{fill:#C3791F;}
	.st15{fill:#E39123;}
	.st16{fill:#FFFFFF;}
	.st17{fill:none;stroke:#FFFFFF;stroke-width:10;stroke-linecap:round;stroke-miterlimit:10;}
	.st18{fill:none;stroke:#5F55AB;stroke-width:10;stroke-linecap:round;stroke-miterlimit:10;}
	.st19{fill:#A9671C;}
	.st20{fill:#D5B3A7;}
	.st21{fill:#C09A8F;}
	.st22{fill:#487F87;}
	.st23{fill:#1B305C;}
	.st24{fill:#172945;}
	.st25{fill:none;}
	.st26{fill:#B62A2A;}
	.st27{fill:#325859;}
	.st28{fill:#3F6E71;}
	.st29{fill:#284646;}
	.st30{fill:#8F2727;}
	.st31{fill:#29477C;}
	.st32{fill:#5B9BEE;}
	.st33{fill:#487FDE;}
	.st34{fill:#CD9829;}
	.st35{fill:#9F2A2A;}
	.st36{fill:#4C3328;}
	.st37{fill:#E8B94A;}
	.st38{fill:#DDF8F1;}
	.st39{fill:#3E2A22;}
	.st40{fill:#D3A971;}
	.st41{fill:#C79A5B;}
	.st42{fill:#233E76;}
	.st43{fill:#21395F;}
	.st44{fill:#487D82;}
	.st45{fill:none;stroke:#C79A5B;stroke-width:10;stroke-linecap:round;stroke-miterlimit:10;}
	.st46{fill:#5E3E31;}
	.st47{fill:#AC3939;}
	.st48{fill:#CA9628;}
	.st49{fill:#AF8F88;}
	.st50{fill:#815048;}
	.st51{fill:#6F4232;}
	.st52{fill:#5F55AB;}
	.st53{fill:#192A48;}
	.st54{fill:#152336;}
	.st55{fill:#192B49;}
	.st56{fill:#264173;}
	.st57{fill:#B06F1E;}
	.st58{fill:#4E88C0;}
	.st59{fill:#83C3F1;}
	.st60{fill:#CF9929;}
	.st61{fill:none;stroke:#FFFFFF;stroke-width:10;stroke-linecap:round;stroke-linejoin:round;stroke-miterlimit:10;}
	.st62{fill:#EAC262;}
	.st63{fill:#D6D5D4;}
	.st64{fill:#6BBA9B;}
	.st65{fill:#63AA8F;}
	.st66{fill:none;stroke:#3E2A22;stroke-width:10;stroke-linecap:round;stroke-miterlimit:10;}
	.st67{fill:#CA7D1F;}
	.st68{fill:#213B64;}
	.st69{fill:#CDF8EC;}
	.st70{fill:#C59125;}
	.st71{fill:none;stroke:#C09A8F;stroke-width:10;stroke-linecap:round;stroke-miterlimit:10;}
	.st72{fill:#32579B;}
	.st73{fill:#172843;}
	.st74{fill:#D66767;}
	.st75{fill:#A74949;}
	.st76{fill:#EBC76F;}
	.st77{fill:#7A4940;}
	.st78{fill:#182A48;}
	.st79{fill:none;stroke:#A0794A;stroke-width:10;stroke-linecap:round;stroke-miterlimit:10;}
	.st80{fill:#C37A20;}
	.st81{fill:#D26D5C;}
	.st82{fill:#A45752;}
	.st83{fill:#284579;}
	.st84{fill:#88C7F4;}
	.st85{fill:#6EB6F0;}
	.st86{fill:#32221E;}
	.st87{fill:#E7A6A6;}
	.st88{fill:#C59191;}
	.st89{fill:#AA3B3B;}
	.st90{fill:#B83E3E;}
	.st91{fill:none;stroke:#5F55A9;stroke-width:10;stroke-linecap:round;stroke-miterlimit:10;}
	.st92{fill:#963838;}
	.st93{fill:#402B25;}
	.st94{fill:#6B6ABA;}
	.st95{fill:#BABABA;}
	.st96{fill:#D1D1D1;}
	.st97{fill:#264377;}
	.st98{fill:#A19BF5;}
	.st99{fill:#3C2A21;}
	.st100{fill:none;stroke:#4C3328;stroke-width:10;stroke-linecap:round;stroke-miterlimit:10;}
	.st101{fill:#C1781F;}
	.st102{fill:#E3A147;}
	.st103{fill:#F2D2A1;}
	.st104{fill:#4F372D;}
	.st105{fill:none;stroke:#DA4545;stroke-width:10;stroke-linecap:round;stroke-miterlimit:10;}
	.st106{fill:#AA3928;}
	.st107{fill:#8C2C22;}
	.st108{fill:#BF4336;}
	.st109{fill:#5797D4;}
	.st110{fill:#CFCFCF;}
	.st111{fill:#613A2E;}
	.st112{fill:none;stroke:#B18653;stroke-width:10;stroke-linecap:round;stroke-miterlimit:10;}
	.st113{fill:#B13B3B;}
	.st114{fill:#16263A;}
	.st115{fill:none;stroke:#16263A;stroke-width:10;stroke-miterlimit:10;}
	.st116{fill:#C87D20;}
	.st117{fill:#E4F0FD;}
	.st118{fill:#AA3737;}
	.st119{fill:#BF771F;}
	.st120{fill:none;stroke:#CD462A;stroke-width:10;stroke-linejoin:round;stroke-miterlimit:10;}
	.st121{fill:#5696D2;}
	.st122{fill:#C0771E;}
	.st123{fill:#9B5F1B;}
	.st124{fill:#A83A29;}
	.st125{fill:#E7A74F;}
	.st126{fill:#C9924C;}
	.st127{fill:#C58E48;}
	.st128{fill:#BE8844;}
	.st129{fill:#916939;}
	.st130{fill:#264275;}
	.st131{fill:#253F65;}
	.st132{fill:#182A45;}
	.st133{fill:#162336;}
	.st134{fill:#93C7B7;}
	.st135{fill:#E6A4A4;}
	.st136{fill:#B06B1D;}
	.st137{fill:#484185;}
	.st138{fill:#DB6E6E;}
	.st139{fill:#6BBA9A;}
	.st140{fill:#CACCCC;}
	.st141{fill:#D4D4D4;}
	.st142{fill:#A98881;}
	.st143{fill:#213A62;}
	.st144{fill:#A2837D;}
	.st145{fill:#6FB8F4;}
	.st146{fill:#9B9E9E;}
	.st147{fill:#B2B3B3;}
	.st148{fill:#20385D;}
	.st149{fill:#335AA8;}
	.st150{fill:#BCE7FD;}
	.st151{fill:#3B2921;}
	.st152{fill:#AD3C3C;}
	.st153{fill:#9D3838;}
	.st154{fill:#603F33;}
	.st155{fill:#4D868B;}
	.st156{fill:#A2DDFD;}
	.st157{fill:#ECB6B6;}
	.st158{fill:#E8A346;}
	.st159{fill:#514C94;}
	.st160{fill:#D2F1E8;}
	.st161{fill:#BDD6CE;}
	.st162{fill:#B93B29;}
	.st163{fill:#E0AD70;}
	.st164{fill:#C57C21;}
	.st165{fill:#EDA34A;}
	.st166{fill:#2F538F;}
	.st167{fill:#2B4B78;}
	.st168{fill:#65AF91;}
	.st169{fill:#A7CEFC;}
	.st170{fill:#98BDE2;}
	.st171{fill:#CFE5F7;}
	.st172{fill:#5492CD;}
	.st173{fill:#97CCBC;}
	.st174{fill:#5491CA;}
	.st175{fill:#EDC563;}
	.st176{fill:#423C79;}
	.st177{fill:#D3B1A5;}
	.st178{fill:#BE988D;}
	.st179{fill:#A7E5D6;}
	.st180{fill:#F2FFF9;}
	.st181{fill:#D64545;}
	.st182{fill:#A73B3B;}
	.st183{fill:#15233A;}
	.st184{fill:none;stroke:#BE988D;stroke-width:10;stroke-linecap:round;stroke-miterlimit:10;}
	.st185{fill:#AF3A29;}
	.st186{fill:#FAF9FF;}
	.st187{fill:#CACACC;}
	.st188{fill:#372720;}
	.st189{fill:#3F2C26;}
	.st190{fill:#2D201C;}
	.st191{fill:#3D6D6F;}
	.st192{fill:#5B54A8;}
	.st193{fill:#325799;}
	.st194{fill:#E8C26E;}
	.st195{fill:#254784;}
	.st196{fill:#5696D4;}
	.st197{fill:#4F8AB6;}
	.st198{fill:#5FA4AC;}
	.st199{fill:#AA3524;}
	.st200{fill:#D15F4D;}
	.st201{fill:#2B294C;}
	.st202{fill:#A43A2A;}
	.st203{fill:#E7AE2D;}
	.st204{fill:#CD9729;}
	.st205{fill:none;stroke:#AA8253;stroke-width:10;stroke-linecap:round;stroke-miterlimit:10;}
	.st206{fill:none;stroke:#E18F23;stroke-width:10;stroke-linecap:round;stroke-linejoin:round;stroke-miterlimit:10;}
	.st207{fill:#CF9828;}
	.st208{fill:#B88926;}
	.st209{fill:#A17623;}
	.st210{fill:#96CCBC;}
	.st211{fill:#CF9A2A;}
	.st212{fill:#C57B20;}
	.st213{fill:#C7F1E6;}
	.st214{fill:#DC6363;}
	.st215{fill:#E89F9F;}
	.st216{fill:#C88C8C;}
	.st217{fill:#C16E6E;}
	.st218{fill:#A46060;}
	.st219{fill:#AA3626;}
	.st220{fill:#87EDC4;}
	.st221{fill:#D86552;}
	.st222{fill:#BC7620;}
	.st223{fill:#BA741E;}
	.st224{fill:#8F8CE3;}
	.st225{fill:#3A2820;}
	.st226{fill:#AC7060;}
	.st227{fill:#915F55;}
	.st228{fill:#49332A;}
	.st229{fill:#2D1F1B;}
	.st230{fill:#69B7BE;}
	.st231{fill:#D6D6D6;}
	.st232{fill:#B8B8B8;}
	.st233{fill:#CACACA;}
	.st234{fill:#467B80;}
	.st235{fill:#C2EDE2;}
	.st236{fill:#A9574F;}
	.st237{fill:#5595D2;}
	.st238{fill:#955949;}
	.st239{fill:#7E4B42;}
	.st240{fill:#89CCF1;}
	.st241{fill:#DD584A;}
	.st242{fill:#C18F26;}
	.st243{fill:#B33C2A;}
	.st244{fill:#D1A771;}
	.st245{fill:#B42A2A;}
	.st246{fill:#325797;}
	.st247{fill:#9F3529;}
	.st248{fill:#EDCE80;}
	.st249{fill:#F0DBAC;}
	.st250{fill:#CFB478;}
	.st251{fill:#D4C29B;}
	.st252{fill:#993939;}
	.st253{fill:#D1AFA3;}
	.st254{fill:#BC968B;}
	.st255{fill:none;stroke:#BC968B;stroke-width:10;stroke-linecap:round;stroke-miterlimit:10;}
	.st256{fill:#814C3C;}
	.st257{fill:#C0EBE0;}
	.st258{fill:#A5E3D4;}
	.st259{fill:#15243C;}
	.st260{fill:#443E79;}
	.st261{fill:#F0FFF7;}
	.st262{fill:#9A764B;}
	.st263{fill:#826443;}
	.st264{fill:#D9AA74;}
	.st265{fill:#5DA186;}
	.st266{fill:#68B596;}
	.st267{fill:#E5C6BE;}
	.st268{fill:#D3B6B1;}
	.st269{fill:none;stroke:#BAA09C;stroke-width:10;stroke-linecap:round;stroke-miterlimit:10;}
	.st270{fill:#F4D78F;}
	.st271{fill:#20385F;}
	.st272{fill:#BA8727;}
	.st273{fill:#5A9C82;}
	.st274{fill:none;stroke:#E39123;stroke-width:10;stroke-linecap:round;stroke-linejoin:round;stroke-miterlimit:10;}
	.st275{fill:#60392D;}
	.st276{fill:#CCCCCC;}
	.st277{fill:#844F3E;}
	.st278{fill:#F3FFFB;}
	.st279{fill:#365E60;}
	.st280{fill:#D84545;}
	.st281{fill:#A83B3B;}
	.st282{fill:#253F70;}
	.st283{fill:#EAADAD;}
	.st284{fill:#443E7C;}
	.st285{fill:#3D6B9F;}
	.st286{fill:#4274BC;}
	.st287{fill:#AF3827;}
	.st288{fill:#E59D9D;}
	.st289{fill:#C48989;}
	.st290{fill:none;stroke:#9B621A;stroke-width:10;stroke-linecap:round;stroke-linejoin:round;stroke-miterlimit:10;}
	.st291{fill:#213A5E;}
	.st292{fill:#2D507A;}
	.st293{fill:#528EC8;}
	.st294{fill:#EFD696;}
	.st295{fill:#D1BA87;}
	.st296{fill:#FDFCFC;}
	.st297{fill:#86CBFC;}
	.st298{fill:#7AB7DA;}
	.st299{fill:#192C4C;}
	.st300{fill:#BCBCBC;}
	.st301{fill:#A13838;}
	.st302{fill:#75BDF6;}
	.st303{fill:#D0B1AA;}
	.st304{fill:#142233;}
	.st305{fill:#E6C4BB;}
	.st306{fill:#BDBDBD;}
	.st307{fill:#E8A192;}
	.st308{fill:#A43939;}
	.st309{fill:#162640;}
	.st310{fill:#27457C;}
	.st311{fill:#EFBE5E;}
	.st312{fill:#87EDC5;}
	.st313{fill:#A03838;}
	.st314{fill:#833232;}
	.st315{fill:#47417F;}
	.st316{fill:none;stroke:#915F55;stroke-width:10;stroke-linecap:round;stroke-miterlimit:10;}
	.st317{fill:#BC8B25;}
	.st318{fill:#473129;}
	.st319{fill:#67B394;}
	.st320{fill:#599A80;}
	.st321{fill:#B13D3D;}
</style>
<g id="BULINE">
	<circle id="XMLID_1353_" class="st4" cx="256" cy="256" r="256"/>
	<g>
	</g>
</g>
<g id="Icons">
	<g id="XMLID_3311_">
		<g id="XMLID_1354_">
			<path id="XMLID_1586_" class="st98" d="M512,256c0,90-46.4,169.1-116.7,214.8c-5.7,3.7-11.5,7.2-17.5,10.4
				c-3.3,1.8-6.6,3.5-10,5.1c-12.3,6-25.2,11-38.5,15c-6.8,2-13.6,3.8-20.6,5.2c-3.8,0.8-7.5,1.5-11.3,2.1
				c-13.5,2.2-27.3,3.3-41.4,3.3c-0.7,0-1.4,0-2.1,0c-12.7-0.1-25.3-1.1-37.5-3c-5.6-0.9-11.2-1.9-16.7-3.2c-0.1,0-0.3-0.1-0.4-0.1
				c-24.9-5.6-48.5-14.9-70.1-27.2c-3.4-1.9-6.7-3.9-10-6c-6-3.8-11.9-7.8-17.5-12.1C40,413.6,0,339.5,0,256c0-24.4,3.4-48,9.8-70.4
				c40.1,2.3,99.5,14.5,165.8,56.7c4.3,2.7,8.6,5.6,13,8.6c8.8,6.1,17.8,12.8,26.8,20c2.1,1.7,4.1,3.3,6.2,5.1
				c0.2,0.1,0.4,0.3,0.6,0.5c4.2,3.5,8.5,7.2,12.8,11l0,0c0,0,0.1,0.1,0.1,0.1c6.4,5.7,12.9,11.8,19.4,18.2c2.4,2.3,4.8,4.7,7.2,7.2
				c2.1,2.2,4.2,4.3,6.3,6.6c2.6,2.7,5.2,5.5,7.8,8.3c2.4,2.6,4.8,5.3,7.2,8c2.1,2.4,4.3,4.9,6.4,7.4c0.3,0.4,0.6,0.7,0.9,1.1
				c2.4,2.8,4.8,5.7,7.2,8.6c0.9,1.1,1.8,2.1,2.6,3.2c1.3,1.6,2.6,3.2,3.9,4.8c0,0,4,2.2,10.3,4.6c1.3,0.5,2.8,1,4.3,1.5
				c12,4,29.4,7.4,44.6,1.1c1.6-0.6,3.2-1.4,4.7-2.3c3.5-2,6.9-4.6,10-8c6.2-6.7,11.2-16.4,14.3-30c1.1-4.7,1.9-9.8,2.4-15.5
				c1-10.3,0.9-20.8-0.1-31.1c-2.8-29.4-7.6-136.9,65.2-180.4C492.5,143.9,512,197.7,512,256z"/>
			<g id="XMLID_1374_">
				<path id="XMLID_1399_" class="st16" d="M363.1,312v89c-33.6,20-72.9,31.5-114.9,31.5c-32.7,0-63.8-7-91.9-19.5
					c-9.2-4.1-18.1-8.9-26.7-14.1c-0.2-0.1-0.4-0.2-0.6-0.4V312c0-22.7,18.4-41,41-41h151.9c2.3,0,4.6,0.2,6.8,0.6
					C348.3,274.8,363.1,291.7,363.1,312z"/>
				<path id="XMLID_1398_" class="st96" d="M197.4,271c-2.5,0-4.9,0.2-7.3,0.7c-19.2,3.5-33.7,20.2-33.7,40.4v100.9
					c-9.2-4.1-18.1-8.9-26.7-14.1V312c0-22.7,18.4-41,41.1-41H197.4z"/>
				<path id="XMLID_1397_" class="st50" d="M246.9,306.5h-1.6c-19.6,0-35.6-15.9-35.6-35.6v0h72.7v0
					C282.5,290.6,266.6,306.5,246.9,306.5z"/>
				<path id="XMLID_1396_" class="st99" d="M356.9,59c-5.1-5.2-14.6-11.8-27.6-16.8C325.9,22.1,309,6.9,288.4,5.3
					c-53.4-4-84.2,9.8-101.9,27.2C161.3,38,145.7,48.8,136.9,56c-6.7,5.5-9,21.2-7,28.7l14.7,53.8c2.6-0.7,5.3-2.3,8.1-4.6v-16.6
					c0-16.6,4.3-32.1,11.9-45.6c-0.4,1.8-0.8,3.5-1.1,5.1c-0.8,4.7,4.2,8.2,8.4,6c6.2-3.4,12.7-5.9,19.5-7.9
					c39.2-11.3,85.8-1.6,105.9,3.8c4.6,1.2,9.2,1.1,13.5,0c6.1-1.6,11.5-5.5,14.9-10.8c0.6,1,1.2,2,1.8,3
					c7.8,13.7,12.3,29.5,12.3,46.4v14.6h2.2c3.9,0,7.4,1.8,9.8,4.5l10.6-48.7C364,80.2,362.3,64.5,356.9,59z"/>
				<path id="XMLID_1395_" class="st86" d="M294.9,6.4c-27.5,4-45.8,14.2-57.9,26.1C211.8,38,196.2,48.8,187.4,56
					c-5.3,4.3-7.8,14.8-7.7,22.8c-2.8,1.2-5.6,2.5-8.3,4c-4.2,2.3-9.2-1.3-8.4-6c0.3-1.6,0.6-3.3,1.1-5.1
					c-7.6,13.5-11.9,29.1-11.9,45.6v16.6c-2.8,2.3-5.5,3.8-8.1,4.6l-14.7-53.8c-2-7.5,0.2-23.2,7-28.7c8.8-7.2,24.4-18,49.6-23.4
					c17.7-17.4,48.5-31.2,101.9-27.2C290.3,5.5,292.7,5.9,294.9,6.4z"/>
				<path id="XMLID_1394_" class="st50" d="M252.9,288.1h-13.2c-10.6,0-19.2-8.6-19.2-19.2v-31.6c0-10.6,8.6-19.2,19.2-19.2h13.2
					c10.6,0,19.2,8.6,19.2,19.2v31.6C272.1,279.5,263.5,288.1,252.9,288.1z"/>
				<path id="XMLID_1393_" class="st36" d="M255.3,287.9c-0.9,0.1-1.8,0.2-2.8,0.2h-13.2c-10.6,0-19.2-8.6-19.2-19.2v-31.6
					c0-10.6,8.6-19.2,19.2-19.2h13.2c0.9,0,1.9,0.1,2.8,0.2c-9.3,1.3-16.4,9.3-16.4,19v31.6C238.9,278.6,246.1,286.5,255.3,287.9z"
					/>
				<path id="XMLID_1392_" class="st50" d="M351.9,136.4c-2.4-2.8-5.9-4.5-9.8-4.5h-2.2v-14.6c0-16.9-4.5-32.8-12.3-46.4
					c-0.6-1-1.2-2-1.8-3c-3.5,5.3-8.8,9.1-14.9,10.8c-4.3,1.2-8.9,1.2-13.5,0c-20.2-5.4-66.8-15.2-105.9-3.8
					c-6.8,2-13.3,4.5-19.5,7.9c-4.2,2.3-9.2-1.3-8.4-6c0.3-1.6,0.6-3.3,1.1-5.1c-7.6,13.5-11.9,29.1-11.9,45.6v16.6v25.7
					c0,3.6,0.2,7.1,0.6,10.5c0,0.1,0,0.2,0,0.4c0.1,0.5,0.1,1.1,0.2,1.6c0,0.2,0,0.3,0.1,0.5c0.1,0.6,0.2,1.3,0.3,1.9
					c0.1,0.7,0.2,1.4,0.4,2.1c0.1,0.7,0.3,1.4,0.4,2.1c0.4,2.1,0.9,4.1,1.5,6.1c0.2,0.7,0.4,1.5,0.7,2.2c0.2,0.7,0.4,1.4,0.7,2
					c0.2,0.6,0.4,1.1,0.6,1.7c0.1,0.2,0.1,0.3,0.2,0.5c0.2,0.4,0.3,0.8,0.5,1.3c0.1,0.3,0.2,0.6,0.3,0.9c0.2,0.4,0.3,0.8,0.5,1.2
					c0.1,0.2,0.2,0.4,0.3,0.6c0.2,0.4,0.3,0.8,0.5,1.1c0.2,0.4,0.3,0.8,0.5,1.2c0.1,0.2,0.2,0.4,0.3,0.7c0.2,0.5,0.5,1,0.7,1.5
					c0.1,0.2,0.2,0.3,0.2,0.5c0.2,0.4,0.3,0.7,0.5,1.1c0.2,0.4,0.4,0.9,0.7,1.4c0,0,0,0,0,0.1c0.3,0.6,0.6,1.2,0.9,1.7
					c0.4,0.8,0.9,1.6,1.4,2.4c0.2,0.4,0.5,0.9,0.8,1.3c0.7,1.2,1.5,2.4,2.3,3.6c0.4,0.6,0.8,1.2,1.3,1.8c1.4,1.9,2.8,3.8,4.3,5.7
					c0.4,0.5,0.8,1,1.2,1.4c0.4,0.5,0.8,1,1.3,1.5c0.4,0.5,0.8,0.9,1.3,1.4c0.2,0.3,0.5,0.5,0.7,0.8c0.3,0.3,0.6,0.6,0.9,0.9
					c0.4,0.4,0.8,0.8,1.2,1.2c0.4,0.4,0.7,0.7,1.1,1c0.4,0.4,0.9,0.8,1.4,1.3c1.1,1,2.2,2,3.3,2.9c1.1,0.9,2.3,1.8,3.5,2.7
					c0,0,0.1,0.1,0.1,0.1c0.6,0.4,1.2,0.9,1.8,1.3c0.6,0.4,1.2,0.9,1.8,1.3c0.6,0.4,1.2,0.8,1.9,1.2c0.6,0.4,1.3,0.8,1.9,1.2
					c0.6,0.4,1.3,0.8,1.9,1.1c0.7,0.4,1.3,0.7,2,1.1c0.7,0.4,1.3,0.7,2,1c0,0,0,0,0,0c0.7,0.3,1.3,0.7,2,1c2.7,1.3,5.5,2.5,8.4,3.6
					c0.7,0.3,1.4,0.5,2.2,0.8c0.7,0.2,1.5,0.5,2.2,0.7c0.7,0.2,1.5,0.4,2.2,0.7c0.7,0.2,1.5,0.4,2.2,0.6c0.7,0.2,1.5,0.4,2.3,0.5
					c0.8,0.2,1.5,0.3,2.3,0.5c0.8,0.2,1.5,0.3,2.3,0.4c0.8,0.1,1.5,0.3,2.3,0.4c0.8,0.1,1.6,0.2,2.3,0.3c0.8,0.1,1.6,0.2,2.3,0.3
					c0.8,0.1,1.6,0.2,2.4,0.2c1.6,0.1,3.2,0.2,4.8,0.2c0.8,0,1.6,0,2.4,0c2.3,0,4.5-0.1,6.7-0.2c1.5-0.1,2.9-0.3,4.4-0.4
					c0.7-0.1,1.4-0.2,2.1-0.3c0.1,0,0.2,0,0.3,0c0.5-0.1,1-0.2,1.6-0.2c0.3,0,0.5-0.1,0.8-0.1c0.3,0,0.6-0.1,0.8-0.2
					c17.5-3.1,33.2-11.1,45.9-22.5c16.6-14.9,27.8-35.7,30.4-59h2.7c7.1,0,12.9-5.8,12.9-12.9v-12.4
					C355,141.6,353.8,138.7,351.9,136.4z"/>
				<path id="XMLID_1391_" class="st51" d="M262.6,251.7c-43.7-7.9-76.8-46.1-76.8-92.1v-42.3c0-15.9,4-30.8,10.9-43.9
					c-1.9,0.4-3.7,0.9-5.6,1.4c-6.8,2-13.3,4.5-19.5,7.9c-4.2,2.3-9.2-1.3-8.4-6c0.2-1,1.4-4,1.4-5.1c-5.3,10-10.3,23-11.7,34.8
					c-0.4,3.5-0.6,7.2-0.6,10.8v14.6h-1.8c-7.1,0-12.9,5.8-12.9,12.9v12.4c0,7.1,5.8,12.9,12.9,12.9h2.4c0,0.1,0,0.2,0,0.4
					c0.1,0.5,0.1,1.1,0.2,1.6c0,0.2,0,0.3,0.1,0.5c0.1,0.6,0.2,1.3,0.3,1.9c0.1,0.7,0.2,1.4,0.4,2.1c0.1,0.7,0.3,1.4,0.4,2.1
					c0.4,2.1,0.9,4.1,1.5,6.1c0.2,0.7,0.4,1.5,0.7,2.2c0.2,0.7,0.4,1.4,0.7,2c0.2,0.6,0.4,1.1,0.6,1.7c0.1,0.2,0.1,0.3,0.2,0.5
					c0.2,0.4,0.3,0.8,0.5,1.3c0.1,0.3,0.2,0.6,0.3,0.9c0.2,0.4,0.3,0.8,0.5,1.2c0.1,0.2,0.2,0.4,0.3,0.6c0.2,0.4,0.3,0.8,0.5,1.1
					c0.2,0.4,0.3,0.8,0.5,1.2c0.1,0.2,0.2,0.4,0.3,0.7c0.2,0.5,0.5,1,0.7,1.5c0.1,0.2,0.2,0.3,0.2,0.5c0.2,0.4,0.3,0.7,0.5,1.1
					c0.2,0.4,0.4,0.9,0.7,1.4c0,0,0,0,0,0.1c0.3,0.6,0.6,1.2,0.9,1.7c0.4,0.8,0.9,1.6,1.4,2.4c0.2,0.4,0.5,0.9,0.8,1.3
					c0.7,1.2,1.5,2.4,2.3,3.6c0.4,0.6,0.8,1.2,1.3,1.8c1.4,1.9,2.8,3.8,4.3,5.7c0.4,0.5,0.8,1,1.2,1.4c0.4,0.5,0.8,1,1.3,1.5
					c0.4,0.5,0.8,0.9,1.3,1.4c0.2,0.3,0.5,0.5,0.7,0.8c0.3,0.3,0.6,0.6,0.9,0.9c0.4,0.4,0.8,0.8,1.2,1.2c0.4,0.4,0.7,0.7,1.1,1
					c0.4,0.4,0.9,0.8,1.4,1.3c2.2,2,4.4,3.9,6.8,5.6c0,0,0.1,0.1,0.1,0.1c0.6,0.4,1.2,0.9,1.8,1.3c0.6,0.4,1.2,0.9,1.8,1.3
					c0.6,0.4,1.2,0.8,1.9,1.2c0.6,0.4,1.3,0.8,1.9,1.2c0.6,0.4,1.3,0.8,1.9,1.1c0.7,0.4,1.3,0.7,2,1.1c0.7,0.4,1.3,0.7,2,1
					c0,0,0,0,0,0c0.7,0.3,1.3,0.7,2,1c2.7,1.3,5.5,2.5,8.4,3.6c0.7,0.3,1.4,0.5,2.2,0.8c0.7,0.2,1.5,0.5,2.2,0.7s1.5,0.4,2.2,0.7
					c0.7,0.2,1.5,0.4,2.2,0.6c0.7,0.2,1.5,0.4,2.3,0.5c0.8,0.2,1.5,0.3,2.3,0.5c0.8,0.2,1.5,0.3,2.3,0.4c0.8,0.1,1.5,0.3,2.3,0.4
					c0.8,0.1,1.6,0.2,2.3,0.3c0.8,0.1,1.6,0.2,2.3,0.3c0.8,0.1,1.6,0.2,2.4,0.2c1.6,0.1,3.2,0.2,4.8,0.2c0.8,0,1.6,0,2.4,0
					c1.3,0,2.6,0,3.9-0.1c0.9,0,1.9-0.1,2.8-0.2c1.5-0.1,2.9-0.2,4.4-0.4c0.7-0.1,1.4-0.2,2.1-0.3c0.1,0,0.2,0,0.3,0
					c0.5-0.1,1-0.2,1.6-0.2c0.3,0,0.5-0.1,0.8-0.1C262.1,251.8,262.3,251.7,262.6,251.7C262.6,251.7,262.6,251.7,262.6,251.7z"/>
				<path id="XMLID_1390_" class="st51" d="M252.3,174.2h-11.6c-3.8,0-6.9-3.1-6.9-6.9v0c0-3.8,3.1-6.9,6.9-6.9h11.6
					c3.8,0,6.9,3.1,6.9,6.9v0C259.2,171.1,256.1,174.2,252.3,174.2z"/>
				<path id="XMLID_1389_" class="st100" d="M234.7,195.9c6.5,6.5,17.1,6.5,23.6,0"/>
				<line id="XMLID_1388_" class="st100" x1="239.7" y1="212.4" x2="253.3" y2="212.4"/>
				<circle id="XMLID_1387_" class="st23" cx="201.8" cy="149.8" r="12.6"/>
				<circle id="XMLID_1386_" class="st23" cx="290.1" cy="149.8" r="12.6"/>
				<circle id="XMLID_1385_" class="st16" cx="201.8" cy="154.3" r="5.6"/>
				<circle id="XMLID_1384_" class="st16" cx="290.1" cy="154.3" r="5.6"/>
				<path id="XMLID_1383_" class="st42" d="M193.9,436.2h-9.4c-5.5,0-9.9-4.4-9.9-9.9V272.5c0-5.5,4.4-9.9,9.9-9.9h9.4
					c5.5,0,9.9,4.4,9.9,9.9v153.8C203.9,431.7,199.4,436.2,193.9,436.2z"/>
				<path id="XMLID_1382_" class="st68" d="M196.5,435.8c-0.8,0.2-1.7,0.3-2.6,0.3h-9.4c-5.5,0-9.9-4.4-9.9-9.9V272.5
					c0-5.5,4.4-9.9,9.9-9.9h9.4c0.9,0,1.8,0.1,2.6,0.3c-4.2,1.1-7.3,5-7.3,9.6v153.8C189.2,430.8,192.3,434.7,196.5,435.8z"/>
				<path id="XMLID_1381_" class="st6" d="M200.4,365.5h-22.8c-5.2,0-9.4-4.2-9.4-9.4V320c0-5.2,4.2-9.4,9.4-9.4h22.8
					c5.2,0,9.4,4.2,9.4,9.4v36.1C209.8,361.3,205.6,365.5,200.4,365.5z"/>
				<path id="XMLID_1380_" class="st89" d="M196.7,356.1h-15c-3.4,0-6.2-2.8-6.2-6.2v-23.7c0-3.4,2.8-6.2,6.2-6.2h15
					c3.4,0,6.2,2.8,6.2,6.2v23.7C202.9,353.3,200.1,356.1,196.7,356.1z"/>
				<path id="XMLID_1379_" class="st42" d="M308.6,436.2h-9.4c-5.5,0-9.9-4.4-9.9-9.9V272.5c0-5.5,4.4-9.9,9.9-9.9h9.4
					c5.5,0,9.9,4.4,9.9,9.9v153.8C318.5,431.7,314,436.2,308.6,436.2z"/>
				<path id="XMLID_1378_" class="st68" d="M311.2,435.8c-0.8,0.2-1.7,0.3-2.6,0.3h-9.4c-5.5,0-9.9-4.4-9.9-9.9V272.5
					c0-5.5,4.4-9.9,9.9-9.9h9.4c0.9,0,1.8,0.1,2.6,0.3c-4.2,1.1-7.3,5-7.3,9.6v153.8C303.8,430.8,307,434.7,311.2,435.8z"/>
				<path id="XMLID_1376_" class="st6" d="M315,365.5h-22.8c-5.2,0-9.4-4.2-9.4-9.4V320c0-5.2,4.2-9.4,9.4-9.4H315
					c5.2,0,9.4,4.2,9.4,9.4v36.1C324.4,361.3,320.2,365.5,315,365.5z"/>
				<path id="XMLID_1375_" class="st89" d="M311.4,356.1h-15c-3.4,0-6.2-2.8-6.2-6.2v-23.7c0-3.4,2.8-6.2,6.2-6.2h15
					c3.4,0,6.2,2.8,6.2,6.2v23.7C317.5,353.3,314.8,356.1,311.4,356.1z"/>
			</g>
			<g id="XMLID_1362_">
				<path id="XMLID_1478_" class="st15" d="M297.4,304.9v203.8c-13.5,2.2-27.3,3.3-41.4,3.3c-0.7,0-1.4,0-2.1,0
					c-12.7-0.1-25.3-1.1-37.5-3c-5.6-0.9-11.2-1.9-16.7-3.2c-0.1,0-0.3-0.1-0.4-0.1V326.9l0.2,0l3.3-0.8l1-0.2l5.9-1.3l51.8-11.6
					l27.7-6.2L297.4,304.9z"/>
				<g id="XMLID_1365_">
					<path id="XMLID_1496_" class="st101" d="M199.8,326.9v178.9c-0.1,0-0.3-0.1-0.4-0.1c-24.9-5.6-48.5-14.9-70.1-27.2
						c-3.4-1.9-6.7-3.9-10-6c-6-3.8-11.9-7.8-17.5-12.1V317.9c0-6.7,6.2-11.6,12.7-10.2l14.7,3.3l0.6,0.1l26.6,6l11.8,2.7l6.4,1.4
						l2.8,0.6l11.9,2.7l10.4,2.3L199.8,326.9z"/>
					<path id="XMLID_1479_" class="st102" d="M395.3,335.5v135.3c-5.7,3.7-11.5,7.2-17.5,10.4c-3.3,1.8-6.6,3.5-10,5.1
						c-12.3,6-25.2,11-38.5,15c-6.8,2-13.6,3.8-20.6,5.2c-3.8,0.8-7.5,1.5-11.3,2.1V304.9l6.5,1.5l14.6,3.3l44.6,10l23.8,5.3
						c2,0.4,3.8,1.4,5.2,2.8C394.1,329.8,395.3,332.5,395.3,335.5z"/>
					<g id="XMLID_1367_">
						<path id="XMLID_1368_" class="st103" d="M298.6,493.8c-0.4-0.1-0.8-0.1-1.2-0.1c-0.3,0-0.6,0-0.9,0.1l-80,15.3
							c12.2,1.9,24.8,2.9,37.5,3l43.3-8.3l0.1,0l11.3,2.8c7-1.5,13.9-3.2,20.6-5.2L298.6,493.8z M374,331.4l-10.9-2.7l-38.8-9.7v0
							l-5.9-1.5l-14.6-3.7l-5.3-1.3c-0.4-0.1-0.8-0.1-1.2-0.1c-0.3,0-0.6,0-0.9,0.1l-7.2,1.8l-5.3,1.3h0l-16,3.9l-58.1,14.1
							l-5.9,1.4l-1,0.2L200,336l-0.2-0.1l-0.4-0.1l-10.2-2.3l-13.7-3.1l-1-0.2l-6.4-1.4l-11.8-2.7l-26.7-6l-0.6-0.1l-3.6-0.8
							c-1.5-0.4-3.1,0-4.3,0.9c-1.2,0.9-1.9,2.4-1.9,3.9v148.3c3.3,2.1,6.6,4.1,10,6V330.6l0.4,0.1l26.7,5.9l11.8,2.6l6.4,1.4l1,0.2
							l13.7,3l9.4,2.1c0.2,0.1,0.5,0.1,0.7,0.1c0.1,0,0.2,0,0.4,0c0.3,0,0.7,0,1-0.1l2.1-0.5l1-0.2l5.9-1.4l65.9-16l7.2-1.7l6.4-1.6
							l1.3-0.3l6.7-1.6l0.1,0l6.5,1.6l13.7,3.4l1,0.2l5.9,1.5l38.7,9.7l4.7,1.2v146.1c3.4-1.6,6.7-3.3,10-5.1V336.3
							C377.8,334,376.2,332,374,331.4z"/>
					</g>
				</g>
			</g>
			<path id="XMLID_1360_" class="st50" d="M103.7,417.5H85.3c-7.6,0-13.7-6.2-13.7-13.7v-29.1c0-7.6,6.2-13.7,13.7-13.7h18.4
				c15.6,0,28.3,12.7,28.3,28.3v0C132,404.8,119.4,417.5,103.7,417.5z"/>
			<path id="XMLID_1358_" class="st51" d="M132,388.6c0,7.8-3.2,14.9-8.3,20c-5.1,5.1-12.2,8.3-20,8.3H85.3
				c-7.6,0-13.7-6.1-13.7-13.7v-13.9c0,7.6,6.1,13.7,13.7,13.7h18.4c7.8,0,14.9-3.2,20-8.3c3.5-3.5,6.1-8,7.4-13
				C131.7,383.9,132,386.2,132,388.6z"/>
			<path id="XMLID_1356_" class="st50" d="M388.6,417.5h18.4c7.6,0,13.7-6.2,13.7-13.7v-29.1c0-7.6-6.2-13.7-13.7-13.7h-18.4
				c-15.6,0-28.3,12.7-28.3,28.3v0C360.3,404.8,373,417.5,388.6,417.5z"/>
			<path id="XMLID_1355_" class="st51" d="M360.3,388.6c0,7.8,3.2,14.9,8.3,20c5.1,5.1,12.2,8.3,20,8.3h18.4
				c7.6,0,13.7-6.1,13.7-13.7v-13.9c0,7.6-6.1,13.7-13.7,13.7h-18.4c-7.8,0-14.9-3.2-20-8.3c-3.5-3.5-6.1-8-7.4-13
				C360.6,383.9,360.3,386.2,360.3,388.6z"/>
		</g>
		<path id="XMLID_1489_" class="st104" d="M285,12.3c8.8,4.4,21.2,13.1,28.3,29.5c1.6,3.6-2.2,7.3-5.7,5.6l0,0
			c-2.3-1.1-4.7,1.3-3.7,3.6c1.5,3.4,3.3,7.7,4.9,12.1c1.6,4.5-4.2,7.8-7.3,4.2c-8.2-9.6-20.4-20.8-33.1-22.4
			c-1.4-0.2-2.2-1.8-1.4-3c1.8-2.9,5.4-7.3,11.1-8.9c5.1-1.4,8.4-6.5,7.3-11.6c-0.4-2-1.3-4.1-2.8-6.3
			C281.3,13.6,283.1,11.4,285,12.3z"/>
	</g>
</g>
</svg>
