<?xml version="1.0" encoding="UTF-8"?>
<svg data-name="Layer 1" viewBox="0 0 885.2 708.32" xmlns="http://www.w3.org/2000/svg">
<path transform="translate(-157.4 -95.842)" d="m305.96 803.98s-12.753-31.391 25.505-54.934z" fill="#f0f0f0" data-name="Path 482"/>
<path transform="translate(-157.4 -95.842)" d="m290.27 803.41s-3.89-22.374-34-22.182z" fill="#f0f0f0" data-name="Path 483"/>
<path transform="translate(-157.4 -95.842)" d="m732.96 803.98s-12.753-31.391 25.505-54.934z" fill="#f0f0f0" data-name="Path 482"/>
<path transform="translate(-157.4 -95.842)" d="m717.27 803.41s-3.89-22.374-34-22.182z" fill="#f0f0f0" data-name="Path 483"/>
<circle cx="565.05" cy="394.03" r="110.85" fill="#f0f0f0"/>
<polygon points="565.36 394.03 565.66 394.03 571.14 708.32 559.57 708.32" fill="#f0f0f0"/>
<circle cx="803.05" cy="479.09" r="80.853" fill="#f0f0f0"/>
<polygon points="803.28 479.08 803.5 479.08 807.5 708.32 799.06 708.32" fill="#f0f0f0"/>
<path transform="translate(-157.4 -95.842)" d="m512.73 575.75a10.664 10.664 0 0 0 8.9995-13.652l30.735-22.168-18.409-6.9916-26.364 22.123a10.721 10.721 0 0 0 5.0389 20.689z" fill="#ffb6b6"/>
<polygon points="332.8 697.35 323.04 697.35 318.39 659.71 332.8 659.71" fill="#ffb6b6"/>
<path transform="translate(-157.4 -95.842)" d="m492.68 802.65-31.468-0.00116v-0.398a12.249 12.249 0 0 1 12.248-12.248h7.7e-4l19.219 7.8e-4z" fill="#2f2e41"/>
<polygon points="258.25 697.35 248.49 697.35 243.85 659.71 258.26 659.71" fill="#ffb6b6"/>
<path transform="translate(-157.4 -95.842)" d="m418.14 802.65-31.468-0.00116v-0.398a12.249 12.249 0 0 1 12.248-12.248h7.8e-4l19.219 7.8e-4z" fill="#2f2e41"/>
<polygon points="265.79 488.03 245.11 601.14 237.88 690.97 261.36 689.82 274.73 602.58 307.96 526.62 317.85 689.61 339.47 689.68 351.1 483.51" fill="#2f2e41"/>
<path transform="translate(-157.4 -95.842)" d="m511.15 454.42-28.989-11.534-33.256 3.805-28.193 15.585s8.624 108.16-3.8766 133.53c0 0 10.016 13.874 50.826 10.487 0 0 39.753-5.0243 40.739-18.06s1.1933-36.737 1.1933-36.737l13.799-47.551z" fill="#6c63ff"/>
<path transform="translate(-157.4 -95.842)" d="m432.04 464.35-11.332-2.082s-12.057 5.2868-11.934 21.041-21.301 68.57 4.3315 70.785 18.934-37.454 18.934-37.454z" fill="#6c63ff"/>
<path transform="translate(-157.4 -95.842)" d="m501.96 461.13 9.1943-6.7111s14.038 3.1711 19.23 14.471c0 0 57.566 41.75 41.732 57.584s-48.11 35.322-48.11 35.322l-11.95-13.531 29.649-26.86-24.323-22.158z" fill="#6c63ff"/>
<path transform="translate(-157.4 -95.842)" d="m487.26 412.89a23.799 23.799 0 0 1-47.599 0v-0.91349a23.799 23.799 0 0 1 47.58 0.91349z" fill="#ffb6b6"/>
<path transform="translate(-157.4 -95.842)" d="m467.07 409.06c1.5225-0.24969 3.1729-0.4872 4.537 0.21315 2.9658 1.5164 2.2837 5.8159 3.9036 8.6538 0.63944 1.1266 1.6747 2.0462 2.101 3.2642s0.16444 2.7405 0.83432 3.9158c0.96831 1.6991 3.5931 1.9488 5.3165 0.93785a8.4546 8.4546 0 0 0 3.3373-4.7075c0.57245-1.6199 1.0535-3.4104 2.436-4.47a5.1641 5.1641 0 0 0 1.3337-1.0901 3.2885 3.2885 0 0 0 0.31669-1.8635c0-4.1168-0.63944-7.3079 0.2923-11.297 1.492-6.431 2.8562-9.6099-1.8696-14.378a16.351 16.351 0 0 0-8.9034-4.5553c-3.045-0.49937-7.5271 3.7514-10.609 3.654-7.8377-0.31059-14.451-7.5698-21.924-5.2252a15.42 15.42 0 0 0-8.0508 5.9255c-3.6539 5.3835-3.3251 7.4662-2.7953 13.891a2.3752 2.3752 0 0 0 0.408 1.3702c0.27406 0.32886 0.71861 0.50547 0.98656 0.84041a2.0767 2.0767 0 0 1 0.3045 1.4981 10.078 10.078 0 0 1-0.7247 3.045 1.2544 1.2544 0 0 0-0.10962 1.0962 1.1084 1.1084 0 0 0 0.609 0.41411c3.045 1.0962 6.3335-1.017 9.5916-0.96221s6.3518 2.235 9.7134 1.76c2.9658-0.45686 5.9742-1.4373 8.9644-1.9306z" fill="#2f2e41"/>
<path transform="translate(-157.4 -95.842)" d="m466.92 541.37a2.839 2.839 0 0 1-0.62927 0.16221l-26.427 3.689a2.844 2.844 0 0 1-3.0613-1.8043l-22.748-59.191a2.8562 2.8562 0 0 1 2.044-3.8125h1.4e-4l24.852-5.5459a2.2707 2.2707 0 0 0 0.55162-0.20179l24.172-12.638a2.8291 2.8291 0 0 1 0.58762-0.22869l26.602-7.0917a2.8507 2.8507 0 0 1 3.402 1.7352l19.834 51.611a2.842 2.842 0 0 1-0.37523 2.7306l-6.8595 9.2116a2.8524 2.8524 0 0 1-1.2664 0.96006l-14.991 5.7612a2.255 2.255 0 0 0-0.3115 0.14808l-24.98 14.317a2.8563 2.8563 0 0 1-0.39636 0.18823z" fill="#fff"/>
<path transform="translate(-157.4 -95.842)" d="m479.21 462.59-12.33 3.2885-0.016 0.00366-12.256 6.4083-4.5482 2.3786-0.00212 8.1e-4 -6.831 3.5712-0.18734 0.0422-7.0962 1.5825-3.4296 0.76682-13.988 3.1213 21.96 57.141 14.415-2.0115 3.5344-0.49425 7.5332-1.0528 0.08744-0.01126 24.207-13.874 14.728-5.6602 6.7245-9.0298-19.115-49.74z" fill="#e4e4e4"/>
<rect transform="translate(-299.99 101.3) rotate(-21.022)" x="420.95" y="481.1" width="78.016" height="3.4764" fill="#fff"/>
<rect transform="translate(-303.6 103.51) rotate(-21.022)" x="425.11" y="491.91" width="78.016" height="3.4764" fill="#fff"/>
<rect transform="translate(-310.88 107.97) rotate(-21.022)" x="433.51" y="513.76" width="78.016" height="3.4764" fill="#fff"/>
<polygon points="321.81 366.75 343.61 423.48 340.37 424.73 318.43 367.65" fill="#fff"/>
<polygon points="297.21 376.45 292.73 388.91 291.18 393.23 287.56 403.31 286.78 405.47 286.01 407.63 284.98 410.48 277.65 430.9 275.74 425.94 281.72 409.28 283.08 405.51 283.27 404.96 284.88 400.5 286.9 394.88 288.45 390.56 292.66 378.83 292.66 378.83" fill="#fff"/>
<polygon points="278.54 384.03 301.04 442.55 297.5 443.05 275.12 384.8" fill="#fff"/>
<circle cx="273.73" cy="429.71" r="10.353" fill="#ffb6b6"/>
<circle cx="701.23" cy="183.98" r="183.98" fill="#e4e4e4"/>
<path transform="translate(-157.4 -95.842)" d="m994.47 156.94a183.99 183.99 0 0 1-306.56 194.71 183.99 183.99 0 1 0 306.56-194.71z" opacity=".1" style="isolation:isolate"/>
<polygon points="700.72 183.98 700.21 183.98 691.12 705.58 710.32 705.58" fill="#e4e4e4"/>
<path transform="translate(-157.4 -95.842)" d="m992.4 803.64h-834a1 1 0 0 1 0-2h834a1 1 0 0 1 0 2z" fill="#cacaca"/>
</svg>
