<svg xmlns="http://www.w3.org/2000/svg" data-name="Layer 1" width="682.157" height="538.251"><path fill="#ffb8b8" d="m188.862 526.385 12.182-1.384.465-47.643-17.979 2.041 5.332 46.986z"/><path d="m225.82 533.647-38.285 4.345-1.678-14.792 23.493-2.666a14.887 14.887 0 0 1 16.47 13.113Z" fill="#2f2e41"/><path fill="#ffb8b8" d="M63.582 525.623h12.26l5.832-47.289-18.094.002.002 47.287z"/><path d="m99.486 537.006-38.53.002-.001-14.887 23.644-.001a14.887 14.887 0 0 1 14.887 14.886ZM151.544 314.156l7 22.769 38 82.23 10 78-23 1-14-72-48-52-42 136-19-2s16-176 38-194c0 0 36-17 53 0Z" fill="#2f2e41"/><circle cx="120.492" cy="191.348" r="24.561" fill="#ffb8b8"/><path d="M154.044 318.656s3-102-39-95-24.5 105.5-24.5 105.5 9 18 31-2 32.5-8.5 32.5-8.5Z" fill="#ccc"/><path opacity=".2" style="isolation:isolate" d="m96.044 266.656 9.883 37.883 15.057 15.058-20.94-6.941-4-46z"/><path d="M154.354 361.794a10.056 10.056 0 0 1-5.277-14.488l-23.359-27.044 18.414-2.397 19.36 26.049a10.11 10.11 0 0 1-9.138 17.88Z" fill="#ffb8b8"/><path d="m125.914 244.431 2.63 51.725 31 40-13 10-42-42s-15-51-4-66c4.125-5.625 8.671-7.172 12.744-6.909a13.78 13.78 0 0 1 12.626 13.184Z" fill="#ccc"/><path d="M117.571 217.156a1.014 1.014 0 0 0-.143-1.617 14.283 14.283 0 0 1 1.376-25.037c7.221-3.443 17.006-.765 22.344-7.38a12.409 12.409 0 0 0 2.303-10.078c-1.152-6.249-5.85-10.89-11.11-14.07a40.429 40.429 0 0 0-61.09 39.135c.68 6.014 2.535 12.758-1.04 17.64-3.148 4.298-9.089 5.104-14.307 6.172-11.194 2.29-21.992 7.573-29.588 16.108s-11.648 20.508-9.358 31.701 11.478 21.03 22.77 22.765c9.192 1.412 18.683-2.491 25.433-8.888s11.017-15.035 13.708-23.937c3.194-10.566 4.454-21.95 10.22-31.362 5.644-9.21 17.805-15.812 27.336-11.015a1.022 1.022 0 0 0 1.146-.137Z" fill="#2f2e41"/><path d="M308 538.251H1a1 1 0 0 1 0-2h307a1 1 0 0 1 0 2ZM618.13 197.78a113.455 113.455 0 1 1-7.184-39.952c.248.667.489 1.333.724 2.006v.006q1.57 4.435 2.766 9.036a114.225 114.225 0 0 1 3.693 28.904Z" fill="#3f3d56"/><path d="M491.413 120.717a38.323 38.323 0 0 0-33.644-1.376c-4.704 2.047-9.657 5.72-11.226 12.351 6.346-3.745 14.562 2.173 16.195 11.666l-.381.105c-.863 6.576 1.063 13.735 4.791 17.813a12.528 12.528 0 0 1 6.013-8.919c2.74-1.8 5.77-3.108 7.86-6.203 2.479-3.67 3.108-9.032 4.093-13.924s2.852-10.15 6.299-11.513Z" fill="#6c63ff"/><path d="M455.886 176.675c-1.757 2.64-4.105 4.296-6.212 6.358a14.301 14.301 0 0 0-4.518 8.446c-.266 2.297.146 4.632.089 6.955-.057 2.322-.831 4.936-2.411 5.514-2.494.9-4.398-3.731-6.961-4.055-2.037-.254-3.871 2.95-3.28 5.73s3.362 4.01 4.955 2.196c1.44 2.417.425 6.802-1.739 7.544-.228 1.523-.457 3.04-.679 4.563-5.47-3.827-10.997-7.716-15.648-13.32a40.429 40.429 0 0 1-9.214-21.777c-.602-6.441.292-13.808-2.665-18.764-2.367-3.966-6.428-4.842-10.083-4.594a35.69 35.69 0 0 0-2.005.203 112.966 112.966 0 0 1 8.18-18.72 8.014 8.014 0 0 0 2.049-1.275c3.401-2.887 4.911-8.732 7.672-12.774q.266-.39.552-.761c2.824-3.687 6.605-5.584 10.26-7.348 8.091-3.928 16.416-7.907 24.957-7.361l-2.43.235q-4.255 11.917-8.516 23.834-.647 1.827-1.307 3.66c-1.612 4.519-3.274 9.329-3.027 14.386.146 2.995 1.187 6.194 3.167 7.221 1.846.952 3.864-.215 5.647-1.37a440.46 440.46 0 0 0 2.26-1.453c2.709-1.745 5.71-3.535 8.572-2.367 2.62 1.066 4.556 4.626 4.924 8.465a16.924 16.924 0 0 1-2.589 10.629ZM472.002 230.915q-11.87-7.31-23.741-14.618l.134-.346c-4.92 1.874-6.963 10.62-6.15 17.773s3.57 13.546 4.964 20.515a54.454 54.454 0 0 1-2.053 28.573 234.003 234.003 0 0 0 27.489-37.878 20.265 20.265 0 0 0 2.486-5.514 8.771 8.771 0 0 0-.581-6.238 6.946 6.946 0 0 0-2.548-2.267Z" fill="#6c63ff"/><path d="M440.77 142.27a8.75 8.75 0 0 0-.401 6.364 7.054 7.054 0 0 0 3.94 3.65l4.373 2.167c1.455.721 3.023 1.45 4.506.856 1.788-.715 3.028-3.52 2.708-6.123-.342-2.77-2.088-4.675-3.703-6.298l-6.78-6.812-1.273 1.56a17.009 17.009 0 0 0-3.37 4.636ZM594.689 171.884l5.901 1.39c-.342 6.643-3.636 12.792-8.052 15.02-1.84.926-3.89 1.268-5.413 3-1.377 1.574-2.075 4.024-2.716 6.365l-3.37 12.26c-1.205 4.404-2.753 9.296-5.888 10.883-2.69 1.364-5.768-.305-7.837-3.103-2.068-2.799-3.331-6.562-4.556-10.23.076 3.998-1.783 7.92-4.416 9.31-2.64 1.389-5.851.133-7.615-2.97-1.27-2.228-1.796-5.166-3.04-7.425-1.243-2.259-3.851-3.553-5.21-1.434-.894 1.41-.78 3.567-1.224 5.356a5.816 5.816 0 0 1-4.86 4.677 8.105 8.105 0 0 1-5.82-2.66 26.359 26.359 0 0 1-7.227-14.575 17.388 17.388 0 0 1 .203-7.97c.78-2.468 2.665-4.372 4.537-3.902 1.231-2.602-1.2-6.054-3.388-5.75-2.196.305-3.916 2.66-5.718 4.468-1.795 1.808-4.308 3.122-6.117 1.326a2.481 2.481 0 0 1-2.324 2.63q-.097.005-.195.004a8.998 8.998 0 0 1-3.28-1.74c-4.144-2.582-9.405-.868-12.35 4.018 1.841-7.83 4.538-16.816 10.192-18.656 2.31-.756 4.829-.134 7.012-1.44 3.864-2.317 4.645-11.068 1.307-14.678.425 3.414.343 7.399-1.46 9.734-1.802 2.335-5.584.812-5.355-2.64a2.313 2.313 0 0 1-4.302.914c-1.2-1.827-1.098-4.816-.248-7a16.487 16.487 0 0 1 3.7-5.253c3.014-3.23 6.072-6.498 9.562-8.529 3.497-2.03 7.532-2.715 11.035-.698 1.847 1.066 3.471 2.843 5.356 3.782a3.969 3.969 0 0 0 5.465-1.28q.032-.05.062-.103c1.402-2.462.742-6.117 1.263-9.195.932-5.438 6.37-7.982 9.385-4.39-2.253-.578-4.582 2.087-4.861 5.317-.286 3.23 1.345 6.491 3.528 7.468 3.668 1.625 7.26-2.462 10.032-6.244q4.34-5.939 8.694-11.872a14.347 14.347 0 0 1 1.554-1.891 5.002 5.002 0 0 1 6.835-.14c2.931 2.393 4.308 7.298 6.713 10.674 3.49 4.905 8.713 6.098 13.573 7.05q5.435 1.056 10.877 2.125a112.69 112.69 0 0 1 6.313 13.941 38.211 38.211 0 0 0-16.257 14.056ZM606.403 248.233a113.76 113.76 0 0 1-9.455 15.82c-2.284-.977-4.74.768-6.879 2.405-2.233 1.713-4.917 3.382-7.208 1.82-2.342-1.598-3.097-6.072-2.354-9.619a25.632 25.632 0 0 1 4.39-9.036c1.904-2.843 3.941-5.794 6.587-6.898 2.653-1.104 6.06.457 6.835 4.227l1.878-.064c-1.054-1.447-.501-4.442.914-4.969 1.63-.615 3.046 1.625 4.01 3.605.432.894.87 1.796 1.282 2.71Z" fill="#6c63ff"/><path d="M534.466 221.43c-4.037.254-7.235-4.716-9.36-9.605s-4.064-10.481-7.707-12.97c-2.081-1.422-4.454-1.617-6.712-2.306a8.311 8.311 0 0 1-5.7-5.019l-2.561-1.034a38.461 38.461 0 0 0-9.724 6.933 21.732 21.732 0 0 0-5.794 12.666c-.489 5.126 1.318 10.842 4.693 12.768 2.667 1.522 5.773.562 8.474 1.955 3.376 1.74 5.38 6.796 6.138 11.788s.567 10.18 1.11 15.228 2.038 10.3 5.134 12.888c3.873 3.237 9.558.547 11.295-5.346.853-2.89.824-6.153 1.461-9.153 1.123-5.285 4.153-9.205 6.556-13.54s4.295-10.222 2.697-15.253ZM494.572 169.504a10.773 10.773 0 0 1 1.051 1.116 3.667 3.667 0 0 1-.064 3.786 3.523 3.523 0 0 0 2.523-1.282 16.214 16.214 0 0 0 1.934-2.725 2.97 2.97 0 0 0 .57-2.376c-.19-.545-.641-.777-.958-1.186a8.058 8.058 0 0 1-.884-2.57 4.635 4.635 0 0 0-3.36-3.54l.203.039a1.92 1.92 0 0 0-.899 2.044c.123.792.631 1.45.58 2.257-.072 1.161-1.233 1.706-1.304 2.868a2.217 2.217 0 0 0 .608 1.569ZM487.655 149.769l.018-.004a3.242 3.242 0 0 0 .345-.367Z" fill="#6c63ff"/><path d="M488.866 155.22a3.52 3.52 0 0 0 1.096-3.49c-.293-1.32-1.332-2.208-2.289-1.965a2.333 2.333 0 0 1-2.169.64c-.592-.153-1.242-.546-1.755-.1a2.657 2.657 0 0 0-.598 1.168l-.57 1.75a1.104 1.104 0 0 0-.068.663.562.562 0 0 0 .431.342l3.42 1.008a2.947 2.947 0 0 0 2.502-.016ZM574.938 230.478l-1.581-2.589a8.648 8.648 0 0 0-2.084-2.616 1.846 1.846 0 0 0-2.6.23l-.028.033.064.493a11.13 11.13 0 0 1 2.777 5.418c.12.882.079 1.795.184 2.68a3.126 3.126 0 0 0 .976 2.187c.83.554 1.805-.263 2.395-1.26a4.34 4.34 0 0 0 .673-2.764 4.844 4.844 0 0 0-.776-1.812ZM583.205 231.6a5.974 5.974 0 0 0-.192-2.409 5.288 5.288 0 0 1 .804-2.998 9.748 9.748 0 0 0 1.254-2.749 2.3 2.3 0 0 0-.06-1.346c-.174-.392-.597-.57-.84-.26l.52.334a4.723 4.723 0 0 0-2.105.101 2.605 2.605 0 0 0-1.596 1.799 11.13 11.13 0 0 1-.418 1.866c-.31.636-.908.847-1.285 1.405a3.36 3.36 0 0 0 .053 3.193 3.727 3.727 0 0 0 2.108 1.658c.634.227 1.468.24 1.757-.594ZM597.929 236.043a7.243 7.243 0 0 0 .912 1.674c.705.71 1.663.274 2.518.101a4.353 4.353 0 0 1 4.141 1.661 10.541 10.541 0 0 0-6.063-7.564 17.812 17.812 0 0 0-6.235-.975l-.362.093c.923 2.686 3.82 2.626 5.089 5.01ZM535.57 241.536l.006.012.105-.203ZM533.337 245.86a19.84 19.84 0 0 0-1.253 2.752 23.963 23.963 0 0 0-.908 4.71c-.114.908-.149 2.067.42 2.51a.807.807 0 0 0 1.055-.144 4.173 4.173 0 0 0 .765-1.137 26.195 26.195 0 0 0 2.583-6.13 10.666 10.666 0 0 0-.423-6.873l-2.239 4.311ZM511.79 130.678a2.543 2.543 0 0 0 2.74.535 9.05 9.05 0 0 0 2.579-1.704 6.067 6.067 0 0 0 1.563-1.705 3.458 3.458 0 0 0 .32-2.634 2.676 2.676 0 0 0-2.04-1.614l-3.796-1.125.915-.826c-.942-.505-1.984.433-2.573 1.595a8.582 8.582 0 0 0-.78 2.404 6.17 6.17 0 0 0 1.072 5.074ZM534.132 123.177a2.09 2.09 0 0 0 2.85.232 3.185 3.185 0 0 0 1.26-2.27c.09-.995-.403-2.102-1.106-2.188l.161-.932c-1.354-.244-3.02-.293-3.746 1.351a3.861 3.861 0 0 0 .581 3.807Z" fill="#6c63ff"/><ellipse cx="442.072" cy="178.894" rx="8.447" ry="11.327" fill="#e6e6e6"/><ellipse cx="854.01" cy="506.281" rx="7.557" ry="5.257" transform="rotate(-14.913 33.543 1405.018)" fill="#e6e6e6"/><ellipse cx="804.613" cy="507.196" rx="7.557" ry="5.257" transform="rotate(-14.912 -15.846 1405.919)" fill="#e6e6e6"/><ellipse cx="862.785" cy="465.184" rx="7.557" ry="5.257" transform="rotate(-14.913 42.318 1363.921)" fill="#e6e6e6"/><ellipse cx="878.119" cy="448.054" rx="3.322" ry="4.776" transform="rotate(-7.068 -715.777 2453.957)" fill="#e6e6e6"/><ellipse cx="881.808" cy="417.049" rx="3.322" ry="4.776" transform="rotate(-7.068 -712.09 2422.952)" fill="#e6e6e6"/><ellipse cx="832.015" cy="476.653" rx="3.322" ry="4.776" transform="rotate(-7.068 -761.882 2482.556)" fill="#e6e6e6"/><ellipse cx="856.989" cy="485.692" rx="3.322" ry="4.776" transform="rotate(-7.068 -736.908 2491.595)" fill="#e6e6e6"/><ellipse cx="826.666" cy="511.294" rx="3.322" ry="4.776" transform="rotate(-7.068 -767.23 2517.197)" fill="#e6e6e6"/><ellipse cx="608.48" cy="464.799" rx="7.557" ry="5.257" transform="rotate(-14.913 -211.986 1363.537)" fill="#e6e6e6"/><ellipse cx="559.084" cy="465.714" rx="7.557" ry="5.257" transform="rotate(-14.913 -261.383 1364.452)" fill="#e6e6e6"/><ellipse cx="617.256" cy="423.702" rx="7.557" ry="5.257" transform="rotate(-14.912 -203.202 1322.427)" fill="#e6e6e6"/><ellipse cx="632.59" cy="406.573" rx="3.322" ry="4.776" transform="rotate(-7.068 -961.307 2412.476)" fill="#e6e6e6"/><ellipse cx="636.278" cy="375.567" rx="3.322" ry="4.776" transform="rotate(-7.068 -957.619 2381.47)" fill="#e6e6e6"/><ellipse cx="586.486" cy="435.171" rx="3.322" ry="4.776" transform="rotate(-7.068 -1007.41 2441.074)" fill="#e6e6e6"/><ellipse cx="611.459" cy="444.21" rx="3.322" ry="4.776" transform="rotate(-7.068 -982.438 2450.113)" fill="#e6e6e6"/><ellipse cx="581.137" cy="469.813" rx="3.322" ry="4.776" transform="rotate(-7.068 -1012.76 2475.716)" fill="#e6e6e6"/><ellipse cx="908.586" cy="274.864" rx="7.557" ry="5.257" transform="rotate(-14.913 88.12 1173.601)" fill="#e6e6e6"/><ellipse cx="859.19" cy="275.779" rx="7.557" ry="5.257" transform="rotate(-14.913 38.723 1174.516)" fill="#e6e6e6"/><ellipse cx="917.361" cy="233.767" rx="7.557" ry="5.257" transform="rotate(-14.912 96.9 1132.492)" fill="#e6e6e6"/><ellipse cx="932.696" cy="216.637" rx="3.322" ry="4.776" transform="rotate(-7.068 -661.201 2222.54)" fill="#e6e6e6"/><ellipse cx="936.384" cy="185.632" rx="3.322" ry="4.776" transform="rotate(-7.068 -657.513 2191.535)" fill="#e6e6e6"/><ellipse cx="886.592" cy="245.236" rx="3.322" ry="4.776" transform="rotate(-7.068 -707.305 2251.139)" fill="#e6e6e6"/><ellipse cx="911.565" cy="254.275" rx="3.322" ry="4.776" transform="rotate(-7.068 -682.332 2260.178)" fill="#e6e6e6"/><ellipse cx="881.243" cy="279.877" rx="3.322" ry="4.776" transform="rotate(-7.068 -712.654 2285.78)" fill="#e6e6e6"/><path d="M336.07 296.032c-8.082 0-13.336-2.008-15.661-6-4.586-7.873 3.094-21.686 22.827-41.056l1.657 1.689c-18.33 17.993-26.299 31.55-22.44 38.176 2.442 4.19 9.708 5.692 21.019 4.34 11.228-1.34 26.108-5.335 44.227-11.874 37.3-13.462 84.099-36.169 131.773-63.94 47.673-27.77 90.51-57.276 120.621-83.083 5.784-4.958 11.033-9.727 15.601-14.175a155.354 155.354 0 0 0 16.545-18.439c6.754-9.17 9.034-16.233 6.592-20.424-4.077-7-21.207-6.342-48.237 1.856l-.686-2.265c29-8.793 46.148-9.057 50.968-.782 2.995 5.142.73 12.886-6.731 23.019a157.689 157.689 0 0 1-16.8 18.73c-4.604 4.483-9.89 9.286-15.712 14.277-30.217 25.897-73.178 55.492-120.97 83.33-47.794 27.841-94.73 50.614-132.16 64.123-18.288 6.6-33.344 10.636-44.75 11.997a65.227 65.227 0 0 1-7.683.5Z" fill="#3f3d56"/></svg>