<svg xmlns="http://www.w3.org/2000/svg" data-name="Layer 1" width="918.582" height="432.051"><path d="M184.392 306.4a10.221 10.221 0 0 0-10.21 10.21v23.886a10.221 10.221 0 0 0 10.21 10.21h12.95a10.221 10.221 0 0 0 10.209-10.21V316.61a10.221 10.221 0 0 0-10.21-10.21ZM423.773 351.5h-12.95a11.017 11.017 0 0 1-11.004-11.004V316.61a11.017 11.017 0 0 1 11.004-11.004h12.95a11.017 11.017 0 0 1 11.004 11.004v23.886a11.017 11.017 0 0 1-11.004 11.004Z" fill="#3f3d56"/><path d="M415.18 332.375H192.19c-10.149 0-18.405-5.982-18.405-13.336v-42.88l11.068-11.656H424.67l8.915 11.68v42.856c0 7.354-8.256 13.336-18.405 13.336Z" fill="#ccc"/><path d="M423.63 285.954H186.124l-2.414-37.009 1.536-3.787 8.928-21.969h219.797l12.071 24.948Z" fill="#ccc"/><path fill="#fff" d="m425.64 248.216-1.772 27.807h-52.254v-20.657l52.54-10.217 1.486 3.067zM237.345 255.366v20.657h-51.468l-1.764-27.013 1.502-3.702 51.73 10.058z"/><path d="M412.647 229.545h-217.15l23.16-77.202a15.495 15.495 0 0 1 14.763-11.093l143.811-1.37a15.564 15.564 0 0 1 15.22 11.664Z" fill="#ccc"/><path d="m395.93 222.245-183.752-2.179a1.485 1.485 0 0 1-1.396-1.938l17.615-54.96a1.485 1.485 0 0 1 1.414-1.032h147.796a1.485 1.485 0 0 1 1.414 1.031l18.34 57.14a1.485 1.485 0 0 1-1.43 1.938Z" fill="#fff"/><path d="M328.836 149.3h-49.528c-.418 0-.796-.41-.988-1.072a3.34 3.34 0 0 1 .079-2.059l4.084-10.328c.208-.527.548-.841.909-.841h41.36c.36 0 .7.314.909.84l4.084 10.33a3.34 3.34 0 0 1 .079 2.058c-.192.662-.57 1.073-.988 1.073Z" fill="#6c63ff"/><path d="M195.634 227.956h-32.575v-7.16a8.74 8.74 0 0 1 8.73-8.73h23.845ZM445.105 227.956h-32.574v-15.89h23.844a8.74 8.74 0 0 1 8.73 8.73Z" fill="#ccc"/><path fill="#3f3d56" d="m.001 396.774 159.247-57.207.676 1.882L.677 398.656zM447.236 341.454l.676-1.883 159.252 57.193-.676 1.882z"/><path d="M312.93 381.05H303.4V368.74h9.532Zm0-24.624H303.4v-12.311h9.532ZM312.93 432.05H303.4V419.74h9.532Zm0-24.624H303.4v-12.311h9.532Z" fill="#e6e6e6"/><path fill="#ffb8b8" d="M731.758 389.521H721.26l-4.996-40.493h15.494v40.493z"/><path d="M734.436 399.698h-33.85v-.429a13.19 13.19 0 0 1 13.175-13.175h20.675Z" fill="#2f2e41"/><path fill="#ffb8b8" d="m867.137 369.628-8.999 5.407-25.137-32.137 13.281-7.98 20.855 34.71z"/><path d="m845.658 394.406-.221-.367a13.191 13.191 0 0 1 4.508-18.08l17.722-10.648 7.007 11.661ZM734.488 381.165l-.181-.001a140.974 140.974 0 0 1-15.285-.88c-1.934-.19-4.033-.398-6.561-.606l-.087-.016c-1.725-.513-1.773-16.69-1.041-72.065.374-28.363.799-60.51.293-80.982l-.005-.201.152-.133c18.728-16.288 42.778-22.394 67.72-17.192l.185.038.096.163c10.318 17.458 25.897 42.604 40.962 66.924 34.584 55.826 44.476 72.244 43.392 73.482l-.131.102a575.58 575.58 0 0 0-5.642 2.863c-5.048 2.588-7.137 3.659-18.363 8.282l-.278.114-.202-.222c-35.09-38.452-64.293-81.405-82.356-121.113-2.11 13.556-4.672 31.257-7.379 49.96-7.784 53.783-13.045 89.197-15.163 91.354ZM788.99 54.903c3.535-14.592 6.529-31.05-.136-44.49-4.624-9.324-21.732-12.465-31.539-9.105S740.418 13.78 737.3 23.718s-2.756 20.647-1.397 30.977c18.036-.346 36.072-.693 53.088.208Z" fill="#2f2e41"/><circle cx="758.554" cy="33.867" r="21.032" fill="#ffb8b8"/><path d="M784.266 29.535a26.417 26.417 0 1 0-52.802.696c18.002.038 36.003.076 52.802-.696Z" fill="#2f2e41"/><path d="M743.942 230.752a183.811 183.811 0 0 1 61.464 10.29c.688-33.153-10.726-66.367-31.364-91.215l-.154-.186.08-.228c5.511-15.927 11.209-32.39 16.3-48.772l-.077-.275c-3.57-12.694-11.235-25.52-23.43-39.215a7.505 7.505 0 0 0-10.244-.52c-21.676 19.872-33.462 49.645-30.759 77.701l.008.083-.023.08c-9.55 32.35-13.016 48.966-16.074 63.626-2.23 10.695-4.162 19.955-8.04 33.186a199.253 199.253 0 0 1 42.313-4.555Z" fill="#3f3d56"/><path opacity=".1" d="m774.749 128.486-31.064 67.629-17.746-17.963 48.81-49.666z"/><path d="m705.023 166.05 2.166 4.208a.166.166 0 0 1-.071.223l-.105.053 11.283 21.923a2.573 2.573 0 0 1-1.11 3.465l-13.699 7.05a2.572 2.572 0 0 1-3.464-1.11l-10.887-21.155-.075.04a.117.117 0 0 1-.157-.05l-1.233-2.395a.117.117 0 0 1 .05-.158l.076-.039-.464-.902-.077.04a.122.122 0 0 1-.164-.054l-1.216-2.362a.122.122 0 0 1 .053-.164l.076-.04-.634-1.23-.077.039a.108.108 0 0 1-.146-.046l-.663-1.29a.109.109 0 0 1 .046-.146l.078-.04-1.344-2.61a2.572 2.572 0 0 1 1.11-3.464l13.698-7.05a2.573 2.573 0 0 1 3.465 1.11l3.158 6.137.105-.054a.165.165 0 0 1 .222.071Z" fill="#3f3d56"/><path d="m700.675 160.912 16.623 32.299a1.632 1.632 0 0 1-.704 2.197l-13.113 6.749a1.63 1.63 0 0 1-2.196-.7l-.002-.004-16.623-32.299a1.632 1.632 0 0 1 .704-2.198l1.963-1.01.13.252a1.344 1.344 0 0 0 1.81.58l6.668-3.433a1.344 1.344 0 0 0 .58-1.81l-.13-.251 2.092-1.077a1.632 1.632 0 0 1 2.198.704Z" fill="#6c63ff"/><path d="M705.493 200.371a8.61 8.61 0 0 0 7.754-10.687l25.596-16.77-14.598-6.306-22.068 16.891a8.658 8.658 0 0 0 3.316 16.872Z" fill="#ffb8b8"/><path d="m730.122 188.29-.323-.228c-6.091-4.484-12.854-9.12-19.394-13.604l-.393-.27.31-.362c13.958-16.332 27.933-33.39 41.449-49.893a.768.768 0 0 0-.026-.06l.127-.064.054-.066.03.024.08-.041-.368.028-4.166-32.67c-3.763-5.134-4.483-15.325.448-22.44 5.108-7.37 15.914-9.836 23.126-5.28a15.175 15.175 0 0 1 6.664 11.332 13.686 13.686 0 0 1-3.628 11.207c1.771 17.29 1.839 32.744 1.905 47.693v.15l-.092.122c-14.41 18.306-30.237 36.515-45.544 54.124Z" fill="#3f3d56"/><circle cx="303.795" cy="51.811" r="47.29" fill="#6c63ff"/><path fill="#fff" d="m299.288 71.773-14.154-18.199 8.231-6.402 6.702 8.617 22.64-23.9 7.571 7.173-30.99 32.711z"/><path d="M917.582 401h-239a1 1 0 0 1 0-2h239a1 1 0 0 1 0 2Z" fill="#3f3d56"/></svg>