<svg xmlns="http://www.w3.org/2000/svg" width="651.813" height="551.31" data-name="Layer 1"><path fill="#f0f0f0" d="M348.617 77.437c21.624-15.974 52.067-22.097 75.888-9.636a123.863 123.863 0 0 0-61.639 58.589c-4.972 10.119-9.449 21.892-19.708 26.568-6.383 2.91-13.917 2.349-20.527-.001-6.61-2.35-12.49-6.342-18.289-10.292l-1.739-.21c10.319-24.824 24.39-49.045 46.014-65.018Z"/><path fill="#fff" d="M424.313 68.332A105.87 105.87 0 0 0 362.992 90.3a45.591 45.591 0 0 0-9.99 10.21 26.149 26.149 0 0 0-4.311 13.07c-.315 4.342-.135 8.822-1.5 13.013a16.01 16.01 0 0 1-8.936 9.571c-5.125 2.317-10.777 2.654-16.316 2.79-6.15.153-12.54.214-18.133 3.11-.677.35-1.182-.722-.506-1.072 9.731-5.038 21.102-1.75 31.329-4.75 4.772-1.398 9.152-4.244 11.068-9.005 1.675-4.164 1.493-8.783 1.774-13.184a27.903 27.903 0 0 1 3.74-12.936 42.148 42.148 0 0 1 9.56-10.556 102.713 102.713 0 0 1 27.793-16.065 107.747 107.747 0 0 1 35.853-7.346c.76-.023.651 1.157-.104 1.18Z"/><path fill="#fff" d="M368.41 85.592a15.884 15.884 0 0 1 3.73-20.226c.593-.48 1.367.418.773.899a14.708 14.708 0 0 0-3.432 18.822c.383.659-.69 1.16-1.072.505ZM348.56 111.357a30.615 30.615 0 0 0 22.2-2.237c.678-.348 1.183.724.505 1.072a31.844 31.844 0 0 1-23.104 2.28c-.736-.208-.332-1.322.4-1.115ZM399.952 71.592a8.991 8.991 0 0 0 6.184 5.878c.737.198.332 1.312-.4 1.115a10.075 10.075 0 0 1-6.855-6.488.612.612 0 0 1 .283-.788.595.595 0 0 1 .788.283Z"/><path fill="#f0f0f0" d="M443.391 156.843c-.464-.111-.928-.222-1.4-.326a118.407 118.407 0 0 0-18.997-2.831c-.494-.041-.996-.075-1.49-.102a124.827 124.827 0 0 0-45.575 5.914 121.222 121.222 0 0 0-17.028 7.022c-7.58 3.825-15.496 8.575-23.658 9.64a20.796 20.796 0 0 1-2.566.204l-30.194-31.77c-.032-.107-.072-.207-.105-.314l-1.264-1.214c.273-.162.56-.325.833-.488.158-.095.323-.183.481-.278.108-.06.216-.121.31-.183.035-.02.07-.04.1-.054.093-.061.186-.108.273-.162q2.4-1.372 4.829-2.714c.007-.007.007-.007.021-.007 12.353-6.787 25.382-12.603 38.879-16.256.406-.11.819-.227 1.239-.322a115.673 115.673 0 0 1 18.581-3.325 102.262 102.262 0 0 1 10.338-.43 85.037 85.037 0 0 1 26.214 4.443c16.846 5.677 31.689 16.679 39.587 32.35.202.4.397.795.592 1.203Z"/><path fill="#fff" d="M442.92 157.155a105.87 105.87 0 0 0-62.188-19.379 45.591 45.591 0 0 0-14.124 2.138 26.148 26.148 0 0 0-11.31 7.84c-2.867 3.277-5.42 6.963-9.034 9.487a16.01 16.01 0 0 1-12.897 2.262c-5.487-1.236-10.203-4.37-14.708-7.595-5.002-3.581-10.14-7.38-16.35-8.435-.752-.128-.51-1.288.242-1.16 10.803 1.836 17.903 11.306 27.874 15.07 4.652 1.756 9.862 2.12 14.259-.528 3.844-2.315 6.48-6.113 9.354-9.457a27.903 27.903 0 0 1 10.774-8.078 42.148 42.148 0 0 1 13.99-2.672 102.712 102.712 0 0 1 31.863 3.906 107.747 107.747 0 0 1 33.049 15.72c.62.44-.177 1.317-.794.88Z"/><path fill="#fff" d="M387.892 137.278a15.884 15.884 0 0 1 15.157-13.903c.762-.026.839 1.157.076 1.183a14.708 14.708 0 0 0-14.073 12.962c-.091.757-1.25.511-1.16-.242ZM356.532 145.9a30.615 30.615 0 0 0 19.07 11.579c.753.13.51 1.29-.24 1.16a31.844 31.844 0 0 1-19.821-12.09c-.462-.608.531-1.255.99-.65ZM421.507 145.09a8.991 8.991 0 0 0 1.398 8.417c.469.602-.525 1.248-.991.65a10.075 10.075 0 0 1-1.567-9.307.612.612 0 0 1 .7-.46.595.595 0 0 1 .46.7Z"/><path fill="#3f3d56" d="M342.912 101.2h-2.34V37.1a37.1 37.1 0 0 0-37.1-37.1H167.666a37.1 37.1 0 0 0-37.1 37.1v351.662a37.1 37.1 0 0 0 37.1 37.1h135.806a37.1 37.1 0 0 0 37.1-37.1V146.829h2.34Z"/><path fill="#fff" d="M304.969 9.652h-17.727a13.163 13.163 0 0 1-12.187 18.134h-77.802a13.163 13.163 0 0 1-12.187-18.134h-16.557a27.706 27.706 0 0 0-27.706 27.706v351.146a27.706 27.706 0 0 0 27.706 27.705h136.46a27.706 27.706 0 0 0 27.706-27.705V37.358a27.706 27.706 0 0 0-27.706-27.706Z"/><path fill="#f0f0f0" d="M239.36 303.408a76.429 76.429 0 0 1-76.5-76.5 76.39 76.39 0 0 1 41.76-68.166 76.657 76.657 0 0 1 59.406-4.264 76.51 76.51 0 0 1-24.665 148.93Zm0-150a72.69 72.69 0 0 0-33.377 8.006 73.502 73.502 0 1 0 76.428 125.06 72.847 72.847 0 0 0 10.956-9.722 73.474 73.474 0 0 0-54.006-123.344Z"/><path fill="#ffb6b6" d="M73.597 159.017a14.476 14.476 0 0 1 12.023 18.659l25.417 21.171-9.1 18.584-35.473-30.402a14.554 14.554 0 0 1 7.133-28.012Z"/><path fill="#e4e4e4" d="M310.98 247.308c-.509-5.48-2.616-15.33-4.404-18.973-5.497-14.388-41.015-26.213-45.785-27.737l-1.21-13.45-49.35-5.31-6.26 17.2-17.7 6.64a8.693 8.693 0 0 0-5.18 5.31l-15.88 4.59-15.67 4.53-54.44-38.36-2.57 1.68-17.18 11.21-2.65 1.73 70.45 63.56 26.17-6.14 19.68-4.63 1.68 6.82-4.35 23.96a74.977 74.977 0 0 0 96.96 7.75l11.18-9.92a74.89 74.89 0 0 0 16.81-29.53Z"/><circle cx="513.338" cy="311.449" r="35.532" fill="#ffb6b6" transform="rotate(-18.319 -164.338 1074.23)"/><path fill="#2f2e41" d="M211.177 96.599a23.983 23.983 0 0 1 14.522-9.673 22.897 22.897 0 0 1 16.885 3.097c5.452-2.196 11.33-3.653 17.105-2.913s11.436 3.967 14.108 9.282a25.374 25.374 0 0 0 2.039 3.958c2.354 3.142 6.73 3.549 10.593 3.7q-2.93 1.71-5.861 3.418l5.842 2.722-7.95 3.036c6.168 5.422 7.66 15.072 5.324 23.162-2.211 7.66-7.281 14.108-12.943 19.629-1.104-4.12.11-8.585.92-12.85.854-4.506.991-9.775-2.164-12.956-2.128-2.146-5.25-2.795-8.194-3.315a397.688 397.688 0 0 0-44.886-5.33 12.7 12.7 0 0 0-5.983.611c-3.663 1.628-5.135 6.098-6.196 10.06a79.775 79.775 0 0 1 1.208-20.8c1.004-5.244 2.586-10.493 5.631-14.838Z"/><path fill="#6c63ff" d="M257.36 339.45h-42a5.5 5.5 0 0 1 0-11h42a5.5 5.5 0 0 1 0 11ZM119.542 45.125H4.018a4.018 4.018 0 0 1 0-8.036h115.524a4.018 4.018 0 0 1 0 8.036ZM186.243 70.788H4.018a4.018 4.018 0 0 1 0-8.035h182.225a4.018 4.018 0 1 1 0 8.035Z"/><path fill="#cacaca" d="M151.225 94.966H4.018a4.018 4.018 0 1 1 0-8.036h147.207a4.018 4.018 0 1 1 0 8.036ZM87.027 119.054H4.017a4.018 4.018 0 1 1 0-8.036h83.01a4.018 4.018 0 1 1 0 8.036ZM132.883 143.14H4.018a4.018 4.018 0 0 1 0-8.035h128.865a4.018 4.018 0 0 1 0 8.035Z"/><path fill="#9f616a" d="m496.06 536.227-10.354-.001-4.926-39.938 15.282.001-.002 39.938z"/><path fill="#2f2e41" d="m500.134 550.556-39.531-.001v-.5a15.387 15.387 0 0 1 15.386-15.386h.001l7.221-5.478 13.473 5.479h3.45Z"/><path fill="#9f616a" d="m490.027 348.527-4.567-55.68-3.587-20.898 20.086-4.436 6.665 28.611-5.807 53.948a9.29 9.29 0 1 1-12.79-1.545ZM441.06 536.227l-10.354-.001-4.926-39.938 15.282.001-.002 39.938z"/><path fill="#2f2e41" d="m424.49 361.149-4.59 7.94s-5.044 1.377-3.396 17.818 1.72 113.85 9.698 125.836l1.444 10.293 15.067 1.44.38-9.133 17.965-126.884s10.58 124.56 19.334 127.608l3.16 10.377 13.809.006-.815-12.229.89-154.36Z"/><path fill="#e4e4e4" d="m419.443 368.484-.318-.082c9.475-35.436 6.742-81.323.052-130.597v-.204l24.184-22.15h21l20.818 13.434c13.458 6.73 16.517 20.98 16.546 21.123l.021.101-8.246 28.784 6.212 83.244.007.096-.035.09c-2.01 5.098-7.398 4.372-13.637 3.53-6.227-.839-29.176 6.84-36.212 6.84-13.751 0-29.41-3.957-30.392-4.21Z"/><path fill="#e4e4e4" d="m480.82 240.104 9.02-3.924 11.887 14.573 9.634 46.697-33-5Z"/><path fill="#9f616a" d="m342.06 326.215 41.24-37.685 14.334-15.627 15.8 13.171-18.55 22.78-46.22 28.422a9.29 9.29 0 1 1-6.604-11.06Z"/><path fill="#e4e4e4" d="m382.403 288.94 11.422-14.833c.095-.213 9.572-21.39 17.786-30.592 8.426-9.438 15.06-4.611 15.126-4.56l.165.125.459 34.857-31.628 37.791Z"/><circle cx="725.872" cy="365.847" r="19.251" fill="#9f616a" transform="rotate(-80.783 486.366 439.754)"/><path fill="#2f2e41" d="M434.179 188.645s-.155-6.768-1.01-9.762-2.567-5.562-1.711-5.562 1.283-2.139 1.283-2.139.856-.427 1.283 0 .856-2.994.856-2.994.428-1.284.856-.428.427.428.855-.856 2.567-2.139 2.567-2.139 8.128.428 9.411-1.283 15.829-.428 18.823 1.711 16.257 9.84 14.118 16.256-8.297 21.192-9.84 22.674c-2.44 2.342-4.129 3.187-15.674 5.484-2.26.45-13.792-6.926-13.792-8.21s1.39-5.353-.845-5.911c-3.378-.845-3.758 3.426-4.614 2.143s-2.566-8.984-2.566-8.984ZM445.134 550.556l-39.531-.001v-.5a15.387 15.387 0 0 1 15.386-15.386h.001l7.221-5.478 13.473 5.479h3.45Z"/><path fill="#cacaca" d="M650.622 551.31H3.328a1.19 1.19 0 1 1 0-2.381h647.294a1.19 1.19 0 0 1 0 2.381Z"/></svg>