<svg xmlns="http://www.w3.org/2000/svg" data-name="Layer 1" width="872.699" height="590.182"><path d="M58.73 444.734c-4.144 0-8.296.171-12.351.516l-.59.05c-26.9 2.378-46.574 16.173-45.765 32.09l.157 2.878c.103 1.819.213 3.775.303 5.945.05 1.07 1.51 1.891 3.326 1.891h661.64c46.65-.283 93.129-.64 138.14-1.06a235.086 235.086 0 0 0 25.274-1.309c12.51-1.48 21.191-4.415 26.545-8.971h.002c6.658-5.65 6.868-12.766 6.465-20.805-.82-16.233-1.633-33.285-2.445-50.286-.717-14.984-1.43-29.927-2.144-44.234-.442-8.49-1.423-15.984-8.984-21.712-8.195-6.194-23.14-9.334-44.423-9.334l-.773.001c-66.697.238-132.783 23.171-164.445 57.068-3.646 3.903-7.044 8.082-10.33 12.124-4.855 5.97-9.874 12.143-15.864 17.664a74.56 74.56 0 0 1-10.48 8.169c-.257.178-.55.368-.862.549-.712.464-1.456.91-2.181 1.31a75.768 75.768 0 0 1-13.365 6.075l-.469.158a23.61 23.61 0 0 1-1.117.367 87.524 87.524 0 0 1-8.254 2.206c-12.07 2.66-25.793 3.298-40.79 1.893a197.11 197.11 0 0 1-40.556-8.264c-13.886-4.389-26.884-9.86-39.454-15.152-5.521-2.325-11.232-4.728-16.935-7.005a466.603 466.603 0 0 0-3.197-1.267c-6.966-2.715-13.281-4.957-19.307-6.855a190.553 190.553 0 0 0-46.008-8.521c-16.588-.908-31.206.805-43.437 5.08a74.597 74.597 0 0 0-9.826 4.232c-14.487 7.524-23.419 18.627-32.055 29.366-10.744 13.356-21.853 27.169-43.79 34.329-25.314 8.27-62.262 4.834-88.403-1.14-8.219-1.88-16.428-4.04-24.366-6.132q-4.81-1.267-9.626-2.516c-6.31-1.63-11.473-2.877-16.25-3.93l-1.512-.337a188.23 188.23 0 0 0-2.538-.539c-5.675-1.191-10.958-2.129-16.162-2.866l-1.231-.18a228.304 228.304 0 0 0-7.04-.823l-.904-.09a144.583 144.583 0 0 0-13.623-.633Z" fill="#f2f2f2"/><path d="M742.905 462.498c18.617-16.776 46.308-25.212 69.537-15.805a115.466 115.466 0 0 0-51.888 59.935c-3.698 9.839-6.787 21.167-15.882 26.434-5.66 3.277-12.7 3.437-19.046 1.855-6.346-1.582-12.162-4.754-17.899-7.894l-1.632-.037c7.328-23.966 18.192-47.711 36.81-64.488Z" fill="#e6e6e6"/><path d="M812.312 447.203a98.692 98.692 0 0 0-54.906 25.93 42.5 42.5 0 0 0-8.346 10.377 24.376 24.376 0 0 0-2.817 12.516c.1 4.058.673 8.198-.215 12.21a14.925 14.925 0 0 1-7.424 9.689c-4.546 2.613-9.76 3.436-14.886 4.065-5.692.697-11.615 1.332-16.543 4.524-.597.387-1.162-.562-.566-.948 8.573-5.555 19.42-3.533 28.637-7.24 4.301-1.73 8.107-4.767 9.454-9.358 1.178-4.014.591-8.284.454-12.392a26.011 26.011 0 0 1 2.299-12.34 39.29 39.29 0 0 1 7.916-10.66 95.749 95.749 0 0 1 24.333-17.42 100.442 100.442 0 0 1 32.6-10.058c.703-.09.708 1.015.01 1.105Z" fill="#fff"/><path d="M762.006 468.275a14.807 14.807 0 0 1 1.632-19.104c.506-.499 1.305.265.798.764a13.71 13.71 0 0 0-1.482 17.774c.415.577-.536 1.14-.948.566ZM745.92 493.975a28.54 28.54 0 0 0 20.394-4.084c.599-.384 1.164.565.567.949a29.685 29.685 0 0 1-21.23 4.206c-.701-.126-.427-1.197.27-1.071ZM790.005 452.431a8.381 8.381 0 0 0 6.269 4.895c.702.117.427 1.187-.27 1.07a9.392 9.392 0 0 1-6.947-5.398.57.57 0 0 1 .19-.758.555.555 0 0 1 .758.191Z" fill="#fff"/><path d="M838.02 527.598a79.27 79.27 0 0 0-1.328-.175 110.379 110.379 0 0 0-17.882-.909c-.462.007-.93.02-1.392.04a116.365 116.365 0 0 0-41.75 9.61 113.005 113.005 0 0 0-15.163 8.056c-6.688 4.235-13.602 9.358-21.078 11.085a19.386 19.386 0 0 1-2.362.42l-30.889-26.745c-.04-.096-.085-.185-.126-.281l-1.282-1.012c.24-.175.49-.352.73-.528.137-.102.282-.199.42-.301.094-.067.189-.133.27-.198l.088-.06c.081-.065.164-.117.239-.175q2.103-1.49 4.235-2.955c.006-.007.006-.007.02-.008a166.157 166.157 0 0 1 34.6-18.6c.367-.138.74-.284 1.12-.41a107.831 107.831 0 0 1 16.94-4.766 95.329 95.329 0 0 1 9.553-1.335 79.272 79.272 0 0 1 24.723 1.752c16.143 3.743 30.91 12.608 39.656 26.432.223.354.44.702.658 1.063Z" fill="#e6e6e6"/><path d="M837.61 527.93a98.692 98.692 0 0 0-59.45-12.353 42.5 42.5 0 0 0-12.911 3.26 24.376 24.376 0 0 0-9.785 8.297c-2.364 3.301-4.398 6.951-7.523 9.62a14.925 14.925 0 0 1-11.761 3.266c-5.203-.65-9.862-3.132-14.333-5.717-4.965-2.87-10.076-5.93-15.933-6.347-.71-.05-.59-1.148.12-1.098 10.188.726 17.632 8.871 27.224 11.46 4.475 1.21 9.342 1.076 13.182-1.779 3.357-2.496 5.46-6.258 7.823-9.62a26.01 26.01 0 0 1 9.265-8.47 39.29 39.29 0 0 1 12.738-3.745 95.75 95.75 0 0 1 29.917.742 100.443 100.443 0 0 1 32.085 11.596c.616.35-.045 1.237-.657.888Z" fill="#fff"/><path d="M784.758 514.467a14.807 14.807 0 0 1 12.805-14.27c.704-.094.883.996.177 1.09a13.71 13.71 0 0 0-11.884 13.299c-.016.71-1.114.588-1.098-.119ZM756.441 525.303a28.54 28.54 0 0 0 18.742 9.018c.71.053.59 1.15-.119 1.098a29.685 29.685 0 0 1-19.483-9.424c-.484-.523.38-1.212.86-.692ZM816.652 518.674a8.381 8.381 0 0 0 2.059 7.682c.49.517-.374 1.206-.86.693a9.392 9.392 0 0 1-2.297-8.493.57.57 0 0 1 .609-.49.555.555 0 0 1 .49.608Z" fill="#fff"/><path d="M255.543 479.184c15.245-23.123 42.515-39.849 69.975-36.25a127.604 127.604 0 0 0-38.822 78.538c-1.218 11.551-1.37 24.526-9.632 32.69-5.141 5.08-12.627 7.21-19.854 7.283-7.227.073-14.33-1.702-21.34-3.464l-1.756.415c1.17-27.671 6.184-56.09 21.429-79.212Z" fill="#e6e6e6"/><path d="M325.521 443.515a109.067 109.067 0 0 0-51.51 43.009 46.968 46.968 0 0 0-6.039 13.42 26.938 26.938 0 0 0 .469 14.17c1.236 4.312 3 8.58 3.167 13.118a16.494 16.494 0 0 1-5.245 12.428c-4.135 4.06-9.482 6.39-14.79 8.489-5.894 2.33-12.053 4.656-16.434 9.441-.531.58-1.4-.277-.87-.856 7.623-8.326 19.787-9.182 28.614-15.711 4.12-3.047 7.345-7.353 7.509-12.638.143-4.622-1.673-9.024-2.963-13.38a28.745 28.745 0 0 1-.974-13.838 43.42 43.42 0 0 1 5.5-13.603 105.814 105.814 0 0 1 21.18-25.4 111.001 111.001 0 0 1 32.068-19.827c.727-.293 1.04.888.318 1.178Z" fill="#fff"/><path d="M277.58 480.048a16.363 16.363 0 0 1-3.57-20.887c.403-.674 1.47-.08 1.067.595a15.152 15.152 0 0 0 3.36 19.422c.604.502-.257 1.368-.858.87ZM267.526 512.01a31.54 31.54 0 0 0 20.675-10.042c.533-.577 1.402.28.87.857a32.806 32.806 0 0 1-21.536 10.405c-.785.06-.79-1.161-.01-1.22ZM303.118 455.313a9.263 9.263 0 0 0 8.066 3.491c.783-.07.787 1.151.009 1.22a10.38 10.38 0 0 1-8.932-3.841.63.63 0 0 1-.006-.864.613.613 0 0 1 .863-.006Z" fill="#fff"/><path d="M375.382 522.349c-.488.057-.976.115-1.469.181a121.983 121.983 0 0 0-19.378 4.003c-.492.136-.99.281-1.477.43a128.597 128.597 0 0 0-41.98 21.894 124.883 124.883 0 0 0-13.976 12.834c-5.974 6.39-11.944 13.792-19.46 17.72a21.424 21.424 0 0 1-2.409 1.107l-40.477-20.012c-.069-.092-.143-.175-.213-.267l-1.652-.725c.206-.254.426-.513.632-.767.12-.148.248-.292.367-.44.082-.097.165-.194.233-.286a1.72 1.72 0 0 1 .078-.088c.069-.093.143-.171.207-.254q1.835-2.179 3.707-4.339c.005-.009.005-.009.019-.014 9.538-10.948 20.075-21.196 31.832-29.518.354-.25.712-.51 1.084-.752a119.167 119.167 0 0 1 16.791-9.81 105.352 105.352 0 0 1 9.846-4.085 87.605 87.605 0 0 1 26.93-5.004c18.307-.488 36.566 4.885 49.766 17.238.338.316.667.628 1 .954Z" fill="#e6e6e6"/><path d="M375.037 522.817a109.067 109.067 0 0 0-67.022 3.328 46.968 46.968 0 0 0-12.9 7.079 26.938 26.938 0 0 0-8.158 11.596c-1.61 4.187-2.77 8.657-5.37 12.381a16.494 16.494 0 0 1-11.67 6.765c-5.745.751-11.418-.606-16.92-2.127-6.108-1.688-12.426-3.538-18.806-2.356-.773.144-.95-1.064-.178-1.207 11.1-2.058 21.327 4.582 32.306 4.683 5.123.048 10.291-1.449 13.603-5.57 2.897-3.604 4.098-8.212 5.69-12.467a28.745 28.745 0 0 1 7.554-11.635 43.42 43.42 0 0 1 12.582-7.55 105.815 105.815 0 0 1 32.203-7.529 111.001 111.001 0 0 1 37.542 3.477c.756.204.296 1.335-.456 1.132Z" fill="#fff"/><path d="M314.764 523.122a16.364 16.364 0 0 1 9.725-18.825c.728-.296 1.222.82.493 1.117a15.152 15.152 0 0 0-9.01 17.53c.18.764-1.029.938-1.208.178ZM287.493 542.589a31.54 31.54 0 0 0 22.554 4.43c.774-.14.95 1.068.178 1.208a32.806 32.806 0 0 1-23.46-4.658c-.662-.425.07-1.403.728-.98ZM350.047 518.749a9.263 9.263 0 0 0 4.338 7.643c.668.416-.064 1.394-.727.98a10.38 10.38 0 0 1-4.819-8.445.63.63 0 0 1 .515-.693.613.613 0 0 1 .693.515Z" fill="#fff"/><path d="M364.038 305.828a9.76 9.76 0 0 0-1.281-14.91l15.932-77.107-17.189 5.422-12.818 74.595a9.813 9.813 0 0 0 15.356 12Z" fill="#ffb6b6"/><path d="m400.864 99.72-10.647-8.038s-9.393-.665-11.057 16.274-12.079 81.95-12.079 81.95l-16.293 75.463 22.554 4.95 17.45-81.438 17.47-56.184Z" fill="#e6e6e6"/><path d="m392.753 239.353-51.075-39.714a3.809 3.809 0 0 1-.668-5.338l34.75-44.693a3.809 3.809 0 0 1 5.34-.668l51.074 39.713a3.809 3.809 0 0 1 .668 5.339l-34.75 44.693a3.809 3.809 0 0 1-5.34.668Z" fill="#3f3d56"/><path d="M392.472 235.243 345.73 198.9a3.382 3.382 0 0 1-.593-4.74l31.503-40.516a3.382 3.382 0 0 1 4.74-.594l46.742 36.345a3.382 3.382 0 0 1 .593 4.74l-31.503 40.516a3.382 3.382 0 0 1-4.74.593Z" fill="#fff"/><path d="M351.858 197.868a.845.845 0 0 1-.149-1.185l15.893-20.44a.844.844 0 1 1 1.333 1.037l-15.892 20.44a.845.845 0 0 1-1.185.148ZM354.492 199.916a.845.845 0 0 1-.149-1.185l15.893-20.44a.844.844 0 1 1 1.333 1.038l-15.892 20.439a.845.845 0 0 1-1.185.148ZM366.13 190.385a.845.845 0 0 1-.15-1.185l6.89-8.86a.844.844 0 1 1 1.333 1.037l-6.889 8.86a.845.845 0 0 1-1.185.148ZM369.68 207.771a.845.845 0 0 1-.148-1.185l25.09-32.267a.844.844 0 1 1 1.333 1.037l-25.09 32.267a.845.845 0 0 1-1.184.148ZM372.315 209.82a.845.845 0 0 1-.149-1.186l25.09-32.267a.844.844 0 1 1 1.333 1.037l-25.09 32.267a.845.845 0 0 1-1.184.148ZM378.294 214.469a.845.845 0 0 1-.149-1.185l25.09-32.267a.844.844 0 1 1 1.333 1.036l-25.09 32.267a.845.845 0 0 1-1.184.149ZM380.928 216.517a.845.845 0 0 1-.149-1.185l25.09-32.267a.844.844 0 1 1 1.333 1.036l-25.09 32.267a.845.845 0 0 1-1.184.149ZM386.907 221.166a.845.845 0 0 1-.148-1.185l25.089-32.267a.844.844 0 1 1 1.333 1.036l-25.09 32.267a.845.845 0 0 1-1.184.149ZM389.54 223.214a.845.845 0 0 1-.147-1.185l25.089-32.267a.844.844 0 0 1 1.333 1.036l-25.09 32.268a.845.845 0 0 1-1.184.148Z" fill="#e4e4e4"/><circle cx="347.608" cy="260.34" r=".347" fill="#fff"/><path d="M398.128 21.796a83.478 83.478 0 0 1-5.957 19.01c-15.673 33.157 28.962 22.35 44.913 22.35 17.44 0 34.126 9.17 31.578-31.578C467.573 14.172 454.524 0 437.084 0c-14.897 0-35.841 6.621-38.956 21.796Z" fill="#2f2e41"/><path fill="#ffb6b6" d="M453.34 508.085h-14.859l-7.071-57.313h21.93v57.313z"/><path d="M461.183 533.83h-10.656l-1.902-10.06-4.872 10.06h-28.262a6.353 6.353 0 0 1-3.61-11.58l22.57-15.588v-10.17l23.738 1.416Z" fill="#2f2e41"/><path fill="#ffb6b6" d="m541.617 489.333-11.924 8.867-39.873-41.771 17.598-13.087 34.199 45.991z"/><path d="m563.273 505.312-8.551 6.359-7.53-6.938 2.094 10.98-22.678 16.864a6.353 6.353 0 0 1-9.808-7.139l8.81-25.975-6.07-8.162 19.896-13.028Z" fill="#2f2e41"/><path fill="#ffb6b6" d="m404.675 244.313 70.535-10.986-14.027-42.198h-56.508v53.184z"/><path d="M470.64 212.382s28.192 24.357 15.184 93.793l-15.88 68.036 43.266 75.116-22 12-53.318-74.106-24.398-57.23L400.59 229.69Z" fill="#2f2e41"/><path fill="#2f2e41" d="m426.942 346.301-1.696 26.261 4.964 77.765 24.644 8.485 4.667-79.678-32.579-32.833z"/><path d="m419.365 71.896 27.265 1.063 10.867 18.038 24.791 4.84-14.8 74.873 2.722 42.617-24.686-.15a72.207 72.207 0 0 0-48.314 18.15l.739-55.32-10.619-41.296 2.387-43.301 19.944-2.493Z" fill="#e6e6e6"/><circle cx="434.471" cy="37.487" r="25.661" fill="#ffb6b6"/><path d="M417.044 11.33a29.393 29.393 0 0 1 44.689 25.653c-13.076 3.282-26.812 5.795-40.756.785l-3.293-8.06-1.941 8.066c-4.247 1.735-8.504 3.204-12.762-.017a30.012 30.012 0 0 1 14.063-26.427Z" fill="#2f2e41"/><path d="m477.542 265.061 3.46 31.393a3.832 3.832 0 0 0 3.662 2.705h15.945a3.832 3.832 0 0 0 3.663-2.705l2.865-24.06a5.82 5.82 0 1 0 1.5-10.948 3.798 3.798 0 0 0-2.907-1.344h-24.525a3.832 3.832 0 0 0-3.663 4.96Zm30.096 5.705 1.755-5.705a3.792 3.792 0 0 0 .058-2.028c.075-.004.145-.022.221-.022a4.155 4.155 0 1 1 0 8.31 4.102 4.102 0 0 1-2.034-.555Z" fill="#6c63ff"/><path d="M501.587 299.18a9.76 9.76 0 0 1 1.357-14.904l-15.54-77.186 17.16 5.51 12.44 74.658a9.813 9.813 0 0 1-15.417 11.923Z" fill="#ffb6b6"/><path d="m471.64 103.874 10.649-8.037s9.392-.665 11.056 16.274 12.08 81.95 12.08 81.95l16.292 75.463-22.554 4.95-17.45-81.438-17.47-56.184Z" fill="#e6e6e6"/><circle cx="379.745" cy="168.11" r="6.027" fill="#6c63ff"/><path fill="#ffb6b6" d="m187.545 578.006 12.561-.001 5.976-48.449-18.539.001.002 48.449z"/><path d="M184.341 573.905h3.536l13.803-5.614 7.398 5.613h.001a15.765 15.765 0 0 1 15.764 15.764v.512l-40.501.002Z" fill="#2f2e41"/><path fill="#ffb6b6" d="m236.221 570.09 12.253 2.767 16.501-45.943-18.084-4.083-10.67 47.259z"/><path d="m234 565.384 3.448.779 14.7-2.435 5.98 7.104h.002a15.765 15.765 0 0 1 11.904 18.85l-.112.5-39.507-8.92ZM164.55 328.79l11.358 127.26s-4.256 76.4 9.477 103.286h19.917l9.861-110.263 1.239-74.01 42.699 62.44-27.197 120.03 24.513 2.191 44.133-130.26-48.486-122.286Z" fill="#2f2e41"/><circle cx="176.446" cy="96.839" r="29.293" fill="#ffb8b8"/><path d="m227.94 154.046-24.031-10.31-11.699-12.41-29.225 4.714-7.754 13.295-25.101 23.34 29.409 132.974-.89 29.042s18.822 8.474 100.452-11.036c.979-.234-1.07-1.258-1.07-1.258Z" fill="#3f3d56"/><path d="M145.985 113.46q-.306-.418-.606-.843c-.08.17-.144.346-.236.512ZM205.585 75.412a18.691 18.691 0 0 0-9.78-9.448 17.845 17.845 0 0 0-13.38.012c-3.872-2.447-8.175-4.387-12.706-4.627s-9.323 1.44-12.115 5.142a19.776 19.776 0 0 1-2.117 2.75c-2.245 2.078-5.656 1.778-8.64 1.353l4.016 3.441-4.86 1.27 5.671 3.44c-5.488 3.293-7.982 10.483-7.323 17.013.623 6.182 3.608 11.835 7.176 16.86 1.423-3.004 1.116-6.598 1.093-9.98-.025-3.575.607-7.634 3.472-9.631 1.932-1.348 4.416-1.408 6.746-1.395a309.938 309.938 0 0 1 35.159 2.195 9.897 9.897 0 0 1 4.501 1.305c2.58 1.76 3.084 5.394 3.343 8.58a62.172 62.172 0 0 0 1.984-16.116 29.707 29.707 0 0 0-2.24-12.164Z" fill="#2f2e41"/><circle cx="214.704" cy="371.895" r="46.105" fill="#fff"/><path d="M214.704 324.765a47.383 47.383 0 0 0-7.08.533c-1.198.174-2.366.4-3.524.676a47.106 47.106 0 0 0-19.968 81.76 48.513 48.513 0 0 0 2.418 1.926 47.12 47.12 0 1 0 28.154-84.895Zm0 92.21a44.82 44.82 0 0 1-26.638-8.739c-.84-.615-1.65-1.25-2.438-1.926a45.054 45.054 0 0 1 20.102-78.594 43.474 43.474 0 0 1 3.462-.564 44.602 44.602 0 0 1 5.512-.338 45.08 45.08 0 0 1 0 90.161Z" fill="#3f3d56"/><rect x="352.741" y="511.436" width="51.228" height="6.147" rx="3" transform="rotate(-180 296.53 437.055)" fill="#6c63ff"/><rect x="352.741" y="523.73" width="51.228" height="6.147" rx="3" transform="rotate(-180 296.53 449.35)" fill="#6c63ff"/><rect x="352.741" y="536.025" width="51.228" height="6.147" rx="3" transform="rotate(180 296.53 461.644)" fill="#6c63ff"/><path fill="#9e616a" d="m730.52 576.442-13.171-.001-6.266-50.802 19.439.001-.002 50.802zM668.209 576.442l-13.17-.001-6.266-50.802 19.439.001-.003 50.802z"/><path d="m668.673 590.181-40.501-.001v-.512a15.765 15.765 0 0 1 15.764-15.764l7.4-5.613 13.802 5.614h3.536ZM732.673 590.181l-40.501-.001v-.512a15.765 15.765 0 0 1 15.764-15.764l7.4-5.613 13.802 5.614h3.536ZM655.29 275.779l-20.017 121.884 5.448 18.163-7.149 12.863 10.498 112.97-4.261 9.382 11.905 7.342h24.226l1.286-102.273 5.984-15.015v-8.276l12.182-62.364 2.243 87.337 3.544 15.039-2.977 10.708 3.89 7.502 10.33 69.57h27.166l-2.1-16.185a11.962 11.962 0 0 0 6.28-13.237l-1.558-7.094 3.545-20.977 6.455-117.023-1.82-94.424-31.778-24.3Z" fill="#2f2e41"/><circle data-name="Ellipse 219" cx="701.179" cy="94.026" r="25.239" fill="#9e616a"/><path d="M646.035 324.146a10.803 10.803 0 0 0-1.73-16.475l9.815-37.115-18.909 6.36-6.421 34.27a10.862 10.862 0 0 0 17.245 12.96Z" fill="#9e616a"/><path data-name="Path 1101" d="m656.364 145.951-4.059-.842-3.461 1.916s-9.67 12.892-9.67 24.71-11.817 125.695-11.817 125.695l21.487 9.668 17.189-89.168Z" fill="#e6e6e6"/><path data-name="Path 1104" d="M723.281 75.521s6.601-12.619-7.921-13.766c0 0-12.381-11.231-25-2.053 0 0-6.884 0-10.648 7.789 0 0-5.413-2.053-6.603 3.442 0 0-3.962 11.472 0 21.797s5.277 11.472 5.277 11.472-6.51-21.647 9.335-22.794 33.574-11.049 34.895 1.57 3.307 15.73 3.307 15.73 12.542-18.024-2.642-23.187Z" fill="#2f2e41"/><path d="M815.477 428.69a7.723 7.723 0 0 1-5.163-1.97l-76.38-67.992a7.79 7.79 0 0 1-.639-10.984l48.93-54.968a7.789 7.789 0 0 1 10.985-.639l76.381 67.993a7.78 7.78 0 0 1 .639 10.983l-48.931 54.968a7.726 7.726 0 0 1-5.36 2.595c-.155.01-.308.013-.462.013Z" fill="#fff"/><path d="M815.476 429.19a8.22 8.22 0 0 1-5.494-2.096L733.6 359.102a8.291 8.291 0 0 1-.68-11.691l48.93-54.968a8.292 8.292 0 0 1 11.692-.68l76.381 67.993a8.282 8.282 0 0 1 .68 11.69l-48.931 54.968a8.229 8.229 0 0 1-5.705 2.762 9.219 9.219 0 0 1-.492.013ZM788.04 291.67a6.264 6.264 0 0 0-4.694 2.102l-48.93 54.968a6.287 6.287 0 0 0 .515 8.867l76.38 67.991a6.279 6.279 0 0 0 8.867-.515l48.931-54.968a6.28 6.28 0 0 0-.515-8.866l-76.381-67.992a6.255 6.255 0 0 0-4.173-1.587Z" fill="#3f3d56"/><path d="M843.174 376.632a3.353 3.353 0 0 1-2.236-.851l-59.956-53.371a3.367 3.367 0 1 1 4.477-5.03l59.956 53.372a3.366 3.366 0 0 1-2.24 5.88ZM831.738 389.478a3.353 3.353 0 0 1-2.236-.85l-59.956-53.371a3.366 3.366 0 1 1 4.477-5.029l59.956 53.371a3.365 3.365 0 0 1-2.24 5.88ZM820.302 402.327a3.35 3.35 0 0 1-2.237-.852l-59.956-53.37a3.367 3.367 0 1 1 4.477-5.029l59.956 53.371a3.365 3.365 0 0 1-2.24 5.88Z" fill="#6c63ff"/><path d="M751.737 326.336a10.803 10.803 0 0 1 5.91-15.475l.066-38.39 16.635 11.01-2.612 34.77a10.862 10.862 0 0 1-19.999 8.085Z" fill="#9e616a"/><path data-name="Path 1100" d="m753.275 156.471 7.432-7.163 5.46 3.94s5.371 6.446 9.669 25.784 0 125.695 0 125.695l-23.635-3.223 3.223-55.865-9.67-47.27Z" fill="#e6e6e6"/><path d="m764.25 151.055-25.04-11.96-17-15.768-31-.232-10 13-26.4 8.967 4.4 91.033-3 7s2.09 1.888 3.045 2.944-1.32 9.896-1.32 9.896l-1.282 9.618 3.557 2.542-4.624 5.462-1.148 8.61s80.715-20.062 95.966 13.172c.806 1.756-1.178-15.405-1.178-15.405l-1.984-12.563 1.968-11.276 3-3-5.031-5.032 3.225-23.874Z" fill="#3f3d56"/><path d="M196.41 352.866a11.6 11.6 0 0 0-8.504-15.622l-5.562-40.844-16.128 14.098 7.755 36.625a11.662 11.662 0 0 0 22.439 5.743Z" fill="#ffb8b8"/><path data-name="Path 1101" d="m133.225 171.929-4.372.837-2.642 3.327s-4.275 16.766.595 28.483 40.076 129.497 40.076 129.497l25.288.733-19.7-95.494Z" fill="#3f3d56"/><path d="M232.917 346.875a11.6 11.6 0 0 1 2.065-17.666l-10.067-39.973 20.22 7.068 6.46 36.875a11.662 11.662 0 0 1-18.678 13.696Z" fill="#ffb8b8"/><path data-name="Path 1101" d="m224.082 155.426 4.368-.853 3.692 2.101s10.218 13.964 10.069 26.652 11.097 135.101 11.097 135.101l-23.191 10.11-17.327-95.953Z" fill="#3f3d56"/></svg>